<svg width="359" height="62" viewBox="0 0 359 62" fill="none" xmlns="http://www.w3.org/2000/svg">
<g clip-path="url(#clip0_2757_13850)">
<path d="M350.502 6.40317C337.733 6.40317 326.111 3.00063 313.658 1.50858C302.407 0.159672 289.733 -1.47002 278.975 2.50511C272.981 4.71841 266.854 6.08384 260.816 7.94477C252.928 10.3783 245.122 13.7698 237.173 15.4876C219.374 19.3306 202.523 27.0552 184.513 29.5437C175.872 30.7385 167.944 31.0303 159.552 33.2436C156.865 33.9538 154.256 35.1981 151.614 35.7982C149.669 36.2442 147.01 35.8313 145.409 36.8664C140.363 40.1202 131.732 41.37 126.486 41.6343C125.417 49.535 134.402 52.5962 140.296 53.1853C148.306 53.9837 155.652 57.0228 163.369 53.2899C167.817 51.1372 172.365 51.9796 177.539 51.7318C181.666 51.5336 185.084 49.3148 189.011 48.8193C198.368 47.6301 205.486 52.7339 213.652 54.9802C225.036 58.113 236.763 55.3491 248.33 55.3656C257.149 55.3766 265.231 57.4743 273.867 58.2671C282.504 59.0599 290.06 55.7345 295.749 49.7167C299.615 45.626 300.701 44.6239 306.363 43.4072C309.875 42.6529 313.874 42.317 317.475 43.0658C326.699 44.9818 336.271 46.7767 345.007 49.5736C346.641 50.0966 349.743 50.8124 351.361 50.1462C354.812 48.7257 357.177 41.0562 358.313 37.5931C360.917 29.6483 355.333 20.8722 353.782 13.0045C353.422 11.1766 351.123 8.07691 350.497 6.40317H350.502Z" fill="#F4E7D3"/>
<path d="M4.53694 25.2603C17.4221 29.3235 31.7863 32.258 45.3528 32.9297C44.616 41.1333 56.9583 38.8264 62.16 39.0961C60.2987 47.3217 56.288 50.8068 47.9619 51.1977C41.7354 51.484 35.0768 53.0256 28.2575 51.6602C24.2856 50.8619 21.0616 49.4524 17.3113 48.1476C15.4001 52.1117 6.59767 51.8144 2.7698 51.7098C2.45958 45.7581 -0.753392 41.0287 0.166184 35.4238C0.808778 31.5203 1.3849 27.914 4.53694 25.2603Z" fill="#F4E7D3"/>
<path d="M147.232 37.2298C152.029 31.7957 160.233 31.7186 166.742 30.155C177.013 27.6939 187.311 26.8185 197.592 23.7077C207.082 20.8338 217.635 19.8427 226.592 16.1429C236.552 12.0246 247.737 6.5574 258.39 4.58635C268.217 2.76395 277.823 2.04821 287.988 2.04821C281.628 1.71236 274.853 6.30414 269.319 8.97992C261.182 12.9165 252.634 16.3191 244.258 19.7491C227.927 26.4331 210.616 35.022 193.022 37.8244C179.184 40.0322 164.493 37.2298 147.232 37.2298Z" fill="#F4E7D3"/>
<path d="M126.425 43.0329C124.796 38.3365 135.238 35.8094 138.468 35.7763C143.914 35.7268 149.448 32.0655 154.838 32.9299C155.552 41.9813 132.38 46.3694 126.375 45.9509C125.871 45.538 126.691 45.8738 126.425 43.0329Z" fill="#F4E7D3"/>
<path d="M7.0907 27.0773C13.0846 29.0759 34.7389 29.7641 47.4191 33.574C51.2635 34.7302 56.5096 33.5851 59.9109 35.8809C68.6468 41.7831 51.8784 43.0329 48.7098 43.0329C39.6248 43.0384 7.69452 38.821 7.09624 27.0718L7.0907 27.0773Z" fill="#F4E7D3"/>
<path d="M121.622 47.3327C109.103 47.3327 93.2815 47.4428 81.0057 47.0244C77.2111 49.7497 73.35 58.5919 70.0594 61.7247H115.108C138.861 61.7247 149.636 61.3118 173.19 61.3118C172.753 59.3352 171.994 56.5769 171.096 54.6058" stroke="white" stroke-miterlimit="10"/>
<path d="M303.881 38.8209C306.579 35.1761 307.603 31.223 308.961 26.7854" stroke="black" stroke-miterlimit="10"/>
<path d="M264.583 29.384C260.578 30.7219 252.412 35.3578 248.158 35.9138C243.427 36.5305 232.924 39.1016 228.293 39.8009C220.637 40.9571 218.443 39.399 210.982 38.496C203.52 37.5931 200.528 37.2352 199.93 41.4085C198.911 48.4889 204.633 52.3099 208.483 53.846C215.142 56.4997 219.263 57.276 226.426 56.5493C229.96 56.1859 238.735 56.2465 242.059 55.817C246.751 55.2114 253.698 54.8866 257.647 54.7159C257.647 54.7159 265.84 57.7275 268.959 57.7826C278.759 57.9643 287.107 56.3511 294.297 51.418C297.737 49.056 297.832 43.3741 300.031 39.1292C300.989 37.2737 302.756 35.1045 303.161 33.1169" stroke="black" stroke-miterlimit="10"/>
<path d="M222.665 24.875C210.328 28.3381 213.281 28.1399 200.141 30.4193C187.51 32.6105 163.546 35.6387 150.866 38.5512C146.451 39.5643 136.291 40.4012 136.086 45.7197C135.82 52.6569 144.168 54.4793 148.999 54.5839C160.721 54.8427 162.444 51.9246 162.444 47.955" stroke="black" stroke-miterlimit="10"/>
<path d="M164.166 51.9245C171.096 51.9245 178.553 52.3815 184.812 49.5901" stroke="black" stroke-miterlimit="10"/>
<path d="M202.018 39.801C203.088 42.1575 204.14 43.666 206.489 44.9269C208.755 46.1436 210.466 46.1877 212.81 46.7382C214.073 44.7176 214.92 43.0935 215.158 40.7315" stroke="black" stroke-miterlimit="10"/>
<path d="M138.512 44.0679C143.276 44.0679 147.93 43.9357 152.118 42.2014" stroke="black" stroke-miterlimit="10"/>
<path d="M131.006 51.0602C128.248 49.6782 123.278 44.5909 126.768 40.0983C129.117 37.0701 136.358 36.8444 139.709 36.1507C144.124 35.2367 148.755 34.7082 153.298 33.8217C162.266 32.0709 182.874 30.1824 191.698 27.2039C199.476 24.5831 207.907 23.3994 216.006 21.3072C223.462 19.3802 232.614 15.4161 239.937 12.911C254.999 7.75762 269.69 2.98416 285.451 0.787371C292.669 -0.220177 301.05 0.600176 307.842 2.19684C313.514 3.53473 332.111 5.25802 347.799 6.32613" stroke="black" stroke-miterlimit="10"/>
<path d="M128.192 41.2654C130.181 41.4691 132.026 41.9481 133.82 41.2654" stroke="black" stroke-miterlimit="10"/>
<path d="M262.079 29.384C259.132 29.863 256.301 29.7529 253.476 30.342C251.022 30.8596 247.593 33.5959 245.089 33.4362" stroke="black" stroke-miterlimit="10"/>
<path d="M299.521 5.91862C297.377 5.47266 289.107 4.07971 287.417 2.95654" stroke="black" stroke-miterlimit="10"/>
<path d="M227.357 41.5078C228.077 42.653 228.132 44.079 228.293 45.549" stroke="black" stroke-miterlimit="10"/>
<path d="M231.423 46.4849C231.406 44.9708 231.151 43.5173 230.797 42.1299" stroke="black" stroke-miterlimit="10"/>
<path d="M194.823 33.7393C195.493 34.6917 195.764 36.4811 196.075 37.4721" stroke="black" stroke-miterlimit="10"/>
<path d="M198.263 35.914C198.085 34.7853 197.847 33.6676 197.326 32.8032" stroke="black" stroke-miterlimit="10"/>
<path d="M300.867 43.7816C307.432 42.196 315.088 43.3632 321.896 44.0239C326.338 44.4533 337.279 46.4134 347.755 48.5716" stroke="black" stroke-miterlimit="10"/>
<path d="M187.942 43.688C187.765 45.4003 187.627 47.1015 187.122 48.6872C190.563 49.458 194.346 49.2873 197.952 49.2873" stroke="black" stroke-miterlimit="10"/>
<path d="M265.364 15.0802C259.459 14.8435 253.709 15.7134 248.474 17.8772" stroke="black" stroke-miterlimit="10"/>
<path d="M237.677 16.9468C248.197 13.2524 248.003 13.2139 258.323 10.417" stroke="black" stroke-miterlimit="10"/>
<path d="M121.622 42.6804C112.759 42.6859 79.5488 42.6914 64.4755 42.6969" stroke="white" stroke-miterlimit="10"/>
<path d="M4.33751 30.5513C15.6272 32.2415 28.0969 34.119 36.085 35.9579C40.5001 36.9709 50.6597 37.8078 50.8647 43.1264C51.1306 50.0636 42.7824 51.886 37.9519 51.9906C26.2301 52.2493 24.5072 49.3313 24.5072 45.3617" stroke="black" stroke-miterlimit="10"/>
<path d="M48.4384 41.4692C43.6743 41.4692 39.021 41.3371 34.8331 39.6028" stroke="black" stroke-miterlimit="10"/>
<path d="M55.9501 48.4615C58.7088 47.0796 63.6778 41.9923 60.1879 37.4996C57.8391 34.4714 50.5988 34.2457 47.2473 33.552C42.8323 32.638 38.2011 32.1095 33.6587 31.2231C27.0665 29.9402 14.2036 28.5748 4.33751 26.7634" stroke="black" stroke-miterlimit="10"/>
<path d="M58.7642 38.6724C56.7755 38.8761 54.9308 39.3551 53.1359 38.6724" stroke="black" stroke-miterlimit="10"/>
<path d="M4.40398 37.1252C5.05765 37.2023 5.67809 37.2684 6.25421 37.3235C9.22898 37.6153 12.0431 38.2704 15.1065 38.4026C17.6492 38.5127 20.3414 39.768 19.4828 42.7576C18.0647 47.7017 10.8022 51.1098 6.24867 51.2805C5.49528 51.308 4.897 51.3465 4.3929 51.3851" stroke="black" stroke-miterlimit="10"/>
<path d="M23.1002 47.8999C22.441 46.54 22.1474 45.2131 22.0033 43.7266" stroke="black" stroke-miterlimit="10"/>
<path d="M16.9734 41.3041C14.198 42.6695 7.08516 41.5298 4.40399 40.3571C4.43169 40.0543 4.58126 39.6854 4.74745 39.4927" stroke="black" stroke-miterlimit="10"/>
</g>
<defs>
<clipPath id="clip0_2757_13850">
<rect width="359" height="62" fill="white"/>
</clipPath>
</defs>
</svg>
