<svg width="50" height="20" viewBox="0 0 50 20" fill="none" xmlns="http://www.w3.org/2000/svg">
<path d="M44.3264 2.34566L41.02 4.64295L38.2191 2.69388V0.371194C38.2191 0.166251 38.4218 0 38.6709 0H40.9549L44.3264 2.34566ZM49.5289 5.96208L47.6334 4.64476L44.327 6.94206L47.2863 8.99753L49.5289 10.5567V5.96208ZM40.9123 9.31673L39.3054 10.4339C38.7783 10.8459 38.4134 11.4281 38.2739 12.0795L41.02 13.9887L44.3264 11.6914L40.9123 9.31673ZM47.6334 13.9887L44.327 16.286L46.8521 18.0392H49.0734C49.138 18.0396 49.2021 18.0277 49.2622 18.0041C49.3092 17.9878 49.3529 17.9632 49.3913 17.9316C49.4317 17.9005 49.4647 17.8608 49.4876 17.8154C49.5106 17.77 49.523 17.72 49.524 17.6692V15.3042L47.6334 13.9887Z" fill="url(#paint0_linear_206_4921)"/>
<path d="M48.3701 8.19548L48.3647 8.19976L38.2191 15.3449V20L49.5289 12.0346V5.88232C49.529 6.33216 49.4242 6.77575 49.223 7.17748C49.0217 7.57921 48.7296 7.92787 48.3701 8.19548Z" fill="white"/>
<path d="M49.5289 0.302182V2.72391L39.3109 9.90301C38.9706 10.1712 38.6954 10.5134 38.5063 10.9038C38.3172 11.2943 38.219 11.7227 38.2191 12.1569V6.02715L46.8 0H49.1004C49.314 0.00549421 49.4899 0.133692 49.5289 0.302182Z" fill="white"/>
<path d="M15.21 0.372248V17.6688C15.2104 17.7174 15.2009 17.7657 15.1822 17.8108C15.1635 17.8559 15.1359 17.8969 15.101 17.9315C15.0709 17.9622 15.0349 17.9869 14.9951 18.0041C14.9466 18.0275 14.8933 18.0395 14.8393 18.0392H12.4596C12.3606 18.0378 12.2662 17.9979 12.1969 17.9282C12.1277 17.8586 12.0893 17.7649 12.0901 17.6676V0.372248C12.0893 0.274841 12.1277 0.18106 12.1969 0.111336C12.2661 0.0416116 12.3605 0.00159351 12.4596 0H14.8381C14.8874 0.000395504 14.9361 0.0103425 14.9815 0.0292717C15.0269 0.0482008 15.068 0.0757408 15.1026 0.110316C15.1371 0.14489 15.1644 0.185821 15.1829 0.230767C15.2013 0.275712 15.2105 0.32379 15.21 0.372248Z" fill="white"/>
<path d="M25.7521 15.447H21.0925H21.0699C20.989 15.4391 20.913 15.4062 20.853 15.3534C20.7931 15.3005 20.7525 15.2304 20.7374 15.1535L20.7342 0.363059C20.7342 0.26677 20.6945 0.174424 20.6237 0.106338C20.553 0.0382507 20.4571 0 20.357 0H17.9267C17.8266 0 17.7307 0.0382507 17.6599 0.106338C17.5892 0.174424 17.5495 0.26677 17.5495 0.363059V17.6713C17.5495 17.7676 17.5892 17.8599 17.6599 17.928C17.7307 17.9961 17.8266 18.0344 17.9267 18.0344L25.7521 18.0392C25.8521 18.0392 25.9481 18.0009 26.0188 17.9329C26.0896 17.8648 26.1293 17.7724 26.1293 17.6761V15.8124C26.1296 15.7646 26.1201 15.7171 26.1013 15.6728C26.0825 15.6284 26.0548 15.5881 26.0197 15.5541C25.9847 15.5202 25.943 15.4932 25.897 15.4748C25.8511 15.4564 25.8019 15.447 25.7521 15.447Z" fill="white"/>
<path d="M10.4895 17.5001L5.66386 8.87833C5.63384 8.82476 5.61811 8.76462 5.61811 8.70349C5.61811 8.64236 5.63384 8.58222 5.66386 8.52864L10.1417 0.535423C10.1721 0.48008 10.1874 0.417926 10.186 0.355051C10.1846 0.292176 10.1666 0.230737 10.1337 0.176755C10.1008 0.122773 10.0541 0.0781011 9.99834 0.0471157C9.94255 0.0161302 9.8795 -0.000105245 9.81539 5.13396e-07H7.11329C7.04688 -8.22243e-05 6.98164 0.0171939 6.92429 0.0500513C6.86695 0.0829086 6.81956 0.13016 6.78701 0.186945L3.12459 6.72757V0.366629C3.12459 0.270356 3.0856 0.178026 3.0162 0.10995C2.9468 0.0418749 2.85267 0.00363058 2.75453 0.00363058H0.370066C0.271919 0.00363058 0.177791 0.0418749 0.10839 0.10995C0.038989 0.178026 0 0.270356 0 0.366629V17.6738C0 17.7701 0.038989 17.8624 0.10839 17.9305C0.177791 17.9985 0.271919 18.0368 0.370066 18.0368H2.75083C2.84897 18.0368 2.9431 17.9985 3.0125 17.9305C3.0819 17.8624 3.12089 17.7701 3.12089 17.6738V13.6838L2.01069 8.70651L7.12994 17.8522C7.16214 17.9092 7.20936 17.9566 7.26666 17.9895C7.32395 18.0224 7.38921 18.0396 7.4556 18.0392H10.1577C10.2223 18.0395 10.2859 18.0233 10.3421 17.9921C10.3983 17.9609 10.4452 17.9158 10.4781 17.8613C10.511 17.8068 10.5288 17.7447 10.5298 17.6814C10.5307 17.618 10.5147 17.5556 10.4834 17.5001H10.4895Z" fill="white"/>
<path d="M34.7105 0.363043V2.23267C34.7105 2.32895 34.6708 2.42129 34.6002 2.48938C34.5296 2.55746 34.4339 2.59571 34.334 2.59571H29.6396L31.1291 3.6116C31.1537 3.62835 31.1738 3.65056 31.1877 3.67636C31.2016 3.70215 31.2088 3.73078 31.2088 3.75984V17.6762C31.2088 17.7724 31.1692 17.8648 31.0986 17.9329C31.028 18.001 30.9322 18.0392 30.8324 18.0392H28.4481C28.3483 18.0392 28.2526 18.001 28.182 17.9329C28.1114 17.8648 28.0717 17.7724 28.0717 17.6762V2.96177C28.0722 2.87146 28.0377 2.78422 27.9751 2.71709C27.9124 2.64996 27.8261 2.60776 27.7329 2.59873H27.7103H24.9471C24.8473 2.59873 24.7515 2.56048 24.6809 2.4924C24.6103 2.42432 24.5707 2.33198 24.5707 2.2357V0.363043C24.5707 0.26676 24.6103 0.174421 24.6809 0.106338C24.7515 0.0382562 24.8473 8.06823e-06 24.9471 8.06823e-06H34.3315C34.3812 -0.000311123 34.4304 0.00884342 34.4763 0.0269447C34.5223 0.0450459 34.5641 0.0717362 34.5993 0.105479C34.6345 0.139222 34.6625 0.17935 34.6816 0.223554C34.7007 0.267758 34.7105 0.315164 34.7105 0.363043Z" fill="white"/>
<defs>
<linearGradient id="paint0_linear_206_4921" x1="38.2167" y1="9.02171" x2="49.5289" y2="9.02171" gradientUnits="userSpaceOnUse">
<stop offset="0.2" stop-color="white"/>
<stop offset="0.68" stop-color="white" stop-opacity="0.5"/>
<stop offset="1" stop-color="#1D1D1B" stop-opacity="0"/>
</linearGradient>
</defs>
</svg>
