<svg width="16" height="16" viewBox="0 0 17 16" fill="none" xmlns="http://www.w3.org/2000/svg">
<path d="M8.39969 1.33301C8.76789 1.33301 9.06636 1.63149 9.06636 1.99967V3.99967C9.06636 4.36786 8.76789 4.66634 8.39969 4.66634C8.03149 4.66634 7.73302 4.36786 7.73302 3.99967V1.99967C7.73302 1.63149 8.03149 1.33301 8.39969 1.33301ZM8.39969 11.333C8.76789 11.333 9.06636 11.6315 9.06636 11.9997V13.9997C9.06636 14.3679 8.76789 14.6663 8.39969 14.6663C8.03149 14.6663 7.73302 14.3679 7.73302 13.9997V11.9997C7.73302 11.6315 8.03149 11.333 8.39969 11.333ZM14.1732 4.66634C14.3573 4.9852 14.248 5.39293 13.9292 5.57702L12.1971 6.57702C11.8782 6.76114 11.4705 6.65187 11.2864 6.33301C11.1024 6.01415 11.2116 5.60642 11.5304 5.42233L13.2625 4.42232C13.5814 4.23823 13.9891 4.34748 14.1732 4.66634ZM5.51292 9.66634C5.69702 9.98521 5.58776 10.3929 5.2689 10.577L3.53686 11.577C3.21799 11.7611 2.81026 11.6519 2.62617 11.333C2.44208 11.0141 2.55132 10.6064 2.87019 10.4223L4.60224 9.42234C4.9211 9.23821 5.32882 9.34747 5.51292 9.66634ZM14.1732 11.333C13.9891 11.6519 13.5814 11.7611 13.2625 11.577L11.5304 10.577C11.2116 10.3929 11.1024 9.98521 11.2864 9.66634C11.4705 9.34747 11.8782 9.23821 12.1971 9.42234L13.9292 10.4223C14.248 10.6064 14.3573 11.0141 14.1732 11.333ZM5.51292 6.33301C5.32882 6.65187 4.9211 6.76114 4.60224 6.57702L2.87019 5.57702C2.55132 5.39293 2.44208 4.9852 2.62617 4.66634C2.81026 4.34748 3.21799 4.23823 3.53686 4.42232L5.2689 5.42233C5.58776 5.60642 5.69702 6.01415 5.51292 6.33301Z" fill="#F0F2DA"/>
</svg>
