<svg width="465" height="143" viewBox="0 0 465 143" fill="none" xmlns="http://www.w3.org/2000/svg">
<g clip-path="url(#clip0_6331_27074)">
<path d="M167.924 76.8666C156.493 62.8547 129.636 58.7572 121.926 78.9563C118.385 88.2429 121.684 99.4634 129.171 106.017C136.661 112.571 147.701 114.469 157.248 111.623C162.764 109.978 167.983 106.703 170.927 101.771C175.493 94.1183 173.558 83.775 167.921 76.8666H167.924ZM161.709 99.1398C156.97 96.0169 152.471 93.5335 147.732 90.4106C143.014 93.4984 138.385 96.2625 133.67 99.3503C133.803 92.6718 133.94 85.9934 134.073 79.3188C138.076 82.3832 143.37 85.6113 147.377 88.6757C152.185 85.9232 157.412 83.2253 162.221 80.4729C162.447 86.894 161.486 92.7186 161.712 99.1398H161.709Z" fill="#F6AF38"/>
<path d="M288.604 64.5973C279.385 60.4764 264.972 65.1509 266.215 77.1433C266.786 82.656 271.25 87.4202 276.629 88.812C282.009 90.2039 287.986 88.3871 292.025 84.582C294.359 82.3831 296.137 79.4474 296.36 76.2505C296.708 71.2952 293.143 66.6285 288.6 64.5934L288.604 64.5973ZM291.11 77.2485C287.963 76.8782 285.097 76.7651 281.95 76.3947C280.379 79.1121 278.768 81.6502 277.192 84.3675C275.578 81.0069 273.967 77.6462 272.352 74.2855C275.12 74.8119 278.568 75.0926 281.332 75.6189C283.037 73.0458 284.96 70.3907 286.665 67.8176C288.393 70.96 289.378 74.1023 291.106 77.2446L291.11 77.2485Z" fill="#F6AF38"/>
<path d="M6.54436 22.3784C14.672 27.0725 28.4527 24.129 28.4605 12.9202C28.4605 7.76616 24.7935 2.93178 19.9497 1.13059C15.1099 -0.674505 9.40604 0.432723 5.30508 3.56337C2.93207 5.37626 1.00474 7.9221 0.488695 10.8539C-0.312732 15.4037 2.53722 20.0626 6.54436 22.3784ZM5.44582 10.4368C8.31923 11.08 10.962 11.4582 13.8354 12.1015C15.5516 9.73889 17.2874 7.54783 19.0036 5.18522C20.1725 8.44843 21.3375 11.7116 22.5065 14.9748C20.0005 14.2224 16.8378 13.6298 14.328 12.8812C12.5062 15.0996 10.4694 17.3686 8.64371 19.5831C7.3497 16.5109 6.73983 13.5089 5.44582 10.4368Z" fill="#F6AF38"/>
<path d="M90.4167 102.126C85.87 97.1279 78.6924 95.2722 73.7626 100.383C69.3724 104.937 67.3668 111.795 69.3645 117.896C71.847 125.487 80.2327 130.668 88.1531 129.507C91.652 128.992 95.1822 127.163 96.6952 123.974C98.2902 120.61 97.3168 116.633 96.14 113.105C94.8226 109.163 93.2197 105.206 90.4206 102.13L90.4167 102.126ZM82.5549 114.387C82.3672 114.313 82.1796 114.239 81.9958 114.161C80.6002 117.331 78.8957 119.912 77.5039 123.085C75.9597 118.879 74.4116 114.676 72.8674 110.469C75.8541 111.658 78.9856 112.953 81.9958 114.157C82.0036 114.142 82.0115 114.126 82.0154 114.111C82.1952 114.204 82.375 114.29 82.5549 114.384C82.6331 114.415 82.7112 114.446 82.7855 114.477C84.0834 111.795 85.3501 109.229 86.648 106.551C88.2118 110.559 89.7912 114.454 91.3549 118.462C88.4385 116.933 85.4791 115.857 82.5549 114.384V114.387Z" fill="#F6AF38"/>
<path d="M265.077 114.91C260.53 109.912 253.353 108.056 248.423 113.167C244.033 117.721 242.027 124.579 244.025 130.68C246.507 138.271 254.893 143.452 262.814 142.29C266.312 141.776 269.843 139.947 271.356 136.758C272.951 133.394 271.977 129.417 270.8 125.889C269.483 121.947 267.88 117.99 265.081 114.914L265.077 114.91ZM257.219 127.171C257.032 127.097 256.844 127.023 256.66 126.945C255.264 130.115 253.56 132.696 252.168 135.869C250.624 131.663 249.076 127.46 247.532 123.253C250.518 124.442 253.65 125.737 256.66 126.941C256.668 126.926 256.676 126.91 256.68 126.895C256.86 126.988 257.039 127.074 257.219 127.167C257.297 127.199 257.376 127.23 257.45 127.261C258.748 124.579 260.014 122.013 261.312 119.335C262.876 123.343 264.455 127.238 266.019 131.246C263.103 129.717 260.143 128.641 257.219 127.167V127.171Z" fill="#F6AF38"/>
<path d="M418.275 59.5017C414.475 61.8954 412.434 66.3672 415.222 70.1685C417.704 73.5564 421.973 75.65 426.207 75.0496C431.473 74.3011 435.832 69.4238 435.981 64.1216C436.043 61.7785 435.25 59.2677 433.33 57.9149C431.305 56.488 428.588 56.6673 426.133 57.0299C423.396 57.4353 420.617 58.0279 418.279 59.5017H418.275ZM425.417 66.0398C425.347 66.1528 425.277 66.2659 425.206 66.3789C427.126 67.6538 428.623 69.0612 430.547 70.3361L421.739 71.9151C422.861 70.1022 424.069 68.2074 425.206 66.3789C425.198 66.3711 425.187 66.3672 425.179 66.3594C425.261 66.2542 425.339 66.145 425.417 66.0398C425.445 65.993 425.476 65.9462 425.503 65.8994C423.893 64.7454 422.356 63.6265 420.746 62.4725C423.553 61.911 426.293 61.3262 429.1 60.7687C427.763 62.4958 426.719 64.3048 425.413 66.0436L425.417 66.0398Z" fill="#F6AF38"/>
<path d="M236.343 27.9186C226.534 16.5149 212.691 39.5757 209.677 46.683C207.91 50.8507 206.667 55.4238 207.445 59.8839C208.219 64.344 211.432 68.6053 215.881 69.4864C221.045 70.504 225.995 66.8899 229.357 62.8469C235.538 55.4121 244.033 36.8583 236.343 27.9186ZM222.422 47.1937C222.23 47.2912 222.042 47.3925 221.851 47.4861C221.847 47.3146 221.839 47.143 221.831 46.9754C218.927 48.9949 216.155 51.0573 213.227 53.069C215.967 47.5446 218.708 42.0201 221.444 36.4918C221.554 39.9967 221.714 43.4705 221.827 46.9715C222.031 46.8311 222.226 46.6869 222.433 46.5465C222.425 46.7609 222.422 46.9754 222.418 47.1898C225.428 45.6381 228.309 43.9032 231.335 42.3749C228.329 48.4881 225.236 54.4959 222.23 60.6091C222.382 56.0008 222.289 51.763 222.418 47.1898L222.422 47.1937Z" fill="#F6AF38"/>
<path d="M446.294 105.65C447.979 112.325 458.385 105.689 461.079 103.385C462.658 102.036 464.105 100.411 464.699 98.4262C465.293 96.4379 464.852 94.0363 463.206 92.7692C461.294 91.2994 458.526 91.7711 456.317 92.7458C452.259 94.5353 444.972 100.415 446.294 105.65ZM455.954 100.578C456.051 100.578 456.149 100.574 456.247 100.574C456.216 100.645 456.18 100.719 456.149 100.789C457.756 100.551 459.312 100.27 460.926 100.04C458.671 101.748 456.415 103.456 454.159 105.163C454.832 103.701 455.477 102.247 456.149 100.785C456.036 100.801 455.926 100.82 455.813 100.836C455.86 100.75 455.907 100.664 455.95 100.574C454.398 100.598 452.861 100.723 451.305 100.73C453.792 98.8356 456.29 96.9993 458.776 95.1084C457.772 96.9681 456.939 98.7264 455.95 100.574L455.954 100.578Z" fill="#F6AF38"/>
<path d="M110.108 3.35291C102.583 2.05855 104.643 15.5285 105.769 19.2791C106.43 21.4779 107.427 23.6651 109.174 25.1583C110.922 26.6515 113.556 27.2831 115.582 26.1914C117.931 24.9244 118.693 21.9185 118.697 19.2557C118.705 14.3589 116.012 4.37047 110.112 3.35681L110.108 3.35291ZM110.918 15.3726C110.875 15.4739 110.836 15.5714 110.789 15.6728C110.73 15.6065 110.675 15.5441 110.617 15.4778C110.136 17.205 109.721 18.9009 109.229 20.6319C108.509 17.5909 107.79 14.5499 107.071 11.5051C108.251 12.8384 109.436 14.1445 110.617 15.4778C110.652 15.357 110.683 15.24 110.714 15.1192C110.781 15.2049 110.847 15.2907 110.914 15.3765C111.586 13.8014 112.149 12.1951 112.837 10.6201C113.642 13.9768 114.381 17.3219 115.187 20.6787C113.752 18.8307 112.345 17.205 110.914 15.3765L110.918 15.3726Z" fill="#F6AF38"/>
<path d="M377.453 86.0402C368.711 73.9231 353.05 95.5803 349.462 102.364C347.358 106.341 345.74 110.762 346.131 115.241C346.522 119.721 349.336 124.212 353.668 125.46C358.696 126.906 363.899 123.744 367.57 120.025C374.321 113.187 384.306 95.5374 377.453 86.0402ZM362.038 103.943C361.843 104.025 361.647 104.107 361.448 104.185C361.456 104.013 361.463 103.846 361.475 103.678C358.426 105.432 355.509 107.237 352.441 108.984C355.623 103.748 358.801 98.5082 361.983 93.2723C361.796 96.7538 361.659 100.204 361.471 103.682C361.682 103.561 361.893 103.436 362.105 103.315C362.081 103.53 362.058 103.736 362.034 103.951C365.146 102.668 368.145 101.194 371.272 99.9391C367.777 105.736 364.208 111.425 360.713 117.218C361.252 112.672 361.522 108.469 362.038 103.951V103.943Z" fill="#F6AF38"/>
<path d="M81.1162 56.0514C83.8098 57.7785 89.7873 62.648 91.8045 57.9617C93.3839 54.2931 88.7669 47.8173 86.8005 45.0571C81.8238 38.0745 75.647 31.9458 68.6218 27.0178C67.1753 26.0042 65.6467 25.0178 63.911 24.6708C62.1791 24.3238 60.1814 24.741 59.0868 26.125C57.394 28.2693 58.5433 31.4078 59.8921 33.7821C65.0134 42.7763 72.3905 50.4646 81.1123 56.0514H81.1162ZM74.4077 42.1486C73.3952 39.0336 71.7962 36.4605 70.7837 33.3454C75.2521 37.6106 79.7206 41.8796 84.189 46.1448C80.8387 44.7335 78.6885 43.2559 75.3381 41.8484C76.7846 45.0727 78.4969 48.6244 79.9434 51.8486C75.0528 47.0961 70.6273 42.4683 65.7366 37.7158C68.9033 39.4819 71.245 40.3825 74.4116 42.1448L74.4077 42.1486Z" fill="#F6AF38"/>
<path d="M271.821 33.8912C272.509 35.6339 273.674 39.9926 276.246 38.4565C278.26 37.2518 278.291 32.5929 278.307 30.6085C278.342 25.587 277.513 20.5615 275.867 15.8129C275.527 14.8344 275.14 13.8441 274.436 13.0878C273.733 12.3275 272.638 11.8441 271.645 12.1287C270.101 12.5692 269.569 14.4523 269.397 16.043C268.736 22.0703 269.6 28.2498 271.829 33.8873L271.821 33.8912ZM273.416 24.9866C274.006 23.1581 274.131 21.3881 274.722 19.5596C275.378 23.1152 276.035 26.6747 276.692 30.2303C275.586 28.4135 275.07 26.9749 273.963 25.1581C273.541 27.1854 273.134 29.4583 272.712 31.4896C272.02 27.5558 271.508 23.8442 270.816 19.9105C271.715 21.8325 272.517 23.0606 273.416 24.9827V24.9866Z" fill="#F6AF38"/>
<path d="M341.123 57.2249C339.657 55.0728 336.744 49.5211 333.73 52.3905C331.373 54.6322 332.753 60.9559 333.343 63.646C334.833 70.4609 337.495 77.0185 341.178 82.9484C341.936 84.1687 342.765 85.3929 343.953 86.2077C345.138 87.0225 346.768 87.3422 348.031 86.6561C349.985 85.5917 350.13 82.8743 349.88 80.6677C348.926 72.3011 345.869 64.1918 341.127 57.2288L341.123 57.2249ZM341.694 69.7747C341.455 72.4297 341.827 74.8664 341.588 77.5214C339.61 72.9015 337.632 68.2815 335.654 63.6655C337.71 65.7903 338.848 67.5798 340.904 69.7046C340.853 66.8273 340.712 63.6226 340.662 60.7493C342.804 65.8683 344.63 70.7416 346.772 75.8606C344.966 73.5292 343.504 72.1101 341.697 69.7786L341.694 69.7747Z" fill="#F6AF38"/>
<path d="M316.642 123.998C315.528 122.957 313.143 120.161 311.794 122.185C310.739 123.772 312.346 127.203 313.03 128.665C314.762 132.364 317.131 135.768 320 138.684C320.591 139.285 321.224 139.877 322.006 140.189C322.788 140.501 323.761 140.478 324.394 139.92C325.376 139.058 325.106 137.491 324.676 136.259C323.05 131.6 320.254 127.362 316.642 123.998ZM318.589 131.093C318.796 132.641 319.324 133.986 319.531 135.534C317.803 133.148 316.075 130.766 314.347 128.38C315.798 129.327 316.677 130.205 318.128 131.156C317.725 129.518 317.232 127.705 316.83 126.072C318.714 128.719 320.391 131.269 322.276 133.916C320.942 132.817 319.922 132.193 318.589 131.093Z" fill="#F6AF38"/>
<path d="M181.228 17.3023C182.366 15.8442 185.493 12.6628 182.89 11.2593C180.853 10.1599 176.869 12.4757 175.173 13.4621C170.88 15.9572 167.014 19.1892 163.8 22.971C163.139 23.7507 162.49 24.5772 162.197 25.5558C161.904 26.5344 162.045 27.704 162.788 28.4018C163.937 29.4896 165.813 28.9905 167.256 28.3355C172.721 25.8599 177.549 22.0236 181.232 17.2984L181.228 17.3023ZM172.843 20.4329C170.989 20.854 169.418 21.6376 167.565 22.0587C170.262 19.7116 172.964 17.3685 175.661 15.0215C174.672 16.8734 173.707 18.0352 172.717 19.8832C174.656 19.2204 176.799 18.4212 178.738 17.7584C175.735 20.3237 172.831 22.624 169.832 25.1893C171.017 23.4622 171.662 22.1639 172.846 20.4368L172.843 20.4329Z" fill="#F6AF38"/>
<path d="M181.228 17.3023C182.366 15.8442 185.493 12.6628 182.89 11.2593C180.853 10.1599 176.869 12.4757 175.173 13.4621C170.88 15.9572 167.014 19.1892 163.8 22.971C163.139 23.7507 162.49 24.5772 162.197 25.5558C161.904 26.5344 162.045 27.704 162.788 28.4018C163.937 29.4896 165.813 28.9905 167.256 28.3355C172.721 25.8599 177.549 22.0236 181.232 17.2984L181.228 17.3023ZM172.843 20.4329C170.989 20.854 169.418 21.6376 167.565 22.0587C170.262 19.7116 172.964 17.3685 175.661 15.0215C174.672 16.8734 173.707 18.0352 172.717 19.8832C174.656 19.2204 176.799 18.4212 178.738 17.7584C175.735 20.3237 172.831 22.624 169.832 25.1893C171.017 23.4622 171.662 22.1639 172.846 20.4368L172.843 20.4329Z" fill="#F6AF38"/>
<path d="M30.7162 109.385L28.6442 110.044C31.3925 118.586 34.1408 127.132 36.8892 135.674C37.7023 135.433 38.5155 135.191 39.3286 134.949C37.0221 127.538 33.7265 118.762 31.2753 111.152" stroke="#F5F4EA" stroke-miterlimit="10"/>
<path d="M165.114 132.676L165.192 131.522C160.395 131.21 155.598 130.899 150.805 130.591C150.766 131.043 150.727 131.491 150.688 131.943C154.832 132.251 159.852 132.337 164.125 132.614" stroke="#F5F4EA" stroke-miterlimit="10"/>
<path d="M382.762 55.377L381.261 55.9423C383.622 62.1334 385.983 68.3245 388.344 74.5156C388.935 74.3051 389.525 74.0946 390.115 73.8879C388.122 68.5155 385.35 62.1724 383.243 56.6557" stroke="#F5F4EA" stroke-miterlimit="10"/>
<path d="M361.667 1.57905L360.42 0.924072C357.714 6.07424 355.013 11.2283 352.308 16.3785C352.788 16.6436 353.269 16.9087 353.754 17.1738C356.135 12.741 358.699 7.23215 361.104 2.6395" stroke="#F5F4EA" stroke-miterlimit="10"/>
<path d="M146.65 65.502C136.864 64.5117 126.762 70.4299 122.869 79.4359C118.975 88.4457 121.59 99.8299 129.026 106.247C134.132 110.653 140.942 112.653 147.666 113.257C152.854 113.725 158.303 113.378 162.877 110.898C167.088 108.618 170.239 104.656 172.092 100.251C174.915 93.5335 174.789 85.5919 171.537 79.0733C168.284 72.5508 160.532 64.6754 149.069 65.576" stroke="#231F20" stroke-miterlimit="10"/>
<path d="M133.412 79.3071C133.944 85.9349 134.112 92.6445 134.112 99.5179C137.486 95.5374 143.135 93.3892 147.04 89.7595C144.992 87.6464 139.14 83.2916 135.801 80.4261" stroke="#231F20" stroke-miterlimit="10"/>
<path d="M147.74 89.4163C151.693 85.9738 157.561 83.2018 161.716 80.0088C161.818 86.1102 161.716 92.8784 161.716 99.1747C159.031 96.6952 153.495 92.6249 149.531 90.3637" stroke="#231F20" stroke-miterlimit="10"/>
<path d="M275.148 64.2582C270.022 66.2115 266.481 71.6852 266.805 77.1473C267.129 82.6093 271.297 87.627 276.618 88.9642C280.269 89.8804 284.167 89.1747 287.666 87.7946C290.367 86.7303 292.994 85.1942 294.652 82.8121C296.176 80.621 296.751 77.8607 296.563 75.2018C296.282 71.1472 294.222 67.2251 290.961 64.7884C287.701 62.3517 281.856 60.3712 276.375 63.6851" stroke="#231F20" stroke-miterlimit="10"/>
<path d="M272.028 74.4455C273.959 77.6151 275.73 80.9173 277.458 84.3404C278.138 81.5138 280.414 79.0303 281.446 76.2467C279.894 75.7087 275.883 74.9991 273.498 74.4104" stroke="#231F20" stroke-miterlimit="10"/>
<path d="M281.708 75.8958C282.81 73.1901 285.038 70.344 286.305 67.7124C287.892 70.7261 289.542 74.1218 291.125 77.2603C289.163 76.6989 285.383 76.0517 282.841 75.9191" stroke="#231F20" stroke-miterlimit="10"/>
<path d="M18.9567 23.9847C23.8865 22.667 27.6903 17.9457 27.9171 12.8618C28.1438 7.7779 24.77 2.7369 19.981 0.990283C16.6932 -0.206614 13.0183 0.0740916 9.64843 1.01368C7.04868 1.73883 4.46847 2.90844 2.70924 4.95135C1.08684 6.83052 0.289319 9.32958 0.203312 11.8052C0.0743015 15.5792 1.59897 19.4077 4.38246 21.973C7.16596 24.5384 12.3772 26.9322 17.7683 24.3941" stroke="#231F20" stroke-miterlimit="10"/>
<path d="M22.827 14.8579C21.3454 11.7429 20.024 8.51868 18.7573 5.1853C17.8582 7.73505 15.5125 9.81305 14.2889 12.2887C15.6728 12.9359 19.3164 13.9729 21.4626 14.7488" stroke="#231F20" stroke-miterlimit="10"/>
<path d="M14.0152 12.5888C12.7329 14.9826 10.399 17.4037 8.976 19.7195C7.79927 16.7799 6.59908 13.4816 5.43799 10.425C7.19722 11.1346 10.6336 12.0937 12.9714 12.4602" stroke="#231F20" stroke-miterlimit="10"/>
<path d="M76.8354 98.4614C71.7923 99.5764 68.266 105.272 68.5318 111.869C68.7977 118.466 72.8361 125.448 78.0395 128.306C81.6088 130.267 85.4361 130.349 88.8842 129.53C91.5426 128.898 94.1345 127.69 95.7804 125.241C97.2972 122.988 97.8836 119.83 97.7273 116.61C97.4888 111.705 95.5067 106.532 92.3323 102.851C89.1578 99.1709 84.4666 96.3756 78.9191 97.939" stroke="#231F20" stroke-miterlimit="10"/>
<path d="M81.0107 96.6016C84.0796 95.2761 87.4612 96.473 90.3033 98.4379C93.1455 100.403 96.0072 104.543 97.3872 107.767C99.5022 112.719 99.6859 113.986 99.248 119.015C99.0018 121.853 97.7507 125.206 95.5458 126.867" stroke="#F5F4EA" stroke-miterlimit="10"/>
<path d="M73.0668 110.111C74.9237 114.352 76.6282 118.715 78.2897 123.214C78.9465 120.013 81.1436 117.612 82.1405 114.547C80.6432 113.526 76.7807 111.709 74.482 110.422" stroke="#231F20" stroke-miterlimit="10"/>
<path d="M82.3946 114.196C83.4619 111.245 85.612 108.395 86.8357 105.573C88.3603 109.549 89.9476 113.994 91.4722 118.115C89.5801 116.964 85.9365 115.28 83.4892 114.501" stroke="#231F20" stroke-miterlimit="10"/>
<path d="M251.5 111.245C246.457 112.36 242.93 118.056 243.196 124.653C243.462 131.249 247.5 138.232 252.704 141.09C256.273 143.051 260.1 143.133 263.549 142.314C266.207 141.682 268.799 140.474 270.445 138.025C271.962 135.772 272.548 132.614 272.392 129.394C272.153 124.489 270.171 119.316 266.997 115.635C263.822 111.955 259.131 109.16 253.583 110.723" stroke="#231F20" stroke-miterlimit="10"/>
<path d="M255.675 109.386C258.744 108.06 262.126 109.257 264.968 111.222C267.81 113.187 270.671 117.327 272.051 120.551C274.166 125.503 274.35 126.77 273.912 131.799C273.666 134.637 272.415 137.99 270.21 139.651" stroke="#F5F4EA" stroke-miterlimit="10"/>
<path d="M247.731 122.895C249.588 127.136 251.293 131.499 252.954 135.998C253.611 132.797 255.808 130.396 256.805 127.331C255.308 126.31 251.445 124.493 249.146 123.206" stroke="#231F20" stroke-miterlimit="10"/>
<path d="M257.059 126.98C258.126 124.029 260.276 121.179 261.5 118.356C263.025 122.333 264.612 126.778 266.137 130.899C264.244 129.748 260.601 128.064 258.154 127.284" stroke="#231F20" stroke-miterlimit="10"/>
<path d="M414.311 67.9424C414.463 71.3615 417.798 74.3167 422.157 74.8976C426.516 75.4824 431.559 73.6461 434.03 70.5818C435.726 68.4765 436.219 65.9891 436.078 63.646C435.969 61.837 435.472 60.0085 434.057 58.6557C432.751 57.4081 430.746 56.6596 428.619 56.3945C425.374 55.989 421.75 56.6869 418.971 58.336C416.191 59.9851 413.822 62.7259 414.209 66.5232" stroke="#231F20" stroke-miterlimit="10"/>
<path d="M413.568 65.0068C413.052 62.8509 414.221 60.7806 415.839 59.1549C417.458 57.5291 420.499 56.1334 422.771 55.6032C426.262 54.7923 427.114 54.8157 430.363 55.6812C432.196 56.1685 434.253 57.3693 435.089 58.9989" stroke="#F5F4EA" stroke-miterlimit="10"/>
<path d="M421.52 71.7397C424.518 71.0146 427.575 70.4025 430.718 69.8333C428.693 69.038 427.368 67.3264 425.472 66.3245C424.632 67.1822 422.994 69.498 421.887 70.8469" stroke="#231F20" stroke-miterlimit="10"/>
<path d="M425.273 66.1217C423.459 65.0886 421.836 63.3575 420.124 62.2347C422.908 61.6967 426.008 61.1704 428.885 60.6479C427.915 61.7513 426.391 63.9345 425.597 65.4433" stroke="#231F20" stroke-miterlimit="10"/>
<path d="M234.459 26.246C230.549 23.1504 223.356 26.1407 217.523 33.287C211.69 40.4333 207.675 51.1742 208.07 58.5739C208.34 63.6539 210.467 66.9756 213.188 69.038C215.287 70.6287 217.875 71.5488 221.042 70.3753C223.958 69.2953 227.16 66.4805 229.99 62.9677C234.302 57.6187 237.86 50.5153 239.377 43.9694C240.894 37.4235 241.93 31.1856 236.026 27.1778" stroke="#231F20" stroke-miterlimit="10"/>
<path d="M237.813 27.365C239.248 28.2383 242.266 29.5288 243.091 31.2598C243.915 32.9908 243.955 34.8739 243.861 36.679C243.392 45.7317 242.266 48.0163 238.094 55.8956C234.251 63.1549 231.39 68.4962 224.501 72.6288C223.313 73.3422 222.226 73.7672 219.814 72.543" stroke="#F5F4EA" stroke-miterlimit="10"/>
<path d="M221.894 35.8484C219.079 41.8563 216.088 47.868 212.961 53.9929C216.03 51.0806 219.11 50.2384 222.214 47.7394C222.41 45.4704 222.214 40.48 222.273 37.2948" stroke="#231F20" stroke-miterlimit="10"/>
<path d="M222.633 47.5641C225.67 45.2443 229.118 43.8837 232.117 41.8213C229.38 47.2795 226.265 53.2873 223.399 58.9014C223.528 56.1841 223.317 51.5095 222.871 48.7454" stroke="#231F20" stroke-miterlimit="10"/>
<path d="M446.724 106.719C447.693 108.785 451.255 109.023 455.113 107.28C458.972 105.538 462.819 101.951 464.171 98.8318C465.102 96.6914 464.91 94.898 464.214 93.4984C463.679 92.4184 462.807 91.5139 461.267 91.3502C459.851 91.1981 457.959 91.7011 456.079 92.5627C453.213 93.8765 450.301 96.0676 448.334 98.4419C446.368 100.816 444.667 103.167 446.27 106.013" stroke="#231F20" stroke-miterlimit="10"/>
<path d="M445.578 105.576C445.168 104.925 444.194 103.783 444.21 102.906C444.226 102.029 444.597 101.249 445.004 100.528C447.052 96.9096 447.982 96.2001 451.305 93.8219C454.37 91.6269 456.638 90.0206 460.309 89.7282C460.942 89.6775 461.474 89.7282 462.213 90.7185" stroke="#F5F4EA" stroke-miterlimit="10"/>
<path d="M453.847 105.339C456.231 103.448 458.69 101.592 461.228 99.7168C459.374 100.286 457.936 100.005 456.149 100.395C455.602 101.284 454.664 103.374 453.983 104.668" stroke="#231F20" stroke-miterlimit="10"/>
<path d="M455.942 100.383C454.222 100.715 452.529 100.575 450.875 100.805C453.115 99.1242 455.625 97.2918 457.951 95.5725C457.342 96.6602 456.47 98.6213 456.087 99.8455" stroke="#231F20" stroke-miterlimit="10"/>
<path d="M108.834 3.30613C106.305 3.35682 104.459 6.84224 104.498 11.5129C104.537 16.1835 106.445 21.6768 108.998 24.4409C110.749 26.3396 112.657 26.9517 114.389 26.8815C115.726 26.8269 117.036 26.3552 117.892 24.8737C118.682 23.513 119.022 21.3805 118.991 19.0958C118.944 15.6143 118.033 11.6922 116.504 8.64734C114.976 5.60246 113.361 2.83049 109.757 3.16578" stroke="#231F20" stroke-miterlimit="10"/>
<path d="M110.503 2.66289C111.348 2.54203 112.943 2.07419 113.826 2.48355C114.71 2.89291 115.335 3.61807 115.883 4.35102C118.635 8.03918 118.932 9.29456 119.854 13.7196C120.703 17.7937 121.317 20.8035 119.964 24.6398C119.729 25.3026 119.444 25.8172 118.107 26.1174" stroke="#F5F4EA" stroke-miterlimit="10"/>
<path d="M107.036 11.1074C107.88 14.3628 108.662 17.6767 109.424 21.0764C109.678 18.9516 110.609 17.6299 111.015 15.6533C110.359 14.702 108.662 12.8189 107.653 11.5519" stroke="#231F20" stroke-miterlimit="10"/>
<path d="M111.117 15.4465C111.551 13.5595 112.458 11.9182 112.962 10.1443C113.662 13.158 114.389 16.5108 115.089 19.6298C114.26 18.5265 112.661 16.7682 111.59 15.8325" stroke="#231F20" stroke-miterlimit="10"/>
<path d="M375.729 84.2234C372.12 80.8277 364.747 83.1786 358.367 89.7635C351.987 96.3444 347.1 106.637 346.862 113.998C346.698 119.05 348.523 122.516 351.041 124.785C352.984 126.536 355.466 127.667 358.699 126.774C361.675 125.951 365.087 123.433 368.188 120.201C372.91 115.273 377.035 108.54 379.091 102.185C381.147 95.8298 382.703 89.744 377.199 85.28" stroke="#231F20" stroke-miterlimit="10"/>
<path d="M378.954 85.6152C380.299 86.5977 383.176 88.1338 383.849 89.9155C384.521 91.6972 384.396 93.5686 384.15 95.3464C382.918 104.27 381.609 106.434 376.808 113.881C372.386 120.742 369.102 125.787 361.933 129.296C360.697 129.9 359.583 130.232 357.3 128.817" stroke="#F5F4EA" stroke-miterlimit="10"/>
<path d="M362.476 92.668C359.18 98.3756 355.709 104.076 352.093 109.877C355.376 107.253 358.496 106.68 361.784 104.469C362.171 102.239 362.402 97.284 362.73 94.1378" stroke="#231F20" stroke-miterlimit="10"/>
<path d="M362.214 104.329C365.42 102.29 368.946 101.233 372.093 99.4438C368.919 104.614 365.326 110.302 362.011 115.616C362.366 112.937 362.558 108.29 362.351 105.518" stroke="#231F20" stroke-miterlimit="10"/>
<path d="M91.957 60.0789C94.4082 59.0964 92.0977 53.0886 86.519 45.9384C80.9403 38.7882 72.5351 31.0532 66.7257 27.7276C62.7381 25.4469 60.1188 25.1895 58.4886 25.9186C57.2298 26.48 56.4948 27.6769 57.3979 30.25C58.2306 32.6204 60.4238 36.0123 63.1643 39.5016C67.3395 44.8194 72.8948 50.5076 78.0239 54.6324C83.153 58.7573 88.0867 62.2037 90.9288 61.0731" stroke="#231F20" stroke-miterlimit="10"/>
<path d="M90.1782 62.2622C89.5332 62.9601 88.4229 64.3285 86.8904 64.1842C85.354 64.04 83.7746 63.2486 82.2734 62.4025C74.7478 58.1374 72.9573 56.3245 66.8156 49.8566C61.1548 43.8994 56.6277 38.7687 53.9068 31.9343C53.4377 30.7569 54.0358 30.0356 55.6113 28.519" stroke="#F5F4EA" stroke-miterlimit="10"/>
<path d="M84.5643 47.3963C79.8613 42.7101 75.1583 37.9108 70.3693 32.9712C72.6172 36.3436 73.2231 38.7413 75.1426 41.9421C76.9371 43.1507 78.6963 44.2384 81.2179 45.794" stroke="#231F20" stroke-miterlimit="10"/>
<path d="M75.2756 42.2969C77.0543 45.369 78.0669 48.2502 79.6424 51.1742C75.3733 46.8038 70.6742 41.9226 66.2839 37.3923C68.4341 38.7686 70.3575 40.2618 72.5507 41.2871" stroke="#231F20" stroke-miterlimit="10"/>
<path d="M275.59 39.5132C277.091 39.8836 278.06 36.2383 277.869 30.9322C277.677 25.6222 276.34 19.0724 274.722 15.5012C273.611 13.0528 272.454 12.0352 271.43 11.8247C270.64 11.661 269.878 11.9768 269.42 13.5129C269.002 14.9242 268.877 17.2868 268.979 19.8833C269.135 23.8405 269.819 28.4448 270.84 32.1603C271.86 35.8757 273.021 39.2013 274.761 39.638" stroke="#231F20" stroke-miterlimit="10"/>
<path d="M273.994 39.9421C273.447 40.0551 272.45 40.3241 271.77 39.7315C271.09 39.1389 270.609 38.2227 270.191 37.3065C268.08 32.7061 267.853 31.2324 267.157 26.0549C266.516 21.2868 266.125 17.2985 267.184 13.1191C267.368 12.3978 267.9 12.2614 269.17 12.0781" stroke="#F5F4EA" stroke-miterlimit="10"/>
<path d="M276.438 30.9556C275.812 27.1192 275.23 23.2283 274.651 19.24C274.557 21.6104 274.026 22.9593 273.834 25.1387C274.272 26.3278 274.733 27.4467 275.398 29.0491" stroke="#231F20" stroke-miterlimit="10"/>
<path d="M273.776 25.3533C273.564 27.4235 273.056 29.1389 272.798 31.0688C272.27 27.5288 271.715 23.6028 271.188 19.9458C271.735 21.3337 272.137 22.7022 272.829 23.942" stroke="#231F20" stroke-miterlimit="10"/>
<path d="M405.464 18.7253C403.826 11.2749 394.478 4.63546 387.723 10.7915C384.615 13.6219 383.72 18.4797 385.295 22.3706C386.871 26.2615 390.671 29.0685 394.811 29.8093C397.203 30.2343 399.795 29.9925 401.848 28.6865C405.03 26.667 406.269 22.3979 405.464 18.7253ZM398.872 25.9457C397.68 23.8716 396.456 22.0821 395.268 20.0041C392.903 20.2731 390.628 20.4368 388.262 20.7098C389.588 18.2185 390.909 15.7233 392.234 13.2321C393.161 15.1463 394.541 17.3686 395.467 19.2828C397.805 19.1581 400.292 19.1308 402.629 19.006C401.492 21.47 400.018 23.4817 398.88 25.9496L398.872 25.9457Z" fill="#F6AF38"/>
<path d="M399.607 10.4057C396.105 8.17561 391.171 8.4914 387.985 11.1503C384.799 13.8092 383.614 18.5968 385.193 22.4292C386.28 25.0569 388.466 27.1037 390.886 28.6047C392.75 29.7626 394.873 30.6671 397.07 30.6009C399.091 30.5385 401.034 29.6457 402.575 28.3318C404.92 26.3357 406.386 23.3181 406.402 20.2421C406.418 17.166 404.999 12.7293 400.507 10.893" stroke="#231F20" stroke-miterlimit="10"/>
<path d="M391.988 13.1035C390.925 15.7039 389.709 18.2654 388.399 20.858C390.428 19.9964 392.969 20.2576 395.135 19.6299C394.764 18.4447 393.388 15.6922 392.676 13.9807" stroke="#231F20" stroke-miterlimit="10"/>
<path d="M395.46 19.6299C397.606 19.0801 400.346 19.1503 402.524 18.7332C401.398 21.0529 400.069 23.5831 398.869 25.9613C398.329 24.5188 397.016 21.934 395.956 20.3277" stroke="#231F20" stroke-miterlimit="10"/>
<path d="M334.297 50.757C332.147 50.7141 331.951 55.9461 333.836 63.0768C335.72 70.2114 339.536 78.6794 342.819 83.0225C345.075 86.0011 346.952 87.0304 348.406 87.0031C349.528 86.9836 350.462 86.3247 350.611 84.1064C350.748 82.0674 350.193 78.8276 349.258 75.3382C347.839 70.0243 345.501 63.9969 342.98 59.2717C340.462 54.5504 337.87 50.3944 335.38 50.3359" stroke="#231F20" stroke-miterlimit="10"/>
<path d="M336.326 49.6888C337.034 49.373 338.3 48.7024 339.403 49.2989C340.505 49.8954 341.436 50.9909 342.288 52.1059C346.557 57.6967 347.315 59.6265 349.845 66.4258C352.175 72.691 353.922 77.9737 353.766 83.9582C353.738 84.9914 353.058 85.3384 351.397 85.97" stroke="#F5F4EA" stroke-miterlimit="10"/>
<path d="M335.767 62.6091C337.788 67.615 339.77 72.7106 341.772 77.9349C341.17 74.6951 341.482 72.7067 341.072 69.6969C340.118 68.2193 339.145 66.8431 337.757 64.8743" stroke="#231F20" stroke-miterlimit="10"/>
<path d="M341.088 69.3889C340.74 66.5195 340.904 64.0399 340.661 61.3499C342.456 65.9854 344.411 71.1356 346.248 75.927C345.079 74.2116 344.117 72.4806 342.804 71.0147" stroke="#231F20" stroke-miterlimit="10"/>
<path d="M311.904 121.179C310.669 121.428 311.235 124.446 313.233 128.278C315.231 132.111 318.507 136.458 320.946 138.516C322.62 139.928 323.824 140.275 324.653 140.072C325.29 139.916 325.739 139.417 325.536 138.134C325.348 136.953 324.613 135.171 323.632 133.3C322.135 130.446 320.016 127.304 317.967 124.929C315.919 122.555 313.902 120.516 312.471 120.801" stroke="#231F20" stroke-miterlimit="10"/>
<path d="M312.928 120.31C313.292 120.037 313.929 119.491 314.637 119.69C315.344 119.889 316.017 120.396 316.646 120.922C319.809 123.565 320.489 124.571 322.815 128.131C324.957 131.409 326.639 134.205 327.323 137.643C327.44 138.236 327.096 138.521 326.228 139.098" stroke="#F5F4EA" stroke-miterlimit="10"/>
<path d="M314.277 127.764C316.079 130.364 317.87 133.019 319.691 135.748C318.929 133.975 318.851 132.797 318.225 131.132C317.49 130.411 316.756 129.748 315.708 128.805" stroke="#231F20" stroke-miterlimit="10"/>
<path d="M318.194 130.949C317.623 129.355 317.397 127.92 316.912 126.411C318.538 128.828 320.321 131.518 321.99 134.021C321.103 133.191 320.329 132.325 319.387 131.659" stroke="#231F20" stroke-miterlimit="10"/>
<path d="M184.117 11.2829C183.676 9.82475 180.087 10.8384 175.661 13.6689C171.236 16.4993 166.329 20.9282 164.105 24.0939C162.576 26.2655 162.291 27.7587 162.631 28.7334C162.889 29.4858 163.542 29.9732 165.078 29.5872C166.494 29.2324 168.566 28.1486 170.728 26.7568C174.019 24.6359 177.596 21.7391 180.247 19.0062C182.898 16.2732 185.149 13.6182 184.641 11.9222" stroke="#231F20" stroke-miterlimit="10"/>
<path d="M185.286 12.4172C185.658 12.8227 186.389 13.5323 186.224 14.4095C186.06 15.2867 185.521 16.1522 184.954 16.9709C182.096 21.0723 180.955 22.008 176.897 25.201C173.159 28.1445 169.957 30.4799 165.868 31.6846C165.161 31.8912 164.777 31.5091 163.984 30.5266" stroke="#F5F4EA" stroke-miterlimit="10"/>
<path d="M184.117 11.2829C183.676 9.82475 180.087 10.8384 175.661 13.6689C171.236 16.4993 166.329 20.9282 164.105 24.0939C162.576 26.2655 162.291 27.7587 162.631 28.7334C162.889 29.4858 163.542 29.9732 165.078 29.5872C166.494 29.2324 168.566 28.1486 170.728 26.7568C174.019 24.6359 177.596 21.7391 180.247 19.0062C182.898 16.2732 185.149 13.6182 184.641 11.9222" stroke="#231F20" stroke-miterlimit="10"/>
<path d="M185.286 12.4172C185.658 12.8227 186.389 13.5323 186.224 14.4095C186.06 15.2867 185.521 16.1522 184.954 16.9709C182.096 21.0723 180.955 22.008 176.897 25.201C173.159 28.1445 169.957 30.4799 165.868 31.6846C165.161 31.8912 164.777 31.5091 163.984 30.5266" stroke="#F5F4EA" stroke-miterlimit="10"/>
<path d="M176.404 14.8696C173.452 17.3297 170.43 19.782 167.326 22.2771C169.394 21.1621 170.81 20.936 172.76 20.0003C173.554 19.0334 174.273 18.0783 175.306 16.7098" stroke="#231F20" stroke-miterlimit="10"/>
<path d="M172.972 19.9418C174.84 19.0802 176.556 18.6475 178.331 17.895C175.583 20.1212 172.518 22.5656 169.672 24.8542C170.579 23.6924 171.541 22.6631 172.248 21.4545" stroke="#231F20" stroke-miterlimit="10"/>
<path d="M176.404 14.8696C173.452 17.3297 170.43 19.782 167.326 22.2771C169.394 21.1621 170.81 20.936 172.76 20.0003C173.554 19.0334 174.273 18.0783 175.306 16.7098" stroke="#231F20" stroke-miterlimit="10"/>
<path d="M172.972 19.9418C174.84 19.0802 176.556 18.6475 178.331 17.895C175.583 20.1212 172.518 22.5656 169.672 24.8542C170.579 23.6924 171.541 22.6631 172.248 21.4545" stroke="#231F20" stroke-miterlimit="10"/>
</g>
<defs>
<clipPath id="clip0_6331_27074">
<rect width="465" height="143" fill="white"/>
</clipPath>
</defs>
</svg>
