<svg width="400" height="470" viewBox="0 0 400 470" fill="none" xmlns="http://www.w3.org/2000/svg">
<g clip-path="url(#clip0_1_299)">
<path d="M189.062 171.81C199.931 172.604 211.629 165.855 221.939 162.507C235.737 158.029 250.957 151.661 265.348 149.685C271.49 148.844 279.265 150.518 284.979 148.45" stroke="#F0F2DA" stroke-miterlimit="10"/>
<path d="M189.622 195.721C196.817 188.236 218.239 189.3 228.1 188.367C239.549 187.284 252.709 187.468 264.071 185.164C269.357 184.087 275.664 181.822 278.284 176.261" stroke="#F0F2DA" stroke-miterlimit="10"/>
<path d="M281.688 180.706C288.001 178.48 289.305 167.936 289.561 162.408C289.798 157.281 290.76 150.584 289.581 145.64C287.613 145.246 285.184 146.481 283.669 147.577" stroke="#F0F2DA" stroke-miterlimit="10"/>
<path d="M291.852 146.349C296.408 147.846 300.977 153.21 304.742 155.987C304.946 155.987 305.196 156.237 304.992 156.237" stroke="#F0F2DA" stroke-miterlimit="10"/>
<path d="M292.221 156.604C295.453 158.6 299.351 161.798 302.26 164.391C303.511 163.124 305.947 160.655 306.349 158.83" stroke="#F0F2DA" stroke-miterlimit="10"/>
<path d="M285.901 180.332C292.603 179.445 301.47 177.115 305.782 171.219C309.574 166.039 307.856 155.337 304.492 150.144C301.556 145.601 298.732 145.043 293.709 145.109" stroke="#F0F2DA" stroke-miterlimit="10"/>
<path d="M276.237 182.931C281.51 184.1 288.067 184.238 293.524 184.041C298.482 183.864 303.61 183.529 303.748 177.371" stroke="#F0F2DA" stroke-miterlimit="10"/>
<path d="M241.662 202.207C243.966 197.703 250.648 190.764 255.414 188.492" stroke="#F0F2DA" stroke-miterlimit="10"/>
<path d="M298.916 186.267C297.994 192.622 291.859 199.194 288.324 204.991C284.446 211.34 280.845 217.688 276.606 223.899C274.591 226.847 271.872 229.67 269.555 232.243C264.802 237.515 256.474 244.055 252.827 249.668" stroke="#F0F2DA" stroke-miterlimit="10"/>
<path d="M255.421 220.373C252.603 217.445 248.298 215.239 245.013 212.672C242.261 210.519 238.449 208.188 234.973 207.768C237.969 204.072 245.875 202.778 250.213 203.441" stroke="#F0F2DA" stroke-miterlimit="10"/>
<path d="M241.043 207.151C247.31 207.427 253.077 209.902 259.384 210.611C264.367 211.169 269.483 211.353 274.499 211.353" stroke="#F0F2DA" stroke-miterlimit="10"/>
<path d="M233.117 214.32C232.419 212.83 233.189 210.998 233.861 209.626C231.543 211.156 230.503 213.23 228.904 215.062" stroke="#F0F2DA" stroke-miterlimit="10"/>
<path d="M229.147 211.845C225.875 211.911 223.92 214.104 221.228 215.318C219.99 215.876 218.779 215.824 217.501 216.664C216.448 217.36 215.448 218.364 214.526 219.257" stroke="#F0F2DA" stroke-miterlimit="10"/>
<path d="M221.715 212.344C217.093 212.442 210.76 212.173 207.337 215.804" stroke="#F0F2DA" stroke-miterlimit="10"/>
<path d="M215.27 209.626C209.496 209.56 203.986 212.653 201.327 217.55C199.602 220.715 198.16 225.895 199.161 229.401" stroke="#F0F2DA" stroke-miterlimit="10"/>
<path d="M207.093 222.724C207.179 224.838 208.877 227.149 209.45 229.151C209.904 230.747 210.471 232.309 211.307 233.845" stroke="#F0F2DA" stroke-miterlimit="10"/>
<path d="M204.368 210.118C201.965 208.753 201.465 204.656 199.905 202.706C197.594 208.536 194.006 213.513 190.063 218.292C186.811 222.231 182.209 229.276 176.613 228.659" stroke="#F0F2DA" stroke-miterlimit="10"/>
<path d="M143.394 212.344C139.517 213.92 134.309 222.901 138.437 226.184" stroke="#F0F2DA" stroke-miterlimit="10"/>
<path d="M194.203 210.118C189.786 209.462 190.082 202.207 188.252 198.997" stroke="#F0F2DA" stroke-miterlimit="10"/>
<path d="M143.644 214.57C139.188 217.189 137.45 223.676 142.894 225.947C147.772 227.983 154.441 227.884 159.754 228.665C163.111 229.158 166.837 228.843 170.162 229.65" stroke="#F0F2DA" stroke-miterlimit="10"/>
<path d="M188.252 197.762C183.809 205.234 175.738 209.291 171.024 216.29C169.898 217.964 169.536 220.222 167.436 220.991C164.862 219.139 165.165 214.058 166.198 211.596" stroke="#F0F2DA" stroke-miterlimit="10"/>
<path d="M118.859 162.165C118.859 167.161 119.056 171.265 120.597 175.762" stroke="#F0F2DA" stroke-miterlimit="10"/>
<path d="M121.215 169.709C121.229 172.23 121.13 175.618 122.828 177.62" stroke="#F0F2DA" stroke-miterlimit="10"/>
<path d="M123.447 170.451C123.71 172.04 123.75 173.622 124.224 175.171C124.507 176.11 124.902 177.042 125.06 177.988" stroke="#F0F2DA" stroke-miterlimit="10"/>
<path d="M126.916 173.536C127.153 176.346 128.891 179.012 129.148 181.815" stroke="#F0F2DA" stroke-miterlimit="10"/>
<path d="M129.517 173.661C130.037 175 130.162 176.537 130.136 177.988" stroke="#F0F2DA" stroke-miterlimit="10"/>
<path d="M131.749 175.388C131.729 175.933 131.702 176.478 131.874 176.996" stroke="#F0F2DA" stroke-miterlimit="10"/>
<path d="M156.409 209.626C158.885 209.633 161.426 210.237 163.842 209.994C165.487 209.829 167.245 209.646 168.852 209.245C171.458 208.589 174.289 209.015 174.875 205.923C173.025 205.017 170.05 205.615 167.936 205.555" stroke="#F0F2DA" stroke-miterlimit="10"/>
<path d="M143.151 204.065C141.472 203.901 133.967 204.302 134.474 206.908C135.02 209.738 140.577 209.678 142.657 209.875C144.401 210.04 146.205 209.994 147.983 209.994" stroke="#F0F2DA" stroke-miterlimit="10"/>
<path d="M142.407 195.721C140.761 195.071 138.937 194.572 137.199 194.421C135.876 194.309 133.045 193.626 131.749 193.554C130.787 193.502 129.912 192.884 128.957 193.37C126.561 194.578 128.319 197.565 129.899 198.38C132.065 199.496 134.645 199.87 136.949 200.723C139.253 201.577 141.716 202.805 144.263 202.45" stroke="#F0F2DA" stroke-miterlimit="10"/>
<path d="M144.757 190.094C147.318 190.252 150.333 189.313 152.92 188.965C155.507 188.617 159.74 187.763 162.229 189.287C164.862 190.902 163.157 193.14 160.965 193.771C159.793 194.106 158.595 194.086 157.397 194.447C156.041 194.854 154.987 195.517 153.565 195.655C150.57 195.944 147.884 196.705 144.889 196.272" stroke="#F0F2DA" stroke-miterlimit="10"/>
<path d="M146.62 201.964C148.542 202.043 150.28 201.347 152.104 200.947C154.184 200.487 156.429 200.31 158.522 200.014C160.616 199.719 165.362 198.57 167.311 199.739C170.03 201.373 166.646 204.4 164.836 204.558C161.985 204.807 151.966 206.658 149.345 206.534" stroke="#F0F2DA" stroke-miterlimit="10"/>
<path d="M143.394 189.976C142.479 189.884 140.741 190.094 139.504 189.963C136.363 189.648 132.637 189.516 129.576 188.676C128.615 188.413 126.963 187.868 126.265 187.133C125.165 185.984 125.876 184.875 126.317 183.686C128.108 183.371 129.859 183.634 131.749 183.542C135.086 183.371 138.45 183.089 141.781 182.925C143.361 182.846 144.948 182.912 146.488 183.148C147.739 183.338 149.984 183.535 150.952 182.557C150.32 181.776 149.293 181.06 148.351 180.706" stroke="#F0F2DA" stroke-miterlimit="10"/>
<path d="M133.111 177.371C136.416 177.311 139.879 177.331 143.197 177.495C145.165 177.594 148.279 177.548 147.338 180.437C146.91 181.75 146.041 181.861 144.889 182.071" stroke="#F0F2DA" stroke-miterlimit="10"/>
<path d="M145.382 171.81C143.072 171.068 139.951 170.7 137.45 170.943C135.922 171.094 132.17 172.565 134.178 174.528C134.915 175.25 136.521 175.696 137.45 176.012" stroke="#F0F2DA" stroke-miterlimit="10"/>
<path d="M169.793 216.172C169.378 216.158 168.95 216.218 168.575 216.342C168.615 217.229 167.838 217.852 167.811 218.771" stroke="#F0F2DA" stroke-miterlimit="10"/>
<path d="M127.535 184.533C128.747 185.013 132.644 185.164 130.643 187.271" stroke="#F0F2DA" stroke-miterlimit="10"/>
<path d="M161.116 190.344C159.168 190.12 158.174 190.665 157.772 192.445" stroke="#F0F2DA" stroke-miterlimit="10"/>
<path d="M143.644 178.605C142.189 179.143 142.993 180.883 143.895 181.448" stroke="#F0F2DA" stroke-miterlimit="10"/>
<path d="M138.562 171.81C139.701 172.906 139.708 173.917 139.056 175.27" stroke="#F0F2DA" stroke-miterlimit="10"/>
<path d="M130.754 194.545C130.978 195.635 131.176 196.436 130.011 197.014" stroke="#F0F2DA" stroke-miterlimit="10"/>
<path d="M165.086 200.231C164.224 200.855 162.565 202.785 164.217 203.441" stroke="#F0F2DA" stroke-miterlimit="10"/>
<path d="M137.7 205.542C139.115 205.844 139.181 207.164 138.319 208.136" stroke="#F0F2DA" stroke-miterlimit="10"/>
<path d="M170.162 207.768C170.412 207.243 170.919 206.777 171.524 206.658" stroke="#F0F2DA" stroke-miterlimit="10"/>
<path d="M144.388 211.103C144.599 211.983 145.303 212.823 145.619 213.703C146.034 214.852 146.646 215.817 147.18 216.959C147.456 217.55 148.661 222.691 149.721 220.866" stroke="#F0F2DA" stroke-miterlimit="10"/>
<path d="M149.839 211.477C150.86 213.933 150.451 216.69 150.458 219.264C150.458 220.905 151.281 224.812 149.964 225.941" stroke="#F0F2DA" stroke-miterlimit="10"/>
<path d="M132.492 175.145C132.374 176.32 132.15 177.541 132.367 178.73" stroke="#F0F2DA" stroke-miterlimit="10"/>
<path d="M146.864 170.326C147.482 171.206 148.411 171.718 148.97 172.676" stroke="#F0F2DA" stroke-miterlimit="10"/>
<path d="M148.727 160.682C148.167 168.468 151.274 173.733 151.577 174.396" stroke="#F0F2DA" stroke-miterlimit="10"/>
<path d="M153.559 173.786C153.578 174.344 153.704 174.863 153.809 175.394" stroke="#F0F2DA" stroke-miterlimit="10"/>
<path d="M174.131 169.952C173.486 170.733 173.065 171.757 172.393 172.545" stroke="#F0F2DA" stroke-miterlimit="10"/>
<path d="M171.9 170.694C171.709 171.613 171.162 172.401 170.787 173.162" stroke="#F0F2DA" stroke-miterlimit="10"/>
<path d="M169.543 170.326C169.372 170.996 169.062 172.342 168.305 172.427" stroke="#F0F2DA" stroke-miterlimit="10"/>
<path d="M186.027 169.952C185.5 170.503 184.658 170.772 184.046 171.186" stroke="#F0F2DA" stroke-miterlimit="10"/>
<path d="M162.235 116.569C164.158 116.7 166.218 116.307 168.154 116.313C169.734 116.32 171.11 116.996 172.663 117.219C176.738 117.803 179.503 119.517 182.663 122.012C188.232 126.424 193.446 132.634 195.83 139.443C196.949 142.64 196.949 148.529 195.816 151.661" stroke="#F0F2DA" stroke-miterlimit="10"/>
<path d="M161.366 118.171C159.26 116.792 156.903 115.532 154.368 115.341C151.057 115.092 148.411 118.696 147.239 121.388" stroke="#F0F2DA" stroke-miterlimit="10"/>
<path d="M193.46 153.762C193.348 151.09 193.71 148.378 193.71 145.693C193.71 143.907 193.98 141.872 193.025 140.29C191.913 138.445 190.497 136.429 188.996 134.847C187.923 133.718 186.106 131.715 184.664 131.144" stroke="#F0F2DA" stroke-miterlimit="10"/>
<path d="M170.905 120.029C173.289 120.029 176.139 120.279 178.298 121.388C179.161 121.828 179.905 122.635 180.728 123.141C182.518 124.237 183.637 125.898 185.099 127.395C186.409 128.735 187.357 130.383 188.628 131.715C189.523 132.648 191.004 133.573 191.603 134.735" stroke="#F0F2DA" stroke-miterlimit="10"/>
<path d="M190.24 140.913C190.412 142.154 191.09 143.303 191.234 144.557C191.386 145.877 191.234 147.321 191.234 148.654C191.234 150.617 191.333 152.554 191.353 154.504C191.379 156.729 190.543 158.738 189.378 160.655C188.476 162.139 187.89 163.879 186.896 165.264" stroke="#F0F2DA" stroke-miterlimit="10"/>
<path d="M192.222 157.103C191.801 159.342 190.741 160.997 189.714 163.012C188.41 165.566 187.824 168.31 187.14 171.068" stroke="#F0F2DA" stroke-miterlimit="10"/>
<path d="M129.273 135.228C127.911 136.416 127.127 138.418 125.909 139.804C125.198 140.611 124.77 141.215 124.191 142.128C122.17 145.312 120.096 148.339 118.734 151.917C116.607 157.53 116.877 163.209 116.877 169.092" stroke="#F0F2DA" stroke-miterlimit="10"/>
<path d="M133.605 131.151C131.584 132.74 131.637 137.526 131.512 139.791C131.228 144.958 133.612 149.56 133.605 154.635" stroke="#F0F2DA" stroke-miterlimit="10"/>
<path d="M136.706 127.809C138.97 123.975 141.841 122.668 146.133 122.865C150.702 123.075 154.131 127.244 154.803 131.643" stroke="#F0F2DA" stroke-miterlimit="10"/>
<path d="M136.33 130.284C138.404 129.194 140.886 127.015 143.401 127.303C144.968 127.481 146.778 128.892 147.923 129.916C149.273 131.131 149.991 133.081 151.446 134.112" stroke="#F0F2DA" stroke-miterlimit="10"/>
<path d="M166.324 118.67C167.904 119.267 169.214 120.83 170.385 121.999C171.557 123.167 173.973 124.362 174.744 125.898C175.277 126.955 175.362 128.321 175.928 129.431C176.416 130.383 177.482 131.243 177.482 132.392" stroke="#F0F2DA" stroke-miterlimit="10"/>
<path d="M174.5 122.373C176.231 124.388 178.272 126.109 179.701 128.439C180.445 129.647 181.346 130.855 182.064 132.103C182.907 133.567 183.124 135.293 184.039 136.705" stroke="#F0F2DA" stroke-miterlimit="10"/>
<path d="M181.439 126.207C181.544 126.883 181.919 127.382 182.308 127.94" stroke="#F0F2DA" stroke-miterlimit="10"/>
<path d="M151.452 122.373C154.895 125.518 156.811 130.146 158.516 134.486" stroke="#F0F2DA" stroke-miterlimit="10"/>
<path d="M157.028 123.115C157.647 124.106 157.811 124.966 158.022 126.082" stroke="#F0F2DA" stroke-miterlimit="10"/>
<path d="M161.86 123.364C164.691 122.307 167.146 125.268 168.792 127.008C170.089 128.387 170.596 129.903 171.156 131.722C172.077 134.748 174.526 137.65 174.506 140.913" stroke="#F0F2DA" stroke-miterlimit="10"/>
<path d="M187.14 143.999C187.462 146.12 188.298 148.286 188.015 150.459C187.791 152.153 186.962 153.794 186.639 155.482C186.369 156.92 186.416 158.39 186.086 159.828C185.639 161.804 184.704 163.406 183.67 165.133" stroke="#F0F2DA" stroke-miterlimit="10"/>
<path d="M128.773 140.414C126.462 144.268 124.388 147.118 123.967 151.694C123.638 155.291 123.032 159.782 124.066 163.275" stroke="#F0F2DA" stroke-miterlimit="10"/>
<path d="M127.785 154.379C126.956 157.721 126.666 160.747 126.416 164.148C126.265 166.203 125.034 168.652 125.679 170.694" stroke="#F0F2DA" stroke-miterlimit="10"/>
<path d="M129.273 138.195C127.476 138.464 126.6 141.038 125.731 142.338C124.059 144.826 122.466 148.352 121.966 151.3" stroke="#F0F2DA" stroke-miterlimit="10"/>
<path d="M155.172 172.427C155.323 173.248 155.804 174.278 156.166 175.02" stroke="#F0F2DA" stroke-miterlimit="10"/>
<path d="M166.942 167.542C166.225 168.284 167.239 173.392 166.198 173.661" stroke="#F0F2DA" stroke-miterlimit="10"/>
<path d="M161.116 172.795C160.932 173.248 160.682 173.701 160.497 174.154" stroke="#F0F2DA" stroke-miterlimit="10"/>
<path d="M158.95 168.1C158.733 168.849 158.233 175.237 157.838 175.887" stroke="#F0F2DA" stroke-miterlimit="10"/>
<path d="M182.558 169.335C181.853 170.044 181.63 171.048 181.195 171.928" stroke="#F0F2DA" stroke-miterlimit="10"/>
<path d="M178.588 171.435C179.352 169.709 179.602 168.061 179.951 166.242" stroke="#F0F2DA" stroke-miterlimit="10"/>
<path d="M175.244 171.685C175.435 169.499 175.942 166.564 176.863 164.542C177.989 162.073 179.661 157.451 178.219 154.753" stroke="#F0F2DA" stroke-miterlimit="10"/>
<path d="M163.223 173.661C163.183 172.932 163.368 172.204 163.717 171.56" stroke="#F0F2DA" stroke-miterlimit="10"/>
<path d="M177.35 172.053C177.054 171.311 177.252 169.86 177.719 169.21" stroke="#F0F2DA" stroke-miterlimit="10"/>
<path d="M181.439 162.539C182.15 159.585 182.729 159.802 182.933 156.742C183.025 155.377 182.38 154.083 182.104 152.777C181.807 151.346 181.314 150.072 180.938 148.7C180.563 147.328 180.392 145.509 179.457 144.255" stroke="#F0F2DA" stroke-miterlimit="10"/>
<path d="M149.714 137.329C150.721 140.217 152.512 142.108 152.683 145.2C152.821 147.669 153.039 151.339 151.577 153.519" stroke="#F0F2DA" stroke-miterlimit="10"/>
<path d="M137.818 133.002C136.495 135.609 135.619 138.438 135.889 141.393C136.159 144.347 137.68 147.308 137.706 150.433C137.733 152.987 137.68 155.948 137.199 158.462" stroke="#F0F2DA" stroke-miterlimit="10"/>
<path d="M131.999 158.955C131.413 161.003 130.215 162.756 129.971 164.916C129.714 167.207 130.847 169.019 131.13 171.186" stroke="#F0F2DA" stroke-miterlimit="10"/>
<path d="M135.343 161.423C135.567 162.933 135.764 164.483 136.456 165.875" stroke="#F0F2DA" stroke-miterlimit="10"/>
<path d="M166.073 133.744C169.767 136.515 170.036 139.567 170.036 143.881" stroke="#F0F2DA" stroke-miterlimit="10"/>
<path d="M173.012 144.124C174.322 147.59 175.27 150.446 174.98 154.261C174.822 156.368 174.296 158.482 173.98 160.576C173.723 162.303 173.532 164.384 172.887 165.999" stroke="#F0F2DA" stroke-miterlimit="10"/>
<path d="M170.905 153.519C170.905 156.966 170.787 160.294 169.911 163.656" stroke="#F0F2DA" stroke-miterlimit="10"/>
<path d="M155.79 138.563C155.968 140.953 156.64 143.218 156.541 145.699C156.495 146.901 156.225 148.07 156.172 149.264C156.06 151.818 155.902 154.3 156.521 156.801C157.199 159.519 157.792 162.021 156.778 164.765" stroke="#F0F2DA" stroke-miterlimit="10"/>
<path d="M141.913 160.189C143.704 155.003 143.756 149.691 143.157 144.373C142.927 142.331 142.881 139.364 141.788 137.572" stroke="#F0F2DA" stroke-miterlimit="10"/>
<path d="M144.882 134.236C145.152 137.834 145.112 141.832 145.718 145.371C146.179 148.063 147.509 150.525 147.364 153.394" stroke="#F0F2DA" stroke-miterlimit="10"/>
<path d="M145.501 157.103C145.475 159.703 144.685 162.303 144.757 164.89" stroke="#F0F2DA" stroke-miterlimit="10"/>
<path d="M152.565 159.08C152.604 161.719 152.288 164.181 153.309 166.741" stroke="#F0F2DA" stroke-miterlimit="10"/>
<path d="M162.354 168.967C164.066 166.321 164.632 162.211 165.586 159.178C166.087 157.589 166.942 155.941 166.962 154.254C166.975 153.013 166.574 151.772 166.468 150.538C166.238 147.774 166.225 145.187 164.935 142.62C163.927 140.618 162.433 138.957 161.241 137.079" stroke="#F0F2DA" stroke-miterlimit="10"/>
<path d="M161.116 145.115C160.399 148.529 160.991 152.534 160.991 155.987" stroke="#F0F2DA" stroke-miterlimit="10"/>
<path d="M115.389 165.875C114.191 163.767 112.144 162.343 110.333 160.682C108.523 159.02 107.187 157.077 105.475 155.37C103.302 153.204 100.827 151.779 98.2597 150.177C95.6922 148.575 93.612 147.183 90.6363 146.468C88.984 146.067 87.2657 145.608 85.6265 145.24C83.5396 144.767 82.1967 143.651 80.3929 142.699C78.4837 141.701 76.7918 141.773 74.8103 142.574C72.8287 143.375 70.7879 144.104 68.9249 145.043C66.7788 146.133 65.5477 147.301 65.4358 149.717C65.37 151.162 65.5214 152.849 65.2185 154.254C64.3561 158.22 63.7505 162.343 63.3884 166.334C63.0263 170.326 64.7511 173.55 68.102 175.145C72.0256 177.009 76.3639 178.185 80.6957 178.769C84.0729 179.222 87.3974 179.734 90.8075 179.846C91.9266 179.885 94.448 180.509 95.3302 180.089" stroke="#F0F2DA" stroke-miterlimit="10"/>
<path d="M94.0794 177.613C96.3111 178.605 98.2268 180.404 100.399 181.54C102.025 182.386 103.823 183.023 105.383 183.89C106.653 184.599 107.693 185.321 109.076 185.781C110.755 186.339 111.887 188.072 113.566 188.492C114.619 188.755 115.87 188.453 116.89 188.735C117.97 189.037 119.109 190.081 120.109 190.626C121.656 191.466 123.434 192.582 124.816 193.685" stroke="#F0F2DA" stroke-miterlimit="10"/>
<path d="M141.288 188.492C140.215 187.914 140.689 187.179 140.294 186.391" stroke="#F0F2DA" stroke-miterlimit="10"/>
<path d="M145.876 192.445C146.093 193.147 146.554 193.777 146.87 194.421" stroke="#F0F2DA" stroke-miterlimit="10"/>
<path d="M139.431 188.367C139.378 187.908 139.28 187.461 139.181 187.008" stroke="#F0F2DA" stroke-miterlimit="10"/>
<path d="M150.34 204.8C149.964 204.196 149.556 203.501 149.345 202.824" stroke="#F0F2DA" stroke-miterlimit="10"/>
<path d="M158.885 208.51V207.518" stroke="#F0F2DA" stroke-miterlimit="10"/>
<path d="M148.602 194.67C148.404 194.046 148.108 193.403 147.858 192.819" stroke="#F0F2DA" stroke-miterlimit="10"/>
<path d="M137.45 179.097C136.62 179.655 136.548 180.371 136.581 181.323" stroke="#F0F2DA" stroke-miterlimit="10"/>
<path d="M145.382 173.911C145.705 174.291 145.889 174.764 145.876 175.27" stroke="#F0F2DA" stroke-miterlimit="10"/>
<path d="M127.66 204.183C124.329 202.542 121.242 201.439 117.45 201.242C114.599 201.091 111.696 201.964 108.951 202.627C107.029 203.093 105.133 203.048 103.25 203.441C100.327 204.059 97.9832 206.573 96.4361 209.015C94.7179 211.733 92.6969 215.312 92.8483 218.647" stroke="#F0F2DA" stroke-miterlimit="10"/>
<path d="M127.785 202.207C125.04 198.8 121.13 195.274 117.002 193.771C115.402 193.186 113.559 193.403 112.038 192.845C111.209 192.543 110.59 191.663 109.695 191.322C108.971 191.046 108.227 190.889 107.463 190.836" stroke="#F0F2DA" stroke-miterlimit="10"/>
<path d="M120.597 192.32C123.197 194.847 126.028 196.463 127.72 199.798C128.766 201.866 130.531 203.73 132.249 205.175" stroke="#F0F2DA" stroke-miterlimit="10"/>
<path d="M65.3305 176.254C65.3305 178.428 65.811 179.8 66.3377 181.776C66.4759 182.295 66.7985 183.47 66.8051 183.982C66.8183 184.77 66.3311 185.006 66.1468 185.702C65.653 187.521 67.8782 187.639 69.2936 187.777C70.9064 187.934 72.1836 187.068 73.6911 186.647C75.6134 186.116 77.2592 184.724 79.0828 183.791" stroke="#F0F2DA" stroke-miterlimit="10"/>
<path d="M72.6378 188.492C72.9275 189.287 73.599 190.567 74.2441 191.151C74.9419 191.781 76.5351 191.696 76.2323 192.943" stroke="#F0F2DA" stroke-miterlimit="10"/>
<path d="M81.9333 194.67C80.248 195.038 78.3521 194.815 76.7787 195.294C77.9571 192.582 78.0426 189.648 79.4251 187.008C80.1559 185.61 81.1038 184.619 82.46 183.956C83.961 183.22 86.377 183.01 87.641 182.065" stroke="#F0F2DA" stroke-miterlimit="10"/>
<path d="M76.6075 183.673C77.8517 182.892 79.3461 182.688 80.6957 182.189C81.7292 181.809 82.6443 180.903 83.6713 180.706" stroke="#F0F2DA" stroke-miterlimit="10"/>
<path d="M79.2079 197.021C79.537 197.572 79.9913 198.209 80.5706 198.537C81.2158 198.905 81.8741 198.642 82.4666 198.898C83.724 199.443 83.7635 200.809 84.04 201.964C84.435 203.599 85.4159 204.787 86.0215 206.291" stroke="#F0F2DA" stroke-miterlimit="10"/>
<path d="M90.4849 218.771C90.2874 217.655 90.0636 215.692 89.2209 214.839C88.5165 214.13 87.4435 214.143 86.7654 213.27C85.7253 211.924 86.1202 210.44 86.6272 208.943C88.2137 204.295 90.6627 199.542 94.1979 196.029C95.949 194.289 98.4374 193.574 99.3986 191.086" stroke="#F0F2DA" stroke-miterlimit="10"/>
<path d="M85.034 194.053C89.2802 192.057 93.3223 190.724 97.687 189.234C99.55 188.597 101.262 187.639 103.138 187.199C104.25 186.936 105.475 186.897 106.476 186.391" stroke="#F0F2DA" stroke-miterlimit="10"/>
<path d="M91.1037 214.57C91.4987 212.18 95.0537 209.547 92.9405 207.052C91.6436 207.348 88.8589 208.549 88.2532 209.875" stroke="#F0F2DA" stroke-miterlimit="10"/>
<path d="M109.57 222.474C109.958 220.662 111.262 218.837 112.15 217.183C112.855 215.876 113.513 214.668 114.639 213.677C116.41 212.121 118.418 210.768 120.234 209.278C121.163 208.516 121.893 208.109 123.078 208.011C124.731 207.873 126.495 208.405 128.226 208.129C129.504 207.926 130.708 207.374 132.005 207.144" stroke="#F0F2DA" stroke-miterlimit="10"/>
<path d="M114.527 223.216C115.738 221.542 117.331 219.934 118.154 218.023C118.74 216.664 119.352 215.469 120.353 214.314" stroke="#F0F2DA" stroke-miterlimit="10"/>
<path d="M131.749 225.074C131.933 224.168 133.315 223.715 133.954 223.098C134.652 222.422 134.928 221.581 135.468 220.872" stroke="#F0F2DA" stroke-miterlimit="10"/>
<path d="M291.477 293.78C288.752 289.605 284.209 286.237 280.529 282.705C276.197 278.549 273.195 273.579 269.16 269.121C263.024 262.345 256.816 256.699 249.845 251.06C237.231 240.857 221.596 235.25 205.592 233.799C200.188 233.307 195.02 231.751 189.641 231.961C173.631 232.605 126.047 225.928 120.471 225.56" stroke="#F0F2DA" stroke-miterlimit="10"/>
<path d="M113.783 224.45C105.034 224.976 72.8617 217.248 75.5147 233.721C76.5943 240.437 83.566 245.952 86.9234 251.611C90.5442 257.704 94.5402 263.586 98.0951 269.961C104.073 280.689 111.248 291.601 118.615 301.567" stroke="#F0F2DA" stroke-miterlimit="10"/>
<path d="M330.516 316.772C330.753 313.378 332.616 308.46 333.116 305.276C333.86 300.575 336.197 296.886 336.46 291.929C336.671 287.963 337.415 283.335 333.86 281.175C330.305 279.015 326.039 280.065 322.524 281.372C317.691 283.164 313.096 285.016 308.567 287.405C304.407 289.598 298.337 290.498 295.203 294.154" stroke="#F0F2DA" stroke-miterlimit="10"/>
<path d="M272.517 269.869C273.795 270.611 276.085 270.585 277.672 271.202C279.542 271.931 280.858 273.165 282.735 273.855C284.216 274.393 285.506 275.056 286.737 276.093C288.278 277.393 289.133 279.494 290.733 280.617" stroke="#F0F2DA" stroke-miterlimit="10"/>
<path d="M270.845 267.276C273.057 267.979 275.328 268.556 277.521 269.357C282.103 271.025 286.033 273.986 289.996 276.737C292.004 278.129 293.854 279.547 295.638 281.201C298.008 283.4 298.166 286.027 299.094 288.961C299.502 286.486 299.89 284.254 298.732 281.91C297.725 279.868 295.809 277.781 294.525 275.818C290.404 269.528 283.215 265.72 276.276 263.383C273.966 262.608 269.357 262.024 267.685 263.75" stroke="#F0F2DA" stroke-miterlimit="10"/>
<path d="M299.476 278.956C300.305 273.447 300.285 267.611 300.601 262.03C300.786 258.761 301.839 255.609 301.859 252.327C301.872 249.642 301.358 246.897 301.01 244.291C300.733 242.236 300.786 240.207 299.996 238.369C299.351 236.852 298.324 235.533 297.757 233.95C296.428 230.241 295.256 226.801 291.622 224.766C289.351 223.492 281.326 220.137 279.41 222.789" stroke="#F0F2DA" stroke-miterlimit="10"/>
<path d="M300.22 235.388C299.805 230.93 296.605 226.676 293.676 223.387C292.247 221.785 290.667 219.789 288.567 219.126C286.75 218.548 284.887 218.522 282.932 218.522" stroke="#F0F2DA" stroke-miterlimit="10"/>
<path d="M300.22 230.385C300.22 228.055 300.206 225.855 299.337 223.702C298.304 221.142 296.125 219.402 295.394 216.762C294.374 213.053 290.351 208.786 286.092 210.552" stroke="#F0F2DA" stroke-miterlimit="10"/>
<path d="M293.156 235.388C293.538 233.813 287.698 230.622 286.085 229.873C283.669 228.757 279.983 228.731 277.435 229.263C275.138 229.749 272.261 232.546 270.885 234.456C270.253 235.329 269.996 236.498 269.515 237.463C268.653 239.196 267.165 240.7 266.388 242.433C264.966 245.591 263.933 249.517 263.604 252.99C263.393 255.255 263.209 257.559 262.485 259.673" stroke="#F0F2DA" stroke-miterlimit="10"/>
<path d="M254.302 250.219C254.703 251.539 254.861 252.983 255.046 254.296" stroke="#F0F2DA" stroke-miterlimit="10"/>
<path d="M267.501 265.608C268.851 265.215 270.858 264.991 271.964 264.309" stroke="#F0F2DA" stroke-miterlimit="10"/>
<path d="M255.236 249.477C258.001 248.217 260.694 247.055 263.228 245.4" stroke="#F0F2DA" stroke-miterlimit="10"/>
<path d="M202.63 220.006C201.175 222.389 200.648 226.164 201.517 228.902" stroke="#F0F2DA" stroke-miterlimit="10"/>
<path d="M131.623 224.825C132.157 223.623 133.085 222.507 133.855 221.49" stroke="#F0F2DA" stroke-miterlimit="10"/>
<path d="M96.3045 197.388C101.894 197.447 108.312 195.799 113.776 198.13" stroke="#F0F2DA" stroke-miterlimit="10"/>
<path d="M323.076 348.286C317.533 352.441 301.642 369.61 296.112 374.008C289.95 378.919 288.047 384.395 283.669 390.547C273.406 404.971 285.394 421.876 288.139 438.381C288.864 442.728 289.989 446.66 291.102 450.974C292.28 455.517 293.215 460.605 294.821 465.063C296.553 469.869 285.921 470.788 283.669 468.398C278.686 463.12 280.24 454.375 278.278 447.448C276.316 440.522 273.261 434.088 271.398 427.614" stroke="#F0F2DA" stroke-miterlimit="10"/>
<path d="M333.491 310.095C339.673 317.645 330.588 324.033 329.383 331.59C328.389 337.807 330.647 344.826 331.543 350.879C332.681 358.613 333.03 366.721 333.123 374.573C333.202 381.329 335.005 387.697 334.979 394.256C334.959 398.773 331.872 399.41 329.028 398.707C328.995 390.205 325.967 382.865 324.946 374.599C324.577 371.599 321.589 360.149 319.364 356.44" stroke="#F0F2DA" stroke-miterlimit="10"/>
<path d="M263.972 394.998C264.282 401.228 267.007 407.492 267.317 413.906C260.306 409.317 250.99 408.345 243.551 404.485C235.329 400.217 226.79 396.889 218.245 393.416C214.756 391.997 211.616 390.527 208.206 389.069C223.44 389.069 243.097 393.37 259.134 394.696" stroke="#F0F2DA" stroke-miterlimit="10"/>
<path d="M147.239 374.974C150.076 375.761 152.867 376.116 155.758 376.733C161.775 378.02 167.146 381.243 173.071 382.773C182.011 385.078 191.629 385.819 200.767 387.572C188.134 387.572 176.725 388.065 164.138 388.682C155.567 389.102 146.041 390.382 137.568 389.798C139.708 386.496 141.874 383.22 144.257 380.16" stroke="#F0F2DA" stroke-miterlimit="10"/>
<path d="M269.173 425.395C265.98 424.785 261.984 421.988 258.732 420.681C254.321 418.902 249.825 417.189 245.395 415.311C236.85 411.7 228.66 408.24 220.28 404.412C213.894 401.491 207.363 395.654 200.188 394.604C194.329 393.744 187.956 394.873 182.169 395.444C176.896 395.969 171.649 395.825 166.389 396.521C155.837 397.919 144.441 397.552 133.842 397.585C129.662 403.789 125.889 410.308 123.467 417.451C122.203 421.18 122.124 423.248 118.411 424.975C115.995 426.098 110.044 427.142 108.931 423.911C113.217 414.09 118.832 403.973 124.171 394.617C127.864 388.137 133.46 380.817 135.323 373.49C136.186 370.102 139.51 367.259 140.155 363.852C141.169 358.488 137.904 351.673 136.357 346.408C134.171 338.996 131.459 331.308 128.338 324.237C125.455 317.698 122.888 311.086 120.458 304.534" stroke="#F0F2DA" stroke-miterlimit="10"/>
<path d="M264.341 373.122C264.341 331.702 254.802 288.692 235.342 251.887" stroke="#F0F2DA" stroke-miterlimit="10"/>
<path d="M329.028 287.478C321.569 290.872 308.284 300.319 300.029 297.49" stroke="#F0F2DA" stroke-miterlimit="10"/>
<path d="M226.422 248.552C216.455 242.558 201.662 243.313 190.425 241.632C177.726 239.735 165.139 238.697 152.255 237.437C140.629 236.301 128.872 234.646 117.127 234.088C107.489 233.629 92.9273 230.602 84.7773 234.088" stroke="#F0F2DA" stroke-miterlimit="10"/>
<path d="M276.612 380.909C283.36 372.558 292.767 366.708 300.035 358.107C306.776 350.124 314.545 340.591 322.339 334.196" stroke="#F0F2DA" stroke-miterlimit="10"/>
<path d="M327.915 319.733C327.705 322.628 327.395 324.788 326.803 327.519" stroke="#F0F2DA" stroke-miterlimit="10"/>
<path d="M145.007 362C163.131 365.69 182.663 366.209 200.714 369.728C212.419 372.006 223.703 373.667 235.316 375.322C245.592 376.792 258.666 382.058 268.798 380.909" stroke="#F0F2DA" stroke-miterlimit="10"/>
</g>
<defs>
<clipPath id="clip0_1_299">
<rect width="274" height="355" fill="white" transform="translate(63 115)"/>
</clipPath>
</defs>
</svg>
