<svg width="507" height="220" viewBox="0 0 507 220" fill="none" xmlns="http://www.w3.org/2000/svg">
<path d="M383.64 41.44C390.26 40.45 397.02 40.4 403.66 41.28C394.61 55.92 380.37 67.28 364.08 72.85" stroke="#F0F2DA" stroke-miterlimit="10"/>
<path d="M335.66 48.19C314.23 55.96 294.39 67.88 272.55 74.43" stroke="#F0F2DA" stroke-miterlimit="10"/>
<path d="M364.14 79.33C361.54 78.07 358.94 76.82 356.33 75.56C354.45 74.65 352.4 73.58 351.64 71.63C354 70.22 356.7 69.51 359.33 68.72C368.41 66 377.12 62.05 385.14 57.01" stroke="#F0F2DA" stroke-miterlimit="10"/>
<path d="M212.91 91.34C208.84 84.69 200.41 82.35 194.47 77.3C190.52 73.94 187.73 69.44 184.17 65.67C183.34 64.79 182.41 63.91 181.24 63.57C179.71 63.12 178.09 63.66 176.59 64.2C170.11 66.51 163.62 68.82 157.14 71.13C164.91 81.92 171.79 93.35 177.68 105.26" stroke="#F0F2DA" stroke-miterlimit="10"/>
<path d="M249.75 105C263.02 97.98 276.73 91.77 290.77 86.43C294.58 84.98 298.41 83.6 302.2 82.09C318.11 75.75 333.07 67.26 347.97 58.81" stroke="#F0F2DA" stroke-miterlimit="10"/>
<path d="M201.75 110.37C203.3 109.14 205.56 109.12 207.37 109.9C209.18 110.68 210.61 112.15 211.82 113.71C214.8 117.57 216.69 122.26 217.24 127.1" stroke="#F0F2DA" stroke-miterlimit="10"/>
<path d="M188.65 149.28C191.68 147.4 194.7 145.51 197.73 143.63C199.53 142.51 201.33 141.39 203 140.09C205.24 138.35 207.23 136.32 209.32 134.42C213.52 130.59 218.17 127.26 223.14 124.51" stroke="#F0F2DA" stroke-miterlimit="10"/>
<path d="M320.44 51.35C307.68 49.1 294.51 52.34 282.64 57.53C275.38 60.7 268.27 64.65 260.41 65.62C255.5 66.23 250.53 65.63 245.61 65.04C228.62 62.99 211.59 60.93 194.93 57.03C188.03 55.42 181.16 53.49 174.1 52.87C167.04 52.25 159.65 53.03 153.49 56.55" stroke="#F0F2DA" stroke-miterlimit="10"/>
<path d="M363.74 83.46C356.9 86.43 350.07 89.41 343.23 92.38C336.03 95.52 328.21 99.23 324.98 106.39C324.17 108.19 323.69 110.18 323.94 112.13C324.14 113.73 324.82 115.23 325.47 116.71C331.11 129.43 335.98 142.5 340.04 155.81C333.55 158.95 326.22 160.33 319.04 159.77" stroke="#F0F2DA" stroke-miterlimit="10"/>
<path d="M307.55 156.61C309.86 155.55 312.05 154.22 314.05 152.66C299.41 146.44 284.77 140.22 270.14 134.01C269.01 133.53 267.86 133.05 266.63 132.98C263.13 132.78 260.43 135.89 258.34 138.7" stroke="#F0F2DA" stroke-miterlimit="10"/>
<path d="M247.92 136.32C248.77 143.54 250.58 150.64 253.29 157.39C248.63 161.15 243.55 164.39 238.18 167.02C237.51 167.35 236.8 167.67 236.06 167.58C235.24 167.48 234.57 166.89 233.93 166.36C223.25 157.54 200.13 157.39 188.65 149.63" stroke="#F0F2DA" stroke-miterlimit="10"/>
<path d="M155.53 131C158.72 129.06 162.26 127.77 165.77 126.5C176.51 122.61 187.25 118.72 197.99 114.84" stroke="#F0F2DA" stroke-miterlimit="10"/>
<path d="M202.27 121.14C204.61 119.47 207.11 118.02 209.73 116.84" stroke="#F0F2DA" stroke-miterlimit="10"/>
<path d="M204.95 128.03C207.92 127.22 210.86 126.28 213.75 125.21" stroke="#F0F2DA" stroke-miterlimit="10"/>
<path d="M196.75 118.58C199.62 116.73 202.25 114.51 204.56 112" stroke="#F0F2DA" stroke-miterlimit="10"/>
<path d="M204.12 124.1C206.41 122.47 208.94 121.16 211.59 120.23" stroke="#F0F2DA" stroke-miterlimit="10"/>
<path d="M171.97 94.07C165.4 92.85 158.82 91.63 152.25 90.42C151.36 90.26 150.46 90.09 149.57 90.2C148.76 90.3 147.99 90.62 147.23 90.94C140.7 93.68 134.16 96.42 127.63 99.16C135.45 106.87 148.48 122.61 155.78 130.81" stroke="#F0F2DA" stroke-miterlimit="10"/>
<path d="M268.22 87.12C267.28 85.33 265.86 83.79 264.15 82.71C263.69 82.42 263.17 82.15 262.63 82.16C262.18 82.16 261.77 82.36 261.36 82.54C257.96 84.1 254.55 85.67 251.15 87.23C253.72 88.34 255.68 90.75 256.25 93.49" stroke="#F0F2DA" stroke-miterlimit="10"/>
<path d="M309.05 62.11C309.96 62.92 310.86 63.73 311.77 64.54" stroke="#F0F2DA" stroke-miterlimit="10"/>
<path d="M301.3 65.78L304.23 68.39" stroke="#F0F2DA" stroke-miterlimit="10"/>
<path d="M304.67 64.26C305.78 65.24 306.9 66.22 308.01 67.2" stroke="#F0F2DA" stroke-miterlimit="10"/>
<path d="M202.33 108.78C207.48 107.03 212.18 104.18 216.86 101.41C226.66 95.6 236.61 89.96 247.23 85.84" stroke="#F0F2DA" stroke-miterlimit="10"/>
<path d="M258.89 122.28C254.16 117.07 248.91 112.33 243.25 108.15C237.45 110.21 231.65 112.27 225.86 114.33C225.52 114.45 225.16 114.59 224.95 114.88C224.74 115.18 224.73 115.57 224.74 115.94C224.81 125.2 224.88 134.46 224.95 143.72" stroke="#F0F2DA" stroke-miterlimit="10"/>
<path d="M231.07 135.14C237.06 131.86 243.27 128.98 249.66 126.55" stroke="#F0F2DA" stroke-miterlimit="10"/>
<path d="M231.76 127.64C235.95 125.63 240.34 124.03 244.83 122.86" stroke="#F0F2DA" stroke-miterlimit="10"/>
<path d="M229.25 121.51C232.58 120.08 236.08 119.04 239.65 118.42" stroke="#F0F2DA" stroke-miterlimit="10"/>
<path d="M219.37 85.5C229.7 79.62 240.73 74.95 252.14 71.62" stroke="#F0F2DA" stroke-miterlimit="10"/>
<path d="M159.52 62.97C162.69 61.77 165.87 60.57 169.04 59.37C168.55 61.62 170.45 64.08 172.75 64.17" stroke="#F0F2DA" stroke-miterlimit="10"/>
<path d="M177.17 116.08C174.36 114.29 171.86 112.01 169.82 109.37" stroke="#F0F2DA" stroke-miterlimit="10"/>
<path d="M211.47 137.56C214.06 139.28 217 140.48 220.05 141.06" stroke="#F0F2DA" stroke-miterlimit="10"/>
<path d="M350.65 91.56C349.29 93.41 347.94 95.26 346.58 97.12C345.26 98.92 343.89 100.77 342 101.96C340.14 103.13 337.92 103.57 335.82 104.24C331.9 105.49 328.31 107.58 324.76 109.66" stroke="#F0F2DA" stroke-miterlimit="10"/>
<path d="M280.18 113.13C277.87 110.83 275.55 108.53 273.24 106.23C277.04 108.19 281.16 109.55 285.39 110.23" stroke="#F0F2DA" stroke-miterlimit="10"/>
<path d="M315.98 97.62C314.45 95.31 312.91 93.01 311.38 90.7C312.79 91.65 314.21 92.6 315.62 93.54C315.65 92.54 315.69 91.54 315.72 90.54" stroke="#F0F2DA" stroke-miterlimit="10"/>
<path d="M333.61 154.4C332.56 150.56 330.9 146.93 329.37 143.25C325.48 133.88 322.4 124.14 320.83 114.12" stroke="#F0F2DA" stroke-miterlimit="10"/>
<path d="M239.24 69.14C222.04 66.46 204.92 63.22 187.92 59.45" stroke="#F0F2DA" stroke-miterlimit="10"/>
<path d="M248.31 136.76C269.4 145.21 290.77 152.94 312.38 159.95" stroke="#F0F2DA" stroke-miterlimit="10"/>
<path d="M153.66 56.51C155.98 60.23 158.72 63.68 161.81 66.79" stroke="#F0F2DA" stroke-miterlimit="10"/>
<path d="M315.34 65.84C310.92 67.48 306.47 69.03 302 70.5" stroke="#F0F2DA" stroke-miterlimit="10"/>
<path d="M385.86 42.17C389.29 44.16 391.7 47.82 392.17 51.76" stroke="#F0F2DA" stroke-miterlimit="10"/>
<path d="M193.52 127.09C174.73 136.67 155.66 145.7 136.34 154.16" stroke="#F0F2DA" stroke-miterlimit="10"/>
<path d="M196.97 135.35C192.68 137.76 188.39 140.18 184.11 142.59C171.86 149.48 159.48 156.44 145.98 160.34" stroke="#F0F2DA" stroke-miterlimit="10"/>
<path d="M193.21 132.52C172.47 140.75 153.34 152.91 132.08 159.72" stroke="#F0F2DA" stroke-miterlimit="10"/>
<path d="M315.82 160.3C299.7 166.44 283.92 173.45 268.56 181.29" stroke="#F0F2DA" stroke-miterlimit="10"/>
<path d="M153.02 58.08C146.43 61.19 139.85 64.29 133.26 67.4C130.94 68.49 128.62 69.59 126.19 70.38C123.15 71.36 119.98 71.85 116.88 72.62C112.2 73.77 107.68 75.55 103.47 77.89" stroke="#F0F2DA" stroke-miterlimit="10"/>
<path d="M155.5 62.09C147.54 64.33 139.8 67.33 132.41 71.03C126.91 73.79 121.51 76.97 115.52 78.4" stroke="#F0F2DA" stroke-miterlimit="10"/>
<path d="M307.94 160.72C298.88 164.12 289.82 167.52 280.76 170.92C277.69 172.07 274.53 173.28 272.18 175.56" stroke="#F0F2DA" stroke-miterlimit="10"/>
<path d="M164.52 69.87C164.91 71.91 166.23 73.63 167.47 75.31C173.37 83.3 178.2 92.08 181.78 101.34" stroke="#F0F2DA" stroke-miterlimit="10"/>
<path d="M229.31 117.87C229.52 125.38 229.74 132.89 229.95 140.4" stroke="#F0F2DA" stroke-miterlimit="10"/>
<path d="M187.9 150.01V151.96C202.3 157.85 216.7 163.74 231.09 169.63C232.46 170.19 233.88 170.76 235.36 170.78C236.92 170.8 238.42 170.21 239.86 169.6C243.12 168.22 246.32 166.73 249.47 165.11C250.79 164.43 252.16 163.69 252.98 162.45C253.8 161.21 253.86 159.34 252.71 158.4" stroke="#F0F2DA" stroke-miterlimit="10"/>
<path d="M126.47 99.76C135.02 112.39 144.74 124.22 155.47 135.05C166.23 129.78 177.36 125.27 188.75 121.56" stroke="#F0F2DA" stroke-miterlimit="10"/>
<path d="M156.15 131.17C155.79 131.7 155.66 132.38 155.8 133.01" stroke="#F0F2DA" stroke-miterlimit="10"/>
<path d="M235.88 168.11C236.11 168.97 236.01 169.92 235.63 170.72" stroke="#F0F2DA" stroke-miterlimit="10"/>
<path d="M248.67 139.36C266.85 146.61 285.13 153.61 303.5 160.35" stroke="#F0F2DA" stroke-miterlimit="10"/>
<path d="M315.31 163.03C323.34 164.01 331.62 162.72 338.98 159.36C338.98 158.21 338.97 157.07 338.96 155.92" stroke="#F0F2DA" stroke-miterlimit="10"/>
<path d="M339.87 46.9C342 48.67 343.67 50.84 345.96 52.54C348.63 54.52 351.75 55.46 355.02 55.96C361.95 57.01 368.95 55.5 373.63 50.06C375.4 48.01 378.67 44.86 379.04 42.15C370.32 39.53 359.14 36.67 350.24 40.76C348.5 41.56 345.89 42.28 344.64 43.77" stroke="#F0F2DA" stroke-miterlimit="10"/>
<path d="M189.18 126.08C190.13 124.18 190.87 122.57 193.2 121.93C195.3 121.35 197.6 121.75 199.31 123.14C202.66 125.87 205.3 134.51 201.88 138.21C200.24 139.99 196.1 140.75 194.48 138.6" stroke="#F0F2DA" stroke-miterlimit="10"/>
</svg>
