<svg width="507" height="220" viewBox="0 0 507 220" fill="none" xmlns="http://www.w3.org/2000/svg">
<path d="M386.64 41.44C393.26 40.45 400.02 40.4 406.66 41.28C397.61 55.92 383.37 67.28 367.08 72.85" stroke="#F0F2DA" stroke-miterlimit="10"/>
<path d="M338.66 48.19C317.23 55.96 297.39 67.88 275.55 74.43" stroke="#F0F2DA" stroke-miterlimit="10"/>
<path d="M367.14 79.33C364.54 78.07 361.94 76.82 359.33 75.56C357.45 74.65 355.4 73.58 354.64 71.63C357 70.22 359.7 69.51 362.33 68.72C371.41 66 380.12 62.05 388.14 57.01" stroke="#F0F2DA" stroke-miterlimit="10"/>
<path d="M215.91 91.34C211.84 84.69 203.41 82.35 197.47 77.3C193.52 73.94 190.73 69.44 187.17 65.67C186.34 64.79 185.41 63.91 184.24 63.57C182.71 63.12 181.09 63.66 179.59 64.2C173.11 66.51 166.62 68.82 160.14 71.13C167.91 81.92 174.79 93.35 180.68 105.26" stroke="#F0F2DA" stroke-miterlimit="10"/>
<path d="M252.75 105C266.02 97.98 279.73 91.77 293.77 86.43C297.58 84.98 301.41 83.6 305.2 82.09C321.11 75.75 336.07 67.26 350.97 58.81" stroke="#F0F2DA" stroke-miterlimit="10"/>
<path d="M204.75 110.37C206.3 109.14 208.56 109.12 210.37 109.9C212.18 110.68 213.61 112.15 214.82 113.71C217.8 117.57 219.69 122.26 220.24 127.1" stroke="#F0F2DA" stroke-miterlimit="10"/>
<path d="M191.65 149.28C194.68 147.4 197.7 145.51 200.73 143.63C202.53 142.51 204.33 141.39 206 140.09C208.24 138.35 210.23 136.32 212.32 134.42C216.52 130.59 221.17 127.26 226.14 124.51" stroke="#F0F2DA" stroke-miterlimit="10"/>
<path d="M323.44 51.35C310.68 49.1 297.51 52.34 285.64 57.53C278.38 60.7 271.27 64.65 263.41 65.62C258.5 66.23 253.53 65.63 248.61 65.04C231.62 62.99 214.59 60.93 197.93 57.03C191.03 55.42 184.16 53.49 177.1 52.87C170.04 52.25 162.65 53.03 156.49 56.55" stroke="#F0F2DA" stroke-miterlimit="10"/>
<path d="M366.74 83.46C359.9 86.43 353.07 89.41 346.23 92.38C339.03 95.52 331.21 99.23 327.98 106.39C327.17 108.19 326.69 110.18 326.94 112.13C327.14 113.73 327.82 115.23 328.47 116.71C334.11 129.43 338.98 142.5 343.04 155.81C336.55 158.95 329.22 160.33 322.04 159.77" stroke="#F0F2DA" stroke-miterlimit="10"/>
<path d="M310.55 156.61C312.86 155.55 315.05 154.22 317.05 152.66C302.41 146.44 287.77 140.22 273.14 134.01C272.01 133.53 270.86 133.05 269.63 132.98C266.13 132.78 263.43 135.89 261.34 138.7" stroke="#F0F2DA" stroke-miterlimit="10"/>
<path d="M250.92 136.32C251.77 143.54 253.58 150.64 256.29 157.39C251.63 161.15 246.55 164.39 241.18 167.02C240.51 167.35 239.8 167.67 239.06 167.58C238.24 167.48 237.57 166.89 236.93 166.36C226.25 157.54 203.13 157.39 191.65 149.63" stroke="#F0F2DA" stroke-miterlimit="10"/>
<path d="M158.53 131C161.72 129.06 165.26 127.77 168.77 126.5C179.51 122.61 190.25 118.72 200.99 114.84" stroke="#F0F2DA" stroke-miterlimit="10"/>
<path d="M205.27 121.14C207.61 119.47 210.11 118.02 212.73 116.84" stroke="#F0F2DA" stroke-miterlimit="10"/>
<path d="M207.95 128.03C210.92 127.22 213.86 126.28 216.75 125.21" stroke="#F0F2DA" stroke-miterlimit="10"/>
<path d="M199.75 118.58C202.62 116.73 205.25 114.51 207.56 112" stroke="#F0F2DA" stroke-miterlimit="10"/>
<path d="M207.12 124.1C209.41 122.47 211.94 121.16 214.59 120.23" stroke="#F0F2DA" stroke-miterlimit="10"/>
<path d="M174.97 94.07C168.4 92.85 161.82 91.63 155.25 90.42C154.36 90.26 153.46 90.09 152.57 90.2C151.76 90.3 150.99 90.62 150.23 90.94C143.7 93.68 137.16 96.42 130.63 99.16C138.45 106.87 151.48 122.61 158.78 130.81" stroke="#F0F2DA" stroke-miterlimit="10"/>
<path d="M271.22 87.12C270.28 85.33 268.86 83.79 267.15 82.71C266.69 82.42 266.17 82.15 265.63 82.16C265.18 82.16 264.77 82.36 264.36 82.54C260.96 84.1 257.55 85.67 254.15 87.23C256.72 88.34 258.68 90.75 259.25 93.49" stroke="#F0F2DA" stroke-miterlimit="10"/>
<path d="M312.05 62.11C312.96 62.92 313.86 63.73 314.77 64.54" stroke="#F0F2DA" stroke-miterlimit="10"/>
<path d="M304.3 65.78L307.23 68.39" stroke="#F0F2DA" stroke-miterlimit="10"/>
<path d="M307.67 64.26C308.78 65.24 309.9 66.22 311.01 67.2" stroke="#F0F2DA" stroke-miterlimit="10"/>
<path d="M205.33 108.78C210.48 107.03 215.18 104.18 219.86 101.41C229.66 95.6 239.61 89.96 250.23 85.84" stroke="#F0F2DA" stroke-miterlimit="10"/>
<path d="M261.89 122.28C257.16 117.07 251.91 112.33 246.25 108.15C240.45 110.21 234.65 112.27 228.86 114.33C228.52 114.45 228.16 114.59 227.95 114.88C227.74 115.18 227.73 115.57 227.74 115.94C227.81 125.2 227.88 134.46 227.95 143.72" stroke="#F0F2DA" stroke-miterlimit="10"/>
<path d="M234.07 135.14C240.06 131.86 246.27 128.98 252.66 126.55" stroke="#F0F2DA" stroke-miterlimit="10"/>
<path d="M234.76 127.64C238.95 125.63 243.34 124.03 247.83 122.86" stroke="#F0F2DA" stroke-miterlimit="10"/>
<path d="M232.25 121.51C235.58 120.08 239.08 119.04 242.65 118.42" stroke="#F0F2DA" stroke-miterlimit="10"/>
<path d="M222.37 85.5C232.7 79.62 243.73 74.95 255.14 71.62" stroke="#F0F2DA" stroke-miterlimit="10"/>
<path d="M162.52 62.97C165.69 61.77 168.87 60.57 172.04 59.37C171.55 61.62 173.45 64.08 175.75 64.17" stroke="#F0F2DA" stroke-miterlimit="10"/>
<path d="M180.17 116.08C177.36 114.29 174.86 112.01 172.82 109.37" stroke="#F0F2DA" stroke-miterlimit="10"/>
<path d="M214.47 137.56C217.06 139.28 220 140.48 223.05 141.06" stroke="#F0F2DA" stroke-miterlimit="10"/>
<path d="M353.65 91.56C352.29 93.41 350.94 95.26 349.58 97.12C348.26 98.92 346.89 100.77 345 101.96C343.14 103.13 340.92 103.57 338.82 104.24C334.9 105.49 331.31 107.58 327.76 109.66" stroke="#F0F2DA" stroke-miterlimit="10"/>
<path d="M283.18 113.13C280.87 110.83 278.55 108.53 276.24 106.23C280.04 108.19 284.16 109.55 288.39 110.23" stroke="#F0F2DA" stroke-miterlimit="10"/>
<path d="M318.98 97.62C317.45 95.31 315.91 93.01 314.38 90.7C315.79 91.65 317.21 92.6 318.62 93.54C318.65 92.54 318.69 91.54 318.72 90.54" stroke="#F0F2DA" stroke-miterlimit="10"/>
<path d="M336.61 154.4C335.56 150.56 333.9 146.93 332.37 143.25C328.48 133.88 325.4 124.14 323.83 114.12" stroke="#F0F2DA" stroke-miterlimit="10"/>
<path d="M242.24 69.14C225.04 66.46 207.92 63.22 190.92 59.45" stroke="#F0F2DA" stroke-miterlimit="10"/>
<path d="M251.31 136.76C272.4 145.21 293.77 152.94 315.38 159.95" stroke="#F0F2DA" stroke-miterlimit="10"/>
<path d="M156.66 56.51C158.98 60.23 161.72 63.68 164.81 66.79" stroke="#F0F2DA" stroke-miterlimit="10"/>
<path d="M318.34 65.84C313.92 67.48 309.47 69.03 305 70.5" stroke="#F0F2DA" stroke-miterlimit="10"/>
<path d="M388.86 42.17C392.29 44.16 394.7 47.82 395.17 51.76" stroke="#F0F2DA" stroke-miterlimit="10"/>
<path d="M167.52 69.87C167.91 71.91 169.23 73.63 170.47 75.31C176.37 83.3 181.2 92.08 184.78 101.34" stroke="#F0F2DA" stroke-miterlimit="10"/>
<path d="M232.31 117.87C232.52 125.38 232.74 132.89 232.95 140.4" stroke="#F0F2DA" stroke-miterlimit="10"/>
<path d="M190.9 150.01V151.96C205.3 157.85 219.7 163.74 234.09 169.63C235.46 170.19 236.88 170.76 238.36 170.78C239.92 170.8 241.42 170.21 242.86 169.6C246.12 168.22 249.32 166.73 252.47 165.11C253.79 164.43 255.16 163.69 255.98 162.45C256.8 161.21 256.86 159.34 255.71 158.4" stroke="#F0F2DA" stroke-miterlimit="10"/>
<path d="M129.47 99.76C138.02 112.39 147.74 124.22 158.47 135.05C169.23 129.78 180.36 125.27 191.75 121.56" stroke="#F0F2DA" stroke-miterlimit="10"/>
<path d="M159.15 131.17C158.79 131.7 158.66 132.38 158.8 133.01" stroke="#F0F2DA" stroke-miterlimit="10"/>
<path d="M238.88 168.11C239.11 168.97 239.01 169.92 238.63 170.72" stroke="#F0F2DA" stroke-miterlimit="10"/>
<path d="M251.67 139.36C269.85 146.61 288.13 153.61 306.5 160.35" stroke="#F0F2DA" stroke-miterlimit="10"/>
<path d="M318.31 163.03C326.34 164.01 334.62 162.72 341.98 159.36C341.98 158.21 341.97 157.07 341.96 155.92" stroke="#F0F2DA" stroke-miterlimit="10"/>
<path d="M342.87 46.9C345 48.67 346.67 50.84 348.96 52.54C351.63 54.52 354.75 55.46 358.02 55.96C364.95 57.01 371.95 55.5 376.63 50.06C378.4 48.01 381.67 44.86 382.04 42.15C373.32 39.53 362.14 36.67 353.24 40.76C351.5 41.56 348.89 42.28 347.64 43.77" stroke="#F0F2DA" stroke-miterlimit="10"/>
<path d="M192.18 126.08C193.13 124.18 193.87 122.57 196.2 121.93C198.3 121.35 200.6 121.75 202.31 123.14C205.66 125.87 208.3 134.51 204.88 138.21C203.24 139.99 199.1 140.75 197.48 138.6" stroke="#F0F2DA" stroke-miterlimit="10"/>
<path d="M200.06 133.33C191.31 138.43 181.58 141.87 171.88 146.01C165.74 148.63 160.42 152.86 154.28 155.42C149.62 157.36 143.31 158.14 139.46 161" stroke="#F0F2DA" stroke-miterlimit="10"/>
<path d="M154.6 61.52C141.78 67.52 128.26 73.44 115.07 77.99" stroke="#F0F2DA" stroke-miterlimit="10"/>
<path d="M314.68 163.63C299.09 173.64 281.27 176.99 264.61 184.71" stroke="#F0F2DA" stroke-miterlimit="10"/>
<path d="M196.76 130.69C182.98 138.38 167.43 143.54 153.28 150.45" stroke="#F0F2DA" stroke-miterlimit="10"/>
<path d="M153.94 57.57C149.53 60.34 142.81 61.51 137.74 63.44C132.51 65.43 127.36 69.15 121.66 70.09" stroke="#F0F2DA" stroke-miterlimit="10"/>
<path d="M309.41 162.32C298.52 165.11 284.6 174.89 273.84 174.84" stroke="#F0F2DA" stroke-miterlimit="10"/>
<path d="M195.44 127.4C186.1 131.33 177.42 135.97 167.77 139.09C158.02 142.25 149.67 147.66 140.1 150.45" stroke="#F0F2DA" stroke-miterlimit="10"/>
</svg>
