<svg width="507" height="220" viewBox="0 0 507 220" fill="none" xmlns="http://www.w3.org/2000/svg">
<path d="M381.64 40.44C388.26 39.45 395.02 39.4 401.66 40.28C392.61 54.92 378.37 66.28 362.08 71.85" stroke="#F0F2DA" stroke-miterlimit="10"/>
<path d="M333.66 47.19C312.23 54.96 292.39 66.88 270.55 73.43" stroke="#F0F2DA" stroke-miterlimit="10"/>
<path d="M362.14 78.33C359.54 77.07 356.94 75.82 354.33 74.56C352.45 73.65 350.4 72.58 349.64 70.63C352 69.22 354.7 68.51 357.33 67.72C366.41 65 375.12 61.05 383.14 56.01" stroke="#F0F2DA" stroke-miterlimit="10"/>
<path d="M210.91 90.34C206.84 83.69 198.41 81.35 192.47 76.3C188.52 72.94 185.73 68.44 182.17 64.67C181.34 63.79 180.41 62.91 179.24 62.57C177.71 62.12 176.09 62.66 174.59 63.2C168.11 65.51 161.62 67.82 155.14 70.13C162.91 80.92 169.79 92.35 175.68 104.26" stroke="#F0F2DA" stroke-miterlimit="10"/>
<path d="M247.75 104C261.02 96.98 274.73 90.77 288.77 85.43C292.58 83.98 296.41 82.6 300.2 81.09C316.11 74.75 331.07 66.26 345.97 57.81" stroke="#F0F2DA" stroke-miterlimit="10"/>
<path d="M199.75 109.37C201.3 108.14 203.56 108.12 205.37 108.9C207.18 109.68 208.61 111.15 209.82 112.71C212.8 116.57 214.69 121.26 215.24 126.1" stroke="#F0F2DA" stroke-miterlimit="10"/>
<path d="M186.65 148.28C189.68 146.4 192.7 144.51 195.73 142.63C197.53 141.51 199.33 140.39 201 139.09C203.24 137.35 205.23 135.32 207.32 133.42C211.52 129.59 216.17 126.26 221.14 123.51" stroke="#F0F2DA" stroke-miterlimit="10"/>
<path d="M318.44 50.35C305.68 48.1 292.51 51.34 280.64 56.53C273.38 59.7 266.27 63.65 258.41 64.62C253.5 65.23 248.53 64.63 243.61 64.04C226.62 61.99 209.59 59.93 192.93 56.03C186.03 54.42 179.16 52.49 172.1 51.87C165.04 51.25 157.65 52.03 151.49 55.55" stroke="#F0F2DA" stroke-miterlimit="10"/>
<path d="M361.74 82.46C354.9 85.43 348.07 88.41 341.23 91.38C334.03 94.52 326.21 98.23 322.98 105.39C322.17 107.19 321.69 109.18 321.94 111.13C322.14 112.73 322.82 114.23 323.47 115.71C329.11 128.43 333.98 141.5 338.04 154.81C331.55 157.95 324.22 159.33 317.04 158.77" stroke="#F0F2DA" stroke-miterlimit="10"/>
<path d="M305.55 155.61C307.86 154.55 310.05 153.22 312.05 151.66C297.41 145.44 282.77 139.22 268.14 133.01C267.01 132.53 265.86 132.05 264.63 131.98C261.13 131.78 258.43 134.89 256.34 137.7" stroke="#F0F2DA" stroke-miterlimit="10"/>
<path d="M245.92 135.32C246.77 142.54 248.58 149.64 251.29 156.39C246.63 160.15 241.55 163.39 236.18 166.02C235.51 166.35 234.8 166.67 234.06 166.58C233.24 166.48 232.57 165.89 231.93 165.36C221.25 156.54 198.13 156.39 186.65 148.63" stroke="#F0F2DA" stroke-miterlimit="10"/>
<path d="M153.53 130C156.72 128.06 160.26 126.77 163.77 125.5C174.51 121.61 185.25 117.72 195.99 113.84" stroke="#F0F2DA" stroke-miterlimit="10"/>
<path d="M200.27 120.14C202.61 118.47 205.11 117.02 207.73 115.84" stroke="#F0F2DA" stroke-miterlimit="10"/>
<path d="M202.95 127.03C205.92 126.22 208.86 125.28 211.75 124.21" stroke="#F0F2DA" stroke-miterlimit="10"/>
<path d="M194.75 117.58C197.62 115.73 200.25 113.51 202.56 111" stroke="#F0F2DA" stroke-miterlimit="10"/>
<path d="M202.12 123.1C204.41 121.47 206.94 120.16 209.59 119.23" stroke="#F0F2DA" stroke-miterlimit="10"/>
<path d="M169.97 93.07C163.4 91.85 156.82 90.63 150.25 89.42C149.36 89.26 148.46 89.09 147.57 89.2C146.76 89.3 145.99 89.62 145.23 89.94C138.7 92.68 132.16 95.42 125.63 98.16C133.45 105.87 146.48 121.61 153.78 129.81" stroke="#F0F2DA" stroke-miterlimit="10"/>
<path d="M266.22 86.12C265.28 84.33 263.86 82.79 262.15 81.71C261.69 81.42 261.17 81.15 260.63 81.16C260.18 81.16 259.77 81.36 259.36 81.54C255.96 83.1 252.55 84.67 249.15 86.23C251.72 87.34 253.68 89.75 254.25 92.49" stroke="#F0F2DA" stroke-miterlimit="10"/>
<path d="M307.05 61.11C307.96 61.92 308.86 62.73 309.77 63.54" stroke="#F0F2DA" stroke-miterlimit="10"/>
<path d="M299.3 64.78L302.23 67.39" stroke="#F0F2DA" stroke-miterlimit="10"/>
<path d="M302.67 63.26L306.01 66.2" stroke="#F0F2DA" stroke-miterlimit="10"/>
<path d="M200.33 107.78C205.48 106.03 210.18 103.18 214.86 100.41C224.66 94.6 234.61 88.96 245.23 84.84" stroke="#F0F2DA" stroke-miterlimit="10"/>
<path d="M256.89 121.28C252.16 116.07 246.91 111.33 241.25 107.15C235.45 109.21 229.65 111.27 223.86 113.33C223.52 113.45 223.16 113.59 222.95 113.88C222.74 114.18 222.73 114.57 222.74 114.94C222.81 124.2 222.88 133.46 222.95 142.72" stroke="#F0F2DA" stroke-miterlimit="10"/>
<path d="M229.07 134.14C235.06 130.86 241.27 127.98 247.66 125.55" stroke="#F0F2DA" stroke-miterlimit="10"/>
<path d="M229.76 126.64C233.95 124.63 238.34 123.03 242.83 121.86" stroke="#F0F2DA" stroke-miterlimit="10"/>
<path d="M227.25 120.51C230.58 119.08 234.08 118.04 237.65 117.42" stroke="#F0F2DA" stroke-miterlimit="10"/>
<path d="M217.37 84.5C227.7 78.62 238.73 73.95 250.14 70.62" stroke="#F0F2DA" stroke-miterlimit="10"/>
<path d="M157.52 61.97C160.69 60.77 163.87 59.57 167.04 58.37C166.55 60.62 168.45 63.08 170.75 63.17" stroke="#F0F2DA" stroke-miterlimit="10"/>
<path d="M175.17 115.08C172.36 113.29 169.86 111.01 167.82 108.37" stroke="#F0F2DA" stroke-miterlimit="10"/>
<path d="M209.47 136.56C212.06 138.28 215 139.48 218.05 140.06" stroke="#F0F2DA" stroke-miterlimit="10"/>
<path d="M348.65 90.56C347.29 92.41 345.94 94.26 344.58 96.12C343.26 97.92 341.89 99.77 340 100.96C338.14 102.13 335.92 102.57 333.82 103.24C329.9 104.49 326.31 106.58 322.76 108.66" stroke="#F0F2DA" stroke-miterlimit="10"/>
<path d="M278.18 112.13C275.87 109.83 273.55 107.53 271.24 105.23C275.04 107.19 279.16 108.55 283.39 109.23" stroke="#F0F2DA" stroke-miterlimit="10"/>
<path d="M313.98 96.62C312.45 94.31 310.91 92.01 309.38 89.7C310.79 90.65 312.21 91.6 313.62 92.54C313.65 91.54 313.69 90.54 313.72 89.54" stroke="#F0F2DA" stroke-miterlimit="10"/>
<path d="M331.61 153.4C330.56 149.56 328.9 145.93 327.37 142.25C323.48 132.88 320.4 123.14 318.83 113.12" stroke="#F0F2DA" stroke-miterlimit="10"/>
<path d="M237.24 68.14C220.04 65.46 202.92 62.22 185.92 58.45" stroke="#F0F2DA" stroke-miterlimit="10"/>
<path d="M246.31 135.76C267.4 144.21 288.77 151.94 310.38 158.95" stroke="#F0F2DA" stroke-miterlimit="10"/>
<path d="M151.66 55.51C153.98 59.23 156.72 62.68 159.81 65.79" stroke="#F0F2DA" stroke-miterlimit="10"/>
<path d="M313.34 64.84C308.92 66.48 304.47 68.03 300 69.5" stroke="#F0F2DA" stroke-miterlimit="10"/>
<path d="M383.86 41.17C387.29 43.16 389.7 46.82 390.17 50.76" stroke="#F0F2DA" stroke-miterlimit="10"/>
<path d="M162.52 68.87C162.91 70.91 164.23 72.63 165.47 74.31C171.37 82.3 176.2 91.08 179.78 100.34" stroke="#F0F2DA" stroke-miterlimit="10"/>
<path d="M227.31 116.87L227.95 139.4" stroke="#F0F2DA" stroke-miterlimit="10"/>
<path d="M185.9 149.01V150.96C200.3 156.85 214.7 162.74 229.09 168.63C230.46 169.19 231.88 169.76 233.36 169.78C234.92 169.8 236.42 169.21 237.86 168.6C241.12 167.22 244.32 165.73 247.47 164.11C248.79 163.43 250.16 162.69 250.98 161.45C251.8 160.21 251.86 158.34 250.71 157.4" stroke="#F0F2DA" stroke-miterlimit="10"/>
<path d="M124.47 98.76C133.02 111.39 142.74 123.22 153.47 134.05C164.23 128.78 175.36 124.27 186.75 120.56" stroke="#F0F2DA" stroke-miterlimit="10"/>
<path d="M154.15 130.17C153.79 130.7 153.66 131.38 153.8 132.01" stroke="#F0F2DA" stroke-miterlimit="10"/>
<path d="M233.88 167.11C234.11 167.97 234.01 168.92 233.63 169.72" stroke="#F0F2DA" stroke-miterlimit="10"/>
<path d="M246.67 138.36C264.85 145.61 283.13 152.61 301.5 159.35" stroke="#F0F2DA" stroke-miterlimit="10"/>
<path d="M313.31 162.03C321.34 163.01 329.62 161.72 336.98 158.36C336.98 157.21 336.97 156.07 336.96 154.92" stroke="#F0F2DA" stroke-miterlimit="10"/>
<path d="M337.87 45.9C340 47.67 341.67 49.84 343.96 51.54C346.63 53.52 349.75 54.46 353.02 54.96C359.95 56.01 366.95 54.5 371.63 49.06C373.4 47.01 376.67 43.86 377.04 41.15C368.32 38.53 357.14 35.67 348.24 39.76C346.5 40.56 343.89 41.28 342.64 42.77" stroke="#F0F2DA" stroke-miterlimit="10"/>
<path d="M187.18 125.08C188.13 123.18 188.87 121.57 191.2 120.93C193.3 120.35 195.6 120.75 197.31 122.14C200.66 124.87 203.3 133.51 199.88 137.21C198.24 138.99 194.1 139.75 192.48 137.6" stroke="#F0F2DA" stroke-miterlimit="10"/>
<path d="M193.18 132.21C184.38 138.54 177.14 144.53 166.81 149.01C156.91 153.3 148.13 160.01 138.5 163.83" stroke="#F0F2DA" stroke-miterlimit="10"/>
<path d="M309.13 161.86C297.26 169.28 281.74 173.11 270.26 181.62" stroke="#F0F2DA" stroke-miterlimit="10"/>
<path d="M192.52 128.92C175.43 137.84 157.77 150.46 139.16 155.93" stroke="#F0F2DA" stroke-miterlimit="10"/>
<path d="M152.34 62.38C141.66 65.27 128.12 70.59 120.06 76.21" stroke="#F0F2DA" stroke-miterlimit="10"/>
<path d="M189.23 126.28C178.12 132.52 166.74 136.5 155.63 142.09" stroke="#F0F2DA" stroke-miterlimit="10"/>
<path d="M301.88 161.2C292.06 164.34 281.21 172.92 270.92 174.38" stroke="#F0F2DA" stroke-miterlimit="10"/>
<path d="M149.04 58.43C143.86 60.05 138.7 62.52 133.92 65.15C127.26 68.81 120.02 70.32 113.47 73.58" stroke="#F0F2DA" stroke-miterlimit="10"/>
</svg>
