<svg width="507" height="220" viewBox="0 0 507 220" fill="none" xmlns="http://www.w3.org/2000/svg">
<path d="M381.64 44.44C388.26 43.45 395.02 43.4 401.66 44.28C392.61 58.92 378.37 70.28 362.08 75.85" stroke="#F0F2DA" stroke-miterlimit="10"/>
<path d="M333.66 51.19C312.23 58.96 292.39 70.88 270.55 77.43" stroke="#F0F2DA" stroke-miterlimit="10"/>
<path d="M362.14 82.33C359.54 81.07 356.94 79.82 354.33 78.56C352.45 77.65 350.4 76.58 349.64 74.63C352 73.22 354.7 72.51 357.33 71.72C366.41 69 375.12 65.05 383.14 60.01" stroke="#F0F2DA" stroke-miterlimit="10"/>
<path d="M210.91 94.34C206.84 87.69 198.41 85.35 192.47 80.3C188.52 76.94 185.73 72.44 182.17 68.67C181.34 67.79 180.41 66.91 179.24 66.57C177.71 66.12 176.09 66.66 174.59 67.2C168.11 69.51 161.62 71.82 155.14 74.13C162.91 84.92 169.79 96.35 175.68 108.26" stroke="#F0F2DA" stroke-miterlimit="10"/>
<path d="M247.75 108C261.02 100.98 274.73 94.77 288.77 89.43C292.58 87.98 296.41 86.6 300.2 85.09C316.11 78.75 331.07 70.26 345.97 61.81" stroke="#F0F2DA" stroke-miterlimit="10"/>
<path d="M199.75 113.37C201.3 112.14 203.56 112.12 205.37 112.9C207.18 113.68 208.61 115.15 209.82 116.71C212.8 120.57 214.69 125.26 215.24 130.1" stroke="#F0F2DA" stroke-miterlimit="10"/>
<path d="M186.65 152.28C189.68 150.4 192.7 148.51 195.73 146.63C197.53 145.51 199.33 144.39 201 143.09C203.24 141.35 205.23 139.32 207.32 137.42C211.52 133.59 216.17 130.26 221.14 127.51" stroke="#F0F2DA" stroke-miterlimit="10"/>
<path d="M318.44 54.35C305.68 52.1 292.51 55.34 280.64 60.53C273.38 63.7 266.27 67.65 258.41 68.62C253.5 69.23 248.53 68.63 243.61 68.04C226.62 65.99 209.59 63.93 192.93 60.03C186.03 58.42 179.16 56.49 172.1 55.87C165.04 55.25 157.65 56.03 151.49 59.55" stroke="#F0F2DA" stroke-miterlimit="10"/>
<path d="M361.74 86.46C354.9 89.43 348.07 92.41 341.23 95.38C334.03 98.52 326.21 102.23 322.98 109.39C322.17 111.19 321.69 113.18 321.94 115.13C322.14 116.73 322.82 118.23 323.47 119.71C329.11 132.43 333.98 145.5 338.04 158.81C331.55 161.95 324.22 163.33 317.04 162.77" stroke="#F0F2DA" stroke-miterlimit="10"/>
<path d="M305.55 159.61C307.86 158.55 310.05 157.22 312.05 155.66C297.41 149.44 282.77 143.22 268.14 137.01C267.01 136.53 265.86 136.05 264.63 135.98C261.13 135.78 258.43 138.89 256.34 141.7" stroke="#F0F2DA" stroke-miterlimit="10"/>
<path d="M245.92 139.32C246.77 146.54 248.58 153.64 251.29 160.39C246.63 164.15 241.55 167.39 236.18 170.02C235.51 170.35 234.8 170.67 234.06 170.58C233.24 170.48 232.57 169.89 231.93 169.36C221.25 160.54 198.13 160.39 186.65 152.63" stroke="#F0F2DA" stroke-miterlimit="10"/>
<path d="M153.53 134C156.72 132.06 160.26 130.77 163.77 129.5C174.51 125.61 185.25 121.72 195.99 117.84" stroke="#F0F2DA" stroke-miterlimit="10"/>
<path d="M200.27 124.14C202.61 122.47 205.11 121.02 207.73 119.84" stroke="#F0F2DA" stroke-miterlimit="10"/>
<path d="M202.95 131.03C205.92 130.22 208.86 129.28 211.75 128.21" stroke="#F0F2DA" stroke-miterlimit="10"/>
<path d="M194.75 121.58C197.62 119.73 200.25 117.51 202.56 115" stroke="#F0F2DA" stroke-miterlimit="10"/>
<path d="M202.12 127.1C204.41 125.47 206.94 124.16 209.59 123.23" stroke="#F0F2DA" stroke-miterlimit="10"/>
<path d="M169.97 97.07C163.4 95.85 156.82 94.63 150.25 93.42C149.36 93.26 148.46 93.09 147.57 93.2C146.76 93.3 145.99 93.62 145.23 93.94C138.7 96.68 132.16 99.42 125.63 102.16C133.45 109.87 146.48 125.61 153.78 133.81" stroke="#F0F2DA" stroke-miterlimit="10"/>
<path d="M266.22 90.12C265.28 88.33 263.86 86.79 262.15 85.71C261.69 85.42 261.17 85.15 260.63 85.16C260.18 85.16 259.77 85.36 259.36 85.54C255.96 87.1 252.55 88.67 249.15 90.23C251.72 91.34 253.68 93.75 254.25 96.49" stroke="#F0F2DA" stroke-miterlimit="10"/>
<path d="M307.05 65.11C307.96 65.92 308.86 66.73 309.77 67.54" stroke="#F0F2DA" stroke-miterlimit="10"/>
<path d="M299.3 68.78L302.23 71.39" stroke="#F0F2DA" stroke-miterlimit="10"/>
<path d="M302.67 67.26L306.01 70.2" stroke="#F0F2DA" stroke-miterlimit="10"/>
<path d="M200.33 111.78C205.48 110.03 210.18 107.18 214.86 104.41C224.66 98.6 234.61 92.96 245.23 88.84" stroke="#F0F2DA" stroke-miterlimit="10"/>
<path d="M256.89 125.28C252.16 120.07 246.91 115.33 241.25 111.15C235.45 113.21 229.65 115.27 223.86 117.33C223.52 117.45 223.16 117.59 222.95 117.88C222.74 118.18 222.73 118.57 222.74 118.94C222.81 128.2 222.88 137.46 222.95 146.72" stroke="#F0F2DA" stroke-miterlimit="10"/>
<path d="M229.07 138.14C235.06 134.86 241.27 131.98 247.66 129.55" stroke="#F0F2DA" stroke-miterlimit="10"/>
<path d="M229.76 130.64C233.95 128.63 238.34 127.03 242.83 125.86" stroke="#F0F2DA" stroke-miterlimit="10"/>
<path d="M227.25 124.51C230.58 123.08 234.08 122.04 237.65 121.42" stroke="#F0F2DA" stroke-miterlimit="10"/>
<path d="M217.37 88.5C227.7 82.62 238.73 77.95 250.14 74.62" stroke="#F0F2DA" stroke-miterlimit="10"/>
<path d="M157.52 65.97C160.69 64.77 163.87 63.57 167.04 62.37C166.55 64.62 168.45 67.08 170.75 67.17" stroke="#F0F2DA" stroke-miterlimit="10"/>
<path d="M175.17 119.08C172.36 117.29 169.86 115.01 167.82 112.37" stroke="#F0F2DA" stroke-miterlimit="10"/>
<path d="M209.47 140.56C212.06 142.28 215 143.48 218.05 144.06" stroke="#F0F2DA" stroke-miterlimit="10"/>
<path d="M348.65 94.56C347.29 96.41 345.94 98.26 344.58 100.12C343.26 101.92 341.89 103.77 340 104.96C338.14 106.13 335.92 106.57 333.82 107.24C329.9 108.49 326.31 110.58 322.76 112.66" stroke="#F0F2DA" stroke-miterlimit="10"/>
<path d="M278.18 116.13C275.87 113.83 273.55 111.53 271.24 109.23C275.04 111.19 279.16 112.55 283.39 113.23" stroke="#F0F2DA" stroke-miterlimit="10"/>
<path d="M313.98 100.62C312.45 98.31 310.91 96.01 309.38 93.7C310.79 94.65 312.21 95.6 313.62 96.54C313.65 95.54 313.69 94.54 313.72 93.54" stroke="#F0F2DA" stroke-miterlimit="10"/>
<path d="M331.61 157.4C330.56 153.56 328.9 149.93 327.37 146.25C323.48 136.88 320.4 127.14 318.83 117.12" stroke="#F0F2DA" stroke-miterlimit="10"/>
<path d="M237.24 72.14C220.04 69.46 202.92 66.22 185.92 62.45" stroke="#F0F2DA" stroke-miterlimit="10"/>
<path d="M246.31 139.76C267.4 148.21 288.77 155.94 310.38 162.95" stroke="#F0F2DA" stroke-miterlimit="10"/>
<path d="M151.66 59.51C153.98 63.23 156.72 66.68 159.81 69.79" stroke="#F0F2DA" stroke-miterlimit="10"/>
<path d="M313.34 68.84C308.92 70.48 304.47 72.03 300 73.5" stroke="#F0F2DA" stroke-miterlimit="10"/>
<path d="M383.86 45.17C387.29 47.16 389.7 50.82 390.17 54.76" stroke="#F0F2DA" stroke-miterlimit="10"/>
<path d="M162.52 72.87C162.91 74.91 164.23 76.63 165.47 78.31C171.37 86.3 176.2 95.08 179.78 104.34" stroke="#F0F2DA" stroke-miterlimit="10"/>
<path d="M227.31 120.87L227.95 143.4" stroke="#F0F2DA" stroke-miterlimit="10"/>
<path d="M185.9 153.01V154.96C200.3 160.85 214.7 166.74 229.09 172.63C230.46 173.19 231.88 173.76 233.36 173.78C234.92 173.8 236.42 173.21 237.86 172.6C241.12 171.22 244.32 169.73 247.47 168.11C248.79 167.43 250.16 166.69 250.98 165.45C251.8 164.21 251.86 162.34 250.71 161.4" stroke="#F0F2DA" stroke-miterlimit="10"/>
<path d="M124.47 102.76C133.02 115.39 142.74 127.22 153.47 138.05C164.23 132.78 175.36 128.27 186.75 124.56" stroke="#F0F2DA" stroke-miterlimit="10"/>
<path d="M154.15 134.17C153.79 134.7 153.66 135.38 153.8 136.01" stroke="#F0F2DA" stroke-miterlimit="10"/>
<path d="M233.88 171.11C234.11 171.97 234.01 172.92 233.63 173.72" stroke="#F0F2DA" stroke-miterlimit="10"/>
<path d="M246.67 142.36C264.85 149.61 283.13 156.61 301.5 163.35" stroke="#F0F2DA" stroke-miterlimit="10"/>
<path d="M313.31 166.03C321.34 167.01 329.62 165.72 336.98 162.36C336.98 161.21 336.97 160.07 336.96 158.92" stroke="#F0F2DA" stroke-miterlimit="10"/>
<path d="M337.87 49.9C340 51.67 341.67 53.84 343.96 55.54C346.63 57.52 349.75 58.46 353.02 58.96C359.95 60.01 366.95 58.5 371.63 53.06C373.4 51.01 376.67 47.86 377.04 45.15C368.32 42.53 357.14 39.67 348.24 43.76C346.5 44.56 343.89 45.28 342.64 46.77" stroke="#F0F2DA" stroke-miterlimit="10"/>
<path d="M187.18 129.08C188.13 127.18 188.87 125.57 191.2 124.93C193.3 124.35 195.6 124.75 197.31 126.14C200.66 128.87 203.3 137.51 199.88 141.21C198.24 142.99 194.1 143.75 192.48 141.6" stroke="#F0F2DA" stroke-miterlimit="10"/>
<path d="M193.84 136.62C188.16 143.79 174.69 145.17 167.49 151.11" stroke="#F0F2DA" stroke-miterlimit="10"/>
<path d="M308.47 166.93C297.65 172.56 285.92 182.16 274.21 185.38" stroke="#F0F2DA" stroke-miterlimit="10"/>
<path d="M149.7 62.84C138.85 72.07 123.02 73.18 111.49 79.97" stroke="#F0F2DA" stroke-miterlimit="10"/>
<path d="M190.55 133.99C173.63 142.66 156.38 152.44 139.82 161" stroke="#F0F2DA" stroke-miterlimit="10"/>
<path d="M302.54 165.61C298.58 168.64 293.58 169.58 289.35 171.52C285.57 173.26 282.18 177.32 278.17 178.13" stroke="#F0F2DA" stroke-miterlimit="10"/>
<path d="M151.02 67.45C146.07 68.01 141.95 71.54 137.51 73.38C133.07 75.22 127.82 76.5 123.35 78.65" stroke="#F0F2DA" stroke-miterlimit="10"/>
<path d="M189.23 130.04C182.04 134.2 174.05 138.6 166.17 141.75C162.42 143.25 158.38 144.16 154.67 145.91C150.96 147.66 147.33 151.74 143.12 151.78" stroke="#F0F2DA" stroke-miterlimit="10"/>
</svg>
