<svg width="392" height="220" viewBox="0 0 392 220" fill="none" xmlns="http://www.w3.org/2000/svg">
<g clip-path="url(#clip0_741_1707)">
<path d="M185.13 12.68C184.2 79.73 183.27 146.78 182.34 213.82" stroke="#F0F2DA" stroke-miterlimit="10"/>
<path d="M178.96 128.68C178.25 130.06 176.01 129.79 175.07 128.56C174.13 127.33 174.12 125.65 174.15 124.1C174.48 106.54 174.82 88.99 175.15 71.43C177.19 71.36 179.23 71.29 181.27 71.22" stroke="#F0F2DA" stroke-miterlimit="10"/>
<path d="M9.16014 144.7C15.2601 143.28 20.2801 137.91 21.1401 131.7C22.0001 125.49 18.5601 118.89 12.9201 116.16C7.28015 113.43 -0.119855 114.89 -4.19986 119.63C-13.9299 130.93 -7.00986 148.45 9.17015 144.69L9.16014 144.7Z" stroke="#F0F2DA" stroke-miterlimit="10"/>
<path d="M10.4101 148.67C16.5501 147.17 22.0101 142.84 24.5301 137.05C27.6401 129.9 25.8301 120.92 20.2501 115.46C14.6701 110 5.73011 108.37 -1.45989 111.41C-7.55989 113.99 -12.1999 119.76 -13.4199 126.28C-16.1699 141.01 -3.83989 152.15 10.4001 148.68L10.4101 148.67Z" stroke="#F0F2DA" stroke-miterlimit="10"/>
</g>
<defs>
<clipPath id="clip0_741_1707">
<rect width="392" height="220" fill="white"/>
</clipPath>
</defs>
</svg>
