<svg width="392" height="220" viewBox="0 0 392 220" fill="none" xmlns="http://www.w3.org/2000/svg">
<g clip-path="url(#clip0_741_1768)">
<path d="M184.79 12.6801C183.86 79.7301 182.93 146.78 182 213.82" stroke="#F0F2DA" stroke-miterlimit="10"/>
<path d="M178.818 128.68C178.108 130.06 175.868 129.79 174.928 128.56C173.988 127.33 173.978 125.65 174.008 124.1C174.338 106.54 174.678 88.99 175.008 71.43C177.048 71.36 179.088 71.29 181.128 71.22" stroke="#F0F2DA" stroke-miterlimit="10"/>
<path d="M357.04 207.36C352.06 210.49 349.3 216.8 350.37 222.59C351.28 227.5 354.92 231.88 359.67 233.41C368.13 236.13 381.26 230.77 380.34 220.58C379.32 209.34 367.46 200.81 357.04 207.36V207.36Z" stroke="#F0F2DA" stroke-miterlimit="10"/>
<path d="M368.23 202.13C360.87 200.63 352.75 204.12 348.78 210.5C344.81 216.88 345.26 225.71 349.86 231.65C351.43 233.67 353.43 235.38 355.73 236.49C359.74 238.43 364.41 238.5 368.81 237.82C372.48 237.26 376.18 236.14 379.05 233.79C387.63 226.74 383.89 212.58 376.41 206.2C374.07 204.2 371.25 202.75 368.23 202.14V202.13Z" stroke="#F0F2DA" stroke-miterlimit="10"/>
</g>
<defs>
<clipPath id="clip0_741_1768">
<rect width="392" height="220" fill="white"/>
</clipPath>
</defs>
</svg>
