<svg width="392" height="220" viewBox="0 0 392 220" fill="none" xmlns="http://www.w3.org/2000/svg">
<path d="M185.13 12.68C184.2 79.73 183.27 146.78 182.34 213.82" stroke="#F0F2DA" stroke-miterlimit="10"/>
<path d="M178.96 128.68C178.25 130.06 176.01 129.79 175.07 128.56C174.13 127.33 174.12 125.65 174.15 124.1C174.48 106.54 174.82 88.99 175.15 71.43C177.19 71.36 179.23 71.29 181.27 71.22" stroke="#F0F2DA" stroke-miterlimit="10"/>
<path d="M48.4899 129.45C54.4999 131.2 61.5099 128.96 65.2899 123.97C69.0699 118.98 69.2999 111.54 65.7199 106.4C62.1399 101.26 54.9699 98.91 49.0799 101.05C35.0699 106.15 32.5299 124.81 48.4799 129.44L48.4899 129.45Z" stroke="#F0F2DA" stroke-miterlimit="10"/>
<path d="M47.6298 133.53C53.7198 135.23 60.5998 134.12 65.6298 130.3C71.8398 125.58 74.6498 116.86 72.4598 109.38C70.2698 101.9 63.2598 96.09 55.5098 95.23C48.9298 94.5 42.0598 97.26 37.8098 102.35C28.1998 113.85 33.5198 129.6 47.6298 133.53V133.53Z" stroke="#F0F2DA" stroke-miterlimit="10"/>
</svg>
