<svg width="392" height="220" viewBox="0 0 392 220" fill="none" xmlns="http://www.w3.org/2000/svg">
<path d="M185.13 12.68C184.2 79.73 183.27 146.78 182.34 213.82" stroke="#F0F2DA" stroke-miterlimit="10"/>
<path d="M178.96 128.68C178.25 130.06 176.01 129.79 175.07 128.56C174.13 127.33 174.12 125.65 174.15 124.1C174.48 106.54 174.82 88.99 175.15 71.43C177.19 71.36 179.23 71.29 181.27 71.22" stroke="#F0F2DA" stroke-miterlimit="10"/>
<path d="M87.4601 114.43C91.0201 119.58 97.8701 122.27 103.95 120.79C110.04 119.31 114.91 113.68 115.37 107.43C115.83 101.18 111.76 94.84 105.84 92.78C91.7501 87.89 78.0101 100.77 87.4501 114.43H87.4601Z" stroke="#F0F2DA" stroke-miterlimit="10"/>
<path d="M84.2202 117.04C87.8702 122.2 93.9102 125.69 100.22 125.9C108.02 126.16 115.7 121.17 118.73 113.98C121.76 106.79 119.98 97.87 114.51 92.31C109.86 87.59 102.79 85.39 96.2902 86.66C81.5802 89.52 75.7602 105.09 84.2302 117.05L84.2202 117.04Z" stroke="#F0F2DA" stroke-miterlimit="10"/>
</svg>
