<svg width="392" height="220" viewBox="0 0 392 220" fill="none" xmlns="http://www.w3.org/2000/svg">
<path d="M185.13 12.68C184.2 79.73 183.27 146.78 182.34 213.82" stroke="#F0F2DA" stroke-miterlimit="10"/>
<path d="M178.96 128.68C178.25 130.06 176.01 129.79 175.07 128.56C174.13 127.33 174.12 125.65 174.15 124.1C174.48 106.54 174.82 88.99 175.15 71.43C177.19 71.36 179.23 71.29 181.27 71.22" stroke="#F0F2DA" stroke-miterlimit="10"/>
<path d="M129.65 98.25C128.98 104.48 132.41 110.98 137.98 113.84C143.55 116.7 150.92 115.62 155.36 111.19C159.8 106.76 160.85 99.3 157.71 93.88C150.24 80.97 131.42 81.74 129.65 98.26V98.25Z" stroke="#F0F2DA" stroke-miterlimit="10"/>
<path d="M125.49 98.12C124.88 104.41 127.17 110.99 131.82 115.28C137.55 120.57 146.63 121.81 153.62 118.35C160.61 114.89 165.1 106.97 164.59 99.19C164.16 92.58 160.24 86.3 154.49 83.01C141.49 75.56 126.91 83.55 125.5 98.13L125.49 98.12Z" stroke="#F0F2DA" stroke-miterlimit="10"/>
</svg>
