<svg width="392" height="220" viewBox="0 0 392 220" fill="none" xmlns="http://www.w3.org/2000/svg">
<path d="M185.13 12.68C184.2 79.73 183.27 146.78 182.34 213.82" stroke="#F0F2DA" stroke-miterlimit="10"/>
<path d="M178.96 128.68C178.25 130.06 176.01 129.79 175.07 128.56C174.13 127.33 174.12 125.65 174.15 124.1C174.48 106.54 174.82 88.99 175.15 71.43C177.19 71.36 179.23 71.29 181.27 71.22" stroke="#F0F2DA" stroke-miterlimit="10"/>
<path d="M171.9 84.47C168.69 84.4 165.2 85.56 161.79 88.35C156.95 92.32 154.82 99.36 156.8 105.31C158.77 111.25 164.78 115.65 171.04 115.61" stroke="#F0F2DA" stroke-miterlimit="10"/>
<path d="M171.98 80.41C167.53 80.41 162.92 81.99 158.92 85.34C154.08 89.4 151.09 95.7 151.4 102.01C151.78 109.8 157.37 117.05 164.79 119.48C166.84 120.15 169 120.45 171.15 120.4" stroke="#F0F2DA" stroke-miterlimit="10"/>
<path d="M186.87 115.82C191.24 114.64 195.2 111.77 197.4 107.81C199.6 103.85 199.9 98.81 197.89 94.75C195.88 90.69 191.5 87.83 186.97 87.93" stroke="#F0F2DA" stroke-miterlimit="10"/>
<path d="M186.9 119.69C192.45 118.16 197.52 114.6 200.41 109.61C203.3 104.62 203.82 98.22 201.33 93.02C198.84 87.82 193.22 84.15 187.47 84.42" stroke="#F0F2DA" stroke-miterlimit="10"/>
<path d="M203.79 106.34C204.64 108.66 204.92 111.22 204.33 113.61C203.74 116 202.2 118.2 200.02 119.36C197.84 120.52 195.02 120.49 192.99 119.1" stroke="#F0F2DA" stroke-miterlimit="10"/>
<path d="M195.73 117.23C197.2 117.42 198.75 116.86 199.77 115.77C200.79 114.68 201.24 113.1 200.95 111.64" stroke="#F0F2DA" stroke-miterlimit="10"/>
</svg>
