<svg width="392" height="220" viewBox="0 0 392 220" fill="none" xmlns="http://www.w3.org/2000/svg">
<path d="M185.13 12.68C184.2 79.73 183.27 146.78 182.34 213.82" stroke="#F0F2DA" stroke-miterlimit="10"/>
<path d="M178.96 128.68C178.25 130.06 176.01 129.79 175.07 128.56C174.13 127.33 174.12 125.65 174.15 124.1C174.48 106.54 174.82 88.99 175.15 71.43C177.19 71.36 179.23 71.29 181.27 71.22" stroke="#F0F2DA" stroke-miterlimit="10"/>
<path d="M172.47 92.12C170.93 95.18 170.13 98.6 170.29 102.02C170.42 104.82 171.23 107.55 172.56 110.01" stroke="#F0F2DA" stroke-miterlimit="10"/>
<path d="M199.89 116.23C201.59 121.86 206.94 126.2 212.8 126.7C217.78 127.13 222.96 124.78 225.7 120.6C230.57 113.16 228.88 99.08 218.81 97.27C207.7 95.27 196.33 104.44 199.89 116.23V116.23Z" stroke="#F0F2DA" stroke-miterlimit="10"/>
<path d="M197.82 104.05C194.42 110.75 195.63 119.51 200.73 125.03C205.83 130.55 214.46 132.46 221.41 129.6C223.78 128.63 225.95 127.15 227.64 125.22C230.57 121.87 231.88 117.38 232.39 112.96C232.82 109.27 232.73 105.41 231.22 102.02C226.7 91.87 212.06 91.73 203.91 97.24C201.36 98.97 199.22 101.3 197.82 104.05Z" stroke="#F0F2DA" stroke-miterlimit="10"/>
<path d="M207.39 131.88C207.34 133.69 208.33 135.42 209.72 136.58C211.11 137.74 212.85 138.41 214.6 138.83C219.53 140.03 225.09 139.4 229.08 136.26C233.07 133.12 235 127.25 232.8 122.68" stroke="#F0F2DA" stroke-miterlimit="10"/>
<path d="M203.95 131.06C203.75 134.02 205.16 136.95 207.32 138.98C209.48 141.01 212.33 142.2 215.23 142.79C219.74 143.71 224.58 143.22 228.67 141.11C232.76 139 236.04 135.23 237.24 130.79C238.44 126.35 237.44 121.29 234.39 117.85" stroke="#F0F2DA" stroke-miterlimit="10"/>
<path d="M251.18 119.08C255.26 117.3 260.57 121.15 260.14 125.58C259.71 130.01 253.78 132.78 250.11 130.27C246.44 127.76 246.9 121.21 250.88 119.23C250.71 119.33 251.35 118.99 251.18 119.09V119.08Z" stroke="#F0F2DA" stroke-miterlimit="10"/>
<path d="M245.64 127.45C246.94 131.24 251.15 133.79 255.11 133.2C259.07 132.61 262.35 128.93 262.48 124.93C262.54 123.27 262.09 121.57 261.09 120.24C259.77 118.49 257.62 117.52 255.46 117.17C252.57 116.71 249.37 116.56 247.37 118.93C245.37 121.3 244.65 124.56 245.64 127.45Z" stroke="#F0F2DA" stroke-miterlimit="10"/>
</svg>
