<svg width="392" height="220" viewBox="0 0 392 220" fill="none" xmlns="http://www.w3.org/2000/svg">
<path d="M185.13 12.6801C184.2 79.7301 183.27 146.78 182.34 213.82" stroke="#F0F2DA" stroke-miterlimit="10"/>
<path d="M178.96 128.68C178.25 130.06 176.01 129.79 175.07 128.56C174.13 127.33 174.12 125.65 174.15 124.1C174.48 106.54 174.82 88.99 175.15 71.43C177.19 71.36 179.23 71.29 181.27 71.22" stroke="#F0F2DA" stroke-miterlimit="10"/>
<path d="M237.83 134.72C239.53 140.35 244.88 144.69 250.74 145.19C255.72 145.62 260.9 143.27 263.64 139.09C268.51 131.65 266.82 117.57 256.75 115.76C245.64 113.76 234.27 122.93 237.83 134.72V134.72Z" stroke="#F0F2DA" stroke-miterlimit="10"/>
<path d="M235.76 122.54C232.36 129.24 233.57 138 238.67 143.52C243.77 149.04 252.4 150.95 259.35 148.09C261.72 147.12 263.89 145.64 265.58 143.71C268.51 140.36 269.82 135.87 270.33 131.45C270.76 127.76 270.67 123.9 269.16 120.51C264.64 110.36 250 110.22 241.85 115.73C239.3 117.46 237.16 119.79 235.76 122.54V122.54Z" stroke="#F0F2DA" stroke-miterlimit="10"/>
<path d="M310.12 154.27C314.49 155.12 316.67 161.3 313.81 164.71C310.95 168.12 304.48 167.03 302.89 162.88C301.3 158.73 305.38 153.6 309.79 154.22C309.59 154.22 310.31 154.28 310.12 154.27V154.27Z" stroke="#F0F2DA" stroke-miterlimit="10"/>
<path d="M300.8 158.02C299.72 161.88 301.74 166.37 305.34 168.13C308.94 169.89 313.72 168.72 316.1 165.5C317.09 164.16 317.68 162.51 317.62 160.85C317.53 158.66 316.31 156.64 314.72 155.13C312.6 153.12 310.06 151.17 307.06 151.99C304.06 152.81 301.62 155.08 300.8 158.02Z" stroke="#F0F2DA" stroke-miterlimit="10"/>
<path d="M262.87 163.43C260.04 166.26 258.85 170.56 259.59 174.49C260.76 180.67 266.86 185.53 273.15 185.27C279.44 185.01 285.13 179.67 285.78 173.41C286.12 170.12 285.15 166.67 282.96 164.19C278.5 159.17 267.63 158.65 262.86 163.42L262.87 163.43Z" stroke="#F0F2DA" stroke-miterlimit="10"/>
<path d="M255.57 172.96C255.67 180.19 261.22 186.92 268.25 188.64C275.28 190.36 283.17 187.07 287.11 181C290.85 175.25 290.88 167.18 286.79 161.68C277.59 149.34 255.36 158.09 255.57 172.97V172.96Z" stroke="#F0F2DA" stroke-miterlimit="10"/>
</svg>
