<svg width="392" height="220" viewBox="0 0 392 220" fill="none" xmlns="http://www.w3.org/2000/svg">
<g clip-path="url(#clip0_741_1750)">
<path d="M185.13 12.6801C184.2 79.7301 183.27 146.78 182.34 213.82" stroke="#F0F2DA" stroke-miterlimit="10"/>
<path d="M178.96 128.68C178.25 130.06 176.01 129.79 175.07 128.56C174.13 127.33 174.12 125.65 174.15 124.1C174.48 106.54 174.82 88.99 175.15 71.43C177.19 71.36 179.23 71.29 181.27 71.22" stroke="#F0F2DA" stroke-miterlimit="10"/>
<path d="M279.82 143.43C276.31 148.15 276.01 155.03 279.09 160.04C281.71 164.29 286.69 167.06 291.67 166.77C300.54 166.26 310.85 156.51 306.32 147.34C301.31 137.22 287.17 133.55 279.82 143.42V143.43Z" stroke="#F0F2DA" stroke-miterlimit="10"/>
<path d="M288.38 134.52C280.97 135.78 274.66 141.97 273.26 149.35C271.86 156.73 275.47 164.8 281.9 168.69C284.09 170.01 286.57 170.88 289.13 171.08C293.57 171.44 297.95 169.82 301.81 167.6C305.03 165.75 308.08 163.38 309.91 160.14C315.37 150.47 306.77 138.62 297.49 135.36C294.59 134.34 291.43 134.01 288.39 134.52H288.38Z" stroke="#F0F2DA" stroke-miterlimit="10"/>
<path d="M370.75 188.14C375.12 188.99 377.3 195.17 374.44 198.58C371.58 201.99 365.11 200.9 363.52 196.75C361.93 192.6 366.01 187.47 370.42 188.09C370.22 188.09 370.94 188.15 370.75 188.14V188.14Z" stroke="#F0F2DA" stroke-miterlimit="10"/>
<path d="M361.44 191.89C360.36 195.75 362.38 200.24 365.98 202C369.58 203.76 374.36 202.59 376.74 199.37C377.73 198.03 378.32 196.38 378.26 194.72C378.17 192.53 376.95 190.51 375.36 189C373.24 186.99 370.7 185.04 367.7 185.86C364.7 186.68 362.26 188.95 361.44 191.89V191.89Z" stroke="#F0F2DA" stroke-miterlimit="10"/>
<path d="M312.93 201.86C310.1 204.69 308.91 208.99 309.65 212.92C310.82 219.1 316.92 223.96 323.21 223.7C329.5 223.44 335.19 218.1 335.84 211.84C336.18 208.55 335.21 205.1 333.02 202.62C328.56 197.6 317.69 197.08 312.92 201.85L312.93 201.86Z" stroke="#F0F2DA" stroke-miterlimit="10"/>
<path d="M305.63 211.4C305.73 218.63 311.28 225.36 318.31 227.08C325.34 228.8 333.23 225.51 337.17 219.44C340.91 213.69 340.94 205.62 336.85 200.12C327.65 187.78 305.42 196.53 305.63 211.41V211.4Z" stroke="#F0F2DA" stroke-miterlimit="10"/>
</g>
<defs>
<clipPath id="clip0_741_1750">
<rect width="392" height="220" fill="white"/>
</clipPath>
</defs>
</svg>
