<svg width="392" height="220" viewBox="0 0 392 220" fill="none" xmlns="http://www.w3.org/2000/svg">
<g clip-path="url(#clip0_741_1759)">
<path d="M184.79 12.6801C183.86 79.7301 182.93 146.78 182 213.82" stroke="#F0F2DA" stroke-miterlimit="10"/>
<path d="M178.817 128.68C178.107 130.06 175.867 129.79 174.927 128.56C173.987 127.33 173.977 125.65 174.007 124.1C174.337 106.54 174.677 88.99 175.007 71.43C177.047 71.36 179.087 71.29 181.127 71.22" stroke="#F0F2DA" stroke-miterlimit="10"/>
<path d="M322.9 156.36C317.02 156.46 311.38 160.42 309.3 165.92C307.53 170.59 308.37 176.22 311.64 180C317.46 186.72 331.47 188.94 335.97 179.75C340.93 169.61 335.21 156.16 322.9 156.37V156.36Z" stroke="#F0F2DA" stroke-miterlimit="10"/>
<path d="M335.18 157.7C329.66 152.6 320.91 151.37 314.21 154.77C307.51 158.17 303.31 165.95 304.16 173.41C304.45 175.95 305.28 178.45 306.67 180.59C309.09 184.32 313.05 186.81 317.17 188.51C320.6 189.93 324.34 190.9 328.02 190.37C339.02 188.79 343.15 174.75 340.07 165.41C339.11 162.49 337.45 159.79 335.18 157.69V157.7Z" stroke="#F0F2DA" stroke-miterlimit="10"/>
<path d="M393.05 203.08C397.42 203.93 399.6 210.11 396.74 213.52C393.88 216.93 387.41 215.84 385.82 211.69C384.23 207.54 388.31 202.41 392.72 203.03C392.52 203.03 393.24 203.09 393.05 203.08V203.08Z" stroke="#F0F2DA" stroke-miterlimit="10"/>
<path d="M383.74 206.83C382.66 210.69 384.68 215.18 388.28 216.94C391.88 218.7 396.66 217.53 399.04 214.31C400.03 212.97 400.62 211.32 400.56 209.66C400.47 207.47 399.25 205.45 397.66 203.94C395.54 201.93 393 199.98 390 200.8C387 201.62 384.56 203.89 383.74 206.83Z" stroke="#F0F2DA" stroke-miterlimit="10"/>
<path d="M330.09 220.18C327.26 223.01 326.07 227.31 326.81 231.24C327.98 237.42 334.08 242.28 340.37 242.02C346.66 241.76 352.35 236.42 353 230.16C353.34 226.87 352.37 223.42 350.18 220.94C345.72 215.92 334.85 215.4 330.08 220.17L330.09 220.18Z" stroke="#F0F2DA" stroke-miterlimit="10"/>
<path d="M322.79 229.72C322.89 236.95 328.44 243.68 335.47 245.4C342.5 247.12 350.39 243.83 354.33 237.76C358.07 232.01 358.1 223.94 354.01 218.44C344.81 206.1 322.58 214.85 322.79 229.73V229.72Z" stroke="#F0F2DA" stroke-miterlimit="10"/>
</g>
<defs>
<clipPath id="clip0_741_1759">
<rect width="392" height="220" fill="white"/>
</clipPath>
</defs>
</svg>
