<svg width="48" height="48" viewBox="0 0 48 48" fill="none" xmlns="http://www.w3.org/2000/svg">
<g clip-path="url(#clip0_8_167)">
<path fill-rule="evenodd" clip-rule="evenodd" d="M48 24C48 37.2548 37.2548 48 24 48C10.7452 48 0 37.2548 0 24C0 10.7452 10.7452 0 24 0C37.2548 0 48 10.7452 48 24ZM10 16C10 14.8954 10.8954 14 12 14H36C37.1046 14 38 14.8954 38 16V32C38 33.1046 37.1046 34 36 34H12C10.8954 34 10 33.1046 10 32V16ZM14 19C14.5523 19 15 18.5523 15 18C15 17.4477 14.5523 17 14 17C13.4477 17 13 17.4477 13 18C13 18.5523 13.4477 19 14 19ZM19 18C19 18.5523 18.5523 19 18 19C17.4477 19 17 18.5523 17 18C17 17.4477 17.4477 17 18 17C18.5523 17 19 17.4477 19 18ZM22 19C22.5523 19 23 18.5523 23 18C23 17.4477 22.5523 17 22 17C21.4477 17 21 17.4477 21 18C21 18.5523 21.4477 19 22 19Z" fill="white"/>
</g>
<defs>
<clipPath id="clip0_8_167">
<rect width="48" height="48" fill="white"/>
</clipPath>
</defs>
</svg>
