<svg width="48" height="48" viewBox="0 0 48 48" fill="none" xmlns="http://www.w3.org/2000/svg">
<g clip-path="url(#clip0_523_6332)">
<path d="M20.0826 21.7995C19.661 21.2935 19.0991 21.0074 18.5125 21.0002C18.0999 20.9947 17.6942 21.1319 17.341 21.3964C16.839 21.7696 16.4524 22.3409 16.2432 23.0188C15.9678 23.8181 15.9249 24.7113 16.1217 25.5455C16.3634 26.5819 16.8467 27.3813 17.6837 27.7928C18.0102 27.9622 18.3654 28.0293 18.7178 27.9883C19.0702 27.9472 19.409 27.7993 19.7044 27.5574C20.2924 27.0959 20.7152 26.3722 20.8855 25.5354C21.0135 24.9709 21.0345 24.3774 20.9469 23.8012C20.8435 23.0345 20.5398 22.3312 20.0826 21.7995Z" fill="white"/>
<path d="M30.5892 21.358C30.1071 21.0136 29.5363 20.9129 28.9958 21.0768C28.3992 21.2501 27.878 21.6976 27.5377 22.3288C27.2186 22.9117 27.0342 23.5914 27.0043 24.2946C26.9744 24.9978 27.1002 25.6978 27.3681 26.3189C27.7456 27.166 28.3009 27.7573 29.0983 27.9488C29.5563 28.0615 30.0315 27.9871 30.4525 27.737C31.0111 27.4071 31.4563 26.8412 31.7081 26.141C31.9802 25.4306 32.0649 24.6321 31.9502 23.8588C31.8011 22.788 31.3853 21.9137 30.5892 21.358Z" fill="white"/>
<path d="M24 4.781e-08C19.2532 5.72646e-08 14.613 1.40761 10.6662 4.04483C6.71935 6.68205 3.64321 10.4304 1.82676 14.8159C0.0102984 19.2015 -0.464893 24.0271 0.461275 28.6827C1.38744 33.3383 3.67337 37.6147 7.02998 40.9711C10.3866 44.3275 14.6631 46.6132 19.3188 47.539C23.9744 48.4649 28.8001 47.9894 33.1855 46.1727C37.5709 44.3559 41.319 41.2796 43.956 37.3326C46.593 33.3856 48.0003 28.7453 48 23.9985C48 20.8468 47.3792 17.726 46.1731 14.8143C44.9669 11.9026 43.1991 9.25694 40.9705 7.02846C38.7418 4.79997 36.0961 3.03229 33.1843 1.82634C30.2725 0.620393 27.1517 -0.000198882 24 4.781e-08ZM41.3456 31.283C40.866 31.8109 40.3469 32.3016 39.793 32.7508C39.1109 33.2963 38.3768 33.7733 37.6011 34.1747C36.7977 34.5924 35.9575 34.9352 35.0911 35.1987C34.6806 35.3244 34.2686 35.4441 33.8521 35.538C33.387 35.6425 32.9144 35.7334 32.4418 35.791C32.0404 35.8409 31.639 35.8909 31.23 35.9046C31.1943 35.9081 31.1583 35.9023 31.1255 35.8879C31.0933 35.8725 31.0656 35.849 31.0452 35.8197C30.665 35.3138 30.2878 34.8094 29.9 34.305C29.8304 34.2141 29.8682 34.1929 29.947 34.1656C30.3484 34.0247 30.7347 33.8733 31.1194 33.7112C31.6238 33.4885 32.1161 33.2401 32.5933 32.972C33.0422 32.7185 33.478 32.4425 33.899 32.1449C34.4035 31.7877 34.887 31.4018 35.3471 30.9891C35.6501 30.7241 35.9364 30.4302 36.2227 30.1409C36.3061 30.0743 36.3742 29.9906 36.4226 29.8955C36.5075 29.8637 36.5377 29.7879 36.5832 29.7243C36.547 29.7386 36.5132 29.7586 36.4832 29.7834C36.4529 29.8106 36.4075 29.8213 36.3923 29.8652C36.2684 29.9259 36.1541 30.0045 36.053 30.0985C35.2519 30.6519 34.4092 31.1426 33.5324 31.5663C32.8895 31.8799 32.229 32.156 31.5542 32.3933C30.7564 32.671 29.9419 32.8977 29.1154 33.0719C28.4731 33.2083 27.8238 33.3133 27.1674 33.387C26.6418 33.4476 26.1161 33.4961 25.5905 33.5203C24.8291 33.5627 24.0717 33.5748 23.3184 33.5567C22.6806 33.5415 22.0444 33.5112 21.4113 33.4446C20.6342 33.3628 19.8586 33.2552 19.0922 33.0992C18.458 32.9669 17.8329 32.8074 17.2169 32.6205C16.4714 32.3984 15.7412 32.1277 15.0311 31.8101C14.1762 31.4319 13.3514 30.9893 12.5635 30.4862C12.2015 30.2545 11.85 30.0045 11.491 29.7591C11.4804 29.7516 11.4729 29.7334 11.4426 29.7516C11.5638 29.8834 11.6758 30.0167 11.8001 30.1484C11.9849 30.3383 12.1732 30.5241 12.3651 30.7059C13.0299 31.3392 13.7503 31.9116 14.5176 32.416C15.2484 32.8946 16.0157 33.3149 16.8124 33.6733C17.2154 33.8551 17.6289 34.0156 18.0485 34.1611C18.1909 34.2111 18.1818 34.2111 18.0985 34.3307C17.741 34.7973 17.3875 35.2648 17.0381 35.7334C17.0033 35.7788 16.9685 35.8243 16.9321 35.8652C16.9202 35.8809 16.9046 35.8934 16.8867 35.9015C16.8691 35.9095 16.8499 35.9132 16.8306 35.9121C16.4277 35.8818 16.0157 35.85 15.6112 35.794C15.2977 35.7501 14.9841 35.7046 14.6721 35.6425C13.6607 35.4456 12.6698 35.155 11.7122 34.7745C10.9222 34.459 10.1618 34.0737 9.44005 33.6233C8.74212 33.1829 8.08871 32.6756 7.48903 32.1086C7.19971 31.8435 6.93462 31.5481 6.66045 31.2633C6.64817 31.254 6.63873 31.2414 6.63318 31.227C6.63016 31.2125 6.63016 31.1975 6.63318 31.183C6.67257 30.6847 6.70438 30.1863 6.75285 29.6895C6.79223 29.2835 6.82859 28.8776 6.87555 28.4777C6.94321 27.9061 7.01995 27.336 7.10579 26.7675C7.17093 26.3267 7.23909 25.8874 7.3224 25.4436C7.40572 24.9997 7.4966 24.5347 7.59052 24.0803C7.67534 23.6834 7.76017 23.2744 7.85863 22.8685C8.03586 22.1747 8.21763 21.4809 8.42667 20.7947C8.70236 19.8859 9.0149 18.9881 9.36431 18.1015C9.67332 17.3067 10.0177 16.5281 10.3974 15.7657C10.6735 15.2027 10.98 14.6551 11.3153 14.1252C11.3835 14.0325 11.4689 13.9538 11.5668 13.8935C12.9476 12.9243 14.4601 12.1576 16.0581 11.6168C16.7765 11.3733 17.5129 11.1864 18.2605 11.0578C18.5499 11.0078 18.8483 10.9806 19.1437 10.9351C19.1788 10.9265 19.2159 10.9308 19.2482 10.9472C19.2799 10.9637 19.3038 10.992 19.3148 11.026C19.4012 11.2108 19.4966 11.3895 19.589 11.5698C19.6269 11.6425 19.6284 11.6789 19.5299 11.7016C19.0164 11.8228 18.5059 11.9591 18.003 12.1227C17.348 12.3374 16.7075 12.594 16.0853 12.8907C15.39 13.2225 14.7224 13.6095 14.0889 14.048C13.5734 14.4008 13.0811 14.7864 12.615 15.2022C12.4783 15.3036 12.3515 15.4177 12.2363 15.543C12.4071 15.491 12.5713 15.4193 12.7256 15.3295C13.3315 15.0184 13.9414 14.7261 14.5554 14.4524C15.131 14.1999 15.7117 13.9662 16.2974 13.7511C16.8478 13.5542 17.4062 13.3774 17.9727 13.2209C18.4272 13.0982 18.8937 12.9982 19.3572 12.9028C19.9283 12.7846 20.5039 12.7013 21.081 12.6377C21.5143 12.5892 21.9505 12.5589 22.3837 12.5302C23.2305 12.4726 24.0773 12.4832 24.9301 12.4953C25.3845 12.4953 25.8389 12.5347 26.2812 12.5756C26.8175 12.6241 27.3537 12.6832 27.8899 12.7665C28.4262 12.8498 28.9609 12.9588 29.488 13.0815C29.9091 13.1825 30.3257 13.2946 30.7377 13.4178C31.3997 13.6178 32.0465 13.851 32.6842 14.1146C33.175 14.3176 33.6642 14.5266 34.1429 14.7584C34.667 15.0114 35.1911 15.2704 35.7167 15.5264C35.7467 15.5417 35.7801 15.549 35.8137 15.5476C35.7122 15.4567 35.6153 15.3628 35.5107 15.2764C35.0215 14.8614 34.5292 14.4509 33.996 14.0828C33.3863 13.653 32.7424 13.2741 32.0707 12.9498C31.398 12.6334 30.7059 12.3602 29.9985 12.1318C29.485 11.9712 28.9715 11.8288 28.4625 11.7016C28.3928 11.6834 28.3792 11.6622 28.4095 11.6031C28.511 11.4017 28.614 11.2047 28.7125 10.9972C28.7458 10.9275 28.7988 10.9306 28.8639 10.9381C29.132 10.97 29.3941 10.9942 29.6562 11.0336C30.1231 11.1079 30.5854 11.209 31.0407 11.3365C31.6762 11.5076 32.3005 11.7181 32.9099 11.9667C33.3446 12.1439 33.7733 12.3363 34.1914 12.5499C34.6377 12.7771 35.074 13.021 35.5001 13.2815C35.8606 13.5026 36.2136 13.7359 36.5605 13.9813C36.628 14.0318 36.6855 14.0945 36.7301 14.1661C37.0222 14.62 37.2907 15.0887 37.5345 15.5703C37.8298 16.1505 38.0964 16.7427 38.3524 17.3411C38.6554 18.053 38.9265 18.7801 39.181 19.5117C39.4491 20.2691 39.6809 21.0492 39.893 21.8308C40.1293 22.723 40.3474 23.6258 40.5322 24.5347C40.6837 25.2694 40.8109 26.0086 40.9185 26.7523C41.0093 27.3582 41.0957 27.9732 41.1623 28.5882C41.229 29.2032 41.2972 29.8379 41.3365 30.4681C41.3502 30.6998 41.382 30.9225 41.382 31.1633C41.3863 31.1838 41.3863 31.205 41.382 31.2254C41.3749 31.2474 41.3624 31.2672 41.3456 31.283Z" fill="white"/>
</g>
<defs>
<clipPath id="clip0_523_6332">
<rect width="48" height="48" fill="white"/>
</clipPath>
</defs>
</svg>
