<svg width="48" height="48" viewBox="0 0 48 48" fill="none" xmlns="http://www.w3.org/2000/svg">
<g clip-path="url(#clip0_8_150)">
<path d="M24 0C10.7445 0 0 10.7445 0 24C0 37.2555 10.746 48 24 48C37.2555 48 48 37.2555 48 24C48 10.7445 37.2555 0 24 0ZM27.1005 28.44C27.6 28.8735 27.9885 30.402 27.9885 31.104V37.32H24.441H20.889C20.889 37.32 20.8995 35.2125 20.889 33.768C16.029 34.8135 14.673 31.104 14.673 31.104C13.785 29.328 12.897 28.44 12.897 28.44C11.121 27.3855 12.897 27.552 12.897 27.552C14.673 27.552 15.561 29.328 15.561 29.328C17.1195 31.974 19.893 31.548 20.889 31.104C20.889 30.216 21.2775 28.8735 21.777 28.44C17.898 28.0035 14.67 25.776 14.67 21.336C14.67 16.896 15.561 16.008 16.449 15.12C16.269 14.682 15.5265 13.065 16.476 10.68C16.476 10.68 18.2205 10.68 19.9965 13.344C20.877 12.4635 23.5485 12.456 24.438 12.456C25.3245 12.456 27.9975 12.4635 28.8765 13.344C30.6525 10.68 32.4015 10.68 32.4015 10.68C33.351 13.065 32.6085 14.682 32.4285 15.12C33.3165 16.008 34.2045 16.896 34.2045 21.336C34.206 25.776 30.981 28.0035 27.1005 28.44Z" fill="red"/>
</g>
<defs>
<clipPath id="clip0_8_150">
<rect width="48" height="48" fill="white"/>
</clipPath>
</defs>
</svg>
