<svg width="48" height="48" viewBox="0 0 48 48" fill="none" xmlns="http://www.w3.org/2000/svg">
<g clip-path="url(#clip0_17_331)">
<path d="M48 24C48 37.2548 37.2548 48 24 48C10.7452 48 0 37.2548 0 24C0 10.7452 10.7452 0 24 0C37.2548 0 48 10.7452 48 24Z" fill="white"/>
<path d="M24.2465 12C17.4835 12 12 17.373 12 24C12 30.627 17.4835 36 24.2465 36C34.4589 36 36.7596 26.707 35.8016 22H34.4447H32.1313H24.2425V26H32.1372C31.2297 29.4483 28.0438 32 24.2425 32C19.7352 32 16.0808 28.418 16.0808 24C16.0808 19.582 19.7352 16 24.2425 16C26.2922 16 28.1593 16.7457 29.5927 17.9688L32.4919 15.1289C30.3148 13.1849 27.4225 12 24.2465 12Z" fill="black"/>
</g>
<defs>
<clipPath id="clip0_17_331">
<rect width="48" height="48" fill="white"/>
</clipPath>
</defs>
</svg>
