<svg width="48" height="48" viewBox="0 0 48 48" fill="none" xmlns="http://www.w3.org/2000/svg">
<g clip-path="url(#clip0_8_154)">
<path d="M24 0C10.7452 0 0 10.7452 0 24C0 37.2548 10.7452 48 24 48C37.2548 48 48 37.2548 48 24C48 10.7452 37.2548 0 24 0ZM17.197 35.875H11.8482V19.0925H17.197V35.875ZM14.5226 16.8945C13.9274 16.8945 13.3456 16.718 12.8507 16.3873C12.3558 16.0567 11.9701 15.5867 11.7423 15.0368C11.5146 14.4869 11.455 13.8818 11.5711 13.298C11.6872 12.7143 11.9738 12.178 12.3947 11.7572C12.8155 11.3363 13.3518 11.0497 13.9355 10.9336C14.5193 10.8175 15.1244 10.8771 15.6743 11.1048C16.2242 11.3326 16.6942 11.7183 17.0248 12.2132C17.3555 12.7081 17.532 13.2899 17.532 13.8851C17.532 14.6833 17.2149 15.4487 16.6506 16.0131C16.0862 16.5774 15.3208 16.8945 14.5226 16.8945ZM36.4875 35.875H31.2375V26.6986C31.2375 26.2324 31.3111 23.1409 28.6857 23.1409C28.2192 23.1293 27.7567 23.2304 27.3376 23.4356C26.9185 23.6409 26.555 23.9442 26.2781 24.3199C25.7959 24.9632 25.5384 25.7472 25.5452 26.5511V35.8747H20.3016V19.0925H25.2906V21.4478C26.4847 19.6159 27.9895 18.9453 29.4697 18.6754C32.0973 18.1963 36.487 19.7959 36.487 24.5723L36.4875 35.875Z" fill="white"/>
</g>
<defs>
<clipPath id="clip0_8_154">
<rect width="48" height="48" fill="white"/>
</clipPath>
</defs>
</svg>
