<svg width="48" height="48" viewBox="0 0 48 48" fill="none" xmlns="http://www.w3.org/2000/svg">
<g clip-path="url(#clip0_8_163)">
<path fill-rule="evenodd" clip-rule="evenodd" d="M24 48C37.2548 48 48 37.2548 48 24C48 10.7452 37.2548 0 24 0C10.7452 0 0 10.7452 0 24C0 37.2548 10.7452 48 24 48ZM10 16C10 14.8954 10.8954 14 12 14H36C37.1046 14 38 14.8954 38 16V32C38 33.1046 37.1046 34 36 34H12C10.8954 34 10 33.1046 10 32V16ZM23.6746 23.7455L15.8049 17H32.1951L24.3254 23.7455C24.1381 23.906 23.8619 23.906 23.6746 23.7455ZM26.2778 26.0232L35 18.547V31H13V18.547L21.7222 26.0232C23.0329 27.1467 24.9671 27.1467 26.2778 26.0232Z" fill="white"/>
</g>
<defs>
<clipPath id="clip0_8_163">
<rect width="48" height="48" fill="white"/>
</clipPath>
</defs>
</svg>
