<svg width="48" height="48" viewBox="0 0 48 48" fill="none" xmlns="http://www.w3.org/2000/svg">
<g clip-path="url(#clip0_8_158)">
<path d="M28.6406 31.5068C27.2629 32.4141 25.6495 32.8978 23.9999 32.8978C22.3503 32.8978 20.7369 32.4141 19.3593 31.5068C19.2998 31.4647 19.2326 31.435 19.1614 31.4194C19.0903 31.4039 19.0167 31.4028 18.9451 31.4162C18.8735 31.4296 18.8054 31.4572 18.7447 31.4975C18.684 31.5377 18.632 31.5897 18.5918 31.6505C18.5516 31.7112 18.524 31.7794 18.5107 31.851C18.4973 31.9226 18.4985 31.9961 18.5141 32.0673C18.5297 32.1384 18.5595 32.2057 18.6016 32.2651C18.6437 32.3245 18.6974 32.3748 18.7593 32.4131C20.3149 33.4382 22.137 33.9845 23.9999 33.9845C25.8629 33.9845 27.685 33.4382 29.2406 32.4131C29.3559 32.3315 29.4349 32.2082 29.4609 32.0693C29.487 31.9305 29.4579 31.7869 29.3799 31.6691C29.3019 31.5513 29.1811 31.4685 29.0431 31.4382C28.9051 31.4079 28.7607 31.4325 28.6406 31.5068Z" fill="white"/>
<path d="M18.9797 28.4837C20.1396 28.4837 21.0798 27.5434 21.0798 26.3836C21.0798 25.2237 20.1396 24.2835 18.9797 24.2835C17.8199 24.2835 16.8796 25.2237 16.8796 26.3836C16.8796 27.5434 17.8199 28.4837 18.9797 28.4837Z" fill="white"/>
<path d="M29.0203 28.4837C30.1801 28.4837 31.1204 27.5434 31.1204 26.3836C31.1204 25.2237 30.1801 24.2835 29.0203 24.2835C27.8604 24.2835 26.9202 25.2237 26.9202 26.3836C26.9202 27.5434 27.8604 28.4837 29.0203 28.4837Z" fill="white"/>
<path d="M24 0C10.7452 0 0 10.7452 0 24C0 37.2548 10.7452 48 24 48C37.2548 48 48 37.2548 48 24C48 10.7452 37.2548 0 24 0ZM36.4977 27.0359C36.5572 27.3794 36.5872 27.7273 36.5874 28.0759C36.5874 32.8842 30.9519 36.7822 24 36.7822C17.0481 36.7822 11.4126 32.8842 11.4126 28.0759C11.4128 27.7273 11.4428 27.3794 11.5023 27.0359C11.0792 26.8524 10.7021 26.5773 10.398 26.2306C10.094 25.8838 9.87061 25.474 9.74395 25.0306C9.61728 24.5871 9.59049 24.1211 9.66551 23.6661C9.74052 23.2111 9.91548 22.7784 10.1778 22.399C10.4401 22.0197 10.7832 21.7033 11.1825 21.4725C11.5817 21.2417 12.0272 21.1023 12.4868 21.0642C12.9464 21.0262 13.4087 21.0906 13.8404 21.2526C14.2722 21.4147 14.6626 21.6705 14.9837 22.0015C17.1456 20.4667 20.1192 19.4817 23.4253 19.379L25.0042 11.7639C25.041 11.5865 25.1465 11.4309 25.2977 11.3312C25.4489 11.2314 25.6335 11.1956 25.8111 11.2315L31.1148 12.3048C31.3692 11.8664 31.7712 11.5326 32.2489 11.3631C32.7267 11.1935 33.2491 11.1992 33.723 11.3791C34.1969 11.559 34.5915 11.9015 34.8363 12.3453C35.0812 12.7892 35.1604 13.3056 35.0598 13.8024C34.9592 14.2993 34.6854 14.7442 34.2872 15.0579C33.889 15.3716 33.3923 15.5336 32.8857 15.515C32.3791 15.4964 31.8956 15.2984 31.5215 14.9564C31.1473 14.6144 30.9068 14.1506 30.8429 13.6478L26.2074 12.7097L24.8227 19.3885C28.0294 19.5317 30.9087 20.5051 33.0164 22.0015C33.3375 21.6707 33.7279 21.415 34.1596 21.2531C34.5913 21.0912 35.0535 21.0269 35.513 21.065C35.9725 21.1031 36.4178 21.2425 36.817 21.4733C37.2161 21.7041 37.5591 22.0205 37.8214 22.3997C38.0836 22.7789 38.2585 23.2115 38.3336 23.6665C38.4086 24.1214 38.3819 24.5873 38.2553 25.0306C38.1287 25.474 37.9055 25.8837 37.6016 26.2305C37.2977 26.5772 36.9207 26.8523 36.4978 27.0359H36.4977Z" fill="white"/>
</g>
<defs>
<clipPath id="clip0_8_158">
<rect width="48" height="48" fill="white"/>
</clipPath>
</defs>
</svg>
