<svg width="48" height="48" viewBox="0 0 48 48" fill="none" xmlns="http://www.w3.org/2000/svg">
<g clip-path="url(#clip0_8_148)">
<path d="M24 0C10.7452 0 0 10.7452 0 24C0 37.2548 10.7452 48 24 48C37.2548 48 48 37.2548 48 24C48 10.7452 37.2548 0 24 0ZM36.4743 15.1815L32.2117 35.5312C32.1601 35.7774 32.0475 36.0066 31.8842 36.1979C31.7209 36.3891 31.5122 36.5363 31.2772 36.6258C31.0422 36.7154 30.7885 36.7444 30.5393 36.7103C30.2902 36.6762 30.0536 36.58 29.8513 36.4306L23.6511 31.8499L19.8947 35.3936C19.8455 35.44 19.7876 35.4761 19.7243 35.4999C19.661 35.5237 19.5936 35.5346 19.5261 35.532C19.4585 35.5294 19.3922 35.5135 19.3309 35.485C19.2696 35.4565 19.2146 35.416 19.1691 35.3661L19.0883 35.2774L19.741 28.961L31.5052 18.2124C31.5633 18.1594 31.5995 18.0864 31.6066 18.008C31.6136 17.9296 31.591 17.8513 31.5432 17.7888C31.4954 17.7262 31.4259 17.6838 31.3484 17.6699C31.2708 17.6561 31.1909 17.6718 31.1244 17.714L16.0795 27.2362L9.6 25.06C9.42771 25.0022 9.27755 24.8924 9.17013 24.7458C9.0627 24.5992 9.00326 24.4229 8.99998 24.2412C8.99669 24.0595 9.04971 23.8812 9.15177 23.7308C9.25383 23.5804 9.39992 23.4653 9.57 23.4012L34.9219 13.851C35.1174 13.7774 35.3292 13.7577 35.535 13.7939C35.7407 13.8302 35.933 13.921 36.0917 14.057C36.2503 14.193 36.3695 14.3691 36.4368 14.5669C36.5041 14.7647 36.5171 14.977 36.4743 15.1815Z" fill="white"/>
</g>
<defs>
<clipPath id="clip0_8_148">
<rect width="48" height="48" fill="white"/>
</clipPath>
</defs>
</svg>
