<svg width="48" height="48" viewBox="0 0 48 48" fill="none" xmlns="http://www.w3.org/2000/svg">
<g clip-path="url(#clip0_523_6337)">
<path d="M36.9803 13H15V31.2586H20.7085C20.8012 31.2586 20.8939 31.2586 21.0078 31.2709V35C21.107 34.914 21.1704 34.8618 21.2306 34.8049C22.4178 33.6838 23.6067 32.5656 24.7891 31.4383C24.851 31.3755 24.9268 31.3264 25.0112 31.2946C25.0955 31.2627 25.1863 31.2488 25.277 31.254C27.5539 31.254 29.8162 31.254 32.0866 31.254C32.1651 31.257 32.2434 31.2438 32.3159 31.2151C32.3884 31.1864 32.4533 31.1431 32.5062 31.0881C33.9417 29.7242 35.3826 28.3629 36.829 27.0042C36.8846 26.9578 36.9287 26.9005 36.9582 26.8363C36.9877 26.7721 37.0019 26.7025 36.9998 26.6325C36.9998 22.1631 36.9998 17.6942 36.9998 13.2258C36.9917 13.1597 36.9852 13.086 36.9803 13ZM24.9842 25.5942H22.3512C22.304 25.4253 22.2828 18.4677 22.33 18.0377H24.9842V25.5942ZM32.3191 25.5942H29.6649V18.0316H32.3191V25.5942Z" fill="white"/>
<path d="M24 4.781e-08C19.2532 5.72646e-08 14.613 1.40761 10.6662 4.04483C6.71935 6.68205 3.64321 10.4304 1.82676 14.8159C0.0102984 19.2015 -0.464893 24.0271 0.461275 28.6827C1.38744 33.3383 3.67337 37.6147 7.02998 40.9711C10.3866 44.3275 14.6631 46.6132 19.3188 47.539C23.9744 48.4649 28.8001 47.9894 33.1855 46.1727C37.5709 44.3559 41.319 41.2796 43.956 37.3326C46.593 33.3856 48.0003 28.7453 48 23.9985C48 20.8468 47.3792 17.726 46.1731 14.8143C44.9669 11.9026 43.1991 9.25694 40.9705 7.02846C38.7418 4.79997 36.0961 3.03229 33.1843 1.82634C30.2725 0.620393 27.1517 -0.000198882 24 4.781e-08ZM38.46 28.5943C36.0576 30.9917 33.6567 33.3921 31.2573 35.7955C31.2142 35.8399 31.1619 35.8743 31.104 35.8963C31.0462 35.9183 30.9842 35.9273 30.9225 35.9227C29.2017 35.9227 27.4825 35.9227 25.7632 35.9227C25.6902 35.9188 25.6173 35.9312 25.5497 35.959C25.4821 35.9867 25.4215 36.0292 25.3724 36.0833C24.2409 37.2254 23.1002 38.3555 21.9687 39.5006C21.9173 39.5574 21.854 39.602 21.7832 39.6313C21.7125 39.6607 21.6362 39.674 21.5597 39.6703C20.4873 39.6627 19.4148 39.6703 18.3423 39.6703H18.0636V35.9273H11.232V29.5274C11.232 25.1265 11.232 20.7261 11.232 16.3262C11.2299 16.1261 11.2648 15.9273 11.335 15.74C11.8955 14.26 12.4484 12.7756 13.0013 11.2926C13.0301 11.2169 13.0634 11.1411 13.0982 11.0593H38.5721C38.5721 11.1336 38.5857 11.1972 38.5857 11.2623C38.5857 16.9356 38.5857 22.6089 38.5857 28.2822C38.5886 28.3403 38.5788 28.3982 38.5571 28.4521C38.5354 28.5059 38.5023 28.5545 38.46 28.5943Z" fill="white"/>
</g>
<defs>
<clipPath id="clip0_523_6337">
<rect width="48" height="48" fill="white"/>
</clipPath>
</defs>
</svg>
