<svg width="48" height="48" viewBox="0 0 48 48" fill="none" xmlns="http://www.w3.org/2000/svg">
<g clip-path="url(#clip0_8_156)">
<path d="M24 0C10.7452 0 0 10.7452 0 24C0 37.2548 10.7452 48 24 48C37.2548 48 48 37.2548 48 24C48 10.7452 37.2548 0 24 0ZM34.492 18.6231C34.5202 20.4128 34.2832 29.3617 25.7898 33.2395C17.2963 37.1173 10.875 32.2851 10.875 32.2851C15.6259 32.7324 18.742 30.0478 18.742 30.0478C14.894 29.8838 13.7753 26.3042 13.7753 26.3042C15.1476 26.5429 16.0971 26.16 16.0971 26.16C11.8017 25.0069 11.911 20.8305 11.911 20.8305C13.134 21.5563 14.2079 21.427 14.2079 21.427C10.2307 18.5634 12.6648 14.2978 12.6648 14.2978C17.1392 19.8163 23.8417 19.9703 23.8417 19.9703C23.7466 19.5275 23.6997 19.0759 23.7017 18.6231C23.7017 15.0436 26.8556 13.2538 29.071 13.2538C31.2864 13.2538 32.9259 14.9242 32.9259 14.9242C34.6114 14.8492 36.4161 13.7012 36.4161 13.7012C35.7001 15.8788 34.1942 16.6842 34.1942 16.6842C35.5589 16.5351 37.1255 15.8489 37.1255 15.8489C36.5961 17.0123 34.492 18.6231 34.492 18.6231Z" fill="white"/>
</g>
<defs>
<clipPath id="clip0_8_156">
<rect width="48" height="48" fill="white"/>
</clipPath>
</defs>
</svg>
