<svg width="48" height="48" viewBox="0 0 48 48" fill="none" xmlns="http://www.w3.org/2000/svg">
<g clip-path="url(#clip0_523_6347)">
<path d="M23.9993 4.78115e-08C19.2523 5.72664e-08 14.612 1.40766 10.665 4.04496C6.7181 6.68227 3.64187 10.4308 1.82535 14.8164C0.00883386 19.2021 -0.466373 24.0279 0.459825 28.6836C1.38602 33.3394 3.67202 37.6159 7.02874 40.9724C10.3855 44.3289 14.6621 46.6146 19.3179 47.5405C23.9737 48.4664 28.7995 47.9909 33.185 46.1741C37.5706 44.3573 41.3189 41.2809 43.9559 37.3338C46.593 33.3867 48.0004 28.7462 48.0001 23.9992C48.0001 20.8475 47.3793 17.7266 46.1731 14.8148C44.9669 11.903 43.199 9.25724 40.9703 7.02868C38.7416 4.80012 36.0958 3.03238 33.1839 1.8264C30.272 0.620413 27.1511 -0.000198889 23.9993 4.78115e-08ZM38.7703 27.5545C38.746 28.8195 38.5844 30.0781 38.2886 31.3082C38.1018 32.078 37.6824 32.7714 37.0873 33.2942C36.499 33.8117 35.7619 34.1299 34.9817 34.203C32.2641 34.4804 29.5334 34.6109 26.8017 34.5939C23.813 34.5939 20.8242 34.5939 17.837 34.5242C16.1874 34.4863 14.5378 34.3333 12.8942 34.1834C11.2506 34.0334 9.97513 32.7746 9.60854 31.0371C9.33316 29.7373 9.18703 28.4135 9.17228 27.0849C9.1541 24.8915 9.16268 22.697 9.19803 20.5015C9.22715 19.2805 9.3794 18.0655 9.65247 16.8751C9.82356 16.0732 10.2434 15.3459 10.8522 14.7967C11.455 14.2522 12.2184 13.9183 13.0275 13.8454C16.6782 13.4501 20.341 13.4501 24.0054 13.4076C26.3624 13.4546 28.7195 13.4773 31.075 13.5591C32.4081 13.6061 33.7426 13.7288 35.0711 13.8621C36.7374 14.0333 37.9977 15.2542 38.3643 16.9705C38.7309 18.6868 38.8309 20.4303 38.8309 22.1754C38.8369 23.972 38.8167 25.765 38.7703 27.5545Z" fill="white"/>
<path d="M20.1682 28.724L29.5919 23.7251L20.1682 18.705V28.724Z" fill="white"/>
</g>
<defs>
<clipPath id="clip0_523_6347">
<rect width="48" height="48" fill="white"/>
</clipPath>
</defs>
</svg>
