<svg width="24" height="24" viewBox="0 0 480 480" fill="none" xmlns="http://www.w3.org/2000/svg">
<g clip-path="url(#clip0_5666_20752)">
<path d="M240 480C372.548 480 480 372.548 480 240C480 107.452 372.548 0 240 0C107.452 0 0 107.452 0 240C0 372.548 107.452 480 240 480Z" fill="#FCFF52"/>
<path fill-rule="evenodd" clip-rule="evenodd" d="M374.266 104.87H105.734V375.149H374.285V280.8H329.722C314.362 315.226 279.782 339.187 240.211 339.187C185.664 339.187 141.485 294.336 141.485 239.827C141.485 185.299 185.664 140.832 240.211 140.832C280.55 140.832 315.13 165.581 330.49 200.755H374.285V104.87H374.266Z" fill="black"/>
</g>
<defs>
<clipPath id="clip0_5666_20752">
<rect width="480" height="480" fill="white"/>
</clipPath>
</defs>
</svg>
