<svg width="114" height="20" viewBox="0 0 114 20" fill="none" xmlns="http://www.w3.org/2000/svg">
<path d="M0.133789 19.9883V0L13.4594 9.99417L0.133789 19.9883ZM13.4594 9.99417L26.7849 19.9883V0L13.4594 9.99417ZM47.6194 16.1339H45.3208L44.2964 12.521H40.0072L38.9828 16.1339H36.7807L40.7201 2.64679H43.6767L47.6178 16.1339H47.6194ZM43.8899 10.7437L42.2276 4.83052H42.0727L40.4103 10.7437H43.8883H43.8899ZM59.261 11.1502C59.261 12.8758 58.9128 14.1767 58.2182 15.0529C57.522 15.929 56.5892 16.3671 55.4165 16.3671C54.682 16.3671 54.0707 16.1956 53.5809 15.8558C53.0912 15.5143 52.6981 15.0412 52.4016 14.4349H52.285V20H50.1796V6.16307H52.285V7.86375H52.4016C52.6981 7.2591 53.0912 6.78438 53.5809 6.44291C54.0707 6.10144 54.682 5.93154 55.4165 5.93154C56.5892 5.93154 57.522 6.36962 58.2182 7.24577C58.9145 8.12193 59.261 9.42284 59.261 11.1485V11.1502ZM57.0389 10.339C57.0389 9.52778 56.8224 8.87649 56.391 8.38677C55.9596 7.89706 55.3449 7.6522 54.5454 7.6522C54.2356 7.6522 53.9457 7.69051 53.6759 7.7688C53.4061 7.84709 53.1662 7.96202 52.9613 8.11693C52.7548 8.27184 52.5915 8.46173 52.4683 8.6866C52.345 8.91147 52.285 9.17964 52.285 9.4878V12.8109C52.285 13.1207 52.3467 13.3872 52.4683 13.6121C52.5899 13.8369 52.7548 14.0268 52.9613 14.1817C53.1679 14.3366 53.4061 14.4516 53.6759 14.5299C53.9457 14.6081 54.2356 14.6465 54.5454 14.6465C55.3433 14.6465 55.9596 14.4016 56.391 13.9119C56.8224 13.4222 57.0389 12.7725 57.0389 11.9597V10.3373V10.339ZM61.6979 16.1356H70.3928V14.4166H67.2047V6.16307H61.6979V7.88207H65.0992V14.4133H61.6979V16.1323V16.1356ZM67.273 4.02099C67.4862 3.80278 67.5911 3.53127 67.5911 3.20979V2.80336C67.5911 2.48189 67.4845 2.21038 67.273 1.99217C67.0598 1.77397 66.6833 1.66403 66.142 1.66403C65.6006 1.66403 65.2441 1.77397 65.0309 1.99217C64.8177 2.21204 64.7128 2.48189 64.7128 2.80336V3.20979C64.7128 3.53127 64.8194 3.80278 65.0309 4.02099C65.2441 4.24086 65.6206 4.34913 66.1619 4.34913C66.7033 4.34913 67.0598 4.23919 67.273 4.02099ZM72.4566 16.1356H81.1715V14.4166H77.8668V1.8356H72.4566V3.55459H75.7613V14.4133H72.4566V16.1323V16.1356ZM83.2337 16.1356H91.9486V14.4166H88.6438V1.8356H83.2337V3.55459H86.5384V14.4133H83.2337V16.1323V16.1356ZM102.726 11.1502C102.726 11.9497 102.616 12.6709 102.397 13.3139C102.178 13.9585 101.866 14.5049 101.46 14.9563C101.053 15.4077 100.559 15.7558 99.9722 15.999C99.3859 16.2439 98.7263 16.3655 97.9917 16.3655C97.2571 16.3655 96.5975 16.2422 96.0112 15.999C95.4249 15.7541 94.9285 15.406 94.5237 14.9563C94.1173 14.5049 93.8058 13.9585 93.5859 13.3139C93.3661 12.6693 93.2578 11.948 93.2578 11.1502C93.2578 10.3523 93.3677 9.63105 93.5859 8.98642C93.8042 8.3418 94.1173 7.79545 94.5237 7.34405C94.9302 6.89265 95.4249 6.54618 96.0112 6.30132C96.5975 6.05647 97.2571 5.93487 97.9917 5.93487C98.7263 5.93487 99.3859 6.05813 99.9722 6.30132C100.559 6.54618 101.055 6.89431 101.46 7.34405C101.866 7.79545 102.178 8.3418 102.397 8.98642C102.616 9.63105 102.726 10.3523 102.726 11.1502ZM100.524 10.3973C100.524 9.46948 100.295 8.77155 99.8373 8.30016C99.3792 7.83043 98.7646 7.59557 97.9917 7.59557C97.2188 7.59557 96.6042 7.83043 96.1461 8.30016C95.6881 8.76988 95.4599 9.46948 95.4599 10.3973V11.9047C95.4599 12.8325 95.6881 13.5304 96.1461 14.0018C96.6025 14.4716 97.2188 14.7064 97.9917 14.7064C98.7646 14.7064 99.3792 14.4716 99.8373 14.0018C100.294 13.5321 100.524 12.8325 100.524 11.9047V10.3973ZM107.528 16.1356V9.3712C107.528 9.08803 107.589 8.83651 107.711 8.61831C107.833 8.4001 107.998 8.21854 108.204 8.07696C108.411 7.93537 108.642 7.82877 108.9 7.75881C109.159 7.68885 109.422 7.6522 109.693 7.6522C111.071 7.6522 111.76 8.44507 111.76 10.0291V16.1356H113.866V9.71766C113.866 8.5067 113.556 7.57225 112.938 6.91597C112.32 6.25968 111.509 5.92987 110.503 5.92987C110.09 5.92987 109.73 5.98151 109.42 6.08478C109.11 6.18806 108.84 6.32631 108.609 6.49954C108.377 6.67277 108.181 6.87932 108.019 7.11751C107.858 7.35571 107.726 7.6039 107.623 7.86208H107.526V6.16141H105.421V16.1323H107.526L107.528 16.1356Z" fill="#EEEEEE"/>
</svg>
