<svg width="24" height="24" viewBox="0 0 480 480" fill="none" xmlns="http://www.w3.org/2000/svg">
<g clip-path="url(#clip0_5666_20799)">
<path d="M43.3921 145.92V334.08C43.3921 346.176 49.7281 357.12 60.2881 363.264L223.296 457.344C233.664 463.296 246.528 463.296 256.896 457.344L419.904 363.264C430.272 357.312 436.8 346.176 436.8 334.08V145.92C436.8 133.824 430.464 122.88 419.904 116.736L256.896 22.656C246.528 16.704 233.664 16.704 223.296 22.656L60.2881 116.736C49.9201 122.688 43.5841 133.824 43.5841 145.92H43.3921Z" fill="#213147"/>
<path d="M275.52 276.48L252.288 340.224C251.712 341.952 251.712 343.872 252.288 345.792L292.224 455.424L338.496 428.736L283.008 276.48C281.664 273.024 276.864 273.024 275.52 276.48Z" fill="#12AAFF"/>
<path d="M322.176 169.344C320.832 165.888 316.032 165.888 314.688 169.344L291.456 233.088C290.88 234.816 290.88 236.736 291.456 238.656L356.928 418.176L403.2 391.488L322.176 169.536V169.344Z" fill="#12AAFF"/>
<path d="M240 29.76C241.152 29.76 242.304 30.144 243.264 30.72L419.52 132.48C421.632 133.632 422.784 135.936 422.784 138.24V341.76C422.784 344.064 421.44 346.368 419.52 347.52L243.264 449.28C242.304 449.856 241.152 450.24 240 450.24C238.848 450.24 237.696 449.856 236.736 449.28L60.4802 347.52C58.3682 346.368 57.2162 344.064 57.2162 341.76V138.048C57.2162 135.744 58.5602 133.44 60.4802 132.288L236.736 30.528C237.696 29.952 238.848 29.568 240 29.568V29.76ZM240 0C233.664 0 227.52 1.536 221.76 4.8L45.5042 106.56C34.1762 113.088 27.2642 124.992 27.2642 138.048V341.568C27.2642 354.624 34.1762 366.528 45.5042 373.056L221.76 474.816C227.328 478.08 233.664 479.616 240 479.616C246.336 479.616 252.48 478.08 258.24 474.816L434.496 373.056C445.824 366.528 452.736 354.624 452.736 341.568V138.048C452.736 124.992 445.824 113.088 434.496 106.56L258.048 4.8C252.48 1.536 246.144 0 239.808 0H240Z" fill="#9DCCED"/>
<path d="M123.264 418.368L139.584 373.824L172.224 400.896L141.696 428.928L123.264 418.368Z" fill="#213147"/>
<path d="M225.024 123.648H180.288C177.024 123.648 173.952 125.76 172.8 128.832L76.9922 391.488L123.264 418.176L228.864 128.832C229.824 126.144 227.904 123.456 225.216 123.456L225.024 123.648Z" fill="white"/>
<path d="M303.36 123.648H258.624C255.36 123.648 252.288 125.76 251.136 128.832L141.696 428.736L187.968 455.424L307.008 128.832C307.968 126.144 306.048 123.456 303.36 123.456V123.648Z" fill="white"/>
</g>
<defs>
<clipPath id="clip0_5666_20799">
<rect width="480" height="480" fill="white"/>
</clipPath>
</defs>
</svg>
