<svg width="24" height="25" viewBox="0 0 24 25" fill="none" xmlns="http://www.w3.org/2000/svg">
<path d="M21.9768 11.3215C21.602 5.8116 16.8316 1.64866 11.3215 2.02345C8.57669 2.21014 6.16661 3.48814 4.48479 5.40454L4.48011 5.40115C4.46878 5.41683 4.45819 5.4323 4.44694 5.44797C2.77634 7.37373 1.83676 9.93432 2.02344 12.6788C2.04122 12.9403 2.07201 13.1976 2.1092 13.4528C2.10922 13.4528 2.10922 13.4528 2.10923 13.4529C2.1109 13.4644 2.11261 13.4759 2.11423 13.4874C2.13938 13.6558 2.16857 13.8226 2.20189 13.9878C2.20191 13.9879 2.20192 13.988 2.20194 13.9881C2.20255 13.9911 2.20313 13.9941 2.20372 13.9971C2.23405 14.1468 2.26774 14.295 2.3046 14.4421L2.30467 14.4424C2.3047 14.4425 2.30473 14.4426 2.30476 14.4427C3.45965 19.0485 7.77489 22.3104 12.6788 21.9768C18.1887 21.6021 22.3516 16.8315 21.9768 11.3215ZM19.8001 11.4696C19.8463 12.1479 19.8036 12.8122 19.6828 13.4512C19.6813 13.4475 19.6801 13.4436 19.6786 13.44V13.44C18.9536 11.6679 17.5196 10.3885 16.2584 9.68178C16.5137 6.67906 15.495 5.41404 14.342 5.20821C14.3107 5.20218 14.2792 5.19703 14.2471 5.19306C13.3321 5.0757 12.4953 5.72249 12.3781 6.63748C12.2607 7.55252 12.9075 8.38934 13.8225 8.50674C13.9023 8.51684 13.9812 8.51965 14.0594 8.51842C14.0645 8.61978 14.0677 8.72743 14.0686 8.84003C13.0026 8.57587 12.006 8.52416 11.0975 8.60585C10.7577 8.6285 10.4177 8.6713 10.0796 8.7345C10.193 7.72056 10.5734 6.58223 11.3115 5.74918C12.0251 4.94388 13.086 4.48232 14.2432 4.60076C14.4626 4.62321 14.6967 4.67708 14.9075 4.74785C14.9171 4.75111 14.9275 4.75386 14.937 4.75719C14.9371 4.757 14.9373 4.75675 14.9375 4.75655C17.618 5.84855 19.5908 8.39255 19.8001 11.4696ZM12.8301 12.997C12.8294 12.9981 12.8286 12.9992 12.8279 13.0003C12.5893 13.3444 12.3055 13.6838 11.9723 14.012C11.473 13.4806 11.0718 12.9084 10.7675 12.3165C10.7519 12.2848 10.7352 12.2546 10.72 12.2224C10.7194 12.2212 10.7189 12.22 10.7183 12.2188C10.5395 11.8399 10.3875 11.4243 10.2698 10.9716C10.9804 10.8044 11.6773 10.7429 12.3428 10.7753C12.378 10.7777 12.4125 10.7783 12.448 10.7813C12.4493 10.7813 12.4506 10.7815 12.452 10.7815C12.8688 10.8161 13.304 10.8921 13.7542 11.0162C13.5437 11.7149 13.2486 12.3489 12.8879 12.9088C12.8682 12.9382 12.8504 12.9677 12.8301 12.997ZM9.41304 4.62399C9.41118 4.6264 9.40911 4.62867 9.40724 4.63109C8.23562 6.14421 7.84447 8.02471 7.86256 9.46998C5.13469 10.7503 4.54852 12.265 4.94674 13.3663C4.95717 13.3964 4.9685 13.4264 4.98107 13.4561C5.33696 14.3072 6.3155 14.7085 7.16651 14.3525C8.01764 13.9966 8.41894 13.0181 8.06314 12.167C8.03197 12.0928 7.99493 12.023 7.95477 11.9559C8.04098 11.9002 8.13356 11.843 8.23187 11.7853C8.53611 12.8408 8.98617 13.7336 9.51131 14.4797C9.70045 14.7621 9.90705 15.0345 10.1303 15.2953C9.19544 15.7042 8.01916 15.9441 6.92841 15.7213C5.87422 15.506 4.94406 14.8181 4.468 13.7566C4.37776 13.5554 4.30739 13.3258 4.26329 13.1079C4.23616 12.9175 4.21343 12.7256 4.20017 12.5307C3.95651 8.94857 6.17891 5.75954 9.41304 4.62399ZM12.5307 19.8001C10.4035 19.9448 8.41509 19.2193 6.91229 17.9296C8.8085 18.1876 10.6326 17.5861 11.8752 16.8478C14.349 18.5714 15.9544 18.3219 16.7093 17.4262C16.7302 17.402 16.7504 17.3773 16.7699 17.3515C17.3291 16.6177 17.1874 15.5697 16.4535 15.0107C15.7197 14.4514 14.6717 14.5933 14.1125 15.3269C14.0638 15.391 14.0219 15.4579 13.9839 15.5263C13.8932 15.4798 13.7979 15.4285 13.6994 15.3727C14.4621 14.5811 15.0055 13.7434 15.3893 12.9151C15.5396 12.6096 15.6725 12.2937 15.7869 11.9692C16.6089 12.5744 17.4056 13.4736 17.7582 14.5301C18.0988 15.5507 17.9681 16.7003 17.2869 17.6433C17.1578 17.822 16.994 17.9978 16.8274 18.145C16.825 18.1471 16.8226 18.1494 16.8202 18.1516C15.6284 19.0883 14.1538 19.6897 12.5307 19.8001Z" fill="url(#paint0_linear_5561_20136)"/>
<path style="mix-blend-mode:overlay" opacity="0.9" d="M14.342 5.20814C14.3107 5.2021 14.2792 5.19695 14.2471 5.19298C14.0852 5.17222 13.926 5.1765 13.7726 5.20083C14.7292 5.72126 15.4267 7.17131 15.06 10.0316C14.9386 10.979 14.6568 11.8805 14.2501 12.7077C13.9204 13.419 13.472 14.1371 12.8691 14.8272C13.1587 15.0443 13.4409 15.226 13.6994 15.3726C14.4621 14.581 15.0055 13.7433 15.3893 12.915C15.7961 12.0878 16.0778 11.1863 16.1993 10.239C16.6359 6.83325 15.564 5.42628 14.342 5.20814Z" fill="url(#paint1_radial_5561_20136)"/>
<path d="M15.06 10.0317C15.4267 7.1714 14.7292 5.72136 13.7726 5.20093C13.7352 5.20685 13.6986 5.21481 13.662 5.22321C14.5986 5.76159 15.2724 7.21028 14.9107 10.0317C14.7892 10.9791 14.5076 11.8806 14.1008 12.7078C13.7821 13.3956 13.3511 14.0895 12.7781 14.7585C12.8086 14.7821 12.8389 14.8045 12.8691 14.8273C13.472 14.1372 13.9205 13.4191 14.2501 12.7078C14.6568 11.8806 14.9386 10.9791 15.06 10.0317Z" fill="white"/>
<path style="mix-blend-mode:overlay" opacity="0.5" d="M11.4239 16.519C11.334 16.4505 11.2475 16.3788 11.1609 16.3071C9.74919 16.8961 7.79213 17.2654 5.84888 16.8145C6.16709 17.2201 6.52222 17.5946 6.9123 17.9294C8.80851 18.1875 10.6326 17.5859 11.8752 16.8477C11.7278 16.7449 11.5776 16.6361 11.4239 16.519Z" fill="url(#paint2_radial_5561_20136)"/>
<path style="mix-blend-mode:overlay" opacity="0.6" d="M11.1609 16.3072C11.1177 16.2713 11.0742 16.2358 11.0318 16.1992C9.60931 16.7676 7.64336 17.1074 5.70447 16.6242C5.75171 16.6884 5.79974 16.7519 5.84886 16.8145C7.79212 17.2654 9.74918 16.8962 11.1609 16.3072Z" fill="url(#paint3_linear_5561_20136)"/>
<path style="mix-blend-mode:overlay" opacity="0.9" d="M4.9472 13.368C4.95763 13.3981 4.96896 13.428 4.98153 13.4577C5.04451 13.6083 5.1278 13.7441 5.22561 13.8648C5.19799 12.7761 6.10503 11.447 8.7655 10.3344C9.64665 9.96594 10.5682 9.75914 11.488 9.6978C12.2688 9.6276 13.115 9.65694 14.014 9.83401C14.0572 9.47474 14.0735 9.1394 14.0712 8.84226C13.0043 8.57758 12.0071 8.5258 11.0979 8.60754C10.1781 8.66886 9.25651 8.87566 8.37539 9.24413C5.20768 10.5689 4.52514 12.2006 4.9472 13.368Z" fill="url(#paint4_radial_5561_20136)"/>
<path d="M8.76548 10.3345C6.10501 11.4471 5.19796 12.7761 5.22559 13.8648C5.24939 13.8942 5.27461 13.922 5.30018 13.9494C5.29815 12.8692 6.21581 11.5613 8.84008 10.4638C9.72123 10.0953 10.6428 9.88851 11.5627 9.82717C12.3176 9.7593 13.1341 9.78557 13.9999 9.94731C14.0051 9.90911 14.0094 9.87164 14.014 9.83404C13.1149 9.65704 12.2688 9.62763 11.488 9.69784C10.5682 9.75917 9.64663 9.96597 8.76548 10.3345Z" fill="white"/>
<path style="mix-blend-mode:overlay" opacity="0.4" d="M16.2018 10.2398C16.1874 10.3518 16.1686 10.4626 16.1498 10.5735C17.3657 11.5015 18.6641 13.0118 19.2452 14.9201C19.4374 14.4418 19.5842 13.9469 19.679 13.4417C18.9544 11.6705 17.5215 10.3915 16.2607 9.68457C16.2455 9.86371 16.2264 10.0481 16.2018 10.2398Z" fill="url(#paint5_radial_5561_20136)"/>
<path style="mix-blend-mode:overlay" opacity="0.5" d="M16.1498 10.5735C16.1404 10.6288 16.1314 10.6843 16.1208 10.7393C17.3244 11.6869 18.6017 13.2196 19.1526 15.1404C19.1846 15.0674 19.2156 14.994 19.2452 14.9202C18.6641 13.0118 17.3657 11.5016 16.1498 10.5735Z" fill="url(#paint6_linear_5561_20136)"/>
<path style="mix-blend-mode:overlay" opacity="0.9" d="M16.7104 17.424C16.7314 17.3998 16.7516 17.3751 16.771 17.3493C16.87 17.2195 16.9458 17.0795 17.0015 16.9344C16.0725 17.5027 14.468 17.3817 12.1742 15.6339C11.4145 15.0551 10.7746 14.3604 10.2616 13.5945C9.8104 12.9534 9.4128 12.2059 9.11652 11.3389C8.78379 11.481 8.48522 11.6346 8.22906 11.7852C8.5333 12.8414 8.98706 13.731 9.51246 14.4774C10.0255 15.2434 10.6653 15.9381 11.425 16.5169C14.1561 18.5979 15.9106 18.3731 16.7104 17.424Z" fill="url(#paint7_radial_5561_20136)"/>
<path d="M12.1742 15.6337C14.468 17.3815 16.0725 17.5025 17.0015 16.9342C17.015 16.8989 17.0265 16.8631 17.0375 16.8273C16.103 17.3691 14.5115 17.2284 12.2488 15.5045C11.4892 14.9256 10.8493 14.2309 10.3363 13.465C9.89999 12.8451 9.51459 12.1249 9.22165 11.2942C9.18605 11.3088 9.15138 11.3238 9.11652 11.3387C9.41279 12.2057 9.81039 12.9531 10.2616 13.5943C10.7746 14.3602 11.4145 15.0549 12.1742 15.6337Z" fill="white"/>
<path style="mix-blend-mode:overlay" opacity="0.3" d="M8.37397 9.24121C8.47825 9.19761 8.58361 9.15855 8.68896 9.11948C8.8847 7.60234 9.54344 5.7228 10.9056 4.26538C10.3953 4.33816 9.89331 4.45843 9.4083 4.62887C8.23673 6.142 7.8456 8.0225 7.86369 9.46775C8.02646 9.39142 8.19571 9.31575 8.37397 9.24121Z" fill="url(#paint8_radial_5561_20136)"/>
<path style="mix-blend-mode:overlay" opacity="0.4" d="M8.68896 9.11937C8.74163 9.09984 8.7941 9.0799 8.84703 9.06144C9.0659 7.54535 9.75465 5.67287 11.1426 4.23535C11.0634 4.24419 10.9844 4.25405 10.9056 4.26527C9.54344 5.7227 8.8847 7.60223 8.68896 9.11937Z" fill="url(#paint9_linear_5561_20136)"/>
<path style="mix-blend-mode:multiply" opacity="0.4" d="M11.3215 2.02358C8.57669 2.21028 6.16662 3.48828 4.48479 5.40468C4.47209 5.41916 4.45946 5.43368 4.44684 5.44823L4.44694 5.4481C4.77437 5.77288 5.84446 6.41331 6.27817 6.68036C7.12973 5.76455 8.20026 5.04995 9.41304 4.62413C9.49778 4.51498 9.58558 4.4073 9.67858 4.30234C10.8081 3.0277 12.3508 2.35397 14.1399 2.35397C14.3391 2.35397 14.7447 2.38567 14.7534 2.38631C13.6687 2.07469 12.5127 1.94256 11.3215 2.02358Z" fill="url(#paint10_linear_5561_20136)"/>
<path style="mix-blend-mode:multiply" opacity="0.4" d="M12.5307 19.8001C10.4035 19.9448 8.41511 19.2193 6.9123 17.9296L6.91228 17.9295C6.77241 17.9105 6.63222 17.8877 6.4918 17.859C4.82313 17.518 3.46837 16.519 2.57378 14.9695C2.47421 14.7971 2.38511 14.6213 2.30481 14.4429C3.45974 19.0485 7.77496 22.3105 12.6788 21.9768C12.7005 21.4719 12.5516 20.3002 12.5307 19.8001Z" fill="url(#paint11_linear_5561_20136)"/>
<path style="mix-blend-mode:multiply" opacity="0.4" d="M21.9768 11.3214C21.6696 11.2899 20.1691 11.4084 19.8001 11.4695C19.8462 12.1478 19.8036 12.812 19.6828 13.451C19.7346 13.5781 19.7836 13.7072 19.8278 13.8393C20.3669 15.4548 20.179 17.1277 19.2844 18.6772C19.1867 18.8464 19.0812 19.0085 18.9692 19.1646C18.967 19.1675 18.9646 19.1709 18.9628 19.1734C18.9627 19.1735 18.9674 19.1695 18.97 19.1671C21.0011 17.191 22.1842 14.3702 21.9768 11.3214Z" fill="url(#paint12_linear_5561_20136)"/>
<path style="mix-blend-mode:multiply" opacity="0.5" d="M14.2432 4.60074C14.4626 4.62319 14.6967 4.67705 14.9074 4.74783C14.9171 4.75108 14.9274 4.75383 14.937 4.75716C14.9371 4.75698 14.9373 4.75672 14.9374 4.75653C15.8001 5.10795 16.5888 5.61045 17.2697 6.232C17.2711 6.23322 17.2726 6.23422 17.2741 6.23544C17.6022 5.86029 18.234 5.44807 18.234 5.44807C18.234 5.44807 17.2665 4.45844 15.7869 4.15132C14.751 3.93631 12.4146 3.7279 10.941 6.23544C10.941 6.23544 10.9469 6.22992 10.9555 6.22196C11.0645 6.0572 11.1804 5.89706 11.3115 5.74914C12.0251 4.94386 13.0859 4.48228 14.2432 4.60074Z" fill="url(#paint13_linear_5561_20136)"/>
<path style="mix-blend-mode:multiply" opacity="0.5" d="M17.2866 17.6425C17.1575 17.8212 16.9938 17.997 16.8272 18.1441C16.8195 18.1509 16.812 18.1584 16.8043 18.1651C16.8044 18.1653 16.8045 18.1656 16.8046 18.1658C16.069 18.7371 15.2394 19.1689 14.3607 19.4478C14.3589 19.4485 14.3573 19.4492 14.3555 19.4499C14.5163 19.9216 14.5575 20.6749 14.5575 20.6749C14.5575 20.6749 15.8982 20.3319 16.904 19.204C17.6082 18.4144 18.9569 16.4952 17.522 13.9653C17.522 13.9653 17.5239 13.9732 17.5265 13.9846C17.6146 14.1614 17.6954 14.3418 17.758 14.5293C18.0986 15.5499 17.9679 16.6994 17.2866 17.6425Z" fill="url(#paint14_linear_5561_20136)"/>
<path style="mix-blend-mode:multiply" opacity="0.5" d="M4.47149 13.7594C4.38123 13.5582 4.31083 13.3286 4.26675 13.1107C4.26472 13.1007 4.26196 13.0904 4.26006 13.0804C4.25983 13.0804 4.25951 13.0804 4.25928 13.0804C4.1323 12.1575 4.17312 11.2233 4.37098 10.3228C4.3713 10.321 4.37143 10.3192 4.37175 10.3173C3.8828 10.2207 3.2099 9.87964 3.2099 9.87964C3.2099 9.87964 2.83658 11.2123 3.31044 12.6473C3.64218 13.6519 4.6299 15.7795 7.53827 15.8019C7.53827 15.8019 7.53055 15.7995 7.51934 15.7961C7.32216 15.7841 7.12553 15.7637 6.9319 15.7242C5.8777 15.5089 4.94754 14.8209 4.47149 13.7594Z" fill="url(#paint15_linear_5561_20136)"/>
<path style="mix-blend-mode:multiply" opacity="0.6" d="M13.8225 8.50688C13.9023 8.51698 13.9812 8.51979 14.0594 8.51856C14.0594 8.51856 14.0072 7.47951 13.8796 6.94641C13.752 6.41331 13.5639 6.06027 13.3572 5.86046C13.2091 5.71732 12.7416 5.53905 12.3781 6.63762C12.2607 7.55266 12.9075 8.38947 13.8225 8.50688Z" fill="url(#paint16_linear_5561_20136)"/>
<path style="mix-blend-mode:multiply" opacity="0.5" d="M8.06357 12.1686C8.03239 12.0944 7.99535 12.0246 7.95519 11.9575C7.95519 11.9575 7.08146 12.5223 6.68357 12.8993C6.28569 13.2763 6.07404 13.6158 6.00436 13.8947C5.95443 14.0946 6.03378 14.5886 7.16694 14.3541C8.01807 13.9982 8.41937 13.0197 8.06357 12.1686Z" fill="url(#paint17_linear_5561_20136)"/>
<path style="mix-blend-mode:multiply" opacity="0.6" d="M14.1138 15.3241C14.0652 15.3882 14.0233 15.4551 13.9852 15.5235C13.9852 15.5235 14.9112 15.9978 15.4367 16.1538C15.9621 16.3099 16.362 16.3234 16.6384 16.2444C16.8364 16.1877 17.2245 15.872 16.4549 15.0079C15.7211 14.4487 14.673 14.5904 14.1138 15.3241Z" fill="url(#paint18_linear_5561_20136)"/>
<path style="mix-blend-mode:multiply" opacity="0.3" d="M13.7542 11.0161C13.5437 11.7148 13.2486 12.3488 12.8879 12.9087C12.8682 12.9381 12.8504 12.9676 12.8301 12.9969C12.8294 12.998 12.8286 12.9991 12.8279 13.0002C12.5893 13.3443 12.3055 13.6837 11.9724 14.0119C12.2013 14.2554 12.4489 14.4912 12.7208 14.715C13.0622 14.9844 13.3968 15.201 13.6994 15.3726C14.4621 14.581 15.0055 13.7433 15.3893 12.915C15.5396 12.6095 15.6725 12.2936 15.7869 11.9691C15.4351 11.7101 15.0787 11.5041 14.7503 11.3641C14.4107 11.2193 14.0786 11.1056 13.7542 11.0161Z" fill="url(#paint19_linear_5561_20136)"/>
<path style="mix-blend-mode:multiply" opacity="0.3" d="M6.9123 17.9296C8.80851 18.1877 10.6326 17.5861 11.8752 16.8478C11.7278 16.745 11.5776 16.6363 11.4239 16.5192C10.9443 16.1537 10.5127 15.7419 10.1303 15.2953C9.19545 15.7042 8.01917 15.9441 6.92843 15.7213C5.87423 15.506 4.94408 14.8181 4.46802 13.7566C4.37777 13.5554 4.30741 13.3258 4.26331 13.1079C4.5388 15.041 5.51428 16.7298 6.9123 17.9296Z" fill="url(#paint20_linear_5561_20136)"/>
<path style="mix-blend-mode:multiply" opacity="0.3" d="M11.9723 14.0121C11.473 13.4807 11.0719 12.9085 10.7675 12.3166C10.7519 12.2848 10.7352 12.2547 10.72 12.2224C10.7194 12.2213 10.7189 12.2201 10.7183 12.2189C10.5395 11.84 10.3875 11.4244 10.2698 10.9717C9.94512 11.0481 9.61785 11.1444 9.28891 11.2677C8.8857 11.4283 8.53137 11.6094 8.23187 11.7854C8.53611 12.8408 8.98617 13.7337 9.51131 14.4797C9.70045 14.7621 9.90705 15.0346 10.1303 15.2953C10.5312 15.1201 10.8884 14.9141 11.1742 14.6995C11.4689 14.4781 11.733 14.2479 11.9723 14.0121Z" fill="url(#paint21_linear_5561_20136)"/>
<path style="mix-blend-mode:multiply" opacity="0.3" d="M9.40721 4.63099C8.23559 6.14411 7.84444 8.02461 7.86253 9.46987C8.02591 9.39321 8.1959 9.31721 8.3749 9.24234C8.93054 9.01 9.50235 8.84227 10.0796 8.7344C10.193 7.72046 10.5734 6.58213 11.3115 5.74907C12.025 4.94378 13.0859 4.48221 14.2432 4.60066C14.4626 4.62311 14.6967 4.67698 14.9074 4.74775C14.9172 4.75101 14.9274 4.75376 14.937 4.75709C14.9371 4.7569 14.9373 4.75665 14.9374 4.75645C13.8713 4.32212 12.6935 4.11683 11.4696 4.20008C10.7508 4.24898 10.062 4.39603 9.41301 4.62389C9.41121 4.6263 9.40908 4.62858 9.40721 4.63099Z" fill="url(#paint22_linear_5561_20136)"/>
<path style="mix-blend-mode:multiply" opacity="0.3" d="M19.6786 13.4398C18.9536 11.6677 17.5196 10.3884 16.2584 9.68164C16.2431 9.86138 16.2239 10.0465 16.1993 10.2389C16.1227 10.8363 15.9821 11.4153 15.7869 11.9691C16.6089 12.5743 17.4056 13.4734 17.7582 14.53C18.0988 15.5506 17.9681 16.7001 17.2869 17.6432C17.1577 17.8219 16.994 17.9977 16.8273 18.1448C16.8249 18.147 16.8225 18.1492 16.8201 18.1514C18.2884 16.9975 19.3267 15.3345 19.6828 13.451C19.6813 13.4474 19.6801 13.4435 19.6786 13.4399V13.4398Z" fill="url(#paint23_linear_5561_20136)"/>
<path style="mix-blend-mode:multiply" opacity="0.3" d="M10.0736 9.93709C10.118 10.3028 10.1853 10.6465 10.2698 10.9716C10.9804 10.8044 11.6773 10.7429 12.3427 10.7753C12.378 10.7776 12.4125 10.7783 12.448 10.7812C12.4493 10.7813 12.4506 10.7814 12.452 10.7815C12.8688 10.816 13.304 10.892 13.7542 11.0162C13.8505 10.6966 13.9308 10.3647 13.9885 10.018C14.0512 9.58688 14.0714 9.18828 14.0686 8.84001C13.0026 8.57584 12.006 8.52414 11.0975 8.60582C10.7577 8.62847 10.4177 8.67127 10.0796 8.73447C10.0309 9.16948 10.0306 9.58202 10.0736 9.93709Z" fill="url(#paint24_linear_5561_20136)"/>
<defs>
<linearGradient id="paint0_linear_5561_20136" x1="5.17563" y1="18.8251" x2="17.9274" y2="6.07327" gradientUnits="userSpaceOnUse">
<stop offset="0.001139" stop-color="#E6007A"/>
<stop offset="0.207149" stop-color="#703AC2"/>
<stop offset="0.456011" stop-color="#0070EB"/>
<stop offset="0.768132" stop-color="#0297FB"/>
<stop offset="1" stop-color="#0AE2FF"/>
</linearGradient>
<radialGradient id="paint1_radial_5561_20136" cx="0" cy="0" r="1" gradientUnits="userSpaceOnUse" gradientTransform="translate(14.8506 9.97583) scale(3.80225 3.80225)">
<stop stop-color="white"/>
<stop offset="1" stop-color="white" stop-opacity="0"/>
</radialGradient>
<radialGradient id="paint2_radial_5561_20136" cx="0" cy="0" r="1" gradientUnits="userSpaceOnUse" gradientTransform="translate(9.23039 17.0294) scale(2.21218)">
<stop stop-color="white"/>
<stop offset="1" stop-color="white" stop-opacity="0"/>
</radialGradient>
<linearGradient id="paint3_linear_5561_20136" x1="5.91056" y1="16.6552" x2="8.04296" y2="16.6256" gradientUnits="userSpaceOnUse">
<stop stop-color="white" stop-opacity="0"/>
<stop offset="1" stop-color="white"/>
</linearGradient>
<radialGradient id="paint4_radial_5561_20136" cx="0" cy="0" r="1" gradientUnits="userSpaceOnUse" gradientTransform="translate(8.82184 10.5437) rotate(-120) scale(3.80225)">
<stop stop-color="white"/>
<stop offset="1" stop-color="white" stop-opacity="0"/>
</radialGradient>
<radialGradient id="paint5_radial_5561_20136" cx="0" cy="0" r="1" gradientUnits="userSpaceOnUse" gradientTransform="translate(17.7406 11.8841) rotate(-120) scale(2.21218)">
<stop stop-color="white"/>
<stop offset="1" stop-color="white" stop-opacity="0"/>
</radialGradient>
<linearGradient id="paint6_linear_5561_20136" x1="19.0764" y1="14.9464" x2="17.9846" y2="13.1145" gradientUnits="userSpaceOnUse">
<stop stop-color="white" stop-opacity="0"/>
<stop offset="1" stop-color="white"/>
</linearGradient>
<radialGradient id="paint7_radial_5561_20136" cx="0" cy="0" r="1" gradientUnits="userSpaceOnUse" gradientTransform="translate(12.1477 15.3047) rotate(120) scale(3.80225)">
<stop stop-color="white"/>
<stop offset="1" stop-color="white" stop-opacity="0"/>
</radialGradient>
<radialGradient id="paint8_radial_5561_20136" cx="0" cy="0" r="1" gradientUnits="userSpaceOnUse" gradientTransform="translate(9.0287 7.0864) rotate(120) scale(2.21218)">
<stop stop-color="white"/>
<stop offset="1" stop-color="white" stop-opacity="0"/>
</radialGradient>
<linearGradient id="paint9_linear_5561_20136" x1="11.0127" y1="4.39833" x2="9.97212" y2="6.25985" gradientUnits="userSpaceOnUse">
<stop stop-color="white" stop-opacity="0"/>
<stop offset="1" stop-color="white"/>
</linearGradient>
<linearGradient id="paint10_linear_5561_20136" x1="11.4763" y1="3.45225" x2="8.21841" y2="4.39998" gradientUnits="userSpaceOnUse">
<stop stop-color="#231F20"/>
<stop offset="1" stop-color="white"/>
</linearGradient>
<linearGradient id="paint11_linear_5561_20136" x1="5.31959" y1="15.8773" x2="8.04432" y2="18.7205" gradientUnits="userSpaceOnUse">
<stop stop-color="#231F20"/>
<stop offset="1" stop-color="white"/>
</linearGradient>
<linearGradient id="paint12_linear_5561_20136" x1="19.9433" y1="15.4486" x2="20.891" y2="12.5659" gradientUnits="userSpaceOnUse">
<stop stop-color="#231F20"/>
<stop offset="1" stop-color="white"/>
</linearGradient>
<linearGradient id="paint13_linear_5561_20136" x1="12.9607" y1="5.10056" x2="17.3285" y2="6.10067" gradientUnits="userSpaceOnUse">
<stop stop-color="#231F20"/>
<stop offset="1" stop-color="white"/>
</linearGradient>
<linearGradient id="paint14_linear_5561_20136" x1="17.495" y1="16.2818" x2="14.4451" y2="19.5644" gradientUnits="userSpaceOnUse">
<stop stop-color="#231F20"/>
<stop offset="1" stop-color="white"/>
</linearGradient>
<linearGradient id="paint15_linear_5561_20136" x1="5.54562" y1="14.6202" x2="4.22782" y2="10.3376" gradientUnits="userSpaceOnUse">
<stop stop-color="#231F20"/>
<stop offset="1" stop-color="white"/>
</linearGradient>
<linearGradient id="paint16_linear_5561_20136" x1="13.9156" y1="6.71171" x2="12.5335" y2="8.09382" gradientUnits="userSpaceOnUse">
<stop stop-color="#231F20"/>
<stop offset="1" stop-color="white"/>
</linearGradient>
<linearGradient id="paint17_linear_5561_20136" x1="6.46234" y1="12.9855" x2="8.35034" y2="13.4914" gradientUnits="userSpaceOnUse">
<stop stop-color="#231F20"/>
<stop offset="1" stop-color="white"/>
</linearGradient>
<linearGradient id="paint18_linear_5561_20136" x1="15.622" y1="16.3024" x2="15.116" y2="14.4143" gradientUnits="userSpaceOnUse">
<stop stop-color="#231F20"/>
<stop offset="1" stop-color="white"/>
</linearGradient>
<linearGradient id="paint19_linear_5561_20136" x1="12.7482" y1="14.6236" x2="13.5774" y2="13.4783" gradientUnits="userSpaceOnUse">
<stop stop-color="#231F20"/>
<stop offset="1" stop-color="white"/>
</linearGradient>
<linearGradient id="paint20_linear_5561_20136" x1="9.89273" y1="14.1279" x2="8.23421" y2="14.9176" gradientUnits="userSpaceOnUse">
<stop stop-color="#231F20"/>
<stop offset="1" stop-color="white"/>
</linearGradient>
<linearGradient id="paint21_linear_5561_20136" x1="9.29091" y1="11.3672" x2="9.80425" y2="12.4333" gradientUnits="userSpaceOnUse">
<stop stop-color="#231F20"/>
<stop offset="1" stop-color="white"/>
</linearGradient>
<linearGradient id="paint22_linear_5561_20136" x1="11.679" y1="8.07411" x2="11.3236" y2="6.84996" gradientUnits="userSpaceOnUse">
<stop stop-color="#231F20"/>
<stop offset="1" stop-color="white"/>
</linearGradient>
<linearGradient id="paint23_linear_5561_20136" x1="15.5093" y1="13.6788" x2="16.5361" y2="13.9158" gradientUnits="userSpaceOnUse">
<stop stop-color="#231F20"/>
<stop offset="1" stop-color="white"/>
</linearGradient>
<linearGradient id="paint24_linear_5561_20136" x1="13.898" y1="10.2106" x2="12.595" y2="9.97369" gradientUnits="userSpaceOnUse">
<stop stop-color="#231F20"/>
<stop offset="1" stop-color="white"/>
</linearGradient>
</defs>
</svg>
