<svg width="179" height="40" viewBox="0 0 179 40" fill="none" xmlns="http://www.w3.org/2000/svg">
<g clip-path="url(#clip0_8_134)">
<path d="M68.8016 33.3708C67.8653 33.3708 67.0039 33.221 66.2548 32.9214C65.5057 32.6217 64.944 32.1723 64.532 31.6105C64.12 31.0487 63.8953 30.3371 63.8953 29.5131C63.8953 28.5768 64.1574 27.8277 64.6443 27.2659C65.1687 26.6667 65.8428 26.2547 66.6668 25.9176C67.4908 25.618 68.4271 25.3933 69.4009 25.3184C70.8241 25.1685 71.8353 25.0562 72.3597 24.9438C72.9215 24.8315 73.1836 24.6442 73.1836 24.3446C73.1836 24.3446 73.1836 24.3446 73.1836 24.3071C73.1836 23.8202 72.9589 23.4457 72.472 23.1461C72.0226 22.8839 71.3484 22.7341 70.5245 22.7341C69.6631 22.7341 68.9889 22.8839 68.502 23.221C68.0526 23.5206 67.7904 24.0075 67.7904 24.6817H64.0451C64.0451 23.633 64.3447 22.7341 64.9065 22.0225C65.4683 21.3109 66.2548 20.7491 67.2286 20.3745C68.2024 20 69.2885 19.8127 70.5245 19.8127C71.6855 19.8127 72.7342 20 73.708 20.3371C74.6818 20.6742 75.4683 21.1985 76.0675 21.9101C76.6668 22.6217 76.9664 23.4832 76.9664 24.5693C76.9664 24.7566 76.9664 24.9064 76.9664 25.0936C76.9664 25.2435 76.9664 25.4307 76.9664 25.618V30.2247C76.9664 30.5618 76.9664 30.8989 77.0039 31.1985C77.0413 31.4981 77.0788 31.7978 77.1537 32.0225C77.2286 32.3221 77.341 32.5468 77.4533 32.7341C77.5657 32.9214 77.678 33.0712 77.7529 33.1461H74.0076C73.9327 33.0712 73.8578 32.9588 73.7454 32.7715C73.6331 32.5843 73.5207 32.397 73.4458 32.1348C73.3335 31.8352 73.2586 31.573 73.2211 31.2734C73.1837 30.9738 73.1462 30.6367 73.1462 30.2622L73.9327 30.7865C73.708 31.3109 73.3335 31.7978 72.8091 32.1723C72.2848 32.5468 71.6855 32.8465 70.9739 33.0712C70.3747 33.2584 69.6256 33.3708 68.8016 33.3708ZM69.8129 30.5244C70.4121 30.5244 70.9739 30.412 71.4983 30.1873C72.0226 29.9626 72.4346 29.6255 72.7717 29.176C73.1087 28.7266 73.2586 28.0899 73.2586 27.3408V26.03L74.1949 26.9663C73.6705 27.1536 73.0338 27.3408 72.3222 27.4532C71.6106 27.5656 70.899 27.6779 70.1874 27.7528C69.3634 27.8277 68.7267 27.9775 68.3147 28.1648C67.9027 28.3521 67.678 28.6892 67.678 29.176C67.678 29.6255 67.8653 29.9626 68.2024 30.1873C68.6144 30.412 69.1387 30.5244 69.8129 30.5244Z" fill="#16161A"/>
<path d="M85.4308 33.3334C84.4945 33.3334 83.7454 33.1836 83.1462 32.884C82.5469 32.5843 82.06 32.1723 81.723 31.6854C81.3859 31.1611 81.1237 30.5993 81.0113 30.0001C80.8615 29.3634 80.7866 28.7641 80.7866 28.0899C80.7866 27.7903 80.7866 27.4907 80.7866 27.1536C80.7866 26.8165 80.7866 26.4795 80.7866 26.1424V20.0375H84.6068V25.5431C84.6068 25.8053 84.6068 26.1049 84.6068 26.3671C84.6068 26.6293 84.6068 26.854 84.6068 27.0787C84.6068 27.6405 84.6818 28.1274 84.7941 28.5768C84.9065 29.0263 85.1312 29.4008 85.4683 29.7004C85.8053 29.9626 86.2922 30.1124 86.8915 30.1124C87.4907 30.1124 88.0151 29.9251 88.4271 29.5881C88.8391 29.251 89.1761 28.8016 89.4009 28.2772C89.6256 27.7529 89.7379 27.1911 89.7379 26.6293L90.8241 27.4907C90.8241 28.3147 90.7117 29.0637 90.4495 29.7753C90.1874 30.4869 89.8503 31.0862 89.4009 31.6105C88.9514 32.1349 88.3896 32.5469 87.7155 32.8465C87.0039 33.1836 86.2548 33.3334 85.4308 33.3334ZM89.7005 33.1087V20.0375H93.5207V33.0712H89.7005V33.1087Z" fill="#16161A"/>
<path d="M103.783 33.3708C103.296 33.3708 102.772 33.3334 102.247 33.2585C101.723 33.1836 101.236 32.9963 100.787 32.7341C100.337 32.472 99.9626 32.0974 99.7005 31.6105C99.4383 31.1236 99.2885 30.4495 99.2885 29.6255C99.2885 29.4382 99.2885 29.251 99.2885 29.0637C99.2885 28.8764 99.2885 28.6892 99.2885 28.5019V22.9963H96.2922V20.0375H97.1537C97.6405 20.0375 98.0525 20 98.3147 19.9626C98.5769 19.9251 98.839 19.8128 98.9514 19.663C99.1012 19.5131 99.1761 19.2135 99.2136 18.8764C99.251 18.5019 99.2885 18.015 99.2885 17.3783V15.7304H103.109V20.0375H106.891V22.9963H103.109V27.6779C103.109 27.8278 103.109 27.9776 103.109 28.0899C103.109 28.2397 103.109 28.3521 103.109 28.5019C103.109 29.0637 103.184 29.5132 103.296 29.8877C103.446 30.2248 103.783 30.412 104.307 30.412C104.569 30.412 104.832 30.3746 105.094 30.3371C105.318 30.2997 105.506 30.2248 105.656 30.1873V33.0337C105.468 33.1087 105.244 33.1836 104.944 33.221C104.569 33.3334 104.195 33.3708 103.783 33.3708Z" fill="#16161A"/>
<path d="M110.075 33.1086V13.8952H113.895V33.1086H110.075ZM119.288 33.1086V28.4644C119.288 28.3146 119.288 28.0899 119.288 27.7903C119.288 27.4907 119.288 27.2285 119.288 26.9289C119.288 26.6292 119.288 26.4045 119.288 26.2173C119.288 25.206 119.101 24.457 118.764 23.8952C118.39 23.3334 117.753 23.0712 116.779 23.0712C116.142 23.0712 115.618 23.1835 115.206 23.4457C114.794 23.7079 114.457 24.045 114.232 24.4944C114.008 24.9438 113.895 25.4682 113.895 26.0674L112.772 25.3184C112.772 24.2322 112.996 23.2585 113.483 22.4345C113.933 21.6105 114.607 20.9738 115.431 20.4869C116.255 20.0375 117.191 19.7753 118.277 19.7753C119.888 19.7753 121.086 20.2622 121.873 21.1985C122.659 22.1349 123.071 23.4457 123.071 25.1311C123.071 25.5431 123.071 26.0674 123.071 26.6667C123.071 27.2659 123.071 27.9401 123.071 28.7266V33.0712H119.288V33.1086Z" fill="#16161A"/>
<path d="M133.184 33.3708C132.697 33.3708 132.173 33.3334 131.648 33.2585C131.124 33.1836 130.637 32.9963 130.187 32.7341C129.738 32.472 129.364 32.0974 129.101 31.6105C128.839 31.1236 128.689 30.4495 128.689 29.6255C128.689 29.4382 128.689 29.251 128.689 29.0637C128.689 28.8764 128.689 28.6892 128.689 28.5019V22.9963H125.693V20.0375H126.555C127.041 20.0375 127.453 20 127.716 19.9626C127.978 19.9251 128.24 19.8128 128.352 19.663C128.502 19.5131 128.577 19.2135 128.614 18.8764C128.652 18.5019 128.689 18.015 128.689 17.3783V15.7304H132.51V20.0375H136.292V22.9963H132.51V27.6779C132.51 27.8278 132.51 27.9776 132.51 28.0899C132.51 28.2397 132.51 28.3521 132.51 28.5019C132.51 29.0637 132.584 29.5132 132.697 29.8877C132.847 30.2248 133.184 30.412 133.708 30.412C133.97 30.412 134.232 30.3746 134.495 30.3371C134.719 30.2997 134.907 30.2248 135.056 30.1873V33.0337C134.869 33.1087 134.644 33.1836 134.345 33.221C133.97 33.3334 133.633 33.3708 133.184 33.3708Z" fill="#16161A"/>
<path d="M139.513 33.1086V20.0375H143.333V24.5319L142.547 24.045C142.622 23.4457 142.809 22.8465 143.034 22.3596C143.259 21.8352 143.596 21.3858 143.97 21.0113C144.345 20.6367 144.794 20.3371 145.318 20.1124C145.843 19.8877 146.442 19.7753 147.116 19.7753C147.641 19.7753 148.053 19.8128 148.352 19.8877C148.652 19.9626 148.839 20.0375 148.914 20.0749L148.277 23.4832C148.202 23.4457 148.053 23.3708 147.79 23.2959C147.528 23.221 147.191 23.1461 146.817 23.1461C146.142 23.1461 145.618 23.2584 145.169 23.4832C144.719 23.7079 144.382 24.0075 144.12 24.3446C143.858 24.7191 143.67 25.0936 143.558 25.5431C143.446 25.9925 143.371 26.442 143.371 26.8914V33.0337H139.513V33.1086Z" fill="#16161A"/>
<path d="M155.131 33.3708C154.195 33.3708 153.333 33.221 152.584 32.9214C151.835 32.6217 151.274 32.1723 150.862 31.6105C150.45 31.0487 150.225 30.3371 150.225 29.5131C150.225 28.5768 150.487 27.8277 150.974 27.2659C151.498 26.6667 152.172 26.2547 152.996 25.9176C153.82 25.618 154.757 25.3933 155.73 25.3184C157.154 25.1685 158.165 25.0562 158.689 24.9438C159.251 24.8315 159.513 24.6442 159.513 24.3446C159.513 24.3446 159.513 24.3446 159.513 24.3071C159.513 23.8202 159.289 23.4457 158.802 23.1461C158.352 22.8839 157.678 22.7341 156.854 22.7341C155.993 22.7341 155.318 22.8839 154.832 23.221C154.382 23.5206 154.12 24.0075 154.12 24.6817H150.375C150.375 23.633 150.674 22.7341 151.236 22.0225C151.798 21.3109 152.584 20.7491 153.558 20.3745C154.532 20 155.618 19.8127 156.854 19.8127C158.015 19.8127 159.064 20 160.038 20.3371C161.011 20.6742 161.798 21.1985 162.397 21.9101C162.996 22.6217 163.296 23.4832 163.296 24.5693C163.296 24.7566 163.296 24.9064 163.296 25.0936C163.296 25.2435 163.296 25.4307 163.296 25.618V30.2247C163.296 30.5618 163.296 30.8989 163.333 31.1985C163.371 31.4981 163.408 31.7978 163.483 32.0225C163.558 32.3221 163.671 32.5468 163.783 32.7341C163.895 32.9214 164.008 33.0712 164.083 33.1461H160.337C160.262 33.0712 160.187 32.9588 160.075 32.7715C159.963 32.5843 159.85 32.397 159.775 32.1348C159.663 31.8352 159.588 31.573 159.551 31.2734C159.513 30.9738 159.476 30.6367 159.476 30.2622L160.262 30.7865C160.038 31.3109 159.663 31.7978 159.139 32.1723C158.614 32.5468 158.015 32.8465 157.304 33.0712C156.667 33.2584 155.918 33.3708 155.131 33.3708ZM156.142 30.5244C156.742 30.5244 157.304 30.412 157.828 30.1873C158.352 29.9626 158.764 29.6255 159.101 29.176C159.438 28.7266 159.588 28.0899 159.588 27.3408V26.03L160.524 26.9663C160 27.1536 159.363 27.3408 158.652 27.4532C157.94 27.5656 157.229 27.6779 156.517 27.7528C155.693 27.8277 155.056 27.9775 154.644 28.1648C154.232 28.3521 154.008 28.6892 154.008 29.176C154.008 29.6255 154.195 29.9626 154.532 30.1873C154.907 30.412 155.431 30.5244 156.142 30.5244Z" fill="#16161A"/>
<path d="M169.064 17.9026C168.464 17.9026 167.978 17.7528 167.528 17.4532C167.079 17.1536 166.854 16.7041 166.854 16.1423C166.854 15.5805 167.079 15.1311 167.528 14.8315C167.978 14.5318 168.464 14.382 169.064 14.382C169.663 14.382 170.187 14.5318 170.637 14.8315C171.086 15.1311 171.311 15.5805 171.311 16.1423C171.311 16.7041 171.086 17.1536 170.637 17.4532C170.187 17.7528 169.663 17.9026 169.064 17.9026ZM167.191 33.1086V20.0374H170.974V33.0712H167.191V33.1086Z" fill="#16161A"/>
<path d="M178.802 13.8952V33.1086H175.056V13.8952H178.802Z" fill="#16161A"/>
<path d="M26.1049 20.412L45.6929 40L52.2097 33.4457L32.6592 13.8577L40 6.51685L33.4457 0L0 33.4457L6.51685 40L26.1049 20.412Z" fill="#7F5AF0"/>
</g>
<defs>
<clipPath id="clip0_8_134">
<rect width="178.801" height="40" fill="white"/>
</clipPath>
</defs>
</svg>
