<svg width="24" height="24" viewBox="0 0 479 480" fill="none" xmlns="http://www.w3.org/2000/svg">
<g clip-path="url(#clip0_5666_20757)">
<path d="M387.216 82.3405H91.4658V351.702H387.216V82.3405Z" fill="white"/>
<path fill-rule="evenodd" clip-rule="evenodd" d="M478.84 240C478.84 372.373 371.685 479.681 239.5 479.681C107.316 479.681 0.15918 372.373 0.15918 240C0.15918 107.628 107.316 0.319092 239.5 0.319092C371.685 0.319092 478.84 107.628 478.84 240ZM171.678 335.381H125.228C115.468 335.381 110.647 335.381 107.707 333.498C104.532 331.436 102.592 328.021 102.356 324.252C102.18 320.78 104.591 316.539 109.412 308.06L224.101 105.617C228.981 97.0209 231.451 92.7226 234.567 91.1329C237.918 89.4255 241.916 89.4255 245.268 91.1329C248.384 92.7226 250.854 97.0209 255.734 105.617L279.311 146.834L279.431 147.044C284.702 156.266 287.375 160.943 288.542 165.852C289.836 171.21 289.836 176.862 288.542 182.221C287.366 187.166 284.721 191.877 279.37 201.239L219.127 307.884L218.971 308.157C213.665 317.455 210.976 322.168 207.25 325.723C203.193 329.611 198.313 332.435 192.962 334.028C188.082 335.381 182.614 335.381 171.678 335.381ZM288.977 335.381H355.534C365.353 335.381 370.293 335.381 373.234 333.44C376.408 331.379 378.407 327.903 378.585 324.137C378.754 320.777 376.396 316.701 371.775 308.715C371.615 308.443 371.456 308.166 371.293 307.885L337.955 250.771L337.575 250.128C332.89 242.195 330.526 238.188 327.489 236.64C324.139 234.932 320.197 234.932 316.847 236.64C313.789 238.23 311.32 242.41 306.44 250.83L273.22 307.944L273.106 308.14C268.243 316.547 265.813 320.748 265.988 324.195C266.223 327.964 268.163 331.436 271.338 333.498C274.22 335.381 279.158 335.381 288.977 335.381Z" fill="#E84142"/>
</g>
<defs>
<clipPath id="clip0_5666_20757">
<rect width="479" height="480" fill="white"/>
</clipPath>
</defs>
</svg>
