<svg width="24" height="24" viewBox="0 0 24 24" fill="none" xmlns="http://www.w3.org/2000/svg">
<g clip-path="url(#clip0_6113_27747)">
<path d="M20 22H4C2.89543 22 2 21.1046 2 20V4C2 2.89543 2.89543 2 4 2H20C21.1046 2 22 2.89543 22 4V20C22 21.1046 21.1046 22 20 22Z" fill="#0052FF"/>
<path fill-rule="evenodd" clip-rule="evenodd" d="M4.96875 12C4.96875 8.11674 8.11674 4.96875 12 4.96875C15.8833 4.96875 19.0312 8.11674 19.0312 12C19.0312 15.8833 15.8833 19.0312 12 19.0312C8.11674 19.0312 4.96875 15.8833 4.96875 12ZM10.2031 14.2656C9.94424 14.2656 9.73438 14.0558 9.73438 13.7969V10.2031C9.73438 9.94424 9.94424 9.73438 10.2031 9.73438H13.7969C14.0558 9.73438 14.2656 9.94424 14.2656 10.2031V13.7969C14.2656 14.0558 14.0558 14.2656 13.7969 14.2656H10.2031Z" fill="white"/>
</g>
<defs>
<clipPath id="clip0_6113_27747">
<rect width="20" height="20" fill="white" transform="matrix(1 0 0 -1 2 22)"/>
</clipPath>
</defs>
</svg>
