<svg width="24" height="25" viewBox="0 0 24 25" fill="none" xmlns="http://www.w3.org/2000/svg">
<g clip-path="url(#clip0_3459_16188)">
<path d="M5.44206 6.70436L13.3871 2.11808C13.6606 1.95999 13.9981 1.95999 14.2716 2.11808L19.2763 5.00674C19.7792 5.29702 19.8707 5.98522 19.461 6.39659L17.7644 8.10126C17.4814 8.38549 17.0427 8.44401 16.6952 8.24321L14.2807 6.84933C14.0011 6.68787 13.6569 6.68787 13.3777 6.84933L5 11.734V7.46991C5 7.15407 5.16855 6.86211 5.44206 6.70436Z" fill="#FA8C16"/>
<path d="M19.2944 18.9821L14.2716 21.8815C13.9981 22.0396 13.661 22.0396 13.3871 21.8815L5.44206 17.2953C5.16855 17.1375 5 16.8456 5 16.5297V12.6622L9.09398 10.2896V14.1664C9.09398 14.4823 9.26253 14.7742 9.53604 14.932L13.3871 17.155C13.6606 17.3131 13.9977 17.3131 14.2716 17.155L16.7083 15.7483C17.0548 15.5482 17.4929 15.6057 17.7758 15.8889L19.4778 17.5906C19.8892 18.002 19.7984 18.6912 19.2944 18.9821Z" fill="white"/>
</g>
<defs>
<clipPath id="clip0_3459_16188">
<rect width="14.7368" height="20" fill="white" transform="translate(5 2)"/>
</clipPath>
</defs>
</svg>
