<svg width="24" height="24" viewBox="0 0 24 24" fill="none" xmlns="http://www.w3.org/2000/svg">
<path d="M21.6747 10.574C21.1844 10.2394 19.896 10.0966 18.9592 10.3523C18.9087 9.4066 18.4277 8.60968 17.5476 7.91436L17.2218 7.69268L17.0046 8.02506C16.5778 8.68179 16.398 9.55671 16.4617 10.352C16.5119 10.842 16.6801 11.3929 17.0046 11.7925C15.7855 12.5093 14.6618 12.3466 9.68519 12.3466H2.00159C1.97911 13.4855 2.15973 15.6766 3.53439 17.4602C3.68619 17.6572 3.8528 17.8478 4.03343 18.0314C5.15103 19.1658 6.83961 19.9976 9.36466 20C13.2168 20.0035 16.5172 17.8931 18.5247 12.7902C19.1854 12.8012 20.9292 12.9103 21.7826 11.2387C21.8035 11.2106 21.9997 10.7954 21.9997 10.7954L21.6745 10.5737L21.6747 10.574ZM7.016 9.53232H4.85537V11.7223H7.016V9.53232ZM9.80737 9.53232H7.64674V11.7223H9.80737V9.53232ZM12.5987 9.53232H10.4381V11.7223H12.5987V9.53232ZM15.3901 9.53232H13.2295V11.7223H15.3901V9.53232ZM4.22463 9.53232H2.064V11.7223H4.22463V9.53232ZM7.016 6.76629H4.85537V8.95627H7.016V6.76629ZM9.80737 6.76629H7.64674V8.95627H9.80737V6.76629ZM12.5987 6.76629H10.4381V8.95627H12.5987V6.76629ZM12.5987 4H10.4381V6.18998H12.5987V4Z" fill="#1D63ED"/>
</svg>
