<svg width="143" height="32" viewBox="0 0 143 32" fill="none" xmlns="http://www.w3.org/2000/svg">
<path d="M44.9418 15.9989C44.9418 16.5541 44.8538 17.0477 44.6803 17.4661C44.5097 17.8773 44.2718 18.2278 43.9732 18.5072C43.6697 18.7908 43.3051 19.0119 42.8894 19.1642C42.4625 19.3206 41.9886 19.4003 41.481 19.4003H39.9602V12.5978H41.481C41.9881 12.5978 42.4617 12.6775 42.8894 12.834C43.3056 12.9869 43.6702 13.2081 43.973 13.4907C44.271 13.7698 44.5087 14.1223 44.6793 14.5384C44.8536 14.9632 44.9418 15.4546 44.9418 15.9989ZM45.8407 11.7417C45.3143 11.2296 44.6741 10.8316 43.9375 10.5586C43.2139 10.2903 42.4104 10.1542 41.5503 10.1542H37.4238V21.8439H41.5503C42.4104 21.8439 43.2136 21.7079 43.9375 21.4395C44.6738 21.1665 45.3143 20.7685 45.8407 20.2565C46.3675 19.7434 46.7805 19.1167 47.0677 18.3938C47.3512 17.6796 47.4952 16.8736 47.4952 15.9989C47.4952 15.1243 47.3512 14.3186 47.0677 13.6043C46.7805 12.8814 46.3675 12.2547 45.8407 11.7417Z" fill="#52B196"/>
<path d="M64.4262 16.9256L62.6366 10.1551H60.44L58.6366 16.9256L56.5719 10.1551H53.916L57.8216 21.8447H59.7588L61.5378 15.2299L63.3168 21.8447H65.254L69.1596 10.1551H66.5049L64.4262 16.9256Z" fill="#52B196"/>
<path d="M75.584 21.8444H84.2003V19.4005H78.1203V17.1611H83.317V14.717H78.1203V12.5983H84.2003V10.1548H75.584V21.8444Z" fill="#52B196"/>
<path d="M93.3117 10.1544H90.7754V21.844H98.7162V19.4005H93.3117V10.1544Z" fill="#52B196"/>
<path d="M107.827 10.1544H105.291V21.844H113.232V19.4005H107.827V10.1544Z" fill="#52B196"/>
<path d="M119.807 21.8443H122.343V10.1544H119.807V21.8443Z" fill="#52B196"/>
<path d="M135.71 14.3055C135.71 14.898 135.561 15.2893 135.24 15.5373C134.875 15.8184 134.382 15.9611 133.774 15.9611H131.456V12.5981H133.635C134.312 12.5981 134.845 12.7459 135.221 13.0379C135.555 13.2976 135.71 13.7005 135.71 14.3055ZM136.284 17.807C136.755 17.5536 137.168 17.2067 137.499 16.7877C138.018 16.1293 138.281 15.2825 138.281 14.2711C138.281 12.9434 137.85 11.9072 136.998 11.1912C136.18 10.5033 135.054 10.1542 133.653 10.1542H128.92V21.8439H131.456V18.4049H133.572L136.257 21.8439H138.506V20.6638L136.284 17.807Z" fill="#52B196"/>
<path d="M24.7654 17.5468C24.7341 15.802 24.7588 14.0562 24.7588 12.3108H24.7499C24.7499 10.3506 24.7504 8.39004 24.7494 6.42976C24.7489 5.73493 24.7117 5.6668 24.0473 5.50963C21.7572 4.96828 19.4667 4.42816 17.1705 3.91337C16.4371 3.74882 15.6916 3.63666 14.9276 3.76259C12.2167 4.20827 9.56228 4.90039 6.90269 5.57112C6.59452 5.6486 6.42984 5.82298 6.41234 6.13731C6.40666 6.23643 6.39656 6.33531 6.39656 6.43443C6.39458 10.1897 6.39828 13.945 6.39064 17.7005C6.38793 19.0892 6.73086 20.3851 7.39797 21.5965C8.41664 23.4463 9.88696 24.8879 11.5708 26.1287C12.6942 26.9569 13.8872 27.6679 15.183 28.2024C15.4721 28.3217 15.7276 28.3202 16.016 28.2004C17.0389 27.7762 17.9966 27.2353 18.912 26.6182C20.6163 25.4691 22.1315 24.1215 23.282 22.4017C24.2645 20.9339 24.7975 19.3337 24.7654 17.5468Z" fill="#29594B"/>
<path d="M7.44149 6.51091L7.44075 10.077C7.44075 12.5762 7.44075 15.1607 7.43582 17.703C7.43336 18.9082 7.72057 20.0177 8.31372 21.095C9.15958 22.6312 10.3917 23.9643 12.1917 25.2908C13.3329 26.1322 14.442 26.7697 15.5822 27.2395C15.5879 27.2419 15.5928 27.2437 15.597 27.2451C15.602 27.2434 15.6076 27.2414 15.6145 27.2385C16.5099 26.8671 17.3972 26.3821 18.3269 25.7551C20.1118 24.5517 21.448 23.266 22.4131 21.8237C23.3199 20.4685 23.7476 19.0754 23.7205 17.566C23.6986 16.3418 23.704 15.1027 23.7092 13.9044L23.7114 13.3539H23.7047L23.705 10.6605C23.7052 9.27375 23.7052 7.88729 23.7045 6.50058C21.3018 5.93266 19.1291 5.42156 16.9416 4.93112C16.3502 4.79831 15.7171 4.68959 15.0976 4.79166C12.6487 5.19405 10.1852 5.81731 7.80266 6.41966L7.44149 6.51091ZM15.5968 29.3333C15.3251 29.3333 15.0534 29.2775 14.7837 29.1666C13.4845 28.6306 12.2301 27.9114 10.9496 26.9677C8.92611 25.4765 7.46491 23.8839 6.48199 22.099C5.72489 20.7241 5.34252 19.2436 5.34572 17.699C5.3509 15.1585 5.35115 12.5752 5.35115 10.0768C5.35115 8.86275 5.35115 7.64846 5.35164 6.43442C5.35164 6.33013 5.35805 6.23839 5.36372 6.15747L5.3689 6.07999C5.41179 5.31949 5.88933 4.75182 6.64643 4.56096L7.28938 4.39862C9.71403 3.78521 12.2215 3.15137 14.7576 2.73448C15.7329 2.57411 16.6406 2.7266 17.3999 2.89681C19.6293 3.39659 21.8382 3.91679 24.288 4.49602C24.6526 4.58211 25.1519 4.70017 25.4847 5.1451C25.7936 5.55807 25.7938 6.02121 25.7941 6.42974C25.7951 7.84006 25.7948 9.25038 25.7948 10.6607L25.7946 11.269H25.8035V12.3113C25.8035 12.846 25.8012 13.3886 25.799 13.9132C25.7938 15.1002 25.7887 16.3278 25.8104 17.5286C25.8444 19.4502 25.2865 21.2848 24.1512 22.9812C23.0329 24.6525 21.5106 26.125 19.4969 27.4825C18.4501 28.1884 17.4426 28.7383 16.417 29.1638C16.1448 29.2767 15.8707 29.3333 15.5968 29.3333Z" fill="#52B196"/>
<mask id="mask0_515_6178" style="mask-type:luminance" maskUnits="userSpaceOnUse" x="10" y="9" width="11" height="11">
<path d="M10.2188 9.4208H20.7901V19.9822H10.2188V9.4208Z" fill="white"/>
</mask>
<g mask="url(#mask0_515_6178)">
<path d="M14.0433 15.3778C13.619 15.2846 13.3039 15.4 13.0461 15.6498C12.519 16.1602 11.9939 16.6735 11.4892 17.2055C11.0748 17.6426 11.0787 18.2941 11.4623 18.6948C11.8667 19.1169 12.5372 19.1316 12.9982 18.6965C13.5465 18.1788 14.0771 17.6421 14.6046 17.1032C14.8702 16.8322 15.006 16.5102 14.8711 16.0483C14.6081 16.2856 14.3951 16.495 14.1636 16.6819C13.9619 16.845 13.7401 16.8302 13.5529 16.6519C13.3621 16.4701 13.3648 16.2517 13.5132 16.0463C13.6656 15.8348 13.8365 15.6368 14.0433 15.3778ZM16.9216 14.0637C17.3047 14.1871 17.6158 14.0779 17.8771 13.8251C18.434 13.2859 18.9949 12.7495 19.5272 12.1865C19.9754 11.7128 19.947 11.0763 19.5032 10.6584C19.0878 10.2666 18.4727 10.2705 18.0157 10.7002C17.4659 11.2172 16.9309 11.7507 16.4019 12.2893C16.1366 12.5596 16.0089 12.8811 16.1543 13.2862C16.426 13.1667 16.5656 12.9655 16.7226 12.7847C16.9327 12.5424 17.189 12.5414 17.42 12.7092C17.6863 12.9027 17.6528 13.16 17.4661 13.405C17.2973 13.6264 17.0246 13.7641 16.9216 14.0637ZM13.8757 14.3384C14.1525 14.3251 14.4183 14.3514 14.6564 14.4862C14.8527 14.5976 14.9934 14.544 15.1399 14.394C15.29 14.2405 15.4014 14.1111 15.3046 13.8647C14.9197 12.8838 15.2126 12.0812 15.9682 11.3886C16.48 10.9196 16.9371 10.3908 17.4541 9.92789C18.1971 9.26306 19.2863 9.25692 20.0483 9.87107C20.7909 10.4695 20.999 11.5192 20.5685 12.3656C20.3821 12.7323 20.0138 12.8978 19.7591 13.1863C19.3721 13.6254 18.9858 14.0669 18.5681 14.4759C17.977 15.0546 17.2628 15.2283 16.4771 14.9476C16.2189 14.8556 16.0434 14.819 15.8235 15.0359C15.6132 15.2435 15.6778 15.4066 15.7569 15.6329C16.0395 16.4404 15.8701 17.162 15.2703 17.7737C14.741 18.3133 14.2117 18.8532 13.6654 19.3754C12.8348 20.1696 11.6445 20.1811 10.8435 19.4211C10.0524 18.6707 9.99868 17.4372 10.7619 16.6051C11.3272 15.9885 11.932 15.4066 12.5392 14.8303C12.9075 14.4811 13.3611 14.301 13.8757 14.3384Z" fill="#52B196"/>
</g>
</svg>
