<svg
  id="ab9fd3c8-ea32-474e-8da8-43cac72f2790"
  xmlns="http://www.w3.org/2000/svg"
  xmlns:xlink="http://www.w3.org/1999/xlink"
  width="100" height="100"
  viewBox="560 160 900 380"
>
  <defs>
    <style>
      .e12c6bc4-5226-4490-8689-926e3337f9bc {
        fill: url(#a63540f0-13b0-4c67-98b7-142f6df2e9f2);
      }
      .f0b5c975-6518-4ef5-a21b-9512529a211e {
        fill: #8d175b;
      }
    </style>
    <linearGradient
      id="a63540f0-13b0-4c67-98b7-142f6df2e9f2"
      x1="672.84"
      y1="184.7"
      x2="858.62"
      y2="184.7"
      gradientUnits="userSpaceOnUse"
    >
      <stop offset="0.24" stop-color="#ed6947" />
      <stop offset="0.78" stop-color="#cf4f2d" />
    </linearGradient>
  </defs>
  <g transform="scale(2) translate(-260, -10)">
  <path
    class="e12c6bc4-5226-4490-8689-926e3337f9bc"
    d="M773.18,74.27l-54.3,38-46-32.24V41.61c0-3.39,3.33-6.14,7.42-6.14h37.51Zm85.44,59.82L827.49,112.3l-54.3,38,48.6,34,36.83,25.79ZM717.11,189.58l-26.39,18.48a47.11,47.11,0,0,0-16.94,27.22l45.1,31.58,54.3-38Zm110.38,77.28-54.3,38,41.47,29h36.48a8.26,8.26,0,0,0,3.1-.58,6.87,6.87,0,0,0,2.12-1.2l0,0a5.62,5.62,0,0,0,2.18-4.34V288.62Z"
  />
  <path
    class="f0b5c975-6518-4ef5-a21b-9512529a211e"
    d="M839.58,171.88l-.09.07L672.78,288.68v76.05L858.62,234.6V134.09A47,47,0,0,1,839.58,171.88Z"
  />
  <path
    class="f0b5c975-6518-4ef5-a21b-9512529a211e"
    d="M858.62,40.33V80L690.72,197.6a46.93,46.93,0,0,0-17.94,36.92V134.11l141-98.73h37.8C855.09,35.47,858,37.57,858.62,40.33Z"
  />
  </g>
</svg>
