<svg height="4em" viewBox="0 0 565 150" fill="none" xmlns="http://www.w3.org/2000/svg" class="text-2xl"><path d="m532.804 38.356 12.509 37.327h-22.641l-9.219-27.535-24.994 27.535h-11.404l33.277-36.702-12.197-36.286h22.64l8.908 26.381 23.913-26.38H565l-32.172 35.66h-.024Z" fill="#CB4131"></path><path d="m227.513 52.628-11.964 59.438c-6.777 33.678-24.925 36.518-47.856 36.719-10.169 0-14.558-.402-21.935-3.041-16.551-6.694-22.528 8.52-44.661 3.041-8.975-2.229-19.943-8.922-30.112 1.013 7.773-9.332 18.947-8.118 28.712-6.693 19.943 2.84 24.529-19.478 5.385-17.451-13.76 1.416-23.533 15.624-42.273 6.292-11.363-5.68-18.74-16.839-33.298-14.611-6.184 1.014-20.733 8.922-29.511 4.055 9.37 4.264 20.535-3.854 27.715-6.292 14.558-4.867 22.133 1.416 30.91 6.292 15.357 8.52 27.914 1.214 30.508-4.465 4.191-9.333-2.594-19.68-18.947-16.437-5.978 1.214-24.323 7.104-32.302-2.64 8.177 7.909 22.734 1.626 29.709-.812 19.341-6.694 25.121-.813 37.489 7.096 18.148 11.56 26.118 1.013 28.514-8.922 3.186-13.186 0-14.2-10.366-13.387-6.983.611-13.759-.201-21.738-7.909-11.166-10.958-21.738-5.278-26.917-.611 6.983-7.105 15.751-11.36 30.91-3.653 27.115 13.798 40.281-26.372 17.745-27.587-20.141-1.014-24.53 9.332-45.864 13.999-8.374 1.826-23.532 2.027-34.492-8.118C57.432 59.304 87.14 53.222 87.94 38c.799-16.437-31.907-26.574-62.809 1.013 17.152-16.839 35.489-23.13 51.841-21.907 15.357 1.215 21.137 8.721 33.9 11.77 15.554 3.653 36.286-.812 40.28-10.145 3.59-8.319-6.776-13.186-22.734-6.492-11.964 5.068-19.539 6.492-34.097-1.827 18.346 9.333 27.716-.812 37.687-6.291 19.943-10.958 31.108 3.452 50.845 3.04 5.187-.401 10.77-.401 16.55-.401h23.533l-5.78 28.199h-11.964l3.186-16.027c-23.928 0-30.704 3.242-35.093 24.747l-5.978 28.81-7.377 36.519c-5.188 25.76-3.393 27.587 7.772 27.587 8.976 0 14.756-1.416 19.54-24.747l9.567-47.065h-11.362V52.61h42.075l-.008.018Z" fill="url(#logo_svg__a)"></path><path d="M320.828 47.35v12.172c-21.334 0-47.856 3.242-57.827 53.558l-7.18 35.705h-28.317l20.14-99.609c9.371-1.826 22.528-1.826 28.515-1.826l-2.792 13.998c14.756-12.373 32.302-13.998 47.452-13.998h.009Z" fill="url(#logo_svg__b)"></path><path d="M332.99 49.176c9.37-1.826 22.527-1.826 28.514-1.826l-20.338 101.435h-28.317l20.141-99.609Zm37.686-46.462-6.579 32.463-17.744-32.463h24.323Z" fill="url(#logo_svg__c)"></path><path d="M390.018 2.723h30.507l-29.511 146.07h-28.316l27.32-135.313V2.723Z" fill="url(#logo_svg__d)"></path><path d="M439.866 2.723h30.507l-29.51 146.07h-28.317l27.32-135.313V2.723Z" fill="url(#logo_svg__e)"></path><defs><linearGradient id="logo_svg__a" x1="86.316" y1="75.15" x2="651.018" y2="75.15" gradientUnits="userSpaceOnUse"><stop stop-color="#C43333"></stop><stop offset="1" stop-color="#F9A11E"></stop></linearGradient><linearGradient id="logo_svg__b" x1="86.316" y1="75.15" x2="651.018" y2="75.15" gradientUnits="userSpaceOnUse"><stop stop-color="#C43333"></stop><stop offset="1" stop-color="#F9A11E"></stop></linearGradient><linearGradient id="logo_svg__c" x1="86.316" y1="75.15" x2="651.018" y2="75.15" gradientUnits="userSpaceOnUse"><stop stop-color="#C43333"></stop><stop offset="1" stop-color="#F9A11E"></stop></linearGradient><linearGradient id="logo_svg__d" x1="86.316" y1="75.15" x2="651.018" y2="75.15" gradientUnits="userSpaceOnUse"><stop stop-color="#C43333"></stop><stop offset="1" stop-color="#F9A11E"></stop></linearGradient><linearGradient id="logo_svg__e" x1="86.316" y1="75.15" x2="651.018" y2="75.15" gradientUnits="userSpaceOnUse"><stop stop-color="#C43333"></stop><stop offset="1" stop-color="#F9A11E"></stop></linearGradient></defs></svg>