<svg width="24" height="24" viewBox="0 0 480 480" fill="none" xmlns="http://www.w3.org/2000/svg">
<g clip-path="url(#clip0_5666_20791)">
<path d="M240 480C372.548 480 480 372.548 480 240C480 107.452 372.548 0 240 0C107.452 0 0 107.452 0 240C0 372.548 107.452 480 240 480Z" fill="#958FDC"/>
<path d="M407.736 240.206C407.736 148.509 333.066 74.178 240.968 74.178C148.872 74.178 74.1816 148.509 74.1816 240.206C74.1816 259.163 77.3808 277.372 83.2521 294.343C83.2899 294.418 83.6097 295.392 83.6097 295.392C85.9809 302.904 74.2194 305.844 74.2194 310.341C74.2194 317.385 99.0219 316.428 99.0219 324.615C99.0219 331.752 74.4828 333.963 74.4828 341.157C74.4828 351.102 128.811 347.637 129.508 356.181C130.034 362.775 110.821 363.186 110.708 370.23C110.52 381.489 184.852 377.796 184.852 385.29C184.852 390.966 151.036 388.905 151.036 395.613C151.036 402.318 195.541 406.551 244.601 406.551C293.66 406.551 327.495 401.121 327.495 395.256C327.495 389.394 295.918 390.591 296.577 385.308C297.706 376.074 367.803 380.796 367.803 370.098C367.803 364.461 348.534 363.15 349.155 357.078C350.04 348.501 407.736 349.773 407.736 340.857C407.736 333.852 379.134 332.127 379.188 324.84C379.227 317.403 407.736 317.721 407.547 310.752C407.397 305.397 394.791 305.526 398.742 294.175C404.574 277.259 407.775 259.107 407.775 240.206H407.736ZM354.744 287.356C348.948 300.414 335.925 297.79 334.458 303.279C332.934 308.955 350.511 309.78 350.511 315.717C350.511 322.929 296.934 320.046 297.461 329.562C297.8 335.556 335.511 336.567 334.797 342.825C333.762 351.891 276.366 347.358 275.801 356.049C275.387 362.418 303.822 362.643 303.879 368.451C303.936 373.338 281.56 375.999 238.691 375.999C189.877 375.999 166.128 373.377 168.838 367.926C171.359 362.829 214.585 363.768 214.152 355.749C213.72 347.751 137.393 350.091 135.097 342.318C133.177 335.856 160.181 334.524 160.012 328.38C159.843 322.125 125.443 323.547 124.69 315.96C124.201 310.998 142.662 311.295 141.871 305.04C141.288 300.489 133.667 301.125 129.15 291.74C121.867 276.06 117.765 258.602 117.765 240.187C117.765 172.45 172.94 117.526 240.987 117.526C309.033 117.526 364.209 172.45 364.209 240.187C364.209 256.897 360.84 272.819 354.762 287.337L354.744 287.356Z" fill="#2B1D3C"/>
<path fill-rule="evenodd" clip-rule="evenodd" d="M83.2522 294.343C77.3809 277.372 74.1817 259.163 74.1817 240.206C74.1817 148.509 148.872 74.178 240.969 74.178C333.066 74.178 407.736 148.509 407.736 240.206H407.775C407.775 240.653 407.772 241.1 407.769 241.546C407.622 259.965 404.436 277.659 398.742 294.175C396.291 301.215 400.206 303.837 403.572 306.093C405.636 307.473 407.49 308.718 407.547 310.752C407.64 314.187 400.764 315.852 393.759 317.547C386.55 319.293 379.209 321.069 379.188 324.84C379.161 328.521 386.448 330.783 393.666 333.024C400.734 335.217 407.736 337.389 407.736 340.857C407.736 345.372 392.937 347.274 378.213 349.167C363.864 351.012 349.593 352.845 349.155 357.078C348.837 360.198 353.772 362.061 358.644 363.9C363.252 365.64 367.803 367.359 367.803 370.098C367.803 375.654 348.888 377.052 330.549 378.405C313.587 379.656 297.119 380.871 296.577 385.308C296.255 387.894 303.645 388.926 311.28 389.994C319.254 391.11 327.495 392.262 327.495 395.256C327.495 401.121 293.66 406.551 244.601 406.551C195.541 406.551 151.036 402.318 151.036 395.613C151.036 392.118 160.209 391.005 169.001 389.937C177.088 388.953 184.852 388.011 184.852 385.29C184.852 381.924 169.858 380.817 153.356 379.596C133.115 378.096 110.604 376.431 110.708 370.23C110.765 366.681 115.669 364.815 120.454 362.997C125.169 361.203 129.769 359.451 129.508 356.181C129.174 352.08 116.488 350.748 103.382 349.368C89.1791 347.874 74.483 346.329 74.483 341.157C74.483 337.554 80.6416 335.199 86.7886 332.85C92.9113 330.513 99.0221 328.176 99.0221 324.615C99.0221 320.37 92.3467 318.582 85.9222 316.863C79.963 315.267 74.2195 313.731 74.2195 310.341C74.2195 308.505 76.1833 306.927 78.3442 305.19C81.4717 302.679 85.012 299.835 83.6098 295.392C83.6098 295.392 83.29 294.418 83.2522 294.343ZM82.3363 295.804C82.8052 297.295 82.5802 298.507 81.9703 299.62C81.3256 300.795 80.2387 301.875 78.9406 302.973C78.5179 303.33 78.0544 303.705 77.5837 304.083C76.708 304.788 75.8068 305.511 75.0931 306.198C73.9939 307.257 72.8815 308.625 72.8815 310.341C72.8815 311.667 73.4818 312.75 74.35 313.599C75.1933 314.424 76.3279 315.075 77.5543 315.618C79.8052 316.614 82.7198 317.394 85.5503 318.15C85.7923 318.216 86.0338 318.279 86.2744 318.345C89.4025 319.185 92.3647 320.019 94.5454 321.12C96.7792 322.245 97.684 323.382 97.684 324.615C97.684 325.089 97.4893 325.602 96.9667 326.19C96.4321 326.796 95.6125 327.411 94.5214 328.038C92.3317 329.298 89.3755 330.429 86.2756 331.614L86.2357 331.629C83.212 332.784 80.05 333.99 77.6482 335.379C76.438 336.081 75.3403 336.87 74.5336 337.788C73.7143 338.718 73.1449 339.843 73.1449 341.157C73.1449 343.113 74.504 344.502 76.1417 345.462C77.8028 346.44 80.083 347.19 82.675 347.802C87.8776 349.035 94.7801 349.809 101.594 350.529C102.138 350.586 102.683 350.643 103.226 350.7C109.525 351.363 115.646 352.005 120.356 352.941C122.922 353.451 124.969 354.03 126.367 354.699C127.852 355.41 128.15 355.995 128.174 356.289C128.242 357.147 127.725 358.017 126.102 359.028C124.51 360.018 122.298 360.861 119.883 361.779L119.873 361.782C117.531 362.673 115.001 363.639 113.058 364.854C111.138 366.057 109.41 367.743 109.371 370.206C109.333 372.465 111.171 373.98 113.25 375.006C115.427 376.074 118.455 376.911 121.958 377.595C128.988 378.966 138.338 379.797 147.608 380.508C149.508 380.655 151.404 380.793 153.279 380.934C160.591 381.474 167.563 381.99 173.073 382.689C176.542 383.13 179.346 383.631 181.259 384.234C182.223 384.537 182.867 384.834 183.243 385.104C183.392 385.209 183.466 385.284 183.501 385.329C183.492 385.347 183.475 385.374 183.444 385.41C183.344 385.533 183.14 385.707 182.764 385.908C182.005 386.319 180.83 386.7 179.277 387.048C176.44 387.681 172.713 388.134 168.822 388.608C168.477 388.65 168.13 388.692 167.782 388.734C163.577 389.247 159.254 389.805 155.978 390.672C154.348 391.104 152.866 391.638 151.764 392.349C150.666 393.057 149.698 394.116 149.698 395.613C149.698 397.239 151.016 398.385 152.376 399.168C153.837 400.011 155.898 400.764 158.407 401.445C163.446 402.813 170.623 403.977 179.275 404.928C196.598 406.833 220.041 407.892 244.601 407.892C269.171 407.892 289.962 406.533 304.635 404.43C311.961 403.38 317.817 402.138 321.87 400.764C323.889 400.08 325.536 399.339 326.709 398.526C327.825 397.749 328.833 396.675 328.833 395.256C328.833 393.831 327.855 392.856 326.847 392.226C325.818 391.581 324.435 391.086 322.92 390.678C319.872 389.856 315.855 389.28 311.973 388.737L311.508 388.671C307.737 388.146 304.128 387.639 301.455 386.967C300.054 386.616 299.033 386.244 298.408 385.866C298.1 385.68 297.965 385.536 297.916 385.464C297.913 385.461 297.91 385.455 297.908 385.452C297.929 385.323 298.023 385.092 298.414 384.768C298.833 384.423 299.494 384.057 300.438 383.694C302.325 382.971 305.043 382.374 308.382 381.867C314.535 380.931 322.506 380.343 330.663 379.74C331.344 379.689 332.028 379.638 332.712 379.587C341.526 378.933 350.4 378.228 357.075 377.007C360.399 376.398 363.282 375.645 365.364 374.655C367.35 373.71 369.141 372.282 369.141 370.098C369.141 368.976 368.652 368.034 367.974 367.275C367.308 366.531 366.417 365.91 365.457 365.37C363.669 364.365 361.353 363.489 359.151 362.658C359.007 362.604 358.863 362.55 358.719 362.496C356.319 361.59 354.099 360.723 352.512 359.742C350.853 358.716 350.415 357.897 350.487 357.216C350.517 356.913 350.88 356.28 352.509 355.491C354.027 354.756 356.232 354.093 358.971 353.487C364.302 352.305 371.31 351.405 378.423 350.49L378.948 350.424C386.193 349.491 393.507 348.54 399.012 347.253C401.754 346.611 404.145 345.864 405.879 344.946C407.523 344.079 409.074 342.783 409.074 340.857C409.074 339.477 408.36 338.355 407.421 337.476C406.491 336.606 405.228 335.865 403.836 335.211C401.127 333.936 397.569 332.832 394.116 331.761L393.837 331.674C390.237 330.555 386.772 329.469 384.21 328.224C382.926 327.603 381.96 326.985 381.333 326.373C380.718 325.773 380.523 325.275 380.526 324.852V324.846C380.529 324.399 380.73 323.925 381.33 323.376C381.948 322.809 382.902 322.254 384.18 321.717C386.736 320.643 390.183 319.791 393.768 318.924L394.128 318.837C397.533 318.012 401.037 317.166 403.701 316.092C405.078 315.537 406.341 314.88 407.271 314.058C408.219 313.221 408.924 312.111 408.885 310.716C408.831 308.772 407.622 307.446 406.392 306.453C405.768 305.952 405.066 305.481 404.397 305.034L404.331 304.986C403.668 304.545 403.029 304.116 402.42 303.648C401.166 302.685 400.182 301.656 399.681 300.327C399.189 299.026 399.093 297.239 400.005 294.616V294.612C405.888 277.559 409.113 259.26 409.113 240.206V238.866H409.068C408.345 147.038 333.348 72.8379 240.969 72.8379C148.141 72.8379 72.8438 147.761 72.8438 240.206C72.8438 259.315 76.0687 277.672 81.988 294.782L82.0171 294.866L82.0288 294.889C82.0369 294.912 82.0474 294.942 82.06 294.978C82.093 295.073 82.1347 295.197 82.1767 295.322C82.2181 295.446 82.259 295.569 82.2893 295.66L82.3255 295.77L82.3342 295.796M183.53 385.374C183.53 385.374 183.527 385.371 183.524 385.359C183.528 385.368 183.53 385.374 183.53 385.374ZM354.762 287.337C360.84 272.819 364.209 256.897 364.209 240.187C364.209 172.45 309.033 117.526 240.987 117.526C172.941 117.526 117.765 172.45 117.765 240.187C117.765 258.601 121.867 276.06 129.15 291.739C131.666 296.967 135.145 299.085 137.834 300.723C139.973 302.025 141.613 303.024 141.871 305.04C142.29 308.355 137.304 309.828 132.595 311.223C128.418 312.456 124.46 313.626 124.69 315.96C125.084 319.926 134.668 321.429 143.753 322.854C152.051 324.156 159.931 325.395 160.012 328.38C160.094 331.356 153.804 333.201 147.512 335.049C140.811 337.017 134.107 338.985 135.097 342.318C136.231 346.161 155.451 347.532 174.654 348.9C194.303 350.304 213.934 351.705 214.152 355.749C214.397 360.279 200.709 361.95 188.297 363.465C178.738 364.632 169.935 365.709 168.838 367.926C166.128 373.377 189.877 375.999 238.692 375.999C281.56 375.999 303.936 373.338 303.879 368.451C303.852 365.625 297.11 364.122 290.241 362.589C282.986 360.972 275.589 359.319 275.801 356.049C276.081 351.744 290.296 350.685 304.701 349.608C319.389 348.513 334.275 347.4 334.797 342.825C335.16 339.636 325.554 337.809 315.996 335.994C306.789 334.242 297.627 332.502 297.461 329.562C297.179 324.468 312.399 322.926 326.607 321.489C338.94 320.241 350.511 319.068 350.511 315.717C350.511 312.789 346.236 311.106 342.087 309.468C337.821 307.788 333.684 306.156 334.458 303.279C335.049 301.071 337.509 300.177 340.614 299.045C345.231 297.364 351.279 295.162 354.744 287.356L354.762 287.337ZM353.631 286.574C359.577 272.283 362.871 256.621 362.871 240.187C362.871 173.198 308.304 118.866 240.987 118.866C173.671 118.866 119.103 173.198 119.103 240.187C119.103 258.397 123.159 275.66 130.359 291.166C132.461 295.527 135.253 297.546 137.692 299.064C137.948 299.223 138.209 299.382 138.47 299.541C139.419 300.117 140.376 300.699 141.132 301.332C142.164 302.199 142.996 303.294 143.199 304.869C143.501 307.266 141.869 308.841 140.119 309.849C138.349 310.869 135.977 311.613 133.775 312.27C133.506 312.351 133.239 312.429 132.975 312.507C130.999 313.092 129.198 313.626 127.843 314.256C127.079 314.61 126.576 314.946 126.288 315.249C126.034 315.516 126.008 315.684 126.022 315.828C126.061 316.224 126.326 316.725 127.176 317.313C128.025 317.898 129.282 318.441 130.898 318.942C134.123 319.938 138.401 320.655 142.778 321.345C143.176 321.408 143.575 321.471 143.973 321.534C147.904 322.149 151.833 322.767 154.87 323.571C156.536 324.015 158.042 324.54 159.164 325.212C160.253 325.866 161.31 326.865 161.35 328.344M161.35 328.344C161.386 329.661 160.675 330.705 159.798 331.482C158.926 332.256 157.745 332.904 156.459 333.468C154.054 334.527 150.93 335.442 147.917 336.327C147.702 336.39 147.488 336.453 147.275 336.516C143.998 337.479 140.933 338.412 138.801 339.477C137.73 340.011 137.029 340.518 136.651 340.974C136.323 341.367 136.292 341.64 136.379 341.937C136.377 341.931 136.392 341.988 136.495 342.096C136.601 342.207 136.775 342.348 137.046 342.513C137.596 342.843 138.415 343.182 139.521 343.515C141.723 344.178 144.81 344.745 148.533 345.243C155.805 346.212 165.265 346.887 174.778 347.568L175.418 347.613C185.115 348.303 194.819 349.008 202.128 350.043C205.772 350.559 208.898 351.168 211.151 351.924C212.271 352.299 213.261 352.74 214.005 353.28C214.736 353.814 215.43 354.594 215.489 355.677C215.581 357.387 214.47 358.629 213.166 359.487C211.847 360.351 210.025 361.038 207.967 361.608C203.829 362.757 198.297 363.561 192.771 364.263C191.316 364.446 189.861 364.626 188.428 364.8C184.373 365.295 180.492 365.769 177.269 366.321C175.088 366.696 173.275 367.095 171.952 367.539C171.29 367.761 170.797 367.98 170.458 368.184C170.101 368.4 170.032 368.532 170.037 368.52L170.036 368.523C169.96 368.673 169.967 368.745 169.969 368.76C169.971 368.778 169.981 368.85 170.094 368.988C170.356 369.309 170.987 369.756 172.228 370.236C174.666 371.184 178.761 372.009 184.595 372.675C196.215 374.004 214.292 374.658 238.692 374.658C260.111 374.658 276.36 373.995 287.227 372.726C292.673 372.093 296.692 371.313 299.316 370.422C300.633 369.975 301.509 369.528 302.028 369.123C302.541 368.721 302.541 368.496 302.541 368.466C302.538 368.352 302.481 368.055 301.848 367.593C301.224 367.134 300.258 366.675 298.966 366.222C296.522 365.364 293.286 364.641 289.912 363.888L289.372 363.768C285.867 362.985 282.244 362.157 279.525 361.107C278.169 360.585 276.929 359.964 276.021 359.193C275.098 358.41 274.377 357.333 274.466 355.962C274.59 354.057 276.233 352.881 277.911 352.134C279.693 351.336 282.119 350.745 284.886 350.268C290.321 349.338 297.461 348.804 304.557 348.276L305.022 348.24C312.321 347.694 319.533 347.145 324.987 346.173C327.723 345.687 329.919 345.108 331.434 344.418C333.036 343.689 333.426 343.047 333.468 342.672C333.471 342.645 333.477 342.588 333.39 342.459C333.285 342.303 333.072 342.084 332.673 341.82C331.872 341.289 330.603 340.758 328.917 340.236C325.563 339.195 320.988 338.307 316.275 337.41L315.711 337.305C311.226 336.45 306.666 335.583 303.165 334.569C301.35 334.044 299.728 333.453 298.524 332.757C297.404 332.109 296.209 331.119 296.126 329.637L296.125 329.634C296.018 327.693 297.335 326.316 298.904 325.38C300.495 324.426 302.706 323.694 305.217 323.094C310.266 321.888 317.004 321.126 323.652 320.442C324.597 320.346 325.542 320.25 326.478 320.154C332.184 319.575 337.659 319.023 341.913 318.264C344.397 317.823 346.365 317.328 347.682 316.761C348.342 316.476 348.753 316.209 348.981 315.99C349.089 315.885 349.137 315.813 349.155 315.774C349.173 315.741 349.173 315.726 349.173 315.717C349.173 314.979 348.636 314.163 347.085 313.209C345.609 312.297 343.629 311.517 341.526 310.689L341.421 310.647C339.363 309.834 337.155 308.961 335.574 307.893C334.776 307.353 334.032 306.696 333.552 305.871C333.048 305.001 332.88 304.002 333.165 302.931C333.687 300.981 335.229 299.884 336.852 299.103C337.674 298.708 338.595 298.357 339.534 298.013C339.744 297.936 339.954 297.859 340.167 297.781C340.92 297.507 341.688 297.227 342.483 296.911C346.485 295.312 350.823 292.888 353.523 286.811L353.622 286.582L353.631 286.574" fill="#2B1D3C"/>
</g>
<defs>
<clipPath id="clip0_5666_20791">
<rect width="480" height="480" fill="white"/>
</clipPath>
</defs>
</svg>
