<svg width="24" height="25" viewBox="0 0 24 25" fill="none" xmlns="http://www.w3.org/2000/svg">
<path d="M14.0966 3C10.2973 3 7.21682 6.08281 7.21948 9.88174V9.9057C7.23013 10.0841 7.37923 10.2252 7.55762 10.2252H20.6383C20.8194 10.2252 20.9658 10.0841 20.9765 9.9057V9.88174C20.9765 6.08281 17.8986 3 14.0966 3Z" fill="#53CBC8"/>
<path d="M2.66402 17.5676C2.66402 17.7992 2.47765 17.9856 2.24601 17.9856C2.01438 17.9856 1.828 17.7992 1.828 17.5676C1.828 17.336 2.01438 17.1497 2.24601 17.1497C2.47765 17.1497 2.66402 17.336 2.66402 17.5676Z" fill="#E1147B"/>
<path d="M20.1804 15.2488H6.14657C5.9176 15.2488 5.73389 15.4351 5.73389 15.6614C5.73389 15.7306 5.74986 15.7972 5.78447 15.8557L5.79246 15.869C5.86435 16.0022 6.0028 16.0847 6.15456 16.0847H20.1751C20.3269 16.0847 20.4653 16.0022 20.5372 15.869L20.5452 15.8557C20.6544 15.6561 20.5772 15.4058 20.3775 15.2967C20.3189 15.2647 20.2497 15.2488 20.1831 15.2461L20.1804 15.2488Z" fill="#E1147B"/>
<path d="M22.0468 11.4524H6.14657C5.9176 11.4524 5.73389 11.6387 5.73389 11.8677C5.73389 11.8757 5.73389 11.8837 5.73389 11.889V11.9023C5.7472 12.1206 5.92825 12.291 6.14657 12.291H22.0468C22.2652 12.291 22.4462 12.1206 22.4595 11.9023V11.889C22.4728 11.66 22.2971 11.4657 22.0708 11.4524C22.0628 11.4524 22.0575 11.4524 22.0495 11.4524H22.0468Z" fill="#E1147B"/>
<path d="M16.0589 20.9458H8.89419C8.66522 20.9458 8.48151 21.1321 8.48151 21.3584C8.48151 21.5155 8.56937 21.6566 8.71048 21.7258L8.7371 21.7391C8.79301 21.7684 8.85691 21.7817 8.92081 21.7817H16.0349C16.0988 21.7817 16.1627 21.7684 16.2186 21.7391L16.2453 21.7258C16.4503 21.6246 16.5328 21.3771 16.429 21.1721C16.3597 21.0336 16.216 20.9431 16.0589 20.9431V20.9458Z" fill="#E1147B"/>
<path d="M20.4387 19.0476H13.2713C13.0424 19.0476 12.8586 19.2339 12.8586 19.4602C12.8586 19.6173 12.9465 19.7584 13.0876 19.8276L13.1142 19.8409C13.1701 19.8702 13.234 19.8835 13.2979 19.8835H20.4121C20.476 19.8835 20.5399 19.8702 20.5958 19.8409L20.6224 19.8276C20.8274 19.7264 20.9099 19.4789 20.8061 19.2739C20.7369 19.1354 20.5931 19.0476 20.4387 19.0449V19.0476Z" fill="#E1147B"/>
<path d="M10.6675 17.8551L10.6542 17.8418C10.4997 17.6741 10.5104 17.4132 10.6781 17.2588C10.7553 17.1896 10.8538 17.1497 10.9577 17.1497H22.5873C22.8163 17.1497 23 17.336 23 17.5623C23 17.6661 22.9601 17.7646 22.8909 17.8418L22.8776 17.8551C22.8003 17.9377 22.6912 17.9856 22.574 17.9856H10.9683C10.8538 17.9856 10.7447 17.9377 10.6648 17.8551H10.6675Z" fill="#E1147B"/>
<path d="M3.73969 17.1469H9.2936C9.52258 17.1469 9.70628 17.3333 9.70628 17.5596C9.70628 17.7167 9.61843 17.8578 9.47732 17.927L9.45069 17.9403C9.39478 17.9696 9.33088 17.9829 9.26698 17.9829H3.76632C3.70242 17.9829 3.63852 17.9696 3.58261 17.9403L3.55598 17.927C3.35097 17.8258 3.26844 17.5782 3.37227 17.3732C3.4415 17.2348 3.58527 17.1443 3.73969 17.1443V17.1469Z" fill="#E1147B"/>
<path d="M5.06825 11.873C5.06825 12.1047 4.88188 12.291 4.65025 12.291C4.41861 12.291 4.23224 12.1047 4.23224 11.873C4.23224 11.6414 4.41861 11.4551 4.65025 11.4551C4.88188 11.4551 5.06825 11.6414 5.06825 11.873Z" fill="#E1147B"/>
<path d="M14.938 13.883V13.8697C14.9993 13.6488 14.8688 13.4251 14.6505 13.3639C14.6159 13.3532 14.5786 13.3506 14.5413 13.3506H2.91165C2.68534 13.3506 2.49896 13.5343 2.49896 13.7606C2.49896 13.7978 2.50429 13.8324 2.51228 13.8697C2.51228 13.875 2.51227 13.8777 2.51494 13.883C2.56286 14.0641 2.72793 14.1892 2.91431 14.1892H14.5386C14.725 14.1892 14.8901 14.0641 14.938 13.883Z" fill="#E1147B"/>
<path d="M1.83602 13.7685C1.83602 14.0002 1.64964 14.1865 1.41801 14.1865C1.18637 14.1865 1 14.0002 1 13.7685C1 13.5369 1.18637 13.3506 1.41801 13.3506C1.64964 13.3506 1.83602 13.5369 1.83602 13.7685Z" fill="#E1147B"/>
<path d="M5.06825 15.6692C5.06825 15.9008 4.88188 16.0871 4.65025 16.0871C4.41861 16.0871 4.23224 15.9008 4.23224 15.6692C4.23224 15.4376 4.41861 15.2512 4.65025 15.2512C4.88188 15.2512 5.06825 15.4376 5.06825 15.6692Z" fill="#E1147B"/>
<path d="M12.1957 19.4658C12.1957 19.6974 12.0093 19.8838 11.7777 19.8838C11.5461 19.8838 11.3597 19.6974 11.3597 19.4658C11.3597 19.2342 11.5461 19.0479 11.7777 19.0479C12.0093 19.0479 12.1957 19.2342 12.1957 19.4658Z" fill="#E1147B"/>
<path d="M7.81593 21.3638C7.81593 21.5954 7.62956 21.7817 7.39792 21.7817C7.16629 21.7817 6.97992 21.5954 6.97992 21.3638C6.97992 21.1322 7.16629 20.9458 7.39792 20.9458C7.62956 20.9458 7.81593 21.1322 7.81593 21.3638Z" fill="#E1147B"/>
</svg>
