<svg width="24" height="24" viewBox="0 0 45 45" fill="none" xmlns="http://www.w3.org/2000/svg">
<path d="M38.1752 6.69508C36.3041 4.7864 34.0915 3.21926 31.6419 2.07863C31.5422 2.02797 31.4409 1.98058 31.3363 1.93646C30.8542 1.72075 30.3673 1.51648 29.8688 1.33509C28.4733 0.82851 27.014 0.45756 25.5057 0.236951C24.45 0.0833412 23.3731 0 22.2766 0C9.99278 0 0 9.99277 0 22.275C0 31.8445 6.06593 40.0218 14.5537 43.1691C15.5521 43.5384 16.5849 43.8391 17.6438 44.063C19.1391 44.38 20.6882 44.5516 22.275 44.5516C30.7366 44.5516 38.1098 39.8093 41.8798 32.843C43.5826 29.6973 44.5516 26.0972 44.5516 22.275C44.5516 16.214 42.1151 10.7134 38.1752 6.69344V6.69508ZM6.64442 34.1928C4.01182 30.7219 2.62116 26.5793 2.62116 22.2145C2.62116 14.7628 6.75227 8.25732 12.846 4.86974C13.0078 4.77986 13.1663 4.99394 13.0323 5.11977C12.475 5.64432 11.9407 6.20483 11.4308 6.8013C7.89944 10.9308 5.86493 16.5473 5.84696 22.2145C5.84696 29.5731 10.769 37.5134 18.7207 37.5134C25.8162 37.5134 31.5896 30.65 31.5896 22.2145C31.5896 18.2517 30.261 14.4442 27.9912 11.6204C27.9111 11.5207 28.0059 11.3802 28.1285 11.4161C31.9638 12.5502 34.8334 16.9624 34.8334 22.2145C34.8334 26.8522 33.1502 31.4703 30.2169 34.884C27.1758 38.4219 23.0921 40.3715 18.7207 40.3731C14.1173 40.3731 9.7117 38.1164 6.64442 34.1928ZM38.2602 10.2477C40.8895 13.7104 42.2785 17.8465 42.2736 22.2096C42.2736 29.6613 38.1425 36.1668 32.0488 39.5544C31.887 39.6443 31.7285 39.4302 31.8625 39.3044C32.4197 38.7798 32.9541 38.2193 33.464 37.6228C36.9953 33.4934 39.0298 27.8768 39.0478 22.2096C39.0478 14.8511 34.1258 6.91078 26.174 6.91078C19.0786 6.91078 13.3052 13.7742 13.3052 22.2096C13.3052 26.174 14.6337 29.98 16.9036 32.8054C16.9836 32.9051 16.8889 33.0456 16.7663 33.0097C12.931 31.8756 10.0614 27.465 10.0614 22.2145C10.0614 17.5768 11.7446 12.9604 14.6795 9.54829C17.7223 6.01037 21.806 4.06084 26.1789 4.06084C30.7791 4.06084 35.1831 6.31596 38.2618 10.2477H38.2602ZM29.2609 22.2145C29.2609 27.4683 26.7084 32.0047 23.0496 34.0408C22.5969 34.2925 22.038 34.2614 21.6181 33.9558L20.8353 33.3855C17.6259 31.0438 15.6338 26.7623 15.6338 22.2113C15.6338 16.9575 18.1864 12.4227 21.8452 10.3866C22.2995 10.1349 22.8567 10.166 23.2767 10.4716L24.0595 11.0419C27.2689 13.3836 29.2626 17.6651 29.2626 22.2162L29.2609 22.2145Z" fill="black"></path>
</svg>