<svg width="24" height="24" viewBox="0 0 480 480" fill="none" xmlns="http://www.w3.org/2000/svg">
<g clip-path="url(#clip0_5666_20748)">
<path d="M240 480C372.548 480 480 372.548 480 240C480 107.452 372.548 0 240 0C107.452 0 0 107.452 0 240C0 372.548 107.452 480 240 480Z" fill="#FF0420"/>
<path d="M170.016 303.744C155.712 303.744 144 300.384 134.88 293.664C125.856 286.848 121.344 277.056 121.344 264.48C121.344 261.792 121.632 258.624 122.208 254.784C123.744 246.144 125.952 235.776 128.832 223.584C136.992 190.56 158.112 174.048 192.096 174.048C201.312 174.048 209.664 175.584 216.96 178.752C224.256 181.728 230.016 186.336 234.24 192.48C238.464 198.528 240.576 205.728 240.576 214.08C240.576 216.576 240.288 219.744 239.712 223.584C237.888 234.24 235.776 244.704 233.184 254.784C228.96 271.2 221.76 283.584 211.392 291.744C201.12 299.808 187.296 303.744 170.016 303.744ZM172.608 277.824C179.328 277.824 184.992 275.808 189.696 271.872C194.496 267.936 197.952 261.888 199.968 253.632C202.752 242.304 204.864 232.512 206.304 224.064C206.784 221.568 207.072 218.976 207.072 216.288C207.072 205.344 201.408 199.872 189.984 199.872C183.264 199.872 177.504 201.888 172.704 205.824C168 209.76 164.64 215.808 162.624 224.064C160.416 232.128 158.304 241.92 156.096 253.632C155.616 256.032 155.328 258.528 155.328 261.216C155.232 272.352 161.088 277.824 172.608 277.824Z" fill="white"/>
<path d="M248.928 302.016C247.584 302.016 246.624 301.632 245.856 300.768C245.28 299.808 245.088 298.752 245.28 297.504L270.144 180.384C270.336 179.04 271.008 177.984 272.16 177.12C273.216 176.256 274.368 175.872 275.616 175.872H323.52C336.864 175.872 347.52 178.656 355.584 184.128C363.744 189.696 367.872 197.664 367.872 208.128C367.872 211.104 367.488 214.272 366.816 217.536C363.84 231.36 357.792 241.536 348.576 248.16C339.552 254.784 327.168 258.048 311.424 258.048H287.136L278.88 297.504C278.592 298.848 278.016 299.904 276.864 300.768C275.808 301.632 274.656 302.016 273.408 302.016H248.928ZM312.672 233.184C317.76 233.184 322.08 231.84 325.824 229.056C329.664 226.272 332.16 222.336 333.408 217.152C333.792 215.136 333.984 213.312 333.984 211.776C333.984 208.32 332.928 205.632 330.912 203.808C328.896 201.888 325.344 200.928 320.448 200.928H298.848L292.032 233.184H312.672Z" fill="white"/>
</g>
<defs>
<clipPath id="clip0_5666_20748">
<rect width="480" height="480" fill="white"/>
</clipPath>
</defs>
</svg>
