<svg width="94" height="20" viewBox="0 0 94 20" fill="none" xmlns="http://www.w3.org/2000/svg">
<g id="Polkadot_Logo_Horizontal_Pink-White 1" clip-path="url(#clip0_2960_4156)">
<path id="Vector" d="M29.1314 2.98376C28.0332 2.98376 26.9748 3.12132 26.5438 3.23761C25.9165 3.41346 25.76 3.68716 25.6419 4.25442L23.1525 15.7059C23.1126 15.9399 23.0742 16.1356 23.0742 16.3313C23.0742 16.8985 23.4469 17.2687 24.0544 17.2687C24.7215 17.2687 24.9961 16.839 25.1326 16.1739L25.8382 12.9107C26.3276 12.9689 26.9748 13.0284 27.8967 13.0284C31.9538 13.0284 34.4831 10.8402 34.4831 7.53741C34.4831 4.6444 32.463 2.98376 29.1314 2.98376ZM27.7985 11.1522C27.1712 11.1522 26.6804 11.1324 26.2309 11.0742L27.5439 4.9961C27.955 4.93796 28.5638 4.85854 29.1912 4.85854C31.3478 4.85854 32.446 5.87535 32.446 7.55584C32.4445 9.70574 30.8755 11.1522 27.7985 11.1522Z" fill="white"/>
<path id="Vector_2" d="M92.9964 13.4964C92.6635 13.4964 92.4473 13.6921 92.0362 14.1417C91.3107 14.8848 90.8598 15.2946 90.2922 15.2946C89.7829 15.2946 89.5083 14.8848 89.5083 14.2197C89.5083 13.8481 89.5866 13.3986 89.6847 12.9107L90.4102 9.51003H92.5867C93.2724 9.51003 93.6849 9.11863 93.6849 8.41523C93.6849 8.02383 93.4303 7.73169 92.8428 7.73169H90.8014L91.1542 6.14905C91.194 5.91505 91.2325 5.6995 91.2325 5.50379C91.2325 4.95639 90.8597 4.56499 90.2523 4.56499C89.6051 4.56499 89.312 4.99468 89.174 5.65979L88.7231 7.73169H87.8013C87.0957 7.73169 86.6846 8.1231 86.6846 8.82649C86.6846 9.2179 86.9591 9.51003 87.5466 9.51003H88.3504L87.6249 12.871C87.5466 13.2426 87.4485 13.8481 87.4485 14.4735C87.4485 16.0562 88.2721 17.2091 90.0361 17.2091C91.0561 17.2091 91.9565 16.7014 92.6436 16.0944C93.3108 15.5088 93.8002 14.7855 93.8002 14.3161C93.8002 13.868 93.4474 13.4964 92.9964 13.4964Z" fill="white"/>
<path id="Vector_3" d="M47.9103 4.13671C47.9103 3.56945 47.5177 3.1979 46.9103 3.1979C46.263 3.1979 45.97 3.62759 45.832 4.2927L43.3823 15.6463C43.324 15.8803 43.2842 16.076 43.2842 16.2717C43.2842 16.839 43.6768 17.2091 44.2643 17.2091C44.9315 17.2091 45.2245 16.7794 45.3625 16.1143L47.8122 4.7621C47.852 4.52669 47.9103 4.33241 47.9103 4.13671Z" fill="white"/>
<path id="Vector_4" d="M82.9002 7.53599C79.7635 7.53599 77.6268 10.6431 77.6268 13.5943C77.6268 13.6496 77.6283 13.7049 77.6297 13.7588C77.1375 14.5033 76.5087 15.2748 76.0777 15.2748C75.7647 15.2748 75.6467 14.9812 75.6467 14.5317C75.6467 13.9843 75.8031 13.0653 75.9795 12.2641L77.6069 4.75927C77.6468 4.52528 77.6852 4.32958 77.6852 4.13388C77.6852 3.56662 77.3125 3.19507 76.705 3.19507C76.0379 3.19507 75.7647 3.62476 75.6267 4.28987L74.7448 8.35425C74.2739 7.86642 73.5868 7.53315 72.5483 7.53315C70.4657 7.53315 68.3703 9.13139 67.5538 11.5834C66.6547 13.9006 65.851 15.2719 65.2165 15.2719C64.9818 15.2719 64.8438 15.0762 64.8438 14.7444C64.8438 13.7673 65.3929 11.3834 65.6276 10.2305C65.7059 9.80076 65.7457 9.62491 65.7457 9.37106C65.7457 8.51167 64.3146 7.49486 62.4525 7.49486C60.2988 7.49486 58.3485 8.85486 57.3712 10.8743C55.9187 13.4326 54.5858 15.2719 53.9258 15.2719C53.6313 15.2719 53.5331 14.9004 53.4549 14.5487L52.967 11.8556L55.9657 9.4136C56.2402 9.17961 56.593 8.84635 56.593 8.41665C56.593 7.88911 56.2402 7.53741 55.7111 7.53741C55.3184 7.53741 54.9856 7.7714 54.6527 8.0451L50.1446 11.7578L51.6539 4.76211C51.6938 4.52812 51.7521 4.33242 51.7521 4.13671C51.7521 3.56946 51.3595 3.1979 50.7521 3.1979C50.1048 3.1979 49.8117 3.6276 49.6738 4.29271L47.2241 15.6463C47.1658 15.8803 47.126 16.076 47.126 16.2717C47.126 16.839 47.5186 17.2091 48.1061 17.2091C48.7733 17.2091 49.0663 16.7794 49.2043 16.1143L49.5187 14.6494L51.3609 13.1646L51.8119 15.4308C51.9882 16.3299 52.4591 17.2091 53.674 17.2091C54.8831 17.2091 55.8348 16.1086 56.7879 14.621C57.0767 16.1795 58.1891 17.2091 59.7312 17.2091C61.2803 17.2091 62.3387 16.2902 63.0244 15.0592V15.0989C63.0244 16.3696 63.6716 17.2091 64.8083 17.2091C65.8368 17.2091 66.6903 16.5908 67.4528 15.2776C67.8852 16.422 68.8526 17.2091 70.1983 17.2091C71.7859 17.2091 72.9225 16.2519 73.648 14.9231V15.0408C73.648 16.4476 74.3536 17.2105 75.5101 17.2105C76.5315 17.2105 77.3992 16.6192 78.1404 15.6577C78.7037 16.6192 79.7137 17.2105 81.0779 17.2105C84.2147 17.2105 86.3513 14.1034 86.3513 11.1324C86.3513 9.04063 85.0767 7.53599 82.9002 7.53599ZM63.3573 11.5039C62.7882 13.946 61.5734 15.3343 60.2006 15.3343C59.2788 15.3343 58.7695 14.6309 58.7695 13.5758C58.7695 11.5039 60.2789 9.27604 62.2975 9.27604C62.9049 9.27604 63.3757 9.45189 63.7869 9.70574L63.3573 11.5039ZM74.2753 10.4687C73.648 13.3418 72.2169 15.3343 70.6492 15.3343C69.7872 15.3343 69.2765 14.6692 69.2765 13.5758C69.2765 11.4855 70.7275 9.31575 72.6678 9.31575C73.4132 9.31575 73.9808 9.5696 74.3934 9.90144L74.2753 10.4687ZM81.3127 15.3343C80.176 15.3343 79.7052 14.5132 79.7052 13.478C79.7052 11.5819 81.0182 9.4136 82.6655 9.4136C83.8021 9.4136 84.273 10.2347 84.273 11.2699C84.273 13.1844 82.96 15.3343 81.3127 15.3343Z" fill="white"/>
<path id="Vector_5" d="M39.3632 7.53599C36.2265 7.53599 34.0898 10.6431 34.0898 13.5943C34.0898 15.7045 35.3644 17.2091 37.5395 17.2091C40.6762 17.2091 42.8129 14.102 42.8129 11.131C42.8129 9.04063 41.5383 7.53599 39.3632 7.53599ZM37.7757 15.3343C36.6391 15.3343 36.1682 14.5132 36.1682 13.478C36.1682 11.5819 37.4812 9.4136 39.1285 9.4136C40.2651 9.4136 40.736 10.2347 40.736 11.2699C40.7346 13.1844 39.4216 15.3343 37.7757 15.3343Z" fill="white"/>
<path id="Vector_6" d="M9.43102 4.19485C11.4289 4.19485 13.0486 3.2558 13.0486 2.09743C13.0486 0.939049 11.4289 0 9.43102 0C7.4331 0 5.81348 0.939049 5.81348 2.09743C5.81348 3.2558 7.4331 4.19485 9.43102 4.19485Z" fill="#E6007A"/>
<path id="Vector_7" d="M9.43102 19.9986C11.4289 19.9986 13.0486 19.0595 13.0486 17.9012C13.0486 16.7428 11.4289 15.8037 9.43102 15.8037C7.4331 15.8037 5.81348 16.7428 5.81348 17.9012C5.81348 19.0595 7.4331 19.9986 9.43102 19.9986Z" fill="#E6007A"/>
<path id="Vector_8" d="M4.38984 7.09818C5.3888 5.37335 5.38232 3.50526 4.37536 2.92568C3.36841 2.3461 1.7423 3.27451 0.743341 4.99934C-0.255616 6.72416 -0.249132 8.59226 0.757822 9.17184C1.76478 9.75142 3.39089 8.82301 4.38984 7.09818Z" fill="#E6007A"/>
<path id="Vector_9" d="M18.1178 14.9991C19.1168 13.2743 19.1109 11.4065 18.1046 10.8273C17.0983 10.2481 15.4728 11.1769 14.4738 12.9017C13.4749 14.6265 13.4808 16.4943 14.4871 17.0735C15.4933 17.6527 17.1189 16.7239 18.1178 14.9991Z" fill="#E6007A"/>
<path id="Vector_10" d="M4.37634 17.073C5.38329 16.4934 5.38978 14.6253 4.39082 12.9005C3.39186 11.1757 1.76575 10.2473 0.758799 10.8268C-0.248155 11.4064 -0.254639 13.2745 0.744317 14.9993C1.74327 16.7242 3.36938 17.6526 4.37634 17.073Z" fill="#E6007A"/>
<path id="Vector_11" d="M18.1056 9.1723C19.1119 8.59311 19.1178 6.72534 18.1188 5.00051C17.1199 3.27568 15.4943 2.34696 14.488 2.92615C13.4818 3.50534 13.4758 5.37311 14.4748 7.09794C15.4737 8.82277 17.0993 9.75149 18.1056 9.1723Z" fill="#E6007A"/>
</g>
<defs>
<clipPath id="clip0_2960_4156">
<rect width="93.8" height="20" fill="white"/>
</clipPath>
</defs>
</svg>
