<svg
  xmlns="http://www.w3.org/2000/svg"
  width="100%"
  viewBox="0 0 124 43"
  fill="none"
  class="footer_brand"
>
  <path
    fill-rule="evenodd"
    clip-rule="evenodd"
    d="M100.239 22.3797C100.239 15.1563 104.359 10.0261 111.552 10.0261C114.629 10.0261 117.421 11.4033 118.841 13.4002V0H124V34.3512H118.841V31.311C117.706 33.3078 114.818 34.7333 111.645 34.7333C104.356 34.7333 100.236 29.6031 100.236 22.3797H100.239ZM119.222 22.3797C119.222 17.6283 116.477 14.5399 112.31 14.5399C108.143 14.5399 105.398 17.6283 105.398 22.3797C105.398 27.131 108.143 30.2194 112.31 30.2194C116.477 30.2194 119.222 27.0829 119.222 22.3797ZM55.6033 25.895L51.3431 27.6993L51.3399 27.7025C52.4305 31.1215 55.744 34.7332 61.565 34.7332C66.9606 34.7332 70.5588 31.5517 70.5588 27.4167C70.5588 21.5776 65.8388 20.4445 62.0025 19.5235C59.3762 18.8931 57.1641 18.362 57.1641 16.4886C57.1641 14.9187 58.6769 14.0165 60.855 14.0165C63.0331 14.0165 65.2591 15.3457 65.8732 17.7213L70.1334 15.9171C69.0939 12.4017 65.3071 10.026 60.8102 10.026C55.6513 10.026 52.3858 12.8287 52.3858 16.5817C52.3858 21.752 56.7028 22.8818 60.4181 23.8542C63.2245 24.5887 65.6877 25.2333 65.6877 27.4617C65.6877 29.1728 64.031 30.5982 61.5682 30.5982C58.2547 30.5982 56.4093 28.4601 55.6033 25.895ZM91.7191 31.5967V43H96.878V10.4081H91.7191V13.4483C90.3917 11.4996 87.5996 10.026 84.2861 10.026C77.2337 10.026 73.0695 15.1562 73.0695 22.3796C73.0695 29.603 77.4224 34.7332 84.5707 34.7332C87.4589 34.7332 90.251 33.4972 91.7191 31.5967ZM85.1401 14.5398C89.3075 14.5398 92.0517 17.6282 92.0517 22.3796C92.0517 27.0829 89.3075 30.2194 85.1401 30.2194C80.9726 30.2194 78.2284 27.131 78.2284 22.3796C78.2284 17.6282 80.9726 14.5398 85.1401 14.5398ZM0 14.0744C0.943514 14.1996 1.89982 14.2702 2.87532 14.2702L2.87212 14.267C10.5482 14.267 17.3127 10.2925 21.2403 4.28907H34.1712V12.6554C32.8023 12.3889 31.2767 12.2348 29.5368 12.2348C22.3629 12.2348 18.7615 14.8352 15.2817 17.3522L15.2795 17.3538C12.0691 19.6743 9.03709 21.866 2.89131 21.866C1.84225 21.866 0.882745 21.8018 0 21.683V14.0744ZM0.00321654 10.8448C0.940334 10.9892 1.89984 11.0663 2.87853 11.0663C8.65796 11.0663 13.8329 8.43055 17.2775 4.29557H0.00321654V10.8448ZM17.1518 19.9543C20.3622 17.6338 23.3942 15.4421 29.54 15.4421C31.3183 15.4421 32.8375 15.6251 34.1744 15.9429V38.5923H0.00321654V24.916C0.901953 25.0187 1.85826 25.0733 2.89453 25.0733C10.0716 25.0733 13.6698 22.4729 17.1496 19.9559L17.1518 19.9543Z"
    fill="currentColor"
  ></path>
</svg>
