<?xml version="1.0" encoding="UTF-8"?> 
<svg xmlns="http://www.w3.org/2000/svg" width="1002" height="1002" viewBox="0 0 1002 1002" fill="none">
    <path d="M510.256 850.811c-104.625 0-189.44-84.815-189.44-189.44v-122.88c0-104.626 84.815-189.44 189.44-189.44 14.684 0 28.98 1.672 42.704 4.833 8.243 1.898 10.554 12.073 4.437 17.914l-110.159 105.215c-16.924 16.438-27.436 39.437-27.436 64.891v116.053c0 49.956 40.496 90.453 90.453 90.453 49.954 0 90.453-40.497 90.453-90.453v-39.291c0-7.54 6.113-13.653 13.653-13.653h71.68c7.54 0 13.653 6.113 13.653 13.653v42.704c0 104.625-84.814 189.44-189.44 189.44zM699.733 244.907c0-104.626-84.814-189.44-189.44-189.44s-189.44 84.814-189.44 189.44v42.667c0 7.54 6.113 13.653 13.653 13.653h71.68c7.54 0 13.653-6.113 13.653-13.653v-39.253c0-49.957 40.496-90.453 90.453-90.453s90.453 40.496 90.453 90.453v116.053c0 25.457-10.517 48.456-27.44 64.891l-110.159 105.215c-6.116 5.844-3.803 16.016 4.44 17.914 13.725 3.16 28.020 4.833 42.704 4.833 104.626 0 189.44-84.814 189.44-189.44v-122.88z" fill="currentColor"></path>
</svg> 