<?xml version="1.0" encoding="UTF-8"?> <svg xmlns="http://www.w3.org/2000/svg" width="1002" height="1002" viewBox="0 0 1002 1002" fill="none"><g clip-path="url(#clip0_62_118)"><path fill-rule="evenodd" clip-rule="evenodd" d="M1002 501C1002 777.696 777.696 1002 501 1002C224.305 1002 0 777.696 0 501C0 224.305 224.305 0 501 0C777.696 0 1002 224.305 1002 501ZM499.293 106.843C396.916 106.843 313.923 189.836 313.923 292.213V412.453C313.923 514.831 396.916 597.823 499.293 597.823C513.662 597.823 527.65 596.187 541.08 593.094C549.146 591.237 551.407 581.28 545.422 575.565L544.42 574.607L437.63 472.61C421.07 456.525 410.783 434.02 410.783 409.113V295.553C410.783 246.67 450.409 207.043 499.293 207.043C548.174 207.043 587.803 246.67 587.803 295.553V334C587.803 341.378 593.785 347.36 601.163 347.36H671.303C678.681 347.36 684.663 341.378 684.663 334V292.213C684.663 189.836 601.671 106.843 499.293 106.843ZM684.7 699.73C684.7 802.108 601.708 885.1 499.33 885.1C396.952 885.1 313.96 802.108 313.96 699.73V657.98C313.96 650.602 319.942 644.62 327.32 644.62H397.46C404.838 644.62 410.82 650.602 410.82 657.98V696.39C410.82 745.274 450.446 784.9 499.33 784.9C548.214 784.9 587.84 745.274 587.84 696.39V582.83C587.84 557.92 577.549 535.415 560.99 519.333L454.203 417.336L453.198 416.378C447.213 410.66 449.477 400.706 457.543 398.849C470.973 395.757 484.961 394.12 499.33 394.12C601.708 394.12 684.7 477.112 684.7 579.49V699.73Z" fill="black"></path></g><defs><clipPath id="clip0_62_118"><rect width="1002" height="1002" fill="white"></rect></clipPath></defs></svg> 