<svg width="24" height="24" viewBox="0 0 41 40" fill="none" xmlns="http://www.w3.org/2000/svg">
<path id="Vector" fill-rule="evenodd" clip-rule="evenodd" d="M24.4161 39.0112C24.4161 39.5568 24.9162 39.9774 25.4505 39.8296C34.1689 37.5562 40.6026 29.6449 40.6026 20.2444C40.6026 9.05942 31.509 0 20.3013 0C9.09352 0 0 9.05942 0 20.2444C0 29.8608 6.72921 37.92 15.7545 39.9774C16.2774 40.1024 16.7662 39.6932 16.7662 39.1476V34.3621C16.7662 33.9757 16.5047 33.6346 16.1296 33.5096C13.2765 32.5889 10.9577 30.9634 9.19582 28.6332C7.32028 26.1325 6.37683 23.2339 6.37683 19.9375C6.37683 15.584 8.01366 12.0148 11.2987 9.24128C14.0268 6.9338 17.1299 5.78575 20.6082 5.78575C25.0981 5.78575 28.7128 7.41121 31.4636 10.6508C33.6915 13.2765 34.7941 16.3001 34.7941 19.7216C34.7941 23.0862 33.8051 26.0984 31.8387 28.7582C30.1791 31.0089 27.9171 32.5889 25.0413 33.5096C24.6662 33.6233 24.4047 33.9643 24.4047 34.3621V39.0112H24.4161ZM24.166 22.9952C24.166 22.5178 23.7795 22.1313 23.3021 22.1313H17.9142C17.4368 22.1313 17.0503 22.5178 17.0503 22.9952V23.3249C17.0503 24.0637 16.2206 24.4275 15.8 23.825C15.0498 22.7452 14.6747 21.4607 14.6747 19.983C14.6747 18.3007 15.2657 16.8457 16.4365 15.6181C17.6187 14.3905 19.0055 13.7767 20.6196 13.7767C22.2223 13.7767 23.609 14.3905 24.7912 15.6181C25.9734 16.8457 26.5531 18.3007 26.5531 19.983C26.5531 21.4152 26.178 22.677 25.4391 23.7682C25.0185 24.382 24.1774 24.0183 24.1774 23.2794V22.9952H24.166Z" fill="#40BCFF"/>
</svg>
