<svg width="24" height="24" viewBox="0 0 24 24" fill="none" xmlns="http://www.w3.org/2000/svg">
<path fill-rule="evenodd" clip-rule="evenodd" d="M12.0004 1C18.022 1 22.9022 5.92422 22.9022 12C22.9022 18.0758 18.022 23 12.0004 23C5.97889 23 1.09863 18.0758 1.09863 12C1.09863 5.92422 5.97889 1 12.0004 1Z" fill="url(#paint0_radial_6113_32650)"/>
<path d="M8.02692 9.49502C10.22 7.33369 13.7802 7.33369 15.9733 9.49502L16.2373 9.75713C16.348 9.86455 16.348 10.0407 16.2373 10.1481L15.3345 11.0376C15.2792 11.0935 15.1897 11.0935 15.1344 11.0376L14.7724 10.681C13.2393 9.17275 10.7609 9.17275 9.22782 10.681L8.84029 11.0634C8.78493 11.1192 8.6955 11.1192 8.64014 11.0634L7.73734 10.1739C7.62662 10.0665 7.62662 9.89033 7.73734 9.78291L8.02692 9.49502ZM17.8428 11.3341L18.6476 12.1247C18.7584 12.2321 18.7584 12.4083 18.6476 12.5157L15.0236 16.0864C14.9129 16.1938 14.7341 16.1938 14.6276 16.0864L12.0555 13.5513C12.0299 13.5255 11.9831 13.5255 11.9575 13.5513L9.38538 16.0864C9.27466 16.1938 9.0958 16.1938 8.98934 16.0864L5.35257 12.5157C5.24185 12.4083 5.24185 12.2321 5.35257 12.1247L6.15743 11.3341C6.26815 11.2267 6.44701 11.2267 6.55347 11.3341L9.12561 13.8692C9.15116 13.895 9.19801 13.895 9.22356 13.8692L11.7957 11.3341C11.9064 11.2267 12.0853 11.2267 12.1917 11.3341L14.7639 13.8692C14.7894 13.895 14.8363 13.895 14.8618 13.8692L17.434 11.3341C17.5532 11.2267 17.7321 11.2267 17.8428 11.3341Z" fill="white"/>
<defs>
<radialGradient id="paint0_radial_6113_32650" cx="0" cy="0" r="1" gradientUnits="userSpaceOnUse" gradientTransform="translate(1.0987 12.0003) scale(21.8036 22)">
<stop stop-color="#5D9DF6"/>
<stop offset="1" stop-color="#006FFF"/>
</radialGradient>
</defs>
</svg>
