<svg width="24" height="24" viewBox="0 0 24 24" fill="none" xmlns="http://www.w3.org/2000/svg">
<path d="M10.8088 17.4799C10.931 17.4799 11.0506 17.5168 11.1522 17.5858C11.2539 17.6548 11.3331 17.7529 11.3799 17.8677C11.4267 17.9824 11.4389 18.1087 11.4151 18.2306C11.3912 18.3524 11.3324 18.4643 11.2459 18.5522C11.1594 18.64 11.0493 18.6998 10.9294 18.7241C10.8094 18.7483 10.6851 18.7359 10.5722 18.6883C10.4592 18.6408 10.3627 18.5603 10.2947 18.457C10.2268 18.3537 10.1905 18.2323 10.1905 18.108C10.1893 18.0252 10.2044 17.9429 10.235 17.8661C10.2656 17.7894 10.3111 17.7196 10.3688 17.661C10.4264 17.6024 10.4951 17.5562 10.5707 17.5251C10.6463 17.494 10.7272 17.4786 10.8088 17.4799ZM20.9207 13.4809C20.8392 13.4821 20.7583 13.4666 20.6827 13.4355C20.6072 13.4043 20.5386 13.3581 20.481 13.2995C20.4233 13.241 20.3779 13.1713 20.3472 13.0946C20.3165 13.0178 20.3013 12.9356 20.3024 12.8528C20.3135 12.6901 20.3823 12.5369 20.4959 12.4216C20.6096 12.3064 20.7604 12.2368 20.9207 12.2258C21.002 12.2247 21.0828 12.2401 21.1582 12.2712C21.2336 12.3023 21.302 12.3484 21.3596 12.4069C21.4171 12.4653 21.4625 12.5349 21.4931 12.6115C21.5238 12.6881 21.5389 12.7702 21.5378 12.8528C21.527 13.0156 21.4585 13.1689 21.3451 13.2844C21.2316 13.3998 21.0808 13.4696 20.9207 13.4809ZM20.9207 10.8142C20.3922 10.8244 19.8881 11.0422 19.5144 11.4219C19.1406 11.8017 18.9262 12.3138 18.9162 12.8507C18.9162 13.0865 18.9162 13.3212 18.9943 13.4788L12.4324 17.0073C12.2363 16.7218 11.9708 16.4927 11.6617 16.3423C11.3527 16.1919 11.0106 16.1253 10.6687 16.1491C10.3268 16.1728 9.99684 16.286 9.7108 16.4777C9.42476 16.6694 9.19243 16.9331 9.0364 17.2431L3.16232 14.108C2.54516 13.7939 2.08203 12.6963 2.15905 11.7499C2.15905 11.2794 2.39114 10.8924 2.62218 10.7306C2.70713 10.6919 2.79916 10.6719 2.89225 10.6719C2.98534 10.6719 3.07737 10.6919 3.16232 10.7306H3.23934C4.78381 11.5934 9.95528 14.2591 10.1093 14.4166C10.4184 14.5731 10.6495 14.6514 11.1907 14.3373L21.7699 8.77879C21.8593 8.7373 21.9355 8.67126 21.9899 8.58813C22.0444 8.50499 22.0749 8.40805 22.078 8.30825C22.078 7.9942 21.7699 7.83772 21.7699 7.83772C21.1517 7.52367 20.2254 7.13138 19.3762 6.6587C17.4466 5.71763 15.2861 4.69831 14.2817 4.22778C14.0369 4.07873 13.7569 4 13.4715 4C13.1861 4 12.9061 4.07873 12.6613 4.22778L12.4292 4.30602C8.10381 6.50221 2.31729 9.40367 2.00924 9.55801C1.39103 9.9503 1.08297 10.6566 1.00596 11.5184C0.927894 12.93 1.62312 14.4209 2.70341 14.9697L8.95622 18.2635C9.02299 18.7374 9.25399 19.1716 9.6077 19.4879C9.96141 19.8042 10.4146 19.9819 10.8858 19.9891C11.9661 19.9891 12.8902 19.1263 12.8902 18.0277L19.7602 14.2634C20.1463 14.5774 20.5324 14.6557 20.9956 14.6557C21.524 14.6455 22.0281 14.4277 22.4018 14.0479C22.7756 13.6682 22.99 13.1561 23 12.6192C22.8502 11.6727 22.0009 10.8153 20.9207 10.8153" fill="#3681FC"/>
</svg>
