<svg width="24" height="24" viewBox="0 0 24 24" fill="none" xmlns="http://www.w3.org/2000/svg">
<g clip-path="url(#clip0_544_692)">
<path fill-rule="evenodd" clip-rule="evenodd" d="M11.9958 0.599998C9.16475 0.601467 6.42656 1.60416 4.27081 3.42879C2.11507 5.25341 0.682345 7.78098 0.22883 10.5596C-0.224685 13.3381 0.330574 16.1865 1.79533 18.5953C3.26009 21.0042 5.53883 22.8165 8.22409 23.7081C8.8165 23.818 9.03964 23.4509 9.03964 23.1387C9.03964 22.8265 9.02779 21.9213 9.02384 20.9317C5.70634 21.6484 5.00532 19.5318 5.00532 19.5318C4.46425 18.1574 3.68227 17.7961 3.68227 17.7961C2.60013 17.0617 3.76324 17.0755 3.76324 17.0755C4.96188 17.1599 5.59182 18.2987 5.59182 18.2987C6.65421 20.111 8.38206 19.5868 9.06136 19.2805C9.16799 18.5127 9.47802 17.9905 9.81965 17.694C7.1696 17.3955 4.38526 16.3784 4.38526 11.835C4.36884 10.6567 4.80859 9.51714 5.61353 8.65219C5.4911 8.35375 5.08233 7.14817 5.73003 5.51064C5.73003 5.51064 6.73122 5.19256 9.01002 6.72603C10.9646 6.19454 13.0269 6.19454 14.9815 6.72603C17.2584 5.19256 18.2575 5.51064 18.2575 5.51064C18.9072 7.14425 18.4985 8.34982 18.376 8.65219C19.1835 9.51728 19.6242 10.6588 19.6063 11.8389C19.6063 16.3922 16.816 17.3955 14.162 17.6881C14.5886 18.0572 14.9697 18.7778 14.9697 19.8852C14.9697 21.4717 14.9559 22.7479 14.9559 23.1387C14.9559 23.4548 15.1711 23.8239 15.7753 23.7081C18.4609 22.8164 20.7399 21.0038 22.2046 18.5945C23.6693 16.1852 24.2243 13.3364 23.7703 10.5576C23.3163 7.77879 21.8828 5.25119 19.7264 3.42688C17.5699 1.60257 14.8311 0.600536 11.9997 0.599998H11.9958Z" fill="#F0F2DA"/>
<path d="M4.58643 17.6252C4.56076 17.6842 4.46597 17.7018 4.38896 17.6606C4.31195 17.6194 4.25469 17.5428 4.28233 17.4819C4.30998 17.421 4.40279 17.4053 4.4798 17.4466C4.55681 17.4878 4.61605 17.5663 4.58643 17.6252Z" fill="#F0F2DA"/>
<path d="M5.07027 18.1613C5.02938 18.1818 4.98259 18.1875 4.93792 18.1774C4.89326 18.1674 4.85349 18.1423 4.82541 18.1063C4.7484 18.0238 4.73259 17.9099 4.79183 17.8589C4.85107 17.8078 4.95772 17.8314 5.03473 17.9139C5.11174 17.9963 5.12951 18.1102 5.07027 18.1613Z" fill="#F0F2DA"/>
<path d="M5.54016 18.8426C5.46709 18.8936 5.34268 18.8426 5.27357 18.7405C5.25446 18.7222 5.23926 18.7002 5.22888 18.6759C5.21849 18.6516 5.21313 18.6255 5.21313 18.5991C5.21313 18.5727 5.21849 18.5466 5.22888 18.5223C5.23926 18.498 5.25446 18.4761 5.27357 18.4577C5.34663 18.4087 5.47104 18.4577 5.54016 18.5579C5.60927 18.658 5.61125 18.7915 5.54016 18.8426V18.8426Z" fill="#F0F2DA"/>
<path d="M6.17803 19.5023C6.11286 19.575 5.98056 19.5553 5.87195 19.4572C5.76334 19.359 5.73766 19.2255 5.80283 19.1548C5.86799 19.0841 6.0003 19.1037 6.11286 19.1999C6.22542 19.2962 6.24714 19.4316 6.17803 19.5023V19.5023Z" fill="#F0F2DA"/>
<path d="M7.07252 19.8871C7.0429 19.9794 6.90862 20.0207 6.77434 19.9814C6.64006 19.9421 6.5512 19.8322 6.57687 19.7379C6.60254 19.6437 6.73879 19.6005 6.87505 19.6437C7.0113 19.6869 7.09819 19.7909 7.07252 19.8871Z" fill="#F0F2DA"/>
<path d="M8.04812 19.9539C8.04812 20.0501 7.93755 20.1326 7.79537 20.1346C7.65319 20.1365 7.53668 20.058 7.53668 19.9618C7.53668 19.8656 7.64726 19.7831 7.78944 19.7811C7.93162 19.7792 8.04812 19.8557 8.04812 19.9539Z" fill="#F0F2DA"/>
<path d="M8.9564 19.8027C8.97417 19.899 8.87544 19.9991 8.73326 20.0227C8.59108 20.0462 8.46667 19.9893 8.4489 19.895C8.43113 19.8008 8.53381 19.6987 8.67204 19.6732C8.81027 19.6476 8.93863 19.7065 8.9564 19.8027Z" fill="#F0F2DA"/>
</g>
<defs>
<clipPath id="clip0_544_692">
<rect width="24" height="24" rx="6" fill="white"/>
</clipPath>
</defs>
</svg>
