<svg width="41" height="26" viewBox="0 0 41 26" fill="none" xmlns="http://www.w3.org/2000/svg">
<g id="Group">
<g id="Layer_4">
<path id="Vector" d="M37.037 1.31935C37.0507 4.65293 32.3394 4.73559 31.4814 2.17966C32.6381 0.966953 35.8434 -0.949452 37.037 1.31935Z" fill="#AB9DF2"/>
<path id="Vector_2" d="M37.3983 1.4522C38.3187 1.06673 39.8074 1.17852 40.7407 1.34331C39.4819 4.31144 37.0105 6.22917 34.5703 7.2208C35.4551 7.32584 35.8132 7.98885 35.2562 8.96217C34.9285 9.5346 34.1826 9.88827 33.6279 10.0502C33.1393 10.8731 32.7356 11.4273 31.9996 11.9004C31.3858 12.2946 30.6391 12.5808 30.0283 13.0983C30.6725 14.1863 30.9608 16.0761 31.2712 17.3433C31.5405 18.4458 32.3281 20.7181 31.9139 21.8061C30.3129 22.4922 28.8401 22.6734 27.2467 22.0104C25.4984 21.2828 23.8807 20.854 22.1978 19.7795C21.3396 19.2312 20.398 18.9999 19.5732 18.4323C19.8555 19.3776 20.3479 20.9985 20.1734 21.915C19.9086 23.3017 18.5724 22.8796 17.9456 23.4386C16.7157 22.7679 15.2178 22.4296 14.0228 21.7762C13.0561 21.2472 12.1418 20.4676 11.1759 19.9558C11.7374 19.3555 12.7776 19.0962 13.1472 18.2145C13.9431 16.3151 13.3376 13.7632 11.6046 15.3851C10.5704 16.3526 8.23182 16.5685 7.1483 17.4532C5.62924 15.4275 3.90758 13.7864 2.77777 11.249C3.89848 11.0235 5.10417 10.239 6.12016 9.7254C6.99199 10.0357 7.99661 9.75624 8.86236 9.9432C8.57175 8.67692 7.86306 7.52725 7.23404 6.46045C7.37593 6.33614 7.62557 6.30723 7.83423 6.24266C7.30764 5.5093 6.82582 4.65355 6.46313 3.84791C10.062 3.01626 13.5463 4.0898 17.0897 4.52538C18.6171 4.7133 20.2326 5.17394 21.8025 4.91278C23.5256 4.6256 25.2253 3.58483 26.9439 3.17141C28.4227 2.81581 30.237 3.56845 31.4859 2.54213C33.0118 4.56393 36.449 4.27964 37.399 1.45413L37.3983 1.4522Z" fill="#78DCE8"/>
<path id="Vector_3" d="M13.8613 17.6325C13.6729 19.1789 12.4955 19.1808 12.11 17.7168C11.8626 16.7755 12.233 14.4788 13.3909 15.2525C13.8275 15.5438 13.9512 16.5535 13.8613 17.6335V17.6325Z" fill="#F7AF39"/>
</g>
<g id="Layer_2">
<path id="Vector (Stroke)" fill-rule="evenodd" clip-rule="evenodd" d="M40.5282 1.4163C39.6582 1.28486 38.7739 1.29913 37.9071 1.45827L37.8793 1.3249C38.7946 1.15684 39.7294 1.14729 40.6471 1.29722L40.7406 1.31249L40.7002 1.3931C39.4552 3.87544 37.4939 5.80517 35.2443 6.7532L35.1851 6.62923C37.373 5.70718 39.2933 3.83585 40.5282 1.4163Z" fill="black"/>
<path id="Vector (Stroke)_2" fill-rule="evenodd" clip-rule="evenodd" d="M27.809 4.14435C28.9972 3.42525 30.1894 2.70363 31.4218 2.11841L31.4814 2.24337C30.2558 2.82536 29.07 3.54301 27.8813 4.26245C27.7104 4.3659 27.5394 4.46938 27.3682 4.5725C26.0081 5.39185 24.637 6.18787 23.1989 6.75324L23.1481 6.62448C24.5742 6.06382 25.9365 5.27338 27.2966 4.45402C27.4674 4.35112 27.6381 4.24777 27.809 4.14435Z" fill="black"/>
<path id="Vector (Stroke)_3" fill-rule="evenodd" clip-rule="evenodd" d="M37.9628 4.07249C36.8787 4.88992 35.7017 5.5314 34.4747 5.97288C34.4334 5.98777 34.3923 6.00241 34.3512 6.017C34.0517 6.12358 33.76 6.22737 33.4983 6.40553C33.6023 6.66793 33.8416 6.82164 34.0828 6.96131L34.0829 6.96134L35.1322 7.57025L35.0562 7.68003L34.0069 7.07115C33.7545 6.92498 33.4578 6.74009 33.347 6.40058L33.3332 6.3582L33.3712 6.33087C33.6605 6.12286 33.9873 6.00679 34.3002 5.89564C34.3413 5.88106 34.3821 5.86656 34.4226 5.85194L34.4226 5.85192C35.6349 5.41576 36.7991 4.78151 37.8725 3.97217L37.9628 4.07249Z" fill="black"/>
<path id="Vector (Stroke)_4" fill-rule="evenodd" clip-rule="evenodd" d="M10.6604 4.93309C10.5441 4.88708 10.4265 4.89297 10.316 4.92059L10.6604 4.93309ZM10.316 4.92059C10.2064 4.94796 10.099 4.99797 10.0017 5.04487L10.316 4.92059ZM10.0017 5.04487C9.58058 5.24678 9.15929 5.44869 8.73799 5.6506L8.73776 5.65071C8.31636 5.85267 7.89496 6.05464 7.47373 6.2566L7.40735 6.28843L7.44261 6.35428C8.45105 8.23756 9.34388 10.2336 10.1087 12.3149L10.2373 12.2652C9.47917 10.2021 8.59553 8.22234 7.59828 6.35239C7.99733 6.16106 8.39654 5.96974 8.79575 5.77841L8.79596 5.77831C9.21737 5.57634 9.63877 5.37438 10.06 5.17241L10.0601 5.17235C10.1581 5.12513 10.254 5.08104 10.3485 5.05743C10.442 5.03407 10.5291 5.03212 10.611 5.06452L10.6111 5.06454C10.7409 5.11575 10.8504 5.25066 10.9604 5.40756L10.9604 5.40761C11.1418 5.66593 11.3075 5.94392 11.4745 6.22439C11.5188 6.29869 11.5632 6.37316 11.6079 6.44748C11.8208 6.80068 12.0425 7.14918 12.3037 7.44782L12.3037 7.44784C12.6001 7.78631 12.9449 8.05778 13.2821 8.32317C13.3902 8.40823 13.4974 8.49266 13.602 8.57847C14.036 8.93447 14.4324 9.3194 14.6902 9.88552L14.8147 9.82594C14.5435 9.23028 14.1273 8.82893 13.6879 8.4685C13.5786 8.37885 13.4683 8.29204 13.3585 8.20556C13.0238 7.94201 12.693 7.68161 12.406 7.35376C12.1535 7.06515 11.9372 6.7259 11.7248 6.37346C11.6809 6.30059 11.6372 6.2271 11.5933 6.1534C11.4259 5.87238 11.2567 5.58845 11.072 5.32537C10.9648 5.17246 10.8338 5.0015 10.6604 4.93309" fill="black"/>
<path id="Vector (Stroke)_5" fill-rule="evenodd" clip-rule="evenodd" d="M33.3332 4.08714C31.2407 5.59261 29.134 7.10629 26.8911 8.23923C26.5328 8.42077 26.1706 8.59226 25.8097 8.76317C25.6339 8.84636 25.4585 8.92942 25.284 9.01344C23.3152 9.96304 21.3919 11.0662 19.5291 12.3149L19.4443 12.1971C21.3129 10.9446 23.2423 9.8379 25.2176 8.88514L25.2177 8.88511C25.3941 8.80019 25.5705 8.71668 25.7467 8.63328C26.1065 8.46288 26.4655 8.29291 26.822 8.11227L26.8221 8.11222C29.0528 6.98547 31.1501 5.47893 33.2444 3.97217L33.3332 4.08714Z" fill="black"/>
<path id="Vector (Stroke)_6" fill-rule="evenodd" clip-rule="evenodd" d="M13.935 13.4381C13.6551 13.3293 13.3195 13.3362 13.0921 13.4993L12.9629 13.4139C13.2597 13.201 13.6895 13.201 14.0231 13.3308C14.3516 13.4586 14.6047 13.6957 14.8103 13.9369C15.3219 14.5359 15.6475 15.2624 15.7407 16.0123L15.5622 16.0228C15.4712 15.2897 15.1529 14.5812 14.6559 13.9993L14.6559 13.9993C14.4532 13.7615 14.22 13.549 13.935 13.4381Z" fill="black"/>
<path id="Vector (Stroke)_7" fill-rule="evenodd" clip-rule="evenodd" d="M16.6665 16.1178C16.0162 16.5164 15.408 16.9997 14.8574 17.5542C14.7777 17.6346 14.6985 17.7173 14.6188 17.8005C14.4264 18.0015 14.2313 18.2052 14.021 18.3855L13.9714 18.3443L14.021 18.3855C14.021 18.3855 14.021 18.3855 14.021 18.3855C13.7982 18.5768 13.5587 18.7421 13.3224 18.905L13.3211 18.906L13.321 18.906C13.1216 19.0434 12.9223 19.1808 12.7231 19.3183C12.5238 19.4557 12.3245 19.5931 12.125 19.7306L12.0369 19.6395C12.2364 19.5021 12.4356 19.3647 12.6349 19.2273L12.636 19.2265C12.8349 19.0893 13.0338 18.9522 13.2329 18.815L13.2769 18.8605L13.2329 18.815C13.2329 18.815 13.2329 18.815 13.2329 18.815C13.4705 18.6511 13.7046 18.4895 13.9217 18.3031L13.9217 18.3031C14.127 18.1271 14.3152 17.9306 14.5057 17.7315C14.5864 17.6473 14.6675 17.5626 14.7505 17.4788L14.7505 17.4788C15.308 16.9174 15.9245 16.4274 16.5847 16.0227L16.6665 16.1178Z" fill="black"/>
<path id="Vector (Stroke)_8" fill-rule="evenodd" clip-rule="evenodd" d="M24.3489 4.25078C25.9977 3.34879 27.8387 2.77693 29.6295 3.17314L29.5965 3.30906C27.8582 2.92445 26.057 3.47719 24.4216 4.37183L24.3853 4.3113L24.4216 4.37183C24.221 4.48156 24.0187 4.59821 23.8153 4.71548C23.5167 4.88766 23.2158 5.06119 22.9144 5.21617C22.4041 5.47848 21.8781 5.69573 21.323 5.78154L21.323 5.78154C20.6304 5.88851 19.931 5.78321 19.2531 5.68058C16.9048 5.32525 14.5445 4.96722 12.2347 4.29157L12.2346 4.29156C12.0494 4.23729 11.865 4.18117 11.6809 4.12518C10.911 3.89094 10.1481 3.65883 9.36674 3.57261C8.40201 3.46615 7.40085 3.60121 6.56905 4.19621L6.48138 4.08456C7.3521 3.46172 8.39457 3.32487 9.38353 3.43401C10.1804 3.52194 10.9603 3.75931 11.7312 3.99396C11.9138 4.04952 12.0958 4.10493 12.2775 4.15817C14.5759 4.83048 16.9262 5.18721 19.276 5.54277L19.2646 5.61167L19.276 5.54277C19.958 5.64602 20.634 5.74661 21.2996 5.64381C21.8315 5.5616 22.3409 5.35252 22.845 5.09333C23.1453 4.93898 23.4387 4.76969 23.7335 4.59964C23.9371 4.48215 24.1414 4.3643 24.3489 4.25078Z" fill="black"/>
<path id="Vector (Stroke)_9" fill-rule="evenodd" clip-rule="evenodd" d="M33.2233 9.56616C33.8522 9.24655 34.4809 8.92706 35.1096 8.60718L35.1851 8.72473C34.5563 9.04466 33.9275 9.36422 33.2985 9.68388C32.9435 9.86426 32.5885 10.0447 32.2334 10.2252L32.2334 10.2252C31.1956 10.7525 30.0956 11.3667 29.6403 12.5437L29.6403 12.5438C29.5257 12.8391 29.4598 13.1646 29.494 13.4803L29.494 13.4804C29.5217 13.7373 29.6132 13.9783 29.7068 14.2251L29.7106 14.2352C30.524 16.3758 31.2251 18.5749 31.809 20.8155L31.8212 20.8622L31.7757 20.8879C30.8287 21.4233 29.7563 21.6604 28.7036 21.5635L28.7193 21.4288C29.7188 21.5208 30.7398 21.3013 31.6485 20.7991C31.0682 18.579 30.3726 16.4 29.5665 14.2785L29.5665 14.2785L29.5604 14.2624C29.4683 14.0199 29.372 13.766 29.3426 13.4933C29.3057 13.1531 29.377 12.8076 29.4965 12.4996C29.9723 11.2696 31.122 10.634 32.1579 10.1076C32.5132 9.92703 32.8682 9.74658 33.2233 9.56616Z" fill="black"/>
<path id="Vector (Stroke)_10" fill-rule="evenodd" clip-rule="evenodd" d="M21.7763 17.3034C21.9604 17.0874 22.1805 16.93 22.438 16.9517L22.4382 16.9517C22.6122 16.9669 22.7735 17.0667 22.9154 17.1544L22.9214 17.1582C24.8215 18.3393 26.7216 19.5193 28.6217 20.6993L28.7036 20.7502L28.641 20.8218C28.3772 21.1232 28.0886 21.3797 27.7833 21.5845L27.7125 21.4535C27.983 21.272 28.2407 21.048 28.4793 20.786C26.6044 19.6216 24.7295 18.4572 22.8546 17.2918C22.7052 17.1994 22.5687 17.1166 22.4276 17.1042C22.2308 17.0877 22.0486 17.206 21.8759 17.4087C21.7037 17.6108 21.5515 17.8845 21.4156 18.1508L21.2962 18.0751C21.4326 17.808 21.5917 17.52 21.7763 17.3034Z" fill="black"/>
<path id="Vector (Stroke)_11" fill-rule="evenodd" clip-rule="evenodd" d="M20.219 21.5591C19.8798 20.3833 19.6528 19.1464 19.5453 17.8894L19.6791 17.8767C19.7869 19.1383 20.0162 20.3792 20.3588 21.5571L20.3702 21.5964L20.3434 21.6263C19.748 22.2899 19.0985 22.8609 18.4105 23.3263L18.4104 23.3264C18.3681 23.3548 18.3195 23.3866 18.2682 23.4087C18.2164 23.431 18.1573 23.4456 18.0943 23.435L18.0943 23.435C18.0245 23.4232 17.9661 23.3837 17.9176 23.3404C17.8757 23.3029 17.8363 23.2578 17.801 23.2174C17.7958 23.2114 17.7907 23.2055 17.7856 23.1998L17.7856 23.1998C17.121 22.4419 16.0655 22.0532 14.9757 21.6822C14.9122 21.6606 14.8486 21.6391 14.7849 21.6175C13.7652 21.272 12.7357 20.9232 12.0369 20.2719L12.126 20.1662C12.8028 20.797 13.8063 21.1372 14.8359 21.4863C14.8962 21.5068 14.9566 21.5273 15.0171 21.5479C16.1001 21.9165 17.1918 22.3143 17.8843 23.104L17.8349 23.1519L17.8843 23.1039C17.8843 23.104 17.8843 23.104 17.8843 23.104C17.8897 23.1102 17.8951 23.1163 17.9004 23.1224C17.9363 23.1634 17.9695 23.2013 18.0046 23.2328C18.0446 23.2685 18.0806 23.2896 18.1156 23.2955C18.1156 23.2955 18.1155 23.2955 18.1155 23.2955L18.105 23.3646L18.1156 23.2955C18.1459 23.3006 18.179 23.2945 18.2173 23.278C18.2561 23.2613 18.2955 23.236 18.338 23.2074C18.3379 23.2075 18.3379 23.2075 18.3378 23.2075L18.3742 23.2669L18.338 23.2074C18.338 23.2074 18.338 23.2074 18.338 23.2074C19.0059 22.7556 19.6379 22.2021 20.219 21.5591ZM20.219 21.5591C20.2228 21.5722 20.2266 21.5853 20.2304 21.5985L20.2946 21.5778L20.2458 21.5293C20.2368 21.5393 20.2279 21.5492 20.219 21.5591Z" fill="black"/>
<path id="Vector (Stroke)_12" fill-rule="evenodd" clip-rule="evenodd" d="M10.8822 15.252C10.1889 15.5729 9.49547 15.8939 8.80227 16.2146C8.34797 16.4252 7.89753 16.6342 7.49267 16.9498L7.40735 16.846C7.82503 16.5204 8.28806 16.3057 8.73883 16.0967L8.7436 16.0945C9.43648 15.7739 10.1296 15.4531 10.8227 15.1323L10.8243 15.1316C11.5177 14.8106 12.2111 14.4897 12.9043 14.1689L12.9629 14.2891C12.2697 14.6098 11.5764 14.9307 10.883 15.2516L10.8822 15.252Z" fill="black"/>
<path id="Vector (Stroke)_13" fill-rule="evenodd" clip-rule="evenodd" d="M14.8147 14.2987C14.5185 14.5186 14.236 14.7853 13.9717 15.0959L13.8888 14.986C14.1593 14.6681 14.4488 14.3947 14.7529 14.1689L14.8147 14.2987Z" fill="black"/>
<path id="Vector (Stroke)_14" fill-rule="evenodd" clip-rule="evenodd" d="M13.8888 13.3623C13.6371 14.023 13.3502 14.6079 13.0365 15.0959L12.9629 14.9358C13.2685 14.4603 13.5489 13.8891 13.7954 13.2419L13.8888 13.3623Z" fill="black"/>
<path id="Vector (Stroke)_15" fill-rule="evenodd" clip-rule="evenodd" d="M14.8147 15.2454C14.5155 15.4329 14.2309 15.6949 13.9717 16.0229L13.8888 15.9026C14.1568 15.5634 14.4521 15.2913 14.7637 15.0959L14.8147 15.2454Z" fill="black"/>
<path id="Vector (Stroke)_16" fill-rule="evenodd" clip-rule="evenodd" d="M6.83078 9.5798C6.83347 9.58053 6.83615 9.58125 6.83882 9.58197L6.83901 9.58202C7.53633 9.77189 8.23418 9.96101 8.93168 10.15C9.04085 10.1796 9.15001 10.2092 9.25916 10.2388L9.22852 10.3794C9.1194 10.3499 9.01026 10.3203 8.90112 10.2907C8.20363 10.1017 7.50572 9.91253 6.80832 9.72264C6.69683 9.69268 6.59934 9.6671 6.50525 9.68443L6.50512 9.68445C6.41827 9.70023 6.33396 9.75074 6.23889 9.80846C5.83787 10.0547 5.43702 10.3009 5.03616 10.5471L5.0358 10.5473C4.65683 10.78 4.27786 11.0128 3.89875 11.2455C4.56284 12.2154 5.51199 13.8277 6.32594 15.2104C6.69513 15.8375 7.03651 16.4174 7.31085 16.8687L7.20346 16.9499C6.92657 16.4945 6.58336 15.9114 6.21297 15.2822C5.38129 13.8694 4.41257 12.2238 3.74993 11.267L3.70361 11.2001L3.76999 11.1594C4.17118 10.9131 4.57219 10.6668 4.97321 10.4205L4.97457 10.4197C5.37513 10.1736 5.7757 9.92762 6.17645 9.6816L6.17671 9.68144L6.18227 9.67806C6.27162 9.62379 6.37383 9.56169 6.48419 9.54162C6.60574 9.51926 6.72666 9.55179 6.83078 9.5798Z" fill="black"/>
<path id="Vector (Stroke)_17" fill-rule="evenodd" clip-rule="evenodd" d="M21.3133 8.6072C21.4262 8.60597 21.5226 8.66264 21.5913 8.70794L21.5916 8.70814C21.8582 8.88576 22.0781 9.13631 22.2221 9.42686L22.0755 9.47363C21.94 9.20034 21.7348 8.96809 21.4909 8.80562C21.4208 8.75939 21.3649 8.73328 21.3156 8.73377C21.2746 8.73435 21.2306 8.75344 21.1659 8.78461C20.8364 8.9441 20.5067 9.10323 20.1769 9.26245C20.0345 9.33121 19.892 9.4 19.7495 9.46883C20.1023 9.67264 20.3598 10.038 20.4399 10.4412L20.284 10.4611C20.2015 10.0453 19.919 9.6856 19.5613 9.52197L19.4443 9.46847L19.5597 9.41277C19.7384 9.3264 19.9171 9.24016 20.0956 9.15395C20.4254 8.99474 20.7549 8.83567 21.0845 8.6762L21.0846 8.67616C21.0864 8.67529 21.0882 8.67441 21.09 8.67352C21.1456 8.64664 21.2248 8.60838 21.3131 8.6072L21.3133 8.6072Z" fill="black"/>
<path id="Vector (Stroke)_18" fill-rule="evenodd" clip-rule="evenodd" d="M27.2254 5.43321C27.1009 5.30236 26.9765 5.1715 26.8517 5.04027L27.0304 4.89917C27.1552 5.03039 27.2796 5.16124 27.404 5.29209C27.5285 5.42294 27.6529 5.5538 27.7777 5.68504L27.599 5.82614C27.4743 5.69501 27.35 5.56427 27.2257 5.43351L27.2254 5.43321Z" fill="black"/>
<path id="Vector (Stroke)_19" fill-rule="evenodd" clip-rule="evenodd" d="M19.4443 8.74773C18.1499 9.55095 16.934 10.6512 15.7347 11.7885L15.7347 11.7885C15.7107 11.8112 15.6867 11.834 15.6627 11.8568C15.1143 12.3771 14.5544 12.9083 13.9416 13.242L13.8888 13.098C14.4869 12.7723 15.0355 12.2519 15.5878 11.7279C15.6103 11.7066 15.6327 11.6853 15.6552 11.664C16.8548 10.5265 18.0791 9.41785 19.3856 8.60718L19.4443 8.74773Z" fill="black"/>
<path id="Vector (Stroke)_20" fill-rule="evenodd" clip-rule="evenodd" d="M19.1917 12.3149L19.2261 12.3497C19.9753 13.1059 20.6699 13.9622 21.2962 14.9033L21.1816 14.9859C20.5699 14.0665 19.8927 13.2293 19.1635 12.4886C18.8536 12.6387 18.5437 12.7891 18.2338 12.9394C17.7939 13.1528 17.354 13.3663 16.9139 13.5793C16.8671 13.6024 16.8409 13.6182 16.8258 13.6472L16.8257 13.6474C16.8078 13.6814 16.8053 13.7322 16.8061 13.8025L16.8061 13.8029C16.8106 14.6364 16.8152 15.4697 16.8198 16.3029C16.8244 17.1361 16.829 17.9694 16.8335 18.8029L16.6941 18.8037C16.6897 17.9702 16.6851 17.137 16.6804 16.3038C16.6758 15.4706 16.6712 14.6374 16.6668 13.804C16.6661 13.7411 16.6651 13.6508 16.7033 13.578C16.7422 13.5034 16.8089 13.4706 16.8522 13.4493C16.853 13.4489 16.8537 13.4486 16.8544 13.4482L16.8549 13.448C17.2951 13.2349 17.7349 13.0215 18.1748 12.8081C18.4992 12.6507 18.8237 12.4933 19.1482 12.336L19.1917 12.3149Z" fill="black"/>
<path id="Vector (Stroke)_21" fill-rule="evenodd" clip-rule="evenodd" d="M19.4444 16.1665C18.8293 16.6517 18.2298 17.2228 17.6523 17.8766L17.5925 17.7461C18.1743 17.0874 18.7784 16.5118 19.3985 16.0227L19.4444 16.1665Z" fill="black"/>
<path id="Vector (Stroke)_22" fill-rule="evenodd" clip-rule="evenodd" d="M19.4444 15.2243C18.8343 15.4199 18.2391 15.6876 17.6695 16.0229L17.5925 15.908C18.1712 15.5674 18.7765 15.295 19.3975 15.0959L19.4444 15.2243Z" fill="black"/>
<path id="Vector (Stroke)_23" fill-rule="evenodd" clip-rule="evenodd" d="M18.5184 14.3589C17.9143 14.5059 17.3212 14.7533 16.756 15.0959L16.6666 14.9263C17.2465 14.5747 17.8562 14.3203 18.4782 14.1689L18.5184 14.3589Z" fill="black"/>
<path id="Vector (Stroke)_24" fill-rule="evenodd" clip-rule="evenodd" d="M20.3703 6.84876C18.789 7.27099 17.2609 7.86225 15.8287 8.60711L15.7407 8.52508C17.1831 7.77489 18.7231 7.17895 20.3176 6.75317L20.3703 6.84876Z" fill="black"/>
<path id="Vector (Stroke)_25" fill-rule="evenodd" clip-rule="evenodd" d="M8.84138 3.97217L8.81828 4.09375C8.78783 4.25397 8.83186 4.42357 8.92014 4.55432C9.00944 4.68657 9.13497 4.76726 9.2592 4.77314L9.25131 4.89913C9.06011 4.89008 8.8979 4.77053 8.79505 4.61822C8.71213 4.49542 8.66194 4.34364 8.66363 4.18974C8.48431 4.26712 8.30488 4.3445 8.12546 4.42187L8.12537 4.42191C7.90746 4.51588 7.68953 4.60986 7.47183 4.70382L7.40735 4.59079C7.62498 4.49686 7.8428 4.40293 8.06061 4.309L8.06126 4.30872C8.27907 4.21479 8.49687 4.12087 8.71447 4.02695L8.84138 3.97217Z" fill="black"/>
<path id="Vector (Stroke)_26" fill-rule="evenodd" clip-rule="evenodd" d="M9.36273 13.2419C9.59173 13.5757 9.87124 13.8634 10.1851 14.0896L10.1078 14.1689C9.78259 13.9344 9.49446 13.6375 9.25916 13.2945L9.36273 13.2419Z" fill="black"/>
<path id="Vector (Stroke)_27" fill-rule="evenodd" clip-rule="evenodd" d="M15.7144 18.8037C15.3931 18.6712 15.0853 18.3991 14.8147 18.0107L14.8857 17.8767C15.1446 18.2484 15.4374 18.5061 15.7406 18.6312L15.7144 18.8037Z" fill="black"/>
<path id="Vector (Stroke)_28" fill-rule="evenodd" clip-rule="evenodd" d="M32.9225 10.0876C33.0167 9.90305 33.1109 9.71848 33.2051 9.53418L33.3332 9.61244C33.239 9.79667 33.1449 9.98118 33.0507 10.1657L33.0506 10.1658C32.9564 10.3504 32.8622 10.5349 32.768 10.7192C32.586 11.0755 32.3905 11.4575 32.1155 11.7057C31.9783 11.8298 31.8295 11.9138 31.6804 11.9831C31.6059 12.0177 31.5307 12.0489 31.4569 12.0793L31.4464 12.0837C31.3758 12.1128 31.3066 12.1414 31.2384 12.1724C30.7046 12.4167 30.214 12.8274 29.7188 13.242L29.6295 13.1147L29.6376 13.1079C30.1269 12.6982 30.6303 12.2768 31.1817 12.0244L31.1819 12.0243C31.2525 11.9922 31.3238 11.9628 31.3939 11.9338L31.405 11.9292C31.4791 11.8987 31.5516 11.8685 31.623 11.8354C31.7654 11.7693 31.8999 11.6924 32.0219 11.5821L32.022 11.582C32.2717 11.3566 32.4545 11.0039 32.6399 10.6409C32.7341 10.4567 32.8283 10.2722 32.9225 10.0876Z" fill="black"/>
<path id="Vector (Stroke)_29" fill-rule="evenodd" clip-rule="evenodd" d="M22.2221 12.3149L22.7337 12.6058C23.4449 13.0102 24.2125 13.2891 24.9999 13.4297L24.9583 13.5943C24.3157 13.4796 23.6873 13.276 23.0916 12.991C23.1993 13.1091 23.3069 13.2273 23.4145 13.3454C23.6336 13.5859 23.8526 13.8263 24.0719 14.0664L23.913 14.1689C23.6937 13.9287 23.4746 13.6882 23.2555 13.4478C23.0365 13.2073 22.8175 12.9669 22.5982 12.7268L22.2221 12.3149Z" fill="black"/>
<path id="Vector (Stroke)_30" fill-rule="evenodd" clip-rule="evenodd" d="M27.7776 9.53418L28.5216 10.3062C28.5249 10.1562 28.5281 10.006 28.5314 9.85522L28.6754 9.85956C28.6709 10.0712 28.6663 10.2817 28.6617 10.4922L28.6577 10.6738L28.2459 10.2464C28.2939 10.3581 28.3419 10.4699 28.3899 10.5816C28.4944 10.8249 28.5989 11.0682 28.7036 11.3112L28.5751 11.3881C28.4704 11.1451 28.3659 10.9017 28.2614 10.6585C28.1569 10.4152 28.0524 10.1719 27.9477 9.92897L27.7776 9.53418Z" fill="black"/>
<path id="Vector (Stroke)_31" fill-rule="evenodd" clip-rule="evenodd" d="M29.7701 14.1689C29.9805 15.7731 30.3916 17.3331 30.9118 18.8349L30.8517 18.8523L30.9118 18.8349C30.9479 18.939 30.9846 19.0432 31.0214 19.1476C31.1921 19.6321 31.3644 20.1211 31.4814 20.6312L31.3428 20.6577C31.2275 20.1549 31.0579 19.6736 30.8873 19.1894C30.8504 19.0845 30.8133 18.9794 30.7768 18.8739L30.8443 18.8544L30.7768 18.8739C30.2546 17.3664 29.8412 15.7983 29.6295 14.1843L29.7701 14.1689Z" fill="black"/>
<path id="Vector (Stroke)_32" fill-rule="evenodd" clip-rule="evenodd" d="M11.1535 3.97217C13.593 4.64043 16.0493 5.21152 18.5184 5.68644L18.4879 5.8261C16.0147 5.3504 13.5544 4.77837 11.111 4.10902L11.1535 3.97217Z" fill="black"/>
<path id="Vector (Stroke)_33" fill-rule="evenodd" clip-rule="evenodd" d="M27.7242 21.5846C24.9314 20.4982 22.169 19.298 19.4443 17.9872L19.5079 17.8767C22.2293 19.1859 24.9883 20.3847 27.7777 21.4696L27.7242 21.5846Z" fill="black"/>
<path id="Vector (Stroke)_34" fill-rule="evenodd" clip-rule="evenodd" d="M8.16106 5.8261C7.523 5.2845 6.95819 4.68059 6.48138 4.03205L6.67681 3.97217C7.1476 4.61253 7.70477 5.2081 8.33323 5.74156L8.16106 5.8261Z" fill="black"/>
<path id="Vector (Stroke)_35" fill-rule="evenodd" clip-rule="evenodd" d="M26.8517 6.49872C27.4518 5.9944 28.0489 5.46122 28.6415 4.89917L28.7036 5.14827C28.1091 5.71219 27.51 6.24713 26.9079 6.7531L26.8517 6.49872Z" fill="black"/>
<path id="Vector (Stroke)_36" fill-rule="evenodd" clip-rule="evenodd" d="M38.7526 3.04534C38.693 2.32728 38.3883 1.66637 37.9628 1.31082L38.0456 1.19141C38.5077 1.57757 38.8265 2.28099 38.8888 3.03173L38.7526 3.04534Z" fill="black"/>
<path id="Vector (Stroke)_37" fill-rule="evenodd" clip-rule="evenodd" d="M4.62958 21.4445C7.10685 19.75 9.55179 17.9419 11.9615 16.0227L12.037 16.1569C9.6247 18.0781 7.17714 19.8881 4.69716 21.5845L4.62958 21.4445Z" fill="white"/>
<path id="Vector (Stroke)_38" fill-rule="evenodd" clip-rule="evenodd" d="M12.1507 18.3864C12.3913 18.2166 12.6319 18.0467 12.8725 17.8767L12.9629 17.9935C12.7222 18.1636 12.4816 18.3334 12.241 18.5033C11.8648 18.7688 11.4888 19.0343 11.113 19.3001L11.1129 19.3002C9.35345 20.5429 7.56362 21.8035 5.60939 22.5115L5.55548 22.3757C7.48661 21.676 9.25956 20.4285 11.0225 19.1833C11.3983 18.9175 11.7745 18.652 12.1507 18.3864Z" fill="white"/>
<path id="Vector (Stroke)_39" fill-rule="evenodd" clip-rule="evenodd" d="M8.46806 19.324C9.61984 18.4872 10.7756 17.6476 11.9709 16.9497L12.0369 17.092C10.8483 17.786 9.69898 18.6209 8.54699 19.4578C8.34223 19.6065 8.13738 19.7553 7.93221 19.9034C6.5744 20.8835 5.2035 21.8313 3.75901 22.5115L3.70361 22.3636C5.13552 21.6893 6.49723 20.7484 7.85477 19.7685C8.05921 19.621 8.26357 19.4725 8.46806 19.324Z" fill="white"/>
<path id="Vector (Stroke)_40" fill-rule="evenodd" clip-rule="evenodd" d="M22.2221 25.1781C24.3083 23.8364 26.451 22.6357 28.6395 21.5847L28.7036 21.7079C26.5207 22.7562 24.3832 23.954 22.3018 25.2926L22.2221 25.1781Z" fill="white"/>
<path id="Vector (Stroke)_41" fill-rule="evenodd" clip-rule="evenodd" d="M6.40834 3.97295L6.40951 3.97217L6.48141 4.09624L6.48015 4.09707C5.62918 4.6594 4.77823 5.22171 3.9273 5.78503L3.92728 5.78503C3.62881 5.98254 3.32443 6.18366 3.00362 6.3294L3.00353 6.32944C2.8033 6.42005 2.5996 6.48778 2.39732 6.54983C2.33789 6.56807 2.27877 6.58575 2.21991 6.60337C2.07719 6.64607 1.93591 6.68834 1.79505 6.73689L1.79504 6.73689C1.19806 6.94255 0.619758 7.2608 0.080335 7.68003L-6.10352e-05 7.56206C0.550288 7.13434 1.14146 6.80875 1.75308 6.59804C1.89663 6.54857 2.04196 6.50508 2.18575 6.46206C2.24403 6.44462 2.30205 6.42726 2.3596 6.40961C2.56035 6.34802 2.7577 6.28222 2.95018 6.19512C3.25974 6.05449 3.5553 5.85955 3.85532 5.66102C4.70634 5.09764 5.55735 4.53529 6.40834 3.97295Z" fill="white"/>
<path id="Vector (Stroke)_42" fill-rule="evenodd" clip-rule="evenodd" d="M4.16059 6.36257C5.18326 5.75719 6.25512 5.26628 7.3568 4.89917L7.40735 5.02223C6.31646 5.38575 5.25446 5.87206 4.24062 6.47222C4.09968 6.55569 3.95858 6.64202 3.8168 6.72877C3.20277 7.10448 2.57605 7.48794 1.89537 7.68007L1.85181 7.55486C2.5099 7.36911 3.11418 6.99962 3.72719 6.62479C3.8709 6.53691 4.0151 6.44875 4.16058 6.36258L4.16059 6.36257Z" fill="white"/>
<path id="Vector (Stroke)_43" fill-rule="evenodd" clip-rule="evenodd" d="M24.2627 23.4206C25.4141 22.8093 26.5662 22.197 27.7183 21.5847L27.7777 21.7147C26.6256 22.327 25.4735 22.9393 24.3221 23.5506L24.3221 23.5506C23.9309 23.758 23.5425 23.9697 23.2537 24.3656L23.1481 24.276C23.4582 23.8508 23.874 23.6267 24.2627 23.4206Z" fill="white"/>
<path id="Vector (Stroke)_44" fill-rule="evenodd" clip-rule="evenodd" d="M8.76426 6.78654C8.58542 6.50603 8.39259 6.20357 8.33325 5.84669L8.49219 5.82617C8.5471 6.15642 8.72648 6.43804 8.90845 6.7237C8.91563 6.73497 8.92281 6.74624 8.92999 6.75752C9.82929 8.16646 10.5651 9.71539 11.111 11.3479L10.9569 11.388C10.4142 9.76508 9.68303 8.22606 8.78996 6.82688L8.7899 6.82679C8.7814 6.81343 8.77285 6.80001 8.76426 6.78654Z" fill="black"/>
<path id="Vector (Stroke)_45" fill-rule="evenodd" clip-rule="evenodd" d="M17.0174 18.8038L16.6666 14.1726L17.2417 14.1689L17.5925 18.8002L17.0174 18.8038Z" fill="black"/>
<path id="Vector (Stroke)_46" fill-rule="evenodd" clip-rule="evenodd" d="M11.111 20.6577H11.2577V20.9572C12.2434 21.4661 13.2291 21.9752 14.2148 22.4843L14.215 22.4844C15.2136 23.0002 16.2122 23.516 17.2109 24.0315C17.405 24.1315 17.5849 24.2218 17.7699 24.2244C17.9637 24.2271 18.1547 24.1335 18.3573 24.026C18.8072 23.7865 19.2502 23.5254 19.6848 23.2437C19.8684 23.1248 20.0424 23.0029 20.1472 22.8039C20.1985 22.7065 20.2267 22.582 20.2233 22.4632C20.2199 22.3434 20.1849 22.2393 20.1216 22.1738L20.229 22.0777C20.3251 22.1772 20.366 22.3196 20.3699 22.4593C20.3739 22.6 20.3411 22.748 20.278 22.8676C20.1543 23.1026 19.9502 23.2419 19.7667 23.3607C19.3286 23.6446 18.882 23.9079 18.4282 24.1495L18.4281 24.1495C18.2309 24.2542 18.0065 24.3688 17.7679 24.3655C17.5422 24.3623 17.3314 24.2537 17.1453 24.1578L17.1416 24.1559C16.143 23.6403 15.1443 23.1245 14.1456 22.6087C13.147 22.0929 12.1483 21.5771 11.1497 21.0616L11.111 21.0416V20.6577Z" fill="black"/>
<path id="Vector (Stroke)_47" fill-rule="evenodd" clip-rule="evenodd" d="M7.54875 17.823C6.12543 15.8675 4.83681 13.7332 3.70361 11.4544L3.82795 11.3879C4.9473 13.6388 6.21853 15.7479 7.62139 17.6819C9.03141 16.7451 10.4892 15.9434 11.982 15.2828L12.0369 15.4163C10.5323 16.0821 9.063 16.8921 7.64243 17.8403L7.58785 17.8767L7.54875 17.823Z" fill="black"/>
<path id="Vector (Stroke)_48" fill-rule="evenodd" clip-rule="evenodd" d="M26.7903 22.5115C24.3291 21.0713 21.88 19.5771 19.4443 18.0291L19.51 17.8767C21.9442 19.4239 24.392 20.9172 26.8517 22.3566L26.7903 22.5115Z" fill="black"/>
<path id="Vector (Stroke)_49" fill-rule="evenodd" clip-rule="evenodd" d="M31.48 21.7886C31.4805 21.8562 31.4809 21.9239 31.4813 21.9918L31.4814 22.0189L31.4519 22.0328C30.5991 22.436 29.6369 22.5911 28.7036 22.4732L28.7228 22.3792C29.6155 22.492 30.5377 22.347 31.3602 21.9649C31.3599 21.9061 31.3595 21.8474 31.3591 21.7887C31.3586 21.7209 31.3581 21.6531 31.3578 21.5851L31.4787 21.5847C31.479 21.6526 31.4795 21.7203 31.48 21.788L31.48 21.7882L31.48 21.7886Z" fill="black"/>
<path id="Vector (Stroke)_50" fill-rule="evenodd" clip-rule="evenodd" d="M13.1663 15.3381C12.7983 15.0782 12.2413 15.354 12.1657 15.9691L12.0369 15.95C12.1227 15.2517 12.7732 14.8906 13.2365 15.2178L13.2365 15.2178C13.4595 15.3756 13.6228 15.6415 13.7299 15.9478C13.8372 16.2548 13.8902 16.6083 13.8887 16.9499" fill="black"/>
<path id="Vector (Stroke)_51" fill-rule="evenodd" clip-rule="evenodd" d="M32.4009 0.856649C33.8831 0.0110089 35.5756 0.051825 36.9936 1.10268L37.0369 1.13477L37.0216 1.18895C36.6036 2.67088 35.5703 3.78331 34.4274 3.9502C33.282 4.11743 32.1058 3.3216 31.4814 1.98908L31.6097 1.91933C32.2144 3.20979 33.3392 3.95284 34.4081 3.79678C35.4658 3.64234 36.452 2.61312 36.8684 1.19824C35.5064 0.213373 33.891 0.181757 32.4682 0.993461L32.4009 0.856649Z" fill="black"/>
</g>
</g>
</svg>
