<svg width="245" height="210" viewBox="0 0 245 210" fill="none" xmlns="http://www.w3.org/2000/svg">
<g clip-path="url(#clip0_526_75)">
<path d="M238.538 1.61566C234.743 2.32619 90.7215 43.4736 86.8817 44.0302C82.8157 44.6185 78.6639 44.7362 74.5617 45.3291C69.6636 46.0351 64.8605 46.1754 59.9307 46.5239C54.7205 46.895 49.5058 45.9853 44.3816 47.2932C41.772 47.9585 37.6427 48.9406 36.2723 51.3573C34.3095 54.8104 31.3425 58.3449 29.5515 61.9428C27.5525 65.9571 26.8877 70.3605 26.069 74.7142C25.264 78.9774 23.7398 83.4895 23.776 87.8477C23.7986 90.6084 24.2419 93.2333 24.2283 95.9487C24.0745 95.6816 24.0383 95.4327 23.9208 95.1431C25.9017 96.6909 29.945 98.0214 32.4325 98.7727C29.5606 101.71 31.0486 105.923 35.2185 106.815C39.1488 107.652 43.5042 103.679 47.258 102.696C51.9074 104.095 57.3528 106.168 62.2011 106.656C68.2842 107.272 62.0066 99.8091 60.1252 98.0259C65.6294 97.8494 67.2801 96.1433 68.0807 91.079C70.03 89.1964 72.5401 88.9113 74.9281 87.807C78.1709 86.309 80.3282 84.2091 82.9785 81.9417C85.6289 79.6744 87.2254 78.3664 88.9485 75.298C89.9797 73.4651 90.9204 71.3698 92.0918 69.745C94.5341 66.3463 100.296 69.8944 104.244 69.2382C106.641 68.8399 252.671 50.7146 254.96 50.1942C256.981 43.4328 256.543 4.06857 249.311 0.384677C245.761 -1.42106 241.667 3.72462 238.542 1.61113L238.538 1.61566Z" fill="#F4E7D3"/>
<path d="M24.8615 198.514L185.993 200.836C186.608 203.564 184.509 206.316 181.94 207.42C180.507 208.036 177.766 208.936 176.201 208.991C174.957 209.032 165.912 209.063 164.677 208.991C159.259 208.674 163.967 208.339 158.549 208.018C123.054 205.931 85.6379 207.773 50.0802 207.715C45.4353 210.032 40.0533 210.575 35.0014 209.394C34.7843 208.547 34.4994 207.941 34.2823 207.095C31.8852 206.909 28.9229 207.615 26.7384 206.615C24.4906 205.592 24.0112 200.831 24.8569 198.514H24.8615Z" fill="#78DCE8"/>
<path d="M0 40.5771C0.958818 40.4459 2.97596 40.2603 3.93477 40.1291C5.83884 58.2363 7.74291 76.3435 9.6515 94.4461C10.1807 99.4425 11.248 108.268 11.6505 113.273C13.1838 132.353 15.4089 147.94 16.9467 167.02C17.3673 172.238 17.7879 177.474 18.8824 182.593C20.2618 189.064 22.7222 195.473 22.1976 202.067C21.1076 202.039 20.5106 202.886 19.4658 203.193C17.0597 196.016 15.8386 188.399 15.0426 180.868C14.5541 176.243 14.3778 171.586 14.0838 166.943C12.9848 149.424 11.5013 134 8.03689 116.794C7.33134 113.296 7.25898 104.389 7.25898 104.389C5.96548 83.5936 3.383 61.1463 0 40.5771Z" fill="#78DCE8"/>
<path d="M249.306 0.393738C240.876 2.72446 84.3126 45.4196 82.5261 45.3834" stroke="black" stroke-miterlimit="10"/>
<path d="M67.1307 91.4004C70.9479 91.0248 78.6004 86.662 81.6396 84.6843C85.3664 82.2631 86.981 79.0317 89.4911 75.2573C92.3404 70.9625 92.7656 68.143 90.165 63.2824" stroke="black" stroke-miterlimit="10"/>
<path d="M39.325 75.1351C39.3341 80.0002 37.032 84.0009 34.4088 87.7255" stroke="black" stroke-miterlimit="10"/>
<path d="M36.8195 89.2778C37.724 89.925 38.3572 90.726 38.8818 91.5995" stroke="black" stroke-miterlimit="10"/>
<path d="M41.1523 78.2352C41.9664 80.6112 41.9935 84.363 41.1025 86.1054" stroke="black" stroke-miterlimit="10"/>
<path d="M44.9785 76.1534C45.7836 77.932 46.6926 78.6561 46.4077 80.9054" stroke="black" stroke-miterlimit="10"/>
<path d="M42.3462 87.5536C43.097 88.3772 44.0332 89.0742 44.9513 89.7802" stroke="black" stroke-miterlimit="10"/>
<path d="M46.1182 84.6843C47.1132 85.336 48.167 85.9062 49.2072 86.49" stroke="black" stroke-miterlimit="10"/>
<path d="M53.2822 80.8963C51.256 78.5611 47.0816 70.0437 46.7152 68.6815" stroke="black" stroke-miterlimit="10"/>
<path d="M54.7792 80.3035C54.7657 79.0182 57.4612 71.9581 58.5783 70.252" stroke="black" stroke-miterlimit="10"/>
<path d="M92.9781 69.736C98.9391 68.6815 249.727 50.9138 254.955 50.1987" stroke="black" stroke-miterlimit="10"/>
<path d="M93.8782 68.1294C94.2852 65.242 94.3802 65.7082 94.5068 65.2782" stroke="black" stroke-miterlimit="10"/>
<path d="M34.5672 93.4822C34.5536 91.7579 34.6622 89.9386 33.5451 88.9973C32.6541 88.2415 31.4691 88.6397 30.1168 88.5628" stroke="black" stroke-miterlimit="10"/>
<path d="M79.8487 45.3019C73.0963 44.5688 64.5483 48.1802 57.3255 47.1303C51.4414 46.2749 37.6697 46.2885 35.1506 53.0408C32.6993 59.6121 31.659 58.621 29.3072 64.889C28.0092 68.3466 26.191 77.0495 25.0242 80.145C23.3508 84.5576 24.0835 86.9019 24.2056 90.8844C24.2508 92.3055 24.2915 93.9664 24.1422 95.4599" stroke="black" stroke-miterlimit="10"/>
<path d="M59.4874 79.7377C56.4753 81.3579 52.9702 83.7429 50.6591 86.0556C48.9314 87.7844 47.3394 89.5811 45.1323 90.4907C40.7317 92.3055 34.0109 95.5187 31.347 99.9177C28.0409 105.376 32.9119 108.34 39.0221 106.833C41.6362 106.186 43.0247 103.905 45.4896 103.149C46.7017 102.773 49.3203 101.999 50.3877 101.099C51.3194 100.316 53.142 99.7638 54.1506 99.0623C58.7186 95.9034 63.4855 95.9985 67.1308 91.4004" stroke="black" stroke-miterlimit="10"/>
<path d="M46.2267 71.3743C43.9427 73.1076 43.106 75.031 40.2431 74.6418C39.1712 73.2751 37.7421 69.3875 36.937 69.4554" stroke="black" stroke-miterlimit="10"/>
<path d="M40.4467 103.344C39.1984 101.542 38.3934 99.1348 38.3255 96.9443C35.933 96.9986 34.0018 99.1302 32.5003 100.999C31.9937 101.633 31.5641 102.389 31.5867 103.208C31.6048 104.022 32.2199 104.855 33.0339 104.878" stroke="black" stroke-miterlimit="10"/>
<path d="M57.9451 106.914C58.0673 106.412 58.0808 105.873 57.9813 105.376C57.71 103.991 56.7919 102.828 55.9054 101.732" stroke="black" stroke-miterlimit="10"/>
<path d="M59.5642 105.842C60.3828 106.267 61.2195 106.702 62.1286 106.828C63.0377 106.955 64.0553 106.729 64.6478 106.023C65.6925 104.769 64.8875 102.805 63.6844 101.696C62.4814 100.587 60.9165 99.8453 60.021 98.483" stroke="black" stroke-miterlimit="10"/>
<path d="M61.6176 97.6141C62.9925 97.8268 64.4578 98.026 65.7332 97.4602C67.0086 96.8945 67.8996 95.2472 67.1715 94.0615" stroke="black" stroke-miterlimit="10"/>
<path d="M51.3465 98.121C50.4645 96.6501 49.5871 95.1793 48.7007 93.7085" stroke="black" stroke-miterlimit="10"/>
<path d="M49.9896 99.1166L48.4429 96.2383" stroke="black" stroke-miterlimit="10"/>
<path d="M55.6431 71.3426C56.1406 70.0076 56.2491 68.5277 55.9642 67.1338" stroke="black" stroke-miterlimit="10"/>
<path d="M33.3324 87.1236C32.4866 86.8702 32.568 86.8883 31.7268 86.6349" stroke="black" stroke-miterlimit="10"/>
<path d="M14.7848 123.782C19.502 124.709 24.3594 126.728 28.7691 127.85C33.6762 129.095 38.5653 130.47 43.4544 131.71C46.4258 132.466 47.5158 132.932 49.9128 133.652C49.9128 133.652 53.1104 124.374 53.5898 120.641C53.8159 118.903 54.422 117.346 54.8335 115.653C55.6431 112.309 56.1632 108.516 56.3803 105.177C53.9561 104.995 51.5455 103.991 49.2118 103.289" stroke="white" stroke-miterlimit="10"/>
<path d="M30.5509 97.94C26.8694 97.9762 21.8085 95.8446 18.1722 94.7494C16.4581 100.452 14.9023 106.276 13.3193 112.065" stroke="white" stroke-miterlimit="10"/>
<path d="M15.1963 129.077C17.4531 129.841 19.71 130.57 21.8492 131.353C28.1268 133.657 34.5445 136.987 41.0482 138.458C41.4914 136.992 42.102 135.838 42.5407 134.372" stroke="white" stroke-miterlimit="10"/>
<path d="M15.4315 97.6639C15.2416 100.076 13.9074 103.04 12.6184 105.959" stroke="white" stroke-miterlimit="10"/>
<path d="M58.0627 110.218C58.6416 113.626 56.0229 119.677 54.9691 123.189C53.8113 127.04 53.2686 133.539 51.2514 136.458C49.6187 137.092 46.3352 136.105 44.5985 135.526" stroke="white" stroke-miterlimit="10"/>
<path d="M24.486 120.166C24.2101 120.084 24.0292 119.966 23.9523 119.817C23.8755 119.668 23.8619 119.509 23.9116 119.342L23.9795 119.116C24.0292 118.948 24.1287 118.821 24.278 118.74C24.4272 118.658 24.6398 118.658 24.9157 118.74C25.1916 118.821 25.3725 118.939 25.4494 119.088C25.5263 119.238 25.5398 119.396 25.4901 119.564L25.4222 119.79C25.3725 119.957 25.273 120.084 25.1237 120.166C24.9745 120.247 24.7619 120.247 24.486 120.166Z" fill="white"/>
<path d="M27.67 122.075L29.6464 122.668L31.0485 118.007L29.0223 117.396L29.2529 116.626L32.2244 117.518L30.7002 122.587C30.6007 122.922 30.4243 123.166 30.1711 123.32C29.9178 123.474 29.5967 123.492 29.2077 123.374L27.4393 122.845L27.67 122.075ZM31.9982 116.563C31.754 116.491 31.6002 116.391 31.5369 116.264C31.4691 116.138 31.46 116.002 31.5053 115.857L31.5595 115.676C31.6048 115.531 31.6862 115.423 31.8128 115.355C31.9394 115.287 32.1158 115.287 32.3555 115.355C32.5952 115.423 32.7535 115.527 32.8169 115.653C32.8847 115.78 32.8937 115.916 32.8485 116.061L32.7942 116.242C32.749 116.387 32.6676 116.495 32.541 116.563C32.4143 116.631 32.2379 116.631 31.9982 116.563Z" fill="white"/>
<path d="M34.3365 118.156L35.2818 118.441L35.0511 119.206L35.1054 119.22C35.318 118.989 35.5577 118.83 35.8245 118.74C36.0913 118.654 36.3853 118.658 36.7155 118.758C37.2401 118.916 37.6019 119.238 37.7964 119.727C37.9909 120.215 37.9728 120.844 37.7376 121.618C37.5024 122.392 37.1723 122.931 36.7426 123.229C36.313 123.528 35.8335 123.601 35.3089 123.442C34.9787 123.343 34.73 123.184 34.5536 122.967C34.3772 122.75 34.2687 122.483 34.2144 122.17L34.1601 122.157L33.4094 124.655L32.4641 124.37L34.3275 118.165L34.3365 118.156ZM35.1506 122.551C35.5079 122.659 35.8155 122.632 36.0778 122.469C36.3356 122.306 36.521 122.044 36.6295 121.682L36.8466 120.953C36.9552 120.591 36.9461 120.27 36.8195 119.989C36.6929 119.713 36.4486 119.518 36.0913 119.41C35.9511 119.369 35.82 119.346 35.6843 119.346C35.5486 119.346 35.431 119.364 35.318 119.405C35.2049 119.446 35.1054 119.509 35.0195 119.595C34.9335 119.681 34.8702 119.79 34.8295 119.93L34.3817 121.419C34.341 121.559 34.332 121.686 34.3546 121.804C34.3772 121.921 34.427 122.03 34.4993 122.125C34.5717 122.22 34.6622 122.306 34.7752 122.379C34.8883 122.451 35.0104 122.505 35.1506 122.546V122.551Z" fill="white"/>
<path d="M40.1709 124.899C39.8317 124.795 39.5422 124.65 39.3025 124.46C39.0628 124.27 38.8819 124.044 38.7598 123.786C38.6377 123.528 38.5698 123.243 38.5563 122.926C38.5427 122.609 38.5924 122.274 38.701 121.917C38.8095 121.559 38.9543 121.252 39.1442 120.994C39.3342 120.736 39.5467 120.532 39.791 120.378C40.0352 120.224 40.302 120.138 40.596 120.107C40.89 120.075 41.193 120.107 41.5096 120.202C41.8262 120.297 42.0885 120.433 42.3101 120.618C42.5317 120.804 42.7036 121.016 42.8212 121.27C42.9433 121.519 43.0066 121.795 43.0202 122.098C43.0338 122.397 42.9931 122.713 42.8936 123.044L42.785 123.401L39.5784 122.437L39.5332 122.582C39.4292 122.931 39.4518 123.252 39.6055 123.537C39.7593 123.822 40.0262 124.026 40.4151 124.144C40.7046 124.23 40.9669 124.243 41.2111 124.18C41.4553 124.116 41.6679 124.003 41.8579 123.836L42.292 124.533C42.0614 124.75 41.7674 124.899 41.4056 124.985C41.0438 125.071 40.6322 125.044 40.1664 124.908L40.1709 124.899ZM41.2925 120.917C41.1252 120.867 40.9624 120.849 40.8041 120.862C40.6458 120.876 40.501 120.926 40.3654 120.998C40.2342 121.075 40.1166 121.175 40.0126 121.301C39.9131 121.428 39.8362 121.578 39.7819 121.754L39.7638 121.813L42.0071 122.487L42.0342 122.401C42.1383 122.048 42.1247 121.736 41.989 121.464C41.8533 121.193 41.6227 121.007 41.2925 120.908V120.917Z" fill="white"/>
<path d="M47.4976 127.52C47.3574 127.981 47.0635 128.266 46.6112 128.366C46.1589 128.47 45.5348 128.402 44.7433 128.162C44.3543 128.045 44.0378 127.923 43.789 127.796C43.5403 127.669 43.3503 127.533 43.2101 127.388C43.0744 127.248 42.9885 127.099 42.9568 126.945C42.9252 126.791 42.9342 126.628 42.984 126.461C43.0563 126.216 43.183 126.049 43.3593 125.954C43.5357 125.859 43.7573 125.818 44.0242 125.827L44.0513 125.741C43.9202 125.637 43.8207 125.519 43.7664 125.388C43.7076 125.257 43.7031 125.108 43.7528 124.94C43.8207 124.718 43.9428 124.578 44.1282 124.51C44.3136 124.442 44.5307 124.415 44.784 124.429L44.7976 124.383C44.5624 124.175 44.4086 123.931 44.3272 123.655C44.2458 123.379 44.2548 123.08 44.3498 122.754C44.4222 122.519 44.5307 122.315 44.6755 122.148C44.8202 121.98 44.992 121.854 45.191 121.763C45.39 121.677 45.6117 121.627 45.8559 121.618C46.1001 121.609 46.3624 121.645 46.6383 121.731C46.9504 121.826 47.2172 121.958 47.4343 122.13L47.4796 121.98C47.5338 121.808 47.6243 121.677 47.7554 121.591C47.8866 121.505 48.0539 121.492 48.2575 121.555L49.0715 121.799L48.8454 122.546L47.8052 122.234L47.7419 122.442C47.9002 122.632 47.9997 122.849 48.0404 123.085C48.0811 123.32 48.063 123.573 47.9816 123.845C47.9092 124.08 47.8007 124.284 47.6559 124.451C47.5112 124.619 47.3393 124.745 47.1403 124.836C46.9413 124.922 46.7197 124.972 46.4755 124.976C46.2313 124.981 45.969 124.945 45.6931 124.859C45.4986 124.8 45.3177 124.727 45.1549 124.641C45.0418 124.641 44.9242 124.655 44.7976 124.696C44.6709 124.732 44.594 124.813 44.5533 124.936C44.5126 125.076 44.5533 125.18 44.6755 125.257C44.7976 125.334 44.9559 125.397 45.1549 125.456L46.1589 125.759C46.7604 125.94 47.1584 126.185 47.3574 126.492C47.5519 126.8 47.5971 127.14 47.4886 127.511L47.4976 127.52ZM46.5976 127.312C46.6428 127.162 46.6202 127.022 46.5253 126.895C46.4303 126.768 46.2268 126.655 45.9056 126.56L44.3543 126.094C44.1056 126.135 43.9428 126.271 43.8749 126.501C43.8252 126.669 43.8523 126.836 43.9563 127.004C44.0604 127.167 44.2775 127.302 44.6076 127.398L45.3086 127.61C45.6659 127.719 45.9554 127.746 46.177 127.696C46.3986 127.646 46.5388 127.52 46.5976 127.312ZM45.9011 124.225C46.2087 124.316 46.4529 124.311 46.6428 124.211C46.8283 124.112 46.9594 123.94 47.0318 123.696L47.1042 123.46C47.1765 123.216 47.163 123.003 47.0635 122.813C46.964 122.623 46.7604 122.487 46.4529 122.392C46.1453 122.297 45.9011 122.306 45.7112 122.406C45.5212 122.505 45.3946 122.677 45.3222 122.922L45.2498 123.157C45.1775 123.401 45.191 123.614 45.2905 123.804C45.39 123.994 45.5936 124.13 45.9011 124.225Z" fill="white"/>
<path d="M139.91 207.131C142.76 207.131 145.573 207.448 148.395 207.307C158.449 206.809 168.992 207.66 179.082 207.66C179.082 207.66 188.29 209.072 187.232 199.179C180.457 199.197 173.573 199.301 166.766 199.609C119.382 201.772 71.554 199.532 24.0699 199.532C23.7216 202.053 23.6085 205.497 26.2317 206.732C28.8549 207.968 32.6585 207.61 35.5395 207.479C44.2457 207.076 53.056 207.466 61.6854 207.122C67.0222 206.909 72.4495 207.841 77.7546 207.66" stroke="black" stroke-miterlimit="10"/>
<path d="M53.341 201.125C51.7083 200.903 49.0037 201.053 47.3891 200.994C46.1273 200.949 42.1337 200.374 42.1473 201.428C42.1653 202.985 42.8845 203.003 44.0694 203.067C46.1499 203.175 48.6509 203.021 50.7359 203.021C51.7264 203.021 54.4807 203.184 53.9154 201.569" stroke="black" stroke-miterlimit="10"/>
<path d="M59.3879 201.302C56.2808 201.315 56.9908 202.582 59.5643 202.714C60.2065 202.745 61.9387 203.017 62.4769 202.714C63.3905 202.198 63.2729 200.949 61.8573 201.297" stroke="black" stroke-miterlimit="10"/>
<path d="M69.4555 201.831C68.6414 201.831 67.8138 201.818 67.0087 201.858C66.9364 202.134 66.9319 202.592 67.0087 202.863C68.5193 202.827 69.9711 203.311 71.4862 202.881C73.3496 202.356 72.8702 201.537 71.043 201.297" stroke="black" stroke-miterlimit="10"/>
<path d="M78.2839 201.125C74.7561 202.266 80.0794 204.239 79.3422 201.831" stroke="black" stroke-miterlimit="10"/>
<path d="M59.4331 202.053H61.595" stroke="black" stroke-miterlimit="10"/>
<path d="M68.4832 202.229C69.157 202.456 70.152 202.275 70.8666 202.275" stroke="black" stroke-miterlimit="10"/>
<path d="M43.979 201.831H51.6631V201.962C51.6269 202.107 51.6088 202.248 51.5727 202.361H47.1585" stroke="black" stroke-miterlimit="10"/>
<path d="M35.639 208.018C35.8607 208.326 36.028 208.674 36.2586 208.991H48.0042C48.2846 208.62 48.5831 208.534 48.7957 208.108" stroke="black" stroke-miterlimit="10"/>
<path d="M163.044 207.837C163.356 208.28 163.858 208.538 164.193 208.986H175.934C176.052 208.841 176.165 208.493 176.196 208.28" stroke="black" stroke-miterlimit="10"/>
<path d="M79.4281 207.574C82.3272 206.972 85.484 207.484 88.4329 207.484C92.6616 207.484 96.9265 207.728 101.146 207.529C104.783 207.357 108.441 207.579 112.087 207.393C114.452 207.271 116.836 207.285 119.21 207.307C121.815 207.334 124.402 207.724 127.021 207.66C130.576 207.574 134.235 207.66 137.794 207.66" stroke="black" stroke-miterlimit="10"/>
<path d="M3.44177 42.7585C5.71218 62.7077 7.95545 82.426 10.2349 102.452C10.8274 107.661 12.6727 114.201 11.8043 119.346C12.1345 119.998 12.4149 121.392 12.4737 122.116L21.3065 199.718C21.2568 200.795 21.1166 202.465 21.6277 202.528" stroke="black" stroke-miterlimit="10"/>
<path d="M22.6407 203.65C21.4467 203.827 20.203 203.795 18.9637 203.863C18.9547 203.605 18.8507 203.669 18.7195 203.564C19.3979 201.818 18.2672 198.034 18.0321 195.961C17.4893 191.178 17.0506 186.358 16.3089 181.606C14.8616 172.328 13.7219 163.064 12.6952 153.746C12.3787 150.881 12.4103 146.568 12.0892 143.731C11.6731 140.083 11.248 136.526 10.6736 132.919C9.83236 127.61 9.45697 122.179 8.85093 116.839C9.03636 116.418 8.85093 115.902 8.69263 115.436L3.69502 71.5327C3.05279 65.7263 2.28845 59.8157 1.87236 53.9686C1.58743 49.9226 1.51506 45.7454 0.669312 41.8353C1.31154 41.4823 2.27488 41.0931 2.93068 41.4008" stroke="black" stroke-miterlimit="10"/>
</g>
<defs>
<clipPath id="clip0_526_75">
<rect width="245" height="210" fill="white"/>
</clipPath>
</defs>
</svg>
