<svg width="150" height="150" viewBox="0 0 150 150" fill="none" xmlns="http://www.w3.org/2000/svg">
<g clip-path="url(#clip0_206_4929)">
<path d="M143.75 83.9062V66.125C143.75 64.6562 142.656 63.4375 141.187 63.2812L126.719 61.6875C125.469 56.7812 123.531 52.1562 121 47.9062L130.094 36.5312C131 35.4062 130.906 33.75 129.875 32.7187L117.281 20.125C116.25 19.0937 114.594 19 113.469 19.9062L102.094 29C97.8437 26.5 93.2187 24.5625 88.3125 23.2812L86.7187 8.8125C86.5625 7.375 85.3437 6.25 83.875 6.25H66.0937C64.625 6.25 63.4062 7.34375 63.25 8.8125L61.6562 23.2812C56.75 24.5312 52.125 26.4687 47.875 29L36.5 19.9062C35.375 19 33.7187 19.0937 32.6875 20.125L20.0937 32.7187C19.0625 33.75 18.9687 35.4062 19.875 36.5312L28.9688 47.9062C26.4688 52.1562 24.5312 56.7812 23.25 61.6875L8.78125 63.2812C7.34375 63.4375 6.21875 64.6562 6.21875 66.125V83.9062C6.21875 85.375 7.3125 86.5937 8.78125 86.75L23.25 88.3437C24.5 93.25 26.4375 97.875 28.9688 102.125L19.875 113.5C18.9687 114.625 19.0625 116.281 20.0937 117.312L32.6875 129.906C33.7187 130.937 35.375 131.031 36.5 130.125L47.875 121.031C52.125 123.531 56.75 125.469 61.6562 126.75L63.25 141.219C63.4062 142.656 64.625 143.781 66.0937 143.781H83.875C85.3437 143.781 86.5625 142.687 86.7187 141.219L88.3125 126.75C93.2187 125.5 97.8437 123.562 102.094 121.031L113.469 130.125C114.594 131.031 116.25 130.937 117.281 129.906L129.875 117.312C130.906 116.281 131 114.625 130.094 113.5L121 102.125C123.5 97.875 125.437 93.25 126.719 88.3437L141.187 86.75C142.625 86.5937 143.75 85.375 143.75 83.9062Z" fill="url(#paint0_linear_206_4929)"/>
<path d="M66.0937 143.75C64.625 143.75 63.4062 142.656 63.25 141.188L61.6562 126.719C56.75 125.469 52.125 123.531 47.875 121L36.5 130.094C35.9688 130.5 35.3437 130.719 34.7187 130.719C33.9687 130.719 33.25 130.438 32.6875 129.875L20.0937 117.281C19.0625 116.25 18.9688 114.594 19.875 113.469L28.9688 102.094C26.4688 97.8438 24.5312 93.2188 23.25 88.3125L8.78125 86.7188C7.34375 86.5625 6.21875 85.3438 6.21875 83.875V66.0938C6.21875 64.625 7.3125 63.4062 8.78125 63.25L23.25 61.6562C24.5 56.75 26.4375 52.125 28.9688 47.875L19.875 36.5C18.9688 35.375 19.0625 33.7188 20.0937 32.6875L32.6875 20.0937C33.25 19.5312 33.9687 19.25 34.7187 19.25C35.3437 19.25 35.9688 19.4688 36.5 19.875L47.875 28.9688C52.125 26.4688 56.75 24.5312 61.6562 23.25L63.25 8.78125C63.4062 7.34375 64.625 6.21875 66.0937 6.21875H83.875C85.3437 6.21875 86.5625 7.3125 86.7187 8.78125L88.3125 23.25C93.2187 24.5 97.8437 26.4375 102.094 28.9688L113.469 19.875C114 19.4688 114.625 19.25 115.25 19.25C116 19.25 116.719 19.5312 117.281 20.0937L129.875 32.6875C130.906 33.7188 131 35.375 130.094 36.5L121 47.875C123.5 52.125 125.437 56.75 126.719 61.6562L141.187 63.25C142.625 63.4062 143.75 64.625 143.75 66.0938V83.875C143.75 85.3438 142.656 86.5625 141.187 86.7188L126.719 88.3125C125.469 93.2188 123.531 97.8438 121 102.094L130.094 113.469C131 114.594 130.906 116.25 129.875 117.281L117.281 129.875C116.719 130.438 116 130.719 115.25 130.719C114.625 130.719 114 130.5 113.469 130.094L102.094 121C97.8437 123.5 93.2187 125.438 88.3125 126.719L86.7187 141.188C86.5625 142.625 85.3437 143.75 83.875 143.75H66.0937ZM66.0937 150H83.875C88.5312 150 92.4062 146.5 92.9375 141.906L94.0937 131.531C96.625 130.688 99.0625 129.656 101.469 128.5L109.594 135C111.219 136.281 113.219 137 115.281 137C117.719 137 120 136.063 121.719 134.344L134.312 121.75C137.594 118.469 137.875 113.25 135 109.625L128.5 101.5C129.687 99.125 130.687 96.6562 131.531 94.125L141.906 92.9688C146.531 92.4688 150 88.5625 150 83.9062V66.125C150 61.4688 146.5 57.5938 141.906 57.0625L131.531 55.9062C130.687 53.375 129.656 50.9375 128.5 48.5312L135 40.4062C137.906 36.7812 137.625 31.5625 134.312 28.2812L121.719 15.6875C120 13.9687 117.719 13.0312 115.281 13.0312C113.219 13.0312 111.187 13.75 109.594 15.0312L101.469 21.5312C99.0937 20.3437 96.625 19.3438 94.0937 18.5L92.9375 8.125C92.4375 3.5 88.5312 0.03125 83.875 0.03125H66.0937C61.4375 0.03125 57.5625 3.53125 57.0312 8.125L55.875 18.5C53.3437 19.3438 50.9062 20.375 48.5 21.5312L40.375 15.0312C38.75 13.75 36.75 13.0312 34.6875 13.0312C32.25 13.0312 29.9687 13.9687 28.25 15.6875L15.6562 28.2812C12.375 31.5625 12.0938 36.7812 14.9687 40.4062L21.4687 48.5312C20.2812 50.9062 19.2812 53.375 18.4375 55.9062L8.0625 57.0625C3.4375 57.5625 -0.03125 61.4688 -0.03125 66.125V83.9062C-0.03125 88.5625 3.46875 92.4375 8.0625 92.9688L18.4375 94.125C19.2812 96.6562 20.3125 99.0938 21.4687 101.5L14.9687 109.625C12.0625 113.25 12.3438 118.469 15.6562 121.75L28.25 134.344C29.9687 136.063 32.25 137 34.6875 137C36.75 137 38.7812 136.281 40.375 135L48.5 128.5C50.875 129.688 53.3437 130.688 55.875 131.531L57.0312 141.906C57.5312 146.531 61.4375 150 66.0937 150Z" fill="url(#paint1_linear_206_4929)"/>
<path d="M75 118.75C99.1625 118.75 118.75 99.1625 118.75 75C118.75 50.8375 99.1625 31.25 75 31.25C50.8375 31.25 31.25 50.8375 31.25 75C31.25 99.1625 50.8375 118.75 75 118.75Z" fill="url(#paint2_linear_206_4929)"/>
<path d="M75 115.625C97.4366 115.625 115.625 97.4366 115.625 75C115.625 52.5634 97.4366 34.375 75 34.375C52.5634 34.375 34.375 52.5634 34.375 75C34.375 97.4366 52.5634 115.625 75 115.625Z" fill="url(#paint3_linear_206_4929)"/>
<path d="M75 96.875C87.0812 96.875 96.875 87.0812 96.875 75C96.875 62.9188 87.0812 53.125 75 53.125C62.9188 53.125 53.125 62.9188 53.125 75C53.125 87.0812 62.9188 96.875 75 96.875Z" fill="url(#paint4_linear_206_4929)"/>
</g>
<defs>
<linearGradient id="paint0_linear_206_4929" x1="6.25" y1="75" x2="143.75" y2="75" gradientUnits="userSpaceOnUse">
<stop stop-color="#6447BD"/>
<stop offset="1" stop-color="#A68AFF"/>
</linearGradient>
<linearGradient id="paint1_linear_206_4929" x1="150" y1="75" x2="6.67115e-06" y2="75" gradientUnits="userSpaceOnUse">
<stop stop-color="#6447BD"/>
<stop offset="1" stop-color="#A68AFF"/>
</linearGradient>
<linearGradient id="paint2_linear_206_4929" x1="105.946" y1="44.061" x2="44.0737" y2="105.933" gradientUnits="userSpaceOnUse">
<stop stop-color="#C3B0FF"/>
<stop offset="1" stop-color="#EAE3FF"/>
</linearGradient>
<linearGradient id="paint3_linear_206_4929" x1="115.625" y1="75" x2="34.375" y2="75" gradientUnits="userSpaceOnUse">
<stop stop-color="#6447BD"/>
<stop offset="1" stop-color="#A68AFF"/>
</linearGradient>
<linearGradient id="paint4_linear_206_4929" x1="53.125" y1="75" x2="96.875" y2="75" gradientUnits="userSpaceOnUse">
<stop stop-color="#C3B0FF"/>
<stop offset="1" stop-color="#EAE3FF"/>
</linearGradient>
<clipPath id="clip0_206_4929">
<rect width="150" height="150" fill="white"/>
</clipPath>
</defs>
</svg>
