<svg width="9.25" height="4" viewBox="0 0 9.25 4" fill="none" xmlns="http://www.w3.org/2000/svg">
<rect x="0.0137329" width="9.75" height="4" rx="1" fill="#AB9DF2"/>
<path d="M1.67176 3V1.18182H2.39974C2.5335 1.18182 2.64508 1.20164 2.73442 1.2413C2.82376 1.28095 2.89098 1.336 2.93598 1.40642C2.98096 1.47627 3.00342 1.55676 3.00342 1.64791C3.00342 1.71892 2.98922 1.78136 2.96082 1.83522C2.9324 1.8885 2.89335 1.93229 2.84361 1.96662C2.7945 1.99964 2.73828 2.02432 2.67495 2.03853V2.05628C2.7442 2.05924 2.809 2.07877 2.86937 2.11488C2.93035 2.15098 2.97975 2.20158 3.01765 2.26669C3.05552 2.3312 3.07445 2.40814 3.07445 2.49752C3.07445 2.59398 3.05048 2.6801 3.00255 2.75585C2.9552 2.83102 2.88508 2.8905 2.79215 2.9343C2.69922 2.9781 2.5847 3 2.44857 3H1.67176ZM2.05617 2.68572H2.36956C2.47668 2.68572 2.5548 2.6653 2.60392 2.62447C2.65305 2.58302 2.67762 2.528 2.67762 2.45934C2.67762 2.40902 2.66548 2.36465 2.64122 2.32618C2.61697 2.2877 2.58232 2.25752 2.53735 2.23562C2.49295 2.21372 2.43998 2.20277 2.37842 2.20277H2.05617V2.68572ZM2.05617 1.94265H2.34115C2.39382 1.94265 2.44058 1.93348 2.48142 1.91512C2.52285 1.89618 2.5554 1.86955 2.57907 1.83522C2.60335 1.8009 2.61548 1.75977 2.61548 1.71182C2.61548 1.64613 2.5921 1.59315 2.54535 1.55291C2.49918 1.51267 2.43348 1.49254 2.34825 1.49254H2.05617V1.94265ZM3.3246 3V1.18182H4.54972V1.49876H3.709H3.709V1.93199H4.4867V2.24894H3.709H3.709V2.68305H4.55327V3H3.3246ZM4.7861 1.49876V1.18182H6.27935V1.49876H5.72274V3H5.34275V1.49876H4.7861ZM6.6165 3H6.20455L6.83225 1.18182H7.3276L7.9544 3H7.54245L7.087 1.5973H7.0728L6.6165 3ZM6.59075 2.28534H7.56375V2.5854H6.59075V2.28534Z" fill="#141721"/>
</svg>
