<svg width="506" height="220" viewBox="0 0 506 220" fill="none" xmlns="http://www.w3.org/2000/svg">
<path d="M129.05 84.77C152.85 97.55 174.95 113.23 196.98 128.88C213.4 140.54 229.83 152.2 246.25 163.86C259.32 155.56 272.67 146.68 285.74 138.37C291.44 134.75 297.22 131.06 301.75 126.06C301.64 141.12 301.27 156.64 301.16 171.7" stroke="#F0F2DA" stroke-miterlimit="10"/>
<path d="M245.85 168.86C245.93 182.61 246.02 196.35 246.1 210.1C262.81 198.11 280.08 186.89 297.83 176.49" stroke="#F0F2DA" stroke-miterlimit="10"/>
<path d="M128.13 88.68C128.36 103.36 128.58 118.04 128.81 132.73" stroke="#F0F2DA" stroke-miterlimit="10"/>
<path d="M130.97 133.46C168.59 155.92 205.87 182.7 241.75 207.83" stroke="#F0F2DA" stroke-miterlimit="10"/>
<path d="M131.43 83.14L192.62 50.27C192.62 56.67 192.06 64.21 192.06 70.61" stroke="#F0F2DA" stroke-miterlimit="10"/>
<path d="M255.5 72.3C255.58 74.96 255.63 77.61 255.64 80.21" stroke="#F0F2DA" stroke-miterlimit="10"/>
<path d="M260.86 36.57C261.9 35.99 262.94 35.41 263.98 34.83C279.74 45.64 296.07 56.9 311.82 67.71C304.67 71.85 296.41 77.32 289.26 81.46C279.56 74.85 269.45 68.04 259.64 61.38" stroke="#F0F2DA" stroke-miterlimit="10"/>
<path d="M172.66 108.45C172.66 100.54 172.67 92.64 172.68 84.73C187.85 76.28 203.04 68.06 218.24 59.84" stroke="#F0F2DA" stroke-miterlimit="10"/>
<path d="M249.81 107.1C238.84 99.27 227.87 91.44 216.89 83.61C208.37 88.42 200 93.46 191.48 98.27C210.22 108.49 227.92 121.23 245.26 133.68C273.16 116.8 302.32 100.55 330.22 83.67" stroke="#F0F2DA" stroke-miterlimit="10"/>
<path d="M190.93 101.67V122.56" stroke="#F0F2DA" stroke-miterlimit="10"/>
<path d="M250.5 110.13C250.37 116.15 250.25 122.18 250.12 128.2" stroke="#F0F2DA" stroke-miterlimit="10"/>
<path d="M217.42 56.48C217.25 49.33 217.09 42.18 216.92 35.03C232.87 26.82 248.53 18.1 264.47 9.89999C264.48 16.86 264.57 24.12 264.58 31.08" stroke="#F0F2DA" stroke-miterlimit="10"/>
<path d="M264.3 51.24L264.44 58.75" stroke="#F0F2DA" stroke-miterlimit="10"/>
<path d="M324.53 157.58C324.64 142.9 324.76 128.21 324.87 113.53C341.77 103.22 358.23 91.82 375.13 81.51" stroke="#F0F2DA" stroke-miterlimit="10"/>
<path d="M225.17 67.26C225.41 73.48 225.6 79.82 225.9 85.86" stroke="#F0F2DA" stroke-miterlimit="10"/>
<path d="M271.06 115.22C271.16 109.2 271.21 101.36 271.31 95.34C261.42 87.28 251.36 79.43 241.15 71.78" stroke="#F0F2DA" stroke-miterlimit="10"/>
<path d="M289.47 103.92C289.38 97.52 289.29 91.12 289.2 84.72" stroke="#F0F2DA" stroke-miterlimit="10"/>
<path d="M310.68 92.63C310.64 85.85 310.59 79.08 310.55 72.3" stroke="#F0F2DA" stroke-miterlimit="10"/>
<path d="M266.32 12.88C301.32 35.11 336.32 57.34 371.32 79.57" stroke="#F0F2DA" stroke-miterlimit="10"/>
<path d="M326.37 156.88C343.54 145.45 360.7 134.03 377.87 122.6C377.56 109.23 377.19 97.52 376.88 84.16" stroke="#F0F2DA" stroke-miterlimit="10"/>
<path d="M246.4 136.12C246.38 144.03 246.37 151.93 246.35 159.84" stroke="#F0F2DA" stroke-miterlimit="10"/>
<path d="M330.52 86.99C330.36 93.58 330.2 100.17 330.04 106.76" stroke="#F0F2DA" stroke-miterlimit="10"/>
<path d="M321.42 136.75C315.77 140.33 310.13 143.9 304.48 147.48" stroke="#F0F2DA" stroke-miterlimit="10"/>
<path d="M247.8 63.81C245.28 56.19 242.77 48.57 240.25 40.95C233.49 43.13 227.17 46.65 221.75 51.24C224.7 56.63 229.61 60.93 235.34 63.15" stroke="#F0F2DA" stroke-miterlimit="10"/>
<path d="M245 45.55C245.19 44.04 245.81 42.14 246 40.63C251.85 39.41 258.36 39.76 263.78 42.25C262.68 47.53 260.4 52.56 257.17 56.87" stroke="#F0F2DA" stroke-miterlimit="10"/>
<path d="M228.61 62.77C225.51 61.34 223.21 59.68 221.28 56.55" stroke="#F0F2DA" stroke-miterlimit="10"/>
<path d="M237.63 46.57C233.8 47.02 230.11 48.67 227.24 51.24" stroke="#F0F2DA" stroke-miterlimit="10"/>
<path d="M238.74 50.48C237.49 50.11 236.02 50.88 235.62 52.12C235.22 53.36 235.95 54.85 237.18 55.28C238.41 55.71 239.92 55.01 240.38 53.8" stroke="#F0F2DA" stroke-miterlimit="10"/>
<path d="M259.64 45.86C258.74 44.96 257.44 44.38 256.18 44.61C254.92 44.84 253.82 45.99 253.9 47.26C253.98 48.53 255.47 49.58 256.62 49.02" stroke="#F0F2DA" stroke-miterlimit="10"/>
<path d="M251.76 43.85L247.24 44.7" stroke="#F0F2DA" stroke-miterlimit="10"/>
<path d="M252.65 65.86L253.5 68.68" stroke="#F0F2DA" stroke-miterlimit="10"/>
<path d="M248.62 65.3L247.77 68.69" stroke="#F0F2DA" stroke-miterlimit="10"/>
<path d="M243.58 65.31L241.6 68.13" stroke="#F0F2DA" stroke-miterlimit="10"/>
<path d="M239.34 64.49C238.04 64.47 236.8 65.46 236.52 66.72" stroke="#F0F2DA" stroke-miterlimit="10"/>
<path d="M249.28 58.88C250.52 57.7 252.52 57.3 254.02 58.13C255.52 58.96 256.23 61.06 255.36 62.53C254.49 64 252.08 64.3 251.01 62.97" stroke="#F0F2DA" stroke-miterlimit="10"/>
</svg>
