<svg width="506" height="220" viewBox="0 0 506 220" fill="none" xmlns="http://www.w3.org/2000/svg">
<path d="M129.05 84.77C152.85 97.55 174.95 113.23 196.98 128.88C213.4 140.54 229.83 152.2 246.25 163.86C259.32 155.56 272.67 146.68 285.74 138.37C291.44 134.75 297.22 131.06 301.75 126.06C301.64 141.12 301.27 156.64 301.16 171.7" stroke="#F0F2DA" stroke-miterlimit="10"/>
<path d="M245.85 168.86C245.93 182.61 246.02 196.35 246.1 210.1C262.81 198.11 280.08 186.89 297.83 176.49" stroke="#F0F2DA" stroke-miterlimit="10"/>
<path d="M128.13 88.6801C128.36 103.36 128.58 118.04 128.81 132.73" stroke="#F0F2DA" stroke-miterlimit="10"/>
<path d="M130.97 133.46C168.59 155.92 205.87 182.7 241.75 207.83" stroke="#F0F2DA" stroke-miterlimit="10"/>
<path d="M131.43 83.14C151.83 72.18 172.22 61.23 192.62 50.27C192.62 56.67 192.06 64.21 192.06 70.61" stroke="#F0F2DA" stroke-miterlimit="10"/>
<path d="M172.66 108.45C172.66 100.54 172.67 92.64 172.68 84.73C203.08 67.8 233.58 51.77 263.98 34.84C279.74 45.65 296.07 56.91 311.82 67.72C304.67 71.86 296.41 77.33 289.26 81.47C278.08 73.86 266.36 65.97 255.19 58.36C255.19 65.51 255.64 73.06 255.64 80.21" stroke="#F0F2DA" stroke-miterlimit="10"/>
<path d="M249.81 107.1C238.84 99.27 227.87 91.44 216.89 83.61C208.37 88.42 200 93.46 191.48 98.27C210.22 108.49 227.92 121.23 245.26 133.68C273.16 116.8 302.32 100.55 330.22 83.67" stroke="#F0F2DA" stroke-miterlimit="10"/>
<path d="M190.93 101.67V122.56" stroke="#F0F2DA" stroke-miterlimit="10"/>
<path d="M250.5 110.13C250.37 116.15 250.25 122.18 250.12 128.2" stroke="#F0F2DA" stroke-miterlimit="10"/>
<path d="M217.42 56.48C217.25 49.33 217.09 42.18 216.92 35.03C232.87 26.82 248.53 18.1 264.47 9.90002C264.48 16.86 264.57 24.12 264.58 31.08" stroke="#F0F2DA" stroke-miterlimit="10"/>
<path d="M264.07 38.42C264.19 45.2 264.32 51.98 264.44 58.75" stroke="#F0F2DA" stroke-miterlimit="10"/>
<path d="M324.53 157.58C324.64 142.9 324.76 128.21 324.87 113.53C341.77 103.22 358.23 91.82 375.13 81.51" stroke="#F0F2DA" stroke-miterlimit="10"/>
<path d="M271.06 115.22C271.16 109.2 271.21 101.36 271.31 95.34C256.19 83.03 240.69 71.18 224.84 59.83C225.26 68.3 225.47 77.39 225.89 85.85" stroke="#F0F2DA" stroke-miterlimit="10"/>
<path d="M289.47 103.92C289.38 97.52 289.29 91.12 289.2 84.72" stroke="#F0F2DA" stroke-miterlimit="10"/>
<path d="M310.68 92.63C310.64 85.85 310.59 79.08 310.55 72.3" stroke="#F0F2DA" stroke-miterlimit="10"/>
<path d="M266.32 12.88C301.32 35.11 336.32 57.34 371.32 79.57" stroke="#F0F2DA" stroke-miterlimit="10"/>
<path d="M326.37 156.88C343.54 145.45 360.7 134.03 377.87 122.6C377.56 109.23 377.19 97.52 376.88 84.16" stroke="#F0F2DA" stroke-miterlimit="10"/>
<path d="M246.4 136.12C246.38 144.03 246.37 151.93 246.35 159.84" stroke="#F0F2DA" stroke-miterlimit="10"/>
<path d="M330.52 86.99C330.36 93.58 330.2 100.17 330.04 106.76" stroke="#F0F2DA" stroke-miterlimit="10"/>
<path d="M321.42 136.75C315.77 140.33 310.13 143.9 304.48 147.48" stroke="#F0F2DA" stroke-miterlimit="10"/>
<path d="M398.47 33.76C395.95 26.14 393.44 18.52 390.92 10.9C384.16 13.08 377.84 16.6 372.42 21.19C375.37 26.58 380.28 30.88 386.01 33.1" stroke="#F0F2DA" stroke-miterlimit="10"/>
<path d="M395.66 15.5C395.85 13.99 396.47 12.09 396.66 10.58C402.51 9.35999 409.02 9.70999 414.44 12.2C413.34 17.48 411.06 22.51 407.83 26.82" stroke="#F0F2DA" stroke-miterlimit="10"/>
<path d="M379.28 32.72C376.18 31.29 373.88 29.63 371.95 26.5" stroke="#F0F2DA" stroke-miterlimit="10"/>
<path d="M388.3 16.52C384.47 16.97 380.78 18.62 377.91 21.19" stroke="#F0F2DA" stroke-miterlimit="10"/>
<path d="M389.4 20.43C388.15 20.06 386.68 20.83 386.28 22.07C385.88 23.31 386.61 24.8 387.84 25.23C389.07 25.66 390.58 24.96 391.04 23.75" stroke="#F0F2DA" stroke-miterlimit="10"/>
<path d="M410.3 15.81C409.4 14.91 408.1 14.33 406.84 14.56C405.58 14.79 404.48 15.94 404.56 17.21C404.64 18.48 406.13 19.53 407.28 18.97" stroke="#F0F2DA" stroke-miterlimit="10"/>
<path d="M402.43 13.8L397.91 14.65" stroke="#F0F2DA" stroke-miterlimit="10"/>
<path d="M403.32 35.81L404.17 38.63" stroke="#F0F2DA" stroke-miterlimit="10"/>
<path d="M399.28 35.25L398.43 38.64" stroke="#F0F2DA" stroke-miterlimit="10"/>
<path d="M394.24 35.26L392.26 38.08" stroke="#F0F2DA" stroke-miterlimit="10"/>
<path d="M390 34.44C388.7 34.42 387.46 35.41 387.18 36.67" stroke="#F0F2DA" stroke-miterlimit="10"/>
<path d="M399.95 28.83C401.19 27.65 403.19 27.25 404.69 28.08C406.19 28.91 406.9 31.01 406.03 32.48C405.16 33.95 402.75 34.25 401.68 32.92" stroke="#F0F2DA" stroke-miterlimit="10"/>
</svg>
