<svg width="332" height="220" viewBox="0 0 332 220" fill="none" xmlns="http://www.w3.org/2000/svg">
<g clip-path="url(#clip0_3535_19530)">
<path d="M192.214 77.3921C185.793 71.7173 174.525 65.5802 166.73 68.9693C162.286 70.9023 157.032 70.2961 152.45 71.916C148.766 73.218 145.126 75.6926 141.8 77.7946C134.785 82.2222 130.174 87.8226 128.492 95.8976C125.092 112.207 128.55 131.373 141.246 142.628C146.804 147.558 155.948 152.288 163.409 151.469C180.515 149.595 196.649 147.538 204.395 128.332C210.644 112.823 205.312 88.9506 192.219 77.3872L192.214 77.3921ZM173.931 113.295C168.334 118.597 160.946 123.343 156.203 129.023C152.96 123.775 148.001 119.084 144.567 113.871C146.76 112.217 148.074 109.404 150.105 108.261C152.7 111.421 157.15 115.099 158.97 117.802C164.218 113.946 167.471 109.464 172.293 105.006C176.472 101.145 181.766 97.8058 184.454 92.5483C186.877 94.3571 188.731 97.2045 190.546 99.2816C184.758 103.57 179.264 108.236 173.926 113.3L173.931 113.295Z" fill="#A9DC76"/>
<path d="M131.682 108.828C131.682 125.991 138.162 139.756 155.895 145.327C162.233 147.319 171.794 148.353 178.235 146.181C182.174 144.855 189.189 141.287 191.809 138.196C194.84 134.618 197.234 128.869 199.191 124.61C201.85 118.841 200.599 110.681 200.599 104.415C200.599 97.5673 199.177 94.2329 195.566 88.1357C192.515 82.9876 187.232 81.5216 181.958 79.1016C174.585 75.7126 168.311 73.8442 159.864 74.8479C149.067 76.125 134.61 86.6896 132.805 97.8108" stroke="#141721" stroke-width="0.5" stroke-miterlimit="10"/>
<path d="M199.947 90.3814C197.666 85.1239 194.791 79.1807 189.812 75.6824C184.146 71.707 174.521 69.8584 167.683 69.8286C153.609 69.764 136.822 75.9805 130.077 89.1888C126.001 97.1694 125.785 106.154 126.673 114.954C128.086 128.938 134.919 139.115 146.54 146.767C154.595 152.07 163.984 151.99 173.359 151.583C181.325 151.24 188.468 147.095 194.894 142.414C201.271 137.768 202.105 128.774 204.229 121.683C206.353 114.592 205.848 108.569 204.617 101.831" stroke="#141721" stroke-width="0.5" stroke-miterlimit="10"/>
<path d="M162.954 126.294C172.913 117.598 180.737 107.118 191.274 99.8327C189.577 97.845 187.119 95.4846 185.196 93.6758C180.688 97.6462 178.127 100.603 173.796 105.224C170.028 109.244 163.754 115.252 159.359 118.308C157.853 115.699 152.373 110.323 150.239 107.918C148.537 109.935 146.433 112.256 144.539 114.075C148.15 118.592 158.976 130.239 158.598 129.857" stroke="#141721" stroke-width="0.5" stroke-miterlimit="10"/>
</g>
<g clip-path="url(#clip1_3535_19530)">
<path d="M247.335 208.898C247.957 208.481 248.017 207.613 248.009 206.864C247.352 141.006 245.381 75.4029 244.732 9.54447C192.205 10.1912 139.669 9.34023 87.1926 7C85.0683 73.2924 86.1091 143.763 85 210.073C138.91 212.898 193.689 213.528 247.667 212.609C248.23 212.055 247.335 210.234 246.686 208.958C246.908 209.026 247.138 209.034 247.335 208.907V208.898ZM231.227 197.937C187.632 197.367 143.798 196.933 100.203 196.372C98.4625 138.487 100.86 79.6068 102.378 21.7137C145.735 22.3349 189.082 22.9476 232.439 23.5688C231.918 80.7556 231.756 140.751 231.227 197.937Z" fill="#F9FF73"/>
<path d="M98.9219 198.814C99.2717 140.189 99.6129 81.5722 99.9627 22.9473" stroke="#141721" stroke-width="0.5" stroke-miterlimit="10"/>
<path d="M105.449 22.2072C145.93 22.1221 186.412 22.0285 226.902 21.9434" stroke="#141721" stroke-width="0.5" stroke-miterlimit="10"/>
<path d="M106.387 199.605C147.491 199.579 188.603 199.554 229.707 199.528" stroke="#141721" stroke-width="0.5" stroke-miterlimit="10"/>
<path d="M232.677 195.546C232.43 138.946 232.182 82.3554 231.943 25.7559" stroke="#141721" stroke-width="0.5" stroke-miterlimit="10"/>
<path d="M99.3656 203.068C95.9104 205.851 92.4552 208.642 89 211.425" stroke="#141721" stroke-width="0.5" stroke-miterlimit="10"/>
<path d="M233.035 198.779C236.115 202.098 239.195 205.417 242.266 208.736C242.42 206.557 244.407 205.221 244.39 203.034C243.742 143.473 245.363 80.1678 244.715 20.6152" stroke="#141721" stroke-width="0.5" stroke-miterlimit="10"/>
<path d="M100.697 20.6581C97.2586 17.8498 93.8204 15.0415 90.3823 12.2332C89.6145 11.6035 89.1026 10.8461 88.3263 10.2334C88.3092 11.0418 88.0874 12.2758 88.0703 13.0842V208.174" stroke="#141721" stroke-width="0.5" stroke-miterlimit="10"/>
<path d="M231.619 21.594C235.825 18.4539 240.023 15.3137 244.228 12.165" stroke="#141721" stroke-width="0.5" stroke-miterlimit="10"/>
<path d="M97.002 9.41657C144.522 9.20382 192.033 8.99107 239.552 8.77832" stroke="#141721" stroke-width="0.5" stroke-miterlimit="10"/>
<path d="M96.5332 212.174C142.799 211.706 189.073 211.246 235.338 210.778" stroke="#141721" stroke-width="0.5" stroke-miterlimit="10"/>
<path d="M94.418 191.657V84.2441" stroke="#141721" stroke-width="0.5" stroke-miterlimit="10"/>
<path d="M236.422 29.4834C237.539 54.9366 237.761 80.4239 237.096 105.886" stroke="#141721" stroke-width="0.5" stroke-miterlimit="10"/>
<path d="M105.979 13.5861C127.887 12.5479 149.838 12.4287 171.755 13.2372" stroke="#141721" stroke-width="0.5" stroke-miterlimit="10"/>
<path d="M241.771 97.9541C242.095 103.486 242.001 109.043 241.48 114.565" stroke="#141721" stroke-width="0.5" stroke-miterlimit="10"/>
<path d="M94.4607 25.1426C94.145 34.7503 93.8293 44.358 93.5137 53.9657" stroke="#141721" stroke-width="0.5" stroke-miterlimit="10"/>
<path d="M163.053 205.749C184.714 204.702 206.426 204.634 228.096 205.545" stroke="#141721" stroke-width="0.5" stroke-miterlimit="10"/>
<path d="M240.389 198.141V186.61" stroke="#141721" stroke-width="0.5" stroke-miterlimit="10"/>
</g>
<defs>
<clipPath id="clip0_3535_19530">
<rect width="81" height="84" fill="white" transform="translate(126 68)"/>
</clipPath>
<clipPath id="clip1_3535_19530">
<rect width="163" height="206" fill="white" transform="translate(85 7)"/>
</clipPath>
</defs>
</svg>
