<svg width="332" height="220" viewBox="0 0 332 220" fill="none" xmlns="http://www.w3.org/2000/svg">
<g clip-path="url(#clip0_3535_19530)">
<path d="M243.596 75.6442C212.526 75.6442 181.26 78.796 150.256 77.1682C125.912 75.8906 101.026 76.163 76.6895 76.163C77.2451 95.8261 77.2516 113.978 77.7223 133.706C78.2452 155.782 79.2977 165.043 79.2977 187.138C133.92 189.985 190.379 186.1 245.158 186.1C245.158 168.344 245.335 163.266 244.518 145.542C243.962 133.486 245.805 120.619 244.635 108.758C241.87 109.918 235.974 107.298 232.339 107.208C223.913 107 215.448 106.728 207.042 106.689C190.856 106.618 174.697 106.17 158.551 106.17C144.712 106.17 130.874 105.638 117.087 105.651C110.636 105.651 101.118 106.481 94.947 104.51C84.7364 101.254 84.2265 87.136 94.424 83.7896C100.458 81.8116 108.178 83.1346 114.538 83.394C132.9 84.1398 151.687 86.6042 170.082 85.7287C195.354 84.5224 218.566 85.4693 243.831 85.4693C244.106 82.1553 244.223 78.6468 243.589 75.6377L243.596 75.6442Z" fill="#F0F2DA"/>
<path d="M87.6453 64.7747C83.3571 63.99 81.6248 69.5997 85.8149 70.9421C90.2143 72.3494 91.1164 64.9692 87.1223 64.2559" fill="#FF6188"/>
<path d="M99.64 64.2622C97.5025 64.2622 95.1296 63.8212 94.77 66.331C94.4955 68.2506 95.7506 70.1054 97.6463 70.4686C99.3328 70.7928 101.934 70.0341 102.601 68.4906C103.516 66.3699 102.346 64.1196 99.993 64.2558C99.8754 64.2558 99.7599 64.2558 99.6466 64.2558L99.64 64.2622Z" fill="#F7AF39"/>
<path d="M111.119 64.4307C109.432 65.2219 107.974 65.3321 107.804 67.5371C107.674 69.2492 108.51 69.8847 110.027 70.423C113.295 71.5774 115.995 67.9392 113.727 65.2932C112.746 64.1518 112.478 64.5798 111.119 64.4307Z" fill="#A9DC76"/>
<path d="M243.472 74.6059C243.453 69.9171 243.439 65.4683 243.439 61.3242" stroke="#F0F2DA" stroke-width="0.5" stroke-miterlimit="10"/>
<path d="M77.6504 77.9785C78.6767 96.3122 78.1733 115.794 78.9905 133.369C79.5853 146.183 80.8665 168.376 80.8665 181.268C80.8665 189.68 79.2519 177.941 81.8079 185.672C113.296 185.594 145.752 181.586 177.207 183.331C199.681 184.582 221.835 185.672 244.38 185.672C244.38 153.265 243.687 115.677 243.491 78.4844" stroke="#141721" stroke-width="0.5" stroke-miterlimit="10"/>
<path d="M239.426 62.4462C187.608 62.4462 127.992 61.3242 76.1738 61.3242C76.7099 65.4748 77.1086 69.7485 77.4093 74.0936" stroke="#F0F2DA" stroke-width="0.5" stroke-miterlimit="10"/>
<path d="M81.6523 75.125C121.835 74.7099 164.86 76.6749 205.526 76.6749C215.436 76.6749 231.864 77.4531 238.387 77.1937" stroke="#F0F2DA" stroke-width="0.5" stroke-miterlimit="10"/>
<path d="M86.4306 65.2935C85.352 65.2287 84.28 65.5465 83.3648 66.0458C82.1228 72.0511 91.0783 71.3572 89.2153 66.6749" stroke="#141721" stroke-width="0.5" stroke-miterlimit="10"/>
<path d="M97.5558 64.9492C93.6075 65.4745 95.9085 70.2411 99.1181 70.1244C102.073 70.0142 103.557 66.5316 100.68 64.9492" stroke="#141721" stroke-width="0.5" stroke-miterlimit="10"/>
<path d="M110.623 70.4943C112.793 69.9755 114.904 67.0117 112.342 65.345C110.08 63.8729 106.995 66.8107 108.165 69.0286" stroke="#141721" stroke-width="0.5" stroke-miterlimit="10"/>
<path d="M243.597 108.245C235.014 106.267 223.881 107.201 215.233 107.201C200.688 107.201 186.118 106.734 171.619 106.688C149.524 106.617 127.116 105.275 104.871 106.17C97.8893 106.448 87.9271 109.101 87.1296 99.9567C86.502 92.7582 87.7767 84.9564 95.4706 83.9188C104.583 82.6866 114.866 84.4376 124.174 84.4376C136.718 84.4376 149.119 84.4052 161.598 84.9824C177.071 85.7022 192.655 84.3339 208.121 85.0732C216.835 85.4882 242.557 85.4753 243.08 85.4753" stroke="#141721" stroke-width="0.5" stroke-miterlimit="10"/>
<path d="M99.4098 98.6127L100.798 90.8613H102.34L103.709 98.6122L103.746 98.8187H103.955H104.119H104.341L104.367 98.598L105.282 90.8613H106.42L105.163 99.8168H103.113L101.874 92.6956L101.838 92.4885H101.628H101.465H101.255L101.218 92.695L99.9607 99.8168H97.9103L96.6534 90.8613H97.8559L98.7519 98.5974L98.7776 98.8187H99.0003H99.1637H99.3729L99.4098 98.6127Z" fill="#F0F2DA" stroke="#F0F2DA" stroke-width="0.5"/>
<path d="M110.496 98.6127L111.884 90.8613H113.426L114.795 98.6122L114.831 98.8187H115.041H115.205H115.427L115.453 98.598L116.368 90.8613H117.506L116.249 99.8168H114.199L112.96 92.6956L112.924 92.4885H112.714H112.551H112.341L112.304 92.695L111.047 99.8168H108.996L107.739 90.8613H108.942L109.838 98.5974L109.864 98.8187H110.086H110.25H110.459L110.496 98.6127Z" fill="#F0F2DA" stroke="#F0F2DA" stroke-width="0.5"/>
<path d="M121.576 98.6127L122.964 90.8613H124.506L125.875 98.6122L125.912 98.8187H126.121H126.285H126.507L126.533 98.598L127.448 90.8613H128.586L127.329 99.8168H125.279L124.04 92.6956L124.004 92.4885H123.794H123.631H123.421L123.385 92.695L122.127 99.8168H120.076L118.819 90.8613H120.022L120.918 98.5974L120.944 98.8187H121.166H121.33H121.539L121.576 98.6127Z" fill="#F0F2DA" stroke="#F0F2DA" stroke-width="0.5"/>
<path d="M133.711 97.7932L133.711 97.7932L133.714 97.7909C133.885 97.6167 134.212 97.4961 134.784 97.4961C135.356 97.4961 135.683 97.6167 135.854 97.7909C136.048 97.9886 136.142 98.2232 136.142 98.5107V98.9906C136.142 99.2859 136.047 99.5186 135.856 99.7081L135.856 99.7081L135.854 99.7105C135.683 99.8846 135.356 100.005 134.784 100.005C134.218 100.005 133.884 99.8844 133.714 99.7105C133.52 99.5127 133.426 99.2781 133.426 98.9906V98.5107C133.426 98.2154 133.52 97.9827 133.711 97.7932Z" fill="#F0F2DA" stroke="#F0F2DA" stroke-width="0.5"/>
<path d="M88.6914 192.053C141.862 188.435 199.041 191.275 250.643 191.275V187.092C250.238 172.04 249.858 147.273 249.858 132.169C249.858 112.376 249.858 92.5897 249.858 72.7969" stroke="#F0F2DA" stroke-width="0.5" stroke-miterlimit="10"/>
<path d="M97.6543 196.709C142.099 196.709 186.576 198.882 231.007 196.709C239.119 196.314 249.82 195.931 256.475 195.931C256.475 168.038 255.644 153.245 255.69 125.56C255.71 113.945 254.291 83.4063 254.128 83.6657" stroke="#F0F2DA" stroke-width="0.5" stroke-miterlimit="10"/>
<path d="M204.871 149.393C202.786 149.237 200.577 150.307 198.642 149.801C197.06 149.386 196.406 146.954 193.752 146.903C193.491 146.079 193.504 144.464 193.765 143.666C196.125 142.648 198.746 141.526 199.982 139.308C203.826 139.231 207.251 144.782 204.871 147.94V149.386V149.393Z" fill="#F7AF39"/>
<path d="M206.833 151.255C202.904 150.146 198.537 150.522 194.537 149.699C194.347 145.989 194.014 142.001 195.145 138.473C197.89 139.536 199.805 141.294 199.629 143.868C202.427 145.049 204.793 146.663 206.107 149.082C206.401 149.621 206.839 150.658 206.839 151.255H206.833Z" fill="#A9DC76"/>
<path d="M108.635 170.276C104.707 169.167 100.34 169.543 96.3394 168.719C96.1498 165.01 95.8164 161.021 96.9473 157.493C99.6928 158.557 101.608 160.314 101.432 162.889C104.229 164.069 106.596 165.684 107.91 168.103C108.204 168.641 108.642 169.679 108.642 170.276H108.635Z" fill="#AB9DF2"/>
<path d="M95.9414 131.915C97.0592 128.018 96.6801 123.686 97.5103 119.717C101.249 119.529 105.27 119.198 108.826 120.32C107.754 123.044 105.982 124.944 103.387 124.769C102.197 127.544 100.57 129.892 98.1313 131.196C97.5887 131.487 96.5428 131.922 95.9414 131.922V131.915Z" fill="#A9DC76"/>
<path d="M110.799 132.603C108.714 132.447 106.504 133.517 104.57 133.011C102.988 132.596 102.334 130.164 99.6799 130.113C99.4185 129.289 99.4315 127.674 99.693 126.876C102.053 125.858 104.674 124.736 105.91 122.518C109.753 122.441 113.179 127.992 110.799 131.15V132.596V132.603Z" fill="#FF6188"/>
<path d="M166.932 166.223C163.324 165.12 157.545 166.268 155.754 162.383C159.114 160.01 163.474 156.151 167.834 158.097C167.945 160.509 168.664 162.779 168.396 165.25C168.318 165.976 167.677 165.957 166.939 166.216L166.932 166.223Z" fill="#A9DC76"/>
<path d="M168.881 131.461C164.396 131.468 158.559 133.932 154.428 131.474C156.068 130.21 158.755 129.912 160.128 128.433C161.285 127.188 161.167 125.553 162.069 124.211C164.148 121.111 165.279 121.753 168.397 119.879C168.397 123.582 168.881 127.765 168.881 131.468V131.461Z" fill="#A9DC76"/>
<path d="M128.972 152.708C127.9 150.911 125.932 149.88 124.298 148.492C126.272 142.286 117.558 143.174 114.904 140.502C115.159 140.133 115.29 139.744 115.427 139.27C118.957 139.063 122.389 138.706 126.05 138.706C129.71 138.706 128.972 147.785 128.972 150.775V152.708Z" fill="#A9DC76"/>
<path d="M227.275 125.671C226.151 133.368 216.568 125.476 220.803 121.397C219.712 121.598 218.208 121.085 217.084 121.248C217.947 116.688 223.876 119.704 227.282 119.873C227.282 121.319 227.491 124.231 227.282 125.664L227.275 125.671Z" fill="#A9DC76"/>
<path d="M188.34 132.428C183.881 134.756 178.122 133.187 173.305 132.824C174.566 129.108 173.743 123.9 173.743 119.879C182.764 118.044 176.737 128.602 185.908 124.704C188.934 125.178 188.085 129.944 188.34 132.428Z" fill="#78DCE8"/>
<path d="M220.462 120.839C222.463 123.29 221.489 128.063 219.488 130.495C217.763 130.126 215.965 129.879 214.135 130.015C214.135 127.117 220.462 123.738 220.462 120.845V120.839Z" fill="#78DCE8"/>
<path d="M188.34 152.221C184.496 151.728 180.104 150.904 176.175 151.254C174.181 148.498 175.502 145.807 175.201 142.564C177.776 142.48 180.104 143.258 182.418 142.648C182.738 143.271 182.895 143.822 182.986 144.497C184.268 144.886 185.392 145.729 186.81 146.027C187.196 147.616 187.726 150.684 188.34 152.221Z" fill="#78DCE8"/>
<path d="M108.531 158.499C108.903 160.334 109.237 162.351 109.014 164.29C108.701 167.072 106.981 170.036 103.661 168.155C103.125 165.471 107.955 161.028 108.524 158.499H108.531Z" fill="#78DCE8"/>
<path d="M104.158 125.184C105.968 128.174 101.713 129.296 99.3398 128.089C100.36 126.215 98.0455 120.787 102.7 123.251C102.863 123.738 103.896 124.743 104.158 125.184Z" fill="#78DCE8"/>
<path d="M149.414 151.741C145.57 151.741 141.458 152.675 137.732 152.221C139.726 149.874 138.876 141.553 138.706 138.22C141.465 138.22 145.681 138.22 148.44 138.22C148.44 142.403 149.414 147.552 149.414 151.735V151.741Z" fill="#78DCE8"/>
<path d="M227.758 170.568C223.725 170.568 217.489 169.621 214.135 171.048C214.135 167.176 213.259 160.263 214.619 157.046C217.502 155.509 223.993 156.566 227.758 156.566C227.758 160.509 229.261 167.066 227.758 170.568Z" fill="#78DCE8"/>
<path d="M154.767 119.872C158.728 119.665 161.055 121.98 161.663 125.586C162.304 125.54 162.31 125.78 162.552 126.15C158.852 127.175 159.16 131.144 155.741 131.941C154.205 128.024 154.78 124.003 154.767 119.872Z" fill="#FF6188"/>
<path d="M220.946 157.533C221.763 162.526 218.279 164.744 213.645 164.777C213.645 162.364 213.645 159.465 213.645 157.053C215.959 158.058 218.776 157.007 220.946 157.533Z" fill="#FF6188"/>
<path d="M227.758 151.741C223.882 150.483 219.319 150.775 215.103 150.775C216.508 147.053 214.861 142.701 215.103 138.706C219.018 137.117 224.81 138.706 229.216 138.706C228.02 141.644 227.503 148.389 227.758 151.741Z" fill="#FF6188"/>
<path d="M108.048 152.221C103.832 152.221 99.6154 152.221 95.3926 152.221C96.2032 147.791 96.1705 142.175 95.3926 137.739C98.6872 137.091 104.374 138.219 108.532 138.219C108.813 142.953 107.486 147.532 108.048 152.221Z" fill="#FF6188"/>
<path d="M167.415 151.741C163.703 150.651 158.689 152.817 155.734 151.261C154.786 147.305 155.25 142.817 155.25 138.706C158.695 138.706 166.03 137.448 168.873 138.706C168.86 143.719 165.742 147.149 167.415 151.741Z" fill="#F7AF39"/>
<path d="M207.323 170.567C203.76 169.193 198.629 170.087 194.667 170.087C194.87 165.827 194.184 161.391 194.184 157.052C198.263 157 203.061 158.401 206.839 157.052C207.924 161.222 207.453 166.144 207.323 170.567Z" fill="#F7AF39"/>
<path d="M127.999 171.534C123.835 170.847 119.58 171.054 115.344 171.054C115.54 166.249 115.827 161.45 115.827 156.573C120.155 156.359 124.593 157.059 128.967 157.053C128.64 161.521 129.45 167.176 127.993 171.534H127.999Z" fill="#F7AF39"/>
<path d="M105.127 138.706C105.29 142.046 105.741 148.045 103.179 150.581C102.329 148.389 100.812 140.606 97.3411 144.089C96.0207 142.714 95.6938 140.684 95.8769 138.706C98.6158 138.324 102.858 137.682 105.12 138.706H105.127Z" fill="#F7AF39"/>
<path d="M147.464 139.672C147.595 141.229 147.478 142.921 147.38 144.445C146.536 143.79 145.17 143.161 144.536 142.124C143.405 144.984 145.144 149.886 141.248 151.209C138.784 148.349 137.855 144.679 135.299 142.085C131.423 138.142 144.196 139.672 147.464 139.672Z" fill="#F7AF39"/>
<path d="M208.78 132.428C203.878 132.428 197.968 133.057 193.693 132.428C193.693 128.725 194.177 123.096 194.177 119.393C198.478 119.374 202.59 118.978 206.833 118.913C208.741 122.85 208.918 127.999 208.78 132.428Z" fill="#AB9DF2"/>
<path d="M147.948 171.534C144.052 169.744 139.516 171.002 135.783 169.602C137.3 165.464 136.267 159.614 136.267 155.12C140.647 155.12 145.026 155.6 149.406 155.6C148.497 161.359 148.177 165.769 147.948 171.534Z" fill="#AB9DF2"/>
<path d="M129.462 132.428C124.755 132.428 120.055 132.428 115.349 132.428C115.264 129.918 116.218 122.35 120.251 125.994C118.709 119.983 122.709 120.372 127.514 120.359C129.665 128.167 128.848 136.948 128.488 144.983" fill="#F7AF39"/>
<path d="M204.402 133.395C204.199 131.235 204.094 129.348 202.565 127.772C202.231 128.135 201.918 128.622 201.506 128.92C200.238 127.474 199.591 125.723 198.95 123.881C195.126 124.659 192.491 129.063 193.694 132.435C196.852 132.435 201.421 132.428 204.402 133.401V133.395Z" fill="#F7AF39"/>
<path d="M175.691 158.499C177.443 158.908 178.56 159.563 178.685 161.32C182.188 160.107 185.843 162.098 183.895 166.152C182.038 167.008 180.142 166.722 178.966 164.919C177.685 166.969 177.501 171.015 175.207 170.088C175.266 167.312 176.639 160.496 175.691 158.499Z" fill="#F7AF39"/>
<path d="M148.439 120.36C148.439 124.147 148.42 127.818 148.923 131.462C146.942 135.055 138.098 133.395 134.326 133.395C135.542 128.991 141.066 128.991 143.086 125.671C141.288 123.245 138.837 121.293 135.784 120.36C140.294 119.555 143.975 120.599 148.439 120.36Z" fill="#FF6188"/>
<path d="M204.401 145.463C202.329 147.227 199.277 150.243 196.204 149.737C196.394 147.72 196.204 145.547 194.818 143.984C197.041 144.043 199.263 144.017 201.486 144.017C202.31 144.607 203.663 144.814 204.408 145.463H204.401Z" fill="#FF6188"/>
<path d="M128.489 157.052C130.156 161.507 126.75 164.679 123.626 160.385C121.05 163.531 123.174 167.798 116.814 166.708C116.435 163.466 116.324 158.758 116.33 156.572C119.834 156.391 124.939 157.039 128.496 157.052H128.489Z" fill="#FF6188"/>
<path d="M122.161 138.219C122.913 140.846 122.946 143.608 120.265 145.087C121.344 146.741 121.468 148.978 120.703 150.775C118.487 151.455 116.206 151.241 113.892 151.254C113.892 146.825 113.343 141.87 114.376 137.739C116.644 137.739 119.893 138.219 122.161 138.219Z" fill="#FF6188"/>
<path d="M129.462 119.393C128.697 126.138 120.565 126.131 114.865 126.151C115.715 123.647 115.349 120.677 115.349 117.94C118.957 118.531 125.769 119.627 129.462 119.387V119.393Z" fill="#FF6188"/>
<path d="M167.416 138.706C165.507 140.937 163.252 143.401 162.206 145.918C160.781 143.752 160.226 141.119 159.232 138.855C159.055 139.056 159.042 139.264 159.186 139.484C161.664 138.466 164.259 138.025 166.926 138.226C167.253 139.465 167.076 137.318 167.41 138.706H167.416Z" fill="#AB9DF2"/>
<path d="M215.109 142.085C217.365 142.623 219.914 143.525 220.908 145.49C219.247 146.67 217.149 147.105 215.109 146.91C215.26 145.723 215.587 143.155 215.109 142.085Z" fill="#A9DC76"/>
<path d="M159.147 158.012C159.683 160.703 160.023 163.531 160.559 166.17C160.102 165.82 159.187 165.625 158.657 165.197C157.807 166.851 156.474 167.649 154.761 166.702C154.905 163.498 154.349 160.671 154.833 157.603C156.225 157.35 157.846 157.409 159.141 158.012H159.147Z" fill="#78DCE8"/>
<path d="M140.164 170.567C140.079 166.384 139.68 160.243 139.68 157.052C138.059 157.052 136.438 156.572 134.816 156.572C134.646 161.332 135.163 165.451 134.882 170.003C136.49 170.373 138.608 170.25 140.17 170.567H140.164Z" fill="#78DCE8"/>
<path d="M200.995 119.393C200.995 122.752 201.087 126.157 200.923 129.49C197.675 127.914 196.884 123.595 194.256 121.708C194.498 121.124 194.563 120.495 194.668 119.872C196.452 119.872 199.211 119.393 200.995 119.393Z" fill="#78DCE8"/>
<path d="M213.396 118.81C218.508 118.81 223.718 118.602 228.804 118.868C229.346 123.129 228.104 127.753 228.104 132.286C223.672 132.286 217.587 132.895 214.148 132.662C214.148 130.515 213.763 125.859 213.54 122.299" stroke="#141721" stroke-width="0.5" stroke-miterlimit="10"/>
<path d="M228.203 170.184C228.203 165.612 228.517 161.131 228.517 156.514C223.601 156.527 218.692 157.687 213.789 156.987C213.789 159.828 213.939 162.649 213.946 165.476C213.946 166.799 213.593 169.199 214.103 170.34C217.482 170.34 220.542 170.34 223.921 170.34" stroke="#141721" stroke-width="0.5" stroke-miterlimit="10"/>
<path d="M227.961 137.694C223.353 137.694 218.836 137.383 214.182 137.383C214.195 142.26 215.365 147.13 214.659 151.994C217.522 151.994 220.366 151.845 223.216 151.838C224.549 151.838 226.968 152.189 228.118 151.683C228.118 148.33 228.118 145.295 228.118 141.942" stroke="#141721" stroke-width="0.5" stroke-miterlimit="10"/>
<path d="M209.134 132.629C204.023 132.629 198.813 132.837 193.727 132.571C193.184 128.31 194.426 123.686 194.426 119.153C198.858 119.153 204.944 118.543 208.383 118.777C208.383 120.924 208.768 125.58 208.991 129.14" stroke="#141721" stroke-width="0.5" stroke-miterlimit="10"/>
<path d="M194.327 137.87C194.327 142.442 194.014 146.923 194.014 151.54C198.929 151.527 203.839 150.367 208.741 151.067C208.741 148.226 208.591 145.405 208.584 142.578C208.584 141.255 208.937 138.855 208.428 137.714C205.048 137.714 201.989 137.714 198.609 137.714" stroke="#141721" stroke-width="0.5" stroke-miterlimit="10"/>
<path d="M194.571 170.366C199.179 170.366 203.696 170.678 208.351 170.678C208.338 165.801 207.168 160.93 207.874 156.066C205.01 156.066 202.167 156.216 199.317 156.222C197.983 156.222 195.565 155.872 194.414 156.378C194.414 159.731 194.414 162.766 194.414 166.118" stroke="#141721" stroke-width="0.5" stroke-miterlimit="10"/>
<path d="M169.513 118.81C164.402 118.81 159.192 118.602 154.106 118.868C153.563 123.129 154.805 127.753 154.805 132.286C159.237 132.286 165.323 132.895 168.762 132.662C168.762 130.515 169.147 125.859 169.37 122.299" stroke="#141721" stroke-width="0.5" stroke-miterlimit="10"/>
<path d="M154.714 170.184C154.714 165.612 154.4 161.131 154.4 156.514C159.316 156.527 164.225 157.687 169.128 156.987C169.128 159.828 168.978 162.649 168.971 165.476C168.971 166.799 169.324 169.199 168.814 170.34H158.996" stroke="#141721" stroke-width="0.5" stroke-miterlimit="10"/>
<path d="M154.95 137.694C159.558 137.694 164.075 137.383 168.73 137.383C168.717 142.26 167.546 147.13 168.252 151.994C165.389 151.994 162.546 151.845 159.696 151.838C158.362 151.838 155.943 152.189 154.793 151.683C154.793 148.33 154.793 145.295 154.793 141.942" stroke="#141721" stroke-width="0.5" stroke-miterlimit="10"/>
<path d="M173.775 132.629C178.887 132.629 184.097 132.837 189.183 132.571C189.725 128.31 188.483 123.686 188.483 119.153C184.051 119.153 177.966 118.543 174.527 118.777C174.527 120.924 174.141 125.58 173.919 129.14" stroke="#141721" stroke-width="0.5" stroke-miterlimit="10"/>
<path d="M188.582 137.87C188.582 142.442 188.896 146.923 188.896 151.54C183.98 151.527 179.071 150.367 174.168 151.067C174.168 148.226 174.318 145.405 174.325 142.578C174.325 141.255 173.972 138.855 174.482 137.714H184.3" stroke="#141721" stroke-width="0.5" stroke-miterlimit="10"/>
<path d="M174.723 156.378C179.332 156.378 183.849 156.066 188.503 156.066C188.49 160.943 187.32 165.814 188.026 170.678C185.163 170.678 182.319 170.528 179.469 170.522C178.136 170.522 175.717 170.872 174.566 170.366C174.566 167.013 174.566 163.978 174.566 160.626" stroke="#141721" stroke-width="0.5" stroke-miterlimit="10"/>
<path d="M110.16 118.81C105.048 118.81 99.8381 118.602 94.7524 118.868C94.2098 123.129 95.4519 127.753 95.4519 132.286C99.8839 132.286 105.97 132.895 109.408 132.662C109.408 130.515 109.794 125.859 110.016 122.299" stroke="#141721" stroke-width="0.5" stroke-miterlimit="10"/>
<path d="M95.3528 170.184C95.3528 165.612 95.0391 161.131 95.0391 156.514C99.9548 156.527 104.864 157.687 109.767 156.987C109.767 159.828 109.616 162.649 109.61 165.476C109.61 166.799 109.963 169.199 109.453 170.34H99.6345" stroke="#141721" stroke-width="0.5" stroke-miterlimit="10"/>
<path d="M95.5885 137.694C100.197 137.694 104.714 137.383 109.368 137.383C109.355 142.26 108.185 147.13 108.891 151.994C106.028 151.994 103.184 151.845 100.334 151.838C99.0008 151.838 96.5821 152.189 95.4316 151.683C95.4316 148.33 95.4316 145.295 95.4316 141.942" stroke="#141721" stroke-width="0.5" stroke-miterlimit="10"/>
<path d="M114.422 132.629C119.534 132.629 124.744 132.837 129.829 132.571C130.372 128.31 129.13 123.686 129.13 119.153C124.698 119.153 118.612 118.543 115.174 118.777C115.174 120.924 114.788 125.58 114.566 129.14" stroke="#141721" stroke-width="0.5" stroke-miterlimit="10"/>
<path d="M129.22 137.87C129.22 142.442 129.534 146.923 129.534 151.54C124.619 151.527 119.709 150.367 114.807 151.067C114.807 148.226 114.957 145.405 114.964 142.578C114.964 141.255 114.611 138.855 115.12 137.714H124.939" stroke="#141721" stroke-width="0.5" stroke-miterlimit="10"/>
<path d="M128.985 170.366C124.376 170.366 119.859 170.678 115.205 170.678C115.218 165.801 116.388 160.93 115.682 156.066C118.545 156.066 121.389 156.216 124.239 156.222C125.573 156.222 127.991 155.872 129.142 156.378V166.118" stroke="#141721" stroke-width="0.5" stroke-miterlimit="10"/>
<path d="M149.773 132.629C144.661 132.629 139.451 132.837 134.366 132.571C133.823 128.31 135.065 123.686 135.065 119.153C139.497 119.153 145.583 118.543 149.021 118.777C149.021 120.924 149.407 125.58 149.629 129.14" stroke="#141721" stroke-width="0.5" stroke-miterlimit="10"/>
<path d="M134.974 137.87C134.974 142.442 134.66 146.923 134.66 151.54C139.576 151.527 144.485 150.367 149.388 151.067C149.388 148.226 149.237 145.405 149.231 142.578C149.231 141.255 149.584 138.855 149.074 137.714C145.694 137.714 142.635 137.714 139.256 137.714" stroke="#141721" stroke-width="0.5" stroke-miterlimit="10"/>
<path d="M148.831 156.378C144.222 156.378 139.705 156.066 135.051 156.066C135.064 160.943 136.234 165.814 135.528 170.678C138.391 170.678 141.235 170.528 144.085 170.522C145.418 170.522 147.837 170.872 148.987 170.366C148.987 167.013 148.987 163.978 148.987 160.626" stroke="#141721" stroke-width="0.5" stroke-miterlimit="10"/>
</g>
<defs>
<clipPath id="clip0_3535_19530">
<rect width="181" height="137" fill="white" transform="translate(75.8008 61)"/>
</clipPath>
</defs>
</svg>
