<svg width="180" height="220" viewBox="0 0 180 220" fill="none" xmlns="http://www.w3.org/2000/svg">
<g clip-path="url(#clip0_2869_4869)">
<path d="M172.764 148.866C178.093 135.308 185.024 107.79 172.269 97.1755C175.76 81.7481 176.675 68.7187 170.876 54.0878C165.036 39.3563 161.546 26.5532 168.124 11.8804C166.563 12.2996 165.095 12.0481 163.66 12.5595C165.145 8.5266 167.058 4.30083 167.604 -0.00878906C163.778 2.23825 159.506 3.73068 156.125 6.88324C156.326 5.3405 156.553 4.79551 157.115 3.42046C143.186 17.9172 115.571 3.81453 98.3605 2.44786C87.1164 1.55911 76.7115 2.70778 66.1387 5.54173C55.9854 8.26668 44.5903 12.6769 33.9168 10.2538C28.8486 9.10512 24.7118 6.64848 19.7023 5.26504C17.9737 4.78713 14.0719 5.29019 12.3769 5.0722C10.4469 4.82905 7.82051 2.13763 5.63043 1.60941C6.04159 5.62557 7.35061 9.13028 8.32397 12.8781C6.62058 12.8614 8.08063 15.0581 6.59541 15.8798C8.66801 32.5732 14.9529 49.1577 7.84568 66.3794C0.461509 84.2886 2.4502 98.8357 7.37578 117.047C1.72017 131.317 -3.1131 146.929 4.29624 162.499C7.84568 169.961 14.1054 176.426 14.0551 185.229C14.0299 189.438 12.7629 193.069 10.2707 196.381C9.18826 197.823 0.612549 202.929 4.53119 201.327C6.46954 200.531 10.3714 204.555 12.9139 204.312C12.9139 209.611 11.3783 214.776 12.7964 219.983C14.0131 217.149 15.6914 214.516 17.8143 212.101C18.259 212.906 18.2255 213.577 18.9555 214.441C36.8957 205.226 49.7341 210.676 68.9581 213.653C89.5247 216.839 106.366 209.008 126.336 206.148C134.451 204.991 146.433 204.379 153.096 210.466C153.297 208.286 154.782 205.897 154.421 203.298C158.256 206.358 162.922 210.022 166.387 214.273C166.639 209.98 167.277 205.712 165.011 202.275C167.889 201.805 170.784 200.875 173.822 201.16C169.668 193.731 162.418 185.565 161.814 176.702C161.143 166.943 169.299 157.653 172.756 148.849L172.764 148.866ZM151.417 85.8062C149.143 108.545 151.678 131.577 150.469 154.961C149.882 166.297 152.827 182.127 150.469 191.87C141.029 195.601 125.296 192.322 114.48 191.87C104.562 191.45 94.5258 191.87 84.5907 191.87C74.6556 191.87 65.3835 191.341 55.9267 190.872C46.5371 190.402 34.0343 193.228 25.3663 189.975C25.3663 135.878 26.3145 78.2937 26.3145 24.2559C67.5652 24.2559 107.952 20.3906 148.564 23.3084C147.616 33.6045 151.619 43.8839 152.366 54.0878C153.138 64.6606 152.416 75.6526 151.409 85.8062H151.417Z" fill="#F7AF39"/>
<path d="M99.4765 104.604C92.2518 102.148 88.1821 110.239 84.6159 115.118C82.1321 118.514 74.7647 128.609 78.5659 132.449C78.9099 128.139 87.0829 123.293 89.8939 120.115C93.4685 116.074 96.8417 111.521 99.4849 104.604H99.4765Z" fill="#F6AE38"/>
<path d="M97.4459 106.122C102.749 105.661 105.409 101.653 110.108 100.035C113.364 98.92 122.56 96.9413 125.867 98.0061C133.511 100.471 126.345 105.183 123.207 107.514C119.389 110.348 118.231 114.549 114.186 117.399C112.063 118.892 109.126 121.424 106.584 121.34C103.773 121.248 100.76 117.366 97.513 116.812C97.4627 120.577 103.311 120.996 103.034 125.641C102.867 128.534 100.114 130.429 97.941 131.846C94.6181 134.017 91.7148 134.101 87.88 135.158C85.0774 135.929 81.5531 138.285 78.7421 137.983C77.6848 132.273 83.8942 127.234 86.915 122.958C90.3806 118.045 93.7706 113.408 97.4459 106.114V106.122Z" fill="#A89BCA"/>
<path d="M94.0223 102.197C91.5553 96.9068 88.6688 92.9158 84.1124 89.562C81.4776 87.6168 78.2722 85.9735 75.7801 83.936C73.976 82.4604 73.0529 79.8696 71.2572 78.6119C61.1711 71.5522 56.3546 86.5688 58.142 94.1986C58.7713 96.9068 59.4929 99.0029 59.3754 101.828C59.3419 102.717 58.7126 104.503 58.9895 105.249C59.3251 106.155 60.6677 106.691 60.8858 107.236C62.1865 110.414 60.374 110.263 58.6035 113.625C57.6637 115.42 57.0595 117.474 57.4539 119.696C57.8567 121.951 59.3251 122.999 60.4243 124.743C61.6494 126.688 62.1026 129.07 63.4032 130.914C64.8381 132.952 68.0183 135.039 70.6111 134.545C73.9676 133.899 73.1956 131.359 74.278 128.273C75.4192 125.003 76.6108 125.313 78.6079 122.932C80.8483 120.258 81.6203 116.501 83.9698 113.818C87.6954 109.559 90.3722 104.109 94.0223 102.214V102.197Z" fill="#A89BCA"/>
<path d="M69.5287 85.3285C66.9274 83.2072 62.22 81.7651 62.5221 87.4833C62.7403 91.5749 68.7063 92.5056 69.0168 87.869" fill="#F3ED76"/>
<path d="M79.1701 116.778C72.9774 115.697 67.9008 112.896 61.9851 113.81C60.7264 126.295 77.5758 131.451 76.1241 117.793C76.8038 117.357 78.5239 117.332 79.1701 116.778Z" fill="#EF6186"/>
<path d="M121.814 102.005C120.832 102.508 119.456 101.15 118.239 101.661C117.207 102.097 116.309 103.791 116.905 104.621C118.029 106.197 122.611 105.392 122.2 102.961C122.158 102.709 121.822 102.265 121.822 102.013L121.814 102.005Z" fill="#F3ED76"/>
<path d="M92.3105 121.407C91.1526 123.327 89.424 124.442 88.266 126.538C87.343 128.206 85.7822 130.068 85.2872 131.845C87.301 131.258 88.9457 132.114 90.5904 130.73C91.5637 129.908 92.6462 128.743 93.5188 127.863C95.8264 125.557 95.3481 122.572 95.3481 119.512C94.551 119.654 92.7301 120.702 92.3021 121.415L92.3105 121.407Z" fill="#EF6186"/>
<path d="M87.3598 101.628C87.3346 98.4922 84.3642 95.4068 81.4105 98.3497C80.0008 99.7499 80.3868 102.072 82.0314 102.777C83.416 103.372 86.0843 102.651 87.3598 102.207C87.4017 101.913 87.5276 101.854 87.3598 101.636V101.628Z" fill="#A9D277"/>
<path d="M105.25 105.811C103.613 105.61 101.969 106.625 102.422 108.444C103.437 108.553 104.654 109.324 105.443 108.469C106.122 107.74 106.022 106.675 105.25 105.803V105.811Z" fill="#A9D277"/>
<path d="M28.3703 23.9035C68.1861 23.8196 108.002 23.7274 147.826 23.6436" stroke="#141721" stroke-width="0.5" stroke-miterlimit="10"/>
<path d="M29.2933 193.161C69.7217 193.136 110.158 193.111 150.587 193.086" stroke="#141721" stroke-width="0.5" stroke-miterlimit="10"/>
<path d="M23.3524 196.532C23.6965 138.772 24.0321 81.0194 24.3762 23.2588" stroke="#141721" stroke-width="0.5" stroke-miterlimit="10"/>
<path d="M153.507 193.303C153.264 137.538 153.02 81.7817 152.785 26.0166" stroke="#141721" stroke-width="0.5" stroke-miterlimit="10"/>
<path d="M5.13535 14.5049C12.2091 24.6585 15.1879 37.4112 13.3251 49.5268C11.6385 60.4769 6.25137 70.5299 2.95367 81.1278C-0.344037 91.7258 -1.25028 104.059 5.34513 113.106" stroke="#141721" stroke-width="0.5" stroke-miterlimit="10"/>
<path d="M6.73806 201.26C12.486 193.354 12.7125 182.798 10.7406 173.323C8.76871 163.841 4.85006 154.819 2.96206 145.319C1.07406 135.82 1.5104 125.247 7.46808 117.491" stroke="#141721" stroke-width="0.5" stroke-miterlimit="10"/>
<path d="M171.103 201.26C164.029 191.107 161.05 178.354 162.913 166.239C164.6 155.288 169.987 145.235 173.285 134.638C176.582 124.04 177.489 111.706 170.893 102.659" stroke="#141721" stroke-width="0.5" stroke-miterlimit="10"/>
<path d="M169.492 14.5049C163.744 22.4114 163.517 32.9675 165.489 42.4419C167.461 51.9164 171.38 60.9464 173.268 70.446C175.156 79.9456 174.72 90.5184 168.762 98.2741" stroke="#141721" stroke-width="0.5" stroke-miterlimit="10"/>
<path d="M22.8238 6.35511C32.5323 13.7418 47.1664 12.6686 59.4426 9.44898C71.7188 6.22934 83.9194 1.24897 96.6823 2.16288C106.936 2.90071 116.317 7.39478 126.269 9.70051C136.221 12.0062 148.413 11.4612 154.732 4.27576" stroke="#141721" stroke-width="0.5" stroke-miterlimit="10"/>
<path d="M154.74 209.452C145.032 202.065 130.398 203.138 118.122 206.358C105.845 209.578 93.6447 214.558 80.8818 213.644C70.6279 212.906 61.2467 208.412 51.2948 206.106C41.343 203.801 29.1507 204.346 22.8322 211.531" stroke="#141721" stroke-width="0.5" stroke-miterlimit="10"/>
<path d="M155.445 11.5117C158.432 6.95056 163.006 3.46262 168.191 1.77734C168.133 7.18532 165.087 12.4675 160.43 15.2176" stroke="#141721" stroke-width="0.5" stroke-miterlimit="10"/>
<path d="M16.1864 18.0604C11.0427 15.0671 7.66947 9.2483 7.6359 3.30371C13.2663 5.22375 18.1751 9.17284 21.2463 14.2538" stroke="#141721" stroke-width="0.5" stroke-miterlimit="10"/>
<path d="M15.7921 199.608C12.5363 204.061 10.2875 209.234 9.24699 214.65C13.9208 212.629 17.6465 208.538 19.224 203.708" stroke="#141721" stroke-width="0.5" stroke-miterlimit="10"/>
<path d="M156.687 202.334C158.441 207.314 162.276 211.523 167.075 213.737C168.753 209.628 166.58 204.371 162.485 202.653" stroke="#141721" stroke-width="0.5" stroke-miterlimit="10"/>
<path d="M27.4473 17.0371H155.428" stroke="#141721" stroke-width="0.5" stroke-miterlimit="10"/>
<path d="M158.197 23.2588V191.937" stroke="#141721" stroke-width="0.5" stroke-miterlimit="10"/>
<path d="M28.8318 198.829H151.283" stroke="#141721" stroke-width="0.5" stroke-miterlimit="10"/>
<path d="M18.4353 193.999V26.7041" stroke="#141721" stroke-width="0.5" stroke-miterlimit="10"/>
<path d="M94.0391 102.148C92.5119 98.2324 89.7261 92.967 87.5444 90.8457C84.2719 87.668 80.6385 84.658 76.7618 82.2516C73.9508 80.4993 71.2405 78.5373 68.4882 76.8436C66.6757 75.7285 64.9639 75.8543 63.185 77.1036C61.2383 78.4702 58.4105 84.8089 57.3196 86.6367C55.4652 89.739 58.6454 93.4617 59.3922 97.3353C59.7614 99.2805 59.3503 100.547 59.1489 102.383C58.9559 104.16 58.5112 105.158 58.9055 106.709C59.0901 107.43 61.5823 107.615 62.992 108.151C69.2937 110.541 73.8417 113.023 80.5546 112.956" stroke="#141721" stroke-width="0.5" stroke-miterlimit="10"/>
<path d="M62.0354 109.845C58.0413 111.53 54.5925 119.42 58.4273 123.788C61.3306 127.108 62.2956 128.693 66.0044 131.242C67.2044 132.072 70.2419 134.017 71.5258 134.126C73.3299 134.285 73.7494 132.189 74.7396 130.756C75.864 129.121 76.4094 127.435 77.7436 125.951" stroke="#141721" stroke-width="0.5" stroke-miterlimit="10"/>
<path d="M98.3689 107.204C103.756 102.92 109.37 100.169 116.158 99.5071C118.533 99.2723 129.542 97.042 130.608 99.5071C132.093 102.953 125.237 109.828 122.67 110.809C119.934 111.849 119.38 111.522 117.131 113.45C115.227 115.085 111.535 117.827 109.428 119.219C105.266 121.969 100.358 116.569 96.1956 115.136" stroke="#141721" stroke-width="0.5" stroke-miterlimit="10"/>
<path d="M97.1606 117.542C100.29 120.426 103.051 126.446 100.836 129.616C97.5298 134.336 92.1847 134.948 86.9318 135.334C84.7753 135.493 80.6469 138.495 79.1113 136.533C81.0077 131.72 81.3937 129.867 84.8844 126.438C86.42 124.929 88.1234 121.734 89.8184 120.334" stroke="#141721" stroke-width="0.5" stroke-miterlimit="10"/>
<path d="M98.8472 103.356C94.8111 102.098 91.5973 107.531 89.7093 110.566C88.5345 112.453 83.7096 118.431 82.5349 120.242C81.3601 122.053 81.2091 124.409 80.2525 126.379C79.7155 127.478 76.6443 131.67 78.633 131.72" stroke="#141721" stroke-width="0.5" stroke-miterlimit="10"/>
<path d="M68.7735 84.5994C67.3386 81.3127 62.8158 83.216 62.2704 86.2092C61.6075 89.8313 65.7443 91.0806 68.0518 89.2863" stroke="#141721" stroke-width="0.5" stroke-miterlimit="10"/>
<path d="M87.536 100.471C87.6535 96.6306 79.791 96.0856 81.7629 102.273" stroke="#141721" stroke-width="0.5" stroke-miterlimit="10"/>
<path d="M63.0004 95.7842C63.4955 96.9748 64.2423 99.1883 64.1668 100.555C64.0493 102.718 62.413 103.104 63.8899 104.806C65.3499 106.491 72.4068 107.967 74.5466 108.051" stroke="#141721" stroke-width="0.5" stroke-miterlimit="10"/>
<path d="M98.7297 113.45C101.558 114.297 104.461 116.955 107.406 115.974C109.923 115.135 111.879 112.494 114.606 111.647" stroke="#141721" stroke-width="0.5" stroke-miterlimit="10"/>
<path d="M105.224 105.879C105.938 106.089 106.416 106.114 106.71 106.969C106.122 107.975 105.199 108.646 104.142 108.763" stroke="#141721" stroke-width="0.5" stroke-miterlimit="10"/>
<path d="M118.575 102.274C119.917 101.352 121.537 101.385 122.863 102.349C122.535 104.957 117.282 107.413 116.771 104.076" stroke="#141721" stroke-width="0.5" stroke-miterlimit="10"/>
<path d="M77.4331 90.3676C74.7983 86.6282 72.4488 94.3754 71.6181 96.2871C69.235 101.754 72.7844 100.706 75.629 104.068" stroke="#141721" stroke-width="0.5" stroke-miterlimit="10"/>
<path d="M110.637 103.355C115.436 104.177 110.125 107.833 108.749 109.409C105.904 112.662 105.35 111.438 101.247 111.296" stroke="#141721" stroke-width="0.5" stroke-miterlimit="10"/>
<path d="M77.0723 117.056C77.0723 119.345 75.3269 122.304 74.1858 124.266C72.4404 127.259 72.3145 128.148 69.3105 126.991C64.2423 125.046 60.1642 120.585 63.0004 115.253" stroke="#141721" stroke-width="0.5" stroke-miterlimit="10"/>
<path d="M88.9793 125.708C87.3933 127.704 86.42 129.917 84.683 131.77C91.4043 132.927 99.4514 125.641 94.7523 119.219" stroke="#141721" stroke-width="0.5" stroke-miterlimit="10"/>
<path d="M92.5874 115.974C93.8461 114.49 94.9957 112.545 96.1956 110.927" stroke="#141721" stroke-width="0.5" stroke-miterlimit="10"/>
</g>
<defs>
<clipPath id="clip0_2869_4869">
<rect width="179.502" height="220" fill="white"/>
</clipPath>
</defs>
</svg>
