<svg width="620" height="560" viewBox="0 0 620 560" fill="none" xmlns="http://www.w3.org/2000/svg">
<g clip-path="url(#clip0_741_1782)">
<path d="M549.789 461.27C542.559 463.7 527.819 472.12 520.139 473.13C511.599 474.25 492.639 478.92 484.279 480.19C470.459 482.29 466.499 479.46 453.029 477.82C439.559 476.18 434.159 475.53 433.079 483.11C431.239 495.97 441.569 502.91 448.519 505.7C460.539 510.52 467.979 511.93 480.909 510.61C487.289 509.95 503.129 510.06 509.129 509.28C517.599 508.18 530.139 507.59 537.269 507.28C537.269 507.28 552.059 512.75 557.689 512.85C575.379 513.18 590.449 510.25 603.429 501.29C609.639 497 609.809 486.68 613.779 478.97C615.509 475.6 618.699 471.66 619.429 468.05" stroke="#F0F2DA" stroke-miterlimit="10"/>
<path d="M474.12 453.08C451.85 459.37 457.18 459.01 433.46 463.15C410.66 467.13 367.4 472.63 344.51 477.92C336.54 479.76 318.2 481.28 317.83 490.94C317.35 503.54 332.42 506.85 341.14 507.04C362.3 507.51 365.41 502.21 365.41 495" stroke="#F0F2DA" stroke-miterlimit="10"/>
<path d="M368.52 502.21C381.03 502.21 394.49 503.04 405.79 497.97" stroke="#F0F2DA" stroke-miterlimit="10"/>
<path d="M436.85 480.19C438.78 484.47 440.68 487.21 444.92 489.5C449.01 491.71 452.1 491.79 456.33 492.79C458.61 489.12 460.14 486.17 460.57 481.88" stroke="#F0F2DA" stroke-miterlimit="10"/>
<path d="M322.21 487.94C330.81 487.94 339.21 487.7 346.77 484.55" stroke="#F0F2DA" stroke-miterlimit="10"/>
<path d="M308.66 500.64C303.68 498.13 294.71 488.89 301.01 480.73C305.25 475.23 318.32 474.82 324.37 473.56C332.34 471.9 340.7 470.94 348.9 469.33C365.09 466.15 402.29 462.72 418.22 457.31C432.26 452.55 449.35 447.56 463.96 443.76C477.42 440.26 493.94 433.06 507.16 428.51C534.35 419.15 560.86 409.91 589.31 405.92C599.67 404.47 610.18 407.26 620.22 409.93" stroke="#F0F2DA" stroke-miterlimit="10"/>
<path d="M303.58 482.85C307.17 483.22 310.5 484.09 313.74 482.85" stroke="#F0F2DA" stroke-miterlimit="10"/>
<path d="M545.27 461.27C539.95 462.14 534.84 461.94 529.74 463.01C525.31 463.95 519.85 466.08 515.34 465.79" stroke="#F0F2DA" stroke-miterlimit="10"/>
<path d="M603.44 414.96C599.57 414.15 594.07 415.31 591.02 413.27" stroke="#F0F2DA" stroke-miterlimit="10"/>
<path d="M482.59 483.29C483.89 485.37 483.99 487.96 484.28 490.63" stroke="#F0F2DA" stroke-miterlimit="10"/>
<path d="M489.93 492.33C489.9 489.58 489.44 486.94 488.8 484.42" stroke="#F0F2DA" stroke-miterlimit="10"/>
<path d="M423.859 469.18C425.069 470.91 425.559 474.16 426.119 475.96" stroke="#F0F2DA" stroke-miterlimit="10"/>
<path d="M430.07 473.13C429.75 471.08 429.32 469.05 428.38 467.48" stroke="#F0F2DA" stroke-miterlimit="10"/>
<path d="M615.29 487.42C616.77 487.06 618.28 486.76 619.82 486.52" stroke="#F0F2DA" stroke-miterlimit="10"/>
<path d="M289.46 493.87C266.86 493.87 280.56 494.07 258.4 493.31C251.55 498.26 244.58 514.32 238.64 520.01C277.46 520.01 280.3 520.01 319.96 520.01C362.84 520.01 382.29 519.26 424.81 519.26C423.85 514.88 422.03 508.39 419.92 504.95" stroke="#F0F2DA" stroke-miterlimit="10"/>
<path d="M411.44 487.25C411.12 490.36 410.87 493.45 409.96 496.33C416.17 497.73 423 497.42 429.51 497.42" stroke="#F0F2DA" stroke-miterlimit="10"/>
<path d="M551.2 435.29C540.54 434.86 530.16 436.44 520.71 440.37" stroke="#F0F2DA" stroke-miterlimit="10"/>
<path d="M501.22 438.68C520.21 431.97 519.86 431.9 538.49 426.82" stroke="#F0F2DA" stroke-miterlimit="10"/>
<path d="M287.73 485.4C231.03 485.44 56.7 485.47 0 485.51" stroke="#F0F2DA" stroke-miterlimit="10"/>
</g>
<defs>
<clipPath id="clip0_741_1782">
<rect width="620" height="560" fill="white"/>
</clipPath>
</defs>
</svg>
