<svg width="620" height="560" viewBox="0 0 620 560" fill="none" xmlns="http://www.w3.org/2000/svg">
<g clip-path="url(#clip0_741_2019)">
<path d="M107.33 507.73C104.29 512.62 101.36 517.39 98.6299 520C137.45 520 140.29 520 179.95 520C222.83 520 242.28 519.25 284.8 519.25C284.4 517.45 280.35 502.27 279.7 500.12" stroke="#F0F2DA" stroke-miterlimit="10"/>
<path d="M271.72 493.87C251.29 493.87 189.65 494.04 165.47 493.5" stroke="#F0F2DA" stroke-miterlimit="10"/>
<path d="M600.729 478.41C605.599 471.79 607.45 464.61 609.9 456.55" stroke="#F0F2DA" stroke-miterlimit="10"/>
<path d="M529.79 461.27C522.56 463.7 507.82 472.12 500.14 473.13C491.6 474.25 472.64 478.92 464.28 480.19C450.46 482.29 446.5 479.46 433.03 477.82C419.56 476.18 414.16 475.53 413.08 483.11C411.24 495.97 421.57 502.91 428.52 505.7C440.54 510.52 447.98 511.93 460.91 510.61C467.29 509.95 483.13 510.06 489.13 509.28C497.6 508.18 510.14 507.59 517.27 507.28C517.27 507.28 532.06 512.75 537.69 512.85C555.38 513.18 570.45 510.25 583.43 501.29C589.64 497 589.81 486.68 593.78 478.97C595.51 475.6 598.7 471.66 599.43 468.05" stroke="#F0F2DA" stroke-miterlimit="10"/>
<path d="M454.12 453.08C431.85 459.37 437.18 459.01 413.46 463.15C390.66 467.13 347.4 472.63 324.51 477.92C316.54 479.76 298.2 481.28 297.83 490.94C297.35 503.54 312.42 506.85 321.14 507.04C342.3 507.51 345.41 502.21 345.41 495" stroke="#F0F2DA" stroke-miterlimit="10"/>
<path d="M348.52 502.21C361.03 502.21 374.49 503.04 385.79 497.97" stroke="#F0F2DA" stroke-miterlimit="10"/>
<path d="M416.85 480.19C418.78 484.47 420.68 487.21 424.92 489.5C429.01 491.71 432.1 491.79 436.33 492.79C438.61 489.12 440.14 486.17 440.57 481.88" stroke="#F0F2DA" stroke-miterlimit="10"/>
<path d="M302.21 487.94C310.81 487.94 319.21 487.7 326.77 484.55" stroke="#F0F2DA" stroke-miterlimit="10"/>
<path d="M288.66 500.64C283.68 498.13 274.71 488.89 281.01 480.73C285.25 475.23 298.32 474.82 304.37 473.56C312.34 471.9 320.7 470.94 328.9 469.33C345.09 466.15 382.29 462.72 398.22 457.31C412.26 452.55 427.48 450.4 442.1 446.6C455.56 443.1 472.08 435.9 485.3 431.35C512.49 421.99 539.01 413.32 567.46 409.33C580.49 407.5 595.62 408.99 607.88 411.89C610.53 412.52 614.74 413.19 620.01 413.88" stroke="#F0F2DA" stroke-miterlimit="10"/>
<path d="M283.58 482.85C287.17 483.22 290.5 484.09 293.74 482.85" stroke="#F0F2DA" stroke-miterlimit="10"/>
<path d="M525.27 461.27C519.95 462.14 514.84 461.94 509.74 463.01C505.31 463.95 499.12 468.92 494.6 468.63" stroke="#F0F2DA" stroke-miterlimit="10"/>
<path d="M592.86 418.65C588.99 417.84 574.06 415.31 571.01 413.27" stroke="#F0F2DA" stroke-miterlimit="10"/>
<path d="M462.59 483.29C463.89 485.37 463.99 487.96 464.28 490.63" stroke="#F0F2DA" stroke-miterlimit="10"/>
<path d="M469.93 492.33C469.9 489.58 469.44 486.94 468.8 484.42" stroke="#F0F2DA" stroke-miterlimit="10"/>
<path d="M403.859 469.18C405.069 470.91 405.559 474.16 406.119 475.96" stroke="#F0F2DA" stroke-miterlimit="10"/>
<path d="M410.07 473.13C409.75 471.08 409.32 469.05 408.38 467.48" stroke="#F0F2DA" stroke-miterlimit="10"/>
<path d="M595.29 487.42C602.87 485.58 611.26 485.78 619.53 486.48" stroke="#F0F2DA" stroke-miterlimit="10"/>
<path d="M391.44 487.25C391.12 490.36 390.87 493.45 389.96 496.33C396.17 497.73 403 497.42 409.51 497.42" stroke="#F0F2DA" stroke-miterlimit="10"/>
<path d="M531.2 435.29C520.54 434.86 510.16 436.44 500.71 440.37" stroke="#F0F2DA" stroke-miterlimit="10"/>
<path d="M481.22 438.68C500.21 431.97 499.86 431.9 518.49 426.82" stroke="#F0F2DA" stroke-miterlimit="10"/>
<path d="M271.72 485.42C259.22 485.42 199.88 485.44 170.3 485.44" stroke="#F0F2DA" stroke-miterlimit="10"/>
<path d="M-0.0390625 451.96C9.11094 454.75 10.4709 455.31 28.3609 458.43C51.1609 462.41 94.4209 467.91 117.311 473.2C125.281 475.04 143.621 476.56 143.991 486.22C144.471 498.82 129.401 502.13 120.681 502.32C99.5209 502.79 96.4109 497.49 96.4109 490.28" stroke="#F0F2DA" stroke-miterlimit="10"/>
<path d="M139.611 483.22C131.011 483.22 122.611 482.98 115.051 479.83" stroke="#F0F2DA" stroke-miterlimit="10"/>
<path d="M153.17 495.92C158.15 493.41 167.12 484.17 160.82 476.01C156.58 470.51 143.51 470.1 137.46 468.84C129.49 467.18 121.13 466.22 112.93 464.61C96.7405 461.43 59.5405 458 43.6105 452.59C29.5705 447.83 14.3505 445.68 -0.269531 441.88" stroke="#F0F2DA" stroke-miterlimit="10"/>
<path d="M158.251 478.14C154.661 478.51 151.331 479.38 148.091 478.14" stroke="#F0F2DA" stroke-miterlimit="10"/>
<path d="M1.6607 483.56C0.360703 485.64 0.260703 488.23 -0.0292969 490.9" stroke="#F0F2DA" stroke-miterlimit="10"/>
<path d="M0 468.08C5.36 468.89 10.63 469.54 16.37 469.86C28.8 470.55 51.09 474.47 63.46 475.69C68.83 476.22 73.91 477.41 79.44 477.65C84.03 477.85 88.89 480.13 87.34 485.56C84.78 494.54 71.67 500.73 63.45 501.04C56.6 501.3 56.77 502.11 50.22 500.12C47.59 499.32 43.79 499.09 42.23 496.76C40.76 494.57 41.91 490.51 42.23 488.18" stroke="#F0F2DA" stroke-miterlimit="10"/>
<path d="M93.8706 494.9C92.6806 492.43 92.1506 490.02 91.8906 487.32" stroke="#F0F2DA" stroke-miterlimit="10"/>
<path d="M82.8101 482.92C77.8001 485.4 64.9601 483.33 60.1201 481.2C60.1701 480.65 60.4401 479.98 60.7401 479.63" stroke="#F0F2DA" stroke-miterlimit="10"/>
<path d="M36.6405 496.74C29.0905 498.28 7.72055 499.1 0.810547 494.15" stroke="#F0F2DA" stroke-miterlimit="10"/>
</g>
<defs>
<clipPath id="clip0_741_2019">
<rect width="620" height="560" fill="white"/>
</clipPath>
</defs>
</svg>
