<svg width="620" height="560" viewBox="0 0 620 560" fill="none" xmlns="http://www.w3.org/2000/svg">
<path d="M572.79 461.27C565.56 463.7 550.82 472.12 543.14 473.13C534.6 474.25 515.64 478.92 507.28 480.19C493.46 482.29 489.5 479.46 476.03 477.82C462.56 476.18 457.16 475.53 456.08 483.11C454.24 495.97 464.57 502.91 471.52 505.7C483.54 510.52 490.98 511.93 503.91 510.61C510.29 509.95 526.13 510.06 532.13 509.28C540.6 508.18 553.14 507.59 560.27 507.28C560.27 507.28 575.06 512.75 580.69 512.85C595.36 513.13 608.22 511.16 619.58 505.37" stroke="#F0F2DA" stroke-miterlimit="10"/>
<path d="M497.12 453.08C474.85 459.37 480.18 459.01 456.46 463.15C433.66 467.13 390.4 472.63 367.51 477.92C359.54 479.76 341.2 481.28 340.83 490.94C340.35 503.54 355.42 506.85 364.14 507.04C385.3 507.51 388.41 502.21 388.41 495" stroke="#F0F2DA" stroke-miterlimit="10"/>
<path d="M391.52 502.21C404.03 502.21 417.49 503.04 428.79 497.97" stroke="#F0F2DA" stroke-miterlimit="10"/>
<path d="M459.85 480.19C461.78 484.47 463.68 487.21 467.92 489.5C472.01 491.71 475.1 491.79 479.33 492.79C481.61 489.12 483.14 486.17 483.57 481.88" stroke="#F0F2DA" stroke-miterlimit="10"/>
<path d="M345.21 487.94C353.81 487.94 362.21 487.7 369.77 484.55" stroke="#F0F2DA" stroke-miterlimit="10"/>
<path d="M331.66 500.64C326.68 498.13 317.71 488.89 324.01 480.73C328.25 475.23 341.32 474.82 347.37 473.56C355.34 471.9 363.7 470.94 371.9 469.33C388.09 466.15 425.29 462.72 441.22 457.31C455.26 452.55 470.48 450.4 485.1 446.6C498.56 443.1 515.08 435.9 528.3 431.35C555.49 421.99 582.01 413.32 610.46 409.33C613.4 408.92 616.46 408.67 619.56 408.58" stroke="#F0F2DA" stroke-miterlimit="10"/>
<path d="M326.58 482.85C330.17 483.22 333.5 484.09 336.74 482.85" stroke="#F0F2DA" stroke-miterlimit="10"/>
<path d="M568.27 461.27C562.95 462.14 557.84 461.94 552.74 463.01C548.31 463.95 542.12 468.92 537.6 468.63" stroke="#F0F2DA" stroke-miterlimit="10"/>
<path d="M619.44 415.2C616.96 414.55 614.94 413.89 614.02 413.27" stroke="#F0F2DA" stroke-miterlimit="10"/>
<path d="M505.59 483.29C506.89 485.37 506.99 487.96 507.28 490.63" stroke="#F0F2DA" stroke-miterlimit="10"/>
<path d="M512.93 492.33C512.9 489.58 512.44 486.94 511.8 484.42" stroke="#F0F2DA" stroke-miterlimit="10"/>
<path d="M446.859 469.18C448.069 470.91 448.559 474.16 449.119 475.96" stroke="#F0F2DA" stroke-miterlimit="10"/>
<path d="M453.07 473.13C452.75 471.08 452.32 469.05 451.38 467.48" stroke="#F0F2DA" stroke-miterlimit="10"/>
<path d="M434.44 487.25C434.12 490.36 433.87 493.45 432.96 496.33C439.17 497.73 446 497.42 452.51 497.42" stroke="#F0F2DA" stroke-miterlimit="10"/>
<path d="M574.2 435.29C563.54 434.86 553.16 436.44 543.71 440.37" stroke="#F0F2DA" stroke-miterlimit="10"/>
<path d="M524.22 438.68C543.21 431.97 542.86 431.9 561.49 426.82" stroke="#F0F2DA" stroke-miterlimit="10"/>
<path d="M89.8396 507.73C86.7996 512.62 83.8696 517.39 81.1396 520C119.96 520 122.8 520 162.46 520C205.34 520 224.79 519.25 267.31 519.25C266.91 517.45 261.03 495.9 260.39 493.75C260.39 493.75 172.16 494.03 147.98 493.5" stroke="#F0F2DA" stroke-miterlimit="10"/>
<path d="M314.23 485.42C301.73 485.42 182.39 485.44 152.81 485.44" stroke="#F0F2DA" stroke-miterlimit="10"/>
<path d="M3.28027 456.99C5.55027 457.41 8.20027 457.88 11.3703 458.44C34.1703 462.42 77.4303 467.92 100.32 473.21C108.29 475.05 126.63 476.57 127 486.23C127.48 498.83 112.41 502.14 103.69 502.33C82.5303 502.8 79.4203 497.5 79.4203 490.29" stroke="#F0F2DA" stroke-miterlimit="10"/>
<path d="M122.61 483.22C114.01 483.22 105.61 482.98 98.0498 479.83" stroke="#F0F2DA" stroke-miterlimit="10"/>
<path d="M136.17 495.92C141.15 493.41 150.12 484.17 143.82 476.01C139.58 470.51 126.51 470.1 120.46 468.84C112.49 467.18 104.13 466.22 95.9299 464.61C79.7399 461.43 42.5399 458 26.6099 452.59C18.9599 449.99 10.9499 448.17 2.87988 446.44" stroke="#F0F2DA" stroke-miterlimit="10"/>
<path d="M141.25 478.14C137.66 478.51 134.33 479.38 131.09 478.14" stroke="#F0F2DA" stroke-miterlimit="10"/>
<path d="M3.23047 470.15C16.0105 471.29 35.2905 474.6 46.4605 475.69C51.8305 476.22 56.9105 477.41 62.4405 477.65C67.0305 477.85 71.8905 480.13 70.3405 485.56C67.7805 494.54 54.6705 500.73 46.4505 501.04C39.6005 501.3 39.7705 502.11 33.2205 500.12C30.5905 499.32 26.7905 499.09 25.2305 496.76C23.7605 494.57 24.9105 490.51 25.2305 488.18" stroke="#F0F2DA" stroke-miterlimit="10"/>
<path d="M76.8697 494.9C75.6797 492.43 75.1496 490.02 74.8896 487.32" stroke="#F0F2DA" stroke-miterlimit="10"/>
<path d="M65.8101 482.92C60.8001 485.4 47.9601 483.33 43.1201 481.2C43.1701 480.65 43.4401 479.98 43.7401 479.63" stroke="#F0F2DA" stroke-miterlimit="10"/>
<path d="M19.6401 496.74C16.0601 497.47 9.37008 498.04 2.58008 497.91" stroke="#F0F2DA" stroke-miterlimit="10"/>
</svg>
