<svg width="620" height="560" viewBox="0 0 620 560" fill="none" xmlns="http://www.w3.org/2000/svg">
<g clip-path="url(#clip0_741_2081)">
<path d="M3 460.34C26.81 464.07 60.89 468.71 80.31 473.2C88.28 475.04 106.62 476.56 106.99 486.22C107.47 498.82 92.4 502.13 83.68 502.32C62.52 502.79 59.41 497.49 59.41 490.28" stroke="#F0F2DA" stroke-miterlimit="10"/>
<path d="M102.611 483.22C94.0108 483.22 85.6108 482.98 78.0508 479.83" stroke="#F0F2DA" stroke-miterlimit="10"/>
<path d="M116.17 495.92C121.15 493.41 130.12 484.17 123.82 476.01C119.58 470.51 106.51 470.1 100.46 468.84C92.49 467.18 84.13 466.22 75.93 464.61C59.74 461.43 22.54 458 6.61 452.59C5.41 452.18 4.21 451.8 3 451.43" stroke="#F0F2DA" stroke-miterlimit="10"/>
<path d="M121.251 478.14C117.661 478.51 114.331 479.38 111.091 478.14" stroke="#F0F2DA" stroke-miterlimit="10"/>
<path d="M2.94043 472.58C11.6104 473.8 20.2804 475.08 26.4604 475.69C31.8304 476.22 36.9104 477.41 42.4404 477.65C47.0304 477.85 51.8904 480.13 50.3404 485.56C47.7804 494.54 34.6704 500.73 26.4504 501.04C19.6004 501.3 19.7704 502.11 13.2204 500.12C10.5904 499.32 6.79043 499.09 5.23043 496.76C3.76043 494.57 4.91043 490.51 5.23043 488.18" stroke="#F0F2DA" stroke-miterlimit="10"/>
<path d="M56.8706 494.9C55.6806 492.43 55.1506 490.02 54.8906 487.32" stroke="#F0F2DA" stroke-miterlimit="10"/>
<path d="M45.8101 482.92C40.8001 485.4 27.9601 483.33 23.1201 481.2C23.1701 480.65 23.4401 479.98 23.7401 479.63" stroke="#F0F2DA" stroke-miterlimit="10"/>
<path d="M612.79 461.27C605.56 463.7 590.82 472.12 583.14 473.13C574.6 474.25 555.64 478.92 547.28 480.19C533.46 482.29 529.5 479.46 516.03 477.82C502.56 476.18 497.16 475.53 496.08 483.11C494.24 495.97 504.57 502.91 511.52 505.7C523.54 510.52 530.98 511.93 543.91 510.61C550.29 509.95 566.13 510.06 572.13 509.28C580.6 508.18 593.14 507.59 600.27 507.28C600.27 507.28 615.06 512.75 620.69 512.85" stroke="#F0F2DA" stroke-miterlimit="10"/>
<path d="M537.12 453.08C514.85 459.37 520.18 459.01 496.46 463.15C473.66 467.13 430.4 472.63 407.51 477.92C399.54 479.76 381.2 481.28 380.83 490.94C380.35 503.54 395.42 506.85 404.14 507.04C425.3 507.51 428.41 502.21 428.41 495" stroke="#F0F2DA" stroke-miterlimit="10"/>
<path d="M431.52 502.21C444.03 502.21 457.49 503.04 468.79 497.97" stroke="#F0F2DA" stroke-miterlimit="10"/>
<path d="M499.85 480.19C501.78 484.47 503.68 487.21 507.92 489.5C512.01 491.71 515.1 491.79 519.33 492.79C521.61 489.12 523.14 486.17 523.57 481.88" stroke="#F0F2DA" stroke-miterlimit="10"/>
<path d="M385.21 487.94C393.81 487.94 402.21 487.7 409.77 484.55" stroke="#F0F2DA" stroke-miterlimit="10"/>
<path d="M371.66 500.64C366.68 498.13 357.71 488.89 364.01 480.73C368.25 475.23 381.32 474.82 387.37 473.56C395.34 471.9 403.7 470.94 411.9 469.33C428.09 466.15 465.29 462.72 481.22 457.31C495.26 452.55 510.48 450.4 525.1 446.6C538.56 443.1 555.08 435.9 568.3 431.35C585.59 425.4 602.6 419.73 620.01 415.36" stroke="#F0F2DA" stroke-miterlimit="10"/>
<path d="M366.58 482.85C370.17 483.22 373.5 484.09 376.74 482.85" stroke="#F0F2DA" stroke-miterlimit="10"/>
<path d="M608.27 461.27C602.95 462.14 597.84 461.94 592.74 463.01C588.31 463.95 582.12 468.92 577.6 468.63" stroke="#F0F2DA" stroke-miterlimit="10"/>
<path d="M545.59 483.29C546.89 485.37 546.99 487.96 547.28 490.63" stroke="#F0F2DA" stroke-miterlimit="10"/>
<path d="M552.93 492.33C552.9 489.58 552.44 486.94 551.8 484.42" stroke="#F0F2DA" stroke-miterlimit="10"/>
<path d="M486.859 469.18C488.069 470.91 488.559 474.16 489.119 475.96" stroke="#F0F2DA" stroke-miterlimit="10"/>
<path d="M493.07 473.13C492.75 471.08 492.32 469.05 491.38 467.48" stroke="#F0F2DA" stroke-miterlimit="10"/>
<path d="M474.44 487.25C474.12 490.36 473.87 493.45 472.96 496.33C479.17 497.73 486 497.42 492.51 497.42" stroke="#F0F2DA" stroke-miterlimit="10"/>
<path d="M614.2 435.29C603.54 434.86 593.16 436.44 583.71 440.37" stroke="#F0F2DA" stroke-miterlimit="10"/>
<path d="M564.22 438.68C583.21 431.97 582.86 431.9 601.49 426.82" stroke="#F0F2DA" stroke-miterlimit="10"/>
<path d="M69.8396 507.73C66.7996 512.62 63.8696 517.39 61.1396 520C99.9596 520 102.8 520 142.46 520C185.34 520 204.79 519.25 247.31 519.25C246.91 517.45 241.03 495.9 240.39 493.75C240.39 493.75 152.16 494.03 127.98 493.5" stroke="#F0F2DA" stroke-miterlimit="10"/>
<path d="M354.23 485.42C341.73 485.42 162.39 485.44 132.81 485.44" stroke="#F0F2DA" stroke-miterlimit="10"/>
</g>
<defs>
<clipPath id="clip0_741_2081">
<rect width="620" height="560" fill="white"/>
</clipPath>
</defs>
</svg>
