<svg width="620" height="560" viewBox="0 0 620 560" fill="none" xmlns="http://www.w3.org/2000/svg">
<g clip-path="url(#clip0_741_2108)">
<path d="M623.14 473.13C614.6 474.25 595.64 478.92 587.28 480.19C573.46 482.29 569.5 479.46 556.03 477.82C542.56 476.18 537.16 475.53 536.08 483.11C534.24 495.97 544.57 502.91 551.52 505.7C563.54 510.52 570.98 511.93 583.91 510.61C590.29 509.95 606.13 510.06 612.13 509.28C614.5 508.97 617.2 508.7 620 508.47" stroke="#F0F2DA" stroke-miterlimit="10"/>
<path d="M577.12 453.08C554.85 459.37 560.18 459.01 536.46 463.15C513.66 467.13 470.4 472.63 447.51 477.92C439.54 479.76 421.2 481.28 420.83 490.94C420.35 503.54 435.42 506.85 444.14 507.04C465.3 507.51 468.41 502.21 468.41 495" stroke="#F0F2DA" stroke-miterlimit="10"/>
<path d="M471.52 502.21C484.03 502.21 497.49 503.04 508.79 497.97" stroke="#F0F2DA" stroke-miterlimit="10"/>
<path d="M539.85 480.19C541.78 484.47 543.68 487.21 547.92 489.5C552.01 491.71 555.1 491.79 559.33 492.79C561.61 489.12 563.14 486.17 563.57 481.88" stroke="#F0F2DA" stroke-miterlimit="10"/>
<path d="M425.21 487.94C433.81 487.94 442.21 487.7 449.77 484.55" stroke="#F0F2DA" stroke-miterlimit="10"/>
<path d="M411.66 500.64C406.68 498.13 397.71 488.89 404.01 480.73C408.25 475.23 421.32 474.82 427.37 473.56C435.34 471.9 443.7 470.94 451.9 469.33C468.09 466.15 505.29 462.72 521.22 457.31C535.26 452.55 550.48 450.4 565.1 446.6C578.56 443.1 595.08 435.9 608.3 431.35C612.22 430 616.12 428.67 620.01 427.36" stroke="#F0F2DA" stroke-miterlimit="10"/>
<path d="M406.58 482.85C410.17 483.22 413.5 484.09 416.74 482.85" stroke="#F0F2DA" stroke-miterlimit="10"/>
<path d="M619.939 468.39C619.129 468.58 618.339 468.68 617.609 468.63" stroke="#F0F2DA" stroke-miterlimit="10"/>
<path d="M585.59 483.29C586.89 485.37 586.99 487.96 587.28 490.63" stroke="#F0F2DA" stroke-miterlimit="10"/>
<path d="M592.93 492.33C592.9 489.58 592.44 486.94 591.8 484.42" stroke="#F0F2DA" stroke-miterlimit="10"/>
<path d="M526.859 469.18C528.069 470.91 528.559 474.16 529.119 475.96" stroke="#F0F2DA" stroke-miterlimit="10"/>
<path d="M533.07 473.13C532.75 471.08 532.32 469.05 531.38 467.48" stroke="#F0F2DA" stroke-miterlimit="10"/>
<path d="M514.44 487.25C514.12 490.36 513.87 493.45 512.96 496.33C519.17 497.73 526 497.42 532.51 497.42" stroke="#F0F2DA" stroke-miterlimit="10"/>
<path d="M604.22 438.68C611.7 436.04 616.18 434.43 620 433.13" stroke="#F0F2DA" stroke-miterlimit="10"/>
<path d="M3 463.39C23.38 466.46 45.89 469.87 60.31 473.21C68.28 475.05 86.62 476.57 86.99 486.23C87.47 498.83 72.4 502.14 63.68 502.33C42.52 502.8 39.41 497.5 39.41 490.29" stroke="#F0F2DA" stroke-miterlimit="10"/>
<path d="M82.6098 483.22C74.0098 483.22 65.6098 482.98 58.0498 479.83" stroke="#F0F2DA" stroke-miterlimit="10"/>
<path d="M96.17 495.92C101.15 493.41 110.12 484.17 103.82 476.01C99.58 470.51 86.51 470.1 80.46 468.84C72.49 467.18 64.13 466.22 55.93 464.61C44.03 462.28 20.81 459.8 3 456.51" stroke="#F0F2DA" stroke-miterlimit="10"/>
<path d="M101.25 478.14C97.6598 478.51 94.3298 479.38 91.0898 478.14" stroke="#F0F2DA" stroke-miterlimit="10"/>
<path d="M3.11961 475.33C4.29961 475.47 5.41961 475.59 6.45961 475.69C11.8296 476.22 16.9096 477.41 22.4396 477.65C27.0296 477.85 31.8896 480.13 30.3396 485.56C27.7796 494.54 14.6696 500.73 6.44961 501.04C5.08961 501.09 4.00961 501.16 3.09961 501.23" stroke="#F0F2DA" stroke-miterlimit="10"/>
<path d="M36.8696 494.9C35.6796 492.43 35.1496 490.02 34.8896 487.32" stroke="#F0F2DA" stroke-miterlimit="10"/>
<path d="M25.8101 482.92C20.8001 485.4 7.96012 483.33 3.12012 481.2C3.17012 480.65 3.44012 479.98 3.74012 479.63" stroke="#F0F2DA" stroke-miterlimit="10"/>
<path d="M49.8396 507.73C46.7996 512.62 43.8696 517.39 41.1396 520C79.9596 520 82.7996 520 122.46 520C165.34 520 184.79 519.25 227.31 519.25C226.91 517.45 221.03 495.9 220.39 493.75C220.39 493.75 132.16 494.03 107.98 493.5" stroke="#F0F2DA" stroke-miterlimit="10"/>
<path d="M394.23 485.42C381.73 485.42 142.39 485.44 112.81 485.44" stroke="#F0F2DA" stroke-miterlimit="10"/>
</g>
<defs>
<clipPath id="clip0_741_2108">
<rect width="620" height="560" fill="white"/>
</clipPath>
</defs>
</svg>
