<svg width="620" height="560" viewBox="0 0 620 560" fill="none" xmlns="http://www.w3.org/2000/svg">
<g clip-path="url(#clip0_741_2134)">
<path d="M620 480.91C611.49 481.2 606.8 479.13 596.04 477.82C583.05 476.24 577.17 475.53 576.09 483.11C574.25 495.97 584.58 502.91 591.53 505.7C602.29 510.02 609.37 511.6 620.01 510.93" stroke="#F0F2DA" stroke-miterlimit="10"/>
<path d="M617.12 453.08C594.85 459.37 600.18 459.01 576.46 463.15C553.66 467.13 510.4 472.63 487.51 477.92C479.54 479.76 461.2 481.28 460.83 490.94C460.35 503.54 475.42 506.85 484.14 507.04C505.3 507.51 508.41 502.21 508.41 495" stroke="#F0F2DA" stroke-miterlimit="10"/>
<path d="M511.52 502.21C524.03 502.21 537.49 503.04 548.79 497.97" stroke="#F0F2DA" stroke-miterlimit="10"/>
<path d="M579.85 480.19C581.78 484.47 583.68 487.21 587.92 489.5C592.01 491.71 595.1 491.79 599.33 492.79C601.61 489.12 603.14 486.17 603.57 481.88" stroke="#F0F2DA" stroke-miterlimit="10"/>
<path d="M465.21 487.94C473.81 487.94 482.21 487.7 489.77 484.55" stroke="#F0F2DA" stroke-miterlimit="10"/>
<path d="M451.66 500.64C446.68 498.13 437.71 488.89 444.01 480.73C448.25 475.23 461.32 474.82 467.37 473.56C475.34 471.9 483.7 470.94 491.9 469.33C508.09 466.15 545.29 462.72 561.22 457.31C575.26 452.55 590.48 450.4 605.1 446.6C609.79 445.38 614.85 443.71 620.01 441.86" stroke="#F0F2DA" stroke-miterlimit="10"/>
<path d="M446.58 482.85C450.17 483.22 453.5 484.09 456.74 482.85" stroke="#F0F2DA" stroke-miterlimit="10"/>
<path d="M566.859 469.18C568.069 470.91 568.559 474.16 569.119 475.96" stroke="#F0F2DA" stroke-miterlimit="10"/>
<path d="M573.07 473.13C572.75 471.08 572.32 469.05 571.38 467.48" stroke="#F0F2DA" stroke-miterlimit="10"/>
<path d="M554.44 487.25C554.12 490.36 553.87 493.45 552.96 496.33C559.17 497.73 566 497.42 572.51 497.42" stroke="#F0F2DA" stroke-miterlimit="10"/>
<path d="M40.3102 473.2C48.2802 475.04 66.6202 476.56 66.9902 486.22C67.4702 498.82 52.4002 502.13 43.6802 502.32C22.5202 502.79 19.4102 497.49 19.4102 490.28" stroke="#F0F2DA" stroke-miterlimit="10"/>
<path d="M62.6108 483.22C54.0108 483.22 45.6108 482.98 38.0508 479.83" stroke="#F0F2DA" stroke-miterlimit="10"/>
<path d="M76.17 495.92C81.15 493.41 90.12 484.17 83.82 476.01C79.58 470.51 66.51 470.1 60.46 468.84C52.49 467.18 44.13 466.22 35.93 464.61C28.2 463.09 15.7 461.52 3 459.7" stroke="#F0F2DA" stroke-miterlimit="10"/>
<path d="M81.2508 478.14C77.6608 478.51 74.3308 479.38 71.0908 478.14" stroke="#F0F2DA" stroke-miterlimit="10"/>
<path d="M2.44043 477.65C7.03043 477.85 11.8904 480.13 10.3404 485.56C9.30043 489.22 6.50043 492.42 3.00043 494.94" stroke="#F0F2DA" stroke-miterlimit="10"/>
<path d="M16.8706 494.9C15.6806 492.43 15.1506 490.02 14.8906 487.32" stroke="#F0F2DA" stroke-miterlimit="10"/>
<path d="M5.81 482.92C5.04 483.3 4.08 483.57 3 483.76" stroke="#F0F2DA" stroke-miterlimit="10"/>
<path d="M29.8396 507.73C26.7996 512.62 23.8696 517.39 21.1396 520C59.9596 520 62.7996 520 102.46 520C145.34 520 164.79 519.25 207.31 519.25C206.91 517.45 201.03 495.9 200.39 493.75C200.39 493.75 112.16 494.03 87.9797 493.5" stroke="#F0F2DA" stroke-miterlimit="10"/>
<path d="M434.23 485.42C421.73 485.42 122.39 485.44 92.8096 485.44" stroke="#F0F2DA" stroke-miterlimit="10"/>
</g>
<defs>
<clipPath id="clip0_741_2134">
<rect width="620" height="560" fill="white"/>
</clipPath>
</defs>
</svg>
