<svg width="620" height="560" viewBox="0 0 620 560" fill="none" xmlns="http://www.w3.org/2000/svg">
<g clip-path="url(#clip0_741_2156)">
<path d="M620 497.57C617.07 493.95 615.21 489.19 616.08 483.1C616.52 479.99 617.78 478.28 620 477.44" stroke="#F0F2DA" stroke-miterlimit="10"/>
<path d="M619.851 462.561C618.791 462.751 617.661 462.951 616.461 463.161C593.661 467.141 550.401 472.641 527.511 477.931C519.541 479.771 501.201 481.291 500.831 490.951C500.351 503.551 515.421 506.861 524.141 507.051C545.301 507.521 548.411 502.221 548.411 495.011" stroke="#F0F2DA" stroke-miterlimit="10"/>
<path d="M551.521 502.211C564.031 502.211 577.49 503.041 588.79 497.971" stroke="#F0F2DA" stroke-miterlimit="10"/>
<path d="M505.21 487.94C513.81 487.94 522.21 487.7 529.77 484.55" stroke="#F0F2DA" stroke-miterlimit="10"/>
<path d="M619.85 452.28C613.51 453.7 607.25 455.27 601.22 457.31C585.29 462.71 548.1 466.15 531.9 469.33C523.69 470.94 515.34 471.9 507.37 473.56C501.33 474.82 488.26 475.23 484.01 480.73C477.71 488.9 486.69 498.14 491.66 500.64" stroke="#F0F2DA" stroke-miterlimit="10"/>
<path d="M486.58 482.851C490.17 483.221 493.5 484.091 496.74 482.851" stroke="#F0F2DA" stroke-miterlimit="10"/>
<path d="M609.12 475.95C608.57 474.15 608.07 470.91 606.86 469.17" stroke="#F0F2DA" stroke-miterlimit="10"/>
<path d="M613.07 473.13C612.75 471.08 612.32 469.05 611.38 467.48" stroke="#F0F2DA" stroke-miterlimit="10"/>
<path d="M594.44 487.25C594.12 490.36 593.87 493.45 592.96 496.33C599.17 497.73 606 497.42 612.51 497.42" stroke="#F0F2DA" stroke-miterlimit="10"/>
<path d="M0.0898438 469.77C6.49984 470.91 12.3798 472.06 17.3098 473.2C25.2798 475.04 43.6198 476.56 43.9898 486.22C44.4698 498.82 29.3998 502.13 20.6798 502.32C10.0898 502.55 4.01984 501.34 0.599844 499.17" stroke="#F0F2DA" stroke-miterlimit="10"/>
<path d="M39.6098 483.22C31.0098 483.22 22.6098 482.98 15.0498 479.83" stroke="#F0F2DA" stroke-miterlimit="10"/>
<path d="M53.17 495.92C58.15 493.41 67.12 484.17 60.82 476.01C56.58 470.51 43.51 470.1 37.46 468.84C29.49 467.18 21.13 466.22 12.93 464.61C9.45 463.93 5 463.23 0 462.51" stroke="#F0F2DA" stroke-miterlimit="10"/>
<path d="M58.2498 478.14C54.6598 478.51 51.3298 479.38 48.0898 478.14" stroke="#F0F2DA" stroke-miterlimit="10"/>
<path d="M6.83965 507.73C3.79965 512.62 0.869648 517.39 -1.86035 520C36.9596 520 42.7996 520 82.4596 520C125.34 520 141.79 519.25 184.31 519.25C183.91 517.45 178.03 495.9 177.39 493.75C177.39 493.75 89.1597 494.03 64.9797 493.5" stroke="#F0F2DA" stroke-miterlimit="10"/>
<path d="M474.23 485.42C461.73 485.42 99.3896 485.44 69.8096 485.44" stroke="#F0F2DA" stroke-miterlimit="10"/>
</g>
<defs>
<clipPath id="clip0_741_2156">
<rect width="620" height="560" fill="white"/>
</clipPath>
</defs>
</svg>
