<svg width="620" height="560" viewBox="0 0 620 560" fill="none" xmlns="http://www.w3.org/2000/svg">
<g clip-path="url(#clip0_741_2174)">
<path d="M620 468.83C600.97 471.7 580.81 474.85 567.51 477.92C559.54 479.76 541.2 481.28 540.83 490.94C540.35 503.54 555.42 506.85 564.14 507.04C585.3 507.51 588.41 502.21 588.41 495" stroke="#F0F2DA" stroke-miterlimit="10"/>
<path d="M591.52 502.21C600.91 502.21 610.82 502.68 619.96 500.78" stroke="#F0F2DA" stroke-miterlimit="10"/>
<path d="M545.21 487.94C553.81 487.94 562.21 487.7 569.77 484.55" stroke="#F0F2DA" stroke-miterlimit="10"/>
<path d="M620 462.09C603.01 464.96 582.74 467.21 571.89 469.34C563.68 470.95 555.33 471.91 547.36 473.57C541.32 474.83 528.25 475.24 524 480.74C517.7 488.91 526.68 498.15 531.65 500.65" stroke="#F0F2DA" stroke-miterlimit="10"/>
<path d="M526.58 482.85C530.17 483.22 533.5 484.09 536.74 482.85" stroke="#F0F2DA" stroke-miterlimit="10"/>
<path d="M-0.379883 479.53C2.18012 481.19 3.88012 483.34 4.00012 486.22C4.17012 490.69 2.39012 493.99 -0.379883 496.39" stroke="#F0F2DA" stroke-miterlimit="10"/>
<path d="M13.17 495.92C18.15 493.41 27.12 484.17 20.82 476.01C16.58 470.51 3.50996 470.1 -2.54004 468.84" stroke="#F0F2DA" stroke-miterlimit="10"/>
<path d="M18.2498 478.14C14.6598 478.51 11.3298 479.38 8.08984 478.14" stroke="#F0F2DA" stroke-miterlimit="10"/>
<path d="M0 520C11.27 520 22.64 520 42.47 520C85.35 520 101.8 519.25 144.32 519.25C143.92 517.45 138.04 495.9 137.4 493.75C137.4 493.75 49.17 494.03 24.99 493.5" stroke="#F0F2DA" stroke-miterlimit="10"/>
<path d="M514.23 485.42C501.73 485.42 59.3896 485.44 29.8096 485.44" stroke="#F0F2DA" stroke-miterlimit="10"/>
</g>
<defs>
<clipPath id="clip0_741_2174">
<rect width="620" height="560" fill="white"/>
</clipPath>
</defs>
</svg>
