<svg width="620" height="560" viewBox="0 0 620 560" fill="none" xmlns="http://www.w3.org/2000/svg">
<g clip-path="url(#clip0_741_2187)">
<path d="M620 475.36C615.42 476.22 611.2 477.07 607.51 477.93C599.54 479.77 581.2 481.29 580.83 490.95C580.35 503.55 595.42 506.86 604.14 507.05C611.3 507.21 616.39 506.71 620 505.69" stroke="#F0F2DA" stroke-miterlimit="10"/>
<path d="M585.21 487.94C593.81 487.94 602.21 487.7 609.77 484.55" stroke="#F0F2DA" stroke-miterlimit="10"/>
<path d="M620 467.95C616.95 468.42 614.21 468.88 611.89 469.33C603.68 470.94 595.33 471.9 587.36 473.56C581.32 474.82 568.25 475.23 564 480.73C557.7 488.9 566.68 498.14 571.65 500.64" stroke="#F0F2DA" stroke-miterlimit="10"/>
<path d="M566.58 482.851C570.17 483.221 573.5 484.091 576.74 482.851" stroke="#F0F2DA" stroke-miterlimit="10"/>
<path d="M0 520H2.47C2.47 520 61.8 519.25 104.32 519.25C103.92 517.45 98.04 495.9 97.4 493.75C97.4 493.75 24.19 494.03 0.01 493.5" stroke="#F0F2DA" stroke-miterlimit="10"/>
<path d="M554.23 485.42C541.73 485.42 29.58 485.44 0 485.44" stroke="#F0F2DA" stroke-miterlimit="10"/>
</g>
<defs>
<clipPath id="clip0_741_2187">
<rect width="620" height="560" fill="white"/>
</clipPath>
</defs>
</svg>
