<svg width="620" height="560" viewBox="0 0 620 560" fill="none" xmlns="http://www.w3.org/2000/svg">
<path d="M619.73 465.39C596.05 469.07 563.37 473.57 544.51 477.93C536.54 479.77 518.2 481.29 517.83 490.95C517.35 503.55 532.42 506.86 541.14 507.05C562.3 507.52 565.41 502.22 565.41 495.01" stroke="#F0F2DA" stroke-miterlimit="10"/>
<path d="M568.52 502.21C581.03 502.21 594.489 503.04 605.789 497.97" stroke="#F0F2DA" stroke-miterlimit="10"/>
<path d="M522.21 487.94C530.81 487.94 539.21 487.7 546.77 484.55" stroke="#F0F2DA" stroke-miterlimit="10"/>
<path d="M508.66 500.64C503.68 498.13 494.71 488.89 501.01 480.73C505.25 475.23 518.32 474.82 524.37 473.56C532.34 471.9 540.7 470.94 548.9 469.33C565.09 466.15 602.29 462.72 618.22 457.31" stroke="#F0F2DA" stroke-miterlimit="10"/>
<path d="M503.58 482.85C507.17 483.22 510.5 484.09 513.74 482.85" stroke="#F0F2DA" stroke-miterlimit="10"/>
<path d="M489.46 493.87C466.86 493.87 480.56 494.07 458.4 493.31C451.55 498.26 444.58 514.32 438.64 520.01C477.46 520.01 480.3 520.01 519.96 520.01C559.62 520.01 580.67 519.32 619.74 519.26" stroke="#F0F2DA" stroke-miterlimit="10"/>
<path d="M611.44 487.25C611.12 490.36 610.87 493.45 609.96 496.33C613.06 497.03 616.32 497.3 619.62 497.4" stroke="#F0F2DA" stroke-miterlimit="10"/>
<path d="M487.73 485.4C431.03 485.44 56.7 485.47 0 485.51" stroke="#F0F2DA" stroke-miterlimit="10"/>
</svg>
