<svg width="620" height="560" viewBox="0 0 620 560" fill="none" xmlns="http://www.w3.org/2000/svg">
<g clip-path="url(#clip0_741_2203)">
<path d="M620 478.87C617.95 478.5 615.67 478.14 613.04 477.82C600.05 476.24 594.17 475.53 593.09 483.11C591.25 495.97 601.58 502.91 608.53 505.7C612.78 507.41 616.46 508.68 620.01 509.57" stroke="#F0F2DA" stroke-miterlimit="10"/>
<path d="M620 457.25C612.43 459.56 610.06 460.26 593.46 463.15C570.66 467.13 527.4 472.63 504.51 477.92C496.54 479.76 478.2 481.28 477.83 490.94C477.35 503.54 492.42 506.85 501.14 507.04C522.3 507.51 525.41 502.21 525.41 495" stroke="#F0F2DA" stroke-miterlimit="10"/>
<path d="M528.52 502.21C541.03 502.21 554.489 503.04 565.789 497.97" stroke="#F0F2DA" stroke-miterlimit="10"/>
<path d="M596.85 480.189C598.78 484.469 600.68 487.209 604.92 489.499C609.01 491.709 612.1 491.789 616.33 492.789C618.61 489.119 620.14 486.169 620.57 481.879" stroke="#F0F2DA" stroke-miterlimit="10"/>
<path d="M482.21 487.94C490.81 487.94 499.21 487.7 506.77 484.55" stroke="#F0F2DA" stroke-miterlimit="10"/>
<path d="M468.66 500.64C463.68 498.13 454.71 488.89 461.01 480.73C465.25 475.23 478.32 474.82 484.37 473.56C492.34 471.9 500.7 470.94 508.9 469.33C525.09 466.15 562.29 462.72 578.22 457.31C591.01 452.97 606.33 448.44 620.01 444.8" stroke="#F0F2DA" stroke-miterlimit="10"/>
<path d="M463.58 482.85C467.17 483.22 470.5 484.09 473.74 482.85" stroke="#F0F2DA" stroke-miterlimit="10"/>
<path d="M583.859 469.18C585.069 470.91 585.559 474.16 586.119 475.96" stroke="#F0F2DA" stroke-miterlimit="10"/>
<path d="M590.07 473.129C589.75 471.079 589.32 469.049 588.38 467.479" stroke="#F0F2DA" stroke-miterlimit="10"/>
<path d="M449.46 493.87C426.86 493.87 440.56 494.07 418.4 493.31C411.55 498.26 404.58 514.32 398.64 520.01C437.46 520.01 440.3 520.01 479.96 520.01C522.84 520.01 542.29 519.26 584.81 519.26C583.85 514.88 582.03 508.39 579.92 504.95" stroke="#F0F2DA" stroke-miterlimit="10"/>
<path d="M571.44 487.25C571.12 490.36 570.87 493.45 569.96 496.33C576.17 497.73 583 497.42 589.51 497.42" stroke="#F0F2DA" stroke-miterlimit="10"/>
<path d="M447.73 485.4C391.03 485.44 56.7 485.47 0 485.51" stroke="#F0F2DA" stroke-miterlimit="10"/>
</g>
<defs>
<clipPath id="clip0_741_2203">
<rect width="620" height="560" fill="white"/>
</clipPath>
</defs>
</svg>
