<svg width="620" height="560" viewBox="0 0 620 560" fill="none" xmlns="http://www.w3.org/2000/svg">
<g clip-path="url(#clip0_741_2217)">
<path d="M619.999 477.06C613.889 478.37 608.029 479.62 604.279 480.19C590.459 482.29 586.499 479.46 573.029 477.82C559.559 476.18 554.159 475.53 553.079 483.11C551.239 495.97 561.569 502.91 568.519 505.7C580.539 510.52 587.979 511.93 600.909 510.61C605.049 510.18 613.169 510.08 619.999 509.85" stroke="#F0F2DA" stroke-miterlimit="10"/>
<path d="M594.12 453.08C571.85 459.37 577.18 459.01 553.46 463.15C530.66 467.13 487.4 472.63 464.51 477.92C456.54 479.76 438.2 481.28 437.83 490.94C437.35 503.54 452.42 506.85 461.14 507.04C482.3 507.51 485.41 502.21 485.41 495" stroke="#F0F2DA" stroke-miterlimit="10"/>
<path d="M488.52 502.21C501.03 502.21 514.49 503.04 525.79 497.97" stroke="#F0F2DA" stroke-miterlimit="10"/>
<path d="M556.85 480.189C558.78 484.469 560.68 487.209 564.92 489.499C569.01 491.709 572.1 491.789 576.33 492.789C578.61 489.119 580.14 486.169 580.57 481.879" stroke="#F0F2DA" stroke-miterlimit="10"/>
<path d="M442.21 487.94C450.81 487.94 459.21 487.7 466.77 484.55" stroke="#F0F2DA" stroke-miterlimit="10"/>
<path d="M428.66 500.64C423.68 498.13 414.71 488.89 421.01 480.73C425.25 475.23 438.32 474.82 444.37 473.56C452.34 471.9 460.7 470.94 468.9 469.33C485.09 466.15 522.29 462.72 538.22 457.31C552.26 452.55 569.35 447.56 583.96 443.76C595.08 440.87 608.29 435.45 620.01 431.09" stroke="#F0F2DA" stroke-miterlimit="10"/>
<path d="M423.58 482.85C427.17 483.22 430.5 484.09 433.74 482.85" stroke="#F0F2DA" stroke-miterlimit="10"/>
<path d="M602.59 483.29C603.89 485.37 603.99 487.96 604.28 490.63" stroke="#F0F2DA" stroke-miterlimit="10"/>
<path d="M609.93 492.33C609.9 489.58 609.44 486.94 608.8 484.42" stroke="#F0F2DA" stroke-miterlimit="10"/>
<path d="M543.859 469.18C545.069 470.91 545.559 474.16 546.119 475.96" stroke="#F0F2DA" stroke-miterlimit="10"/>
<path d="M550.07 473.129C549.75 471.079 549.32 469.049 548.38 467.479" stroke="#F0F2DA" stroke-miterlimit="10"/>
<path d="M409.46 493.87C386.86 493.87 400.56 494.07 378.4 493.31C371.55 498.26 364.58 514.32 358.64 520.01C397.46 520.01 400.3 520.01 439.96 520.01C482.84 520.01 502.29 519.26 544.81 519.26C543.85 514.88 542.03 508.39 539.92 504.95" stroke="#F0F2DA" stroke-miterlimit="10"/>
<path d="M531.44 487.25C531.12 490.36 530.87 493.45 529.96 496.33C536.17 497.73 543 497.42 549.51 497.42" stroke="#F0F2DA" stroke-miterlimit="10"/>
<path d="M407.73 485.4C351.03 485.44 56.7 485.47 0 485.51" stroke="#F0F2DA" stroke-miterlimit="10"/>
</g>
<defs>
<clipPath id="clip0_741_2217">
<rect width="620" height="560" fill="white"/>
</clipPath>
</defs>
</svg>
