<svg width="620" height="560" viewBox="0 0 620 560" fill="none" xmlns="http://www.w3.org/2000/svg">
<g clip-path="url(#clip0_741_2233)">
<path d="M619.999 465.479C613.059 468.709 605.119 472.479 600.139 473.129C591.599 474.249 572.639 478.919 564.279 480.189C550.459 482.289 546.499 479.459 533.029 477.819C519.559 476.179 514.159 475.529 513.079 483.109C511.239 495.969 521.569 502.909 528.519 505.699C540.539 510.519 547.979 511.929 560.909 510.609C567.289 509.949 583.129 510.059 589.129 509.279C597.599 508.179 610.139 507.589 617.269 507.279C617.269 507.279 618.329 507.669 619.999 508.249" stroke="#F0F2DA" stroke-miterlimit="10"/>
<path d="M554.12 453.08C531.85 459.37 537.18 459.01 513.46 463.15C490.66 467.13 447.4 472.63 424.51 477.92C416.54 479.76 398.2 481.28 397.83 490.94C397.35 503.54 412.42 506.85 421.14 507.04C442.3 507.51 445.41 502.21 445.41 495" stroke="#F0F2DA" stroke-miterlimit="10"/>
<path d="M448.52 502.21C461.03 502.21 474.49 503.04 485.79 497.97" stroke="#F0F2DA" stroke-miterlimit="10"/>
<path d="M516.85 480.189C518.78 484.469 520.68 487.209 524.92 489.499C529.01 491.709 532.1 491.789 536.33 492.789C538.61 489.119 540.14 486.169 540.57 481.879" stroke="#F0F2DA" stroke-miterlimit="10"/>
<path d="M402.21 487.94C410.81 487.94 419.21 487.7 426.77 484.55" stroke="#F0F2DA" stroke-miterlimit="10"/>
<path d="M388.66 500.64C383.68 498.13 374.71 488.89 381.01 480.73C385.25 475.23 398.32 474.82 404.37 473.56C412.34 471.9 420.7 470.94 428.9 469.33C445.09 466.15 482.29 462.72 498.22 457.31C512.26 452.55 529.35 447.56 543.96 443.76C557.42 440.26 573.94 433.06 587.16 428.51C598.16 424.72 609.05 420.95 620.01 417.55" stroke="#F0F2DA" stroke-miterlimit="10"/>
<path d="M383.58 482.85C387.17 483.22 390.5 484.09 393.74 482.85" stroke="#F0F2DA" stroke-miterlimit="10"/>
<path d="M620 461.87C616.54 462.15 613.14 462.3 609.74 463.01C605.31 463.95 599.85 466.08 595.34 465.79" stroke="#F0F2DA" stroke-miterlimit="10"/>
<path d="M562.59 483.29C563.89 485.37 563.99 487.96 564.28 490.63" stroke="#F0F2DA" stroke-miterlimit="10"/>
<path d="M569.93 492.33C569.9 489.58 569.44 486.94 568.8 484.42" stroke="#F0F2DA" stroke-miterlimit="10"/>
<path d="M503.859 469.18C505.069 470.91 505.559 474.16 506.119 475.96" stroke="#F0F2DA" stroke-miterlimit="10"/>
<path d="M510.07 473.129C509.75 471.079 509.32 469.049 508.38 467.479" stroke="#F0F2DA" stroke-miterlimit="10"/>
<path d="M369.46 493.87C346.86 493.87 360.56 494.07 338.4 493.31C331.55 498.26 324.58 514.32 318.64 520.01C357.46 520.01 360.3 520.01 399.96 520.01C442.84 520.01 462.29 519.26 504.81 519.26C503.85 514.88 502.03 508.39 499.92 504.95" stroke="#F0F2DA" stroke-miterlimit="10"/>
<path d="M491.44 487.25C491.12 490.36 490.87 493.45 489.96 496.33C496.17 497.73 503 497.42 509.51 497.42" stroke="#F0F2DA" stroke-miterlimit="10"/>
<path d="M620 435.609C613.3 436.279 606.81 437.839 600.71 440.379" stroke="#F0F2DA" stroke-miterlimit="10"/>
<path d="M581.22 438.68C600.21 431.97 599.86 431.9 618.49 426.82" stroke="#F0F2DA" stroke-miterlimit="10"/>
<path d="M367.73 485.4C311.03 485.44 56.7 485.47 0 485.51" stroke="#F0F2DA" stroke-miterlimit="10"/>
</g>
<defs>
<clipPath id="clip0_741_2233">
<rect width="620" height="560" fill="white"/>
</clipPath>
</defs>
</svg>
