<svg width="620" height="560" viewBox="0 0 620 560" fill="none" xmlns="http://www.w3.org/2000/svg">
<g clip-path="url(#clip0_741_2252)">
<path d="M589.789 461.27C582.559 463.7 567.819 472.12 560.139 473.13C551.599 474.25 532.639 478.92 524.279 480.19C510.459 482.29 506.499 479.46 493.029 477.82C479.559 476.18 474.159 475.53 473.079 483.11C471.239 495.97 481.569 502.91 488.519 505.7C500.539 510.52 507.979 511.93 520.909 510.61C527.289 509.95 543.129 510.06 549.129 509.28C557.599 508.18 570.139 507.59 577.269 507.28C577.269 507.28 592.059 512.75 597.689 512.85C605.639 513 613.059 512.49 619.999 511.07" stroke="#F0F2DA" stroke-miterlimit="10"/>
<path d="M514.12 453.08C491.85 459.37 497.18 459.01 473.46 463.15C450.66 467.13 407.4 472.63 384.51 477.92C376.54 479.76 358.2 481.28 357.83 490.94C357.35 503.54 372.42 506.85 381.14 507.04C402.3 507.51 405.41 502.21 405.41 495" stroke="#F0F2DA" stroke-miterlimit="10"/>
<path d="M408.52 502.21C421.03 502.21 434.49 503.04 445.79 497.97" stroke="#F0F2DA" stroke-miterlimit="10"/>
<path d="M476.85 480.189C478.78 484.469 480.68 487.209 484.92 489.499C489.01 491.709 492.1 491.789 496.33 492.789C498.61 489.119 500.14 486.169 500.57 481.879" stroke="#F0F2DA" stroke-miterlimit="10"/>
<path d="M362.21 487.94C370.81 487.94 379.21 487.7 386.77 484.55" stroke="#F0F2DA" stroke-miterlimit="10"/>
<path d="M348.66 500.64C343.68 498.13 334.71 488.89 341.01 480.73C345.25 475.23 358.32 474.82 364.37 473.56C372.34 471.9 380.7 470.94 388.9 469.33C405.09 466.15 442.29 462.72 458.22 457.31C472.26 452.55 489.35 447.56 503.96 443.76C517.42 440.26 533.94 433.06 547.16 428.51C571.37 420.18 595.03 411.94 620.01 407.42" stroke="#F0F2DA" stroke-miterlimit="10"/>
<path d="M343.58 482.85C347.17 483.22 350.5 484.09 353.74 482.85" stroke="#F0F2DA" stroke-miterlimit="10"/>
<path d="M585.27 461.27C579.95 462.14 574.84 461.94 569.74 463.01C565.31 463.95 559.85 466.08 555.34 465.79" stroke="#F0F2DA" stroke-miterlimit="10"/>
<path d="M522.59 483.29C523.89 485.37 523.99 487.96 524.28 490.63" stroke="#F0F2DA" stroke-miterlimit="10"/>
<path d="M529.93 492.33C529.9 489.58 529.44 486.94 528.8 484.42" stroke="#F0F2DA" stroke-miterlimit="10"/>
<path d="M463.859 469.18C465.069 470.91 465.559 474.16 466.119 475.96" stroke="#F0F2DA" stroke-miterlimit="10"/>
<path d="M470.07 473.129C469.75 471.079 469.32 469.049 468.38 467.479" stroke="#F0F2DA" stroke-miterlimit="10"/>
<path d="M329.46 493.87C306.86 493.87 320.56 494.07 298.4 493.31C291.55 498.26 284.58 514.32 278.64 520.01C317.46 520.01 320.3 520.01 359.96 520.01C402.84 520.01 422.29 519.26 464.81 519.26C463.85 514.88 462.03 508.39 459.92 504.95" stroke="#F0F2DA" stroke-miterlimit="10"/>
<path d="M451.44 487.25C451.12 490.36 450.87 493.45 449.96 496.33C456.17 497.73 463 497.42 469.51 497.42" stroke="#F0F2DA" stroke-miterlimit="10"/>
<path d="M591.2 435.29C580.54 434.86 570.16 436.44 560.71 440.37" stroke="#F0F2DA" stroke-miterlimit="10"/>
<path d="M541.22 438.68C560.21 431.97 559.86 431.9 578.49 426.82" stroke="#F0F2DA" stroke-miterlimit="10"/>
<path d="M327.73 485.4C271.03 485.44 56.7 485.47 0 485.51" stroke="#F0F2DA" stroke-miterlimit="10"/>
</g>
<defs>
<clipPath id="clip0_741_2252">
<rect width="620" height="560" fill="white"/>
</clipPath>
</defs>
</svg>
