<svg width="620" height="560" viewBox="0 0 620 560" fill="none" xmlns="http://www.w3.org/2000/svg">
<g clip-path="url(#clip0_741_1825)">
<path d="M560.729 478.41C565.599 471.79 567.45 464.61 569.9 456.55" stroke="#F0F2DA" stroke-miterlimit="10"/>
<path d="M489.789 461.27C482.559 463.7 467.819 472.12 460.139 473.13C451.599 474.25 432.639 478.92 424.279 480.19C410.459 482.29 406.499 479.46 393.029 477.82C380.039 476.24 374.159 475.53 373.079 483.11C371.239 495.97 381.569 502.91 388.519 505.7C400.539 510.52 407.979 511.93 420.909 510.61C427.289 509.95 443.129 510.06 449.129 509.28C457.599 508.18 470.139 507.59 477.269 507.28C477.269 507.28 492.059 512.75 497.689 512.85C515.379 513.18 530.449 510.25 543.429 501.29C549.639 497 549.809 486.68 553.779 478.97C555.509 475.6 558.699 471.66 559.429 468.05" stroke="#F0F2DA" stroke-miterlimit="10"/>
<path d="M414.12 453.08C391.85 459.37 397.18 459.01 373.46 463.15C350.66 467.13 307.4 472.63 284.51 477.92C276.54 479.76 258.2 481.28 257.83 490.94C257.35 503.54 272.42 506.85 281.14 507.04C302.3 507.51 305.41 502.21 305.41 495" stroke="#F0F2DA" stroke-miterlimit="10"/>
<path d="M308.52 502.21C321.03 502.21 334.49 503.04 345.79 497.97" stroke="#F0F2DA" stroke-miterlimit="10"/>
<path d="M376.85 480.19C378.78 484.47 380.68 487.21 384.92 489.5C389.01 491.71 392.1 491.79 396.33 492.79C398.61 489.12 400.14 486.17 400.57 481.88" stroke="#F0F2DA" stroke-miterlimit="10"/>
<path d="M262.21 487.94C270.81 487.94 279.21 487.7 286.77 484.55" stroke="#F0F2DA" stroke-miterlimit="10"/>
<path d="M248.66 500.64C243.68 498.13 234.71 488.89 241.01 480.73C245.25 475.23 258.32 474.82 264.37 473.56C272.34 471.9 280.7 470.94 288.9 469.33C305.09 466.15 342.29 462.72 358.22 457.31C372.26 452.55 386.59 451.25 401.2 447.45C414.66 443.95 429.49 435.91 442.71 431.36C469.9 422 500.86 409.92 529.31 405.93C542.34 404.1 555.62 408.99 567.87 411.9C577.2 414.11 599.63 416.91 620.56 418.86" stroke="#F0F2DA" stroke-miterlimit="10"/>
<path d="M243.58 482.85C247.17 483.22 250.5 484.09 253.74 482.85" stroke="#F0F2DA" stroke-miterlimit="10"/>
<path d="M485.27 461.27C479.95 462.14 474.84 461.94 469.74 463.01C465.31 463.95 459.85 466.08 455.34 465.79" stroke="#F0F2DA" stroke-miterlimit="10"/>
<path d="M554.51 417.81C550.64 417 534.06 415.32 531.01 413.27" stroke="#F0F2DA" stroke-miterlimit="10"/>
<path d="M422.59 483.29C423.89 485.37 423.99 487.96 424.28 490.63" stroke="#F0F2DA" stroke-miterlimit="10"/>
<path d="M429.93 492.33C429.9 489.58 429.44 486.94 428.8 484.42" stroke="#F0F2DA" stroke-miterlimit="10"/>
<path d="M363.859 469.18C365.069 470.91 365.559 474.16 366.119 475.96" stroke="#F0F2DA" stroke-miterlimit="10"/>
<path d="M370.07 473.13C369.75 471.08 369.32 469.05 368.38 467.48" stroke="#F0F2DA" stroke-miterlimit="10"/>
<path d="M555.29 487.42C567.14 484.54 580.96 486.66 593.25 487.86C599.45 488.46 609.3 490.06 619.74 492.07" stroke="#F0F2DA" stroke-miterlimit="10"/>
<path d="M229.46 493.87C206.86 493.87 220.56 494.07 198.4 493.31C191.55 498.26 184.58 514.32 178.64 520.01C217.46 520.01 220.3 520.01 259.96 520.01C302.84 520.01 322.29 519.26 364.81 519.26C363.85 514.88 362.03 508.39 359.92 504.95" stroke="#F0F2DA" stroke-miterlimit="10"/>
<path d="M351.44 487.25C351.12 490.36 350.87 493.45 349.96 496.33C356.17 497.73 363 497.42 369.51 497.42" stroke="#F0F2DA" stroke-miterlimit="10"/>
<path d="M486.75 433.9C476.09 433.47 470.16 436.44 460.71 440.38" stroke="#F0F2DA" stroke-miterlimit="10"/>
<path d="M441.22 438.68C460.21 431.97 459.86 431.9 478.49 426.82" stroke="#F0F2DA" stroke-miterlimit="10"/>
<path d="M227.9 485.41C177.81 485.44 50.09 485.47 0 485.51" stroke="#F0F2DA" stroke-miterlimit="10"/>
</g>
<defs>
<clipPath id="clip0_741_1825">
<rect width="620" height="560" fill="white"/>
</clipPath>
</defs>
</svg>
