<svg width="620" height="560" viewBox="0 0 620 560" fill="none" xmlns="http://www.w3.org/2000/svg">
<g clip-path="url(#clip0_741_1869)">
<path d="M500.729 478.41C505.599 471.79 507.449 464.61 509.899 456.55" stroke="#F0F2DA" stroke-miterlimit="10"/>
<path d="M429.789 461.27C422.559 463.7 407.819 472.12 400.139 473.13C391.599 474.25 372.639 478.92 364.279 480.19C350.459 482.29 346.499 479.46 333.029 477.82C319.559 476.18 314.159 475.53 313.079 483.11C311.239 495.97 321.569 502.91 328.519 505.7C340.539 510.52 347.979 511.93 360.909 510.61C367.289 509.95 383.129 510.06 389.129 509.28C397.599 508.18 410.139 507.59 417.269 507.28C417.269 507.28 432.059 512.75 437.689 512.85C455.379 513.18 470.449 510.25 483.429 501.29C489.639 497 489.809 486.68 493.779 478.97C495.509 475.6 498.699 471.66 499.429 468.05" stroke="#F0F2DA" stroke-miterlimit="10"/>
<path d="M354.12 453.08C331.85 459.37 337.18 459.01 313.46 463.15C290.66 467.13 247.4 472.63 224.51 477.92C216.54 479.76 198.2 481.28 197.83 490.94C197.35 503.54 212.42 506.85 221.14 507.04C242.3 507.51 245.41 502.21 245.41 495" stroke="#F0F2DA" stroke-miterlimit="10"/>
<path d="M248.52 502.21C261.03 502.21 274.49 503.04 285.79 497.97" stroke="#F0F2DA" stroke-miterlimit="10"/>
<path d="M316.85 480.19C318.78 484.47 320.68 487.21 324.92 489.5C329.01 491.71 332.1 491.79 336.33 492.79C338.61 489.12 340.14 486.17 340.57 481.88" stroke="#F0F2DA" stroke-miterlimit="10"/>
<path d="M202.21 487.94C210.81 487.94 219.21 487.7 226.77 484.55" stroke="#F0F2DA" stroke-miterlimit="10"/>
<path d="M188.66 500.64C183.68 498.13 174.71 488.89 181.01 480.73C185.25 475.23 198.32 474.82 204.37 473.56C212.34 471.9 220.7 470.94 228.9 469.33C245.09 466.15 282.29 462.72 298.22 457.31C312.26 452.55 327.48 450.4 342.1 446.6C355.56 443.1 372.08 435.9 385.3 431.35C412.49 421.99 439.01 413.32 467.46 409.33C480.49 407.5 495.62 408.99 507.88 411.89C524.53 415.84 602.98 421.65 620.01 421.17" stroke="#F0F2DA" stroke-miterlimit="10"/>
<path d="M183.58 482.85C187.17 483.22 190.5 484.09 193.74 482.85" stroke="#F0F2DA" stroke-miterlimit="10"/>
<path d="M425.27 461.27C419.95 462.14 414.84 461.94 409.74 463.01C405.31 463.95 399.12 468.92 394.6 468.63" stroke="#F0F2DA" stroke-miterlimit="10"/>
<path d="M492.86 418.65C488.99 417.84 474.06 415.31 471.01 413.27" stroke="#F0F2DA" stroke-miterlimit="10"/>
<path d="M362.59 483.29C363.89 485.37 363.99 487.96 364.28 490.63" stroke="#F0F2DA" stroke-miterlimit="10"/>
<path d="M369.93 492.33C369.9 489.58 369.44 486.94 368.8 484.42" stroke="#F0F2DA" stroke-miterlimit="10"/>
<path d="M303.859 469.18C305.069 470.91 305.559 474.16 306.119 475.96" stroke="#F0F2DA" stroke-miterlimit="10"/>
<path d="M310.07 473.13C309.75 471.08 309.32 469.05 308.38 467.48" stroke="#F0F2DA" stroke-miterlimit="10"/>
<path d="M495.29 487.42C507.14 484.54 520.96 486.66 533.25 487.86C548.36 489.33 605.16 500.69 619.43 505.63" stroke="#F0F2DA" stroke-miterlimit="10"/>
<path d="M169.46 493.87C146.86 493.87 160.56 494.07 138.4 493.31C131.55 498.26 124.58 514.32 118.64 520.01C157.46 520.01 160.3 520.01 199.96 520.01C242.84 520.01 262.29 519.26 304.81 519.26C303.85 514.88 302.03 508.39 299.92 504.95" stroke="#F0F2DA" stroke-miterlimit="10"/>
<path d="M291.44 487.25C291.12 490.36 290.87 493.45 289.96 496.33C296.17 497.73 303 497.42 309.51 497.42" stroke="#F0F2DA" stroke-miterlimit="10"/>
<path d="M431.2 435.29C420.54 434.86 410.16 436.44 400.71 440.37" stroke="#F0F2DA" stroke-miterlimit="10"/>
<path d="M381.22 438.68C400.21 431.97 399.86 431.9 418.49 426.82" stroke="#F0F2DA" stroke-miterlimit="10"/>
<path d="M169.36 485.42C145.02 485.44 100.67 485.45 76.3301 485.47" stroke="#F0F2DA" stroke-miterlimit="10"/>
<path d="M0.0898438 469.77C6.49984 470.91 12.3798 472.06 17.3098 473.2C25.2798 475.04 43.6198 476.56 43.9898 486.22C44.4698 498.82 29.3998 502.13 20.6798 502.32C10.0898 502.55 4.01984 501.34 0.599844 499.17" stroke="#F0F2DA" stroke-miterlimit="10"/>
<path d="M39.6098 483.22C31.0098 483.22 22.6098 482.98 15.0498 479.83" stroke="#F0F2DA" stroke-miterlimit="10"/>
<path d="M53.17 495.92C58.15 493.41 67.12 484.17 60.82 476.01C56.58 470.51 43.51 470.1 37.46 468.84C29.49 467.18 21.13 466.22 12.93 464.61C9.45 463.93 5 463.23 0 462.51" stroke="#F0F2DA" stroke-miterlimit="10"/>
<path d="M58.2498 478.14C54.6598 478.51 51.3298 479.38 48.0898 478.14" stroke="#F0F2DA" stroke-miterlimit="10"/>
</g>
<defs>
<clipPath id="clip0_741_1869">
<rect width="620" height="560" fill="white"/>
</clipPath>
</defs>
</svg>
