<svg width="620" height="560" viewBox="0 0 620 560" fill="none" xmlns="http://www.w3.org/2000/svg">
<g clip-path="url(#clip0_741_1896)">
<path d="M191.88 493.87C169.28 493.87 160.56 494.07 138.4 493.31C131.55 498.26 124.58 514.32 118.64 520.01C157.46 520.01 160.3 520.01 199.96 520.01C242.84 520.01 262.29 519.26 304.81 519.26C303.85 514.88 302.03 508.39 299.92 504.95" stroke="#F0F2DA" stroke-miterlimit="10"/>
<path d="M520.729 478.41C525.599 471.79 527.45 464.61 529.9 456.55" stroke="#F0F2DA" stroke-miterlimit="10"/>
<path d="M449.79 461.27C442.56 463.7 427.82 472.12 420.14 473.13C411.6 474.25 392.64 478.92 384.28 480.19C370.46 482.29 366.5 479.46 353.03 477.82C339.56 476.18 334.16 475.53 333.08 483.11C331.24 495.97 341.57 502.91 348.52 505.7C360.54 510.52 367.98 511.93 380.91 510.61C387.29 509.95 403.13 510.06 409.13 509.28C417.6 508.18 430.14 507.59 437.27 507.28C437.27 507.28 452.06 512.75 457.69 512.85C475.38 513.18 490.45 510.25 503.43 501.29C509.64 497 509.81 486.68 513.78 478.97C515.51 475.6 518.7 471.66 519.43 468.05" stroke="#F0F2DA" stroke-miterlimit="10"/>
<path d="M374.12 453.08C351.85 459.37 357.18 459.01 333.46 463.15C310.66 467.13 267.4 472.63 244.51 477.92C236.54 479.76 218.2 481.28 217.83 490.94C217.35 503.54 232.42 506.85 241.14 507.04C262.3 507.51 265.41 502.21 265.41 495" stroke="#F0F2DA" stroke-miterlimit="10"/>
<path d="M268.52 502.21C281.03 502.21 294.49 503.04 305.79 497.97" stroke="#F0F2DA" stroke-miterlimit="10"/>
<path d="M336.85 480.19C338.78 484.47 340.68 487.21 344.92 489.5C349.01 491.71 352.1 491.79 356.33 492.79C358.61 489.12 360.14 486.17 360.57 481.88" stroke="#F0F2DA" stroke-miterlimit="10"/>
<path d="M222.21 487.94C230.81 487.94 239.21 487.7 246.77 484.55" stroke="#F0F2DA" stroke-miterlimit="10"/>
<path d="M208.66 500.64C203.68 498.13 194.71 488.89 201.01 480.73C205.25 475.23 218.32 474.82 224.37 473.56C232.34 471.9 240.7 470.94 248.9 469.33C265.09 466.15 302.29 462.72 318.22 457.31C332.26 452.55 347.48 450.4 362.1 446.6C375.56 443.1 392.08 435.9 405.3 431.35C432.49 421.99 459.01 413.32 487.46 409.33C500.49 407.5 515.62 408.99 527.88 411.89C540.63 414.91 589.63 419.03 619.52 420.58" stroke="#F0F2DA" stroke-miterlimit="10"/>
<path d="M203.58 482.85C207.17 483.22 210.5 484.09 213.74 482.85" stroke="#F0F2DA" stroke-miterlimit="10"/>
<path d="M445.27 461.27C439.95 462.14 434.84 461.94 429.74 463.01C425.31 463.95 419.12 468.92 414.6 468.63" stroke="#F0F2DA" stroke-miterlimit="10"/>
<path d="M512.86 418.65C508.99 417.84 494.06 415.31 491.01 413.27" stroke="#F0F2DA" stroke-miterlimit="10"/>
<path d="M382.59 483.29C383.89 485.37 383.99 487.96 384.28 490.63" stroke="#F0F2DA" stroke-miterlimit="10"/>
<path d="M389.93 492.33C389.9 489.58 389.44 486.94 388.8 484.42" stroke="#F0F2DA" stroke-miterlimit="10"/>
<path d="M323.859 469.18C325.069 470.91 325.559 474.16 326.119 475.96" stroke="#F0F2DA" stroke-miterlimit="10"/>
<path d="M330.07 473.13C329.75 471.08 329.32 469.05 328.38 467.48" stroke="#F0F2DA" stroke-miterlimit="10"/>
<path d="M515.29 487.42C527.14 484.54 540.96 486.66 553.25 487.86C563.98 488.9 595.73 494.94 618.35 500.11" stroke="#F0F2DA" stroke-miterlimit="10"/>
<path d="M311.44 487.25C311.12 490.36 310.87 493.45 309.96 496.33C316.17 497.73 323 497.42 329.51 497.42" stroke="#F0F2DA" stroke-miterlimit="10"/>
<path d="M451.2 435.29C440.54 434.86 430.16 436.44 420.71 440.37" stroke="#F0F2DA" stroke-miterlimit="10"/>
<path d="M401.22 438.68C420.21 431.97 419.86 431.9 438.49 426.82" stroke="#F0F2DA" stroke-miterlimit="10"/>
<path d="M189.25 485.42C169.9 485.43 117.99 485.45 93.4902 485.46" stroke="#F0F2DA" stroke-miterlimit="10"/>
<path d="M37.3102 473.2C45.2802 475.04 63.6202 476.56 63.9902 486.22C64.4702 498.82 49.4002 502.13 40.6802 502.32C19.5202 502.79 16.4102 497.49 16.4102 490.28" stroke="#F0F2DA" stroke-miterlimit="10"/>
<path d="M59.6108 483.22C51.0108 483.22 42.6108 482.98 35.0508 479.83" stroke="#F0F2DA" stroke-miterlimit="10"/>
<path d="M73.17 495.92C78.15 493.41 87.12 484.17 80.82 476.01C76.58 470.51 63.51 470.1 57.46 468.84C49.49 467.18 41.13 466.22 32.93 464.61C25.2 463.09 12.7 461.52 0 459.7" stroke="#F0F2DA" stroke-miterlimit="10"/>
<path d="M78.2508 478.14C74.6608 478.51 71.3308 479.38 68.0908 478.14" stroke="#F0F2DA" stroke-miterlimit="10"/>
<path d="M-0.55957 477.65C4.03043 477.85 8.89043 480.13 7.34043 485.56C6.30043 489.22 3.50043 492.42 0.00042969 494.94" stroke="#F0F2DA" stroke-miterlimit="10"/>
<path d="M13.8706 494.9C12.6806 492.43 12.1506 490.02 11.8906 487.32" stroke="#F0F2DA" stroke-miterlimit="10"/>
<path d="M2.81 482.92C2.04 483.3 1.08 483.57 0 483.76" stroke="#F0F2DA" stroke-miterlimit="10"/>
</g>
<defs>
<clipPath id="clip0_741_1896">
<rect width="620" height="560" fill="white"/>
</clipPath>
</defs>
</svg>
