<svg width="620" height="560" viewBox="0 0 620 560" fill="none" xmlns="http://www.w3.org/2000/svg">
<g clip-path="url(#clip0_741_1926)">
<path d="M211.72 493.87C189.12 493.87 160.56 494.07 138.4 493.31C131.55 498.26 124.58 514.32 118.64 520.01C157.46 520.01 160.3 520.01 199.96 520.01C242.84 520.01 262.29 519.26 304.81 519.26C304.02 515.67 302.65 510.66 301.03 507.08" stroke="#F0F2DA" stroke-miterlimit="10"/>
<path d="M540.729 478.41C545.599 471.79 547.45 464.61 549.9 456.55" stroke="#F0F2DA" stroke-miterlimit="10"/>
<path d="M469.79 461.27C462.56 463.7 447.82 472.12 440.14 473.13C431.6 474.25 412.64 478.92 404.28 480.19C390.46 482.29 386.5 479.46 373.03 477.82C359.56 476.18 354.16 475.53 353.08 483.11C351.24 495.97 361.57 502.91 368.52 505.7C380.54 510.52 387.98 511.93 400.91 510.61C407.29 509.95 423.13 510.06 429.13 509.28C437.6 508.18 450.14 507.59 457.27 507.28C457.27 507.28 472.06 512.75 477.69 512.85C495.38 513.18 510.45 510.25 523.43 501.29C529.64 497 529.81 486.68 533.78 478.97C535.51 475.6 538.7 471.66 539.43 468.05" stroke="#F0F2DA" stroke-miterlimit="10"/>
<path d="M394.12 453.08C371.85 459.37 377.18 459.01 353.46 463.15C330.66 467.13 287.4 472.63 264.51 477.92C256.54 479.76 238.2 481.28 237.83 490.94C237.35 503.54 252.42 506.85 261.14 507.04C282.3 507.51 285.41 502.21 285.41 495" stroke="#F0F2DA" stroke-miterlimit="10"/>
<path d="M288.52 502.21C301.03 502.21 314.49 503.04 325.79 497.97" stroke="#F0F2DA" stroke-miterlimit="10"/>
<path d="M356.85 480.19C358.78 484.47 360.68 487.21 364.92 489.5C369.01 491.71 372.1 491.79 376.33 492.79C378.61 489.12 380.14 486.17 380.57 481.88" stroke="#F0F2DA" stroke-miterlimit="10"/>
<path d="M242.21 487.94C250.81 487.94 259.21 487.7 266.77 484.55" stroke="#F0F2DA" stroke-miterlimit="10"/>
<path d="M228.66 500.64C223.68 498.13 214.71 488.89 221.01 480.73C225.25 475.23 238.32 474.82 244.37 473.56C252.34 471.9 260.7 470.94 268.9 469.33C285.09 466.15 322.29 462.72 338.22 457.31C352.26 452.55 367.48 450.4 382.1 446.6C395.56 443.1 412.08 435.9 425.3 431.35C452.49 421.99 479.01 413.32 507.46 409.33C520.49 407.5 535.62 408.99 547.88 411.89C558.12 414.32 591.69 417.45 620.01 419.39" stroke="#F0F2DA" stroke-miterlimit="10"/>
<path d="M223.58 482.85C227.17 483.22 230.5 484.09 233.74 482.85" stroke="#F0F2DA" stroke-miterlimit="10"/>
<path d="M465.27 461.27C459.95 462.14 454.84 461.94 449.74 463.01C445.31 463.95 439.12 468.92 434.6 468.63" stroke="#F0F2DA" stroke-miterlimit="10"/>
<path d="M532.86 418.65C528.99 417.84 514.06 415.31 511.01 413.27" stroke="#F0F2DA" stroke-miterlimit="10"/>
<path d="M402.59 483.29C403.89 485.37 403.99 487.96 404.28 490.63" stroke="#F0F2DA" stroke-miterlimit="10"/>
<path d="M409.93 492.33C409.9 489.58 409.44 486.94 408.8 484.42" stroke="#F0F2DA" stroke-miterlimit="10"/>
<path d="M343.859 469.18C345.069 470.91 345.559 474.16 346.119 475.96" stroke="#F0F2DA" stroke-miterlimit="10"/>
<path d="M350.07 473.13C349.75 471.08 349.32 469.05 348.38 467.48" stroke="#F0F2DA" stroke-miterlimit="10"/>
<path d="M535.29 487.42C547.14 484.54 560.96 486.66 573.25 487.86C581.27 488.64 601.02 492.2 619.93 496.12" stroke="#F0F2DA" stroke-miterlimit="10"/>
<path d="M331.44 487.25C331.12 490.36 330.87 493.45 329.96 496.33C336.17 497.73 343 497.42 349.51 497.42" stroke="#F0F2DA" stroke-miterlimit="10"/>
<path d="M471.2 435.29C460.54 434.86 450.16 436.44 440.71 440.37" stroke="#F0F2DA" stroke-miterlimit="10"/>
<path d="M421.22 438.68C440.21 431.97 439.86 431.9 458.49 426.82" stroke="#F0F2DA" stroke-miterlimit="10"/>
<path d="M211.72 485.42C195.72 485.43 135.77 485.44 108.56 485.45" stroke="#F0F2DA" stroke-miterlimit="10"/>
<path d="M0 463.39C20.38 466.46 42.89 469.87 57.31 473.21C65.28 475.05 83.62 476.57 83.99 486.23C84.47 498.83 69.4 502.14 60.68 502.33C39.52 502.8 36.41 497.5 36.41 490.29" stroke="#F0F2DA" stroke-miterlimit="10"/>
<path d="M79.6098 483.22C71.0098 483.22 62.6098 482.98 55.0498 479.83" stroke="#F0F2DA" stroke-miterlimit="10"/>
<path d="M93.17 495.92C98.15 493.41 107.12 484.17 100.82 476.01C96.58 470.51 83.51 470.1 77.46 468.84C69.49 467.18 61.13 466.22 52.93 464.61C41.03 462.28 17.81 459.8 0 456.51" stroke="#F0F2DA" stroke-miterlimit="10"/>
<path d="M98.2498 478.14C94.6598 478.51 91.3298 479.38 88.0898 478.14" stroke="#F0F2DA" stroke-miterlimit="10"/>
<path d="M0.119609 475.33C1.29961 475.47 2.41961 475.59 3.45961 475.69C8.82961 476.22 13.9096 477.41 19.4396 477.65C24.0296 477.85 28.8896 480.13 27.3396 485.56C24.7796 494.54 11.6696 500.73 3.44961 501.04C2.08961 501.09 1.00961 501.16 0.0996094 501.23" stroke="#F0F2DA" stroke-miterlimit="10"/>
<path d="M33.8696 494.9C32.6796 492.43 32.1496 490.02 31.8896 487.32" stroke="#F0F2DA" stroke-miterlimit="10"/>
<path d="M22.8101 482.92C17.8001 485.4 4.96012 483.33 0.120117 481.2C0.170117 480.65 0.440117 479.98 0.740117 479.63" stroke="#F0F2DA" stroke-miterlimit="10"/>
</g>
<defs>
<clipPath id="clip0_741_1926">
<rect width="620" height="560" fill="white"/>
</clipPath>
</defs>
</svg>
