<svg width="620" height="560" viewBox="0 0 620 560" fill="none" xmlns="http://www.w3.org/2000/svg">
<g clip-path="url(#clip0_741_1956)">
<path d="M560.729 478.41C565.599 471.79 567.45 464.61 569.9 456.55" stroke="#F0F2DA" stroke-miterlimit="10"/>
<path d="M489.79 461.27C482.56 463.7 467.82 472.12 460.14 473.13C451.6 474.25 432.64 478.92 424.28 480.19C410.46 482.29 406.5 479.46 393.03 477.82C379.56 476.18 374.16 475.53 373.08 483.11C371.24 495.97 381.57 502.91 388.52 505.7C400.54 510.52 407.98 511.93 420.91 510.61C427.29 509.95 443.13 510.06 449.13 509.28C457.6 508.18 470.14 507.59 477.27 507.28C477.27 507.28 492.06 512.75 497.69 512.85C515.38 513.18 530.45 510.25 543.43 501.29C549.64 497 549.81 486.68 553.78 478.97C555.51 475.6 558.7 471.66 559.43 468.05" stroke="#F0F2DA" stroke-miterlimit="10"/>
<path d="M414.12 453.08C391.85 459.37 397.18 459.01 373.46 463.15C350.66 467.13 307.4 472.63 284.51 477.92C276.54 479.76 258.2 481.28 257.83 490.94C257.35 503.54 272.42 506.85 281.14 507.04C302.3 507.51 305.41 502.21 305.41 495" stroke="#F0F2DA" stroke-miterlimit="10"/>
<path d="M308.52 502.21C321.03 502.21 334.49 503.04 345.79 497.97" stroke="#F0F2DA" stroke-miterlimit="10"/>
<path d="M376.85 480.19C378.78 484.47 380.68 487.21 384.92 489.5C389.01 491.71 392.1 491.79 396.33 492.79C398.61 489.12 400.14 486.17 400.57 481.88" stroke="#F0F2DA" stroke-miterlimit="10"/>
<path d="M262.21 487.94C270.81 487.94 279.21 487.7 286.77 484.55" stroke="#F0F2DA" stroke-miterlimit="10"/>
<path d="M248.66 500.64C243.68 498.13 234.71 488.89 241.01 480.73C245.25 475.23 258.32 474.82 264.37 473.56C272.34 471.9 280.7 470.94 288.9 469.33C305.09 466.15 342.29 462.72 358.22 457.31C372.26 452.55 387.48 450.4 402.1 446.6C415.56 443.1 432.08 435.9 445.3 431.35C472.49 421.99 499.01 413.32 527.46 409.33C540.49 407.5 555.62 408.99 567.88 411.89C578.12 414.32 611.7 417.45 640.01 419.39" stroke="#F0F2DA" stroke-miterlimit="10"/>
<path d="M243.58 482.85C247.17 483.22 250.5 484.09 253.74 482.85" stroke="#F0F2DA" stroke-miterlimit="10"/>
<path d="M485.27 461.27C479.95 462.14 474.84 461.94 469.74 463.01C465.31 463.95 459.12 468.92 454.6 468.63" stroke="#F0F2DA" stroke-miterlimit="10"/>
<path d="M552.86 418.65C548.99 417.84 534.06 415.31 531.01 413.27" stroke="#F0F2DA" stroke-miterlimit="10"/>
<path d="M422.59 483.29C423.89 485.37 423.99 487.96 424.28 490.63" stroke="#F0F2DA" stroke-miterlimit="10"/>
<path d="M429.93 492.33C429.9 489.58 429.44 486.94 428.8 484.42" stroke="#F0F2DA" stroke-miterlimit="10"/>
<path d="M363.859 469.18C365.069 470.91 365.559 474.16 366.119 475.96" stroke="#F0F2DA" stroke-miterlimit="10"/>
<path d="M370.07 473.13C369.75 471.08 369.32 469.05 368.38 467.48" stroke="#F0F2DA" stroke-miterlimit="10"/>
<path d="M555.29 487.42C567.14 484.54 580.96 486.66 593.25 487.86C601.27 488.64 621.02 492.2 639.93 496.12" stroke="#F0F2DA" stroke-miterlimit="10"/>
<path d="M351.44 487.25C351.12 490.36 350.87 493.45 349.96 496.33C356.17 497.73 363 497.42 369.51 497.42" stroke="#F0F2DA" stroke-miterlimit="10"/>
<path d="M491.2 435.29C480.54 434.86 470.16 436.44 460.71 440.37" stroke="#F0F2DA" stroke-miterlimit="10"/>
<path d="M441.22 438.68C460.21 431.97 459.86 431.9 478.49 426.82" stroke="#F0F2DA" stroke-miterlimit="10"/>
<path d="M0 460.34C23.81 464.07 57.89 468.71 77.31 473.2C85.28 475.04 103.62 476.56 103.99 486.22C104.47 498.82 89.4 502.13 80.68 502.32C59.52 502.79 56.41 497.49 56.41 490.28" stroke="#F0F2DA" stroke-miterlimit="10"/>
<path d="M99.6108 483.22C91.0108 483.22 82.6108 482.98 75.0508 479.83" stroke="#F0F2DA" stroke-miterlimit="10"/>
<path d="M113.17 495.92C118.15 493.41 127.12 484.17 120.82 476.01C116.58 470.51 103.51 470.1 97.46 468.84C89.49 467.18 81.13 466.22 72.93 464.61C56.74 461.43 19.54 458 3.61 452.59C2.41 452.18 1.21 451.8 0 451.43" stroke="#F0F2DA" stroke-miterlimit="10"/>
<path d="M118.251 478.14C114.661 478.51 111.331 479.38 108.091 478.14" stroke="#F0F2DA" stroke-miterlimit="10"/>
<path d="M-0.0595703 472.58C8.61043 473.8 17.2804 475.08 23.4604 475.69C28.8304 476.22 33.9104 477.41 39.4404 477.65C44.0304 477.85 48.8904 480.13 47.3404 485.56C44.7804 494.54 31.6704 500.73 23.4504 501.04C16.6004 501.3 16.7704 502.11 10.2204 500.12C7.59043 499.32 3.79043 499.09 2.23043 496.76C0.76043 494.57 1.91043 490.51 2.23043 488.18" stroke="#F0F2DA" stroke-miterlimit="10"/>
<path d="M53.8706 494.9C52.6806 492.43 52.1506 490.02 51.8906 487.32" stroke="#F0F2DA" stroke-miterlimit="10"/>
<path d="M42.8101 482.92C37.8001 485.4 24.9601 483.33 20.1201 481.2C20.1701 480.65 20.4401 479.98 20.7401 479.63" stroke="#F0F2DA" stroke-miterlimit="10"/>
<path d="M231.54 493.87C208.94 493.87 160.38 494.07 138.22 493.31C131.37 498.26 124.4 514.32 118.46 520.01C157.28 520.01 160.12 520.01 199.78 520.01C242.66 520.01 262.11 519.26 304.63 519.26C304.07 516.73 303.23 513.49 302.21 510.55" stroke="#F0F2DA" stroke-miterlimit="10"/>
<path d="M231.54 485.42C215.54 485.43 155.59 485.44 128.38 485.45" stroke="#F0F2DA" stroke-miterlimit="10"/>
</g>
<defs>
<clipPath id="clip0_741_1956">
<rect width="620" height="560" fill="white"/>
</clipPath>
</defs>
</svg>
