<svg width="620" height="560" viewBox="0 0 620 560" fill="none" xmlns="http://www.w3.org/2000/svg">
<g clip-path="url(#clip0_741_1986)">
<path d="M580.729 478.41C585.599 471.79 587.45 464.61 589.9 456.55" stroke="#F0F2DA" stroke-miterlimit="10"/>
<path d="M509.79 461.27C502.56 463.7 487.82 472.12 480.14 473.13C471.6 474.25 452.64 478.92 444.28 480.19C430.46 482.29 426.5 479.46 413.03 477.82C399.56 476.18 394.16 475.53 393.08 483.11C391.24 495.97 401.57 502.91 408.52 505.7C420.54 510.52 427.98 511.93 440.91 510.61C447.29 509.95 463.13 510.06 469.13 509.28C477.6 508.18 490.14 507.59 497.27 507.28C497.27 507.28 512.06 512.75 517.69 512.85C535.38 513.18 550.45 510.25 563.43 501.29C569.64 497 569.81 486.68 573.78 478.97C575.51 475.6 578.7 471.66 579.43 468.05" stroke="#F0F2DA" stroke-miterlimit="10"/>
<path d="M434.12 453.08C411.85 459.37 417.18 459.01 393.46 463.15C370.66 467.13 327.4 472.63 304.51 477.92C296.54 479.76 278.2 481.28 277.83 490.94C277.35 503.54 292.42 506.85 301.14 507.04C322.3 507.51 325.41 502.21 325.41 495" stroke="#F0F2DA" stroke-miterlimit="10"/>
<path d="M328.52 502.21C341.03 502.21 354.49 503.04 365.79 497.97" stroke="#F0F2DA" stroke-miterlimit="10"/>
<path d="M396.85 480.19C398.78 484.47 400.68 487.21 404.92 489.5C409.01 491.71 412.1 491.79 416.33 492.79C418.61 489.12 420.14 486.17 420.57 481.88" stroke="#F0F2DA" stroke-miterlimit="10"/>
<path d="M282.21 487.94C290.81 487.94 299.21 487.7 306.77 484.55" stroke="#F0F2DA" stroke-miterlimit="10"/>
<path d="M268.66 500.64C263.68 498.13 254.71 488.89 261.01 480.73C265.25 475.23 278.32 474.82 284.37 473.56C292.34 471.9 300.7 470.94 308.9 469.33C325.09 466.15 362.29 462.72 378.22 457.31C392.26 452.55 407.48 450.4 422.1 446.6C435.56 443.1 452.08 435.9 465.3 431.35C492.49 421.99 519.01 413.32 547.46 409.33C560.49 407.5 575.62 408.99 587.88 411.89C593.36 413.19 605.53 414.69 620.01 416.1" stroke="#F0F2DA" stroke-miterlimit="10"/>
<path d="M263.58 482.85C267.17 483.22 270.5 484.09 273.74 482.85" stroke="#F0F2DA" stroke-miterlimit="10"/>
<path d="M505.27 461.27C499.95 462.14 494.84 461.94 489.74 463.01C485.31 463.95 479.12 468.92 474.6 468.63" stroke="#F0F2DA" stroke-miterlimit="10"/>
<path d="M572.86 418.65C568.99 417.84 554.06 415.31 551.01 413.27" stroke="#F0F2DA" stroke-miterlimit="10"/>
<path d="M442.59 483.29C443.89 485.37 443.99 487.96 444.28 490.63" stroke="#F0F2DA" stroke-miterlimit="10"/>
<path d="M449.93 492.33C449.9 489.58 449.44 486.94 448.8 484.42" stroke="#F0F2DA" stroke-miterlimit="10"/>
<path d="M383.859 469.18C385.069 470.91 385.559 474.16 386.119 475.96" stroke="#F0F2DA" stroke-miterlimit="10"/>
<path d="M390.07 473.13C389.75 471.08 389.32 469.05 388.38 467.48" stroke="#F0F2DA" stroke-miterlimit="10"/>
<path d="M575.29 487.42C587.14 484.54 600.96 486.66 613.25 487.86C614.99 488.03 617.28 488.33 619.99 488.74" stroke="#F0F2DA" stroke-miterlimit="10"/>
<path d="M371.44 487.25C371.12 490.36 370.87 493.45 369.96 496.33C376.17 497.73 383 497.42 389.51 497.42" stroke="#F0F2DA" stroke-miterlimit="10"/>
<path d="M511.2 435.29C500.54 434.86 490.16 436.44 480.71 440.37" stroke="#F0F2DA" stroke-miterlimit="10"/>
<path d="M461.22 438.68C480.21 431.97 479.86 431.9 498.49 426.82" stroke="#F0F2DA" stroke-miterlimit="10"/>
<path d="M0.280273 456.99C2.55027 457.41 5.20027 457.88 8.37027 458.44C31.1703 462.42 74.4303 467.92 97.3203 473.21C105.29 475.05 123.63 476.57 124 486.23C124.48 498.83 109.41 502.14 100.69 502.33C79.5303 502.8 76.4203 497.5 76.4203 490.29" stroke="#F0F2DA" stroke-miterlimit="10"/>
<path d="M119.61 483.22C111.01 483.22 102.61 482.98 95.0498 479.83" stroke="#F0F2DA" stroke-miterlimit="10"/>
<path d="M133.17 495.92C138.15 493.41 147.12 484.17 140.82 476.01C136.58 470.51 123.51 470.1 117.46 468.84C109.49 467.18 101.13 466.22 92.9299 464.61C76.7399 461.43 39.5399 458 23.6099 452.59C15.9599 449.99 7.94988 448.17 -0.120117 446.44" stroke="#F0F2DA" stroke-miterlimit="10"/>
<path d="M138.25 478.14C134.66 478.51 131.33 479.38 128.09 478.14" stroke="#F0F2DA" stroke-miterlimit="10"/>
<path d="M0.230469 470.15C13.0105 471.29 32.2905 474.6 43.4605 475.69C48.8305 476.22 53.9105 477.41 59.4405 477.65C64.0305 477.85 68.8905 480.13 67.3405 485.56C64.7805 494.54 51.6705 500.73 43.4505 501.04C36.6005 501.3 36.7705 502.11 30.2205 500.12C27.5905 499.32 23.7905 499.09 22.2305 496.76C20.7605 494.57 21.9105 490.51 22.2305 488.18" stroke="#F0F2DA" stroke-miterlimit="10"/>
<path d="M73.8697 494.9C72.6797 492.43 72.1496 490.02 71.8896 487.32" stroke="#F0F2DA" stroke-miterlimit="10"/>
<path d="M62.8101 482.92C57.8001 485.4 44.9601 483.33 40.1201 481.2C40.1701 480.65 40.4401 479.98 40.7401 479.63" stroke="#F0F2DA" stroke-miterlimit="10"/>
<path d="M16.6401 496.74C13.0601 497.47 6.37008 498.04 -0.419922 497.91" stroke="#F0F2DA" stroke-miterlimit="10"/>
<path d="M130.69 502.26C126.42 508.71 122.26 516.41 118.51 520C157.33 520 160.17 520 199.83 520C242.71 520 262.16 519.25 304.68 519.25" stroke="#F0F2DA" stroke-miterlimit="10"/>
<path d="M251.6 493.87C230.97 493.87 172.05 494.04 145.08 493.49" stroke="#F0F2DA" stroke-miterlimit="10"/>
<path d="M251.599 485.42C235.599 485.43 179.649 485.44 152.439 485.45" stroke="#F0F2DA" stroke-miterlimit="10"/>
</g>
<defs>
<clipPath id="clip0_741_1986">
<rect width="620" height="560" fill="white"/>
</clipPath>
</defs>
</svg>
