<svg width="506" height="220" viewBox="0 0 506 220" fill="none" xmlns="http://www.w3.org/2000/svg">
<g clip-path="url(#clip0_741_1305)">
<path d="M129.05 84.77C152.85 97.55 174.95 113.23 196.98 128.88C213.4 140.54 229.83 152.2 246.25 163.86C259.32 155.56 272.67 146.68 285.74 138.37C291.44 134.75 297.22 131.06 301.75 126.06C301.64 141.12 301.27 156.64 301.16 171.7" stroke="#F0F2DA" stroke-miterlimit="10"/>
<path d="M245.85 168.86C245.93 182.61 246.02 196.35 246.1 210.1C262.81 198.11 280.08 186.89 297.83 176.49" stroke="#F0F2DA" stroke-miterlimit="10"/>
<path d="M128.13 88.68C128.36 103.36 128.58 118.04 128.81 132.73" stroke="#F0F2DA" stroke-miterlimit="10"/>
<path d="M130.97 133.46C168.59 155.92 205.87 182.7 241.75 207.83" stroke="#F0F2DA" stroke-miterlimit="10"/>
<path d="M131.43 83.14C151.83 72.18 172.22 61.23 192.62 50.27C192.62 56.67 192.06 64.21 192.06 70.61" stroke="#F0F2DA" stroke-miterlimit="10"/>
<path d="M172.66 108.45C172.66 100.54 172.67 92.64 172.68 84.73C203.08 67.8 233.58 51.77 263.98 34.84C279.74 45.65 296.07 56.91 311.82 67.72C304.67 71.86 296.41 77.33 289.26 81.47C278.08 73.86 266.36 65.97 255.19 58.36C255.19 65.51 255.64 73.06 255.64 80.21" stroke="#F0F2DA" stroke-miterlimit="10"/>
<path d="M249.81 107.1C238.84 99.27 227.87 91.44 216.89 83.61C208.37 88.42 200 93.46 191.48 98.27C210.22 108.49 227.92 121.23 245.26 133.68C273.16 116.8 302.32 100.55 330.22 83.67" stroke="#F0F2DA" stroke-miterlimit="10"/>
<path d="M190.93 101.67V122.56" stroke="#F0F2DA" stroke-miterlimit="10"/>
<path d="M250.5 110.13C250.37 116.15 250.25 122.18 250.12 128.2" stroke="#F0F2DA" stroke-miterlimit="10"/>
<path d="M217.42 56.48C217.25 49.33 217.09 42.18 216.92 35.03C232.87 26.82 248.53 18.1 264.47 9.89999C264.48 16.86 264.57 24.12 264.58 31.08" stroke="#F0F2DA" stroke-miterlimit="10"/>
<path d="M264.07 38.42C264.19 45.2 264.32 51.98 264.44 58.75" stroke="#F0F2DA" stroke-miterlimit="10"/>
<path d="M324.53 157.58C324.64 142.9 324.76 128.21 324.87 113.53C341.77 103.22 358.23 91.82 375.13 81.51" stroke="#F0F2DA" stroke-miterlimit="10"/>
<path d="M271.06 115.22C271.16 109.2 271.21 101.36 271.31 95.34C256.19 83.03 240.69 71.18 224.84 59.83C225.26 68.3 225.47 77.39 225.89 85.85" stroke="#F0F2DA" stroke-miterlimit="10"/>
<path d="M289.47 103.92C289.38 97.52 289.29 91.12 289.2 84.72" stroke="#F0F2DA" stroke-miterlimit="10"/>
<path d="M310.68 92.63C310.64 85.85 310.59 79.08 310.55 72.3" stroke="#F0F2DA" stroke-miterlimit="10"/>
<path d="M266.32 12.88C301.32 35.11 336.32 57.34 371.32 79.57" stroke="#F0F2DA" stroke-miterlimit="10"/>
<path d="M326.37 156.88C343.54 145.45 360.7 134.03 377.87 122.6C377.56 109.23 377.19 97.52 376.88 84.16" stroke="#F0F2DA" stroke-miterlimit="10"/>
<path d="M246.4 136.12C246.38 144.03 246.37 151.93 246.35 159.84" stroke="#F0F2DA" stroke-miterlimit="10"/>
<path d="M330.52 86.99C330.36 93.58 330.2 100.17 330.04 106.76" stroke="#F0F2DA" stroke-miterlimit="10"/>
<path d="M321.42 136.75L304.48 147.48" stroke="#F0F2DA" stroke-miterlimit="10"/>
<path d="M85.3503 23.65C82.8303 16.03 80.3203 8.41001 77.8003 0.790009C71.0403 2.97001 64.7203 6.49001 59.3003 11.08C62.2503 16.47 67.1603 20.77 72.8903 22.99" stroke="#F0F2DA" stroke-miterlimit="10"/>
<path d="M82.5503 5.39C82.7403 3.88 83.3603 1.98 83.5503 0.470001C89.4003 -0.749999 95.9103 -0.399999 101.33 2.09C100.23 7.37 97.9503 12.4 94.7203 16.71" stroke="#F0F2DA" stroke-miterlimit="10"/>
<path d="M66.1601 22.61C63.0601 21.18 60.7601 19.52 58.8301 16.39" stroke="#F0F2DA" stroke-miterlimit="10"/>
<path d="M75.1903 6.41C71.3603 6.86 67.6703 8.51 64.8003 11.08" stroke="#F0F2DA" stroke-miterlimit="10"/>
<path d="M76.29 10.33C75.04 9.96 73.57 10.73 73.17 11.97C72.77 13.21 73.5 14.7 74.73 15.13C75.96 15.56 77.47 14.86 77.93 13.65" stroke="#F0F2DA" stroke-miterlimit="10"/>
<path d="M97.1899 5.71C96.2899 4.81 94.9899 4.23 93.7299 4.46C92.4699 4.69 91.3699 5.84 91.4499 7.11C91.5299 8.38 93.0199 9.43 94.1699 8.87" stroke="#F0F2DA" stroke-miterlimit="10"/>
<path d="M89.3203 3.70001L84.8003 4.55001" stroke="#F0F2DA" stroke-miterlimit="10"/>
<path d="M90.2002 25.71L91.0502 28.53" stroke="#F0F2DA" stroke-miterlimit="10"/>
<path d="M86.1703 25.14L85.3203 28.53" stroke="#F0F2DA" stroke-miterlimit="10"/>
<path d="M81.1299 25.16L79.1499 27.98" stroke="#F0F2DA" stroke-miterlimit="10"/>
<path d="M76.8903 24.34C75.5903 24.32 74.3503 25.31 74.0703 26.57" stroke="#F0F2DA" stroke-miterlimit="10"/>
<path d="M86.8398 18.72C88.0798 17.54 90.0798 17.14 91.5798 17.97C93.0798 18.8 93.7898 20.9 92.9198 22.37C92.0498 23.84 89.6398 24.14 88.5698 22.81" stroke="#F0F2DA" stroke-miterlimit="10"/>
</g>
<defs>
<clipPath id="clip0_741_1305">
<rect width="506" height="220" fill="white"/>
</clipPath>
</defs>
</svg>
