<svg width="506" height="220" viewBox="0 0 506 220" fill="none" xmlns="http://www.w3.org/2000/svg">
<g clip-path="url(#clip0_741_1660)">
<path d="M519.9 80.2102C509.9 78.4002 500.16 75.1002 491.11 70.4702C499.83 70.8802 508.47 72.8902 516.48 76.3602" stroke="#F0F2DA" stroke-miterlimit="10"/>
<path d="M529.21 76.8901C531.27 74.8901 533.64 73.2101 536.2 71.9201C526.39 69.3901 516.28 68.0201 506.15 67.8601C506.77 68.5501 507.14 69.4601 507.18 70.3901" stroke="#F0F2DA" stroke-miterlimit="10"/>
<path d="M129.05 84.77C152.85 97.55 174.95 113.23 196.98 128.88C213.4 140.54 229.83 152.2 246.25 163.86C259.32 155.56 272.67 146.68 285.74 138.37C291.44 134.75 297.22 131.06 301.75 126.06C301.64 141.12 301.27 156.64 301.16 171.7" stroke="#F0F2DA" stroke-miterlimit="10"/>
<path d="M245.85 168.86C245.93 182.61 246.02 196.35 246.1 210.1C262.81 198.11 280.08 186.89 297.83 176.49" stroke="#F0F2DA" stroke-miterlimit="10"/>
<path d="M128.13 88.6799C128.36 103.36 128.58 118.04 128.81 132.73" stroke="#F0F2DA" stroke-miterlimit="10"/>
<path d="M130.97 133.46C168.59 155.92 205.87 182.7 241.75 207.83" stroke="#F0F2DA" stroke-miterlimit="10"/>
<path d="M131.43 83.14C151.83 72.18 172.22 61.23 192.62 50.27C192.62 56.67 192.06 64.21 192.06 70.61" stroke="#F0F2DA" stroke-miterlimit="10"/>
<path d="M172.66 108.45C172.66 100.54 172.67 92.6398 172.68 84.7298C203.08 67.7998 233.58 51.7698 263.98 34.8398C279.74 45.6498 296.07 56.9098 311.82 67.7198C304.67 71.8598 296.41 77.3298 289.26 81.4698C278.08 73.8598 266.36 65.9698 255.19 58.3598C255.19 65.5098 255.64 73.0598 255.64 80.2098" stroke="#F0F2DA" stroke-miterlimit="10"/>
<path d="M249.81 107.1C238.84 99.2699 227.87 91.4399 216.89 83.6099C208.37 88.4199 200 93.4599 191.48 98.2699C210.22 108.49 227.92 121.23 245.26 133.68C273.16 116.8 302.32 100.55 330.22 83.6699" stroke="#F0F2DA" stroke-miterlimit="10"/>
<path d="M190.93 101.67V122.56" stroke="#F0F2DA" stroke-miterlimit="10"/>
<path d="M250.5 110.13C250.37 116.15 250.25 122.18 250.12 128.2" stroke="#F0F2DA" stroke-miterlimit="10"/>
<path d="M217.42 56.4799C217.25 49.3299 217.09 42.1799 216.92 35.0299C232.87 26.8199 248.53 18.0999 264.47 9.8999C264.48 16.8599 264.57 24.1199 264.58 31.0799" stroke="#F0F2DA" stroke-miterlimit="10"/>
<path d="M264.07 38.4199C264.19 45.1999 264.32 51.9799 264.44 58.7499" stroke="#F0F2DA" stroke-miterlimit="10"/>
<path d="M324.53 157.58C324.64 142.9 324.76 128.21 324.87 113.53C341.77 103.22 358.23 91.82 375.13 81.51" stroke="#F0F2DA" stroke-miterlimit="10"/>
<path d="M271.06 115.22C271.16 109.2 271.21 101.36 271.31 95.3398C256.19 83.0298 240.69 71.1798 224.84 59.8298C225.26 68.2998 225.47 77.3898 225.89 85.8498" stroke="#F0F2DA" stroke-miterlimit="10"/>
<path d="M289.47 103.92C289.38 97.52 289.29 91.12 289.2 84.72" stroke="#F0F2DA" stroke-miterlimit="10"/>
<path d="M310.68 92.6298C310.64 85.8498 310.59 79.0798 310.55 72.2998" stroke="#F0F2DA" stroke-miterlimit="10"/>
<path d="M266.32 12.8799C301.32 35.1099 336.32 57.3399 371.32 79.5699" stroke="#F0F2DA" stroke-miterlimit="10"/>
<path d="M326.37 156.88C343.54 145.45 360.7 134.03 377.87 122.6C377.56 109.23 377.19 97.5199 376.88 84.1599" stroke="#F0F2DA" stroke-miterlimit="10"/>
<path d="M246.4 136.12C246.38 144.03 246.37 151.93 246.35 159.84" stroke="#F0F2DA" stroke-miterlimit="10"/>
<path d="M330.52 86.99C330.36 93.58 330.2 100.17 330.04 106.76" stroke="#F0F2DA" stroke-miterlimit="10"/>
<path d="M321.42 136.75C315.77 140.33 310.13 143.9 304.48 147.48" stroke="#F0F2DA" stroke-miterlimit="10"/>
</g>
<defs>
<clipPath id="clip0_741_1660">
<rect width="506" height="220" fill="white"/>
</clipPath>
</defs>
</svg>
