<svg width="506" height="220" viewBox="0 0 506 220" fill="none" xmlns="http://www.w3.org/2000/svg">
<path d="M192.58 36.31L193.43 38.84" stroke="#F0F2DA" stroke-miterlimit="10"/>
<path d="M188.54 35.81L187.69 38.84" stroke="#F0F2DA" stroke-miterlimit="10"/>
<path d="M183.5 35.82L181.52 38.35" stroke="#F0F2DA" stroke-miterlimit="10"/>
<path d="M179.27 35.08C177.97 35.07 176.73 35.95 176.45 37.08" stroke="#F0F2DA" stroke-miterlimit="10"/>
<path d="M189.21 30.06C190.45 29 192.45 28.65 193.95 29.39C195.45 30.13 196.16 32.01 195.29 33.33C194.42 34.65 192.01 34.92 190.94 33.72" stroke="#F0F2DA" stroke-miterlimit="10"/>
<path d="M187.32 33.22C182.3 36.48 178.74 41.49 177.57 46.95C170.66 45.59 164.11 41.79 160.57 36.31C165.63 30.46 174.57 27.36 182.51 29.43" stroke="#F0F2DA" stroke-miterlimit="10"/>
<path d="M177.21 26.75C172.31 26.22 167.23 27.02 162.82 29.02" stroke="#F0F2DA" stroke-miterlimit="10"/>
<path d="M195.83 27.94C198.18 27.31 200.84 27.67 202.89 28.88C204.94 30.09 206.34 32.14 206.62 34.32C203.98 34 201.31 33.89 198.67 33.58" stroke="#F0F2DA" stroke-miterlimit="10"/>
<path d="M182.85 26.44C187.56 25.07 192.65 24.74 197.53 25.49" stroke="#F0F2DA" stroke-miterlimit="10"/>
<path d="M129.05 84.77C152.85 97.55 174.95 113.23 196.98 128.88C213.4 140.54 229.83 152.2 246.25 163.86C259.32 155.56 272.67 146.68 285.74 138.37C291.44 134.75 297.22 131.06 301.75 126.06C301.64 141.12 301.27 156.64 301.16 171.7" stroke="#F0F2DA" stroke-miterlimit="10"/>
<path d="M245.85 168.86C245.93 182.61 246.02 196.35 246.1 210.1C262.81 198.11 280.08 186.89 297.83 176.49" stroke="#F0F2DA" stroke-miterlimit="10"/>
<path d="M128.13 88.68C128.36 103.36 128.58 118.04 128.81 132.73" stroke="#F0F2DA" stroke-miterlimit="10"/>
<path d="M130.97 133.46C168.59 155.92 205.87 182.7 241.75 207.83" stroke="#F0F2DA" stroke-miterlimit="10"/>
<path d="M131.43 83.14L192.62 50.27C192.62 56.67 192.06 64.21 192.06 70.61" stroke="#F0F2DA" stroke-miterlimit="10"/>
<path d="M172.66 108.45C172.66 100.54 172.67 92.64 172.68 84.73C203.08 67.8 233.58 51.77 263.98 34.84C279.74 45.65 296.07 56.91 311.82 67.72C304.67 71.86 296.41 77.33 289.26 81.47C278.08 73.86 266.36 65.97 255.19 58.36C255.19 65.51 255.64 73.06 255.64 80.21" stroke="#F0F2DA" stroke-miterlimit="10"/>
<path d="M249.81 107.1C238.84 99.27 227.87 91.44 216.89 83.61C208.37 88.42 200 93.46 191.48 98.27C210.22 108.49 227.92 121.23 245.26 133.68C273.16 116.8 302.32 100.55 330.22 83.67" stroke="#F0F2DA" stroke-miterlimit="10"/>
<path d="M190.93 101.67V122.56" stroke="#F0F2DA" stroke-miterlimit="10"/>
<path d="M250.5 110.13C250.37 116.15 250.25 122.18 250.12 128.2" stroke="#F0F2DA" stroke-miterlimit="10"/>
<path d="M217.42 56.48C217.25 49.33 217.09 42.18 216.92 35.03C232.87 26.82 248.53 18.1 264.47 9.89999C264.48 16.86 264.57 24.12 264.58 31.08" stroke="#F0F2DA" stroke-miterlimit="10"/>
<path d="M264.07 38.42C264.19 45.2 264.32 51.98 264.44 58.75" stroke="#F0F2DA" stroke-miterlimit="10"/>
<path d="M324.53 157.58C324.64 142.9 324.76 128.21 324.87 113.53C341.77 103.22 358.23 91.82 375.13 81.51" stroke="#F0F2DA" stroke-miterlimit="10"/>
<path d="M271.06 115.22C271.16 109.2 271.21 101.36 271.31 95.34C256.19 83.03 240.69 71.18 224.84 59.83C225.26 68.3 225.47 77.39 225.89 85.85" stroke="#F0F2DA" stroke-miterlimit="10"/>
<path d="M289.47 103.92C289.38 97.52 289.29 91.12 289.2 84.72" stroke="#F0F2DA" stroke-miterlimit="10"/>
<path d="M310.68 92.63C310.64 85.85 310.59 79.08 310.55 72.3" stroke="#F0F2DA" stroke-miterlimit="10"/>
<path d="M266.32 12.88C301.32 35.11 336.32 57.34 371.32 79.57" stroke="#F0F2DA" stroke-miterlimit="10"/>
<path d="M326.37 156.88C343.54 145.45 360.7 134.03 377.87 122.6C377.56 109.23 377.19 97.52 376.88 84.16" stroke="#F0F2DA" stroke-miterlimit="10"/>
<path d="M246.4 136.12C246.38 144.03 246.37 151.93 246.35 159.84" stroke="#F0F2DA" stroke-miterlimit="10"/>
<path d="M330.52 86.99C330.36 93.58 330.2 100.17 330.04 106.76" stroke="#F0F2DA" stroke-miterlimit="10"/>
<path d="M321.42 136.75C315.77 140.33 310.13 143.9 304.48 147.48" stroke="#F0F2DA" stroke-miterlimit="10"/>
</svg>
