<svg width="506" height="220" viewBox="0 0 506 220" fill="none" xmlns="http://www.w3.org/2000/svg">
<path d="M333.51 48.87L334.36 51.4" stroke="#F0F2DA" stroke-miterlimit="10"/>
<path d="M329.47 48.36L328.62 51.39" stroke="#F0F2DA" stroke-miterlimit="10"/>
<path d="M324.43 48.37L322.45 50.9" stroke="#F0F2DA" stroke-miterlimit="10"/>
<path d="M320.2 47.64C318.9 47.63 317.66 48.51 317.38 49.64" stroke="#F0F2DA" stroke-miterlimit="10"/>
<path d="M330.14 42.62C331.38 41.56 333.38 41.21 334.88 41.95C336.38 42.69 337.09 44.57 336.22 45.89C335.35 47.21 332.94 47.48 331.87 46.28" stroke="#F0F2DA" stroke-miterlimit="10"/>
<path d="M328.26 45.7801C323.24 49.0401 319.68 54.0501 318.51 59.5101C311.6 58.1501 305.05 54.3501 301.51 48.8701C306.57 43.0201 315.51 39.9201 323.45 41.9901" stroke="#F0F2DA" stroke-miterlimit="10"/>
<path d="M318.14 39.3001C313.24 38.7701 308.16 39.5701 303.75 41.5701" stroke="#F0F2DA" stroke-miterlimit="10"/>
<path d="M336.77 40.5001C339.12 39.8701 341.78 40.2301 343.83 41.4401C345.88 42.6501 347.28 44.7001 347.56 46.8801C344.92 46.5601 342.25 46.4501 339.61 46.1401" stroke="#F0F2DA" stroke-miterlimit="10"/>
<path d="M323.78 39C328.49 37.63 333.58 37.3 338.46 38.05" stroke="#F0F2DA" stroke-miterlimit="10"/>
<path d="M129.05 84.77C152.85 97.55 174.95 113.23 196.98 128.88C213.4 140.54 229.83 152.2 246.25 163.86C259.32 155.56 272.67 146.68 285.74 138.37C291.44 134.75 297.22 131.06 301.75 126.06C301.64 141.12 301.27 156.64 301.16 171.7" stroke="#F0F2DA" stroke-miterlimit="10"/>
<path d="M245.85 168.86C245.93 182.61 246.02 196.35 246.1 210.1C262.81 198.11 280.08 186.89 297.83 176.49" stroke="#F0F2DA" stroke-miterlimit="10"/>
<path d="M128.13 88.6801C128.36 103.36 128.58 118.04 128.81 132.73" stroke="#F0F2DA" stroke-miterlimit="10"/>
<path d="M130.97 133.46C168.59 155.92 205.87 182.7 241.75 207.83" stroke="#F0F2DA" stroke-miterlimit="10"/>
<path d="M131.43 83.14C151.83 72.18 172.22 61.23 192.62 50.27C192.62 56.67 192.06 64.21 192.06 70.61" stroke="#F0F2DA" stroke-miterlimit="10"/>
<path d="M172.66 108.45C172.66 100.54 172.67 92.64 172.68 84.73C203.08 67.8 233.58 51.77 263.98 34.84C279.74 45.65 296.07 56.91 311.82 67.72C304.67 71.86 296.41 77.33 289.26 81.47C278.08 73.86 266.36 65.97 255.19 58.36C255.19 65.51 255.64 73.06 255.64 80.21" stroke="#F0F2DA" stroke-miterlimit="10"/>
<path d="M249.81 107.1C238.84 99.27 227.87 91.44 216.89 83.61C208.37 88.42 200 93.46 191.48 98.27C210.22 108.49 227.92 121.23 245.26 133.68C273.16 116.8 302.32 100.55 330.22 83.67" stroke="#F0F2DA" stroke-miterlimit="10"/>
<path d="M190.93 101.67V122.56" stroke="#F0F2DA" stroke-miterlimit="10"/>
<path d="M250.5 110.13C250.37 116.15 250.25 122.18 250.12 128.2" stroke="#F0F2DA" stroke-miterlimit="10"/>
<path d="M217.42 56.48C217.25 49.33 217.09 42.18 216.92 35.03C232.87 26.82 248.53 18.1 264.47 9.90002C264.48 16.86 264.57 24.12 264.58 31.08" stroke="#F0F2DA" stroke-miterlimit="10"/>
<path d="M264.07 38.42C264.19 45.2 264.32 51.98 264.44 58.75" stroke="#F0F2DA" stroke-miterlimit="10"/>
<path d="M324.53 157.58C324.64 142.9 324.76 128.21 324.87 113.53C341.77 103.22 358.23 91.82 375.13 81.51" stroke="#F0F2DA" stroke-miterlimit="10"/>
<path d="M271.06 115.22C271.16 109.2 271.21 101.36 271.31 95.3401C256.19 83.0301 240.69 71.1801 224.84 59.8301C225.26 68.3001 225.47 77.3901 225.89 85.8501" stroke="#F0F2DA" stroke-miterlimit="10"/>
<path d="M289.47 103.92C289.38 97.52 289.29 91.12 289.2 84.72" stroke="#F0F2DA" stroke-miterlimit="10"/>
<path d="M310.68 92.63C310.64 85.85 310.59 79.08 310.55 72.3" stroke="#F0F2DA" stroke-miterlimit="10"/>
<path d="M330.81 53.8401C344.32 62.4201 357.82 71.0001 371.33 79.5701" stroke="#F0F2DA" stroke-miterlimit="10"/>
<path d="M266.32 12.88C279.13 21.02 291.94 29.15 304.75 37.29" stroke="#F0F2DA" stroke-miterlimit="10"/>
<path d="M326.37 156.88C343.54 145.45 360.7 134.03 377.87 122.6C377.56 109.23 377.19 97.52 376.88 84.16" stroke="#F0F2DA" stroke-miterlimit="10"/>
<path d="M246.4 136.12C246.38 144.03 246.37 151.93 246.35 159.84" stroke="#F0F2DA" stroke-miterlimit="10"/>
<path d="M330.52 86.99C330.36 93.58 330.2 100.17 330.04 106.76" stroke="#F0F2DA" stroke-miterlimit="10"/>
<path d="M321.42 136.75C315.77 140.33 310.13 143.9 304.48 147.48" stroke="#F0F2DA" stroke-miterlimit="10"/>
</svg>
