<svg width="24" height="24" viewBox="0 0 24 24" fill="none" xmlns="http://www.w3.org/2000/svg">
<g clip-path="url(#clip0_85_942)">
<path d="M9.97296 18H14.027C14.159 16.798 14.772 15.806 15.767 14.723C15.88 14.601 16.599 13.856 16.684 13.75C17.3902 12.8676 17.8329 11.8037 17.9611 10.6808C18.0892 9.55784 17.8976 8.42154 17.4082 7.40274C16.9189 6.38395 16.1517 5.52409 15.1951 4.92218C14.2384 4.32028 13.1313 4.00081 12.001 4.00057C10.8708 4.00033 9.7635 4.31932 8.80662 4.92082C7.84974 5.52231 7.08221 6.38185 6.59242 7.40043C6.10263 8.41902 5.9105 9.55524 6.03815 10.6782C6.1658 11.8012 6.60805 12.8653 7.31396 13.748C7.39996 13.855 8.12096 14.601 8.23196 14.722C9.22796 15.806 9.84096 16.798 9.97296 18V18ZM14 20H9.99996V21H14V20ZM5.75396 15C4.81215 13.8233 4.22191 12.4045 4.05122 10.907C3.88054 9.40947 4.13636 7.89421 4.78921 6.53575C5.44207 5.17728 6.46539 4.03088 7.74132 3.22859C9.01724 2.4263 10.4938 2.00077 12.001 2.00101C13.5082 2.00125 14.9847 2.42725 16.2604 3.22995C17.536 4.03265 18.559 5.17939 19.2114 6.53806C19.8638 7.89673 20.1192 9.41207 19.948 10.9095C19.7768 12.407 19.1861 13.8256 18.244 15.002C17.624 15.774 16 17 16 18.5V21C16 21.5304 15.7892 22.0391 15.4142 22.4142C15.0391 22.7893 14.5304 23 14 23H9.99996C9.46953 23 8.96082 22.7893 8.58575 22.4142C8.21067 22.0391 7.99996 21.5304 7.99996 21V18.5C7.99996 17 6.37496 15.774 5.75396 15ZM13 10.004H15.5L11 16.004V12.004H8.49996L13 6V10.005V10.004Z" fill="white"/>
</g>
<defs>
<clipPath id="clip0_85_942">
<rect width="24" height="24" fill="white"/>
</clipPath>
</defs>
</svg>
