<svg width="24" height="24" viewBox="0 0 24 24" fill="none" xmlns="http://www.w3.org/2000/svg">
<g clip-path="url(#clip0_383_3175)">
<path d="M20 20.333V22H18V20.667L10.582 21.903C10.5104 21.9149 10.4371 21.9111 10.3671 21.8918C10.2971 21.8725 10.2322 21.8382 10.1768 21.7913C10.1214 21.7444 10.0769 21.686 10.0464 21.6201C10.0159 21.5543 10 21.4826 10 21.41V20H6V22H4V20H3C2.73478 20 2.48043 19.8946 2.29289 19.7071C2.10536 19.5196 2 19.2652 2 19V3.99999C2 3.73478 2.10536 3.48042 2.29289 3.29289C2.48043 3.10535 2.73478 3 3 3H10V1.59C10 1.51742 10.0159 1.44571 10.0464 1.37987C10.0769 1.31403 10.1214 1.25562 10.1768 1.20871C10.2322 1.16179 10.2971 1.1275 10.3671 1.10821C10.4371 1.08892 10.5104 1.08509 10.582 1.097L21.164 2.861C21.3975 2.89981 21.6097 3.02021 21.7627 3.20075C21.9158 3.3813 21.9999 3.61029 22 3.84699V6H23V8H22V15H23V17H22V19.153C21.9999 19.3897 21.9158 19.6187 21.7627 19.7992C21.6097 19.9798 21.3975 20.1002 21.164 20.139L20 20.333ZM4 4.99999V18H10V4.99999H4ZM12 19.64L20 18.306V4.69399L12 3.361V19.639V19.64ZM16.5 14C15.672 14 15 12.88 15 11.5C15 10.12 15.672 9 16.5 9C17.328 9 18 10.12 18 11.5C18 12.88 17.328 14 16.5 14Z" fill="white"/>
</g>
<defs>
<clipPath id="clip0_383_3175">
<rect width="24" height="24" fill="white"/>
</clipPath>
</defs>
</svg>
