<svg width="185" height="24" viewBox="0 0 185 24" fill="none" xmlns="http://www.w3.org/2000/svg">
<g clip-path="url(#clip0_2527_3885)">
<path d="M54.2292 19.3572L53.0067 15.02H47.8545L46.6319 19.3572H43.983L48.7132 3.17283H52.2644L56.9945 19.3572H54.2292ZM50.5179 5.7926H50.3287L48.3347 12.8951H52.5118L50.5179 5.7926ZM59.265 7.39357H61.7974V9.43117H61.943C62.2923 8.70346 62.7726 8.13584 63.3548 7.72832C63.9369 7.3208 64.6792 7.11704 65.5525 7.11704C66.9642 7.11704 68.0849 7.64099 68.9145 8.6889C69.7441 9.73681 70.1662 11.3087 70.1662 13.3754C70.1662 15.4421 69.7441 17.0139 68.9145 18.0619C68.0849 19.1098 66.9642 19.6337 65.5525 19.6337C64.6646 19.6337 63.9369 19.43 63.3548 19.0224C62.7726 18.6149 62.2923 18.0473 61.943 17.3196H61.7974V24H59.265V7.39357ZM64.5045 17.5816C65.4651 17.5816 66.2074 17.2905 66.7168 16.6938C67.2407 16.1116 67.4882 15.3257 67.4882 14.3505V12.4002C67.4882 11.4251 67.2262 10.6392 66.7168 10.057C66.1928 9.47483 65.4651 9.16919 64.5045 9.16919C64.1407 9.16919 63.7914 9.21286 63.4566 9.31474C63.1219 9.41662 62.8454 9.54761 62.5979 9.73681C62.3505 9.92602 62.1467 10.1443 62.0012 10.4209C61.8557 10.6974 61.7829 11.0176 61.7829 11.3814V15.3693C61.7829 15.7332 61.8557 16.0679 62.0012 16.3299C62.1467 16.6064 62.3505 16.8247 62.5979 17.0139C62.8454 17.2032 63.1364 17.3341 63.4566 17.436C63.7768 17.5379 64.1261 17.5816 64.5045 17.5816ZM73.6883 17.305H77.7635V9.46028H73.6883V7.39357H80.2959V17.2905H84.1237V19.3572H73.6883V17.2905V17.305ZM79.0443 5.22498C78.3893 5.22498 77.9381 5.094 77.6907 4.83202C77.4287 4.57004 77.3123 4.24985 77.3123 3.85688V3.37659C77.3123 2.98363 77.4433 2.66343 77.6907 2.40146C77.9527 2.13948 78.3893 2.00849 79.0297 2.00849C79.6701 2.00849 80.1358 2.13948 80.3833 2.40146C80.6452 2.66343 80.7617 2.98363 80.7617 3.37659V3.85688C80.7617 4.24985 80.6307 4.57004 80.3833 4.83202C80.1213 5.094 79.6847 5.22498 79.0443 5.22498ZM87.0054 17.305H90.9642V4.2644H87.0054V2.1977H93.4967V17.305H97.4554V19.3717H86.9909V17.305H87.0054ZM100.919 17.305H104.878V4.2644H100.919V2.1977H107.411V17.305H111.369V19.3717H100.905V17.305H100.919ZM120.058 19.6483C119.17 19.6483 118.384 19.5027 117.686 19.2116C116.987 18.9206 116.391 18.4985 115.896 17.96C115.415 17.4215 115.037 16.7665 114.775 15.9951C114.513 15.2238 114.382 14.3505 114.382 13.4045C114.382 12.4585 114.513 11.5852 114.775 10.8138C115.037 10.0424 115.415 9.38751 115.896 8.849C116.376 8.31049 116.973 7.88842 117.686 7.59733C118.384 7.30625 119.185 7.1607 120.058 7.1607C120.931 7.1607 121.732 7.30625 122.431 7.59733C123.129 7.88842 123.726 8.31049 124.221 8.849C124.701 9.38751 125.079 10.0424 125.341 10.8138C125.603 11.5852 125.734 12.4585 125.734 13.4045C125.734 14.3505 125.603 15.2238 125.341 15.9951C125.079 16.7665 124.701 17.4215 124.221 17.96C123.74 18.4985 123.144 18.9206 122.431 19.2116C121.732 19.5027 120.931 19.6483 120.058 19.6483ZM120.058 17.6543C120.99 17.6543 121.717 17.3778 122.27 16.8102C122.824 16.2426 123.1 15.413 123.1 14.2923V12.4876C123.1 11.3814 122.824 10.5373 122.27 9.96968C121.717 9.40206 120.99 9.12553 120.058 9.12553C119.127 9.12553 118.399 9.40206 117.846 9.96968C117.293 10.5373 117.016 11.3669 117.016 12.4876V14.2923C117.016 15.3984 117.293 16.2426 117.846 16.8102C118.399 17.3778 119.127 17.6543 120.058 17.6543ZM128.965 19.3717V7.39357H131.498V9.43117H131.614C131.731 9.12553 131.891 8.81989 132.095 8.54336C132.284 8.25227 132.517 8.00485 132.808 7.80109C133.084 7.59733 133.404 7.42268 133.783 7.30625C134.161 7.18981 134.583 7.11704 135.078 7.11704C136.286 7.11704 137.261 7.51001 138.004 8.29594C138.746 9.08187 139.11 10.2025 139.11 11.658V19.3572H136.577V12.0218C136.577 10.1152 135.748 9.16919 134.103 9.16919C133.783 9.16919 133.463 9.21286 133.157 9.30018C132.851 9.38751 132.575 9.5185 132.327 9.67859C132.08 9.85324 131.876 10.0716 131.731 10.3335C131.585 10.5955 131.512 10.9012 131.512 11.2359V19.3572H128.98L128.965 19.3717ZM15.9951 11.9927L0 0V23.9854L15.9951 11.9927ZM15.9951 11.9927L31.9903 23.9854V0L15.9951 11.9927Z" fill="#F0F2DA"/>
<rect x="147.11" y="4" width="37" height="16" rx="4" fill="#AB9DF2"/>
<path d="M153.88 16H157.58C158.61 16 159.38 15.11 159.38 14.01C159.38 12.81 158.47 12.37 157.81 12.37V12.31C158.52 12.28 159.11 11.88 159.11 10.81C159.11 9.73 158.42 9.02 157.27 9.02H153.88V16ZM155.4 13.12H157.15C157.55 13.12 157.8 13.35 157.8 13.75V14.09C157.8 14.49 157.55 14.72 157.15 14.72H155.4V13.12ZM155.4 10.3H156.91C157.31 10.3 157.55 10.54 157.55 10.94V11.24C157.55 11.64 157.31 11.88 156.91 11.88H155.4V10.3ZM165.3 16V14.65H162.07V13.14H164.84V11.8H162.07V10.37H165.3V9.02H160.55V16H165.3ZM171.424 10.37V9.02H166.124V10.37H168.014V16H169.534V10.37H171.424ZM177.69 16L175.42 9.02H173.54L171.24 16H172.78L173.28 14.34H175.61L176.11 16H177.69ZM175.24 13.05H173.64L174.41 10.4H174.46L175.24 13.05Z" fill="#141721"/>
</g>
<defs>
<clipPath id="clip0_2527_3885">
<rect width="184.11" height="24" fill="white"/>
</clipPath>
</defs>
</svg>
