<svg width="80" height="20" viewBox="0 0 80 20" fill="none" xmlns="http://www.w3.org/2000/svg">
<path d="M0.425719 4.54785L8.0792 0.114353C8.34291 -0.0381175 8.66752 -0.0381175 8.93123 0.114353L13.7519 2.90687C14.2362 3.18748 14.3243 3.85254 13.9299 4.25062L12.2956 5.89872C12.023 6.17341 11.6002 6.22977 11.2656 6.03636L8.93951 4.68905C8.67047 4.53302 8.33877 4.53302 8.06974 4.68905L0 9.41028V5.28825C0 4.98272 0.162601 4.70091 0.425719 4.54785Z" fill="white"/>
<path d="M13.7696 16.419L8.93122 19.2216C8.66752 19.3741 8.34291 19.3741 8.0792 19.2216L0.425719 14.7881C0.162601 14.6357 0 14.3533 0 14.0483V10.3096L3.94381 8.01599V11.7637C3.94381 12.0692 4.10641 12.351 4.36953 12.5041L8.0792 14.6529C8.34291 14.8054 8.66752 14.8054 8.93122 14.6529L11.2786 13.2931C11.6127 13.0997 12.0342 13.1555 12.3068 13.429L13.9464 15.0741C14.3426 15.4716 14.2551 16.1384 13.7696 16.419Z" fill="white"/>
<path d="M44.6961 2.06161V13.6748C44.6961 14.4704 44.3638 14.5612 43.6188 14.5612H37.7522C37.4985 14.5612 37.2957 14.4858 37.1307 14.331C37.042 14.2473 36.893 14.2628 36.893 13.5354V2.06102H33.9254V13.8492C33.9254 14.8394 34.2654 15.6718 34.9347 16.3214C35.5763 16.9509 36.491 17.2706 37.6528 17.2706H43.9162C44.9835 17.2706 45.8792 16.9396 46.5799 16.2864C47.2989 15.6154 47.6631 14.8786 47.6631 13.5758V2.06042L44.6949 2.0622L44.6961 2.06161Z" fill="white"/>
<path d="M62.659 9.3073C62.076 8.67844 61.2984 8.35985 60.3494 8.35985H54.9682C54.6353 8.35985 54.4166 8.29044 54.1765 8.06084C53.9436 7.84371 53.914 7.60759 53.914 7.31985V5.76015C53.914 5.46114 53.9619 5.21612 54.1588 5.01323C54.2699 4.90169 54.4426 4.7688 55.0776 4.7688H63.427V2.05994H54.008C52.9005 2.05994 52.0065 2.52802 51.3508 3.45056C51.0782 3.83025 50.9458 4.47513 50.9458 5.42139V8.24476C50.9458 9.12754 51.1711 9.8009 51.6145 10.2459C52.1514 10.7917 52.8698 11.0687 53.7502 11.0687H59.4069C59.7676 11.0687 60.0301 11.1358 60.1916 11.2716C60.4352 11.4686 60.554 11.6804 60.554 11.9201V13.4542C60.554 14.2012 60.4097 14.1893 60.3252 14.2712C60.1141 14.4723 59.8368 14.5702 59.4767 14.5702H50.934V17.279H60.0526C61.1116 17.279 61.9808 16.9349 62.6371 16.2551C63.2242 15.6446 63.5222 14.7909 63.5222 13.7182V11.9402C63.5222 10.81 63.2325 9.9243 62.6601 9.3073H62.659Z" fill="white"/>
<path d="M67.0658 2.06042V4.76929H72.0195V17.2694H74.9871V4.76929H80V2.06042H67.0658Z" fill="white"/>
<path d="M30.8614 8.36776C30.9353 7.48261 30.8614 5.39727 30.8614 5.39727C30.8614 4.03928 30.2577 3.03547 29.0692 2.41432C28.6039 2.16633 27.8997 2.0459 26.9158 2.0459L21.3294 2.05598C20.4443 2.05598 17.8202 2.0459 17.8202 2.0459L19.1612 4.75595H22.1708C22.198 4.75595 22.2246 4.75476 22.2524 4.75476H26.4989C27.1482 4.75476 27.8938 4.87223 27.8938 5.78586V7.99935C27.8938 8.71245 27.5372 9.03044 26.7372 9.03044H22.8165V9.03163H17.8202V17.2852H20.7884V11.7393H25.301L27.3563 17.2864H30.8909C30.8909 17.2864 28.8055 11.68 28.7422 11.5453C28.6583 11.3667 29.6197 11.2238 30.2098 10.5807C30.8005 9.93755 30.7869 9.25292 30.8614 8.36836V8.36776Z" fill="white"/>
</svg>
