<svg width="16" height="20" viewBox="0 0 16 20" fill="none" xmlns="http://www.w3.org/2000/svg">
<g id="&#240;&#159;&#166;&#134; icon &#34;bell&#34;">
<path id="Vector" d="M15.8834 13.7295L14.124 10.4813V7.09922C14.124 3.72251 11.3768 0.975342 8.00011 0.975342C4.6234 0.975342 1.87623 3.72251 1.87623 7.09922V10.4813L0.116743 13.7295C0.0369514 13.8767 -0.00320776 14.0422 0.000200169 14.2097C0.0036081 14.3772 0.0504662 14.5409 0.136183 14.6848C0.2219 14.8287 0.343535 14.9479 0.48917 15.0307C0.634805 15.1135 0.799444 15.157 0.966955 15.157H4.46945C4.45986 15.2632 4.45467 15.3705 4.45467 15.4793C4.45467 16.4196 4.8282 17.3214 5.49309 17.9863C6.15798 18.6511 7.05977 19.0247 8.00007 19.0247C8.94037 19.0247 9.84216 18.6511 10.5071 17.9863C11.1719 17.3214 11.5455 16.4196 11.5455 15.4793C11.5455 15.3705 11.5403 15.2632 11.5307 15.157H15.0332C15.2007 15.1569 15.3653 15.1134 15.5109 15.0306C15.6565 14.9479 15.7781 14.8287 15.8638 14.6848C15.9495 14.5409 15.9964 14.3772 15.9998 14.2097C16.0032 14.0422 15.9632 13.8768 15.8834 13.7295ZM10.2563 15.4793C10.2565 15.7893 10.1929 16.0961 10.0693 16.3805C9.94569 16.6648 9.76482 16.9206 9.53795 17.132C9.31108 17.3433 9.04309 17.5056 8.75069 17.6088C8.4583 17.7119 8.14779 17.7537 7.83853 17.7315C7.52928 17.7093 7.22792 17.6236 6.95326 17.4797C6.67861 17.3358 6.43655 17.1369 6.2422 16.8953C6.04785 16.6538 5.90538 16.3747 5.82368 16.0756C5.74198 15.7765 5.72281 15.4638 5.76735 15.157H10.2328C10.2483 15.2637 10.2562 15.3714 10.2563 15.4793ZM1.50807 13.8677L3.16547 10.808V7.09922C3.16547 5.817 3.67483 4.58729 4.5815 3.68061C5.48817 2.77394 6.71789 2.26458 8.00011 2.26458C9.28234 2.26458 10.512 2.77394 11.4187 3.68061C12.3254 4.58729 12.8348 5.817 12.8348 7.09922V10.808L14.4921 13.8677H1.50807Z" fill="#78DCE8"/>
</g>
</svg>
