<svg xmlns="http://www.w3.org/2000/svg" width="38" height="32" fill="none" xmlns:v="https://vecta.io/nano"><g clip-path="url(#A)"><path d="M21.893 14.847c-3.665-1.26-5.73 2.891-7.539 5.395-1.26 1.742-4.997 6.922-3.069 8.893.174-2.211 4.321-4.698 5.747-6.329 1.813-2.074 3.525-4.41 4.865-7.959h-.004z" fill="#f6ae38"/><g fill="#f3ed76"><path d="M20.862 15.63c2.69-.237 4.04-2.293 6.423-3.123 1.652-.572 6.317-1.588 7.994-1.041 3.878 1.265.243 3.683-1.349 4.879-1.937 1.454-2.524 3.61-4.576 5.072-1.077.766-2.567 2.065-3.857 2.022-1.426-.047-2.954-2.039-4.602-2.323-.026 1.932 2.941 2.147 2.801 4.53-.085 1.484-1.481 2.457-2.584 3.184-1.686 1.114-3.158 1.157-5.104 1.699-1.422.396-3.21 1.605-4.636 1.45-.536-2.93 2.614-5.515 4.146-7.71 1.758-2.521 3.478-4.9 5.342-8.643v.004zm-1.741-2.018c-1.251-2.715-2.716-4.763-5.027-6.483L9.867 4.242c-.915-.757-1.383-2.087-2.294-2.732C2.456-2.117.017 5.584.92 9.504c.319 1.39.685 2.465.626 3.915-.017.456-.336 1.372-.196 1.755.17.465.851.74.962 1.02.66 1.631-.26 1.553-1.158 3.278-.477.921-.783 1.975-.583 3.115.204 1.157.949 1.695 1.507 2.59.621.998.851 2.22 1.511 3.166.728 1.046 2.341 2.117 3.657 1.863 1.703-.331 1.311-1.635 1.86-3.218.579-1.678 1.183-1.519 2.196-2.741 1.137-1.372 1.528-3.3 2.72-4.676 1.89-2.186 3.248-4.982 5.1-5.954v-.004z"/></g><path d="M6.7 4.956c-1.32-1.088-3.708-1.828-3.554 1.106.111 2.099 3.137 2.577 3.295.198" fill="#ab9df2"/><path d="M11.591 21.094c-3.142-.555-5.717-1.992-8.718-1.523-.639 6.406 7.909 9.052 7.173 2.043.345-.224 1.217-.237 1.545-.52z" fill="#ef6186"/><path d="M33.22 13.513c-.498.258-1.196-.439-1.813-.176-.524.224-.979 1.093-.677 1.519.57.809 2.895.396 2.686-.852-.021-.129-.191-.357-.191-.486l-.004-.004z" fill="#ab9df2"/><path d="M18.253 23.469c-.587.985-1.464 1.557-2.052 2.633-.468.856-1.26 1.811-1.511 2.723 1.022-.301 1.856.138 2.69-.572.494-.422 1.043-1.02 1.486-1.471 1.171-1.183.928-2.715.928-4.285-.404.073-1.328.611-1.545.977l.004-.004z" fill="#ef6186"/><g fill="#a9d277"><path d="M15.741 13.32c-.013-1.609-1.52-3.192-3.018-1.682-.715.718-.519 1.91.315 2.272.702.305 2.056-.065 2.703-.293.021-.151.085-.181 0-.293v-.004zm9.08 2.147c-.83-.103-1.664.417-1.434 1.351.515.056 1.132.452 1.532.013.345-.374.294-.921-.098-1.368v.004z"/></g><g fill="#000"><path d="M4.806.004c.465-.026.923.098 1.382.365l.091.055.526.334 1.569 1.047 2.103 1.394h0c1.983 1.245 3.838 2.8 5.506 4.438l.109.111c.548.578 1.147 1.493 1.7 2.493.593 1.071 1.145 2.258 1.536 3.272l-.397.156c-.384-.995-.926-2.164-1.51-3.218-.55-.993-1.127-1.868-1.634-2.403l-.101-.103c-1.549-1.521-3.255-2.965-5.069-4.148l-.365-.233-2.116-1.403L6.056.79h0C5.626.522 5.223.411 4.83.433s-.8.179-1.23.483c-.212.152-.468.458-.748.873A17.68 17.68 0 0 0 2.016 3.2l-.764 1.468-.45.866-.117.207c-.417.706-.282 1.496.048 2.412l.562 1.415c.167.426.324.868.427 1.318l.041.193h0l.032.191c.118.813-.015 1.43-.112 2.131l-.041.331-.091.632-.084.526c-.041.322-.046.62.044.982.002.003.007.009.019.019.024.021.064.046.126.074.124.056.297.108.504.16l1.294.342h0c3.225 1.237 5.479 2.485 8.832 2.451l.004.43c-3.241.033-5.519-1.107-8.402-2.251l-.585-.229c-.342-.131-.807-.217-1.245-.327-.21-.053-.416-.111-.577-.185a.96.96 0 0 1-.226-.138c-.066-.057-.129-.134-.155-.237v-.001c-.108-.432-.101-.787-.055-1.147l.086-.542.087-.607.043-.351c.107-.783.24-1.338.083-2.175l-.037-.179a8.88 8.88 0 0 0-.408-1.255L.333 8.302c-.336-.933-.537-1.894-.014-2.78l.111-.196.443-.853.769-1.478.858-1.447c.283-.421.576-.784.855-.983h.001l.179-.12c.418-.263.839-.416 1.272-.44zm-1.829 17.73c-.937.4-1.849 1.564-2.285 2.929-.421 1.317-.377 2.75.449 3.787l.082.099h0l.513.602c1.029 1.223 1.586 1.95 2.959 2.951l.332.236h0l.265.181 1.103.687.77.397c.242.106.434.167.56.178h0l.067.003c.15.002.269-.038.37-.103.121-.078.23-.2.337-.363s.205-.353.311-.56l.351-.615c.277-.407.481-.818.71-1.243s.475-.844.83-1.244l.317.287c-.321.362-.55.75-.773 1.163l-.627 1.118-.107.162a5.46 5.46 0 0 0-.325.57l-.334.599c-.123.187-.271.365-.463.488a1.08 1.08 0 0 1-.703.165h0c-.199-.017-.444-.102-.693-.212-.255-.112-.535-.259-.809-.416l-1.4-.889-.342-.243c-1.635-1.192-2.17-2.031-3.541-3.617h0c-1.04-1.199-1.077-2.86-.616-4.301s1.435-2.728 2.525-3.193l.165.397zm27.622-5.75l1.298-.194 2.349-.292c.811-.072 1.614-.102 2.254-.031.319.035.61.097.844.198s.434.252.532.481h0l.038.099c.171.5.068 1.08-.165 1.65-.251.613-.669 1.254-1.146 1.846a12.57 12.57 0 0 1-1.527 1.584c-.502.433-.986.768-1.347.907h0l-.877.302-.621.205c-.313.12-.608.281-1.05.643l-.199.168c-.852.74-2.398 1.914-3.491 2.677l-.437.299c-1.162.776-2.413.382-3.573-.231l-1.724-1.023c-.563-.341-1.098-.642-1.603-.818l.139-.407c.551.192 1.119.514 1.683.855l1.703 1.01c1.141.604 2.191.889 3.14.254l.433-.296 3.454-2.647.21-.177c.469-.384.802-.57 1.165-.709l.646-.213.85-.293.116-.05c.285-.137.675-.41 1.107-.782a12.03 12.03 0 0 0 1.473-1.528c.461-.573.853-1.178 1.083-1.739.218-.531.277-.99.156-1.344l-.027-.069c-.038-.088-.129-.177-.309-.255s-.423-.133-.722-.166c-.597-.066-1.367-.04-2.17.031l-2.324.289-1.307.196-.281.034c-3.393.335-6.203 1.724-8.913 3.903l-.133-.168-.133-.168c2.756-2.217 5.642-3.651 9.136-3.995l.269-.033z"/><path d="M20.862 21.327c.821.765 1.586 1.937 2.005 3.129.402 1.145.505 2.368-.055 3.262l-.056.086c-1.633 2.358-4.211 2.781-6.713 2.987l-.499.039c-.239.018-.548.118-.911.258l-1.135.446c-.384.136-.78.247-1.139.252-.367.005-.717-.102-.965-.423l-.075-.097.045-.114.327-.855.842-2.02c.403-.79.909-1.486 1.808-2.378l.141-.149c.332-.368.682-.88 1.056-1.41.417-.591.864-1.206 1.319-1.586l.271.332c-.404.338-.819.903-1.244 1.504l-1.092 1.454-.153.161c-.873.867-1.349 1.527-1.728 2.269-.371.728-.648 1.531-1.104 2.709.135.122.314.176.545.174.287-.004.629-.094 1.003-.227l1.125-.442c.361-.14.724-.263 1.032-.286l.501-.039c2.497-.207 4.882-.621 6.394-2.804l.045-.069c.453-.725.401-1.784.013-2.888-.397-1.13-1.125-2.242-1.893-2.957l.288-.316zm-2.167-6.247c.799-.828 1.799-1.439 2.942-1.079l-.063.205-.064.205c-.905-.285-1.744.175-2.511.969s-1.398 1.854-1.881 2.639h0c-.305.495-1.075 1.515-1.832 2.514l-1.81 2.454c-.279.435-.44.941-.594 1.486-.152.535-.298 1.113-.551 1.64v.001c-.074.152-.231.406-.395.679l-.497.893c-.148.305-.238.558-.244.723-.003.078.014.104.018.108s.022.025.11.028l-.005.215-.005.215c-.163-.004-.316-.053-.421-.176s-.127-.272-.122-.407c.01-.264.138-.589.287-.895.153-.315.346-.644.515-.926l.376-.645c.232-.484.367-1.016.524-1.57.154-.545.33-1.107.646-1.601.304-.474 1.073-1.483 1.829-2.482l1.808-2.48.39-.633c.424-.677.945-1.457 1.548-2.08zM4.429 3.582c.384-.124.798-.142 1.174 0s.701.444.904.914l-.39.172c-.161-.373-.4-.584-.663-.683s-.581-.095-.896.007c-.598.193-1.141.708-1.307 1.329l-.028.126c-.076.422-.012.759.129 1.018A1.34 1.34 0 0 0 4 7.043a1.82 1.82 0 0 0 1.816-.226l.261.339c-.65.511-1.551.587-2.247.28-.351-.155-.657-.411-.851-.765s-.267-.795-.175-1.303l.016-.08c.183-.821.872-1.47 1.609-1.708zm9.569 7.463a2.08 2.08 0 0 1 1.388.373c.398.288.679.739.662 1.315l-.425-.013c.012-.41-.183-.733-.485-.952a1.66 1.66 0 0 0-1.1-.294c-.381.036-.715.21-.905.528s-.262.827-.024 1.585l-.203.066-.202.065c-.261-.83-.21-1.477.064-1.937s.747-.689 1.23-.734zm-10.417-.806a10.71 10.71 0 0 1 .413 1.215c.123.453.216.94.195 1.327-.032.603-.284.992-.39 1.249-.054.132-.073.229-.056.331s.08.246.253.448l.064.067c.168.157.464.326.862.494.445.188.986.362 1.542.512 1.116.301 2.265.497 2.786.518l-.017.43c-.565-.022-1.749-.227-2.879-.531-.567-.153-1.128-.333-1.597-.531-.459-.194-.863-.42-1.083-.677-.201-.234-.316-.446-.351-.658s.015-.401.082-.567c.137-.337.331-.603.358-1.109l.002-.123c-.005-.3-.077-.678-.182-1.066a10.28 10.28 0 0 0-.396-1.165l.393-.165zm26.045 8.427c-.65.204-1.216.627-1.8 1.077-.536.413-1.094.854-1.721 1.096l-.126.046c-.827.278-1.633.033-2.377-.304l-1.103-.546c-.361-.18-.709-.34-1.05-.443l.122-.412c.376.114.751.288 1.116.47l1.089.54c.724.328 1.401.512 2.069.288l.111-.04c.554-.214 1.061-.61 1.613-1.035.576-.444 1.199-.915 1.932-1.146l.126.411zM24.99 15.33l.125.036a1.2 1.2 0 0 1 .251.103c.178.102.305.262.393.521l.032.093-.049.085c-.325.564-.848.957-1.463 1.026l-.047-.427c.428-.048.818-.31 1.088-.728-.052-.113-.107-.163-.164-.196a.79.79 0 0 0-.163-.066l-.114-.032-.134-.038.06-.206.06-.206.126.036zm6.47-1.856a2.02 2.02 0 0 1 2.421.042l.101.075-.016.126c-.05.398-.28.77-.577 1.069s-.682.548-1.07.693-.801.197-1.155.073c-.373-.131-.634-.446-.71-.942l.21-.033.21-.032c.054.36.223.529.428.601.224.079.533.055.868-.07s.662-.336.917-.594c.218-.22.369-.461.43-.694a1.59 1.59 0 0 0-1.818.041l-.241-.355zM9.668 6.872a.8.8 0 0 1 .635.017c.209.095.401.275.58.533l-.174.124-.174.124c-.155-.222-.292-.337-.406-.388a.38.38 0 0 0-.31-.008c-.111.043-.233.134-.363.277a3.28 3.28 0 0 0-.382.537c-.509.862-.895 2.059-1.119 2.581v.001c-.298.691-.396 1.146-.378 1.466.017.302.14.501.347.688.225.202.518.366.891.616.361.242.763.545 1.142.998l-.163.139-.163.139c-.342-.409-.707-.686-1.052-.917-.333-.223-.684-.423-.939-.653-.272-.245-.464-.545-.489-.985-.024-.422.106-.952.412-1.663.197-.459.618-1.74 1.144-2.63a3.74 3.74 0 0 1 .435-.608c.156-.172.329-.312.525-.387zm17.922 7.122c.617.107 1.023.322 1.142.696.058.183.034.371-.027.544a2.04 2.04 0 0 1-.284.509c-.241.329-.58.664-.893.96l-.705.677-.067.075c-.731.846-1.21 1.161-1.806 1.21-.281.023-.58-.014-.916-.056l-1.251-.113.015-.43c.531.019.947.072 1.289.116s.599.073.828.054c.399-.033.761-.216 1.391-.917l.13-.147c.184-.213.498-.495.802-.783.313-.296.626-.608.841-.902a1.63 1.63 0 0 0 .226-.397c.042-.117.043-.202.022-.267-.039-.121-.208-.299-.809-.403l.036-.212.036-.212zM3.576 20.412c-.682 1.296-.531 2.47.088 3.446.627.989 1.744 1.787 3.001 2.275h0l.266.098c.572.195.82.167 1.009.029.123-.09.244-.242.396-.487l.542-.944.939-1.768c.29-.645.496-1.283.496-1.823h.426c0 .634-.237 1.342-.534 2.002s-.671 1.304-.959 1.806h0L8.697 26c-.157.254-.314.467-.508.608-.366.267-.795.237-1.405.027l-.272-.101c-1.314-.51-2.517-1.355-3.207-2.444-.698-1.101-.863-2.44-.106-3.88l.376.202zm16.091 1.811c.627.866.834 1.772.727 2.634s-.525 1.655-1.123 2.317c-1.153 1.277-3.012 2.088-4.752 1.854l-.168-.026-.389-.068.27-.292.156-.174c.354-.412.647-.858.939-1.322l1.074-1.601.167.134.167.134c-.393.501-.71 1.028-1.048 1.565l-.873 1.247c1.515.112 3.124-.612 4.144-1.742.551-.611.921-1.329 1.015-2.081s-.082-1.545-.648-2.326l.343-.254zm.561-4.132l.171.128-.899 1.314-.94 1.287-.325-.278c.311-.371.611-.803.913-1.251l.909-1.328.171.128z"/></g></g><defs><clipPath id="A"><path fill="#fff" d="M0 0h38v32H0z"/></clipPath></defs></svg>