<svg width="230" height="104" viewBox="0 0 230 104" fill="none" xmlns="http://www.w3.org/2000/svg">
<g id="IMG">
<g id="Group 3">
<g id="Layer_4">
<path id="Vector" d="M191.916 73.3565C190.632 71.8746 189.141 70.5932 188.034 68.9791C187.037 67.5254 186.238 65.9797 185.155 64.5685C183.125 61.9232 181.097 59.5586 179.627 56.6088C178.636 54.6242 176.095 52.3965 175.889 50.2798C175.705 48.3966 173.743 46.53 172.299 45.494C169.198 43.2734 165.983 41.3195 163.101 38.7591C161.109 36.9868 158.684 35.6771 156.696 33.7656C154.223 31.3893 151.625 29.1545 149.181 26.7263C147.482 25.039 146.172 23.0969 144.123 21.8721C142.144 20.6875 139.903 20.5765 137.897 19.4273C135.034 17.7872 132.396 15.746 129.328 14.5236C128.139 14.0493 126.905 13.7708 125.82 13.0605C124.87 12.4375 124.322 11.7791 123.154 11.4794C121.324 11.0074 118.984 12.3714 117.486 13.6292C116.162 14.7407 115.446 16.3383 114.363 17.648C113.259 18.9813 112.507 20.1919 111.883 21.832C111.255 19.1135 108.773 16.5318 106.894 14.7124C105.229 13.1006 103.123 11.8876 100.677 12.2676C98.2611 12.6428 96.3039 14.2546 94.0488 15.0003C91.0658 15.9843 88.4987 17.3766 85.6007 18.6108C82.6011 19.8898 81.0056 22.4927 77.9351 24.0101C74.9543 25.4826 73.2453 27.1416 71.4867 29.8389C68.0191 35.1603 61.9726 39.0847 57.6091 43.6746C53.9783 47.4928 50.4918 51.6272 48.2226 56.3988C45.9841 61.1067 43.547 65.8004 40.5569 70.0575C37.3421 74.6356 34.1936 80.1363 31.9977 85.2619C34.2693 87.4093 36.659 90.2411 39.1528 92.2399C42.9514 95.2841 48.9671 93.6865 53.3306 92.5679C54.0445 90.0689 55.4651 87.7869 56.1364 85.2501C57.7154 79.2868 60.9372 74.0952 63.7028 68.6298C64.7689 66.5225 65.3456 64.3302 66.6292 62.3338C67.6078 60.8093 68.4445 59.3533 69.6808 58.0578C73.3966 58.0412 77.3938 56.8212 81.2041 56.623C86.863 56.3304 92.5029 54.7398 98.332 55.6035C101.079 56.0118 103.561 57.1138 105.962 58.5604C107.215 59.3155 111.411 63.5703 112.815 61.7863C113.67 63.8346 117.831 59.9739 118.823 59.299C129.451 52.0732 144.997 56.9888 155.795 56.1911C157.738 56.0472 158.932 58.171 159.844 59.9267C161.078 62.3007 162.96 64.0895 164.205 66.4517C165.328 68.5802 166.503 70.6168 167.574 72.7477C169.086 75.7612 170.819 78.6614 172.4 81.6254C173.431 83.5581 175.329 86.5669 175.573 88.6813C177.275 88.122 177.932 88.9267 179.158 89.7385C180.905 90.8925 184.276 90.9562 186.347 90.8335C190.788 90.5692 197 85.4011 197.998 80.908C196.896 78.0432 193.904 75.6574 191.913 73.3565H191.916ZM133.881 36.4795C133.734 38.8204 132.893 40.8782 131.916 42.9808C131.032 44.8805 130.846 45.4468 128.945 46.2232C126.118 47.3795 123.724 49.3972 120.906 50.5323C118.847 51.3606 117.242 52.0992 115.623 53.6661C114.777 54.485 113.663 56.1085 112.621 56.597C110.702 53.7062 109.978 50.8013 106.373 49.6591C103.426 48.7246 97.7008 48.8072 95.7507 46.6267C93.7439 44.3849 92.1082 41.1873 91.9522 38.2328C91.7749 34.8724 92.6258 32.0005 94.6374 29.2961C96.4599 26.8466 99.9393 26.1764 102.542 24.6284C103.629 26.0655 105.617 25.5818 106.123 26.9599C106.574 28.1917 106.196 29.2749 106.903 30.535C107.737 32.0241 111.018 35.8848 112.538 33.1922C116.055 36.3331 118.01 28.2318 117.982 26.049C119.554 26.0183 120.771 25.5676 121.821 24.3806C123.889 26.7381 127.815 27.1204 130.226 29.1781C132.401 31.033 134.056 33.6689 133.881 36.4771V36.4795Z" fill="#F4E7D3"/>
</g>
<g id="Layer_2">
<path id="Vector_2" d="M103.452 51.3702C103.861 50.6569 104.516 50.0369 105.326 49.8598C106.028 49.7059 106.761 49.8947 107.437 50.1418C109.111 50.7478 109.602 52.1277 110.756 53.468C111.909 54.8082 113.219 57.7848 113.233 59.5422C113.238 60.1646 112.713 60.7427 112.304 61.2182C109.598 61.5818 107.742 57.8314 105.177 56.9037C104.277 56.5774 103.327 56.3932 102.426 56.0692C101.124 55.6007 99.58 55.8571 98.4171 55.1136C96.3724 53.806 85.5795 55.039 83.1921 55.5238C79.2919 56.3163 74.1956 57.3862 72.6024 57.1344C70.7752 56.8454 68.0214 57.1648 66.6859 55.9271" stroke="black" stroke-miterlimit="10"/>
<path id="Vector_3" d="M112.269 28.5134C112.269 30.5856 112.692 33.998 111.068 33.5411C109.444 33.0843 107.302 31.6392 106.785 29.6649C106.317 27.8794 106.815 26.073 106.551 26.0567C106.281 26.0404 102.353 24.0661 102.32 23.9239C102.121 23.0708 101.922 22.2154 101.722 21.3623" stroke="black" stroke-miterlimit="10"/>
<path id="Vector_4" d="M112.269 27.0545C112.269 25.3413 111.928 22.5 110.841 21.6189C109.153 20.253 104.412 16.3488 102.39 15.5376C101.755 15.2812 101.09 15.0225 100.405 15.0621C99.9984 15.0855 99.6036 15.216 99.2207 15.3535C97.1618 16.0901 88.0921 20.9802 86.2649 22.169" stroke="black" stroke-miterlimit="10"/>
<path id="Vector_5" d="M94.8713 45.4055C93.3893 43.9091 91.4557 39.8953 91.3659 37.9584C91.3068 36.6531 91.4959 34.0471 92.0206 32.9353C92.5147 31.8864 94.3489 29.0987 95.1834 28.2852C96.7576 26.7492 98.7266 27.0592 101.724 24.6001" stroke="black" stroke-miterlimit="10"/>
<path id="Vector_6" d="M103.932 49.333C101.745 48.7992 99.5588 48.2654 97.3723 47.7293C96.3464 47.4776 94.342 46.3798 93.4721 45.7877C91.6662 44.5617 90.5268 41.2169 90.047 39.1074" stroke="black" stroke-miterlimit="10"/>
<path id="Vector_7" d="M110.675 20.302C108.73 17.4747 103.544 11.8829 100.712 12.3141C96.8073 12.9108 86.6195 18.0714 84.2321 19.3044C80.3082 21.3299 68.7683 31.0474 63.5657 37.2662" stroke="black" stroke-miterlimit="10"/>
<path id="Vector_8" d="M107.021 25.3669C107.177 24.9054 108.03 24.7492 108.186 24.29" stroke="black" stroke-miterlimit="10"/>
<path id="Vector_9" d="M111.978 22.1151C114.625 20.1922 117.275 18.2692 119.923 16.3439C120.911 15.626 121.96 14.8824 123.18 14.7449C124.704 14.5724 126.151 15.3719 127.47 16.1458C130.864 18.134 134.259 20.1199 137.655 22.1081" stroke="black" stroke-miterlimit="10"/>
<path id="Vector_10" d="M113.304 32.8514C114.552 34.6694 116.651 32.6905 117.11 31.3549C117.381 30.5601 117.708 29.7536 117.845 28.9355C117.944 28.3551 117.923 26.7957 117.833 26.241C117.693 25.3902 116.419 24.8634 115.814 24.29" stroke="black" stroke-miterlimit="10"/>
<path id="Vector_11" d="M118.386 25.3669C119.417 24.9987 120.457 24.987 121.149 24.0243C121.698 23.2598 121.393 22.2296 121.19 21.3765" stroke="black" stroke-miterlimit="10"/>
<path id="Vector_12" d="M132.245 43.4079C132.323 41.725 133.462 40.2122 133.803 38.5876C134.086 37.2311 134.261 35.2125 134.018 33.828C133.732 32.18 131.316 31.0216 130.359 29.686C129.092 27.9145 127.413 27.0568 125.548 26.0335C124.355 25.3785 123.154 24.6396 122.199 23.7539" stroke="black" stroke-miterlimit="10"/>
<path id="Vector_13" d="M113.247 19.5302C114.725 17.183 117.159 15.1855 119.147 13.2905C119.934 12.5399 120.743 11.3815 121.889 11.1577C122.925 10.9549 123.733 11.561 124.612 11.9129C128.042 13.2788 130.938 15.6237 134.259 17.1691C135.873 17.9196 137.176 18.8729 138.927 19.1456C140.747 19.43 142.132 19.9964 143.693 20.8938C145.404 21.8798 146.375 23.3785 147.659 24.847C149.113 26.5136 150.782 28.2337 152.569 29.5111C153.873 30.4434 155.296 31.2942 156.367 32.4853C157.736 34.0097 159.492 35.4851 161.078 36.8067C162.964 38.3754 164.94 40.2354 167.068 41.4685C168.633 42.3752 170.292 43.212 171.765 44.2562C172.452 44.7434 172.809 45.3261 173.396 45.9041C174.4 46.8971 175.476 48.3772 176.005 49.7804C176.558 51.2488 177.695 52.7499 178.499 54.0785C179.835 56.2905 181.227 58.4769 182.659 60.6353C184.465 63.3578 186.035 66.3506 188.313 68.7095C189.155 69.5812 189.883 70.4926 190.644 71.4319C191.445 72.4202 192.918 74.0075 193.603 75.0401C194.92 77.026 195.665 77.7533 197.107 79.569" stroke="black" stroke-miterlimit="10"/>
<path id="Vector_14" d="M113.169 55.9245C115.46 52.5471 119.107 49.7757 122.981 48.3235C125.418 47.4098 127.796 46.1768 130.311 45.5428C132.079 45.0952 133.597 44.1396 134.23 42.3728C134.557 41.4637 134.819 40.3589 134.973 39.4172C135.107 38.5921 134.963 37.6318 135.204 36.8066" stroke="black" stroke-miterlimit="10"/>
<path id="Vector_15" d="M113.169 61.297C114.283 62.9076 117.377 59.6467 118.308 58.8566C119.315 58.0035 120.542 57.0431 121.844 56.8054C123.147 56.5676 124.26 55.9803 125.544 55.7145C129.56 54.8824 133.996 54.344 138.126 54.5398C140.279 54.64 142.293 54.8708 144.397 55.253C146.163 55.5747 147.751 55.8614 149.529 55.8614C152.311 55.8614 155.053 56.3322 157.317 54.619" stroke="black" stroke-miterlimit="10"/>
<path id="Vector_16" d="M118.854 57.4585C117.852 54.9132 115.046 57.638 114.183 58.8407" stroke="black" stroke-miterlimit="10"/>
<path id="Vector_17" d="M111.924 60.0692C111.47 59.0855 111.023 58.2977 110.054 57.8012C109.165 57.3467 108.964 57.3956 108.03 57.687" stroke="black" stroke-miterlimit="10"/>
<path id="Vector_18" d="M176.081 88.2468C175.911 87.5499 175.341 86.8856 175.012 86.2352C174.497 85.2166 174.031 84.1771 173.507 83.1631C172.131 80.492 170.59 77.9769 169.091 75.3664C168.28 73.9538 167.415 72.6952 166.737 71.2034C166.184 69.9867 165.645 68.7094 164.95 67.5766C164.156 66.2806 163.068 65.1058 162.22 63.8145C161.681 62.9917 161.147 62.2109 160.593 61.3881C159.891 60.3438 159.272 59.4231 158.424 58.4605C158.024 58.0083 157.523 57.5631 157.152 57.0946C156.953 56.8429 156.906 56.5095 156.613 56.3091" stroke="black" stroke-miterlimit="10"/>
<path id="Vector_19" d="M32.3499 84.2538C34.9736 82.0278 35.9333 78.4569 37.4249 75.5014C39.2828 71.8163 42.0791 68.581 43.7361 64.7327C46.6601 57.9499 48.8442 50.9153 54.4109 45.7943C56.907 43.4984 59.6371 41.3657 62.0151 39.1094" stroke="black" stroke-miterlimit="10"/>
<path id="Vector_20" d="M53.1392 91.6244C56.0064 87.5337 57.9778 81.5666 60.0957 76.8839C61.9915 72.693 63.2821 67.8354 65.4213 63.8892C66.4519 61.9896 68.0616 59.9477 69.0213 58.2275" stroke="black" stroke-miterlimit="10"/>
<path id="Vector_21" d="M111.69 28.8979C110.874 29.2266 111.245 31.9188 111.378 32.4292" stroke="black" stroke-miterlimit="10"/>
<path id="Vector_22" d="M83.452 24.4438C82.9651 24.7492 82.445 25.0196 81.9983 25.3645" stroke="black" stroke-miterlimit="10"/>
<path id="Vector_23" d="M138.889 22.9102C139.372 23.3787 140.166 23.8565 140.447 24.4462" stroke="black" stroke-miterlimit="10"/>
<path id="Vector_24" d="M141.797 21.5791C142.374 21.7259 142.979 22.0779 143.251 22.6024" stroke="black" stroke-miterlimit="10"/>
<path id="Vector_25" d="M83.66 20.9639C83.1873 21.1853 82.6578 21.43 82.4143 21.9871" stroke="black" stroke-miterlimit="10"/>
</g>
</g>
</g>
</svg>
