<svg width="166" height="182" viewBox="0 0 166 182" fill="none" xmlns="http://www.w3.org/2000/svg">
<g clip-path="url(#clip0_3565_9092)">
<path d="M109.057 288.654C108.682 273.887 112.548 220.928 114.275 206.3C115.884 192.675 117.045 179.315 119.249 165.734C121.946 149.136 125.495 131.124 125.033 114.496C120.241 110.841 113.694 110.27 109.41 105.823C105.912 102.19 102.392 98.286 98.8871 94.7408C91.9576 87.7235 84.7709 81.7024 79.0391 73.6156C76.9155 70.6197 64.7392 51.2892 75.1886 51.7434C82.9632 52.0803 85.5057 66.4811 91.6269 69.5503C94.1841 70.8321 100.776 70.7882 103.73 70.5758C107.316 70.3194 112.709 68.4735 115.832 65.7633C121.887 60.5113 112.937 53.4867 108.197 49.8389C101.209 44.4624 96.0873 42.3748 86.7623 43.1878C84.9619 43.3416 82.728 43.5394 80.9791 44.0448C79.4139 44.499 76.4525 47.1946 74.6742 46.4694C71.0956 45.0044 73.6455 39.3129 75.2988 37.4084C79.9209 32.0979 93.5889 29.8784 100.313 28.9701C109.873 27.6736 116.222 34.3466 123.57 39.7012C123.328 31.651 113.657 21.4181 107 17.6238C101.687 14.5986 87.6588 15.104 88.7096 6.63637C89.4591 0.563992 94.434 3.43537 98.3947 1.57483C100.739 1.99236 102.576 0.14647 104.428 0.109845C106.625 0.0658956 107.617 1.03279 109.395 1.70668C112.651 2.9446 116.376 3.45002 119.455 4.90768C125.371 7.69848 131.043 13.6024 136.731 17.3821C149.672 25.9815 161.333 38.2874 162.752 54.1899C163.67 64.5034 165.199 74.5679 165.199 85.0572C165.199 107.435 166.477 129.6 163.626 151.553C162.774 158.102 161.392 165.258 161.811 171.916C162.399 181.3 162.781 192.814 162.781 202.308C162.781 213.94 162.443 263.698 163.024 275.293C163.362 282.047 164.177 290.156 162.781 296.763C161.936 300.755 161.451 301.15 156.52 301.707C147.607 302.725 138.068 300.879 129.375 299.253C121.88 297.854 115.259 292.243 109.05 288.654H109.057Z" fill="#F4E7D3"/>
<path d="M80.7073 46.3375C82.3239 47.4509 84.4255 49.9048 82.6693 51.9558C81.0967 53.7943 77.0772 53.3329 74.8506 53.1864C64.6217 52.5271 54.503 51.15 44.3182 50.1319C33.788 49.0771 23.515 47.1433 12.8819 46.6672C8.87706 46.484 3.32171 47.1213 1.51401 43.576C-1.31511 38.0091 2.15332 36.7272 6.81218 35.3208C9.01668 34.6543 10.9566 33.4823 13.2567 33.409C15.7478 33.3285 18.136 33.1087 20.7447 33.2259C23.9045 33.3724 27.2847 34.0463 30.3122 34.8301C32.987 35.5186 34.7286 34.9253 37.396 35.1963C40.1296 35.4747 41.9741 37.8333 44.4946 38.5072C46.7872 39.1225 49.271 38.954 51.549 39.54C57.0308 40.9391 62.4613 41.2467 68.1489 42.1697C70.8678 42.6091 71.8304 43.8104 74.1378 44.6382C76.5922 45.5172 79.3405 45.2754 80.7073 46.3375Z" fill="#F7AF39"/>
<path d="M46.5596 42.9461C46.7213 44.2939 46.5596 45.6783 46.3539 47.0261C45.3251 46.6086 44.1861 46.6159 43.0692 46.4401C42.9075 45.2388 43.3631 43.8178 42.5254 42.7703C44.1494 43.1146 45.2516 42.0891 46.4641 41.4811C46.4862 42.0598 46.4935 42.3675 46.5596 42.9461Z" fill="black"/>
<path d="M18.9148 37.2693C19.5835 37.6868 19.8333 38.1263 20.7298 38.2142C20.9282 40.6534 20.9797 42.4407 17.739 41.7741C16.7397 41.569 14.954 40.6168 14.7336 39.5254C14.4617 38.1922 16.0416 37.4378 16.1224 36.0167C16.7691 36.6027 18.0183 37.262 18.9148 37.2693Z" fill="black"/>
<path d="M65.4668 43.6273C65.9297 44.8653 66.4588 46.1398 67.348 47.1799C68.2298 46.8283 69.3761 46.2277 70.111 45.7882C70.28 43.9643 67.9432 41.3713 65.4668 43.6273Z" fill="black"/>
<path d="M38.5722 35.3575C37.6904 36.8664 37.4259 37.5989 35.5594 37.4817C34.2146 37.4011 32.8258 36.7053 33.4651 35.3355C34.707 35.2842 37.4112 35.6505 38.5722 35.3648V35.3575Z" fill="black"/>
<path d="M145.152 122.971C141.875 122.334 138.803 120.942 135.768 119.55C131.719 117.704 127.678 115.859 123.629 114.013C119.205 111.991 114.73 109.94 110.975 106.856C105.464 102.322 101.892 95.8762 96.9174 90.756C93.2506 86.9837 92.6627 85.6872 88.3051 82.7352C85.8287 81.0505 83.3229 79.3511 81.2801 77.1609C79.8692 75.6447 77.8264 73.916 76.4155 72.3997C72.3959 68.0853 69.633 62.24 68.1045 56.5559C68.1045 54.2119 69.6844 53.5526 70.9483 53.0399C74.5123 51.5822 76.4008 54.1679 79.8692 55.8527C83.1466 57.4422 84.0284 58.3065 86.6591 61.1193C87.7173 62.2547 89.3853 64.6133 89.6646 66.1442C89.9879 67.9095 89.2825 69.7334 88.1802 71.1472C87.0779 72.5609 85.6009 73.6376 84.1533 74.6924" stroke="black" stroke-miterlimit="10"/>
<path d="M72.9395 39.2398C74.5781 40.2799 76.3344 41.1296 78.1641 41.7669C78.3478 41.8328 78.5462 41.8914 78.7226 41.8255C78.9063 41.7595 79.0239 41.5764 79.1121 41.4006C79.8469 39.9722 80.0086 38.2582 79.5677 36.7126" stroke="black" stroke-miterlimit="10"/>
<path d="M72.1533 41.32C72.2415 44.4331 75.6511 46.55 78.7742 46.616C81.8972 46.6819 88.7973 42.2943 91.8028 41.4372C92.2731 41.3054 94.1249 41.7522 94.5438 42.0232C97.1965 43.6933 100.812 42.1844 103.759 43.2465C104.038 43.349 104.332 43.4662 104.611 43.371C104.868 43.2831 105.03 43.0268 105.169 42.785C105.993 41.364 106.816 39.943 107.646 38.5219" stroke="black" stroke-miterlimit="10"/>
<path d="M74.4316 37.8993C78.4732 34.7129 87.8644 31.0871 92.9936 30.6403C97.0205 30.2887 101.047 29.9298 105.074 29.5782C106.346 29.4683 107.661 29.3584 108.851 29.8052C109.557 30.0689 110.181 30.5157 110.784 30.9699C114.017 33.4018 116.971 36.2219 119.551 39.335" stroke="black" stroke-miterlimit="10"/>
<path d="M117.265 50.6373C119.69 48.6816 121.733 46.2497 123.232 43.5175C123.585 42.8729 123.916 42.1697 123.886 41.4372C123.842 40.507 123.217 39.7159 122.659 38.9614C121.285 37.1155 120.139 35.1085 119.242 32.9916C118.375 30.9406 117.743 28.787 116.685 26.8386C112.842 19.7847 104.435 16.8547 96.9104 13.998C94.794 13.1922 92.6336 12.3206 90.9876 10.7677C89.3416 9.21481 88.3055 6.81955 88.9668 4.65869" stroke="black" stroke-miterlimit="10"/>
<path d="M91.4727 67.1185C93.3832 69.3306 93.8976 69.2793 96.7047 70.107C97.4028 70.3121 98.1303 70.4806 98.7475 70.8688C100.599 72.0555 100.673 74.6778 100.533 76.868C100.408 78.9483 100.276 81.0285 100.151 83.1161" stroke="black" stroke-miterlimit="10"/>
<path d="M102.539 71.7771C105.486 72.5243 108.521 71.0226 111.019 69.2866C113.01 67.9022 114.965 66.2102 115.693 63.9028C116.339 61.8372 115.898 59.5811 115.149 57.5447C113.319 52.5638 109.652 48.2714 105.008 45.671" stroke="black" stroke-miterlimit="10"/>
<path d="M123.725 65.7707L127.436 72.3924C128.347 74.0186 129.273 75.674 129.655 77.4906C129.949 78.875 129.927 80.3034 129.934 81.7171C129.949 86.9837 130.382 92.2503 131.22 97.4511" stroke="black" stroke-miterlimit="10"/>
<path d="M103.906 0.366272C100.709 0.666595 98.0787 3.83829 98.38 7.02464C98.6078 9.43455 100.269 11.5075 102.267 12.8773C104.266 14.247 106.595 15.0308 108.866 15.8805C112.283 17.1624 115.627 18.6274 118.882 20.2681" stroke="black" stroke-miterlimit="10"/>
<path d="M107.97 290.141C109.667 281.366 121.417 154.087 123.115 145.32C124.9 136.061 126.693 126.531 124.952 117.265" stroke="black" stroke-miterlimit="10"/>
<path d="M122.931 7.99154C121.336 7.41287 119.514 8.57754 118.86 10.1377C118.206 11.698 118.463 13.4852 118.933 15.1114C120.491 20.5025 124.386 25.1759 129.412 27.703C130.22 28.1058 131.109 28.4648 131.998 28.3109C132.645 28.2011 133.211 27.8348 133.755 27.4686" stroke="black" stroke-miterlimit="10"/>
<path d="M132.741 29.4097C133.586 32.8744 135.291 36.1266 137.65 38.8076C137.936 39.1372 138.245 39.4595 138.642 39.6499C139.075 39.8624 139.575 39.8843 140.06 39.899C142.573 39.9429 145.094 39.5987 147.497 38.8881" stroke="black" stroke-miterlimit="10"/>
<path d="M139.567 41.3932C140.905 44.543 142.242 47.6927 143.587 50.8424C144.094 52.0437 144.564 53.5673 143.682 54.5342" stroke="black" stroke-miterlimit="10"/>
<path d="M125.378 8.73138C129.574 15.2945 136.922 19.0083 143.477 23.2348C145.218 24.3555 146.931 25.5421 148.415 26.9705C152.126 30.5377 153.823 35.5993 156.226 40.1481C168.123 62.7235 163.78 90.8952 164.155 116.591" stroke="black" stroke-miterlimit="10"/>
<path d="M128.641 28.6845C129.008 31.9221 130.125 35.0645 131.881 37.8114C132.381 38.5878 132.939 39.3716 133.064 40.2799C133.153 40.9538 132.991 41.657 133.167 42.3162C133.615 44.001 135.813 44.3745 137.569 44.4258" stroke="black" stroke-miterlimit="10"/>
<path d="M129.545 43.3417C128.244 43.3124 126.943 42.9681 125.797 42.3602" stroke="black" stroke-miterlimit="10"/>
<path d="M120.506 25.1319C119.808 25.0879 119.102 25.293 118.544 25.7032" stroke="black" stroke-miterlimit="10"/>
<path d="M119.822 5.86729C115.149 5.50836 110.578 3.86025 106.757 1.15002" stroke="black" stroke-miterlimit="10"/>
<path d="M163.788 123.381C164.757 133.314 163.611 143.32 162.465 153.23C162.171 155.794 161.87 158.358 161.576 160.922C161.142 164.672 164.162 288.749 164.633 292.5" stroke="black" stroke-miterlimit="10"/>
<path d="M148.834 54.2412C149.936 55.2521 151.406 55.7355 152.824 56.197C155.132 56.9441 157.446 57.6913 159.754 58.4384" stroke="black" stroke-miterlimit="10"/>
<path d="M136.481 66.1808C140.104 73.4252 148.026 78.3183 156.146 78.3402" stroke="black" stroke-miterlimit="10"/>
<path d="M106.485 78.2231C105.956 83.4824 104.883 88.6904 103.296 93.73" stroke="black" stroke-miterlimit="10"/>
<path d="M137.216 106.695C137.091 101.531 136.973 96.3596 136.849 91.1955C136.702 85.1305 136.525 78.9043 134.174 73.308C131.822 67.7118 126.752 62.826 120.675 62.5037" stroke="black" stroke-miterlimit="10"/>
<path d="M140.868 93.7227C141.684 98.7622 142.639 103.904 145.196 108.329C147.754 112.753 152.236 116.393 157.351 116.598" stroke="black" stroke-miterlimit="10"/>
<path d="M91.0166 1.94116C93.2799 1.15006 95.8445 1.23064 98.0563 2.16823" stroke="black" stroke-miterlimit="10"/>
<path d="M1.59474 37.6869C1.12444 36.8884 1.9842 35.8629 2.90274 35.7091C3.82129 35.5553 4.73983 35.9069 5.66573 36.0021C6.59162 36.0973 7.72327 35.7897 7.98781 34.9034C9.19294 35.2257 10.5377 34.9986 11.5591 34.2808" stroke="black" stroke-miterlimit="10"/>
<path d="M44.5529 38.1996C44.0238 38.8442 43.4727 39.4448 43.0244 40.2139C45.0158 35.5479 50.5932 39.4082 53.4003 40.4557C55.4578 41.2248 57.3905 40.5143 59.4406 40.9757C62.1742 41.591 63.0854 42.2796 65.8778 42.2722" stroke="black" stroke-miterlimit="10"/>
<path d="M70.339 43.0414C72.492 46.6233 78.6353 47.8905 82.3903 48.4985C82.4197 48.916 82.3756 49.3189 82.3168 49.7364C82.0963 51.3039 82.9267 51.6482 82.5593 53.2597C76.8937 53.9995 72.5361 53.6039 66.7383 53.0253" stroke="black" stroke-miterlimit="10"/>
<path d="M61.601 52.5125C55.3476 52.2635 48.6091 50.7985 42.4732 49.6119C38.608 48.8647 35.3821 49.5533 31.4434 49.1724" stroke="black" stroke-miterlimit="10"/>
<path d="M27.5636 49.1064C20.5679 48.4032 13.4106 47.9857 6.72363 46.6965" stroke="black" stroke-miterlimit="10"/>
<path d="M3.6084 45.4146C-0.153957 43.4296 2.32244 40.6314 4.9605 40.0162C8.01742 39.2983 11.258 38.9687 14.3664 38.412" stroke="black" stroke-miterlimit="10"/>
<path d="M53.4443 43.2904C56.1485 45.0411 59.2348 45.2608 61.9978 46.8943C63.4087 47.7293 64.1656 47.3924 64.7682 49.2676C65.2237 50.6739 65.04 52.1902 63.9084 52.095" stroke="black" stroke-miterlimit="10"/>
<path d="M31.1941 42.0305C30.3711 42.5872 29.6142 43.3051 29.041 44.0815" stroke="black" stroke-miterlimit="10"/>
<path d="M40.7617 43.6347C41.6582 44.3013 43.363 45.1143 43.4586 45.8468" stroke="black" stroke-miterlimit="10"/>
<path d="M14.0131 41.9353C12.9991 46.2351 24.6168 44.9752 21.4938 38.478" stroke="black" stroke-miterlimit="10"/>
</g>
<defs>
<clipPath id="clip0_3565_9092">
<rect width="165" height="302" fill="white" transform="translate(0.5)"/>
</clipPath>
</defs>
</svg>
