<svg width="237" height="174" viewBox="0 0 237 174" fill="none" xmlns="http://www.w3.org/2000/svg">
<g clip-path="url(#clip0_3877_20523)">
<path d="M229.819 75.2712C227.435 56.1027 212.752 42.036 192.614 40.313C153.228 35.5545 146.787 100.451 170.444 120.544C181.144 129.636 209.203 135.655 219.007 123.684C230.043 110.207 231.926 92.202 229.819 75.2712ZM202.53 110.438C202.022 108.201 200.587 106.142 199.362 104.121C200.542 102.801 202.523 101.816 204.428 101.592C203.464 100.891 202.328 100.212 201.26 99.6978C193.944 105.791 185.269 101.682 177.842 97.8034V102.86C179.994 103.748 182.004 104.382 184.171 105.389C182.609 106.895 180.943 109.021 179.104 110.446C176.407 107.201 172.282 105.433 168.979 102.868C169.084 89.4424 164.085 77.0687 174.673 66.8579C177.423 64.2027 181.779 62.8602 185.433 61.1745C186.046 62.793 186.726 64.6129 187.331 66.2314C191.127 66.2314 195.14 65.851 198.727 66.8654C198.465 65.6124 196.829 62.0696 196.784 60.7867C200.931 62.89 205.654 63.8894 210.122 65.6049C215.719 75.6366 214.008 90.1062 215.188 101.615C211.512 105.001 206.946 108.298 202.53 110.46V110.438Z" fill="#3C4FF6"/>
<path d="M185.022 82.1484C180.068 82.2827 177.871 92.6426 182.915 93.9478C186.27 94.8205 187.593 91.039 187.84 88.5851C188.109 85.9001 187.451 84.3189 185.03 82.1484H185.022Z" fill="#3C4FF6"/>
<path d="M199.653 81.5879C196.216 83.6166 192.831 92.6713 199.093 93.1635C204.353 93.5812 204.63 82.729 199.653 81.5879Z" fill="#3C4FF6"/>
<path d="M57.5893 72.5336C57.4025 55.3939 51.2303 42.3191 33.1174 34.6293C15.52 34.0028 9.71404 51.8213 5.45481 66.6413C1.2703 81.2079 3.84825 101.1 11.5672 113.809C19.7643 127.302 40.1937 131.322 49.5715 116.8C57.4622 104.575 57.7462 86.8838 57.5893 72.541V72.5336ZM21.3036 100.332C19.7419 87.4954 22.9924 73.0781 22.9924 59.8988C25.1369 65.8135 29.5531 72.6977 32.273 78.4333C29.157 85.7799 24.9576 93.2161 21.3036 100.332ZM44.0868 99.4887C39.6258 93.8575 38.0342 84.3181 33.1174 78.4258C36.607 73.1228 44.6098 66.0969 45.7755 59.8914C45.7755 71.7952 44.0868 87.4805 44.0868 99.4813V99.4887Z" fill="#F0F2DA"/>
<path d="M17.9261 155.085C14.9596 156.293 18.1428 158.202 20.25 158.031C22.4768 157.852 23.5005 156.748 24.3598 154.727C26.1606 156.039 26.5492 158.53 27.1993 160.514C27.67 160.425 28.7236 159.948 29.1496 159.642C28.6415 158.195 28.7162 157.061 28.888 155.651C31.2418 159.724 35.4861 158.486 37.6755 155.547C37.9146 157.069 38.0491 158.545 38.2434 160.074C45.6709 159.545 50.1319 163.64 51.731 170.248C48.8093 173.731 41.9497 172.276 38.1761 171.508C30.9653 170.039 18.3969 176.14 12.434 170.248C14.3618 165.981 14.5935 159.47 17.9187 155.085H17.9261Z" fill="#3C4FF6"/>
<path d="M196.418 162.879C195.79 162.022 195.013 161.097 194.311 160.351C190.993 161.514 189.192 161.253 185.874 160.769C182.751 164.475 177.042 167.049 172.79 169.614C176.145 171.874 181.675 173.239 185.874 171.718C195.065 174.858 205.504 172.725 214.568 171.718C214.994 166.937 213.186 162.857 209.502 159.926C207.798 161.447 205.235 161.074 203.173 160.343C201.716 161.925 198.42 162.216 196.418 162.872V162.879Z" fill="#F7AF39"/>
<path d="M191.419 41.1478C177.759 39.3055 163.659 50.3292 158.219 67.1109C152.779 83.8926 156.433 105.105 166.82 117.061C173.948 125.265 183.453 128.994 192.838 130.121C200.079 130.993 207.686 130.344 214.075 125.72C219.956 121.469 224.357 114.092 226.942 105.88C230.888 93.365 230.708 78.5747 226.165 66.4247C221.622 54.2748 212.461 42.9528 197.12 41.7594" stroke="black" stroke-miterlimit="10"/>
<path d="M204.884 39.1049C214.038 38.5977 221.6 44.8704 227.039 52.6198C232.479 60.3692 235.909 73.7274 236.395 83.3265C237.134 98.0646 236.395 101.51 230.484 114.033C227.151 121.104 220.748 128.548 213.5 130.74" stroke="white" stroke-miterlimit="10"/>
<path d="M196.851 66.2313C194.281 65.8211 189.102 66.097 186.517 66.2313L185.411 62.5468C182.19 63.576 179.007 64.8141 175.787 65.8434C170.354 76.1586 167.455 89.1364 168.92 101.585C172.357 104.881 176.332 107.067 180.419 108.521C181.219 107.373 182.026 106.194 182.826 105.053C181.473 104.232 179.934 103.412 178.581 102.599L179.321 99.8991C186.696 104.307 195.387 104.68 202.956 100.891C203.449 101.219 203.935 101.532 204.428 101.861L201.29 103.83C202.089 105.635 202.881 107.44 203.688 109.237C207.402 106.753 211.101 104.464 214.815 101.98C215.196 89.6734 212.797 77.1207 208.217 66.4103C204.847 64.8664 201.372 63.7177 198.002 62.1738" stroke="white" stroke-miterlimit="10"/>
<path d="M184.014 82.0664C182.422 82.3871 181.002 83.8863 180.405 85.8777C179.807 87.8691 180.076 90.2633 181.07 91.9415C182.153 93.7688 184.186 94.6415 185.762 93.6346C186.465 93.1871 187.033 92.4188 187.458 91.5462C188.213 89.9874 188.52 88.0183 188.168 86.2283C187.817 84.4382 186.756 82.8794 185.411 82.3871" stroke="white" stroke-miterlimit="10"/>
<path d="M195.461 87.6812C195.783 86.0478 196.336 84.4293 197.285 83.3105C198.234 82.1917 199.646 81.6547 200.819 82.3036C201.596 82.7362 202.194 83.6238 202.62 84.5934C203.255 86.0478 203.561 87.7856 203.36 89.4414C203.158 91.0972 202.425 92.671 201.335 93.5138C200.244 94.3566 198.794 94.4088 197.725 93.5138C196.694 92.6486 196.126 91.0972 195.618 89.6279" stroke="white" stroke-miterlimit="10"/>
<path d="M32.4075 34.6596C41.7629 32.7651 51.4097 44.0871 55.1384 61.3163C58.8596 78.553 56.3638 100.332 49.2502 112.609C44.3707 121.037 37.8623 124.863 31.4361 126.019C26.482 126.914 21.2737 126.25 16.895 121.507C12.8674 117.143 9.85601 109.566 8.08507 101.137C5.38756 88.2864 5.50712 73.0934 8.61561 60.6227C11.7241 48.1446 15.3855 36.6137 28.9179 34.8982" stroke="black" stroke-miterlimit="10"/>
<path d="M25.7272 33.6602C22.5291 33.9063 16.2673 33.4961 13.3531 35.7336C10.4389 37.9637 8.74263 41.1485 7.33036 44.3035C0.254064 60.1454 0.186813 65.0158 0.448344 82.0585C0.687459 97.7587 0.911629 109.342 9.05647 122.35C10.4613 124.595 11.9408 126.258 17.1116 126.258" stroke="white" stroke-miterlimit="10"/>
<path d="M22.1031 60.6758C22.5291 73.3553 22.6636 86.1914 22.6636 99.3408C25.3611 91.7256 29.8744 87.616 32.9903 80.6721C31.3539 76.6296 26.6762 68.2984 24.0086 62.8164" stroke="black" stroke-miterlimit="10"/>
<path d="M33.5433 80.0091C36.7041 73.4233 41.3893 68.1203 44.707 62.0117C44.7892 73.6843 44.707 86.6323 44.707 98.6778C42.5624 93.9342 38.1388 86.1475 34.978 81.8216" stroke="black" stroke-miterlimit="10"/>
<path d="M33.5358 128.973C33.08 134.164 34.7389 139.355 34.7986 144.576C34.8435 148.499 34.7986 152.422 34.7986 156.345" stroke="white" stroke-miterlimit="10"/>
<path d="M30.1583 129.816C29.7623 134.03 32.0115 137.551 32.2655 141.608C32.5495 146.061 32.6765 150.253 32.684 154.668" stroke="white" stroke-miterlimit="10"/>
<path d="M21.2961 127.713C21.2961 137.707 21.4605 147.113 20.0333 156.354" stroke="white" stroke-miterlimit="10"/>
<path d="M24.2552 128.129C25.1444 136.669 23.3137 147.051 22.148 155.509" stroke="white" stroke-miterlimit="10"/>
<path d="M30.5843 155.511C30.106 155.735 29.7773 155.459 29.3812 156.018C31.07 159.814 39.977 159.576 37.3318 154.668" stroke="white" stroke-miterlimit="10"/>
<path d="M17.9261 154.668C10.2446 159.389 30.1359 159.949 24.2552 154.668" stroke="white" stroke-miterlimit="10"/>
<path d="M19.189 163.513C19.5925 159.261 28.5144 161.417 31.4286 162.036C35.8822 162.983 38.6768 165.579 38.1836 170.673C33.1846 172.888 20.3845 175.611 15.8189 171.516" stroke="black" stroke-miterlimit="10"/>
<path d="M37.7577 160.559C45.5962 159.634 51.7758 162.946 51.6861 171.09C48.5702 171.254 43.5263 172.992 40.7167 171.933" stroke="black" stroke-miterlimit="10"/>
<path d="M14.9671 159.299C14.1675 162.558 12.9122 165.721 13.2783 169.405" stroke="black" stroke-miterlimit="10"/>
<path d="M188.4 160.35C188.684 151.43 186.255 142.375 189.244 133.812" stroke="white" stroke-miterlimit="10"/>
<path d="M206.961 132.979C208.441 137.043 207.163 142.801 206.961 147.09C206.759 151.379 206.961 155.675 206.961 159.934" stroke="white" stroke-miterlimit="10"/>
<path d="M192.196 132.135C192.196 141.018 191.777 149.67 191.777 158.672" stroke="white" stroke-miterlimit="10"/>
<path d="M204.854 133.396C204.854 141.959 204.854 150.521 204.854 159.091" stroke="white" stroke-miterlimit="10"/>
<path d="M209.076 161.193C206.991 162.252 204.764 162.208 202.747 161.193C197.001 163.394 192.218 168.95 186.293 171.3C193.384 173.284 203.262 173.209 210.346 171.717" stroke="black" stroke-miterlimit="10"/>
<path d="M193.459 159.934C191.665 161.112 187.541 161.791 185.867 160.351C181.623 161.91 176.937 167.616 173.627 170.458C175.787 170.98 178.417 171.591 180.801 171.3" stroke="black" stroke-miterlimit="10"/>
<path d="M210.765 162.879C212.252 165.728 214.449 168.025 213.298 171.3" stroke="black" stroke-miterlimit="10"/>
</g>
<defs>
<clipPath id="clip0_3877_20523">
<rect width="237" height="174" fill="white"/>
</clipPath>
</defs>
</svg>
