<svg width="66" height="120" viewBox="0 0 66 120" fill="none" xmlns="http://www.w3.org/2000/svg">
<path d="M47.7884 48.6799C47.634 43.8878 46.9345 39.1415 45.9504 34.5229C47.1178 36.0705 48.7291 37.1263 50.051 38.5509C51.0834 39.6622 52.1543 40.7975 53.1698 41.9401C54.2746 43.1815 55.6157 44.4615 56.4527 45.903C56.8073 46.5153 57.3814 47.7471 57.3235 48.3401C55.2153 49.0343 52.7743 48.8173 50.5744 48.8173C49.8025 48.8173 48.5096 48.8439 47.7884 48.6824V48.6799Z" fill="#78DCE8"/>
<path d="M14.1443 48.7474C15.2009 45.4667 18.0447 42.967 20.0685 40.3154C21.2601 38.7558 22.594 37.1528 23.8821 35.7475C23.8266 38.5365 23.8121 41.3953 23.2356 44.1192C23.0668 44.9195 22.8231 45.6909 22.6905 46.4984C22.5988 47.0553 22.6012 47.8146 22.3841 48.2702C19.8466 48.8053 16.6988 48.7402 14.1443 48.7474Z" fill="#78DCE8"/>
<path d="M11.4203 59.0934C14.8286 59.0934 18.2321 58.9584 21.6356 58.9584C22.352 59.7105 23.1167 59.8238 24.1925 59.7081C24.892 59.6334 25.0825 59.1874 25.6542 58.9584C30.0129 57.2108 35.0204 58.6788 39.7168 58.686C41.7623 58.6884 44.1551 58.2642 46.1548 58.7535C46.7144 58.8909 46.6082 59.4357 47.2788 59.4357C47.7612 59.4357 48.275 59.2525 48.4029 58.7535C49.3026 58.4884 50.5521 58.6233 51.4952 58.5848C53.0269 58.5221 54.5055 58.4691 56.0324 58.6017C57.1661 58.6981 58.2974 58.686 59.4359 58.686C59.4359 60.2746 59.3949 61.8173 59.1778 63.3938C59.0282 64.4881 59.0765 65.7272 58.7243 66.783C58.2202 68.2992 56.8308 69.1887 55.8635 70.3963C55.1857 71.2424 54.8673 72.4067 54.1895 73.1829C52.9304 74.6268 52.9714 77.1241 52.2116 78.8766C51.9945 79.3755 51.4469 80.1059 51.1406 80.6844C50.1106 82.6249 49.4642 84.8113 48.468 86.7927C47.9277 87.8678 47.3898 88.9501 46.9315 90.0662C46.6975 90.6327 46.5407 91.2859 46.1548 91.7656C45.6482 92.3948 44.6786 92.7395 44.5869 93.6699C44.5025 94.5136 43.9983 95.0825 43.9742 95.9165C43.9115 98.004 44.6062 99.7734 45.3684 101.736C45.7182 102.635 45.9497 103.208 45.9497 104.151L45.5421 104.628C44.1575 105.175 42.5607 104.65 41.1834 105.036C41.0821 104.558 40.7034 104.144 40.5707 103.743C39.2079 103.743 37.8474 103.743 36.4846 103.743C36.5449 104.129 36.5883 104.527 36.6896 104.901C34.21 105.597 31.4963 105.672 28.925 105.308C28.9709 104.804 28.8889 104.132 29.0601 103.674C27.994 103.693 26.9447 104.013 25.8592 104.013C25.688 104.303 25.7555 104.749 25.6542 105.103C24.8992 105.149 24.1466 105.033 23.4013 104.949C23.0129 104.905 22.4099 104.985 22.1108 104.831C22.545 101.834 21.9878 98.2547 24.0188 95.7791C23.8355 94.6462 23.136 93.3493 22.668 92.3176C21.9347 90.6978 21.2569 89.1309 20.7624 87.4219C20.2028 85.491 19.513 83.8302 18.6494 82.0319C17.8558 80.3783 17.6219 78.3655 17.0888 76.6131C16.8307 75.7646 16.2783 74.9064 16.3217 74.0001C14.4017 71.0713 13.6588 67.3157 12.6095 64.0326C12.2597 62.9358 11.8183 61.851 11.4854 60.7615C11.3793 60.412 11.4203 59.4116 11.2129 59.3658L11.4179 59.0934H11.4203Z" fill="#78DCE8"/>
<path d="M43.1565 32.6862C39.5504 28.7932 37.9801 22.4005 37.9801 16.8948C30.0828 17.765 34.7599 8.66773 38.7978 10.6323C38.7013 9.53069 38.4794 8.593 37.9801 7.63843C35.5173 7.95903 34.1038 7.49139 31.986 6.27649C30.8812 7.98073 26.0329 8.09161 25.4467 10.3599C24.2407 15.0243 26.0015 19.732 26.2741 24.3795C26.4622 27.5807 27.1617 31.8835 25.1742 34.3157C26.6287 37.7073 24.9016 44.7942 24.9016 48.7451C28.8816 47.4844 34.579 48.8294 38.764 49.0319C40.9301 49.1356 42.9249 48.921 45.0596 49.0175C46.6758 45.3535 46.0341 35.7933 43.1517 32.6838L43.1565 32.6862ZM30.3289 13.4695C28.7127 13.5418 28.8864 9.5548 30.4881 10.4997V10.6347C31.079 11.529 30.6328 12.5993 30.3289 13.4695Z" fill="#78DCE8"/>
<path d="M43.4296 17.712C43.5671 14.0191 39.4376 12.944 36.4828 13.0838C34.9462 13.1561 33.2409 13.6334 34.1261 15.5329C35.0114 17.4324 37.0231 17.172 38.6609 16.9237C40.2987 16.6755 41.91 16.485 43.4272 17.7096L43.4296 17.712Z" fill="#F9FF73"/>
<path d="M25.5874 104.218C25.5874 107.367 25.3438 110.498 25.3824 113.61C21.7739 113.636 16.9304 113.791 13.592 114.989C14.4507 115.461 14.1878 116.247 13.3267 116.671C15.471 118.38 20.5365 117.298 22.7243 117.283C23.1753 116.319 24.1257 115.866 25.146 115.931C25.3414 116.989 24.6178 117.802 23.952 118.51C25.4186 117.621 27.5413 118.014 28.6508 116.469C32.2497 116.469 35.9475 116.625 39.4788 117.081C40.8127 117.255 42.3348 117.233 43.5649 117.488C43.4805 116.069 42.2552 115.731 41.1142 115.242C42.5253 114.258 44.4647 114.846 44.7927 116.466C47.2096 116.042 50.0752 116.563 52.3523 115.854C51.3223 115.767 50.6783 114.974 50.5142 114.017C48.3868 113.93 40.1204 115.606 39.4885 112.995C39.2087 111.84 39.7417 109.604 39.6766 108.299C39.6018 106.827 39.8985 105.448 39.8913 104.011C38.5984 104.011 37.3031 104.011 36.0102 104.011C36.5047 106.169 38.0195 110.881 37.0353 113.205C36.2562 115.046 33.0915 115.329 31.3114 114.88C26.3714 113.636 28.7521 108.179 28.6557 104.421C27.6908 104.378 26.5692 104.134 25.5899 104.216L25.5874 104.218Z" fill="#F9FF73"/>
<path d="M38.5259 4.91695C39.2665 5.61118 40.4749 6.15113 41.5218 6.55128C37.935 7.91805 35.2768 8.40015 31.7141 6.55128C29.7868 7.91323 25.6308 7.76136 25.4475 10.9071C24.5284 9.25348 24.8034 7.25997 24.3572 5.46172C27.6111 2.61731 30.8023 0.761206 35.2575 0.833522" stroke="#F0F2DA" stroke-width="0.5" stroke-miterlimit="10"/>
<path d="M29.7194 10.4973C28.8848 11.3072 29.1695 12.5993 30.2863 13.1706C30.87 12.7367 31.0678 12.0666 30.899 11.3121" stroke="#06080F" stroke-width="0.5" stroke-miterlimit="10"/>
<path d="M37.4382 4.98449C36.606 4.11911 36.5288 2.21962 36.2128 1.10596" stroke="#F0F2DA" stroke-width="0.5" stroke-miterlimit="10"/>
<path d="M25.7894 11.5193C25.7894 19.1052 28.2643 26.9563 26.4021 34.183" stroke="#06080F" stroke-width="0.5" stroke-miterlimit="10"/>
<path d="M38.4585 18.4617C38.6008 23.0682 39.9468 29.5043 43.3623 32.9586" stroke="#06080F" stroke-width="0.5" stroke-miterlimit="10"/>
<path d="M34.3717 14.1733C32.7314 10.8372 40.8193 9.67048 40.9109 12.7439" stroke="#F0F2DA" stroke-width="0.5" stroke-miterlimit="10"/>
<path d="M36.0076 13.5611C37.6695 12.7222 39.5655 12.8837 41.155 13.7154C43.1957 14.7832 43.1595 16.4875 43.5672 18.4617C43.3814 16.0897 37.9083 16.8997 36.4152 17.2371" stroke="#06080F" stroke-width="0.5" stroke-miterlimit="10"/>
<path d="M38.8679 10.4973C38.8341 9.65848 38.5326 8.86301 38.0502 8.25073" stroke="#F0F2DA" stroke-width="0.5" stroke-miterlimit="10"/>
<path d="M25.3822 33.5708C23.3994 35.9235 23.4838 40.5951 23.3391 43.5817C23.1582 47.359 23.11 51.1339 22.9218 54.9087C22.8688 55.9573 22.7771 59.9347 23.5417 59.5032" stroke="#F0F2DA" stroke-width="0.5" stroke-miterlimit="10"/>
<path d="M43.1572 31.5292C45.8394 37.7989 45.726 46.1393 46.4183 53.0889C46.5944 54.8534 47.0913 57.3989 46.3797 59.0694C46.1868 58.9826 46.0179 58.8066 45.8129 58.6861" stroke="#F0F2DA" stroke-width="0.5" stroke-miterlimit="10"/>
<path d="M25.1774 59.5033C24.1619 55.8851 24.5647 50.8302 24.5647 47.0433C24.5647 42.9791 24.3838 39.0813 24.7697 35.2052" stroke="#F0F2DA" stroke-width="0.5" stroke-miterlimit="10"/>
<path d="M44.18 32.3463C46.1049 34.6604 46.3099 39.1874 46.6307 42.0463C47.0528 45.7922 47.0504 49.4827 47.6076 53.1732C47.7885 54.3688 48.3891 58.2835 47.4484 58.6861" stroke="#F0F2DA" stroke-width="0.5" stroke-miterlimit="10"/>
<path d="M14.3495 48.2726C15.8595 46.5081 17.1211 44.5507 18.6359 42.7597C19.866 41.3038 21.762 39.7731 22.7268 38.2689" stroke="#06080F" stroke-width="0.5" stroke-miterlimit="10"/>
<path d="M46.6309 35.2052C48.3146 37.3096 50.5892 38.9632 52.2511 41.1351C53.9058 43.2949 56.3011 45.2643 56.8462 47.8653" stroke="#06080F" stroke-width="0.5" stroke-miterlimit="10"/>
<path d="M25.3822 48.475C28.8629 48.475 32.2809 48.6799 35.7881 48.6799H40.7015C41.4517 48.6799 42.2019 48.6799 42.9545 48.6799C43.3428 48.6799 45.3569 48.7474 44.3848 48.6799" stroke="#F0F2DA" stroke-width="0.5" stroke-miterlimit="10"/>
<path d="M21.9087 48.475C15.6927 49.5983 8.5408 47.7205 2.29342 49.4971C0.252771 51.6834 0.973993 56.76 2.08839 59.2983C8.12591 58.2328 14.8412 58.8909 21.091 58.8909" stroke="#F0F2DA" stroke-width="0.5" stroke-miterlimit="10"/>
<path d="M25.5874 58.686C32.2859 58.686 38.7383 58.686 45.4054 58.686" stroke="#F0F2DA" stroke-width="0.5" stroke-miterlimit="10"/>
<path d="M48.4713 58.2763C53.4016 58.5896 58.7662 57.8689 63.7954 57.8689C65.3874 54.8437 65.2717 50.618 64.2031 47.6603C58.9037 48.14 52.8396 49.3115 47.4485 48.6824" stroke="#F0F2DA" stroke-width="0.5" stroke-miterlimit="10"/>
<path d="M11.283 59.7057C12.2527 61.9668 11.6063 65.4042 12.5349 67.957C13.4178 70.3868 14.6528 72.8865 15.5742 75.2223" stroke="#06080F" stroke-width="0.5" stroke-miterlimit="10"/>
<path d="M53.5773 74.8173C56.0425 69.9722 61.4818 64.9872 59.2989 59.0959" stroke="#06080F" stroke-width="0.5" stroke-miterlimit="10"/>
<path d="M17.0051 60.5229C17.0051 65.7248 16.3152 70.5675 17.3693 75.632C18.4234 80.6965 20.5919 86.1853 22.5723 91.3511C23.7035 94.3015 25.0953 97.8571 25.3824 100.952" stroke="#06080F" stroke-width="0.5" stroke-miterlimit="10"/>
<path d="M25.177 103.606C26.1708 104.05 28.0691 104.257 29.0581 103.606C29.087 101.085 29.4609 98.6212 29.4657 96.0516C29.473 93.7206 28.7517 92.0308 28.0353 89.9265" stroke="#06080F" stroke-width="0.5" stroke-miterlimit="10"/>
<path d="M30.6933 96.2565C35.8432 96.2565 38.6219 96.0661 41.5213 91.7633" stroke="#06080F" stroke-width="0.5" stroke-miterlimit="10"/>
<path d="M36.0076 97.481C36.6902 99.3203 36.6203 101.352 36.6203 103.401C37.8456 103.609 39.6764 103.941 40.2987 103.196C43.8228 98.9828 43.1595 92.6696 47.9644 87.9498C47.9644 87.9498 49.8386 84.6715 50.3211 82.8829C51.0085 80.3302 51.5995 77.6376 52.0481 75.0246C52.8683 70.2421 52.5595 65.18 52.5595 60.3156" stroke="#06080F" stroke-width="0.5" stroke-miterlimit="10"/>
<path d="M25.7895 105.036C26.2285 104.987 26.7037 105.036 27.1475 105.026C26.6193 105.279 26.1441 105.73 25.6472 106.022C26.3491 106.219 27.051 106.381 27.7722 106.46C27.0631 106.612 26.3346 106.868 25.8016 107.241C26.4649 107.352 27.1282 107.502 27.7771 107.685C27.2006 107.897 26.641 108.162 26.0572 108.307C26.4166 108.292 26.8219 108.365 27.1596 108.343C26.6048 108.507 26.0596 108.82 25.4566 108.909C25.9342 109.131 26.2574 109.666 26.5951 109.895C26.3274 109.987 26.0669 110.107 25.8088 110.197C26.2381 110.298 26.7519 110.575 27.3646 110.539C25.4397 110.777 26.0572 111.754 25.9969 113.205" stroke="#06080F" stroke-width="0.5" stroke-miterlimit="10"/>
<path d="M28.6293 112.544C28.5593 109.992 28.7306 107.376 28.7209 104.831" stroke="#06080F" stroke-width="0.5" stroke-miterlimit="10"/>
<path d="M37.7104 104.558C38.2869 104.92 39.0274 104.845 39.6811 104.917C39.2517 105.105 38.7838 105.209 38.3786 105.443C38.9333 105.756 39.7872 105.754 40.4096 105.891C39.6425 106.371 38.6198 106.61 37.9661 106.827C38.4967 106.771 39.0395 106.865 39.4954 107.101C39.0322 107.258 38.3665 107.357 38.1084 107.762C38.3858 107.822 38.7428 107.892 38.9792 107.981C38.627 108.145 38.2362 108.285 37.9178 108.459C38.2507 108.659 38.6969 108.719 38.9719 108.986C38.5112 109.138 38.0409 109.358 37.5536 109.37C38.3062 109.379 39.0419 109.644 39.792 109.664C39.2927 109.931 38.4726 109.98 38.0794 110.438C38.4413 110.782 38.8972 110.91 39.3362 111.12C38.861 111.346 38.1253 111.575 38.8899 112.094" stroke="#06080F" stroke-width="0.5" stroke-miterlimit="10"/>
<path d="M36.8922 112.908C37.5676 110.16 36.4532 107.104 36.8005 104.378" stroke="#06080F" stroke-width="0.5" stroke-miterlimit="10"/>
<path d="M13.5527 115.247C12.4624 115.606 11.9052 116.389 11.4638 117.353C12.214 117.028 13.0606 115.943 13.9145 116.083" stroke="#F0F2DA" stroke-width="0.5" stroke-miterlimit="10"/>
<path d="M13.1916 116.811C13.6306 117.578 16.7133 117.175 17.5889 117.175C19.0507 117.175 20.4593 117.267 21.9114 117.267" stroke="#06080F" stroke-width="0.5" stroke-miterlimit="10"/>
<path d="M24.3594 116.355C22.9435 116.206 22.7843 118.267 22.8157 119.168C23.4235 118.761 23.8842 117.934 24.5379 117.532C24.9793 117.259 26.3542 117.168 25.9032 116.355" stroke="#F0F2DA" stroke-width="0.5" stroke-miterlimit="10"/>
<path d="M27.8108 116.175C26.9811 117.201 25.763 118.416 24.4508 118.534" stroke="#06080F" stroke-width="0.5" stroke-miterlimit="10"/>
<path d="M22.0892 116.9C22.5499 116.124 24.0672 115.403 24.9958 115.449" stroke="#06080F" stroke-width="0.5" stroke-miterlimit="10"/>
<path d="M28.3562 113.453C29.0123 114.584 29.4344 114.875 30.8986 114.723" stroke="#06080F" stroke-width="0.5" stroke-miterlimit="10"/>
<path d="M28.1754 116.628C28.9015 116.939 30.3777 116.705 31.1713 116.719" stroke="#06080F" stroke-width="0.5" stroke-miterlimit="10"/>
<path d="M50.514 114.02C52.2965 114.008 51.9395 113.969 53.4664 114.858C54.0477 115.196 54.7087 115.919 54.6918 116.628C53.9995 115.21 52.1735 115.941 51.1508 115.266" stroke="#F0F2DA" stroke-width="0.5" stroke-miterlimit="10"/>
<path d="M43.0673 116.083C43.9019 116.266 44.5942 117.575 44.7027 118.351C44.4567 117.44 45.079 116.596 44.4519 115.789C43.8247 114.981 42.6741 114.827 41.7961 115.177" stroke="#F0F2DA" stroke-width="0.5" stroke-miterlimit="10"/>
<path d="M52.5116 116.083C51.7204 116.637 49.7593 116.264 48.7897 116.264C47.6897 116.264 46.3317 116.018 45.3379 116.264" stroke="#06080F" stroke-width="0.5" stroke-miterlimit="10"/>
<path d="M36.8014 113.815C36.442 115.259 34.4376 114.813 33.0771 114.813C32.4741 114.813 30.8242 115.097 30.8966 115.902" stroke="#06080F" stroke-width="0.5" stroke-miterlimit="10"/>
<path d="M32.351 116.447C33.0505 117.151 34.7438 116.758 35.6532 116.712C36.7868 116.657 37.9085 116.719 39.0687 116.719" stroke="#06080F" stroke-width="0.5" stroke-miterlimit="10"/>
<path d="M38.9816 115.721C39.6232 116.447 39.862 116.613 40.8438 116.717C41.6663 116.801 42.5033 117.192 43.3403 117.083" stroke="#06080F" stroke-width="0.5" stroke-miterlimit="10"/>
<path d="M40.5255 114.813C40.7185 114.892 41.0562 114.928 41.1623 114.904" stroke="#06080F" stroke-width="0.5" stroke-miterlimit="10"/>
<path d="M43.8856 96.3915C44.2498 97.7341 44.192 99.1877 44.5441 100.579C44.8963 101.969 45.7574 103.459 45.8828 104.831C44.5224 105.274 42.8219 104.816 41.4325 105.195" stroke="#06080F" stroke-width="0.5" stroke-miterlimit="10"/>
<path d="M35.9838 105.195C34.8501 105.742 32.5586 105.281 31.2488 105.286C30.7085 105.286 30.1682 105.286 29.6279 105.286" stroke="#06080F" stroke-width="0.5" stroke-miterlimit="10"/>
<path d="M24.9959 105.014C23.9948 105.014 22.9769 104.734 22 104.833C21.8722 103.476 22.4462 101.88 22.8394 100.588C23.1988 99.4142 23.3821 98.2692 23.8163 97.1194" stroke="#06080F" stroke-width="0.5" stroke-miterlimit="10"/>
<path d="M29.3546 91.8549C29.07 90.8184 28.7275 89.7288 28.5369 88.6779" stroke="#06080F" stroke-width="0.5" stroke-miterlimit="10"/>
<path d="M38.7094 93.67C39.4644 92.4262 40.1446 91.0185 40.4341 89.5866" stroke="#06080F" stroke-width="0.5" stroke-miterlimit="10"/>
<path d="M50.4218 48.0219C50.3157 46.2454 49.457 44.6327 49.2423 42.9406" stroke="#06080F" stroke-width="0.5" stroke-miterlimit="10"/>
<path d="M50.3333 42.8489C50.9025 44.4157 50.7337 46.3755 51.5128 47.8411" stroke="#06080F" stroke-width="0.5" stroke-miterlimit="10"/>
<path d="M21.0014 47.9327C21.3174 46.672 21.3319 45.3511 22.0917 44.2109" stroke="#06080F" stroke-width="0.5" stroke-miterlimit="10"/>
<path d="M32.0781 11.0879C31.4775 10.6709 30.8745 10.2876 30.1702 10.09" stroke="#06080F" stroke-width="0.5" stroke-miterlimit="10"/>
<path d="M27.8107 11.541C27.9941 11.4157 28.7563 10.5045 28.86 10.2827" stroke="#06080F" stroke-width="0.5" stroke-miterlimit="10"/>
<path d="M29.3546 13.3562C30.153 13.4623 30.7295 13.4623 31.5352 13.1754" stroke="#06080F" stroke-width="0.5" stroke-miterlimit="10"/>
<path d="M45.2454 48.7475C45.6507 50.0419 45.6097 51.833 45.6097 53.2841C45.6097 54.8847 45.8822 56.3913 45.8822 58.0039" stroke="#F0F2DA" stroke-width="0.5" stroke-miterlimit="10"/>
<path d="M23.9978 58.6402C24.0315 56.936 23.6335 55.2173 23.6335 53.4672C23.6335 52.0282 23.2114 49.8153 23.7252 48.5667" stroke="#F0F2DA" stroke-width="0.5" stroke-miterlimit="10"/>
<path d="M22.2728 48.5667C22.0026 50.4203 21.4695 52.315 21.6625 54.2892C21.7518 55.1956 21.7397 56.1044 21.8193 57.0083C21.8989 57.9122 22.2076 58.727 22.1835 59.549" stroke="#F0F2DA" stroke-width="0.5" stroke-miterlimit="10"/>
<path d="M15.8258 60.9086C16.2841 61.9475 15.7824 64.0374 15.7342 65.2282C15.6883 66.3274 15.6425 67.417 15.6425 68.533" stroke="#06080F" stroke-width="0.5" stroke-miterlimit="10"/>
<path d="M14.5545 60.8169C14.5545 64.5845 13.5197 69.4827 16.0066 72.614" stroke="#06080F" stroke-width="0.5" stroke-miterlimit="10"/>
<path d="M53.9637 59.0934C53.9637 61.7016 53.6911 64.2255 53.6911 66.8071" stroke="#06080F" stroke-width="0.5" stroke-miterlimit="10"/>
<path d="M55.6908 59.0043C56.2359 60.0336 55.7824 62.2151 55.7824 63.4469C55.7824 64.5774 55.7655 65.6043 55.5147 66.7059C55.1143 68.4607 54.3472 70.8881 53.3317 72.3441" stroke="#06080F" stroke-width="0.5" stroke-miterlimit="10"/>
<path d="M28.3109 86.7277C29.6183 83.9001 28.0432 82.4707 27.2206 79.9203" stroke="#06080F" stroke-width="0.5" stroke-miterlimit="10"/>
<path d="M41.1135 90.4013C42.2592 88.0077 41.5211 85.25 41.5211 82.6418" stroke="#06080F" stroke-width="0.5" stroke-miterlimit="10"/>
<path d="M19.7283 61.2726C19.627 62.9889 20.8524 65.7441 20.0009 67.2627" stroke="#06080F" stroke-width="0.5" stroke-miterlimit="10"/>
<path d="M39.0709 62.0897C39.0709 64.358 39.0709 66.6263 39.0709 68.897" stroke="#06080F" stroke-width="0.5" stroke-miterlimit="10"/>
<path d="M50.2416 59.9106C50.0945 62.056 50.7361 64.1556 50.5142 66.3082C50.3477 67.9305 49.6579 69.437 49.448 70.9605C49.0211 74.0484 49.1248 77.1435 48.6086 80.0578" stroke="#06080F" stroke-width="0.5" stroke-miterlimit="10"/>
<path d="M18.3677 67.8051C19.8849 73.2793 18.182 78.4909 21.091 83.5964" stroke="#06080F" stroke-width="0.5" stroke-miterlimit="10"/>
<path d="M39.3431 28.6027C39.6181 29.9502 40.2718 31.2181 40.9785 32.4138" stroke="#06080F" stroke-width="0.5" stroke-miterlimit="10"/>
<path d="M28.1752 30.7795C28.3923 33.4889 26.9788 35.8512 26.8123 38.4016" stroke="#06080F" stroke-width="0.5" stroke-miterlimit="10"/>
<path d="M37.7107 17.712C37.7107 17.712 36.7459 18.5244 36.3479 18.8016" stroke="#06080F" stroke-width="0.5" stroke-miterlimit="10"/>
<path d="M48.6065 40.5806C48.8574 41.1085 49.0407 41.6557 49.1516 42.2149" stroke="#06080F" stroke-width="0.5" stroke-miterlimit="10"/>
<path d="M51.6039 43.8492V44.1216" stroke="#06080F" stroke-width="0.5" stroke-miterlimit="10"/>
<path d="M22.1814 42.215C21.9884 42.456 21.8943 42.7164 21.9088 43.0321" stroke="#06080F" stroke-width="0.5" stroke-miterlimit="10"/>
<path d="M32.5339 6.00651C33.846 5.65457 34.5986 4.90249 36.0748 5.05435" stroke="#F0F2DA" stroke-width="0.5" stroke-miterlimit="10"/>
<path d="M25.4496 7.09365C25.3627 6.55128 25.2614 6.00168 25.177 5.45931C26.8293 3.84185 29.5381 2.8897 31.5787 2.19305" stroke="#F0F2DA" stroke-width="0.5" stroke-miterlimit="10"/>
<path d="M26.1318 10.4973C26.2042 11.4953 26.4044 12.6523 26.4044 13.4912" stroke="#06080F" stroke-width="0.5" stroke-miterlimit="10"/>
</svg>
