<svg width="230" height="104" viewBox="0 0 230 104" fill="none" xmlns="http://www.w3.org/2000/svg">
<path d="M50.7601 71.3741C51.3524 71.4024 51.9761 71.4402 52.4744 71.7675C52.9727 72.0949 53.261 72.8157 52.9194 73.3068C52.7188 73.5995 52.3584 73.7285 52.02 73.8293C49.5849 74.5469 46.9994 74.5123 44.464 74.4714C41.609 74.4242 38.7539 74.3801 35.8989 74.3329C33.8618 74.3014 29.7626 74.6067 28.1016 73.1525C25.5756 70.9429 30.5774 70.8201 31.6712 70.8295C38.0363 70.8925 44.4013 71.0751 50.757 71.3709L50.7601 71.3741Z" fill="#F9FF73"/>
<path d="M82.761 45.4847C90.9657 46.7753 99.3835 46.6745 107.554 45.1857C107.883 44.7828 107.685 44.1312 107.281 43.807C106.877 43.4828 106.335 43.3915 105.821 43.3191C99.8661 42.4598 93.7737 41.7075 87.7503 41.632C85.9357 41.61 84.2559 41.9121 82.4915 42.3213C81.3445 42.5857 79.3575 42.5007 79.8621 43.9896C80.2288 45.0692 81.8208 45.3399 82.7579 45.4879L82.761 45.4847Z" fill="#F4EE77"/>
<path d="M149.101 6.58235C148.624 6.61067 148.082 6.67048 147.803 7.05764C147.483 7.50146 147.703 8.16562 148.129 8.50871C148.555 8.85181 149.119 8.94939 149.658 9.03123C156.766 10.1077 163.993 10.1046 171.179 9.93146C172.69 9.89683 174.392 9.76463 175.363 8.6C175.47 8.47409 175.567 8.3293 175.589 8.16562C175.664 7.61793 174.956 7.34723 174.41 7.27483C170.013 6.70196 165.591 6.29276 161.163 6.05354C157.095 5.8332 153.175 6.34942 149.101 6.5792V6.58235Z" fill="#F3EE79"/>
<path d="M25.6511 72.06L25.8454 77.5936C25.2593 78.0248 24.7172 78.5505 24.1812 79.0415C24.0653 79.1485 23.9462 79.265 23.8961 79.4161C23.8146 79.6711 23.9493 79.9355 23.9932 80.1999C24.0716 80.694 23.8146 81.1756 23.7519 81.6698C23.6077 82.7558 24.5573 83.8543 25.6479 83.8606C25.8328 85.6516 25.3721 87.5559 25.1684 89.347C34.5954 92.0949 44.74 92.0508 54.1575 89.2651C54.2641 87.238 54.3769 85.1543 54.38 83.124C53.8692 82.6676 53.1515 82.3308 52.4871 82.1609C52.4307 81.5628 52.3963 80.9553 52.3398 80.3572C52.9917 80.0047 53.6342 79.6112 54.286 79.2587C54.0698 77.1498 54.0228 74.874 54.1074 72.7556C51.033 74.4869 47.3788 74.7576 43.8531 74.8079C41.0388 74.8488 38.2214 74.7953 35.4102 74.6505C31.8657 74.468 28.6158 74.0179 25.6511 72.0537V72.06Z" fill="#F7AF39"/>
<path d="M79.7493 44.4206C79.7493 46.8632 79.7493 49.3058 79.7493 51.7484C78.9251 51.7452 78.2732 52.7399 78.1635 53.5583C78.0538 54.3767 78.4832 55.2108 79.1319 55.7207C79.088 57.2127 79.1476 58.881 79.1037 60.373C79.1006 60.4926 79.0974 60.6122 79.1382 60.7224C79.2917 61.1253 79.8652 61.0969 80.2821 60.9962C80.4106 62.0633 80.5359 63.1303 80.6644 64.1974C80.2977 64.3359 79.9749 64.4744 79.6083 64.6129C79.7305 66.7785 79.884 69.0763 80.0031 71.2418C80.3573 71.7455 80.9245 72.1012 81.5262 72.2271C81.3413 72.9007 81.7519 73.612 81.5827 74.2919C81.5325 74.4965 81.4322 74.6822 81.3758 74.8837C81.2881 75.1827 81.2943 75.4975 81.2975 75.8091C81.3163 76.8636 81.3319 77.918 81.3507 78.9694C81.6735 79.2432 82.0277 79.5422 82.3505 79.8129C82.2439 80.5023 82.3254 81.1948 82.2157 81.8841C81.9274 81.8432 81.6422 82.0918 81.5106 82.3531C81.3789 82.6143 81.3601 82.9165 81.3445 83.2093C81.2411 85.2552 81.2128 87.3044 81.2567 89.3503C82.7642 90.323 84.5693 90.5748 86.3525 90.7164C94.1467 91.3365 102.129 91.9409 109.66 89.8414C109.653 88.7366 109.55 87.424 109.544 86.316C109.541 85.4787 109.143 84.6635 109.187 83.8293C109.92 83.7727 111.07 83.3383 111.803 83.2817C111.618 81.903 111.493 80.5149 111.308 79.1362C111.267 78.8277 111.18 78.4594 110.885 78.3556C110.744 78.3083 110.591 78.3367 110.44 78.3272C109.914 78.2989 109.509 77.8016 109.406 77.2822C109.302 76.7628 109.431 76.2309 109.559 75.7178C109.657 75.3244 110.171 74.9404 110.562 74.8333C110.719 73.5459 110.835 72.2617 110.801 70.968C110.352 70.4486 109.885 70.1244 109.321 69.7341C109.321 68.7206 109.19 67.5591 109.19 66.5455C109.653 66.1206 109.895 65.4627 110.152 64.8867C110.638 63.7913 110.042 62.3497 110.13 61.1536C109.744 60.7538 109.193 60.4139 108.641 60.4643C108.566 58.6669 108.365 56.8696 108.29 55.0692C108.923 54.9244 109.509 54.8709 110.155 54.9433C110.801 53.0673 109.456 50.7191 107.544 50.2249C107.218 48.5472 107.062 46.8129 107.284 45.1163C101.7 45.686 96.1023 46.5547 90.4894 46.6271C86.8414 46.6744 82.6012 46.6869 79.7399 44.4175L79.7493 44.4206Z" fill="#F6AF38"/>
<path d="M147.408 8.20996C147.408 10.0986 147.408 11.9872 147.408 13.8789C145.641 14.4329 144.635 16.8597 145.365 18.5689C145.829 18.8176 146.33 18.9624 146.853 19.019C146.753 21.1846 146.628 23.3219 146.528 25.4875C146.421 27.7884 146.528 30.2373 146.54 32.5414C147.01 33.2307 148.088 34.1215 148.912 34.2285C148.834 34.6912 148.881 35.1445 149.019 35.5946C148.79 35.8244 148.602 36.051 148.37 36.2808C148.248 37.4769 148.17 38.6699 148.242 39.8691C148.615 40.1367 148.956 40.2909 149.329 40.5616C149.179 41.7577 149.329 42.8216 149.182 44.0178C149.724 44.5277 150.407 45.0376 151.128 45.2265C151.128 46.6996 151.119 48.2136 151.119 49.6867C149.743 50.6908 149.072 52.5857 149.433 54.2571C149.815 54.2571 150.232 54.4806 150.567 54.6663C150.464 56.4636 150.62 58.2578 150.517 60.0519C149.646 60.8672 149.539 62.2648 149.489 63.4609C149.467 63.996 149.489 64.5468 149.693 65.041C149.897 65.5352 150.323 65.9664 150.849 66.0482C150.849 67.8928 150.699 69.8223 150.699 71.6668C151.579 72.1736 152.576 72.6111 153.588 72.652C153.588 73.3886 153.588 74.1094 153.588 74.846C153.444 74.9876 153.228 75.0474 153.043 74.9719C152.573 76.4827 152.144 78.2423 152.206 79.8224C152.711 79.8224 153.081 79.8224 153.585 79.8224C153.529 80.3292 153.635 80.836 153.579 81.3427C153.118 81.4781 152.664 81.8778 152.203 82.01C152.103 84.4085 152.363 86.8354 152.676 89.215C160.076 90.9462 167.625 91.8087 175.2 91.2075C177.171 91.0501 179.224 90.7826 180.857 89.6651C180.562 87.6034 180.368 85.5039 180.418 83.4233C181.246 83.3572 182.352 83.2408 183.179 83.1747C183.217 82.1485 183.33 80.9556 183.264 79.9294C183.242 79.6178 183.214 79.2905 183.048 79.026C182.737 78.5287 182.079 78.4123 181.571 78.1195C180.638 77.5844 180.218 76.2939 180.659 75.3087C181.195 75.2363 181.759 75.0096 182.226 74.7326C182.273 73.7632 182.267 72.7748 182.233 71.8053C182.223 71.5031 182.205 71.1884 182.076 70.9145C181.747 70.2094 180.848 70.008 180.293 69.4635C180.346 68.1288 180.409 66.9264 180.462 65.5918C180.036 65.0064 179.349 64.5909 178.638 64.4839C178.638 63.6088 178.5 62.5953 178.5 61.7202C178.883 61.5282 179.312 61.4275 179.738 61.4401C179.744 59.3217 179.889 57.2033 179.895 55.0849C180.506 54.5026 180.916 53.7314 181.383 53.0264C181.487 52.8721 181.59 52.699 181.571 52.5164C181.546 52.2552 181.296 52.0821 181.067 51.953C180.55 51.6666 180.014 51.4242 179.459 51.2259C179.741 49.0257 179.851 46.7908 179.732 44.578C178.883 43.8541 178.867 42.3715 178.788 41.2573C178.71 40.143 178.497 38.8713 177.551 38.2796C177.265 38.1002 176.927 37.9994 176.673 37.7759C176.419 37.5525 176.272 37.137 176.488 36.8789C177.033 36.2241 177.544 35.6702 177.964 34.9305C178.384 34.1908 178.55 33.2716 178.271 32.4658C177.892 31.361 176.635 30.637 175.495 30.8668C175.633 27.8388 175.808 24.6817 175.946 21.6536C175.968 21.2035 175.987 20.7502 175.905 20.3096C175.752 19.4817 175.228 18.7326 174.504 18.3045C174.348 17.7159 174.37 17.1273 174.376 16.5166C174.83 16.0508 175.134 15.4338 175.642 15.0246C175.855 13.0951 175.846 11.1184 175.636 9.18888C166.485 11.6787 156.437 11.1121 147.405 8.21626L147.408 8.20996Z" fill="#F6AF38"/>
<path d="M26.3247 71.9464C26.8983 73.1677 28.4464 73.4951 29.7815 73.643C37.3124 74.4803 44.9498 74.3733 52.4557 73.3251C53.0511 73.2433 53.8315 72.8907 53.6716 72.3084C53.562 71.9055 53.0637 71.7796 52.65 71.7261C44.8527 70.722 36.9771 70.3443 29.1202 70.5961" stroke="black" stroke-miterlimit="10"/>
<path d="M25.9297 73.0581V75.2363C26.964 76.1145 28.2928 76.4324 29.6372 76.5866C37.6131 77.5089 45.7207 77.2665 53.6277 75.8658C53.6621 75.3811 53.6778 74.6823 53.7123 74.1976" stroke="black" stroke-miterlimit="10"/>
<path d="M25.9894 76.3789L26.0207 78.7617C35.1186 80.836 44.6552 80.9776 53.7625 78.9537C53.7625 78.5382 53.6967 77.83 53.6967 77.4145" stroke="black" stroke-miterlimit="10"/>
<path d="M25.1215 78.771C24.7485 78.5161 24.1844 78.8403 24.1061 79.2841C24.0277 79.7279 24.316 80.1749 24.6984 80.4109C25.0807 80.647 25.5414 80.7226 25.9864 80.7855C34.2475 81.9942 42.681 82.1327 50.939 80.902C51.3339 80.8422 51.7225 80.8579 52.0484 80.6281C52.0202 81.4591 52.0547 82.287 52.0296 83.1148C42.681 84.7516 33.0535 84.6383 23.7676 82.6867C23.7989 82.0981 23.5419 81.4245 23.5733 80.8359" stroke="black" stroke-miterlimit="10"/>
<path d="M25.4284 84.0498L25.3376 86.6435C34.7488 88.6076 44.5581 88.5006 53.9506 86.442C53.985 85.611 53.9537 85.0854 53.9882 84.2544" stroke="black" stroke-miterlimit="10"/>
<path d="M48.1245 84.7172C48.6072 84.8022 52.23 84.2986 53.1044 83.669C53.4397 83.4267 53.938 83.2976 53.8158 82.923C53.703 82.5799 53.2454 82.539 52.8881 82.561" stroke="black" stroke-miterlimit="10"/>
<path d="M25.5852 87.2979V89.5799C34.8367 91.6101 44.5018 91.7046 53.7031 89.4572C53.8943 88.8087 53.8316 88.1068 53.7376 87.4363" stroke="black" stroke-miterlimit="10"/>
<path d="M148.048 7.88881C148.621 9.1101 150.169 9.43746 151.504 9.5854C159.035 10.4227 166.673 10.3157 174.178 9.26748C174.774 9.18564 175.554 8.8331 175.394 8.25079C175.285 7.84789 174.786 7.72198 174.373 7.66847C166.575 6.66437 158.7 6.28665 150.843 6.53846" stroke="black" stroke-miterlimit="10"/>
<path d="M147.653 9.00293V11.1811C148.687 12.0593 150.016 12.3772 151.36 12.5315C159.336 13.4537 167.444 13.2114 175.351 11.8106C175.385 11.3259 175.401 10.6271 175.435 10.1424" stroke="black" stroke-miterlimit="10"/>
<path d="M147.715 12.3208L147.747 14.7036C156.845 16.7779 166.381 16.9195 175.489 14.8956C175.489 14.4801 175.423 13.7719 175.423 13.3564" stroke="black" stroke-miterlimit="10"/>
<path d="M146.844 14.7134C146.471 14.4584 145.907 14.7826 145.829 15.2265C145.75 15.6703 146.039 16.1173 146.421 16.3533C146.803 16.5894 147.264 16.6649 147.709 16.7279C155.97 17.9366 164.404 18.0751 172.662 16.8444C173.057 16.7846 173.445 16.8003 173.771 16.5705C173.743 17.4015 173.777 18.2293 173.752 19.0572C164.404 20.694 154.776 20.5806 145.49 18.6291C145.522 18.0405 145.265 17.3669 145.296 16.7783" stroke="black" stroke-miterlimit="10"/>
<path d="M147.151 19.9946L147.06 22.5883C156.472 24.5524 166.281 24.4454 175.673 22.3869C175.708 21.5559 175.677 21.0302 175.711 20.1992" stroke="black" stroke-miterlimit="10"/>
<path d="M169.847 20.662C170.33 20.747 173.953 20.2434 174.827 19.6139C175.163 19.3715 175.661 19.2424 175.539 18.8679C175.426 18.5248 174.968 18.4838 174.611 18.5059" stroke="black" stroke-miterlimit="10"/>
<path d="M147.308 23.2402V25.5223C156.559 27.5525 166.225 27.647 175.426 25.3995C175.617 24.7511 175.554 24.0492 175.46 23.3787" stroke="black" stroke-miterlimit="10"/>
<path d="M80.0783 43.9264C80.6518 45.1477 82.2 45.4751 83.5351 45.623C91.066 46.4603 98.7034 46.3533 106.209 45.3051C106.805 45.2232 107.585 44.8707 107.425 44.2884C107.316 43.8855 106.817 43.7596 106.404 43.7061C98.6063 42.702 90.7306 42.3242 82.8738 42.5761" stroke="black" stroke-miterlimit="10"/>
<path d="M79.6836 45.0405V47.2187C80.7178 48.0969 82.0466 48.4148 83.391 48.5691C91.367 49.4913 99.4745 49.249 107.381 47.8482C107.416 47.3635 107.432 46.6647 107.466 46.18" stroke="black" stroke-miterlimit="10"/>
<path d="M79.7462 48.3584L79.7776 50.7412C88.8755 52.8155 98.4121 52.9571 107.519 50.9332C107.519 50.5177 107.454 49.8095 107.454 49.394" stroke="black" stroke-miterlimit="10"/>
<path d="M108.325 50.7505C108.698 50.4955 109.262 50.8198 109.34 51.2636C109.419 51.7074 109.13 52.1544 108.748 52.3904C108.366 52.6265 107.905 52.7021 107.46 52.765C99.1987 53.9737 90.7652 54.1122 82.5073 52.8815C82.1124 52.8217 81.7238 52.8374 81.3979 52.6076C81.4261 53.4386 81.3916 54.2664 81.4167 55.0943C90.7652 56.7311 100.393 56.6178 109.679 54.6662C109.647 54.0776 109.904 53.404 109.873 52.8154" stroke="black" stroke-miterlimit="10"/>
<path d="M108.018 56.0293L108.109 58.623C98.6972 60.5871 88.888 60.4801 79.4955 58.4215C79.461 57.5905 79.4924 57.0649 79.4579 56.2339" stroke="black" stroke-miterlimit="10"/>
<path d="M83.5353 55.1762C83.0526 55.2612 79.4298 54.7575 78.5554 54.128C78.2201 53.8856 77.7218 53.7566 77.844 53.382C77.9568 53.0389 78.4144 52.998 78.7716 53.02" stroke="black" stroke-miterlimit="10"/>
<path d="M107.861 59.2773V61.5594C98.6096 63.5896 88.9445 63.6841 79.7432 61.4366C79.552 60.7882 79.6147 60.0863 79.7087 59.4158" stroke="black" stroke-miterlimit="10"/>
<path d="M10 86.7441H21.9811" stroke="white" stroke-miterlimit="10"/>
<path d="M183.737 86.7441H220.282" stroke="white" stroke-miterlimit="10"/>
<path d="M57.445 86.7441H79.1821" stroke="white" stroke-miterlimit="10"/>
<path d="M80.6865 62.2994C80.8463 63.0706 80.8964 63.8606 80.8338 64.6444C88.6687 66.6117 96.8263 67.3231 104.83 66.234C106.601 65.9916 108.413 65.658 109.926 64.7042C109.926 63.782 110.023 62.6708 110.023 61.7486C109.735 61.2796 109.196 60.9711 108.648 60.9302" stroke="black" stroke-miterlimit="10"/>
<path d="M108.917 66.451V68.3868C108.043 69.0352 106.968 69.2587 105.886 69.3657C97.2084 70.2156 88.4177 69.8756 79.8307 68.3553C79.6646 67.4456 79.674 66.2621 79.746 65.3398" stroke="black" stroke-miterlimit="10"/>
<path d="M79.9687 69.3472C79.9687 70.2222 79.9311 71.1004 79.8465 71.9723C89.4552 74.0466 99.3647 74.182 108.961 72.0416C108.961 71.4876 108.917 70.5999 108.917 70.0459" stroke="black" stroke-miterlimit="10"/>
<path d="M82.4883 73.4961V75.2934C88.3613 75.8065 94.2344 76.2787 100.132 76.2975C103.718 76.3101 107.425 76.2031 110.688 74.708C110.747 73.5119 110.932 72.3504 110.992 71.1543C110.71 70.7293 110.243 70.2887 109.744 70.1816" stroke="black" stroke-miterlimit="10"/>
<path d="M109.547 76.5364C109.631 77.6413 109.647 78.7524 109.594 79.8604C100.092 80.4993 90.4516 81.1289 81.1782 78.9601C81.0936 77.7168 81.2221 76.2531 81.3914 75.0161" stroke="black" stroke-miterlimit="10"/>
<path d="M110.55 78.5063C111.374 78.9155 111.499 80.0235 111.515 80.9489C111.527 81.6477 111.537 82.3465 111.549 83.0453C101.881 84.169 91.771 84.298 82.1999 82.5322C82.2814 81.8397 82.4068 81.1 82.4882 80.4075" stroke="black" stroke-miterlimit="10"/>
<path d="M81.3852 82.4824V85.3562C90.3984 87.8933 99.8348 88.3811 108.936 86.3005C108.908 85.7654 108.936 85.0855 109.074 84.5756" stroke="black" stroke-miterlimit="10"/>
<path d="M81.3476 86.7695L81.52 89.6717C90.7181 91.6169 100.274 91.8215 109.506 90.0525C109.506 89.1303 109.462 87.9751 109.462 87.0528" stroke="black" stroke-miterlimit="10"/>
<path d="M179.491 45.0405V47.2187C178.456 48.0969 177.128 48.4148 175.783 48.5691C167.807 49.4913 159.7 49.249 151.793 47.8482C151.758 47.3635 151.743 46.6647 151.708 46.18" stroke="black" stroke-miterlimit="10"/>
<path d="M179.431 48.3584L179.4 50.7412C170.302 52.8155 160.765 52.9571 151.658 50.9332C151.658 50.5177 151.724 49.8095 151.724 49.394" stroke="black" stroke-miterlimit="10"/>
<path d="M150.849 50.7505C150.476 50.4955 149.912 50.8198 149.834 51.2636C149.756 51.7074 150.044 52.1544 150.426 52.3904C150.809 52.6265 151.269 52.7021 151.714 52.765C159.975 53.9737 168.409 54.1122 176.667 52.8815C177.062 52.8217 177.45 52.8374 177.776 52.6076C177.748 53.4386 177.783 54.2664 177.758 55.0943C168.409 56.7311 158.781 56.6178 149.496 54.6662C149.527 54.0776 149.27 53.404 149.301 52.8154" stroke="black" stroke-miterlimit="10"/>
<path d="M151.157 56.0293L151.066 58.623C160.477 60.5871 170.286 60.4801 179.679 58.4215C179.713 57.5905 179.682 57.0649 179.716 56.2339" stroke="black" stroke-miterlimit="10"/>
<path d="M175.642 55.1762C176.125 55.2612 179.748 54.7575 180.622 54.128C180.957 53.8856 181.456 53.7566 181.333 53.382C181.221 53.0389 180.763 52.998 180.406 53.02" stroke="black" stroke-miterlimit="10"/>
<path d="M151.313 59.2773V61.5594C160.565 63.5896 170.23 63.6841 179.431 61.4366C179.622 60.7882 179.56 60.0863 179.466 59.4158" stroke="black" stroke-miterlimit="10"/>
<path d="M112.364 86.7441H150.514" stroke="white" stroke-miterlimit="10"/>
<path d="M178.491 62.2994C178.331 63.0706 178.281 63.8607 178.344 64.6444C170.509 66.6117 162.351 67.3231 154.347 66.234C152.576 65.9916 150.765 65.658 149.251 64.7042C149.251 63.782 149.154 62.6708 149.154 61.7486C149.442 61.2796 149.981 60.9711 150.53 60.9302" stroke="black" stroke-miterlimit="10"/>
<path d="M151.031 66.451V68.3868C151.906 69.0352 152.981 69.2587 154.062 69.3657C162.74 70.2156 171.53 69.8756 180.117 68.3553C180.284 67.4456 180.274 66.2621 180.202 65.3398" stroke="black" stroke-miterlimit="10"/>
<path d="M151.301 69.3472C151.301 70.2222 151.263 71.1004 151.179 71.9723C160.787 74.0466 170.697 74.182 180.293 72.0416C180.293 71.4876 180.249 70.5999 180.249 70.0459" stroke="black" stroke-miterlimit="10"/>
<path d="M153.82 73.4961V75.2934C159.693 75.8065 165.567 76.2787 171.465 76.2975C175.05 76.3101 178.757 76.2031 182.02 74.708C182.079 73.5119 182.264 72.3504 182.324 71.1543C182.042 70.7293 181.575 70.2887 181.076 70.1816" stroke="black" stroke-miterlimit="10"/>
<path d="M180.879 76.5364C180.964 77.6413 180.979 78.7524 180.926 79.8604C171.424 80.4993 161.784 81.1289 152.51 78.9601C152.426 77.7168 152.554 76.2531 152.724 75.0161" stroke="black" stroke-miterlimit="10"/>
<path d="M181.882 78.5063C182.706 78.9155 182.831 80.0235 182.847 80.9489C182.86 81.6477 182.869 82.3465 182.881 83.0453C173.213 84.169 163.103 84.298 153.532 82.5322C153.613 81.8397 153.739 81.1 153.82 80.4075" stroke="black" stroke-miterlimit="10"/>
<path d="M146.644 27.5682V29.504C147.518 30.1524 148.593 30.3759 149.674 30.4829C158.352 31.3328 167.143 30.9928 175.73 29.4725C175.896 28.5628 175.887 27.3793 175.814 26.457" stroke="black" stroke-miterlimit="10"/>
<path d="M146.913 30.4639C146.913 31.3389 146.876 32.2171 146.791 33.089C156.4 35.1633 166.309 35.2987 175.905 33.1583C175.905 32.6043 175.861 31.7166 175.861 31.1626" stroke="black" stroke-miterlimit="10"/>
<path d="M149.433 34.6094V36.4067C155.306 36.9198 161.179 37.3919 167.077 37.4108C170.662 37.4234 174.37 37.3164 177.632 35.8213C177.692 34.6251 177.877 33.4637 177.936 32.2676C177.654 31.8426 177.187 31.4019 176.689 31.2949" stroke="black" stroke-miterlimit="10"/>
<path d="M176.491 37.6531C176.576 38.758 176.592 39.8691 176.538 40.9771C167.036 41.616 157.396 42.2456 148.123 40.0768C148.038 38.8335 148.167 37.3698 148.336 36.1328" stroke="black" stroke-miterlimit="10"/>
<path d="M177.494 39.6235C178.318 40.0327 178.444 41.1407 178.46 42.0661C178.472 42.7649 178.481 43.4637 178.494 44.1625C168.826 45.2862 158.716 45.4152 149.144 43.6494C149.226 42.9569 149.351 42.2172 149.433 41.5247" stroke="black" stroke-miterlimit="10"/>
<path d="M152.717 82.4824V85.3562C161.731 87.8933 171.167 88.3811 180.268 86.3005C180.24 85.7654 180.268 85.0855 180.406 84.5756" stroke="black" stroke-miterlimit="10"/>
<path d="M152.68 86.7695L152.852 89.6717C162.05 91.6169 171.606 91.8215 180.838 90.0525C180.838 89.1303 180.794 87.9751 180.794 87.0528" stroke="black" stroke-miterlimit="10"/>
<path d="M39.7977 97.1628C50.3278 97.0841 52.8036 97.0054 63.3337 96.9268" stroke="black" stroke-miterlimit="10"/>
<path d="M99.1298 97.6698C109.66 97.5911 112.343 97.5533 122.873 97.4746" stroke="black" stroke-miterlimit="10"/>
</svg>
