<svg width="20" height="20" viewBox="0 0 20 20" fill="none" xmlns="http://www.w3.org/2000/svg">
<path d="M9.99983 0.833313L5 9.16665H15L9.99983 0.833313ZM9.99983 4.07273L12.0563 7.49998H7.9436L9.99983 4.07273ZM5.625 16.6666C4.35935 16.6666 3.33333 15.6406 3.33333 14.375C3.33333 13.1093 4.35935 12.0833 5.625 12.0833C6.89065 12.0833 7.91667 13.1093 7.91667 14.375C7.91667 15.6406 6.89065 16.6666 5.625 16.6666ZM5.625 18.3333C7.81113 18.3333 9.58333 16.5611 9.58333 14.375C9.58333 12.1888 7.81113 10.4166 5.625 10.4166C3.43888 10.4166 1.66667 12.1888 1.66667 14.375C1.66667 16.5611 3.43888 18.3333 5.625 18.3333ZM12.5 12.9166V16.25H15.8333V12.9166H12.5ZM10.8333 17.9166V11.25H17.5V17.9166H10.8333Z" fill="#F0F2DA"/>
</svg>
