<svg width="32" height="41" viewBox="0 0 32 41" fill="none" xmlns="http://www.w3.org/2000/svg">
<path d="M25.8454 3.99525C18.816 -6.0413 6.22229 11.8972 3.33636 17.5162C1.64504 20.81 0.343535 24.472 0.657907 28.1824C0.972279 31.8928 3.23576 35.6129 6.719 36.6463C10.7618 37.8444 14.9461 35.2254 17.8981 32.1447C23.3273 26.4806 31.3563 11.8617 25.8454 3.99525ZM13.4497 18.824C13.2925 18.8918 13.1353 18.9596 12.975 19.0242C12.9813 18.8821 12.9876 18.7433 12.997 18.6044C10.5449 20.0576 8.19969 21.5527 5.73187 22.9995C8.29086 18.6626 10.8467 14.3224 13.4057 9.98553C13.2548 12.8693 13.1448 15.7272 12.9939 18.6077C13.1636 18.5075 13.3334 18.4042 13.5031 18.3041C13.4843 18.4817 13.4654 18.6529 13.4466 18.8305C15.949 17.768 18.3602 16.5474 20.8752 15.5076C18.0647 20.3095 15.1945 25.021 12.384 29.8197C12.8178 26.0543 13.0347 22.5732 13.4497 18.8305V18.824Z" fill="#F6AF38"/>
<path d="M24.4621 2.49037C21.5604 -0.322322 15.6314 1.62493 10.5008 7.07915C5.37028 12.5301 1.44061 21.0554 1.24885 27.1522C1.11681 31.3374 2.58493 34.2082 4.60948 36.0876C6.17191 37.5375 8.16817 38.474 10.768 37.7345C13.1604 37.0532 15.9049 34.9671 18.3978 32.29C22.1954 28.2082 25.512 22.6313 27.1656 17.3676C28.8192 12.1039 30.0704 7.063 25.6441 3.3655" stroke="#231F20" stroke-miterlimit="10"/>
<path d="M27.0525 3.64331C28.134 4.45708 30.4477 5.72941 30.9885 7.20519C31.5292 8.68096 31.4286 10.231 31.2305 11.7035C30.2402 19.0953 29.1871 20.8876 25.3266 27.0555C21.7711 32.739 19.1304 36.9176 13.3648 39.824C12.3714 40.3245 11.4754 40.599 9.63947 39.4268" stroke="#F5F4EA" stroke-miterlimit="10"/>
<path d="M13.8049 9.48486C11.1548 14.2125 8.36314 18.9337 5.4552 23.7388C8.09592 21.5655 10.6046 21.0908 13.2485 19.2598C13.5597 17.4127 13.7452 13.3083 14.0093 10.7023" stroke="#231F20" stroke-miterlimit="10"/>
<path d="M13.5911 19.1437C16.169 17.4548 19.0046 16.5796 21.5353 15.0974C18.9826 19.3794 16.0935 24.0909 13.4277 28.4924C13.7138 26.2739 13.8678 22.4246 13.7012 20.1286" stroke="#231F20" stroke-miterlimit="10"/>
</svg>
