<svg width="80" height="20" viewBox="0 0 80 20" fill="none" xmlns="http://www.w3.org/2000/svg">
<path d="M0.425719 4.54785L8.0792 0.114353C8.34291 -0.0381175 8.66752 -0.0381175 8.93123 0.114353L13.7519 2.90687C14.2362 3.18748 14.3243 3.85254 13.9299 4.25062L12.2956 5.89872C12.023 6.17341 11.6002 6.22977 11.2656 6.03636L8.93951 4.68905C8.67047 4.53302 8.33877 4.53302 8.06974 4.68905L0 9.41028V5.28825C0 4.98272 0.162601 4.70091 0.425719 4.54785Z" fill="white"/>
<path d="M13.7696 16.4192L8.93122 19.2218C8.66752 19.3742 8.34291 19.3742 8.0792 19.2218L0.425719 14.7883C0.162601 14.6358 0 14.3534 0 14.0485V10.3097L3.94381 8.01611V11.7638C3.94381 12.0693 4.10641 12.3511 4.36953 12.5042L8.0792 14.653C8.34291 14.8055 8.66752 14.8055 8.93122 14.653L11.2786 13.2932C11.6127 13.0998 12.0342 13.1556 12.3068 13.4291L13.9464 15.0742C14.3426 15.4717 14.2551 16.1385 13.7696 16.4192Z" fill="white"/>
<path d="M44.6961 2.06173V13.675C44.6961 14.4705 44.3638 14.5613 43.6188 14.5613H37.7522C37.4985 14.5613 37.2957 14.4859 37.1307 14.3311C37.042 14.2475 36.893 14.2629 36.893 13.5355V2.06114H33.9254V13.8494C33.9254 14.8395 34.2654 15.6719 34.9347 16.3215C35.5763 16.951 36.491 17.2707 37.6528 17.2707H43.9162C44.9835 17.2707 45.8792 16.9397 46.5799 16.2865C47.2989 15.6155 47.6631 14.8787 47.6631 13.5759V2.06055L44.6949 2.06233L44.6961 2.06173Z" fill="white"/>
<path d="M62.659 9.30742C62.076 8.67856 61.2984 8.35997 60.3494 8.35997H54.9682C54.6353 8.35997 54.4166 8.29056 54.1765 8.06097C53.9436 7.84383 53.914 7.60771 53.914 7.31997V5.76027C53.914 5.46126 53.9619 5.21624 54.1588 5.01335C54.2699 4.90181 54.4426 4.76892 55.0776 4.76892H63.427V2.06006H54.008C52.9005 2.06006 52.0065 2.52815 51.3508 3.45068C51.0782 3.83037 50.9458 4.47525 50.9458 5.42152V8.24488C50.9458 9.12766 51.1711 9.80102 51.6145 10.246C52.1514 10.7918 52.8698 11.0688 53.7502 11.0688H59.4069C59.7676 11.0688 60.0301 11.1359 60.1916 11.2717C60.4352 11.4687 60.554 11.6805 60.554 11.9202V13.4544C60.554 14.2013 60.4097 14.1894 60.3252 14.2713C60.1141 14.4724 59.8368 14.5703 59.4767 14.5703H50.934V17.2792H60.0526C61.1116 17.2792 61.9808 16.9351 62.6371 16.2552C63.2242 15.6447 63.5222 14.791 63.5222 13.7184V11.9403C63.5222 10.8102 63.2325 9.92442 62.6601 9.30742H62.659Z" fill="white"/>
<path d="M67.0659 2.06055V4.76941H72.0196V17.2696H74.9872V4.76941H80V2.06055H67.0659Z" fill="white"/>
<path d="M30.8614 8.36776C30.9353 7.48261 30.8614 5.39727 30.8614 5.39727C30.8614 4.03928 30.2577 3.03547 29.0693 2.41432C28.6039 2.16633 27.8997 2.0459 26.9159 2.0459L21.3295 2.05598C20.4443 2.05598 17.8203 2.0459 17.8203 2.0459L19.1613 4.75595H22.1709C22.1981 4.75595 22.2247 4.75476 22.2525 4.75476H26.499C27.1482 4.75476 27.8938 4.87223 27.8938 5.78586V7.99935C27.8938 8.71245 27.5373 9.03044 26.7373 9.03044H22.8165V9.03163H17.8203V17.2852H20.7885V11.7393H25.3011L27.3564 17.2864H30.891C30.891 17.2864 28.8056 11.68 28.7423 11.5453C28.6583 11.3667 29.6198 11.2238 30.2099 10.5807C30.8005 9.93755 30.7869 9.25292 30.8614 8.36836V8.36776Z" fill="white"/>
</svg>
