<svg width="137" height="150" viewBox="0 0 137 150" fill="none" xmlns="http://www.w3.org/2000/svg">
<g clip-path="url(#clip0_206_2187)">
<path d="M68.5 143.302L6.22729 118.38V43.6138L68.5 68.5359V143.302Z" fill="url(#paint0_linear_206_2187)"/>
<path d="M130.773 118.38L68.5 143.302V68.5359L130.773 43.6138V118.38Z" fill="url(#paint1_linear_206_2187)"/>
<path d="M6.22729 43.6135L68.5 18.6914V68.5356L6.22729 43.6135Z" fill="#6447BD"/>
<path d="M130.773 43.6135L68.5 68.5356V18.6914L130.773 43.6135Z" fill="#7F5AF0"/>
<path d="M112.091 51.0903L68.5 68.5358L24.9091 51.0903V6.23047H112.091V51.0903Z" fill="url(#paint2_linear_206_2187)"/>
<path d="M51.8732 30.1557C51.8109 29.5327 51.5929 29.0342 51.1882 28.6916C50.7834 28.3489 50.1295 28.162 49.2888 28.162C48.7595 28.162 48.3236 28.2243 47.9811 28.3489C47.6386 28.4735 47.3895 28.6604 47.2338 28.8785C47.0782 29.0965 46.9847 29.3458 46.9847 29.6261C46.9847 29.8442 46.9847 30.0623 47.1093 30.2492C47.2027 30.4361 47.3584 30.5919 47.5763 30.7476C47.7943 30.9034 48.0745 31.028 48.3859 31.1526C48.7284 31.2772 49.102 31.3707 49.5691 31.4641L51.157 31.8068C52.2157 32.0249 53.1186 32.3364 53.897 32.7102C54.6754 33.0841 55.267 33.5202 55.7652 34.0187C56.2322 34.5171 56.6059 35.0778 56.8238 35.7009C57.0418 36.3239 57.1663 37.0093 57.1663 37.7258C57.1663 39.0031 56.855 40.0623 56.2322 40.9345C55.6095 41.8068 54.7066 42.4922 53.5545 42.9283C52.4025 43.3956 51.0013 43.6137 49.3822 43.6137C47.7632 43.6137 46.2686 43.3644 45.0232 42.866C43.7777 42.3676 42.8125 41.6199 42.1275 40.5919C41.4425 39.5638 41.1 38.2554 41.1 36.6355H46.0507C46.0818 37.2274 46.2375 37.7258 46.4866 38.1308C46.7357 38.5358 47.1093 38.8473 47.6075 39.0342C48.0745 39.2523 48.6661 39.3458 49.32 39.3458C49.8804 39.3458 50.3475 39.2835 50.7211 39.1277C51.0948 39.0031 51.375 38.785 51.5618 38.5669C51.7486 38.3177 51.842 38.0373 51.8732 37.7258C51.8732 37.4454 51.7797 37.1651 51.5929 36.947C51.4061 36.7289 51.0948 36.5109 50.69 36.3551C50.2852 36.1993 49.6936 36.0124 49.0086 35.8567L47.0782 35.4517C45.3657 35.0778 44.0268 34.4548 43.0616 33.5825C42.0963 32.7102 41.5982 31.5264 41.5982 30.0311C41.5982 28.8162 41.9095 27.757 42.5634 26.8224C43.2172 25.8878 44.1513 25.2025 45.3034 24.6729C46.4866 24.1744 47.8254 23.894 49.3511 23.894C50.8768 23.894 52.2468 24.1433 53.3677 24.6729C54.4886 25.2025 55.3604 25.919 55.9832 26.8535C56.6059 27.7881 56.9173 28.9096 56.9173 30.1557H51.9354H51.8732Z" fill="#6447BD"/>
<path d="M66.5073 43.3955H59.0968V24.1743H66.4138C68.3754 24.1743 70.0879 24.5481 71.5513 25.327C72.9836 26.1058 74.1045 27.1961 74.8829 28.6291C75.6613 30.0622 76.0661 31.7756 76.0661 33.8005C76.0661 35.8254 75.6613 37.5388 74.8829 38.9718C74.1045 40.4048 72.9836 41.4952 71.5513 42.274C70.1191 43.0528 68.4377 43.4266 66.4761 43.4266L66.5073 43.3955ZM64.3277 38.9718H66.3204C67.2857 38.9718 68.0952 38.8161 68.7491 38.5045C69.4341 38.193 69.9323 37.6634 70.2748 36.9157C70.6173 36.1681 70.8041 35.1089 70.8041 33.7693C70.8041 32.4298 70.6173 31.3706 70.2748 30.6229C69.9011 29.8752 69.4029 29.3457 68.6868 29.0341C68.0018 28.7226 67.1611 28.5668 66.1336 28.5668H64.2966V38.9407L64.3277 38.9718Z" fill="#6447BD"/>
<path d="M78.4948 43.3955V24.1743H83.7257V31.9625H83.9748L89.7661 24.1743H95.8377L89.3302 32.7413L95.9623 43.3955H89.735L85.407 36.1992L83.6945 38.4422V43.3955H78.4636H78.4948Z" fill="#6447BD"/>
<path d="M112.091 6.23053V36.1371L130.773 43.6137V118.38L68.5 143.302L6.22727 118.38V43.6137L24.9091 36.1371V6.23053H112.091ZM118.318 0H18.6818V31.9315L3.92318 37.8505L0 39.4081V122.617L3.92318 124.174L66.1959 149.097L68.5 150.031L70.8041 149.097L133.077 124.174L137 122.617V39.4081L133.077 37.8505L118.318 31.9315V0Z" fill="url(#paint3_linear_206_2187)"/>
</g>
<defs>
<linearGradient id="paint0_linear_206_2187" x1="6.22729" y1="93.458" x2="68.5" y2="93.458" gradientUnits="userSpaceOnUse">
<stop stop-color="#6447BD"/>
<stop offset="1" stop-color="#A68AFF"/>
</linearGradient>
<linearGradient id="paint1_linear_206_2187" x1="68.5" y1="5.87141e-05" x2="130.773" y2="5.87141e-05" gradientUnits="userSpaceOnUse">
<stop stop-color="#6447BD"/>
<stop offset="1" stop-color="#A68AFF"/>
</linearGradient>
<linearGradient id="paint2_linear_206_2187" x1="24.9091" y1="37.3831" x2="112.091" y2="37.3831" gradientUnits="userSpaceOnUse">
<stop stop-color="#C3B0FF"/>
<stop offset="1" stop-color="#EAE3FF"/>
</linearGradient>
<linearGradient id="paint3_linear_206_2187" x1="137" y1="75.0156" x2="0" y2="75.0156" gradientUnits="userSpaceOnUse">
<stop stop-color="#6447BD"/>
<stop offset="1" stop-color="#A68AFF"/>
</linearGradient>
<clipPath id="clip0_206_2187">
<rect width="137" height="150" fill="white"/>
</clipPath>
</defs>
</svg>
