<svg width="24" height="24" viewBox="0 0 24 24" fill="none" xmlns="http://www.w3.org/2000/svg">
<path fill-rule="evenodd" clip-rule="evenodd" d="M22 12C22 17.5228 17.5228 22 12 22C9.95142 22 8.04671 21.384 6.46101 20.3271L2 22L3.67288 17.539C2.616 15.9533 2 14.0486 2 12C2 6.47715 6.47715 2 12 2C17.5228 2 22 6.47715 22 12ZM11.9998 13C12.5521 13 12.9998 12.5523 12.9998 12C12.9998 11.4477 12.5521 11 11.9998 11C11.4476 11 10.9998 11.4477 10.9998 12C10.9998 12.5523 11.4476 13 11.9998 13ZM9 12C9 12.5523 8.55228 13 8 13C7.44772 13 7 12.5523 7 12C7 11.4477 7.44772 11 8 11C8.55228 11 9 11.4477 9 12ZM16.0001 13C16.5524 13 17.0001 12.5523 17.0001 12C17.0001 11.4477 16.5524 11 16.0001 11C15.4478 11 15.0001 11.4477 15.0001 12C15.0001 12.5523 15.4478 13 16.0001 13Z" fill="white"/>
</svg>
