<svg width="24" height="25" viewBox="0 0 24 25" fill="none" xmlns="http://www.w3.org/2000/svg">
<path d="M19 21.3462H8V7.34619H19V21.3462ZM19 5.34619H8C7.46957 5.34619 6.96086 5.5569 6.58579 5.93198C6.21071 6.30705 6 6.81576 6 7.34619V21.3462C6 21.8766 6.21071 22.3853 6.58579 22.7604C6.96086 23.1355 7.46957 23.3462 8 23.3462H19C19.5304 23.3462 20.0391 23.1355 20.4142 22.7604C20.7893 22.3853 21 21.8766 21 21.3462V7.34619C21 6.81576 20.7893 6.30705 20.4142 5.93198C20.0391 5.5569 19.5304 5.34619 19 5.34619ZM16 1.34619H4C3.46957 1.34619 2.96086 1.55691 2.58579 1.93198C2.21071 2.30705 2 2.81576 2 3.34619V17.3462H4V3.34619H16V1.34619Z" fill="#F0F2DA"/>
</svg>
