<svg width="24" height="25" viewBox="0 0 24 25" fill="none" xmlns="http://www.w3.org/2000/svg">
<path d="M14 13V17H10V13H7L12 8L17 13H14ZM19.35 10.03C18.67 6.59 15.64 4 12 4C9.11 4 6.6 5.64 5.35 8.03C2.34 8.36 0 10.9 0 14C0 15.5913 0.632141 17.1174 1.75736 18.2426C2.88258 19.3679 4.4087 20 6 20H19C19.6566 20 20.3068 19.8707 20.9134 19.6194C21.52 19.3681 22.0712 18.9998 22.5355 18.5355C22.9998 18.0712 23.3681 17.52 23.6194 16.9134C23.8707 16.3068 24 15.6566 24 15C24 12.36 21.95 10.22 19.35 10.03Z" fill="#F0F2DA"/>
</svg>
