<svg width="20" height="20" viewBox="0 0 20 20" fill="none" xmlns="http://www.w3.org/2000/svg">
<path d="M3.05554 14.1666H7.91665V15.5554H3.05554V14.1666ZM3.05554 9.30545H9.30554V10.6943H3.05554V9.30545ZM3.05554 4.44434H16.9444V5.83322H3.05554V4.44434ZM16.0236 10.7118L16.8264 10.4402L17.5209 11.6429L16.8847 12.202C16.9239 12.3878 16.9444 12.5803 16.9444 12.7777C16.9444 12.975 16.9239 13.1675 16.8847 13.3533L17.5209 13.9124L16.8264 15.1152L16.0236 14.8436C15.7385 15.1 15.4002 15.2982 15.0271 15.4196L14.8611 16.2499H13.4722L13.3062 15.4196C12.9331 15.2982 12.5948 15.1 12.3097 14.8436L11.5069 15.1152L10.8124 13.9124L11.4486 13.3533C11.4094 13.1675 11.3889 12.975 11.3889 12.7777C11.3889 12.5803 11.4094 12.3878 11.4486 12.202L10.8124 11.6429L11.5069 10.4402L12.3097 10.7118C12.5948 10.4554 12.9331 10.2572 13.3062 10.1357L13.4722 9.30545H14.8611L15.0271 10.1357C15.4002 10.2572 15.7385 10.4554 16.0236 10.7118ZM14.1667 14.1666C14.9337 14.1666 15.5555 13.5448 15.5555 12.7777C15.5555 12.0106 14.9337 11.3888 14.1667 11.3888C13.3996 11.3888 12.7778 12.0106 12.7778 12.7777C12.7778 13.5448 13.3996 14.1666 14.1667 14.1666Z" fill="#F9FF73"/>
</svg>
