<svg width="24" height="25" viewBox="0 0 24 25" fill="none" xmlns="http://www.w3.org/2000/svg">
<path fill-rule="evenodd" clip-rule="evenodd" d="M15 10.3461C15 13.1075 12.7614 15.3461 10 15.3461C7.23858 15.3461 5 13.1075 5 10.3461C5 7.58465 7.23858 5.34607 10 5.34607C12.7614 5.34607 15 7.58465 15 10.3461ZM13.8482 16.1943C12.744 16.9224 11.4215 17.3461 10 17.3461C6.13401 17.3461 3 14.2121 3 10.3461C3 6.48008 6.13401 3.34607 10 3.34607C13.866 3.34607 17 6.48008 17 10.3461C17 12.0682 16.3781 13.6451 15.3467 14.8644L20.4142 19.9319L19 21.3461L13.8482 16.1943Z" fill="#F0F2DA"/>
</svg>
