<svg width="60" height="14" viewBox="0 0 60 14" fill="none" xmlns="http://www.w3.org/2000/svg">
<g clip-path="url(#clip0_3621_18805)">
<path d="M1.11475 3.2933L6.75921 0.0829566C6.9537 -0.0274487 7.1931 -0.0274487 7.38759 0.0829566L10.9429 2.10505C11.3 2.30825 11.365 2.78982 11.0741 3.07808L9.86882 4.27149C9.66779 4.47039 9.356 4.5112 9.10918 4.37115L7.39369 3.39555C7.19528 3.28256 6.95065 3.28256 6.75224 3.39555L0.800781 6.81425V3.82944C0.800781 3.6082 0.9207 3.40414 1.11475 3.2933Z" fill="#FA8C16"/>
<path d="M10.9559 11.8877L7.38759 13.9171C7.1931 14.0275 6.9537 14.0275 6.75921 13.9171L1.11475 10.7067C0.9207 10.5963 0.800781 10.3919 0.800781 10.171V7.46375L3.70935 5.80295V8.51669C3.70935 8.73793 3.82927 8.94198 4.02332 9.05282L6.75921 10.6088C6.9537 10.7192 7.1931 10.7192 7.38759 10.6088L9.11878 9.62418C9.36516 9.48413 9.67607 9.52451 9.8771 9.72255L11.0863 10.9138C11.3785 11.2016 11.3139 11.6845 10.9559 11.8877Z" fill="white"/>
<path d="M33.7637 1.49411V9.90339C33.7637 10.4795 33.5187 10.5452 32.9692 10.5452H28.6425C28.4555 10.5452 28.3059 10.4906 28.1842 10.3785C28.1188 10.318 28.0089 10.3291 28.0089 9.80244V1.49369H25.8203V10.0297C25.8203 10.7467 26.0711 11.3494 26.5647 11.8198C27.0378 12.2756 27.7124 12.5072 28.5693 12.5072H33.1886C33.9757 12.5072 34.6363 12.2674 35.153 11.7945C35.6833 11.3086 35.9519 10.775 35.9519 9.83165V1.49326L33.7629 1.49454L33.7637 1.49411Z" fill="white"/>
<path d="M47.0125 6.73774C46.5825 6.28237 46.0091 6.05168 45.3092 6.05168H41.3405C41.095 6.05168 40.9337 6.00142 40.7566 5.83517C40.5848 5.67794 40.563 5.50696 40.563 5.29861V4.16921C40.563 3.95269 40.5983 3.77527 40.7435 3.62835C40.8255 3.54759 40.9529 3.45136 41.4212 3.45136H47.5789V1.48984H40.6324C39.8156 1.48984 39.1563 1.82879 38.6727 2.4968C38.4716 2.77174 38.374 3.23871 38.374 3.92391V5.96834C38.374 6.60758 38.5401 7.09516 38.8671 7.41736C39.2631 7.81258 39.7929 8.0132 40.4422 8.0132H44.6141C44.8801 8.0132 45.0737 8.06175 45.1928 8.16012C45.3724 8.30275 45.4601 8.45612 45.4601 8.62967V9.7406C45.4601 10.2815 45.3537 10.2729 45.2913 10.3321C45.1356 10.4778 44.9311 10.5487 44.6655 10.5487H38.3652V12.5102H45.0903C45.8713 12.5102 46.5123 12.261 46.9963 11.7687C47.4293 11.3267 47.6491 10.7085 47.6491 9.93177V8.64428C47.6491 7.8259 47.4354 7.18452 47.0133 6.73774H47.0125Z" fill="white"/>
<path d="M50.2617 1.49368V3.4552H53.9151V12.5067H56.1037V3.4552H59.8007V1.49368H50.2617Z" fill="white"/>
<path d="M23.5613 6.05983C23.6158 5.41887 23.5613 3.90886 23.5613 3.90886C23.5613 2.92552 23.116 2.19865 22.2396 1.74886C21.8964 1.56929 21.377 1.48209 20.6514 1.48209L16.5314 1.48939C15.8786 1.48939 13.9434 1.48209 13.9434 1.48209L14.9324 3.44447H17.1519C17.172 3.44447 17.1916 3.44361 17.2121 3.44361H20.344C20.8228 3.44361 21.3726 3.52867 21.3726 4.19024V5.79305C21.3726 6.30942 21.1097 6.53968 20.5197 6.53968H17.6281V6.54054H13.9434V12.517H16.1324V8.5012H19.4605L20.9763 12.5179H23.5831C23.5831 12.5179 22.0451 8.45824 21.9984 8.36073C21.9365 8.23142 22.6455 8.12789 23.0807 7.66221C23.5164 7.19653 23.5063 6.70078 23.5613 6.06026V6.05983Z" fill="white"/>
</g>
<defs>
<clipPath id="clip0_3621_18805">
<rect width="59" height="14" fill="white" transform="translate(0.800781)"/>
</clipPath>
</defs>
</svg>
