<svg width="255" height="199" viewBox="0 0 255 199" fill="none" xmlns="http://www.w3.org/2000/svg">
<g clip-path="url(#clip0_1792_8968)">
<path d="M223.87 86.4101C229.333 82.7092 241.089 77.0069 238.113 68.2979C231.848 67.9676 225.368 67.6516 219.449 69.9545C215.575 71.4674 215.748 72.5255 216.156 76.3175C216.612 80.5834 216.286 79.8269 213.05 82.7427C212.666 79.9897 212.105 77.2511 211.932 74.3928C208.74 78.2517 203.104 79.8844 199.197 83.1497C193.211 88.1577 187.187 92.055 180.673 96.2539C175.623 99.5096 169.421 101.343 163.723 103.067C159.475 104.355 154.665 104.307 150.186 105.178C149.768 101.233 151.045 96.206 152.029 92.4571C153.234 87.8608 156.364 88.4258 160.982 86.7022C168.259 83.9875 174.255 82.532 179.549 76.6622C184.786 70.8594 189.318 64.257 190.23 56.2949C190.844 50.9422 190.916 45.1537 187.23 41.266C185.612 39.5616 183.702 38.3359 182.223 36.3872C180.356 33.9311 179.305 30.1918 176.818 28.2576C166.92 20.5636 151.583 22.1388 141.243 25.5573C134.926 27.6447 129.228 33.1411 124.629 38.1875C121.485 41.6395 119.133 45.2973 115.384 48.2035C111.765 51.0092 107.641 53.3696 103.873 55.9119C104.396 50.923 102.006 44.967 98.7128 41.2852C95.3958 37.5746 91.666 33.8545 90.3699 28.9662C85.6992 36.3777 78.1964 43.2865 74.5482 51.2869C74.0586 51.1193 73.6314 50.8512 73.3913 50.516C75.9739 47.1694 77.2172 42.0081 79.1805 38.2018C72.2825 36.3154 66.5174 32.5331 60.6562 28.1953C57.4832 31.4893 61.5299 28.5353 61.0835 33.2895C60.5554 38.9152 60.685 43.8083 63.57 48.96C66.3061 53.8436 69.3831 58.6697 75.6475 58.2388C81.0958 57.8653 79.3437 59.7517 79.5549 54.4085C81.2254 54.6288 82.8959 54.9448 84.576 55.1363C82.7711 57.4009 82.4591 60.3981 82.1758 63.1989C81.8206 66.6749 85.0512 74.3545 83.4191 76.3031C79.5069 80.976 75.4315 89.9771 74.5434 95.9331C77.9612 99.3659 80.8126 102.693 84.96 105.557C83.0207 112.528 74.3946 114.735 69.9112 119.795C67.3526 117.09 64.266 114.543 61.8083 111.714C59.1537 113.045 58.0593 117.181 56.0288 119.326C53.7774 121.711 50.7533 123.98 48.3579 126.278C49.0828 122.75 51.5405 120.753 52.5582 117.488C54.4111 111.527 50.5373 105.499 49.462 99.7825C45.2522 104.321 41.1671 107.414 35.954 110.943C35.5748 110.234 34.994 109.516 34.4083 109.018C38.8726 105.432 41.4215 100.333 46.7546 97.47C45.3674 96.7997 44.0281 95.7655 42.9432 94.6691C46.193 89.9866 51.9197 87.1044 53.6958 80.9185C56.2928 71.8888 48.9532 57.3578 39.3334 55.9023C31.4514 54.7101 26.8143 58.9569 21.6636 64.1277C15.1353 70.687 8.23726 84.1264 10.479 92.8497C6.22115 99.5766 3.38419 110.081 4.12343 118.014C4.78107 125.048 6.22595 128.026 9.48053 133.958C12.1015 138.741 8.61648 140.742 13.676 143.193C19.0763 145.812 23.6605 149.068 28.8304 151.95C35.0996 155.445 44.9929 154.971 51.6029 152.285C60.229 148.781 67.8182 148.235 77.6252 150.581C79.7469 160.195 73.2521 171.58 67.9958 179.739C65.2645 183.981 57.2624 197.626 68.7207 195.414C71.8889 192.536 75.8923 189.75 78.4364 186.106C82.5167 180.261 87.6626 176.416 93.6869 172.715C97.1431 170.594 104.392 169.182 105.774 164.92C107.67 159.075 100.441 164.039 96.9175 163.278C99.8264 159.687 101.521 159.817 106.292 159.817C109.235 159.817 113.258 159.07 115.845 160.664C121.562 164.183 122.897 173.155 125.58 178.652C129.521 186.729 132.747 183.387 141.646 185.69C148.77 187.538 157.463 185.316 161.937 179.437C168.408 170.939 176.112 165.993 181.421 156.738C181.33 157.394 181.349 158.045 181.479 158.692C185.79 158.926 190.11 157.83 194.157 156.642C199.432 155.096 205.932 157.078 210.986 155.187C219.694 151.922 222.166 134.006 225.013 126.058C228.44 116.482 224.005 108.448 218.379 100.549C216.636 98.1019 213.559 94.9899 214.975 92.3901C216.175 90.1829 221.84 87.7507 223.851 86.391L223.87 86.4101ZM128.964 82.8624C123.597 81.6942 123.583 75.6951 124.788 71.4626C126.478 72.1234 128.038 72.966 129.353 74.0098C130.299 76.5617 130.937 80.8802 128.969 82.8624H128.964ZM151.497 166.816C147.239 165.94 146.845 157.174 145.943 154.067C150.268 151.06 160.66 151.17 162.921 156.762C161.769 159.903 155.025 167.544 151.497 166.821V166.816Z" fill="#AB9DF2"/>
<path d="M58.5585 16.8722C58.1025 16.6472 57.8433 16.3168 57.7809 15.8811C57.7185 15.4502 57.8385 14.9379 58.1313 14.3442C58.4241 13.7505 58.7649 13.3484 59.1489 13.1377C59.533 12.927 59.9506 12.9318 60.4066 13.1616C60.5842 13.2478 60.7234 13.3484 60.829 13.4585C60.9346 13.5686 61.0162 13.6883 61.069 13.8128C61.1218 13.9373 61.1554 14.0713 61.165 14.2102C61.1747 14.349 61.1699 14.4926 61.1506 14.6363L60.541 14.5549C60.5554 14.4591 60.5602 14.3682 60.565 14.2772C60.5698 14.1862 60.5554 14.1048 60.5266 14.0282C60.4978 13.9516 60.4594 13.8798 60.4066 13.8128C60.3538 13.7457 60.2722 13.6883 60.1714 13.6356C59.917 13.5111 59.6818 13.5159 59.4706 13.65C59.2545 13.7841 59.0673 14.0187 58.9041 14.349L58.6017 14.9571C58.4385 15.2874 58.3665 15.5795 58.3857 15.8332C58.4049 16.087 58.5441 16.2737 58.7985 16.403C58.9041 16.4556 58.9953 16.4796 59.0817 16.4844C59.1681 16.4844 59.2497 16.4796 59.3265 16.4509C59.4033 16.4221 59.4754 16.3838 59.5474 16.3312C59.6194 16.2785 59.6866 16.2163 59.7538 16.1444L60.1858 16.5801C60.085 16.6855 59.9746 16.7716 59.8546 16.8482C59.7394 16.9248 59.6146 16.9775 59.4802 17.011C59.3457 17.0445 59.2065 17.0541 59.0529 17.035C58.8993 17.0158 58.7361 16.9631 58.5633 16.877L58.5585 16.8722Z" fill="#F0F2DA"/>
<path d="M61.5539 18.3564C61.3571 18.2607 61.1987 18.141 61.0739 17.9973C60.949 17.8537 60.8626 17.6957 60.8146 17.5233C60.7666 17.351 60.757 17.1642 60.781 16.9632C60.8098 16.7621 60.8722 16.5562 60.9826 16.3455C61.0931 16.1349 61.2131 15.9529 61.3571 15.8141C61.5011 15.6705 61.6547 15.5651 61.8275 15.5029C61.9955 15.4359 62.1731 15.4071 62.3651 15.4215C62.5571 15.4359 62.7443 15.4885 62.9412 15.5843C63.138 15.68 63.2964 15.7997 63.4212 15.9434C63.546 16.087 63.6324 16.245 63.6804 16.4174C63.7284 16.5897 63.738 16.7764 63.714 16.9775C63.69 17.1786 63.6228 17.3845 63.5124 17.5952C63.402 17.8058 63.282 17.9878 63.138 18.1266C62.994 18.2654 62.8356 18.3756 62.6675 18.4378C62.4995 18.5048 62.3219 18.5336 62.1299 18.5192C61.9379 18.5048 61.7507 18.4522 61.5539 18.3564ZM61.7747 17.9159C61.9811 18.0165 62.1779 18.0356 62.3603 17.9734C62.5427 17.9111 62.6963 17.7531 62.8211 17.5042L63.0228 17.102C63.1476 16.853 63.1764 16.6376 63.1188 16.4509C63.0612 16.2641 62.9268 16.1205 62.7203 16.02C62.5139 15.9194 62.3171 15.9003 62.1347 15.9625C61.9523 16.0295 61.7987 16.1828 61.6739 16.4317L61.4723 16.8339C61.3475 17.0829 61.3187 17.2983 61.3763 17.485C61.4339 17.6718 61.5683 17.8154 61.7747 17.9159Z" fill="#F0F2DA"/>
<path d="M63.3588 19.1751L64.6836 16.5227L65.1637 16.7621L64.9909 17.1068L65.0149 17.1211C65.1109 17.0302 65.2213 16.9632 65.3365 16.9201C65.4517 16.877 65.5813 16.8961 65.7301 16.9679C65.8789 17.0398 65.9605 17.1307 65.9989 17.2456C66.0373 17.3605 66.0325 17.4898 65.9893 17.6334L66.0085 17.643C66.1189 17.5473 66.2341 17.4802 66.3637 17.4371C66.4934 17.3941 66.6374 17.4132 66.7958 17.4946C67.0022 17.5951 67.1078 17.7388 67.1174 17.9255C67.127 18.1074 67.0598 18.342 66.9254 18.6197L65.9941 20.487L65.5141 20.2476L66.4069 18.4522C66.4982 18.2654 66.5414 18.1266 66.5318 18.0356C66.5222 17.9447 66.4693 17.8728 66.3685 17.825C66.2773 17.7819 66.1909 17.7723 66.0997 17.8058C66.0085 17.8345 65.9365 17.9111 65.8741 18.0308L64.9141 19.9555L64.434 19.7161L65.3269 17.9207C65.4181 17.734 65.4613 17.5951 65.4517 17.5042C65.4421 17.4132 65.3893 17.3414 65.2885 17.2935C65.1973 17.2456 65.1061 17.2408 65.0149 17.2696C64.9237 17.2983 64.8517 17.3749 64.7893 17.4946L63.8292 19.4193L63.3492 19.1799L63.3588 19.1751Z" fill="#F0F2DA"/>
<path d="M67.9574 18.141L68.5191 18.4187L68.2935 18.8735L68.3223 18.8879C68.4807 18.7682 68.6487 18.6916 68.8263 18.6676C69.0039 18.6437 69.1863 18.6772 69.3831 18.7729C69.6951 18.9262 69.8871 19.1703 69.9592 19.4959C70.0264 19.8215 69.9496 20.2141 69.7191 20.6737C69.4887 21.1333 69.2247 21.435 68.9223 21.5738C68.6199 21.7127 68.3127 21.7079 68.0006 21.5547C67.8038 21.4589 67.6646 21.3296 67.5782 21.1764C67.4918 21.0232 67.4486 20.8413 67.4534 20.6402L67.4246 20.6258L66.6854 22.1053L66.1237 21.8276L67.9574 18.1457V18.141ZM67.9958 20.9753C68.207 21.0807 68.4039 21.095 68.5863 21.0232C68.7687 20.9514 68.9127 20.8078 69.0183 20.5875L69.2343 20.1566C69.3399 19.9412 69.3687 19.7401 69.3207 19.5534C69.2727 19.3666 69.1383 19.2182 68.9271 19.1129C68.8455 19.0698 68.7639 19.0459 68.6775 19.0267C68.5959 19.0123 68.5143 19.0123 68.4423 19.0267C68.3703 19.0411 68.2983 19.0698 68.2359 19.1129C68.1734 19.156 68.1206 19.2182 68.0822 19.3044L67.6406 20.1901C67.5974 20.2715 67.5782 20.3529 67.583 20.4295C67.5878 20.5061 67.6022 20.5779 67.6406 20.645C67.6742 20.712 67.7222 20.7742 67.7846 20.8317C67.847 20.8892 67.919 20.937 68.0006 20.9801L67.9958 20.9753Z" fill="#F0F2DA"/>
<path d="M71.644 22.7181L71.62 22.7037C71.5576 22.7564 71.4904 22.809 71.4136 22.8473C71.3368 22.8904 71.26 22.9192 71.1736 22.9335C71.0872 22.9479 70.996 22.9479 70.9 22.9335C70.804 22.9192 70.6984 22.8856 70.5928 22.833C70.324 22.6989 70.1512 22.5074 70.0744 22.2489C69.9975 21.9903 70.036 21.7031 70.1992 21.3823L71.0488 19.673L71.6104 19.9507L70.7992 21.5786C70.588 21.9999 70.6696 22.3015 71.0344 22.4835C71.1064 22.517 71.1832 22.5457 71.26 22.5601C71.3368 22.5744 71.4136 22.5792 71.4856 22.5697C71.5576 22.5601 71.6248 22.5361 71.6872 22.493C71.7496 22.4547 71.7976 22.3925 71.8361 22.3159L72.7337 20.5157L73.2953 20.7934L71.9705 23.4458L71.4088 23.1681L71.6344 22.7133L71.644 22.7181Z" fill="#F0F2DA"/>
<path d="M74.121 24.5087C73.8858 24.3938 73.7466 24.2454 73.6986 24.0634C73.6506 23.8863 73.6746 23.6948 73.7754 23.4985L74.5338 21.976L73.713 21.569L73.9434 21.1094L74.5242 21.3966C74.625 21.4445 74.7066 21.4637 74.7642 21.4445C74.8266 21.4254 74.8794 21.3631 74.9322 21.2626L75.2634 20.5971L75.7915 20.8604L75.3258 21.7988L76.4587 22.3638L76.2283 22.8234L75.0954 22.2584L74.2266 23.9964L75.3595 24.5614L75.129 25.021L74.1114 24.5183L74.121 24.5087Z" fill="#F0F2DA"/>
<path d="M77.0828 26.0552C76.8811 25.9546 76.7131 25.8301 76.5835 25.6865C76.4539 25.5429 76.3627 25.3801 76.3147 25.2077C76.2667 25.0354 76.2523 24.8486 76.2811 24.6476C76.3099 24.4465 76.3723 24.2454 76.4779 24.0299C76.5835 23.8145 76.7083 23.6421 76.8571 23.4985C77.0011 23.3548 77.1596 23.2543 77.3276 23.1825C77.4956 23.1155 77.6732 23.0867 77.8604 23.0963C78.0476 23.1059 78.2348 23.1585 78.4268 23.2543C78.6188 23.3501 78.7676 23.4602 78.8829 23.599C79.0029 23.7379 79.0845 23.8911 79.1373 24.0587C79.1901 24.2262 79.1997 24.4082 79.1757 24.5949C79.1517 24.7864 79.0893 24.9779 78.9933 25.1742L78.8876 25.3849L76.9771 24.4369L76.9339 24.5231C76.8283 24.7289 76.8091 24.9348 76.8763 25.1311C76.9435 25.3274 77.0876 25.4806 77.318 25.5955C77.4908 25.6817 77.654 25.7152 77.8124 25.7057C77.9708 25.6913 78.1196 25.6434 78.254 25.5572L78.4508 26.0408C78.2828 26.1509 78.0812 26.2132 77.846 26.2275C77.6108 26.2419 77.3516 26.1844 77.078 26.0456L77.0828 26.0552ZM78.2108 23.6852C78.11 23.6373 78.0092 23.6086 77.9084 23.599C77.8076 23.5895 77.7116 23.6038 77.6204 23.6373C77.5292 23.6708 77.4428 23.7235 77.366 23.7905C77.2892 23.8576 77.2268 23.9437 77.174 24.0491L77.1548 24.0874L78.4892 24.7481L78.5132 24.6954C78.6188 24.4848 78.6428 24.2885 78.5852 24.1065C78.5276 23.9246 78.4028 23.781 78.206 23.6852H78.2108Z" fill="#F0F2DA"/>
<path d="M59.1297 94.5015C58.9041 94.2382 58.7553 93.9749 58.6929 93.7163C58.6305 93.4578 58.6257 93.204 58.6785 92.9551L59.2497 93.0125C59.2113 93.2471 59.2161 93.4578 59.2593 93.6493C59.3073 93.836 59.4034 94.0132 59.5426 94.176C59.7058 94.3675 59.8786 94.4776 60.0562 94.5063C60.2338 94.535 60.4018 94.4776 60.5698 94.3387C60.6994 94.2238 60.7714 94.0993 60.7762 93.9653C60.781 93.8264 60.7234 93.6541 60.5986 93.4434L60.3634 93.0652C60.2626 92.9024 60.1954 92.7444 60.1618 92.6008C60.1282 92.4571 60.1234 92.3231 60.1474 92.1986C60.1666 92.0741 60.2146 91.9592 60.2818 91.8539C60.349 91.7485 60.4354 91.6528 60.5362 91.5618C60.8242 91.3129 61.1219 91.2219 61.4339 91.2793C61.7459 91.3368 62.0387 91.5283 62.3219 91.8539C62.5283 92.0933 62.6675 92.3327 62.7395 92.5673C62.8115 92.8019 62.8212 93.0317 62.7731 93.2567L62.2067 93.2136C62.2355 93.0412 62.2307 92.8737 62.1971 92.7013C62.1587 92.5337 62.0675 92.3662 61.9235 92.1938C61.7699 92.0119 61.6115 91.9113 61.4531 91.8826C61.2947 91.8539 61.1411 91.9065 60.9922 92.031C60.8674 92.1411 60.8002 92.2608 60.7906 92.3949C60.781 92.529 60.8434 92.7061 60.973 92.9216L61.1939 93.295C61.3811 93.611 61.4531 93.8935 61.4099 94.1472C61.3667 94.401 61.2419 94.6212 61.0258 94.8032C60.8866 94.9229 60.7378 95.009 60.5794 95.0617C60.421 95.1144 60.2626 95.1287 60.0994 95.1048C59.9362 95.0808 59.773 95.0186 59.6098 94.9181C59.4466 94.8175 59.2882 94.6787 59.1345 94.5015H59.1297Z" fill="#F0F2DA"/>
<path d="M61.5731 97.2306C61.4003 97.0343 61.3331 96.8428 61.3571 96.6608C61.3811 96.4741 61.4819 96.3113 61.6499 96.1677L62.946 95.0569L62.3507 94.3627L62.7395 94.0275L63.162 94.5207C63.234 94.6068 63.3012 94.6499 63.3684 94.6547C63.4308 94.6595 63.5076 94.626 63.594 94.5494L64.1556 94.0658L64.5396 94.5111L63.7428 95.191L64.5684 96.1485L64.1796 96.4837L63.354 95.5261L61.8755 96.7901L62.7011 97.7476L62.3123 98.0828L61.5731 97.2258V97.2306Z" fill="#F0F2DA"/>
<path d="M63.6564 99.7585C63.5124 99.591 63.4116 99.4186 63.354 99.2415C63.2964 99.0643 63.2772 98.8824 63.3012 98.7052C63.3252 98.5281 63.3876 98.3509 63.4884 98.1738C63.5892 98.0014 63.7332 97.8338 63.9156 97.6806C64.098 97.5274 64.2804 97.4077 64.4676 97.3359C64.6548 97.2593 64.8421 97.2258 65.0197 97.2306C65.2021 97.2306 65.3749 97.2785 65.5429 97.3646C65.7109 97.4508 65.8693 97.5753 66.0133 97.7381C66.1573 97.9009 66.2581 98.078 66.3157 98.2552C66.3733 98.4323 66.3925 98.6143 66.3685 98.7914C66.3445 98.9685 66.2821 99.1457 66.1813 99.3228C66.0805 99.4952 65.9365 99.6628 65.7541 99.816C65.5717 99.9692 65.3893 100.084 65.2021 100.161C65.0149 100.237 64.8277 100.271 64.65 100.266C64.4724 100.261 64.2948 100.218 64.1268 100.132C63.9588 100.046 63.8004 99.9213 63.6564 99.7585ZM64.0308 99.4378C64.1796 99.6101 64.3524 99.7059 64.5492 99.7154C64.7461 99.725 64.9477 99.6436 65.1541 99.4617L65.4949 99.1696C65.7061 98.9877 65.8165 98.801 65.8357 98.6095C65.8501 98.4132 65.7877 98.2312 65.6341 98.0589C65.4805 97.8865 65.3125 97.7908 65.1157 97.7812C64.9189 97.7716 64.7173 97.853 64.506 98.0349L64.1652 98.327C63.954 98.5089 63.8436 98.6956 63.8244 98.8872C63.8052 99.0835 63.8724 99.2654 64.026 99.4425L64.0308 99.4378Z" fill="#F0F2DA"/>
<path d="M65.5093 101.018L66.0229 101.616L67.5014 100.352L66.9878 99.7538L67.3766 99.4186L68.3031 100.491L67.703 101.003L67.727 101.027C67.823 100.979 67.9238 100.946 68.0294 100.922C68.135 100.898 68.2406 100.893 68.3415 100.903C68.4471 100.912 68.5527 100.946 68.6583 101.003C68.7639 101.061 68.8647 101.142 68.9655 101.257L69.2007 101.525L68.7447 101.913L68.3607 101.468C68.2119 101.295 68.0342 101.195 67.8374 101.171C67.6406 101.147 67.4534 101.214 67.2806 101.362L66.4406 102.085L67.1414 102.899L66.7526 103.234L65.1253 101.348L65.5141 101.013L65.5093 101.018Z" fill="#F0F2DA"/>
<path d="M68.9367 105.777C68.8167 105.638 68.7639 105.509 68.7783 105.379C68.7879 105.25 68.8455 105.13 68.9463 105.02L68.9271 105.001C68.7543 105.073 68.5767 105.087 68.4039 105.035C68.2311 104.982 68.063 104.872 67.9142 104.695C67.7174 104.465 67.6214 104.23 67.6214 103.991C67.6214 103.752 67.7318 103.541 67.943 103.359C68.1542 103.177 68.3991 103.11 68.6535 103.172C68.9079 103.234 69.1767 103.436 69.4647 103.766L69.8343 104.197L70.0071 104.048C70.3144 103.785 70.3288 103.493 70.0504 103.172C69.9255 103.029 69.7959 102.933 69.6615 102.895C69.5271 102.851 69.3879 102.842 69.2391 102.861L69.2247 102.377C69.4023 102.334 69.5991 102.354 69.8199 102.43C70.0408 102.507 70.252 102.66 70.4584 102.899C70.7032 103.182 70.828 103.464 70.8328 103.747C70.8328 104.024 70.708 104.278 70.4488 104.498L69.3159 105.47L69.5607 105.753L69.1863 106.074L68.9367 105.782V105.777ZM68.3751 104.527C68.5095 104.68 68.6535 104.776 68.8071 104.814C68.9607 104.853 69.0951 104.824 69.2055 104.733L69.5319 104.455L69.1671 104.034C68.8695 103.689 68.6199 103.608 68.4135 103.785L68.3271 103.862C68.2262 103.948 68.183 104.048 68.1926 104.168C68.2022 104.283 68.2647 104.407 68.3751 104.532V104.527Z" fill="#F0F2DA"/>
<path d="M71.2408 108.937C71.0056 109.138 70.7512 109.186 70.4728 109.085C70.1944 108.985 69.8823 108.736 69.5415 108.338C69.3735 108.142 69.2439 107.97 69.1575 107.816C69.0663 107.663 69.0135 107.524 68.9847 107.4C68.9607 107.275 68.9655 107.17 69.0039 107.074C69.0375 106.979 69.0999 106.897 69.1863 106.825C69.3063 106.72 69.4359 106.672 69.5607 106.682C69.6903 106.691 69.8199 106.744 69.9592 106.844L70.0024 106.806C69.964 106.706 69.9543 106.61 69.9687 106.519C69.9832 106.428 70.0312 106.347 70.1176 106.275C70.228 106.179 70.3432 106.145 70.468 106.174C70.588 106.203 70.7176 106.26 70.8472 106.356L70.8712 106.337C70.8184 106.145 70.8184 105.964 70.8712 105.786C70.924 105.609 71.0296 105.456 71.1928 105.312C71.3128 105.212 71.4376 105.14 71.572 105.097C71.7065 105.059 71.8409 105.049 71.9801 105.068C72.1193 105.092 72.2537 105.14 72.3881 105.217C72.5225 105.298 72.6521 105.403 72.7721 105.547C72.9065 105.705 73.0025 105.868 73.0601 106.035L73.1321 105.973C73.2185 105.896 73.3145 105.863 73.4153 105.858C73.5162 105.858 73.6122 105.906 73.6986 106.011L74.049 106.418L73.6746 106.739L73.2233 106.217L73.1177 106.308C73.1369 106.466 73.1177 106.615 73.0601 106.754C73.0025 106.892 72.9065 107.022 72.7673 107.141C72.6473 107.242 72.5225 107.314 72.3833 107.357C72.2489 107.395 72.1097 107.405 71.9753 107.385C71.8361 107.366 71.7016 107.314 71.5672 107.232C71.4328 107.151 71.308 107.041 71.188 106.902C71.1016 106.801 71.0296 106.701 70.972 106.6C70.9096 106.562 70.8424 106.528 70.7608 106.505C70.6792 106.481 70.612 106.5 70.5496 106.552C70.4776 106.61 70.4632 106.682 70.5064 106.763C70.5448 106.844 70.6072 106.935 70.6936 107.036L71.1304 107.543C71.3896 107.845 71.5192 108.113 71.5192 108.343C71.5192 108.573 71.428 108.769 71.2408 108.932V108.937ZM70.828 108.515C70.9048 108.448 70.9384 108.367 70.9336 108.266C70.9288 108.166 70.852 108.037 70.7176 107.879L70.0456 107.098C69.8967 107.031 69.7623 107.05 69.6471 107.151C69.5607 107.223 69.5175 107.323 69.5175 107.448C69.5175 107.572 69.5895 107.716 69.7335 107.883L70.036 108.238C70.1896 108.42 70.3384 108.535 70.4728 108.578C70.6072 108.621 70.7272 108.606 70.8328 108.515H70.828ZM71.5096 106.624C71.644 106.777 71.7785 106.859 71.9129 106.868C72.0473 106.878 72.1769 106.83 72.3017 106.725L72.4217 106.624C72.5417 106.519 72.6089 106.399 72.6185 106.265C72.6281 106.131 72.5657 105.987 72.4361 105.834C72.3065 105.681 72.1673 105.6 72.0329 105.59C71.8985 105.58 71.7689 105.628 71.644 105.734L71.524 105.834C71.404 105.94 71.3368 106.059 71.3272 106.193C71.3176 106.327 71.38 106.471 71.5096 106.629V106.624Z" fill="#F0F2DA"/>
<path d="M72.7145 110.258C72.5657 110.086 72.4601 109.909 72.3977 109.727C72.3353 109.545 72.3161 109.363 72.3353 109.181C72.3545 108.999 72.4169 108.822 72.5225 108.649C72.6233 108.477 72.7625 108.314 72.9449 108.156C73.1273 107.998 73.3097 107.888 73.5017 107.812C73.6938 107.735 73.8762 107.702 74.0586 107.706C74.241 107.706 74.4138 107.754 74.5818 107.836C74.7498 107.917 74.9034 108.041 75.0426 108.199C75.1818 108.357 75.273 108.52 75.3307 108.697C75.3883 108.87 75.4027 109.047 75.3835 109.219C75.3643 109.396 75.3018 109.564 75.2106 109.732C75.1146 109.899 74.985 110.052 74.817 110.191L74.6394 110.344L73.2473 108.731L73.1753 108.793C72.9977 108.946 72.9017 109.123 72.8873 109.329C72.8729 109.535 72.9449 109.736 73.1129 109.928C73.2377 110.071 73.3769 110.172 73.5258 110.22C73.6746 110.268 73.833 110.282 73.9914 110.258V110.78C73.7898 110.818 73.5786 110.799 73.3529 110.718C73.1273 110.641 72.9161 110.483 72.7145 110.253V110.258ZM74.6778 108.511C74.6058 108.429 74.5242 108.362 74.433 108.314C74.3418 108.266 74.2458 108.243 74.1498 108.238C74.0538 108.238 73.953 108.247 73.857 108.281C73.761 108.314 73.665 108.367 73.5786 108.444L73.5498 108.468L74.5242 109.597L74.5674 109.559C74.745 109.406 74.8458 109.234 74.865 109.042C74.8842 108.851 74.8218 108.673 74.6826 108.506L74.6778 108.511Z" fill="#F0F2DA"/>
<path d="M223.213 50.9278L223.011 49.7356L222.968 49.7452L222.545 51.9188L221.384 50.0324L221.341 50.042L221.576 51.2246L221.921 53.111L221.36 53.2115L220.64 49.2664L221.417 49.1275L222.31 50.583L222.349 50.5735L222.675 48.8977L223.405 48.7637L224.125 52.7088L223.563 52.8094L223.217 50.923L223.213 50.9278Z" fill="#F0F2DA"/>
<path d="M226.146 52.4168C225.93 52.4551 225.733 52.4551 225.546 52.4168C225.358 52.3785 225.195 52.3019 225.056 52.1918C224.912 52.0816 224.792 51.938 224.696 51.7609C224.595 51.5837 224.528 51.3778 224.485 51.1432C224.441 50.9086 224.437 50.6932 224.465 50.4921C224.494 50.291 224.557 50.1138 224.653 49.9606C224.749 49.8074 224.874 49.6782 225.032 49.5776C225.19 49.4771 225.378 49.4053 225.594 49.367C225.81 49.3287 226.011 49.3287 226.194 49.367C226.381 49.4053 226.544 49.4819 226.683 49.592C226.822 49.7021 226.947 49.8457 227.043 50.0229C227.144 50.2 227.211 50.4059 227.254 50.6405C227.298 50.8751 227.302 51.0906 227.274 51.2916C227.245 51.4927 227.182 51.6699 227.086 51.8231C226.99 51.9763 226.866 52.1056 226.707 52.2061C226.549 52.3067 226.362 52.3785 226.146 52.4168ZM226.059 51.9284C226.285 51.8853 226.453 51.7848 226.563 51.622C226.674 51.4592 226.702 51.2438 226.654 50.9709L226.573 50.5304C226.525 50.2575 226.419 50.066 226.261 49.9559C226.102 49.8457 225.91 49.8074 225.68 49.8457C225.45 49.884 225.286 49.9894 225.176 50.1522C225.066 50.3149 225.037 50.5304 225.085 50.8033L225.166 51.2438C225.214 51.5167 225.32 51.7082 225.478 51.8183C225.637 51.9284 225.829 51.9667 226.059 51.9284Z" fill="#F0F2DA"/>
<path d="M228.311 51.9524L227.778 49.0366L228.397 48.9265L228.488 49.4244H228.517C228.531 49.3382 228.56 49.2568 228.594 49.1802C228.627 49.1036 228.675 49.0318 228.733 48.9696C228.791 48.9073 228.863 48.8499 228.949 48.8068C229.035 48.7589 229.136 48.7254 229.256 48.7062C229.549 48.6536 229.808 48.7062 230.024 48.8642C230.24 49.0222 230.379 49.2808 230.447 49.6351L230.787 51.5119L230.168 51.622L229.842 49.8362C229.755 49.3717 229.511 49.1754 229.107 49.2521C229.026 49.2664 228.954 49.2904 228.882 49.3239C228.81 49.3574 228.747 49.4005 228.695 49.4531C228.642 49.5058 228.603 49.568 228.579 49.6399C228.555 49.7117 228.551 49.7883 228.565 49.8697L228.925 51.847L228.306 51.9572L228.311 51.9524Z" fill="#F0F2DA"/>
<path d="M231.714 50.8129L232.712 50.6309L232.362 48.7206L231.363 48.9025L231.272 48.3998L232.885 48.1078L233.327 50.5208L234.263 50.3532L234.354 50.856L231.805 51.3204L231.714 50.8177V50.8129ZM232.487 47.629C232.328 47.6577 232.213 47.6481 232.136 47.5907C232.064 47.538 232.016 47.4662 231.997 47.3704L231.973 47.2507C231.954 47.155 231.973 47.0736 232.021 46.997C232.069 46.9204 232.175 46.8677 232.328 46.8438C232.482 46.8198 232.602 46.8294 232.679 46.8821C232.756 46.9347 232.799 47.0066 232.818 47.1023L232.842 47.222C232.861 47.3178 232.842 47.3992 232.794 47.4758C232.741 47.5524 232.64 47.605 232.487 47.629Z" fill="#F0F2DA"/>
<path d="M236.509 50.4634C236.25 50.5112 236.053 50.4777 235.905 50.358C235.761 50.2431 235.665 50.0755 235.626 49.8601L235.319 48.1844L234.416 48.3471L234.325 47.8444L234.964 47.7295C235.074 47.7104 235.146 47.6721 235.184 47.6242C235.223 47.5763 235.232 47.4901 235.208 47.3752L235.074 46.6475L235.65 46.5421L235.837 47.5715L237.085 47.3465L237.177 47.8492L235.929 48.0742L236.279 49.9846L237.527 49.7595L237.618 50.2623L236.5 50.4634H236.509Z" fill="#F0F2DA"/>
<path d="M239.75 49.9463C239.534 49.9846 239.337 49.9846 239.15 49.9463C238.962 49.908 238.799 49.8314 238.66 49.7212C238.516 49.6111 238.396 49.4675 238.3 49.2903C238.199 49.1132 238.132 48.9073 238.089 48.6727C238.045 48.4381 238.041 48.2227 238.069 48.0216C238.098 47.8205 238.161 47.6433 238.257 47.4901C238.353 47.3369 238.477 47.2076 238.636 47.1071C238.794 47.0066 238.981 46.9347 239.198 46.8964C239.414 46.8581 239.615 46.8581 239.798 46.8964C239.985 46.9347 240.148 47.0113 240.287 47.1215C240.426 47.2316 240.551 47.3752 240.647 47.5524C240.748 47.7295 240.815 47.9354 240.858 48.17C240.902 48.4046 240.906 48.62 240.878 48.8211C240.849 49.0222 240.786 49.1994 240.69 49.3526C240.594 49.5058 240.47 49.6351 240.311 49.7356C240.153 49.8361 239.966 49.908 239.75 49.9463ZM239.663 49.4579C239.889 49.4148 240.057 49.3143 240.167 49.1515C240.278 48.9887 240.306 48.7733 240.258 48.5003L240.177 48.0599C240.129 47.787 240.023 47.5955 239.865 47.4853C239.706 47.3752 239.514 47.3369 239.284 47.3752C239.054 47.4135 238.89 47.5188 238.78 47.6816C238.669 47.8444 238.641 48.0599 238.689 48.3328L238.77 48.7733C238.818 49.0462 238.924 49.2377 239.082 49.3478C239.241 49.4579 239.433 49.4962 239.663 49.4579Z" fill="#F0F2DA"/>
<path d="M241.775 48.9935L242.553 48.8547L242.202 46.9443L241.425 47.0832L241.334 46.5805L242.726 46.3267L242.865 47.1023H242.899C242.908 46.9874 242.927 46.8821 242.956 46.7815C242.99 46.6762 243.038 46.5852 243.1 46.5038C243.163 46.4225 243.244 46.3458 243.345 46.2836C243.446 46.2214 243.571 46.1735 243.719 46.1496L244.07 46.0873L244.175 46.6762L243.599 46.7815C243.374 46.8246 243.201 46.9252 243.081 47.0832C242.961 47.2412 242.923 47.4327 242.966 47.6625L243.163 48.7493L244.223 48.5578L244.315 49.0605L241.862 49.5058L241.77 49.0031L241.775 48.9935Z" fill="#F0F2DA"/>
<path d="M144.085 93.4338C155.087 92.6151 165.633 89.3786 173.362 84.9163C177.332 82.623 180.313 79.1231 183.006 75.1828C185.607 71.3813 187.662 67.4409 189.625 63.1798C192.904 56.0555 193.264 46.5805 189.635 39.4706C185.646 31.6473 179.045 27.5442 170.491 25.4088C159.575 22.6846 147.479 21.5882 137.173 27.5107C125.858 34.0125 108.299 54.0925 103.105 56.5439C99.6392 58.1813 101.574 62.0642 98.4248 64.0799" stroke="#F0F2DA" stroke-miterlimit="10"/>
<path d="M116.435 66.2631C123.237 61.6908 133.15 69.7965 134.36 76.6047C136.102 86.4245 129.238 91.8491 119.892 91.4086C114.664 91.1596 111.669 89.7089 108.304 85.7303" stroke="#F0F2DA" stroke-miterlimit="10"/>
<path d="M99.356 55.7204C95.6502 54.0063 86.8561 56.5487 84.3936 60.1826C81.3694 64.6448 83.6111 72.4442 86.3425 76.4037" stroke="#F0F2DA" stroke-miterlimit="10"/>
<path d="M127.414 71.9414C123.377 72.6931 122.748 80.1238 126.391 82.082C131.302 84.7249 132.502 76.5665 129.041 73.9667" stroke="#F0F2DA" stroke-miterlimit="10"/>
<path d="M144.085 106.821C145.304 104.685 148.213 103.402 148.208 101.65C148.66 101.157 148.89 101.085 149.034 100.4C151.449 100.175 154.036 96.8045 154.655 94.6548" stroke="#F0F2DA" stroke-miterlimit="10"/>
<path d="M137.173 86.9464C135.416 103.833 146.072 113.318 159.129 121.826" stroke="#F0F2DA" stroke-miterlimit="10"/>
<path d="M215.868 72.8655C216.199 72.6883 216.531 72.5112 216.867 72.3388C221.024 70.1747 230.922 65.4971 235.165 67.484" stroke="#F0F2DA" stroke-miterlimit="10"/>
<path d="M145.712 106.821C149.98 107.036 154.199 106.208 157.934 104.125C160.137 107.845 167.952 101.449 170.947 100.333C173.453 99.3994 176.213 99.5383 178.652 98.6334C181.575 97.5466 184.407 94.8079 186.875 93.046C194.718 87.4443 202.706 80.8755 211.054 75.6759" stroke="#F0F2DA" stroke-miterlimit="10"/>
<path d="M224.998 71.9414C226.856 75.5466 213.295 86.5442 209.609 85.668C209.484 83.6141 211.452 82.6326 213.204 82.0772" stroke="#F0F2DA" stroke-miterlimit="10"/>
<path d="M212.191 79.353C208.644 80.3536 205.418 82.5656 203.858 85.7303C200.191 93.1753 207.098 94.2478 213.209 94.2478" stroke="#F0F2DA" stroke-miterlimit="10"/>
<path d="M219.579 79.1758C219.348 79.1471 217.625 78.7928 217.39 78.7784" stroke="#F0F2DA" stroke-miterlimit="10"/>
<path d="M236.793 67.8862C242.591 67.1632 240.849 72.6261 235.981 70.7253" stroke="#F0F2DA" stroke-miterlimit="10"/>
<path d="M234.488 72.6165C230.643 71.7021 231.589 75.9345 234.719 76.375C234.8 75.901 235.016 75.5036 235.031 75.0487" stroke="#F0F2DA" stroke-miterlimit="10"/>
<path d="M230.965 77.2128C229.271 74.3976 226.112 79.5684 229.338 79.9179" stroke="#F0F2DA" stroke-miterlimit="10"/>
<path d="M227.168 82.623C226.942 80.3871 222.689 81.7516 224.73 84.2461" stroke="#F0F2DA" stroke-miterlimit="10"/>
<path d="M222.291 86.4054C222.07 83.8678 217.121 84.8206 218.768 87.7555" stroke="#F0F2DA" stroke-miterlimit="10"/>
<path d="M217.409 89.9196C215.748 85.151 211.145 92.6917 215.239 91.8108" stroke="#F0F2DA" stroke-miterlimit="10"/>
<path d="M220.121 91.5427C218.974 90.7479 216.593 92.2944 218.494 93.1657" stroke="#F0F2DA" stroke-miterlimit="10"/>
<path d="M223.376 91.0017C221.605 91.0304 221.485 89.4887 221.792 88.0667C222.848 87.6215 224.086 87.4491 224.734 88.5695" stroke="#F0F2DA" stroke-miterlimit="10"/>
<path d="M227.168 88.0285C221.705 87.5497 229.971 81.9144 227.979 86.6783" stroke="#F0F2DA" stroke-miterlimit="10"/>
<path d="M230.691 84.7823C230.207 85.0265 229.755 85.151 229.112 84.7344C228.575 82.7523 230.759 79.7695 232.472 82.0724C232.237 82.3549 232.386 82.5512 232.314 82.8911" stroke="#F0F2DA" stroke-miterlimit="10"/>
<path d="M235.031 81C231.479 81.7277 232.036 77.2846 235.3 78.8359" stroke="#F0F2DA" stroke-miterlimit="10"/>
<path d="M238.012 76.6718C237.575 76.6574 237.114 76.4851 236.697 76.3558C235.765 74.2731 238.742 73.0043 239.097 75.3216" stroke="#F0F2DA" stroke-miterlimit="10"/>
<path d="M103.647 53.5898C102.107 52.0769 102.054 49.8362 101.612 48.0073C101.483 47.471 100.662 46.7098 100.393 46.0634C100.1 45.3692 100.138 44.651 99.788 43.9328C98.996 42.3002 97.2439 41.0458 96.2982 39.4323C95.247 37.6417 95.1366 35.4106 93.9269 33.7348C92.7364 32.0878 91.1908 30.9292 90.0195 29.1242C89.9667 29.0476 89.9187 28.9662 89.8707 28.8848" stroke="#F0F2DA" stroke-miterlimit="10"/>
<path d="M62.2259 30.8382C66.479 32.4517 62.2259 36.8708 61.0067 33.0837" stroke="#F0F2DA" stroke-miterlimit="10"/>
<path d="M60.925 36.0665C62.5907 37.2969 61.3811 40.5239 59.725 38.5801" stroke="#F0F2DA" stroke-miterlimit="10"/>
<path d="M60.469 41.7879C64.1604 38.8386 62.2931 48.1269 60.0994 44.5217" stroke="#F0F2DA" stroke-miterlimit="10"/>
<path d="M61.1123 47.7056C61.4003 47.1119 62.0723 46.5182 62.5859 46.0826C64.7269 47.4854 64.4964 50.1091 61.5011 49.5776" stroke="#F0F2DA" stroke-miterlimit="10"/>
<path d="M63.8532 52.412C63.3108 46.7337 69.6615 52.9339 66.0661 53.0871" stroke="#F0F2DA" stroke-miterlimit="10"/>
<path d="M67.3862 56.7928C67.0982 56.3141 66.983 55.7826 67.055 55.2272C68.2455 54.8969 68.9751 55.4906 69.0087 56.6875" stroke="#F0F2DA" stroke-miterlimit="10"/>
<path d="M71.6681 60.0486C68.1063 59.0336 71.0536 55.0214 72.9353 58.617" stroke="#F0F2DA" stroke-miterlimit="10"/>
<path d="M72.6953 34.5344C70.2904 35.5733 68.3943 37.8236 68.2695 40.6293C68.2023 42.1709 69.3831 43.5019 69.5847 44.9479C69.7527 46.1496 69.2631 47.1167 69.6375 48.4717C69.8392 49.209 70.9288 51.3491 71.5432 51.804C71.7833 51.9811 75.2058 53.269 75.3691 53.2595C77.7548 53.1781 78.6236 50.8321 77.3564 48.644" stroke="#F0F2DA" stroke-miterlimit="10"/>
<path d="M60.7858 29.5742C59.0193 28.947 57.5649 31.2212 59.2977 31.8341" stroke="#F0F2DA" stroke-miterlimit="10"/>
<path d="M58.0833 34.0796C55.5679 33.9886 56.312 37.5172 58.4913 36.2197" stroke="#F0F2DA" stroke-miterlimit="10"/>
<path d="M57.6273 39.7962C54.1087 40.4904 57.7089 44.4355 58.2705 41.3809" stroke="#F0F2DA" stroke-miterlimit="10"/>
<path d="M58.4577 44.3494C58.0689 44.5026 57.5121 45.1441 56.936 45.3021C56.624 46.7002 57.3488 47.6482 58.6257 47.0449" stroke="#F0F2DA" stroke-miterlimit="10"/>
<path d="M60.1666 49.9319C58.4769 50.6741 60.0706 52.3833 61.3523 51.4832" stroke="#F0F2DA" stroke-miterlimit="10"/>
<path d="M62.2979 53.5898C60.277 54.4612 61.8467 57.0275 63.498 55.4092C63.2004 55.5672 64.5445 56.9987 64.1844 57.037C63.906 58.4159 64.2852 59.8139 65.9317 59.5889" stroke="#F0F2DA" stroke-miterlimit="10"/>
<path d="M76.1323 40.9069C73.977 40.0403 71.5192 39.9494 69.6135 40.3994" stroke="#F0F2DA" stroke-miterlimit="10"/>
<path d="M73.9002 60.9917C83.3471 61.0061 84.5856 50.6262 80.2701 44.3494" stroke="#F0F2DA" stroke-miterlimit="10"/>
<path d="M81.5086 42.5252C81.9742 43.2865 82.3535 44.0094 82.6223 44.6223C84.144 48.0743 84.744 52.321 85.0032 56.2327" stroke="#F0F2DA" stroke-miterlimit="10"/>
<path d="M75.3307 36.2532C76.3579 36.641 77.4188 37.4645 78.4172 38.4843" stroke="#F0F2DA" stroke-miterlimit="10"/>
<path d="M52.5582 99.4473C51.9533 99.4569 51.3677 99.4473 50.8349 99.409" stroke="#F0F2DA" stroke-miterlimit="10"/>
<path d="M86.2129 78.2949C85.1616 81.2489 82.7519 83.9923 80.659 86.2713C79.7181 87.2959 78.446 88.0859 77.606 89.1775C76.5979 90.4846 76.2331 92.1795 75.0906 93.3764" stroke="#F0F2DA" stroke-miterlimit="10"/>
<path d="M27.3855 86.4054C25.5086 80.8084 26.9391 76.734 30.6449 72.3484C33.6115 68.839 35.8532 65.6838 40.9415 65.8609" stroke="#F0F2DA" stroke-miterlimit="10"/>
<path d="M27.3856 70.4524C31.0194 65.6599 41.2919 60.4842 45.2138 67.5367C47.7195 72.0372 47.3307 82.3358 42.4296 85.1845C39.3718 86.9608 33.0451 86.0702 35.2436 81.2633" stroke="#F0F2DA" stroke-miterlimit="10"/>
<path d="M33.0787 83.9732C32.3922 81.4739 32.397 79.4679 35.09 78.2613C38.4982 76.7388 39.0694 78.5965 39.3622 81.4931C44.1769 83.9971 44.7673 76.193 41.0519 74.5125C35.9972 72.2239 32.8387 74.4742 30.6737 78.7114C29.3873 81.2298 28.7536 82.7235 29.0128 85.5962" stroke="#F0F2DA" stroke-miterlimit="10"/>
<path d="M43.9225 93.7068C45.0073 92.6965 46.8507 92.6151 47.7195 91.2746" stroke="#F0F2DA" stroke-miterlimit="10"/>
<path d="M41.4455 108.018C41.9208 108.793 42.324 109.612 42.636 110.464C43.7593 113.538 43.6489 117.052 39.5878 117.229C36.0548 117.387 33.7411 114.452 32.4306 111.412C30.9954 108.085 33.6787 106.366 35.7044 107.611" stroke="#F0F2DA" stroke-miterlimit="10"/>
<path d="M62.9988 111.996C62.7636 112.293 62.5427 112.595 62.3411 112.901C60.5074 115.673 60.3106 117.478 57.4593 119.384C53.8831 121.778 50.8493 125.277 47.6619 127.959C43.6057 131.372 40.0583 130.903 35.2484 132.292C30.3953 133.694 28.5136 130.965 25.6863 127.217C23.4109 124.2 20.3964 120.313 18.9851 116.683C18.0538 114.299 16.6521 109.746 17.5546 107.438C21.342 97.762 32.3442 98.8824 38.6998 104.714" stroke="#F0F2DA" stroke-miterlimit="10"/>
<path d="M81.331 91.8156C79.8621 93.5057 78.4316 95.2293 76.9964 96.9529" stroke="#F0F2DA" stroke-miterlimit="10"/>
<path d="M37.0773 106.208C36.7125 105.427 36.3765 104.896 35.6612 104.355C35.2148 104.02 34.9748 103.761 34.442 103.704C33.9091 103.646 33.4531 103.488 32.9443 103.431C32.7235 103.407 32.469 103.507 32.253 103.455C32.0082 103.397 31.9842 103.215 31.7394 103.158C31.4418 103.086 30.6545 103.086 30.3569 103.158C30.1169 103.215 30.0785 103.378 29.8433 103.45C29.6273 103.517 29.3825 103.483 29.1521 103.57C28.7152 103.723 28.36 104.159 27.9472 104.269C27.496 104.388 27.2703 104.283 26.8479 104.527C26.4495 104.757 26.0655 105.049 25.7631 105.399C25.1438 106.122 25.4078 108.219 25.2782 109.123C24.7022 113.198 27.9568 116.827 30.6305 119.403C32.3682 121.079 39.655 125.838 41.2103 124.531" stroke="#F0F2DA" stroke-miterlimit="10"/>
<path d="M33.8947 109.66C34.9412 110.866 35.714 112.949 37.1637 113.428C39.079 114.064 39.8567 113.126 39.9239 111.283C39.9383 110.89 39.511 110.411 39.1942 109.985" stroke="#F0F2DA" stroke-miterlimit="10"/>
<path d="M41.4839 156.7C41.8728 156.762 42.0744 156.527 42.4344 156.451C42.708 156.393 42.9768 156.47 43.2456 156.408C43.5961 156.331 43.8553 156.044 44.1961 155.939C44.5369 155.833 44.9209 155.881 45.281 155.886C45.8042 155.891 46.3418 155.843 46.7931 155.852C47.5419 155.867 48.3243 155.876 49.0828 155.886C49.7644 155.895 50.2876 155.613 50.9693 155.613C51.7853 155.613 52.4142 155.369 53.1342 155.005C53.427 154.856 53.7966 154.737 54.0607 154.536C54.3007 154.354 54.4255 154.086 54.6943 153.908C55.1359 153.612 55.6448 153.406 56.12 153.119C56.6624 152.788 57.1424 152.415 57.7425 152.228C58.4961 151.993 59.4706 152.075 60.3058 152.094C61.0835 152.113 61.7603 152.381 62.5667 152.367C63.3732 152.352 64.0596 152.621 64.8997 152.635C65.2357 152.64 65.4277 152.697 65.7397 152.774C66.2485 152.903 66.1045 152.85 66.4838 152.702C66.7622 152.592 66.8054 152.554 67.0214 152.381C67.3142 152.147 67.7126 151.845 67.9814 151.572C68.1687 151.381 68.4903 150.83 68.5671 150.61C68.6583 150.356 68.5383 150.16 68.7063 149.925C69.0663 149.427 69.8872 149.394 70.42 149.398C70.756 149.398 71.0968 149.418 71.428 149.398C71.8121 149.379 71.9513 149.24 72.2633 149.149C72.9161 148.967 73.545 148.733 74.2122 148.517C74.7594 148.34 75.5323 147.871 76.1755 148.096C76.7707 148.307 77.2076 148.905 77.798 149.121" stroke="#F0F2DA" stroke-miterlimit="10"/>
<path d="M92.4436 109.387C92.2612 110.359 91.9396 111.364 91.7044 112.336C91.2724 114.112 91.2724 116.004 90.7395 117.742C90.6387 118.072 90.5235 118.402 90.3939 118.718C90.0915 119.422 89.9043 120.059 89.6643 120.782C89.3475 121.735 88.7906 122.721 88.3778 123.645C87.701 125.153 87.5138 126.733 86.9617 128.299C86.5345 129.51 86.1745 130.712 85.6657 131.894C85.1808 133.029 84.6048 134.374 84.3696 135.59C83.8367 138.343 84.144 141.202 82.9535 143.816C82.6703 144.438 82.2527 145.037 81.8782 145.606C81.3262 146.435 80.9134 147.301 80.2461 148.053C78.398 150.131 77.6348 152.841 76.5259 155.354C75.7531 157.107 75.2875 158.917 74.6202 160.717C74.3658 161.401 74.0154 162.081 73.8042 162.718C73.5258 163.561 73.281 165.011 72.6521 165.634C72.7385 166.17 72.0425 166.18 71.9129 166.682C71.6297 167.779 71.2456 168.832 70.948 169.924C70.6504 171.015 70.2568 172.069 69.9448 173.141C69.6807 174.046 69.3111 175.032 68.9367 175.904C68.4519 177.019 67.631 178.029 67.2374 179.14C66.5702 181.027 65.4613 182.755 64.9285 184.713C64.7797 185.254 64.7893 185.781 64.6597 186.312C64.5445 186.782 64.5157 187.165 64.5253 187.662C64.5349 188.237 64.4004 188.481 64.2756 189.013C64.1508 189.544 64.2516 190.234 64.2516 190.77" stroke="#F0F2DA" stroke-miterlimit="10"/>
<path d="M43.1112 124.258C43.5961 124.152 43.5865 123.544 43.7785 123.176C43.9945 122.759 44.4169 122.419 44.7961 122.161C45.0649 121.979 45.713 121.562 46.049 121.864C46.241 122.031 46.1162 123.195 46.0442 123.396L45.8186 123.444" stroke="#F0F2DA" stroke-miterlimit="10"/>
<path d="M48.2619 121.284C47.5275 121.462 47.0427 120.293 47.2971 119.786C47.5515 119.278 47.7723 119.379 48.2907 119.389C49.2076 119.408 50.0716 119.168 50.9501 119.144C51.0797 119.705 50.9645 120.174 50.7341 120.638C50.5517 121.007 50.1388 121.337 50.1052 121.768L49.8844 121.821" stroke="#F0F2DA" stroke-miterlimit="10"/>
<path d="M50.158 114.797C50.2348 115.352 50.5373 116.248 50.9741 116.636C51.3437 116.961 52.0253 116.975 52.3182 116.545C52.5102 116.262 52.3278 115.175 52.3278 114.802C52.3278 114.074 52.4334 113.562 51.5165 113.452" stroke="#F0F2DA" stroke-miterlimit="10"/>
<path d="M49.6156 111.551C50.1916 111.541 50.4893 111.637 50.8973 111.225C51.2285 110.89 51.7757 110.21 51.4733 109.717C51.1709 109.224 50.3309 108.999 49.9468 108.592C49.7596 108.391 49.7452 108.104 49.486 107.917C49.2652 107.754 48.9916 107.797 48.7948 107.615C48.6508 107.725 48.5643 107.864 48.5307 108.041" stroke="#F0F2DA" stroke-miterlimit="10"/>
<path d="M48.8044 105.604C49.2604 105.729 50.0044 105.188 50.2348 104.805C50.5997 104.187 50.4365 103.503 50.1628 102.885C49.9852 102.488 49.7356 101.865 49.4236 101.535" stroke="#F0F2DA" stroke-miterlimit="10"/>
<path d="M46.505 96.8571C46.3802 96.771 46.2458 96.7039 46.1066 96.6704C45.6266 96.5459 45.0218 96.7135 44.5273 96.6225C44.2921 96.5794 44.3065 96.3305 43.9849 96.4598C43.7113 96.5699 43.5817 96.9625 43.6537 97.221C43.5337 96.8332 42.732 95.7703 42.78 95.5405C42.8376 95.258 42.8184 95.0857 42.8328 94.7888C42.8568 94.1855 43.2312 93.8791 42.9144 93.3668C42.3 92.371 40.8983 93.07 40.1303 93.4387" stroke="#F0F2DA" stroke-miterlimit="10"/>
<path d="M37.9605 91.8156L38.1862 91.7677C38.3014 91.3655 38.3206 90.633 38.191 90.2308C37.5621 90.1782 37.2501 89.9148 36.6021 89.9196C36.3717 89.9196 36.002 89.8574 35.7764 89.9052C35.4884 89.9675 35.3636 90.2212 35.0276 90.2404L34.9748 90.4606" stroke="#F0F2DA" stroke-miterlimit="10"/>
<path d="M32.5362 89.1105C31.773 88.5312 30.8273 87.9423 29.8193 88.0189C29.3441 88.0524 29.3105 88.1386 29.1424 88.5695C28.984 88.9764 28.8256 89.5797 29.2817 89.9244" stroke="#F0F2DA" stroke-miterlimit="10"/>
<path d="M25.7631 89.3786C25.6719 87.7124 22.7629 88.8184 22.5085 89.9196" stroke="#F0F2DA" stroke-miterlimit="10"/>
<path d="M20.3388 90.4606C20.574 89.527 18.5435 89.1775 18.025 89.527C17.4778 89.8957 16.4649 91.2746 17.6266 91.5427C16.6041 90.6282 13.0183 90.2643 12.3319 91.9496C12.1975 92.2752 11.5927 93.3812 11.6359 93.7211C11.6935 94.1377 12.4615 94.5638 12.7447 94.7888" stroke="#F0F2DA" stroke-miterlimit="10"/>
<path d="M9.49494 95.3298C9.04852 95.3969 8.6885 94.9516 8.29488 95.0713C8.17487 95.1096 7.67084 95.5213 7.58924 95.5932C7.46443 95.7129 7.13321 95.981 7.10921 96.2108C7.06601 96.6177 7.35882 96.7518 7.35882 97.1779C7.81965 97.3216 9.01972 97.3886 9.45174 97.1779L9.49014 96.9529" stroke="#F0F2DA" stroke-miterlimit="10"/>
<path d="M5.70272 98.5712C5.4051 98.4946 4.89147 98.7723 4.61786 98.9015C4.11383 99.1409 3.94102 99.4904 3.82581 100.055C3.6146 101.09 3.81621 101.774 4.88667 102.023C5.83233 102.239 6.44676 102.473 7.31561 102.076C7.77644 101.865 7.56523 102.229 7.93965 101.832C8.10286 101.659 8.14606 101.329 8.27086 101.128C8.41007 100.908 9.08211 100.209 8.40527 100.194" stroke="#F0F2DA" stroke-miterlimit="10"/>
<path d="M2.17933 103.708L1.95371 103.756C1.82891 104.695 1.24327 105.734 1.36328 106.691C1.46409 107.5 2.11692 108.271 2.85136 108.611C4.06103 109.171 4.89628 108.472 5.79873 107.62C6.19715 107.247 6.20195 106.969 6.30756 106.476C6.37956 106.15 6.47557 106.337 6.46597 105.94C6.46117 105.738 6.13475 105.705 6.24996 105.332" stroke="#F0F2DA" stroke-miterlimit="10"/>
<path d="M17.9002 145.889C17.3482 146.516 16.3401 145.76 15.8553 146.416C15.3705 147.072 15.9753 147.933 16.0089 148.589C16.0521 149.437 16.0329 149.734 16.7482 150.284C17.5066 150.873 18.6779 151.079 19.3355 151.792C20.3772 151.553 19.6091 149.494 19.5275 148.862" stroke="#F0F2DA" stroke-miterlimit="10"/>
<path d="M13.292 140.479C12.7543 140.479 12.1735 140.56 11.6503 140.421C11.1558 140.287 10.9878 140.081 10.575 140.536C9.98937 141.178 9.81176 142.456 10.3734 143.198C10.8966 143.888 12.3991 143.964 13.1767 143.734C13.5224 143.634 13.7384 143.466 14.0024 143.193C14.4728 142.71 14.3624 142.509 14.3768 141.834" stroke="#F0F2DA" stroke-miterlimit="10"/>
<path d="M9.76855 136.155C9.78296 135.476 8.91891 135.26 8.41488 135.136C7.73804 134.968 7.37802 135.064 6.9556 135.614C6.72038 135.916 6.25956 136.423 6.22595 136.826C6.18755 137.271 6.94119 138.205 7.33002 138.324" stroke="#F0F2DA" stroke-miterlimit="10"/>
<path d="M6.24516 128.045C6.9172 128.035 6.15396 126.316 6.00515 125.996C5.76513 125.479 5.63073 125.34 5.03069 125.201C3.66262 124.885 3.07218 126.35 2.78417 127.504C2.50575 128.615 2.87057 129.721 3.26419 130.75C3.4034 131.114 3.4466 131.952 3.72502 132.186C4.15704 132.545 4.85788 131.631 5.42912 131.559" stroke="#F0F2DA" stroke-miterlimit="10"/>
<path d="M4.34426 119.12C4.35386 118.675 4.31545 118.445 4.13784 118.034C3.91223 117.507 4.15224 117.469 3.48981 117.555C2.98098 117.622 1.70411 117.631 1.41609 118.096C1.15687 118.512 1.35849 119.728 1.36329 120.212C1.36329 120.633 1.26248 121.165 1.34889 121.572C1.42569 121.931 1.6369 122.223 1.6801 122.601C2.16013 122.644 2.61616 122.764 3.00978 123.07L2.99058 122.912" stroke="#F0F2DA" stroke-miterlimit="10"/>
<path d="M1.6369 112.092C0.696044 112.427 0.10561 113.552 0.26882 114.524C0.46083 115.664 1.38728 116.075 2.44814 115.889C3.509 115.702 3.61461 114.692 3.83062 113.844C3.98903 113.227 4.08984 113.356 3.66741 112.901C3.437 112.657 3.06738 112.422 2.99057 112.087" stroke="#F0F2DA" stroke-miterlimit="10"/>
<path d="M25.4894 151.835C24.5246 151.682 24.0062 150.806 22.9885 150.749C22.8205 150.739 22.3501 150.662 22.2013 150.734C21.9516 150.849 22.0764 150.911 21.9276 151.127C21.702 151.457 21.654 151.677 21.6876 152.108C21.7596 153.138 22.1004 153.521 23.0509 153.865C24.0014 154.21 24.5342 154.746 25.4894 154.272" stroke="#F0F2DA" stroke-miterlimit="10"/>
<path d="M33.3523 155.35C32.9491 154.833 32.2434 154.564 31.7106 154.263C31.2642 154.009 30.9234 153.751 30.3713 153.722C29.3057 153.664 28.4032 154.119 29.2145 155.149C30.0257 156.178 30.6833 156.436 31.941 156.432C33.1075 156.432 33.9475 156.398 34.9844 155.891" stroke="#F0F2DA" stroke-miterlimit="10"/>
<path d="M78.0764 181.577C77.8844 181.031 77.4044 180.385 76.8331 180.251C76.1419 180.088 75.2731 180.232 75.081 181.027C74.9946 181.386 74.9898 181.75 74.8842 182.123C74.7546 182.587 74.8938 182.635 75.0282 182.994C75.3595 183.885 75.9499 184.292 76.9435 183.971L76.9916 183.746" stroke="#F0F2DA" stroke-miterlimit="10"/>
<path d="M72.1145 184.55C71.188 184.546 70.6264 185.039 70.1464 185.829C69.7864 186.418 70.204 187.212 70.7512 187.658C71.2456 188.06 72.4985 188.476 73.0745 188.213C74.001 187.787 73.7418 186.47 73.7418 185.632" stroke="#F0F2DA" stroke-miterlimit="10"/>
<path d="M68.3175 187.797C67.7894 187.662 66.8102 188.347 66.6758 188.864C66.4694 189.664 66.815 190.454 67.3622 190.909C67.9094 191.363 68.5383 191.77 69.2631 191.837C69.5271 191.861 70.2904 191.689 70.5016 191.536C70.7896 191.325 70.8664 190.808 71.0248 190.502" stroke="#F0F2DA" stroke-miterlimit="10"/>
<path d="M65.0677 192.12C64.3428 192.153 63.762 193.37 64.026 194.011C64.3092 194.701 65.3509 195.356 65.9845 195.668C66.3158 195.83 66.4886 195.802 66.839 195.898C67.079 195.965 67.3814 196.218 67.6118 196.166C68.2263 196.027 68.3319 194.753 68.3223 194.284C68.3223 194.715 70.0072 195.438 69.8872 195.845C69.8488 195.974 69.7095 196.123 69.6663 196.3C69.6231 196.486 69.6759 196.798 69.6759 196.984C69.6759 197.387 69.5607 197.861 69.8199 198.181C70.0264 198.435 70.852 198.732 71.1736 198.756C71.5385 198.785 71.7017 198.655 72.1049 198.603C72.5417 198.545 73.0217 198.631 73.4634 198.612C73.9674 198.593 74.5002 198.435 74.241 197.793C74.1114 197.468 73.4922 196.807 73.1897 196.711" stroke="#F0F2DA" stroke-miterlimit="10"/>
<path d="M79.9773 177.79C79.3581 177.728 79.1853 178.719 79.1565 179.14C79.1133 179.834 79.3341 180.404 79.8285 180.912C80.3229 181.419 80.6974 181.438 81.1966 181.036C81.6958 180.634 81.5902 180.304 81.5998 179.681" stroke="#F0F2DA" stroke-miterlimit="10"/>
<path d="M84.5856 174.817C84.0672 175.08 81.6766 175.688 82.1806 176.651C82.2287 176.737 82.8911 177.187 82.9583 177.249C83.1887 177.464 83.4143 177.833 83.7839 177.824C84.1872 177.814 84.6096 177.235 85.0704 177.196L85.1232 176.976" stroke="#F0F2DA" stroke-miterlimit="10"/>
<path d="M88.6514 172.653C88.013 172.653 86.8081 172.394 86.4721 172.902C86.1361 173.409 86.5681 174.692 86.9521 175.104C87.3073 175.482 88.2194 175.434 88.709 175.43C89.1987 175.425 89.8947 175.109 90.0051 174.544" stroke="#F0F2DA" stroke-miterlimit="10"/>
<path d="M91.9012 170.221C91.3828 170.321 90.9747 171.212 90.8787 171.633C90.7107 172.394 91.0996 172.614 91.762 172.897C92.3188 173.131 93.1733 173.476 93.6053 172.945C94.0133 172.447 93.7973 171.365 93.7973 170.762" stroke="#F0F2DA" stroke-miterlimit="10"/>
<path d="M94.887 168.87C94.5557 169.162 94.3829 170.857 94.6566 171.25C95.0502 171.81 96.4279 171.982 97.0567 171.863C97.7191 171.738 98.54 170.781 98.4248 170.077C98.3528 169.636 98.2232 169.612 97.8823 169.416C97.4455 169.162 96.9127 168.947 96.5143 168.597" stroke="#F0F2DA" stroke-miterlimit="10"/>
<path d="M100.038 166.974C99.7784 167.788 98.4056 169.641 100.086 169.976C100.321 170.024 101.151 169.766 101.406 169.689C101.631 169.622 102.006 169.507 102.203 169.426C103.239 168.99 102.471 168.578 102.423 167.841L102.203 167.788C102.807 168.593 104.252 168.976 105.592 168.473C105.865 168.368 106.561 168.114 106.571 167.788C106.58 167.463 106.062 167.314 105.995 166.979C105.928 167.233 107.536 166.749 107.675 166.974C107.886 167.319 108.049 167.424 108.179 167.798C108.251 167.999 108.117 168.138 108.289 168.349C109.091 169.325 109.806 167.3 109.792 166.711" stroke="#F0F2DA" stroke-miterlimit="10"/>
<path d="M74.2842 189.956C73.7226 190.061 72.9353 190.363 72.5177 190.755C71.6585 191.565 72.3593 192.335 72.8153 193.092C73.3913 194.049 74.1354 194.404 75.1579 194.748C75.6091 194.902 75.9787 195.074 76.4539 195.098C76.8139 195.117 77.2988 194.954 77.558 195.261C77.4956 194.581 77.5388 193.882 77.5388 193.197" stroke="#F0F2DA" stroke-miterlimit="10"/>
<path d="M76.9964 187.524C76.1131 187.725 76.1947 189.582 76.7131 190.099C76.9628 190.348 77.7356 190.688 78.0812 190.837C78.3692 190.961 78.6285 190.942 78.9069 191.028C79.1277 191.095 79.1901 191.268 79.4205 191.32C80.6782 191.617 81.8974 191.119 81.5422 189.683C81.4174 189.175 81.1726 188.754 80.7886 188.39C80.4046 188.026 79.5837 187.749 79.4349 187.251" stroke="#F0F2DA" stroke-miterlimit="10"/>
<path d="M81.8734 183.2C80.8078 183.411 80.467 185.345 80.827 186.178C81.139 186.896 81.8638 186.81 82.4159 187.021C83.0159 187.251 83.3471 188.098 83.9664 188.304C84.1824 187.945 84.6432 187.552 84.8016 187.188C84.96 186.825 84.8496 186.293 84.8544 185.896C84.8592 185.393 84.5136 183.942 83.7695 184.005" stroke="#F0F2DA" stroke-miterlimit="10"/>
<path d="M87.0241 179.413C86.0881 179.576 85.2288 180.15 84.312 180.428C83.7791 180.591 83.3279 180.572 83.2127 181.161C83.1359 181.558 83.3567 182.257 83.5583 182.597C84.1536 183.588 84.9792 183.555 85.9345 183.799C86.8897 184.043 87.8594 184.282 87.8306 182.927" stroke="#F0F2DA" stroke-miterlimit="10"/>
<path d="M91.0899 177.249C90.5235 177.168 89.8707 177.622 89.3955 177.728C88.9202 177.833 88.2962 177.637 87.821 177.776C86.5873 178.135 87.7058 179.734 88.2098 180.227C88.997 181.003 89.8563 181.472 90.9555 181.17C91.3588 181.06 91.8244 180.859 92.17 180.639C92.8324 180.217 92.698 179.858 92.7124 179.14" stroke="#F0F2DA" stroke-miterlimit="10"/>
<path d="M95.6982 174.817C94.863 174.831 94.0325 174.879 93.4613 175.554C92.6596 176.507 93.0725 177.316 93.9605 178.073C94.4549 178.489 95.4102 179.327 96.1062 179.135C97.0039 178.891 97.2871 177.522 97.0039 176.756L96.7783 176.708" stroke="#F0F2DA" stroke-miterlimit="10"/>
<path d="M100.575 172.926C99.7448 172.906 98.6168 173.184 97.8535 173.462C96.7831 173.845 97.5175 175.099 97.8679 175.77C98.3096 176.622 98.7992 177.211 99.7688 176.852C100.594 176.545 101.142 175.99 101.123 175.09" stroke="#F0F2DA" stroke-miterlimit="10"/>
<path d="M104.646 171.303C104.156 171.37 103.734 171.724 103.292 171.915C102.851 172.107 102.371 172.145 101.991 172.452C101.262 173.045 101.694 173.783 101.876 174.544C102.001 175.056 101.852 175.377 102.471 175.573C102.793 175.674 103.364 175.731 103.676 175.607C104.569 175.253 104.377 174.233 104.372 173.467" stroke="#F0F2DA" stroke-miterlimit="10"/>
<path d="M107.896 170.762C106.883 170.762 105.323 170.417 105.164 171.844C105.112 172.322 105.438 172.887 105.779 173.199C106.484 173.84 106.84 173.007 107.622 172.926" stroke="#F0F2DA" stroke-miterlimit="10"/>
<path d="M97.5943 166.433C97.8055 165.797 98.2568 165.222 98.4728 164.542C98.6024 164.135 98.6888 163.901 98.6792 163.46C98.66 162.867 98.6504 162.756 99.0776 162.378C99.6152 161.899 99.9849 161.243 100.474 160.779C100.537 160.722 100.71 160.76 100.782 160.702C100.911 160.607 100.959 160.377 101.103 160.272C101.492 159.994 102.035 159.831 102.471 159.673C103.191 159.414 103.959 159.233 104.641 158.936C105.251 158.668 105.908 158.184 106.523 158.036C107.272 157.858 107.963 158.332 108.707 158.318C109.576 158.304 109.936 158.672 110.737 158.859C111.683 159.079 112.509 159.06 113.483 159.118C113.939 159.146 114.294 159.333 114.736 159.405C115.235 159.486 115.768 159.462 116.234 159.73C116.843 160.08 117.319 160.698 117.914 161.09C118.149 161.243 118.408 161.387 118.634 161.531C119.061 161.808 119.037 161.914 119.33 162.373C119.743 163.02 120.29 163.566 120.631 164.25C121.005 165.002 120.967 165.945 121.576 166.544C121.961 166.917 122.474 167.199 122.801 167.645C123.242 168.243 123.055 168.947 122.993 169.675C122.925 170.479 123.405 171.149 123.813 171.853C124.049 172.26 124.207 172.222 124.13 172.758C124.106 172.916 123.933 172.921 123.905 173.079C123.861 173.299 123.914 173.519 123.89 173.74C123.789 174.539 123.444 174.913 123.914 175.727C124.385 176.54 124.677 176.813 124.697 177.785" stroke="#F0F2DA" stroke-miterlimit="10"/>
<path d="M113.32 128.586C113.234 129.175 113.574 129.917 113.757 130.467C114.093 131.463 114.246 132.421 114.458 133.445C114.688 134.571 115.245 135.557 115.567 136.649C115.739 137.237 115.859 137.769 116.128 138.329C116.57 139.239 116.858 140.211 117.079 141.192C117.213 141.795 117.333 142.289 117.376 142.897C117.41 143.375 117.573 143.801 117.631 144.271C117.688 144.702 117.592 145.128 117.64 145.559C117.751 146.621 118.173 147.637 118.408 148.652C118.61 149.518 118.303 150.433 118.456 151.294C118.605 152.147 118.932 153.004 119.023 153.861C119.071 154.325 119.071 154.617 119.215 155.077C119.349 155.484 119.628 156.001 119.551 156.427" stroke="#F0F2DA" stroke-miterlimit="10"/>
<path d="M133.918 126.149C133.937 126.757 134.35 127.456 134.523 128.04C134.753 128.82 135.233 129.51 135.545 130.257C136.193 131.789 136.957 133.321 137.518 134.882C137.893 135.926 138.113 136.941 138.32 138.032C138.445 138.698 138.689 139.301 138.905 139.938C139.184 140.752 139.261 141.633 139.587 142.432C140.12 143.744 141.094 145.003 141.92 146.148C142.746 147.292 143.576 148.412 144.171 149.619C145.347 152.008 145.367 154.914 146.048 157.451C146.552 159.319 147.484 161.152 148.026 162.905C148.472 164.346 148.079 165.864 149.375 166.989C149.778 167.338 150.244 167.745 150.729 167.922C151.012 168.028 151.233 167.994 151.545 168.042C152.034 168.119 152.409 168.492 152.893 168.602C153.469 168.736 154.578 169.124 155.078 168.722C155.37 168.487 155.39 167.884 155.596 167.573C155.918 167.08 156.436 166.687 156.849 166.275C157.679 165.447 158.687 164.648 159.417 163.728C159.647 163.441 159.955 163.13 160.156 162.857C160.478 162.426 160.55 161.885 160.886 161.459C161.558 160.616 161.841 159.726 162.369 158.787C163.099 157.499 164.246 156.441 165.201 155.359C166.08 154.359 167.136 153.013 167.745 151.826C168.293 150.768 168.672 149.628 169.282 148.608C169.829 147.694 170.381 146.602 171.11 145.817C171.975 144.884 172.675 143.912 173.213 142.753C173.899 141.269 174.624 139.799 175.316 138.329C175.848 137.199 176.52 136.155 177.015 135.006C177.26 134.437 177.524 133.972 177.836 133.45C178.095 133.015 178.176 132.526 178.431 132.091C179.237 130.721 180.202 129.323 180.274 127.71C180.346 126.096 180.361 124.473 180.274 122.903C180.058 119.02 173.832 120.509 171.595 121.476C171.23 121.634 170.861 121.826 170.51 122.017C169.973 122.309 169.661 122.793 169.157 123.118C168.475 123.554 167.793 123.932 167.136 124.42C165.921 125.316 164.246 126.671 164.28 128.308" stroke="#F0F2DA" stroke-miterlimit="10"/>
<path d="M146.932 153.186C147.575 152.434 147.868 151.61 148.693 151.021C149.36 150.547 150.172 150.251 150.997 150.208C152.284 150.136 154.233 149.92 155.337 150.485" stroke="#F0F2DA" stroke-miterlimit="10"/>
<path d="M151.809 142.102C151.405 142.02 151.199 141.542 150.954 141.25C150.465 140.665 149.912 140.144 149.408 139.583C148.837 138.947 148.314 138.195 147.805 137.51C147.407 136.974 147.143 136.376 146.668 135.887C146.418 135.634 146.043 135.375 145.832 135.092C145.578 134.753 145.549 134.336 145.314 133.982C144.627 132.948 143.845 132.019 143.274 130.884C142.64 129.62 142.155 128.332 141.522 127.068C140.946 125.909 139.832 125.005 139.405 123.731C139.001 122.539 138.872 121.17 138.809 119.93C138.757 118.862 138.137 117.651 137.792 116.626C137.537 115.869 137.278 115.506 136.76 114.931C136.472 114.606 135.536 113.576 135.545 113.174" stroke="#F0F2DA" stroke-miterlimit="10"/>
<path d="M164.822 120.471C163.752 121.514 162.988 122.893 162.105 124.1C161.769 124.555 161.577 125.11 161.232 125.555C160.886 126 160.425 126.388 160.075 126.824C159.787 127.188 159.595 127.6 159.331 127.968C158.99 128.442 158.75 128.868 158.524 129.39C158.092 130.396 157.401 131.19 157.089 132.234C156.758 133.335 156.954 134.724 156.954 135.887C156.954 137.194 156.93 138.114 157.694 139.191C158.515 140.349 159.931 140.565 161.164 141.025C161.668 141.211 162.048 141.307 162.643 141.297C163.329 141.283 163.857 141.575 164.539 141.566C165.398 141.551 166.267 141.613 167.126 141.566C167.688 141.537 168.346 141.264 168.888 141.025C169.43 140.785 169.934 140.584 170.496 140.484C171.221 140.354 172.085 140.196 172.671 139.674" stroke="#F0F2DA" stroke-miterlimit="10"/>
<path d="M177.836 124.799C176.664 124.765 175.709 125.148 174.639 125.55C174.216 125.708 173.76 125.751 173.352 125.881C172.944 126.01 172.786 126.13 172.411 126.364C171.317 127.049 170.074 127.365 169.09 128.241C168.153 129.074 167.193 129.711 166.44 130.75C165.792 131.64 164.909 132.407 164.275 133.316C164.078 133.599 164.14 133.709 164.016 134.001C163.977 134.092 163.689 134.446 163.704 134.537C163.756 134.839 165.038 135.059 165.365 135.078C165.984 135.112 166.541 135.092 167.059 134.867C167.539 134.657 167.995 134.48 168.485 134.264C169.594 133.766 170.818 133.45 171.874 132.909C172.383 132.651 172.944 132.359 173.501 132.158C173.995 131.98 175.008 131.88 175.128 131.286" stroke="#F0F2DA" stroke-miterlimit="10"/>
<path d="M126.602 179.145C126.866 179.935 127.735 180.639 128.148 181.367C128.494 181.979 128.95 182.113 129.598 182.329C129.991 182.458 130.807 182.956 131.177 182.903C131.302 182.52 130.985 181.764 130.894 181.357L130.668 181.309" stroke="#F0F2DA" stroke-miterlimit="10"/>
<path d="M134.46 185.632C134.004 186.054 133.371 186.193 133.635 186.997C133.798 187.5 134.422 187.682 134.729 188.108C135.123 188.654 135.521 189.357 135.814 189.946C136.011 190.344 136.059 190.894 136.558 191.014C136.937 190.468 137.403 189.558 137.182 188.864C137.086 188.558 136.861 188.529 136.688 188.285C136.544 188.079 136.395 187.509 136.357 187.256" stroke="#F0F2DA" stroke-miterlimit="10"/>
<path d="M139.069 188.338L139.294 188.385C139.4 189.199 139.822 189.764 140.221 190.506C140.542 191.115 141.258 191.632 141.286 192.35C141.69 192.469 142.174 192.383 142.597 192.388C143.158 192.398 143.442 192.503 143.427 191.861C143.403 190.789 142.381 189.812 142.054 188.874" stroke="#F0F2DA" stroke-miterlimit="10"/>
<path d="M144.219 188.338C144.234 188.859 144.647 189.42 144.839 189.898C144.983 190.262 145.117 190.617 145.299 190.966C145.683 191.703 146.135 192.431 146.466 193.202C146.831 194.059 146.764 194.456 147.748 193.944C148.319 193.642 148.808 193.427 149.236 192.929C150.052 191.981 150.076 191.11 149.514 189.956C149.197 189.309 147.196 186.557 146.932 188.606" stroke="#F0F2DA" stroke-miterlimit="10"/>
<path d="M161.299 176.981C160.684 177.541 159.911 177.723 159.254 178.163C158.596 178.604 158.582 178.891 158.587 179.686C158.591 180.466 158.447 181.003 159.139 181.525C159.609 181.879 160.156 182.094 160.756 182.128C161.827 182.185 163.622 182.157 164.232 181.055C164.467 180.634 164.448 179.552 164.222 179.15C163.79 178.379 163.286 177.608 162.652 176.986" stroke="#F0F2DA" stroke-miterlimit="10"/>
<path d="M155.606 182.659C154.041 182.659 152.193 183.152 151.602 184.823C151.194 185.977 151.036 187.299 152.485 187.667C153.935 188.036 155.625 188.361 157.103 187.768C157.809 187.485 158.03 187.054 158.188 186.312C158.294 185.819 158.179 184.689 157.507 184.555" stroke="#F0F2DA" stroke-miterlimit="10"/>
<path d="M166.718 171.303C166.56 171.848 165.59 172.279 165.283 172.863C165.158 173.103 165.201 173.232 165.101 173.471C165.019 173.663 164.841 173.783 164.803 173.989C164.601 175.08 166.157 176.311 167.126 176.177C168.024 176.047 169.31 175.219 169.805 174.544C170.611 173.452 170.784 172.375 170.784 171.03" stroke="#F0F2DA" stroke-miterlimit="10"/>
<path d="M169.973 163.192C169.896 163.896 169.387 164.662 169.219 165.351C169.099 165.845 168.941 166.218 168.883 166.697C168.758 167.664 169.19 169.004 170.237 169.354C170.645 169.488 171.49 169.531 171.874 169.368C172.325 169.177 172.738 168.224 172.949 167.803C173.223 167.266 173.213 166.749 173.218 166.165C173.218 165.964 173.319 165.591 173.179 165.409C172.939 165.093 172.498 165.275 172.407 164.815" stroke="#F0F2DA" stroke-miterlimit="10"/>
<path d="M172.143 157.241C170.606 157.207 169.262 158.572 169.906 160.013C170.376 161.062 171.053 162.469 172.411 162.383C173.458 162.316 173.674 161.698 174.365 161.081C174.567 160.899 174.855 160.88 175.061 160.702C175.344 160.453 175.652 159.97 175.882 159.659C176.492 158.835 176.938 156.891 175.392 156.7" stroke="#F0F2DA" stroke-miterlimit="10"/>
<path d="M175.124 149.13C174.691 149.623 173.458 149.681 172.896 149.877C172.003 150.188 171.922 150.662 172.138 151.563C172.44 152.822 173.947 154.387 175.263 154.545C176.031 154.636 176.559 154.55 177.149 154.1C177.677 153.698 178.474 153.478 178.93 153.061C179.434 152.597 179.636 151.922 179.069 151.448C178.565 151.026 177.672 150.595 177.024 150.48" stroke="#F0F2DA" stroke-miterlimit="10"/>
<path d="M177.562 142.643C176.645 142.643 174.619 142.226 174.091 143.237C173.885 143.634 173.991 144.639 174.101 145.075C174.279 145.812 174.696 146.08 175.047 146.693C175.344 147.21 175.685 147.823 176.266 147.991C176.847 148.158 177.596 147.986 178.114 147.79C179.309 147.34 179.765 146.057 179.41 144.855L179.185 144.807" stroke="#F0F2DA" stroke-miterlimit="10"/>
<path d="M179.458 138.047L179.42 138.267C178.757 138.497 178.08 138.549 177.452 138.86C177.144 139.009 176.655 139.229 176.501 139.559C176.256 140.072 176.597 140.732 176.948 141.101C177.26 141.427 177.754 141.91 178.1 142.121C177.898 142.001 178.873 142.351 178.709 142.317C178.988 142.37 179.165 142.384 179.463 142.375C180.063 142.356 180.413 142.317 180.889 141.901C181.148 141.676 181.541 141.355 181.642 141.034C181.796 140.536 181.661 139.789 181.085 139.67" stroke="#F0F2DA" stroke-miterlimit="10"/>
<path d="M183.798 134.532L183.759 134.307C183.313 134.111 182.41 134.03 181.901 133.987C181.393 133.943 181.028 134.02 180.74 134.461C180.197 135.289 180.826 136.538 181.479 137.127C182.444 137.994 183.481 138.884 184.815 138.391C185.252 138.233 185.828 137.999 185.972 137.52C186.102 137.089 185.958 136.333 185.958 135.882" stroke="#F0F2DA" stroke-miterlimit="10"/>
<path d="M187.052 128.586C186.582 128.82 186.174 129.093 185.699 129.338C185.223 129.582 184.306 129.639 184.105 130.204C183.956 130.621 184.369 131.708 184.537 132.1C184.858 132.852 185.19 132.904 185.843 133.316C186.889 133.977 187.638 133.714 188.612 133.12C189.097 132.823 189.827 132.186 189.721 131.554C189.664 131.19 189.011 130.544 188.679 130.477" stroke="#F0F2DA" stroke-miterlimit="10"/>
<path d="M190.576 123.99C189.98 123.975 188.867 124.104 188.665 124.789C188.463 125.469 188.521 126.642 189.217 126.905C189.568 127.039 189.956 127.13 190.312 127.245C190.556 127.322 190.998 127.523 191.252 127.528C191.684 127.537 191.766 127.269 191.929 126.968C192.222 126.436 192.035 126.479 191.929 125.886" stroke="#F0F2DA" stroke-miterlimit="10"/>
<path d="M190.844 116.415C190.115 116.401 189.515 116.655 189.683 117.502C189.822 118.215 191.243 119.556 191.929 119.657C190.82 119.772 189.323 121.045 190.436 122.103C190.816 122.462 191.286 122.606 191.79 122.635C192.693 122.687 193.019 122.778 193.014 121.821" stroke="#F0F2DA" stroke-miterlimit="10"/>
<path d="M181.359 156.7C180.903 156.709 180.701 156.638 180.351 156.47C179.804 157.045 179.564 157.131 179.329 157.921C179.146 158.529 178.916 158.754 178.921 159.405C178.925 160.023 179.06 160.439 179.199 161.028C179.391 161.842 179.309 162.115 180.274 162.11" stroke="#F0F2DA" stroke-miterlimit="10"/>
<path d="M178.647 164.542C178.229 164.552 177.759 164.226 177.461 164.284C177.02 164.37 176.703 165.002 176.54 165.361C176.175 166.151 175.714 167.175 175.661 168.056C175.608 168.875 175.22 170.201 176.482 169.962C177.442 169.78 178.128 169.325 178.109 168.325" stroke="#F0F2DA" stroke-miterlimit="10"/>
<path d="M175.123 172.112L175.075 171.887C173.045 171.145 171.879 174.012 171.048 175.348C170.88 175.616 170.4 176.344 170.549 176.646C170.774 177.105 171.749 176.976 172.138 176.976C173.179 176.981 173.789 176.095 173.765 175.085" stroke="#F0F2DA" stroke-miterlimit="10"/>
<path d="M170.242 180.222C170.39 179.6 169.757 179.001 169.282 178.867C168.739 178.714 167.385 178.336 166.829 178.614C166.157 178.944 165.753 180.194 165.427 180.83C165.216 181.247 165.009 181.63 165.086 182.123C165.197 182.856 165.489 182.76 166.176 182.918C166.737 183.052 167.184 183.334 167.803 183.21C168.269 183.114 169.051 182.717 168.888 182.113" stroke="#F0F2DA" stroke-miterlimit="10"/>
<path d="M166.992 186.442C167.294 185.063 164.635 184.565 163.737 184.34C162.681 184.072 161.745 184.321 160.857 184.785C160.252 185.101 160.209 185.163 160.214 185.901C160.214 186.552 160.075 186.949 160.689 187.332C161.136 187.61 161.611 187.662 162.11 187.787C162.369 187.849 162.667 188.108 162.936 188.093C163.296 188.069 163.272 187.662 163.732 187.797" stroke="#F0F2DA" stroke-miterlimit="10"/>
<path d="M161.568 191.852C161.03 190.779 160.636 189.812 159.34 189.482C158.236 189.199 157.238 189.032 156.153 189.415C155.26 189.726 153.628 190.277 154.305 191.531C154.53 191.952 155.433 192.335 155.874 192.407C156.22 192.465 156.614 192.364 156.964 192.388C157.315 192.412 157.449 192.647 157.771 192.398" stroke="#F0F2DA" stroke-miterlimit="10"/>
<path d="M181.901 151.294C180.869 149.973 180.111 152.621 180.298 153.324C180.572 154.349 181.637 154.459 182.165 155.235C182.338 155.086 182.554 155.082 182.694 154.928C182.814 154.799 182.962 154.181 182.986 153.995" stroke="#F0F2DA" stroke-miterlimit="10"/>
<path d="M183.524 145.348C182.785 145.501 182.674 144.855 182.002 145.338C181.33 145.822 181.532 146.042 181.373 146.712C181.316 146.952 181.095 146.985 181.066 147.23C181.013 147.665 181.186 147.536 181.292 147.838C181.479 148.383 181.589 148.723 182.031 149.13C182.473 149.537 183.01 149.652 183.471 150.006C183.802 150.265 183.884 150.682 184.34 150.571C184.705 150.485 185.022 149.604 185.094 149.336C185.223 148.848 185.252 148.029 185.108 147.55L184.882 147.502" stroke="#F0F2DA" stroke-miterlimit="10"/>
<path d="M187.321 140.752C185.684 140.752 182.938 141.623 184.071 143.739C184.422 144.395 185.233 144.639 185.972 144.544C186.51 144.472 186.505 144.314 186.913 143.993C187.211 143.758 187.532 143.634 187.863 143.457" stroke="#F0F2DA" stroke-miterlimit="10"/>
<path d="M191.118 135.341C191.435 134.384 190.23 134.939 189.899 135.073C189.107 135.394 188.771 135.389 188.401 136.17C188.243 136.505 187.935 136.864 187.849 137.223C187.691 137.908 188.175 138.228 188.175 138.813C188.555 138.971 189.035 138.937 189.424 139.081C189.625 138.774 190.244 138.77 190.576 138.588" stroke="#F0F2DA" stroke-miterlimit="10"/>
<path d="M193.557 130.477C193.441 129.96 192.784 129.922 192.332 129.931C191.862 129.941 191.603 130.242 191.161 130.252C191.08 130.922 190.71 131.277 190.969 131.961C191.358 133.005 191.924 132.651 192.697 133.067L192.745 132.909" stroke="#F0F2DA" stroke-miterlimit="10"/>
<path d="M193.825 124.531C193.931 124.894 193.379 125.637 193.249 125.996C193.014 126.652 192.894 126.834 193.278 127.504C193.561 127.997 193.993 128.911 194.656 128.399C195.035 128.107 194.963 127.408 195.179 126.963" stroke="#F0F2DA" stroke-miterlimit="10"/>
<path d="M166.449 118.579C166.91 118.431 167.4 117.986 167.803 117.703C168.341 117.33 168.648 117.22 169.282 117.095C169.877 116.98 170.429 116.956 171.053 116.961C171.47 116.961 172.162 117.095 172.555 116.947C173.035 116.765 173.045 116.315 173.285 115.946C173.525 115.577 173.919 115.233 174.293 115.003C175.181 114.457 176.002 114.242 177.015 114.256C177.898 114.27 178.608 113.806 179.449 113.71C180.557 113.581 181.561 113.447 182.722 113.447C183.231 113.447 183.793 113.365 184.273 113.509C184.556 113.595 184.83 113.935 185.132 114.002C185.756 114.141 188.027 113.538 188.127 114.529" stroke="#F0F2DA" stroke-miterlimit="10"/>
<path d="M88.109 75.0487C88.8434 74.4885 89.6355 74.0959 90.3315 73.4975C91.1716 72.7793 91.9588 71.9223 92.5828 70.9934C92.6836 70.8402 92.794 70.5721 92.9141 70.4381C93.1685 70.1556 93.2021 70.3327 93.4709 70.1221C93.7829 69.8779 94.0805 69.5427 94.3493 69.2651C94.6566 68.9538 94.8438 68.6331 95.0886 68.2836C95.3334 67.934 95.8374 67.6899 95.6982 67.2111" stroke="#F0F2DA" stroke-miterlimit="10"/>
<path d="M84.5856 108.846C84.6192 110.162 84.3648 111.618 84.1008 112.901C83.8703 114.045 83.8799 115.276 83.7791 116.434C83.6543 117.856 83.8463 119.278 83.5583 120.729C83.3663 121.687 83.5199 122.299 83.0303 123.176C82.7807 123.626 82.4111 123.894 82.1278 124.315C81.8446 124.736 81.7486 125.23 81.5374 125.665C81.283 126.202 80.923 126.92 80.5342 127.298C80.2989 127.523 79.9101 127.695 79.6461 127.94C78.9501 128.595 78.494 129.381 78.062 130.223C77.1308 132.028 75.8395 133.56 74.8842 135.346C74.4906 136.079 74.6778 136.605 74.529 137.367C74.457 137.721 74.2938 137.936 74.2746 138.315C74.2554 138.659 74.3562 139.057 74.2938 139.397C74.1018 140.479 73.6314 141.379 73.1945 142.356C72.9449 142.911 72.7433 143.663 72.6377 144.261C72.5753 144.611 72.7289 144.994 72.6665 145.343C72.5993 145.736 72.2921 145.999 72.3833 146.425" stroke="#F0F2DA" stroke-miterlimit="10"/>
<path d="M203.858 154.541C203.397 154.617 202.946 154.876 202.504 155.015C202.135 155.129 201.515 155.187 201.203 155.412C200.968 155.584 200.637 156.106 200.92 156.393C201.093 156.571 201.976 156.432 202.235 156.432C202.677 156.432 203.162 156.494 203.599 156.436C203.978 156.389 204.184 156.25 204.535 156.154C204.948 156.039 205.192 156.063 205.591 155.857C205.917 155.69 206.248 155.522 206.575 155.35" stroke="#F0F2DA" stroke-miterlimit="10"/>
<path d="M212.801 151.294C212.148 151.294 211.5 151.189 210.905 151.486C210.597 151.634 209.349 152.262 209.191 152.582C208.989 152.999 209.421 153.262 209.882 153.401C210.593 153.612 211.049 153.277 211.721 153.19" stroke="#F0F2DA" stroke-miterlimit="10"/>
<path d="M219.31 146.43C219.31 146.2 219.444 145.568 219.267 145.391C219.075 145.2 218.441 145.353 218.225 145.41C217.529 145.592 216.703 145.75 216.108 146.229C215.633 146.612 215.35 147.344 215.038 147.842C214.889 148.077 214.577 148.422 214.481 148.652C214.351 148.968 214.539 149.26 214.203 149.48C214.5 150.265 215.139 150.959 215.998 150.222C216.583 149.719 217.231 148.939 217.678 148.321" stroke="#F0F2DA" stroke-miterlimit="10"/>
<path d="M221.206 143.725C221.662 142.681 222.728 141.843 223.049 140.752C223.179 140.316 223.145 139.808 223.241 139.397C223.285 139.205 223.457 139.157 223.342 138.918C223.256 138.746 222.723 138.602 222.565 138.573C221.811 138.444 220.596 138.492 220.044 139.047C219.492 139.603 219.3 140.847 219.315 141.561" stroke="#F0F2DA" stroke-miterlimit="10"/>
<path d="M224.73 136.155C225.085 135.701 225.243 135.04 225.536 134.532C225.867 133.958 226.294 133.441 226.573 132.837C226.774 132.402 226.822 132 226.899 131.554C226.933 131.353 227.086 131.099 227.11 130.961C227.187 130.525 227.029 130.482 226.962 130.147C226.894 129.812 226.981 129.448 226.861 129.127C226.558 128.318 225.594 128.208 224.869 128.303C223.069 128.543 223.121 130.309 222.814 131.669C222.699 132.177 222.171 132.679 221.95 133.182C221.571 134.049 221.945 134.465 222.085 135.317C222.248 135.241 222.392 135.169 222.565 135.073" stroke="#F0F2DA" stroke-miterlimit="10"/>
<path d="M227.168 117.77C225.968 117.77 223.673 117.186 223.904 118.986C224 119.752 224.225 120.547 224.465 121.289C224.653 121.873 224.739 122.434 225.032 123.008C225.325 123.583 225.651 124.143 226.088 124.645C226.626 125.258 227.269 125.048 227.994 124.808C229.53 124.301 229.064 122.271 229.064 121.016" stroke="#F0F2DA" stroke-miterlimit="10"/>
<path d="M226.899 114.256C226.938 113.495 226.275 112.767 225.973 112.097C225.79 111.69 225.67 111.465 225.286 111.216C224.461 110.679 223.683 110.627 223.025 111.479C222.435 112.245 223.601 115.056 224.686 115.036L224.73 114.797" stroke="#F0F2DA" stroke-miterlimit="10"/>
<path d="M224.73 108.305C224.547 107.74 224.115 107.017 223.841 106.466C223.654 106.098 223.433 105.691 223.102 105.389C222.675 105.006 221.974 104.982 221.417 104.848C220.774 104.695 220.016 104.709 219.444 105.044C218.873 105.379 218.542 106.007 218.758 106.691C218.888 107.108 219.377 107.4 219.713 107.654C220.174 107.998 220.496 108.444 220.928 108.779C221.129 108.937 221.504 109.095 221.753 109.191C222.286 109.392 222.305 109.191 222.838 109.109" stroke="#F0F2DA" stroke-miterlimit="10"/>
<path d="M220.121 101.817C219.675 101.271 215.849 99.0308 215.561 100.663C215.95 100.912 215.859 101.745 216.252 102.162C216.646 102.579 217.361 103.1 217.952 103.167" stroke="#F0F2DA" stroke-miterlimit="10"/>
<path d="M214.159 98.303C213.847 97.9009 212.753 97.7094 212.263 97.5609C211.822 97.4221 210.689 96.905 210.242 97.2354C209.676 97.6519 210.396 98.2264 210.761 98.4754C211.337 98.8632 211.836 99.1313 212.532 99.117" stroke="#F0F2DA" stroke-miterlimit="10"/>
<path d="M207.108 95.5979C206.407 95.5979 205.701 95.5979 205 95.5979C204.064 95.5979 203.272 95.5022 202.365 95.3538C201.16 95.1575 200.032 94.8893 198.842 94.6547C196.48 94.1855 194.334 95.6745 192.198 96.2012C191.627 96.34 191.19 96.4167 190.571 96.4119C189.99 96.4119 189.457 96.4167 188.929 96.6848C188.103 97.0965 187.263 97.8051 186.519 98.3653C185.593 99.0643 184.513 99.9788 183.51 100.472C182.444 100.994 181.594 101.362 180.754 102.253C180.015 101.717 179.573 103.076 179.127 103.46C178.642 103.881 178.095 104.044 177.663 104.522C177.082 105.159 176.4 105.748 176.007 106.476C175.594 107.251 175.239 108.104 174.917 108.908C174.696 109.454 174.711 109.947 174.595 110.483C174.499 110.933 174.115 111.316 174.039 111.819" stroke="#F0F2DA" stroke-miterlimit="10"/>
<path d="M186.51 112.36C187.758 111.115 189.246 109.875 190.849 109.19C192.121 108.645 193.259 107.84 194.637 107.759C196.158 107.668 197.723 107.759 199.25 107.764C199.586 107.764 200.003 107.692 200.335 107.749C200.738 107.821 201.002 108.013 201.419 108.041C202.13 108.089 202.523 108.041 203.147 108.338C204.117 108.807 205.38 109.281 206.095 110.124C206.959 111.134 207.266 112.394 208.063 113.452C208.495 114.026 208.629 114.294 208.802 115.003C208.937 115.065 209.009 115.17 209.028 115.319L208.999 115.889C209.047 116.114 209.253 116.391 209.349 116.616C209.618 117.215 209.565 117.871 209.551 118.575C209.541 119.005 209.565 119.274 209.354 119.671C209.191 119.982 208.889 120.04 209.009 120.466" stroke="#F0F2DA" stroke-miterlimit="10"/>
<path d="M190.844 105.873C191.051 105.609 191.756 105.451 192.073 105.332C192.716 105.092 193.437 105.016 194.099 104.858C195.448 104.532 197.061 104.044 198.438 103.972C200.291 103.881 202.183 104.106 203.93 104.513C204.852 104.728 205.61 105.178 206.282 105.858C206.728 106.308 207.156 106.859 207.66 107.242C208.073 107.553 208.557 107.769 208.956 108.108C209.445 108.525 209.825 109.09 210.093 109.641C210.386 110.249 210.972 110.909 211.183 111.532C211.428 112.259 211.486 112.987 211.783 113.701C212.1 114.462 211.99 115.314 211.99 116.142C211.99 117.009 211.706 117.742 211.721 118.575C211.735 119.408 211.702 120.04 211.457 120.729C210.948 122.17 210.549 123.645 209.618 124.866C208.562 126.245 207.026 127.197 205.485 127.968C203.887 128.768 202.466 129.74 200.877 130.535C200.109 130.918 199.35 131.262 198.582 131.583C197.814 131.904 196.806 132.378 195.995 132.359" stroke="#F0F2DA" stroke-miterlimit="10"/>
<path d="M190.844 115.338C190.854 114.108 192.918 113.385 193.825 113.169C195.15 112.848 196.494 112.906 197.891 112.906C198.587 112.906 199.134 112.944 199.787 113.117C200.44 113.289 201.045 113.102 201.693 113.38C202.173 113.586 202.168 113.519 202.499 113.988C202.696 114.266 202.879 114.519 203.042 114.797C203.359 115.343 203.215 115.812 203.373 116.42C203.733 117.799 203.291 119.029 203.311 120.475C203.325 121.624 202.413 122.333 201.626 123.104C200.839 123.875 200.143 124.746 199.518 125.613C199.23 126.01 198.957 126.518 198.635 126.91C198.362 127.245 197.517 127.901 197.075 127.772" stroke="#F0F2DA" stroke-miterlimit="10"/>
<path d="M194.099 120.471C195.069 120.327 195.798 119.403 196.47 118.78C196.768 118.508 198.035 117.493 197.891 117.11C197.68 116.535 195.793 117.081 195.448 117.354C195.145 117.588 194.958 117.842 194.641 118.034C194.296 118.239 193.912 118.388 193.557 118.575" stroke="#F0F2DA" stroke-miterlimit="10"/>
<path d="M197.622 111.278C198.03 111.201 198.707 110.526 199.043 110.273C199.437 109.971 199.821 109.214 200.33 109.119" stroke="#F0F2DA" stroke-miterlimit="10"/>
<path d="M171.326 127.772L171.374 127.992C172.397 128.165 173.635 128.5 174.595 128.849C174.931 128.974 175.071 129.285 175.383 129.472C175.647 129.625 176.468 130.022 176.751 129.936" stroke="#F0F2DA" stroke-miterlimit="10"/>
<path d="M49.0732 86.4054C49.0732 86.932 49.03 87.4635 49.1356 87.9662C49.1836 88.2056 49.3612 88.8089 49.6108 89.0004C50.0284 88.5312 50.7917 88.1673 51.3197 87.813C51.5309 87.6694 51.8333 87.6119 52.0061 87.43C52.1117 87.3151 52.0973 87.0757 52.2078 86.9416C51.9149 86.7022 51.6125 86.2091 51.2381 86.1373" stroke="#F0F2DA" stroke-miterlimit="10"/>
<path d="M50.9693 80.7271C50.4797 80.9808 49.9852 81.0813 49.678 81.6032C49.3468 82.173 49.5484 82.8433 50.0092 83.2742C50.4077 83.6428 51.3821 83.9157 51.9005 83.6811C52.3902 83.4561 52.3758 82.8241 52.5582 82.4171C52.347 82.24 52.1118 82.0964 52.0541 81.8091" stroke="#F0F2DA" stroke-miterlimit="10"/>
<path d="M55.0351 79.3769C53.8927 79.7695 53.8495 80.5547 54.2911 81.4739C54.4735 81.8474 54.5551 82.2879 55.0303 82.374C55.7168 82.5033 55.9952 81.8953 56.2592 81.4021C56.7536 80.4589 56.6576 79.6115 56.6624 78.563C56.6624 78.0842 56.7776 77.7203 56.4128 77.4043C55.7024 76.7963 55.5775 77.457 55.5775 78.0219" stroke="#F0F2DA" stroke-miterlimit="10"/>
<path d="M50.7005 73.1575C50.7869 73.5645 50.4701 74.3736 50.3693 74.7806C50.2204 75.3839 50.0476 75.9488 50.1436 76.6143C50.2012 76.9973 50.3501 77.1458 50.5037 77.4857C50.5709 77.6341 50.6621 78.2134 50.7485 78.3236C51.0893 78.7688 51.7661 78.3619 52.131 78.1033C52.8222 77.6102 53.1006 76.3797 53.1486 75.5945C53.1822 75.0822 53.1582 74.7519 52.9086 74.3401C52.731 74.0529 52.2558 73.5693 51.7901 73.6985" stroke="#F0F2DA" stroke-miterlimit="10"/>
<path d="M55.3087 70.4524C54.3295 70.8067 53.7774 72.2 54.0127 73.1575C54.0703 73.3969 54.2047 73.665 54.2911 73.9092C54.4063 74.2396 54.4447 74.388 54.4879 74.7854C54.5407 75.2546 54.7711 75.6568 55.2367 75.8195C55.7312 75.3073 56.2832 75.0104 56.408 74.2396C56.504 73.6507 56.3936 72.9469 56.3936 72.3484" stroke="#F0F2DA" stroke-miterlimit="10"/>
<path d="M49.8844 67.2111C49.6108 68.9874 48.6796 70.845 50.4317 72.2383C50.7869 71.6973 51.4829 71.5153 51.8525 71.0078C52.2222 70.5003 52.5006 69.6768 52.6062 69.1023C52.6878 68.6618 52.4814 68.4081 52.3806 68.0203C52.3086 67.7426 52.4046 67.4553 52.3422 67.1967C52.1118 66.2296 51.0365 67.417 50.4221 67.4792" stroke="#F0F2DA" stroke-miterlimit="10"/>
<path d="M52.5966 63.1558C52.467 63.625 52.7454 63.4383 52.8078 63.7447C52.8702 64.0511 52.8462 64.3384 52.8942 64.64C52.9758 65.1619 53.259 65.7508 53.3502 66.1913C53.523 67.0196 53.5614 68.3075 54.8815 67.733C55.7216 67.3643 55.664 66.0716 55.5872 65.3151C55.5343 64.8315 55.4143 64.7933 55.1071 64.4437C54.8383 64.1325 54.7471 63.5197 54.2239 63.7016" stroke="#F0F2DA" stroke-miterlimit="10"/>
<path d="M47.4459 60.9918C47.4459 62.251 47.8827 63.8309 48.8716 64.7358C49.2172 64.5778 49.4332 64.5299 49.846 64.4677C49.942 64.1134 49.8124 63.7783 49.87 63.424C49.942 63.017 50.1916 62.7728 50.1676 62.3371C50.134 61.7482 49.6492 61.1785 49.0732 60.9918" stroke="#F0F2DA" stroke-miterlimit="10"/>
<path d="M46.361 56.1226C46.3754 56.9556 46.385 57.1041 46.9131 57.7504C47.3259 58.2579 47.5563 58.4303 48.1995 58.6218C48.4539 58.6984 48.4011 59.0048 48.814 58.7942C49.102 58.6457 49.102 58.2866 49.0828 58.009C49.054 57.5685 48.8476 57.0466 48.2571 57.2046" stroke="#F0F2DA" stroke-miterlimit="10"/>
<path d="M41.2103 56.9365C41.0471 57.2908 40.9463 57.4679 40.9367 57.8797C40.9175 58.4877 41.0135 58.5404 41.4792 58.8899C42.1656 59.4022 42.9864 60.2544 43.9321 60.1922C44.6665 60.1443 45.2666 59.1963 44.9881 58.4446C44.7049 57.6786 43.7353 57.5254 43.1112 57.2046" stroke="#F0F2DA" stroke-miterlimit="10"/>
<path d="M39.0454 53.4222C38.3734 53.4318 37.0869 53.36 36.8565 54.217C36.5109 55.5145 38.7478 55.3134 39.439 55.3134C40.3319 55.3134 41.724 55.572 42.5784 55.3278C43.8457 54.9639 42.468 53.7478 41.7528 53.9633" stroke="#F0F2DA" stroke-miterlimit="10"/>
<path d="M33.8947 55.8544C33.3859 55.8544 32.4594 56.6396 32.565 57.2046C32.6946 57.9084 34.2691 58.4398 34.8404 58.5356C35.5892 58.6601 36.1364 58.6074 36.4773 57.8892C36.8805 57.0418 36.3525 56.7497 35.5652 56.6109L35.5172 56.3907" stroke="#F0F2DA" stroke-miterlimit="10"/>
<path d="M28.4704 55.5863C28.2064 55.6055 28.144 55.7491 27.928 55.8545C27.8512 55.8928 27.3664 56.0795 27.2751 56.1465C27.0351 56.3284 26.6655 56.7546 26.5839 57.0706C26.2383 58.392 27.4 58.21 28.2112 58.3106C29.1521 58.4303 30.6977 59.0527 31.1298 57.7552C31.3698 57.0322 31.0674 55.6821 30.1025 55.8545" stroke="#F0F2DA" stroke-miterlimit="10"/>
<path d="M23.5933 59.6416C23.3389 59.8283 23.0557 60.9726 23.0941 61.2695C23.1901 62.0116 24.0302 61.8248 24.5486 61.8057C25.187 61.7817 25.3694 61.6094 25.6383 60.9918C25.9887 60.1826 25.451 60.2784 25.2206 59.6416" stroke="#F0F2DA" stroke-miterlimit="10"/>
<path d="M20.3388 62.8829C19.8923 62.8733 19.6571 62.9069 19.2491 63.0888C18.6827 63.3378 18.8459 63.0888 18.7115 63.6921C18.6059 64.166 18.1498 65.1092 18.6923 65.3391C18.9947 65.4683 20.5452 65.4348 20.8332 65.2672C21.2124 65.0422 21.5052 64.19 21.4236 63.7926V63.9697" stroke="#F0F2DA" stroke-miterlimit="10"/>
<path d="M17.089 66.9382C16.4889 67.4744 15.5481 67.5127 15.1113 68.2213C14.7656 68.7815 14.8712 69.8923 15.5865 70.17C16.3017 70.4477 16.897 70.0168 17.3674 69.5332C17.6938 69.198 18.313 68.5134 18.1738 68.0155" stroke="#F0F2DA" stroke-miterlimit="10"/>
<path d="M13.8344 72.3484L13.7816 72.5686C13.0183 72.6452 12.4567 73.5693 12.2599 74.2444C12.1591 74.5987 11.9431 75.2498 11.9143 75.5993C11.8711 76.1882 12.1159 76.1308 12.6343 76.1355C13.7192 76.1451 14.4728 76.0541 15.1977 75.1636C15.7929 74.4359 15.7305 73.8039 15.7305 72.8894" stroke="#F0F2DA" stroke-miterlimit="10"/>
<path d="M11.6647 78.5677C10.9014 79.1854 10.5942 80.1238 10.3686 80.9999C10.2198 81.5745 10.1862 82.6565 10.6326 83.1114C10.671 83.1497 11.3334 83.4704 11.3862 83.4704C11.8279 83.4609 12.1063 82.8049 12.3415 82.4889C13.0183 81.5936 13.0231 81.0239 13.0183 79.9227" stroke="#F0F2DA" stroke-miterlimit="10"/>
<path d="M9.49494 92.8928V90.4606" stroke="#F0F2DA" stroke-miterlimit="10"/>
<path d="M10.8534 90.1925C12.3079 90.0154 11.4919 88.5982 10.5846 88.3013" stroke="#F0F2DA" stroke-miterlimit="10"/>
<path d="M99.4952 164.815C100.244 164.806 100.883 164.657 101.588 164.485C102.371 164.293 103.254 163.996 104.103 164.006C104.852 164.016 105.664 164.092 106.412 164.011C106.854 163.963 106.955 163.843 107.358 163.996C107.761 164.15 107.905 164.47 108.174 164.815" stroke="#F0F2DA" stroke-miterlimit="10"/>
<path d="M197.08 156.7C196.595 156.7 196.053 156.618 195.577 156.69C195.145 156.757 194.814 156.954 194.368 156.977C193.633 157.011 192.428 156.963 192.025 157.724C192.404 158.385 193.566 158.601 194.233 158.596C194.675 158.596 195.155 158.658 195.587 158.605C196.139 158.543 196.49 158.313 197.08 158.323" stroke="#F0F2DA" stroke-miterlimit="10"/>
<path d="M188.132 157.514C187.239 157.514 182.396 156.772 182.684 158.864C182.77 159.486 183.735 159.912 184.278 159.96C184.695 159.994 185.046 160.114 185.43 160.161C185.857 160.219 185.867 160.118 186.236 159.946" stroke="#F0F2DA" stroke-miterlimit="10"/>
<path d="M124.701 71.8074C123.871 71.5919 123.357 72.5974 123.074 73.1575C122.772 73.7608 122.393 74.4119 122.249 75.0343C122.052 75.8722 122.21 77.1553 122.258 78.0219C122.282 78.5055 122.517 78.8885 122.541 79.3721C122.551 79.6163 122.465 79.961 122.522 80.1956C122.565 80.3871 122.738 80.435 122.781 80.6121C123.146 82.0245 124.025 83.2885 125.417 83.9301C126.804 84.5764 128.306 85.8548 129.857 85.0456" stroke="#F0F2DA" stroke-miterlimit="10"/>
<path d="M128.767 75.5898C128.767 76.1978 127.706 76.7915 127.207 77.0069C126.655 77.2463 126.084 77.4522 125.513 77.7538" stroke="#F0F2DA" stroke-miterlimit="10"/>
<path d="M127.145 81.2681C127.654 81.2777 129.252 80.8132 129.315 80.186" stroke="#F0F2DA" stroke-miterlimit="10"/>
<path d="M126.151 78.4768C126.151 78.9077 126.194 79.329 126.535 79.6259C126.852 79.9035 127.466 79.5828 127.759 79.3577C128.052 79.1327 128.335 78.8454 128.662 78.6348C128.988 78.4241 129.415 78.2518 129.675 77.9358" stroke="#F0F2DA" stroke-miterlimit="10"/>
<path d="M111.962 71.1323C110.853 71.4675 110.2 73.4305 109.926 74.3784C109.552 75.6951 109.518 76.9447 109.518 78.4337" stroke="#F0F2DA" stroke-miterlimit="10"/>
<path d="M109.931 91.4086C111.131 92.8593 113.742 93.6924 115.533 93.8648C117.271 94.0323 118.888 94.2478 120.708 94.2478C121.591 94.2478 122.469 94.243 123.353 94.2478C123.732 94.2478 124.236 94.3531 124.591 94.2669C124.946 94.1808 125.013 93.8983 125.359 93.8169C126.07 93.6541 126.761 93.7307 127.428 93.4434C128.095 93.1562 128.777 92.9647 129.449 92.6199" stroke="#F0F2DA" stroke-miterlimit="10"/>
<path d="M100.172 155.484C100.969 154.861 101.185 152.779 101.492 151.835C101.833 150.792 102.159 150.313 102.198 149.197C102.231 148.192 102.601 147.067 103.014 146.133C103.268 145.563 104.007 144.347 103.825 143.72" stroke="#F0F2DA" stroke-miterlimit="10"/>
<path d="M72.5225 142.102C73.4298 141.063 73.3001 139.181 73.833 137.936C74.1162 137.271 74.3274 136.763 74.5578 136.098C74.769 135.49 74.9802 135.318 75.2827 134.724C75.7963 133.718 75.9163 132.545 76.4875 131.54C76.8043 130.985 77.1308 130.487 77.4956 129.96C77.9324 129.323 78.6669 128.514 78.9501 127.82C79.1085 127.427 78.9213 127.063 79.0077 126.671C79.0845 126.336 79.3437 126.235 79.4493 125.905C79.6653 125.206 79.6557 124.315 80.0685 123.659C80.395 123.142 80.9326 122.759 81.283 122.232C81.5998 121.758 81.7102 121.16 82.2815 121.021" stroke="#F0F2DA" stroke-miterlimit="10"/>
<path d="M20.0699 116.554C20.5068 117.11 21.126 118.158 21.7788 118.503C22.2829 118.766 22.8349 118.431 23.3437 118.565C23.7277 118.666 24.203 119.077 24.5534 119.293C25.355 119.781 26.2431 120.107 27.0831 120.509C27.6544 120.782 28.8016 121.591 29.4209 121.423" stroke="#F0F2DA" stroke-miterlimit="10"/>
<path d="M46.5002 125.067H48.9388" stroke="#F0F2DA" stroke-miterlimit="10"/>
<path d="M141.238 80.4589C142.414 80.3392 144.291 80.751 145.107 81.6607C145.472 82.0676 145.664 82.5847 146.019 83.0012C146.403 83.4609 146.975 83.6668 147.359 84.0881C147.834 84.6099 147.848 85.2659 147.709 85.9314C147.613 86.3862 147.479 87.2815 147.258 87.6741C147.114 87.9231 146.471 88.512 146.226 88.6748C145.669 89.0482 145.199 88.8615 144.56 89.0387L144.493 89.3738" stroke="#F0F2DA" stroke-miterlimit="10"/>
<path d="M162.787 153.865C161.697 153.502 160.934 152.707 159.743 152.645C159.139 152.611 158.515 152.64 157.91 152.645C157.564 152.645 157.233 152.678 156.892 152.611C156.585 152.549 156.158 152.118 155.846 152.19C154.463 152.496 157.425 154.21 157.905 154.301C158.649 154.445 159.182 154.382 159.94 154.675C160.641 154.943 161.212 155.096 161.976 155.082" stroke="#F0F2DA" stroke-miterlimit="10"/>
<path d="M216.867 80.8659C214.006 75.7956 212.902 67.3452 212.359 61.5998C211.798 55.6677 210.132 49.8697 209.954 43.9568C209.066 43.7988 208.236 43.9281 207.516 44.3637C208.437 52.2492 209.546 60.288 210.919 68.0825C211.778 72.9613 213.588 77.6294 214.836 82.3501" stroke="#F0F2DA" stroke-miterlimit="10"/>
<path d="M211.716 44.0956C213.214 42.5109 215.508 42.5396 217.548 42.3337C220.505 42.0369 223.803 42.4678 226.63 41.7975C229.304 41.1655 231.983 40.2845 234.488 39.1929C235.89 38.5801 249.609 35.2813 251.097 34.9557C251.121 39.1403 252.201 43.3631 252.576 47.5285C252.701 48.9361 252.883 50.1905 253.301 51.5502C253.699 52.8334 254.765 54.4516 254.755 55.7731C251.837 55.4331 236.759 59.1676 234.08 60.1108C231.013 61.1881 227.682 61.3987 224.475 61.8009C221.95 62.1217 218.268 63.2995 215.782 62.61" stroke="#F0F2DA" stroke-miterlimit="10"/>
<path d="M74.2266 50.5639C78.6236 45.5272 82.7759 37.9337 86.4145 32.1548C88.013 29.6173 89.9955 27.1612 91.234 24.4369C91.8964 22.9862 92.4436 21.4781 93.5285 20.2572C92.9045 20.1662 92.1316 19.9029 91.7236 19.5342C90.4611 21.5978 89.5107 23.7475 88.2482 25.8445C86.7937 28.2576 84.9744 30.12 83.7263 32.6959C82.4351 35.3627 80.5678 37.5842 79.0653 40.0834C77.8508 42.0991 77.15 44.1962 75.6859 46.0347C74.169 47.9402 74.5818 47.6194 72.9353 49.3765" stroke="#F0F2DA" stroke-miterlimit="10"/>
<path d="M89.9139 19.5342C84.8832 17.1738 79.6941 15.3545 74.769 12.6733C72.7145 11.5577 70.3768 10.9832 68.3655 9.80541C67.319 9.19257 66.5942 8.3595 65.5141 7.86635C64.6453 7.46897 55.3855 0.971926 54.6223 0.426117C54.1279 4.28029 52.1118 8.76167 50.2492 12.1323C48.9484 14.4831 48.1227 17.3223 47.0331 19.5342C52.8606 19.8071 65.8645 30.752 71.2072 32.3176C74.1114 33.1651 76.5883 35.1472 79.4301 36.3011" stroke="#F0F2DA" stroke-miterlimit="10"/>
<path d="M35.2532 109.171C45.521 100.936 53.9215 90.1925 64.7989 82.8911" stroke="#F0F2DA" stroke-miterlimit="10"/>
<path d="M64.434 63.625C64.8805 63.1223 65.4949 60.4699 65.8789 60.7188C65.3461 61.7051 64.7461 62.5478 64.4292 63.5963C65.1349 63.9985 66.0373 64.3863 66.647 64.9513C66.5558 63.6538 67.2518 62.61 67.7798 61.5328" stroke="#F0F2DA" stroke-miterlimit="10"/>
<path d="M65.3365 84.5142C63.9876 86.6017 61.4387 87.5927 59.509 88.9381C57.4785 90.3553 55.9088 92.2561 54.2383 94.0275C50.5421 97.9392 46.3562 101.54 42.4296 105.054C40.5335 106.749 38.4646 109.554 36.3333 110.737" stroke="#F0F2DA" stroke-miterlimit="10"/>
<path d="M65.7445 85.9314C67.607 88.2248 70.2472 89.9005 72.1049 92.1938C72.9113 93.1897 73.5018 94.3579 74.2554 95.3921C74.9178 96.3066 75.6331 97.1253 76.3771 97.9631C77.5484 99.2846 78.1436 100.884 79.5597 102.023C80.1213 102.473 80.9518 103.785 81.6718 103.91C82.1902 104.408 82.6319 105.36 83.3663 105.6C81.0286 106.988 79.8669 109.913 78.014 111.805C76.7227 113.121 75.1578 114.438 73.6218 115.467C73.0985 115.817 72.5225 116.095 71.9993 116.43C71.476 116.765 70.6216 117.033 70.2904 117.493C69.1959 116.631 68.5815 115.869 67.847 114.716C67.1126 113.562 66.1285 112.925 65.0869 112.068C63.7044 110.924 62.85 109.535 61.6739 108.228C60.6562 107.093 59.3506 106.179 58.5057 104.886C57.8913 103.943 57.5265 102.909 56.696 102.119C56.024 101.482 55.2943 100.798 54.7327 100.06C54.2047 99.3707 53.7582 98.8345 53.1438 98.2312" stroke="#F0F2DA" stroke-miterlimit="10"/>
</g>
<defs>
<clipPath id="clip0_1792_8968">
<rect width="255" height="199" fill="white"/>
</clipPath>
</defs>
</svg>
