<svg width="20" height="18" viewBox="0 0 20 18" fill="none" xmlns="http://www.w3.org/2000/svg">
<path d="M1 0C0.44772 0 0 0.44772 0 1V7C0 7.5523 0.44772 8 1 8H8C8.5523 8 9 7.5523 9 7V1C9 0.44772 8.5523 0 8 0H1ZM2 6V2H7V6H2ZM1 10C0.44772 10 0 10.4477 0 11V17C0 17.5523 0.44772 18 1 18H8C8.5523 18 9 17.5523 9 17V11C9 10.4477 8.5523 10 8 10H1ZM2 16V12H7V16H2ZM11 1C11 0.44772 11.4477 0 12 0H19C19.5523 0 20 0.44772 20 1V7C20 7.5523 19.5523 8 19 8H12C11.4477 8 11 7.5523 11 7V1ZM13 2V6H18V2H13ZM12 10C11.4477 10 11 10.4477 11 11V17C11 17.5523 11.4477 18 12 18H19C19.5523 18 20 17.5523 20 17V11C20 10.4477 19.5523 10 19 10H12ZM13 16V12H18V16H13Z" fill="currentColor"/>
</svg>
