<svg width="24" height="25" viewBox="0 0 24 25" fill="none" xmlns="http://www.w3.org/2000/svg">
<path d="M7 7H5C4.46957 7 3.96086 7.21071 3.58579 7.58579C3.21071 7.96086 3 8.46957 3 9V17H5V13H7V17H9V9C9 8.46957 8.78929 7.96086 8.41421 7.58579C8.03914 7.21071 7.53043 7 7 7ZM7 11H5V9H7V11ZM14 7H10V17H12V13H14C14.5304 13 15.0391 12.7893 15.4142 12.4142C15.7893 12.0391 16 11.5304 16 11V9C16 8.46957 15.7893 7.96086 15.4142 7.58579C15.0391 7.21071 14.5304 7 14 7ZM14 11H12V9H14V11ZM20 9V15H21V17H17V15H18V9H17V7H21V9H20Z" fill="#F0F2DA"/>
</svg>
