<svg width="24" height="25" viewBox="0 0 24 25" fill="none" xmlns="http://www.w3.org/2000/svg">
<path d="M20 21.09L22.45 22.58L21.8 19.77L24 17.89L21.11 17.64L20 15L18.87 17.64L16 17.89L18.18 19.77L17.5 22.58L20 21.09ZM14.08 20H2C0.91 19.96 0.04 19.09 0 18V4C0.04 2.91 0.91 2.04 2 2H22C23.09 2.04 23.96 2.91 24 4V14.53C23.42 14 22.75 13.61 22 13.34V4H2V18H14.08C14.03 18.33 14 18.66 14 19C14 19.34 14.03 19.68 14.08 20ZM14 16H4V14.75C4 13.09 7.34 12.25 9 12.25C10.66 12.25 14 13.09 14 14.75V16ZM14 10H18V11H14V10ZM9 6C7.63 6 6.5 7.13 6.5 8.5C6.5 9.87 7.63 11 9 11C10.37 11 11.5 9.87 11.5 8.5C11.5 7.13 10.37 6 9 6ZM14 8H20V9H14V8ZM14 6H20V7H14V6Z" fill="#F0F2DA"/>
</svg>
