<svg width="24" height="25" viewBox="0 0 24 25" fill="none" xmlns="http://www.w3.org/2000/svg">
<path fill-rule="evenodd" clip-rule="evenodd" d="M4 2H12L18 8V9V10H16V9H11V4H4V20H16H18C18 20.5304 17.7893 21.0391 17.4142 21.4142C17.0391 21.7893 16.5304 22 16 22H4C3.46957 22 2.96086 21.7893 2.58579 21.4142C2.21071 21.0391 2 20.5304 2 20V4C2 3.46957 2.21071 2.96086 2.58579 2.58579C2.96086 2.21071 3.46957 2 4 2ZM13.6638 16.1477V17H17.0132V16.0539H15.3087V16.0284L15.7178 15.6875C16.0502 15.4105 16.3066 15.1718 16.4869 14.9715C16.6673 14.7713 16.7923 14.5887 16.8619 14.424C16.9316 14.2578 16.9664 14.0909 16.9664 13.9233C16.9664 13.6519 16.896 13.4154 16.7554 13.2137C16.6162 13.012 16.4181 12.8558 16.161 12.745C15.9053 12.6328 15.6027 12.5767 15.2533 12.5767C14.9152 12.5767 14.6205 12.6363 14.3691 12.7556C14.1176 12.875 13.923 13.0454 13.7852 13.267C13.6475 13.4886 13.5786 13.7528 13.5786 14.0596H14.7036C14.7036 13.9375 14.7263 13.8338 14.7718 13.7485C14.8172 13.6633 14.8811 13.5987 14.9635 13.5546C15.0473 13.5106 15.1439 13.4886 15.2533 13.4886C15.3627 13.4886 15.4593 13.5106 15.5431 13.5546C15.6269 13.5973 15.6922 13.6583 15.7391 13.7379C15.7874 13.8174 15.8115 13.9133 15.8115 14.0255C15.8115 14.1278 15.7902 14.2208 15.7476 14.3046C15.7064 14.3884 15.6468 14.4701 15.5686 14.5497C15.4919 14.6278 15.3996 14.7116 15.2916 14.8011L13.6638 16.1477ZM19.6819 17V12.6363H18.591L17.5171 13.2926V14.2983L18.4717 13.7272H18.4972V17H19.6819ZM10.1977 17L11.9108 13.6079V13.5823H9.89941V12.6363H13.1381V13.5823L11.4165 17H10.1977Z" fill="#F0F2DA"/>
</svg>
