<svg width="24" height="25" viewBox="0 0 24 25" fill="none" xmlns="http://www.w3.org/2000/svg">
<path fill-rule="evenodd" clip-rule="evenodd" d="M4 2H12L18 8V9V10H16V9H11V4H4V20H16H18C18 20.5304 17.7893 21.0391 17.4142 21.4142C17.0391 21.7893 16.5304 22 16 22H4C3.46957 22 2.96086 21.7893 2.58579 21.4142C2.21071 21.0391 2 20.5304 2 20V4C2 3.46957 2.21071 2.96086 2.58579 2.58579C2.96086 2.21071 3.46957 2 4 2ZM11.1589 17V16.1477L12.7867 14.8011C12.8947 14.7116 12.987 14.6278 13.0637 14.5497C13.1419 14.4701 13.2015 14.3884 13.2427 14.3046C13.2853 14.2208 13.3066 14.1278 13.3066 14.0255C13.3066 13.9133 13.2825 13.8174 13.2342 13.7379C13.1873 13.6583 13.122 13.5973 13.0382 13.5546C12.9544 13.5106 12.8578 13.4886 12.7484 13.4886C12.639 13.4886 12.5424 13.5106 12.4586 13.5546C12.3762 13.5987 12.3123 13.6633 12.2669 13.7485C12.2214 13.8338 12.1987 13.9375 12.1987 14.0596H11.0737C11.0737 13.7528 11.1426 13.4886 11.2803 13.267C11.4181 13.0454 11.6127 12.875 11.8642 12.7556C12.1156 12.6363 12.4103 12.5767 12.7484 12.5767C13.0978 12.5767 13.4004 12.6328 13.6561 12.745C13.9132 12.8558 14.1113 13.012 14.2505 13.2137C14.3911 13.4154 14.4615 13.6519 14.4615 13.9233C14.4615 14.0909 14.4267 14.2578 14.357 14.424C14.2874 14.5887 14.1624 14.7713 13.982 14.9715C13.8017 15.1718 13.5453 15.4105 13.2129 15.6875L12.8038 16.0284V16.0539H14.5083V17H11.1589ZM16.9384 17.1193C16.5421 17.1179 16.1997 17.0262 15.9114 16.8444C15.623 16.6626 15.4007 16.4005 15.2445 16.0582C15.0882 15.7159 15.0108 15.3054 15.0122 14.8267C15.0137 14.3465 15.0918 13.9389 15.2466 13.6036C15.4029 13.2684 15.6244 13.0134 15.9114 12.8387C16.1997 12.664 16.5421 12.5767 16.9384 12.5767C17.3347 12.5767 17.677 12.6647 17.9654 12.8409C18.2537 13.0156 18.476 13.2706 18.6323 13.6058C18.7885 13.941 18.8659 14.348 18.8645 14.8267C18.8645 15.3082 18.7864 15.7201 18.6301 16.0625C18.4739 16.4048 18.2516 16.6669 17.9632 16.8487C17.6763 17.0291 17.3347 17.1193 16.9384 17.1193ZM16.9384 16.1562C17.1429 16.1562 17.3105 16.0497 17.4412 15.8366C17.5733 15.6221 17.6387 15.2855 17.6372 14.8267C17.6372 14.5269 17.6074 14.2819 17.5477 14.0916C17.4881 13.9012 17.4057 13.7606 17.3006 13.6697C17.1955 13.5774 17.0747 13.5312 16.9384 13.5312C16.7338 13.5312 16.5669 13.6349 16.4377 13.8423C16.3084 14.0497 16.2423 14.3778 16.2395 14.8267C16.2381 15.1321 16.2672 15.3835 16.3269 15.5809C16.3865 15.7769 16.4689 15.9218 16.574 16.0156C16.6806 16.1093 16.802 16.1562 16.9384 16.1562Z" fill="#F0F2DA"/>
</svg>
