<svg width="24" height="25" viewBox="0 0 24 25" fill="none" xmlns="http://www.w3.org/2000/svg">
<path fill-rule="evenodd" clip-rule="evenodd" d="M4 2H12L18 8V9V10H16V9H11V4H4V20H16H18C18 20.5304 17.7893 21.0391 17.4142 21.4142C17.0391 21.7893 16.5304 22 16 22H4C3.46957 22 2.96086 21.7893 2.58579 21.4142C2.21071 21.0391 2 20.5304 2 20V4C2 3.46957 2.21071 2.96086 2.58579 2.58579C2.96086 2.21071 3.46957 2 4 2ZM12.3047 16.8828C12.5717 17.0007 12.8771 17.0596 13.2209 17.0596C13.5774 17.0596 13.892 17.0035 14.1647 16.8913C14.4389 16.7791 14.6527 16.6242 14.8061 16.4268C14.9609 16.2294 15.0376 16.0028 15.0362 15.7471C15.039 15.4801 14.9517 15.2585 14.7741 15.0823C14.5966 14.9048 14.3316 14.7968 13.9794 14.7585V14.7244C14.2393 14.696 14.4538 14.6036 14.6228 14.4474C14.7933 14.2911 14.8771 14.0909 14.8743 13.8465C14.8757 13.6008 14.8061 13.3828 14.6655 13.1924C14.5263 13.0007 14.3324 12.8501 14.0838 12.7407C13.8366 12.6313 13.5518 12.5767 13.2294 12.5767C12.8998 12.5767 12.6079 12.6349 12.3537 12.7514C12.0994 12.8679 11.8991 13.0284 11.7528 13.2329C11.6079 13.4375 11.5348 13.6733 11.5334 13.9403H12.6669C12.6683 13.8522 12.6932 13.7741 12.7414 13.7059C12.7897 13.6377 12.8558 13.5845 12.9396 13.5461C13.0248 13.5078 13.1214 13.4886 13.2294 13.4886C13.3288 13.4886 13.4162 13.5071 13.4914 13.544C13.5682 13.5809 13.6278 13.6321 13.6704 13.6974C13.713 13.7627 13.7336 13.838 13.7322 13.9233C13.7336 14.0113 13.7088 14.0894 13.6576 14.1576C13.6079 14.2258 13.5376 14.2791 13.4467 14.3174C13.3572 14.3558 13.2535 14.375 13.1356 14.375H12.6924V15.1931H13.1356C13.2635 15.1931 13.3764 15.2123 13.4744 15.2507C13.5724 15.289 13.6484 15.3423 13.7024 15.4105C13.7578 15.4786 13.7848 15.5568 13.7834 15.6448C13.7848 15.7343 13.762 15.8139 13.7152 15.8835C13.6683 15.9531 13.603 16.0078 13.5191 16.0475C13.4353 16.0859 13.3388 16.1051 13.2294 16.1051C13.1157 16.1051 13.0149 16.0866 12.9268 16.0497C12.8388 16.0127 12.7691 15.9616 12.718 15.8963C12.6683 15.8295 12.6427 15.7542 12.6413 15.6704H11.4481C11.4495 15.9417 11.5263 16.1818 11.6782 16.3906C11.8302 16.5994 12.039 16.7634 12.3047 16.8828ZM17.2697 17.0596C16.9259 17.0596 16.6205 17.0007 16.3535 16.8828C16.0879 16.7634 15.8791 16.5994 15.7271 16.3906C15.5751 16.1818 15.4984 15.9417 15.497 15.6704H16.6901C16.6916 15.7542 16.7171 15.8295 16.7668 15.8963C16.818 15.9616 16.8876 16.0127 16.9756 16.0497C17.0637 16.0866 17.1646 16.1051 17.2782 16.1051C17.3876 16.1051 17.4842 16.0859 17.568 16.0475C17.6518 16.0078 17.7171 15.9531 17.764 15.8835C17.8109 15.8139 17.8336 15.7343 17.8322 15.6448C17.8336 15.5568 17.8066 15.4786 17.7512 15.4105C17.6972 15.3423 17.6212 15.289 17.5232 15.2507C17.4252 15.2123 17.3123 15.1931 17.1845 15.1931H16.7413V14.375H17.1845C17.3024 14.375 17.406 14.3558 17.4955 14.3174C17.5864 14.2791 17.6568 14.2258 17.7065 14.1576C17.7576 14.0894 17.7825 14.0113 17.781 13.9233C17.7825 13.838 17.7619 13.7627 17.7193 13.6974C17.6766 13.6321 17.617 13.5809 17.5403 13.544C17.465 13.5071 17.3776 13.4886 17.2782 13.4886C17.1702 13.4886 17.0737 13.5078 16.9884 13.5461C16.9046 13.5845 16.8386 13.6377 16.7903 13.7059C16.742 13.7741 16.7171 13.8522 16.7157 13.9403H15.5822C15.5836 13.6733 15.6568 13.4375 15.8016 13.2329C15.9479 13.0284 16.1482 12.8679 16.4025 12.7514C16.6568 12.6349 16.9487 12.5767 17.2782 12.5767C17.6006 12.5767 17.8854 12.6313 18.1326 12.7407C18.3812 12.8501 18.5751 13.0007 18.7143 13.1924C18.8549 13.3828 18.9245 13.6008 18.9231 13.8465C18.9259 14.0909 18.8421 14.2911 18.6717 14.4474C18.5026 14.6036 18.2881 14.696 18.0282 14.7244V14.7585C18.3805 14.7968 18.6454 14.9048 18.8229 15.0823C19.0005 15.2585 19.0879 15.4801 19.085 15.7471C19.0864 16.0028 19.0097 16.2294 18.8549 16.4268C18.7015 16.6242 18.4877 16.7791 18.2136 16.8913C17.9408 17.0035 17.6262 17.0596 17.2697 17.0596ZM19.81 17L21.5231 13.6079V13.5823H19.5117V12.6363H22.7503V13.5823L21.0287 17H19.81ZM7.2608 16.3181V15.3977L9.01649 12.6363H9.40853H9.85171H10.5165V15.3977H11.0193V16.3181H10.5165V17H9.38296V16.3181H7.2608ZM9.37444 13.8636H9.40853V15.3977H8.42842V15.3636L9.37444 13.8636Z" fill="#F0F2DA"/>
</svg>
