<svg width="21" height="20" viewBox="0 0 21 20" fill="none" xmlns="http://www.w3.org/2000/svg">
<path d="M4.33345 3.91424L2.04055 6.20714L0.626343 4.79292L5.33345 0.0858154L10.0406 4.79292L8.62637 6.20714L6.33345 3.91424L6.33344 9H4.33345V3.91424ZM10.8335 5.00003C10.8335 7.48531 12.8482 9.5 15.3335 9.5C17.8188 9.5 19.8335 7.48531 19.8335 5.00003C19.8335 2.51475 17.8188 0.500026 15.3335 0.500026C12.8482 0.500026 10.8335 2.51475 10.8335 5.00003ZM20.0406 15.2071L18.6264 13.7929L16.3335 16.0858V11H14.3335V16.0858L12.0406 13.7929L10.6264 15.2071L15.3335 19.9142L20.0406 15.2071ZM9.33347 12C9.33347 11.4477 8.88577 11 8.33347 11H2.33345C1.78116 11 1.33345 11.4477 1.33345 12V18C1.33344 18.5523 1.78116 19 2.33344 19H8.33347C8.88577 19 9.33347 18.5523 9.33347 18V12Z" fill="#F0F2DA"/>
</svg>
