<svg width="24" height="24" viewBox="0 0 24 24" fill="none" xmlns="http://www.w3.org/2000/svg">
<g clip-path="url(#clip0_46_310)">
<path d="M19 21H5C4.73478 21 4.48043 20.8946 4.29289 20.7071C4.10536 20.5196 4 20.2652 4 20V11H1L11.327 1.612C11.5111 1.44447 11.7511 1.35164 12 1.35164C12.2489 1.35164 12.4889 1.44447 12.673 1.612L23 11H20V20C20 20.2652 19.8946 20.5196 19.7071 20.7071C19.5196 20.8946 19.2652 21 19 21ZM6 19H18V9.157L12 3.703L6 9.157V19ZM12 15C11.337 15 10.7011 14.7366 10.2322 14.2678C9.76339 13.7989 9.5 13.163 9.5 12.5C9.5 11.837 9.76339 11.2011 10.2322 10.7322C10.7011 10.2634 11.337 10 12 10C12.663 10 13.2989 10.2634 13.7678 10.7322C14.2366 11.2011 14.5 11.837 14.5 12.5C14.5 13.163 14.2366 13.7989 13.7678 14.2678C13.2989 14.7366 12.663 15 12 15V15Z" fill="white"/>
</g>
<defs>
<clipPath id="clip0_46_310">
<rect width="24" height="24" fill="white"/>
</clipPath>
</defs>
</svg>
