<svg width="24" height="25" viewBox="0 0 24 25" fill="none" xmlns="http://www.w3.org/2000/svg">
<path d="M20 15H4V9H9.08L7 11.83L8.62 13L11 9.76L12 8.4L13 9.76L15.38 13L17 11.83L14.92 9H20V15ZM20 20H4V18H20V20ZM9 5C9.26522 5 9.51957 5.10536 9.70711 5.29289C9.89464 5.48043 10 5.73478 10 6C10 6.26522 9.89464 6.51957 9.70711 6.70711C9.51957 6.89464 9.26522 7 9 7C8.73478 7 8.48043 6.89464 8.29289 6.70711C8.10536 6.51957 8 6.26522 8 6C8 5.73478 8.10536 5.48043 8.29289 5.29289C8.48043 5.10536 8.73478 5 9 5ZM15 5C15.2652 5 15.5196 5.10536 15.7071 5.29289C15.8946 5.48043 16 5.73478 16 6C16 6.26522 15.8946 6.51957 15.7071 6.70711C15.5196 6.89464 15.2652 7 15 7C14.7348 7 14.4804 6.89464 14.2929 6.70711C14.1054 6.51957 14 6.26522 14 6C14 5.73478 14.1054 5.48043 14.2929 5.29289C14.4804 5.10536 14.7348 5 15 5ZM20 7H17.82C17.93 6.69 18 6.35 18 6C18 5.20435 17.6839 4.44129 17.1213 3.87868C16.5587 3.31607 15.7956 3 15 3C13.95 3 13.04 3.54 12.5 4.35L12 5L11.5 4.34C10.96 3.54 10.05 3 9 3C8.20435 3 7.44129 3.31607 6.87868 3.87868C6.31607 4.44129 6 5.20435 6 6C6 6.35 6.07 6.69 6.18 7H4C2.89 7 2 7.89 2 9V20C2 21.11 2.89 22 4 22H20C21.11 22 22 21.11 22 20V9C22 7.89 21.11 7 20 7Z" fill="#F0F2DA"/>
</svg>
