<svg width="24" height="25" viewBox="0 0 24 25" fill="none" xmlns="http://www.w3.org/2000/svg">
<path d="M21.04 10.95L11.84 23L2.62 10.96L2.71 10.88C2.92 10.67 3.17 10.5 3.42 10.36L10.57 19.69L8.42 13L9.08 11.81L11.84 20.38L14.57 11.8L15.24 13L13.11 19.69L20.25 10.35C20.5 10.5 20.74 10.64 20.94 10.85L21.04 10.95ZM4.84 9C6.34 9 7.65 9.86 8.34 11.1C9.01 9.86 10.31 9 11.84 9C13.34 9 14.64 9.85 15.34 11.09C16 9.84 17.31 9 18.84 9C19.93 9 20.93 9.42 21.65 10.14C20.78 5.5 16.72 2 11.84 2C6.93 2 2.87 5.5 2 10.17C2.73 9.45 3.73 9 4.84 9Z" fill="#F0F2DA"/>
</svg>
