<svg width="24" height="25" viewBox="0 0 24 25" fill="none" xmlns="http://www.w3.org/2000/svg">
<path fill-rule="evenodd" clip-rule="evenodd" d="M4 2H12L18 8V9V10H16V9H11V4H4V20H16H18C18 20.5304 17.7893 21.0391 17.4142 21.4142C17.0391 21.7893 16.5304 22 16 22H4C3.46957 22 2.96086 21.7893 2.58579 21.4142C2.21071 21.0391 2 20.5304 2 20V4C2 3.46957 2.21071 2.96086 2.58579 2.58579C2.96086 2.21071 3.46957 2 4 2ZM6.28125 17.0001V12.6365H8.16477C8.48864 12.6365 8.77202 12.6954 9.01491 12.8133C9.25781 12.9312 9.44673 13.101 9.58168 13.3226C9.71662 13.5441 9.78409 13.8098 9.78409 14.1194C9.78409 14.4319 9.71449 14.6954 9.57528 14.9099C9.44668 15.1101 9.26918 15.2645 9.04281 15.3732L9.92898 17.0001H8.64205L7.87591 15.5598H7.46591V17.0001H6.28125ZM7.88352 14.6393H7.46591V13.5825H7.88352C8.02273 13.5825 8.14134 13.6017 8.23935 13.64C8.33878 13.677 8.41477 13.7352 8.46733 13.8147C8.52131 13.8929 8.5483 13.9944 8.5483 14.1194C8.5483 14.243 8.52131 14.3432 8.46733 14.4199C8.41477 14.4966 8.33878 14.5527 8.23935 14.5882C8.14134 14.6223 8.02273 14.6393 7.88352 14.6393ZM11.7635 12.6365H10.2891V17.0001H11.4482V14.4603H11.4822L12.4538 16.966H13.1527L14.1243 14.4774H14.1584V17.0001H15.3175V12.6365H13.843L12.8288 15.1081H12.7777L11.7635 12.6365ZM15.8789 17.0001V12.6365H17.7624C18.0863 12.6365 18.3697 12.6954 18.6126 12.8133C18.8555 12.9312 19.0444 13.101 19.1793 13.3226C19.3143 13.5441 19.3817 13.8098 19.3817 14.1194C19.3817 14.4319 19.3121 14.6954 19.1729 14.9099C19.0443 15.1101 18.8668 15.2645 18.6405 15.3732L19.5266 17.0001H18.2397L17.4736 15.5598H17.0636V17.0001H15.8789ZM17.4812 14.6393H17.0636V13.5825H17.4812C17.6204 13.5825 17.739 13.6017 17.837 13.64C17.9364 13.677 18.0124 13.7352 18.065 13.8147C18.119 13.8929 18.146 13.9944 18.146 14.1194C18.146 14.243 18.119 14.3432 18.065 14.4199C18.0124 14.4966 17.9364 14.5527 17.837 14.5882C17.739 14.6223 17.6204 14.6393 17.4812 14.6393ZM19.8867 17.0001V12.6365H21.0714V14.4007H21.131L22.4435 12.6365H23.8242L22.3498 14.5797L23.8583 17.0001H22.4435L21.4634 15.3637L21.0714 15.8751V17.0001H19.8867Z" fill="#F0F2DA"/>
</svg>
