<svg width="20" height="20" viewBox="0 0 20 20" fill="none" xmlns="http://www.w3.org/2000/svg">
<g id="Icon/RPC">
<path id="Vector" d="M14.1667 10C14.627 10 15.0001 10.3731 15.0001 10.8333V18.3333H13.3334V11.6667H6.66677V18.3333H5.00011V10.8333C5.00011 10.3731 5.3732 10 5.83344 10H14.1667ZM10.0001 13.3333V15H8.3334V13.3333H10.0001ZM10.0001 5C11.9576 5 13.6522 6.12481 14.4731 7.76335L12.9822 8.509C12.435 7.41659 11.3051 6.66666 10.0001 6.66666C8.69506 6.66666 7.56526 7.41659 7.01801 8.509L5.52704 7.76335C6.34794 6.12481 8.04266 5 10.0001 5ZM10.0001 1.66666C13.2627 1.66666 16.0874 3.54159 17.4555 6.27275L15.9646 7.01868C14.8702 4.83349 12.6104 3.33333 10.0001 3.33333C7.38984 3.33333 5.12995 4.83349 4.03557 7.01868L2.54474 6.27275C3.91282 3.54159 6.73751 1.66666 10.0001 1.66666Z" fill="#F0F2DA"/>
</g>
</svg>
