<svg width="24" height="24" viewBox="0 0 24 24" fill="none" xmlns="http://www.w3.org/2000/svg">
<g clip-path="url(#clip0_46_379)">
<path d="M3.08712 9H20.9131C21.0515 8.99994 21.1883 9.02859 21.3151 9.08413C21.4418 9.13968 21.5556 9.22092 21.6493 9.32271C21.743 9.4245 21.8146 9.54463 21.8595 9.67549C21.9044 9.80636 21.9216 9.94512 21.9101 10.083L21.0761 20.083C21.0553 20.3329 20.9414 20.5658 20.7569 20.7357C20.5724 20.9055 20.3309 20.9999 20.0801 21H3.92012C3.66937 20.9999 3.42782 20.9055 3.24334 20.7357C3.05887 20.5658 2.94493 20.3329 2.92412 20.083L2.09012 10.083C2.07864 9.94512 2.09589 9.80636 2.14079 9.67549C2.18568 9.54463 2.25725 9.4245 2.35096 9.32271C2.44466 9.22092 2.55847 9.13968 2.68519 9.08413C2.8119 9.02859 2.94877 8.99994 3.08712 9V9ZM4.84012 19H19.1601L19.8261 11H4.17412L4.84012 19V19ZM13.4141 5H20.0001C20.2653 5 20.5197 5.10536 20.7072 5.29289C20.8948 5.48043 21.0001 5.73478 21.0001 6V7H3.00012V4C3.00012 3.73478 3.10548 3.48043 3.29301 3.29289C3.48055 3.10536 3.7349 3 4.00012 3H11.4141L13.4141 5Z" fill="white"/>
</g>
<defs>
<clipPath id="clip0_46_379">
<rect width="24" height="24" fill="white"/>
</clipPath>
</defs>
</svg>
