<svg width="507" height="220" viewBox="0 0 507 220" fill="none" xmlns="http://www.w3.org/2000/svg">
<path d="M445.61 94.45C427.49 86.39 399.22 82.42 382.12 72.78C370.23 66.07 313.18 51.58 300.09 47.32C263.67 35.47 272.32 26.03 240.98 44.3C228.55 51.55 202.53 69.28 190.64 74.38C181.35 78.37 164.84 90.15 156.82 96.95C147.74 104.65 136.74 111.03 129.89 120.09C123.02 129.18 114.54 140.76 115.66 152.67C118.03 177.78 159.8 149.58 149.93 129.41C148.82 127.14 146.87 125.34 144.49 124.61" stroke="#F0F2DA" stroke-miterlimit="10"/>
<path d="M153.55 133.4C164.25 126.12 187 116.52 176.55 102.99" stroke="#F0F2DA" stroke-miterlimit="10"/>
<path d="M181.34 111.57C196.25 110.06 218.06 94.97 229.14 85.8" stroke="#F0F2DA" stroke-miterlimit="10"/>
<path d="M227.97 91.98C233.77 95.46 241.06 89.48 248.05 90.67" stroke="#F0F2DA" stroke-miterlimit="10"/>
<path d="M177.71 124.03C178.08 125.61 178.47 127.13 178.85 128.56C180.91 136.28 179.87 149.44 187.03 153.42" stroke="#F0F2DA" stroke-miterlimit="10"/>
<path d="M279.16 133.15C264.08 140.03 246.07 143.36 230.8 149.86" stroke="#F0F2DA" stroke-miterlimit="10"/>
<path d="M228.67 148.23C220.53 144.97 202.31 135.77 194.61 147.36C188.1 157.17 201.5 171.78 209.54 175.06C214.57 177.11 219.47 184.14 224.8 185.37C230.75 186.74 240.49 182.1 246.45 180.16C257.74 176.49 268.99 172.9 280.69 170.38C293.3 167.66 305.39 164.01 317.8 162.7C330.28 161.38 344.8 159.88 356.09 153.84C368.91 146.98 382.71 134.01 382.74 118.45" stroke="#F0F2DA" stroke-miterlimit="10"/>
<path d="M207.67 167.3C210.3 160.91 212.4 156.64 218.24 152.58C211.97 146.77 201.36 145.53 197.28 154.34" stroke="#F0F2DA" stroke-miterlimit="10"/>
<path d="M204.25 108.69C206.12 116.93 201.67 123.79 201.22 131.77" stroke="#F0F2DA" stroke-miterlimit="10"/>
<path d="M229.91 99.05C227.12 104.05 223.27 108.49 219.21 110.06" stroke="#F0F2DA" stroke-miterlimit="10"/>
<path d="M242.6 101.58C241.23 105.27 239.41 108.62 235.79 111.75" stroke="#F0F2DA" stroke-miterlimit="10"/>
<path d="M219.12 115.46C219.17 121.06 221.27 126.96 221.39 132.52" stroke="#F0F2DA" stroke-miterlimit="10"/>
<path d="M232.45 116.49C234.25 123.19 237.25 129.6 238.55 136.36" stroke="#F0F2DA" stroke-miterlimit="10"/>
<path d="M268 111.57C266.08 103.07 261.05 100.11 256.3 93.23C253.99 89.89 247.46 85.24 244.77 82.34" stroke="#F0F2DA" stroke-miterlimit="10"/>
<path d="M263.02 134.57C266.34 130.72 269.53 123.66 271.09 118.81C272.66 113.91 273.32 108.16 273.37 103" stroke="#F0F2DA" stroke-miterlimit="10"/>
<path d="M224.7 179.25C224.12 174.41 224.88 170.51 226.9 165.99" stroke="#F0F2DA" stroke-miterlimit="10"/>
<path d="M229.51 181.41C230.39 179.08 228.35 176.12 228.57 173.6" stroke="#F0F2DA" stroke-miterlimit="10"/>
<path d="M243.1 107.49C248.66 111.8 253.65 114.6 259.86 114.13" stroke="#F0F2DA" stroke-miterlimit="10"/>
<path d="M376.19 145.54C385.34 151.38 399.01 149.74 409.72 151.84C419.56 153.77 428.35 156.49 437.09 160.7" stroke="#F0F2DA" stroke-miterlimit="10"/>
<path d="M381.69 142.42C386.56 135.8 388.41 128.62 390.86 120.56" stroke="#F0F2DA" stroke-miterlimit="10"/>
<path d="M135.81 162.12C138.83 165.35 140.96 170.94 143.86 174.45C127.88 175.41 111.73 174.22 95.4001 174.41C101.66 164.79 105.57 159.48 107.19 158.74H112.35" stroke="#F0F2DA" stroke-miterlimit="10"/>
<path d="M146.43 177.66C147.13 179.07 147.92 181.08 148.2 182.41" stroke="#F0F2DA" stroke-miterlimit="10"/>
<path d="M61.51 167.54C64.88 167.52 68.2 167.82 71.56 167.95C74.59 168.07 77.76 168.22 80.79 168.5C83.82 168.78 84.43 168.51 86.18 166.32C89.53 162.15 93.51 158.42 96.85 154.21C90.54 154.28 83.36 152.7 77.21 153.5" stroke="#F0F2DA" stroke-miterlimit="10"/>
<path d="M154.1 169.35C152.42 167.71 146.6 156.46 145.29 154.58C149.17 152.86 157.28 153.27 161.85 153.21" stroke="#F0F2DA" stroke-miterlimit="10"/>
<path d="M177.89 169.02C171.02 169.1 161 169.39 154.06 169.38" stroke="#F0F2DA" stroke-miterlimit="10"/>
<path d="M84.1301 171.51C83.0601 175.36 84.3401 180.54 82.8601 183.98" stroke="#F0F2DA" stroke-miterlimit="10"/>
<path d="M153.72 172.12C153.77 176.06 153.58 180 153.39 183.88" stroke="#F0F2DA" stroke-miterlimit="10"/>
<path d="M96.8 154.15C96.96 156.16 97.1701 158.71 97.9301 160.48" stroke="#F0F2DA" stroke-miterlimit="10"/>
<path d="M145.28 154.47C145.22 156.78 143.02 159 143.07 161.37" stroke="#F0F2DA" stroke-miterlimit="10"/>
<path d="M147.29 185.36C127.94 185.58 108.81 184.63 89.45 184.85C90.93 181.35 92.61 182.02 94.03 178.42" stroke="#F0F2DA" stroke-miterlimit="10"/>
<path d="M124.45 133.33C125.79 135.59 128.29 136.63 130.96 136.69C130.36 143.11 126.69 150.58 121.16 154.01" stroke="#F0F2DA" stroke-miterlimit="10"/>
</svg>
