<svg width="507" height="220" viewBox="0 0 507 220" fill="none" xmlns="http://www.w3.org/2000/svg">
<path d="M445.61 94.45C427.49 86.39 399.22 82.42 382.12 72.78C370.23 66.07 313.18 51.58 300.09 47.32C263.67 35.47 277.64 31.37 241.75 36.68C229.01 38.56 202.99 44.33 190.64 47.32C180.81 49.7 164.35 50.87 156.33 57.67C147.25 65.37 142.94 80.65 136.08 89.71C129.21 98.8 120.73 110.38 121.85 122.29C124.22 147.4 165.99 119.2 156.12 99.03C155.01 96.76 153.06 94.96 150.68 94.23" stroke="#F0F2DA" stroke-miterlimit="10"/>
<path d="M159.75 103.01C170.45 95.73 185.55 85.74 175.1 72.21" stroke="#F0F2DA" stroke-miterlimit="10"/>
<path d="M182.98 81.63C196.7 84.33 215.82 78.96 226.94 71.3" stroke="#F0F2DA" stroke-miterlimit="10"/>
<path d="M227.36 75.58C233.16 79.06 241.74 83.27 248.72 84.45" stroke="#F0F2DA" stroke-miterlimit="10"/>
<path d="M184.44 86.36C171.32 94.84 175.36 115.42 178.86 128.56C180.92 136.28 179.88 149.44 187.04 153.42" stroke="#F0F2DA" stroke-miterlimit="10"/>
<path d="M279.16 133.15C264.08 140.03 246.07 143.36 230.8 149.86" stroke="#F0F2DA" stroke-miterlimit="10"/>
<path d="M228.67 148.23C220.53 144.97 202.31 135.77 194.61 147.36C188.1 157.17 201.5 171.78 209.54 175.06C214.57 177.11 219.47 184.14 224.8 185.37C230.75 186.74 240.49 182.1 246.45 180.16C257.74 176.49 268.99 172.9 280.69 170.38C293.3 167.66 305.39 164.01 317.8 162.7C330.28 161.38 344.8 159.88 356.09 153.84C368.91 146.98 382.71 134.01 382.74 118.45" stroke="#F0F2DA" stroke-miterlimit="10"/>
<path d="M207.67 167.3C210.3 160.91 212.4 156.64 218.24 152.58C211.97 146.77 201.36 145.53 197.28 154.34" stroke="#F0F2DA" stroke-miterlimit="10"/>
<path d="M224.33 83.34C222.61 98.05 211.84 101.73 199.32 104.64" stroke="#F0F2DA" stroke-miterlimit="10"/>
<path d="M204.25 108.69C206.12 116.93 201.67 123.79 201.22 131.77" stroke="#F0F2DA" stroke-miterlimit="10"/>
<path d="M234.28 86.05C233.73 93.98 226.86 107.1 219.21 110.06" stroke="#F0F2DA" stroke-miterlimit="10"/>
<path d="M245.37 93.06C242.91 100.35 242 106.36 235.79 111.76" stroke="#F0F2DA" stroke-miterlimit="10"/>
<path d="M219.12 115.46C219.17 121.06 221.27 126.96 221.39 132.52" stroke="#F0F2DA" stroke-miterlimit="10"/>
<path d="M232.45 116.49C234.25 123.19 237.25 129.6 238.55 136.36" stroke="#F0F2DA" stroke-miterlimit="10"/>
<path d="M268 111.57C266.08 103.07 262.69 94.11 258.94 86.35C257.17 82.69 254.87 78.39 252.18 75.49" stroke="#F0F2DA" stroke-miterlimit="10"/>
<path d="M263.02 134.57C266.34 130.72 269.53 123.66 271.09 118.81C272.66 113.91 273.32 108.16 273.37 103" stroke="#F0F2DA" stroke-miterlimit="10"/>
<path d="M224.7 179.25C224.12 174.41 224.88 170.51 226.9 165.99" stroke="#F0F2DA" stroke-miterlimit="10"/>
<path d="M229.51 181.41C230.39 179.08 228.35 176.12 228.57 173.6" stroke="#F0F2DA" stroke-miterlimit="10"/>
<path d="M243.1 107.49C248.66 111.8 253.65 114.6 259.86 114.13" stroke="#F0F2DA" stroke-miterlimit="10"/>
<path d="M376.19 145.54C385.34 151.38 399.01 149.74 409.72 151.84C419.56 153.77 428.35 156.49 437.09 160.7" stroke="#F0F2DA" stroke-miterlimit="10"/>
<path d="M381.69 142.42C386.56 135.8 388.41 128.62 390.86 120.56" stroke="#F0F2DA" stroke-miterlimit="10"/>
<path d="M130.82 154.17C126.51 154.22 110.96 152.82 107.18 154.55C105.56 155.29 101.65 160.6 95.3901 170.22C111.72 170.03 127.87 171.22 143.85 170.26C140.95 166.75 137.62 159.72 134.6 156.48" stroke="#F0F2DA" stroke-miterlimit="10"/>
<path d="M144.09 172.7C144.87 174.28 145.63 176.03 146.43 177.66C147.13 179.07 147.92 181.08 148.2 182.41" stroke="#F0F2DA" stroke-miterlimit="10"/>
<path d="M61.51 167.54C64.88 167.52 68.2 167.82 71.56 167.95C74.59 168.07 77.76 168.22 80.79 168.5C83.82 168.78 84.43 168.51 86.18 166.32C89.53 162.15 93.51 158.42 96.85 154.21C90.54 154.28 83.36 152.7 77.21 153.5" stroke="#F0F2DA" stroke-miterlimit="10"/>
<path d="M154.1 169.35C152.42 167.71 146.6 156.46 145.29 154.58C149.17 152.86 157.28 153.27 161.85 153.21" stroke="#F0F2DA" stroke-miterlimit="10"/>
<path d="M177.89 169.02C171.02 169.1 161 169.39 154.06 169.38" stroke="#F0F2DA" stroke-miterlimit="10"/>
<path d="M84.1301 171.51C83.0601 175.36 84.3401 180.54 82.8601 183.98" stroke="#F0F2DA" stroke-miterlimit="10"/>
<path d="M153.72 172.12C153.77 176.06 153.58 180 153.39 183.88" stroke="#F0F2DA" stroke-miterlimit="10"/>
<path d="M96.8 154.15C96.96 156.16 97.1701 158.71 97.9301 160.48" stroke="#F0F2DA" stroke-miterlimit="10"/>
<path d="M145.28 154.47C145.22 156.78 143.02 159 143.07 161.37" stroke="#F0F2DA" stroke-miterlimit="10"/>
<path d="M147.29 185.36C127.94 185.58 108.81 184.63 89.45 184.85C90.93 181.35 92.61 177.81 94.03 174.22" stroke="#F0F2DA" stroke-miterlimit="10"/>
<path d="M130.65 102.93C131.99 105.19 134.49 106.23 137.16 106.29C136.56 112.71 132.89 120.18 127.36 123.61" stroke="#F0F2DA" stroke-miterlimit="10"/>
</svg>
