<svg width="24" height="25" viewBox="0 0 24 25" fill="none" xmlns="http://www.w3.org/2000/svg">
<g clip-path="url(#clip0_3459_16193)">
<path d="M11.6009 4.04521L8.71186 2.0061H6.45137C6.20489 2.0061 6.00421 2.17309 6.00421 2.37895V4.71317L8.32858 6.35272L11.6009 4.04521Z" fill="#F96943"/>
<path d="M12.0517 18.365L14.5538 20.129H16.7523C16.8161 20.129 16.88 20.1175 16.9391 20.0932C16.9855 20.0768 17.0289 20.0519 17.0668 20.0203C17.1482 19.9572 17.1964 19.86 17.1982 19.7568V17.3776L15.3258 16.0569L12.0517 18.365Z" fill="url(#paint0_linear_3459_16193)"/>
<path d="M17.2 2.30058V4.71314L7.08113 11.8512C6.39834 12.3917 6 13.2181 6 14.0925V7.99587L14.4972 2H16.7751C16.9873 2.00607 17.1614 2.13299 17.2 2.30058Z" fill="white"/>
<path d="M17.2 7.99224L15.324 6.66968L12.0517 8.97718L14.9805 11.0418L16.0472 10.2888C16.7715 9.75141 17.1994 8.89885 17.2 7.99224Z" fill="url(#paint1_linear_3459_16193)"/>
<path d="M11.6009 13.4306L8.67207 11.366L7.08111 12.4857C6.55922 12.8992 6.19825 13.4846 6.06024 14.1386L8.32796 15.7393L11.6009 13.4306Z" fill="#F96943"/>
<path d="M16.0526 10.2888L16.0472 10.293L6.00061 17.3813V22L17.1964 14.1496L17.2 7.99219C17.2006 8.89758 16.7751 9.75014 16.0526 10.2888Z" fill="white"/>
</g>
<defs>
<linearGradient id="paint0_linear_3459_16193" x1="13.8108" y1="17.2969" x2="16.9626" y2="19.4865" gradientUnits="userSpaceOnUse">
<stop offset="0.1" stop-color="#CE4E2C"/>
<stop offset="1"/>
</linearGradient>
<linearGradient id="paint1_linear_3459_16193" x1="12.0517" y1="8.85574" x2="17.2" y2="8.85574" gradientUnits="userSpaceOnUse">
<stop offset="0.1" stop-color="#CE4E2C"/>
<stop offset="1"/>
</linearGradient>
<clipPath id="clip0_3459_16193">
<rect width="11.2" height="20" fill="white" transform="translate(6 2)"/>
</clipPath>
</defs>
</svg>
