<svg width="392" height="220" viewBox="0 0 392 220" fill="none" xmlns="http://www.w3.org/2000/svg">
<g clip-path="url(#clip0_741_2282)">
<path d="M99.2804 87.86C98.5804 110.7 97.8804 133.53 97.1904 156.37C102.9 156.71 108.61 157.05 114.32 157.39" stroke="#F0F2DA" stroke-miterlimit="10"/>
<path d="M97.8301 83.41C104.56 83.46 111.28 83.51 118.01 83.56C117.43 105.52 116.85 127.48 116.26 149.43" stroke="#F0F2DA" stroke-miterlimit="10"/>
<path d="M153.56 158.23C154.68 125.66 155.8 93.09 156.92 60.51C149.49 60.51 142.07 60.51 134.64 60.51C134.77 93.45 134.91 126.39 135.04 159.33C138.37 159.72 141.96 159.35 145.12 158.23" stroke="#F0F2DA" stroke-miterlimit="10"/>
<path d="M168.37 157.14C167.93 137.84 167.49 118.53 167.06 99.23C174 99.55 180.94 99.88 187.88 100.2C187.94 118.82 188 137.43 188.06 156.05" stroke="#F0F2DA" stroke-miterlimit="10"/>
<path d="M173.17 156.04H184.17" stroke="#F0F2DA" stroke-miterlimit="10"/>
<path d="M203.25 86.78C202.69 110.63 202.13 134.48 201.57 158.33C208.93 158.5 216.3 158.66 223.66 158.83C223.74 135.55 223.83 112.27 223.91 88.98C220.61 88.98 214.96 88.43 211.66 88.43" stroke="#F0F2DA" stroke-miterlimit="10"/>
<path d="M235.53 74.69C235.52 102.59 235.5 130.48 235.49 158.38C242.28 158.34 249.08 158.3 255.87 158.25C255.59 127.11 256.48 95.97 258.52 64.9C251.33 65.05 244.15 65.19 236.96 65.34" stroke="#F0F2DA" stroke-miterlimit="10"/>
<path d="M271.16 77.44C270.57 104.55 271.1 131.67 272.76 158.74C279.42 159.63 286.2 159.63 292.86 158.74C294.41 131.47 295.04 104.15 294.74 76.84C289.96 77.22 285.18 77.59 280.4 77.97" stroke="#F0F2DA" stroke-miterlimit="10"/>
</g>
<defs>
<clipPath id="clip0_741_2282">
<rect width="392" height="220" fill="white"/>
</clipPath>
</defs>
</svg>
