<svg width="392" height="220" viewBox="0 0 392 220" fill="none" xmlns="http://www.w3.org/2000/svg">
<g clip-path="url(#clip0_741_2292)">
<path d="M99.9103 88.52C99.2103 111.36 98.5103 134.19 97.8203 157.03C103.53 157.37 109.24 157.71 114.95 158.05" stroke="#F0F2DA" stroke-miterlimit="10"/>
<path d="M98.46 84.08C105.19 84.13 111.91 84.18 118.64 84.23C118.06 106.19 117.48 128.15 116.89 150.1" stroke="#F0F2DA" stroke-miterlimit="10"/>
<path d="M135.37 158.7C134.09 131.64 133.95 104.52 134.93 77.45C141.98 77.87 149.03 78.28 156.08 78.7C155.77 105.7 155.46 132.69 155.15 159.69C150.96 159.69 146.76 159.7 142.57 159.71" stroke="#F0F2DA" stroke-miterlimit="10"/>
<path d="M167.21 90.66C165.46 113.15 165.04 135.75 165.96 158.29C173.46 158.17 180.96 158.04 188.46 157.92C188.36 135.77 188.27 113.61 188.17 91.46C183.77 91.46 179.13 91.46 174.73 91.46" stroke="#F0F2DA" stroke-miterlimit="10"/>
<path d="M203.5 158.29C203.56 139.51 203.62 120.72 203.68 101.94C210.66 102.06 217.64 102.19 224.62 102.31C224.63 121.11 224.65 139.91 224.66 158.71C220.26 158.68 215.43 159.31 211.03 159.28" stroke="#F0F2DA" stroke-miterlimit="10"/>
<path d="M235.78 85.08L257.71 84.88C257.45 109.46 257.19 134.04 256.93 158.63C250.03 158.49 243.13 158.36 236.23 158.22C236.21 137.07 236.19 115.92 236.17 94.76" stroke="#F0F2DA" stroke-miterlimit="10"/>
<path d="M272.69 59.7C273.19 93.23 273.68 126.76 274.18 160.29C280.85 160.01 287.52 159.73 294.19 159.45C293.6 126.75 293 94.05 292.41 61.35" stroke="#F0F2DA" stroke-miterlimit="10"/>
<path d="M278.67 60.12C281.83 60.26 284.99 60.39 288.16 60.53" stroke="#F0F2DA" stroke-miterlimit="10"/>
</g>
<defs>
<clipPath id="clip0_741_2292">
<rect width="392" height="220" fill="white"/>
</clipPath>
</defs>
</svg>
