<svg width="392" height="220" viewBox="0 0 392 220" fill="none" xmlns="http://www.w3.org/2000/svg">
<g clip-path="url(#clip0_741_2302)">
<path d="M98.2502 115.17C98.0402 128.42 97.8302 141.66 97.6202 154.91C97.6102 155.69 97.6202 156.53 98.0802 157.16C98.7502 158.07 100.05 158.14 101.18 158.13C106.78 158.08 112.38 158.02 117.99 157.97C117.55 143.43 117.11 128.89 116.66 114.34C112.67 114.19 108.77 114.85 104.79 114.7" stroke="#F0F2DA" stroke-miterlimit="10"/>
<path d="M134.68 160.53C133.78 126.96 132.87 93.38 131.97 59.81C140.17 59.7 148.38 59.59 156.58 59.47C155.5 92.19 154.41 124.91 153.33 157.63C149.34 157.68 145.9 159.14 141.91 159.19" stroke="#F0F2DA" stroke-miterlimit="10"/>
<path d="M166 105.26C166.08 123.21 166.17 141.15 166.25 159.1C173.53 158.99 180.81 158.89 188.09 158.78C187.54 141.6 187.2 124.92 186.65 107.74" stroke="#F0F2DA" stroke-miterlimit="10"/>
<path d="M203.85 86.3C203.55 110.87 203.24 135.44 202.94 160.02C209.94 159.89 216.95 159.75 223.95 159.62C225.31 135.66 225.19 111.63 223.61 87.68C219.2 87.77 214.79 87.86 210.38 87.95" stroke="#F0F2DA" stroke-miterlimit="10"/>
<path d="M169.95 107.83L180.67 108.22" stroke="#F0F2DA" stroke-miterlimit="10"/>
<path d="M256.95 76.81C257.39 104.6 257.82 132.39 258.26 160.18C251.43 160.3 244.6 160.41 237.77 160.53C237.23 132.35 236.7 104.16 236.16 75.98C240.01 75.98 243.24 75.57 247.09 75.57" stroke="#F0F2DA" stroke-miterlimit="10"/>
<path d="M292.05 92.53C285.66 92.82 279.27 93.11 272.88 93.4C273.41 115.5 273.25 137.61 272.4 159.7C279.41 159.7 287.1 160.12 294.11 160.12C293.96 140.32 294.51 120.93 294.36 101.14" stroke="#F0F2DA" stroke-miterlimit="10"/>
</g>
<defs>
<clipPath id="clip0_741_2302">
<rect width="392" height="220" fill="white"/>
</clipPath>
</defs>
</svg>
