<svg width="24" height="24" viewBox="0 0 24 24" fill="none" xmlns="http://www.w3.org/2000/svg">
<path d="M9.18434 17.8644C9.18434 17.8644 8.36502 18.3412 9.7682 18.5021C11.4684 18.6963 12.3372 18.6684 14.2103 18.3144C14.2103 18.3144 14.7038 18.6229 15.3916 18.8903C11.1912 20.6899 5.88555 18.786 9.18434 17.8644ZM8.67078 15.5157C8.67078 15.5157 7.75159 16.1962 9.15599 16.3416C10.9722 16.5291 12.4061 16.5444 14.8887 16.0666C14.8887 16.0666 15.2313 16.4147 15.7708 16.6047C10.6932 18.0897 5.03786 16.7216 8.67078 15.5157Z" fill="#0074BD"/>
<path d="M12.9973 11.5309C14.0329 12.7229 12.7257 13.7945 12.7257 13.7945C12.7257 13.7945 15.3535 12.4382 14.147 10.7391C13.0197 9.15526 12.1555 8.36859 16.8342 5.65503C16.8342 5.6552 9.48986 7.48894 12.9973 11.5309Z" fill="#EA2D2E"/>
<path d="M18.5523 19.6018C18.5523 19.6018 19.1588 20.102 17.884 20.4885C15.4603 21.2228 7.79395 21.4442 5.66476 20.5179C4.89975 20.1848 6.3349 19.723 6.78642 19.6255C7.25718 19.5236 7.526 19.5422 7.526 19.5422C6.6747 18.9429 2.02376 20.7195 5.16392 21.2291C13.7269 22.6172 20.7731 20.604 18.5523 19.6018ZM9.57853 13.0817C9.57853 13.0817 5.67937 14.008 8.19786 14.3447C9.26142 14.487 11.3806 14.4543 13.356 14.2887C14.9699 14.153 16.5895 13.8634 16.5895 13.8634C16.5895 13.8634 16.0209 14.1073 15.6091 14.3882C11.6488 15.4299 3.99998 14.9447 6.20221 13.8798C8.06396 12.9793 9.57853 13.0817 9.57853 13.0817ZM16.5733 16.9914C20.5988 14.9002 18.7374 12.8905 17.4382 13.1612C17.1206 13.2273 16.9781 13.2849 16.9781 13.2849C16.9781 13.2849 17.0963 13.0995 17.3218 13.0197C19.8919 12.1165 21.8681 15.6843 16.4929 17.0974C16.4929 17.0971 16.5546 17.0412 16.5733 16.9914Z" fill="#0074BD"/>
<path d="M14.147 1.27271C14.147 1.27271 16.3759 3.50295 12.0324 6.93134C8.54923 9.68238 11.2382 11.2506 12.0312 13.043C9.99779 11.2086 8.50626 9.59352 9.50674 8.09047C10.9759 5.88463 15.0461 4.81471 14.147 1.27271Z" fill="#EA2D2E"/>
<path d="M9.97448 22.6599C13.8375 22.9069 19.7714 22.5224 19.9118 20.6943C19.9118 20.6943 19.6418 21.3873 16.7189 21.9372C13.4213 22.558 9.35333 22.4856 6.94141 22.0874C6.94141 22.0876 7.43555 22.4966 9.97448 22.6599Z" fill="#0074BD"/>
</svg>
