<svg width="24" height="24" viewBox="0 0 24 24" fill="none" xmlns="http://www.w3.org/2000/svg">
<path d="M9.18422 17.8644C9.18422 17.8644 8.36489 18.3411 9.76808 18.502C11.4683 18.6962 12.3371 18.6684 14.2102 18.3143C14.2102 18.3143 14.7036 18.6228 15.3915 18.8903C11.191 20.6898 5.88543 18.786 9.18422 17.8644ZM8.67066 15.5157C8.67066 15.5157 7.75147 16.1961 9.15586 16.3415C10.9721 16.5291 12.406 16.5444 14.8886 16.0665C14.8886 16.0665 15.2311 16.4146 15.7706 16.6047C10.6931 18.0897 5.03774 16.7216 8.67066 15.5157Z" fill="#0074BD"/>
<path d="M12.9972 11.531C14.0327 12.7229 12.7256 13.7946 12.7256 13.7946C12.7256 13.7946 15.3534 12.4383 14.1469 10.7392C13.0195 9.15532 12.1553 8.36865 16.8341 5.65509C16.8341 5.65526 9.48973 7.489 12.9972 11.531Z" fill="#EA2D2E"/>
<path d="M18.5524 19.6019C18.5524 19.6019 19.159 20.102 17.8842 20.4886C15.4604 21.2228 7.79407 21.4442 5.66488 20.518C4.89987 20.1849 6.33502 19.7231 6.78654 19.6256C7.25731 19.5237 7.52612 19.5422 7.52612 19.5422C6.67482 18.9429 2.02388 20.7196 5.16404 21.2292C13.727 22.6173 20.7732 20.6041 18.5524 19.6019ZM9.57865 13.0818C9.57865 13.0818 5.67949 14.008 8.19798 14.3447C9.26154 14.4871 11.3808 14.4544 13.3561 14.2887C14.97 14.1531 16.5896 13.8635 16.5896 13.8635C16.5896 13.8635 16.021 14.1074 15.6092 14.3882C11.6489 15.43 4.0001 14.9448 6.20234 13.8798C8.06409 12.9794 9.57865 13.0818 9.57865 13.0818ZM16.5734 16.9914C20.5989 14.9002 18.7375 12.8905 17.4383 13.1612C17.1207 13.2274 16.9782 13.285 16.9782 13.285C16.9782 13.285 17.0965 13.0995 17.322 13.0198C19.892 12.1166 21.8682 15.6843 16.493 17.0975C16.493 17.0972 16.5547 17.0413 16.5734 16.9914Z" fill="#0074BD"/>
<path d="M14.1469 1.27277C14.1469 1.27277 16.3758 3.50302 12.0323 6.93141C8.54911 9.68244 11.2381 11.2506 12.0311 13.0431C9.99767 11.2087 8.50614 9.59358 9.50662 8.09053C10.9758 5.88469 15.046 4.81477 14.1469 1.27277Z" fill="#EA2D2E"/>
<path d="M9.97424 22.6598C13.8373 22.9068 19.7711 22.5223 19.9115 20.6943C19.9115 20.6943 19.6415 21.3873 16.7186 21.9371C13.421 22.5579 9.35308 22.4856 6.94116 22.0873C6.94116 22.0875 7.4353 22.4966 9.97424 22.6598Z" fill="#0074BD"/>
</svg>
