<svg width="24" height="24" viewBox="0 0 24 24" fill="none" xmlns="http://www.w3.org/2000/svg">
<g clip-path="url(#clip0_383_2617)">
<path d="M11.9498 1.00623C6.35645 1.00623 6.70569 3.43183 6.70569 3.43183L6.7119 5.94484H12.0495V6.69931H4.59188C4.59188 6.69931 1.0127 6.29339 1.0127 11.937C1.0127 17.5809 4.1367 17.3807 4.1367 17.3807H6.00109V14.7617C6.00109 14.7617 5.90058 11.6377 9.07522 11.6377H14.3692C14.3692 11.6377 17.3435 11.6858 17.3435 8.76317V3.93076C17.3435 3.93076 17.7952 1.00623 11.9498 1.00623ZM9.00663 2.69617C9.13276 2.69606 9.25768 2.72082 9.37423 2.76903C9.49078 2.81725 9.59669 2.88798 9.68587 2.97716C9.77506 3.06635 9.84579 3.17225 9.894 3.28881C9.94222 3.40536 9.96698 3.53027 9.96687 3.65641C9.96698 3.78254 9.94222 3.90745 9.894 4.02401C9.84579 4.14056 9.77506 4.24646 9.68587 4.33565C9.59669 4.42484 9.49078 4.49556 9.37423 4.54378C9.25768 4.592 9.13276 4.61675 9.00663 4.61664C8.8805 4.61675 8.75558 4.592 8.63903 4.54378C8.52248 4.49556 8.41658 4.42484 8.32739 4.33565C8.2382 4.24646 8.16748 4.14056 8.11926 4.02401C8.07104 3.90745 8.04628 3.78254 8.0464 3.65641C8.04628 3.53027 8.07104 3.40536 8.11926 3.28881C8.16748 3.17225 8.2382 3.06635 8.32739 2.97716C8.41658 2.88798 8.52248 2.81725 8.63903 2.76903C8.75558 2.72082 8.8805 2.69606 9.00663 2.69617Z" fill="url(#paint0_linear_383_2617)"/>
<path d="M12.1084 22.9245C17.7018 22.9245 17.3525 20.4989 17.3525 20.4989L17.3463 17.986H12.0086V17.2315H19.4663C19.4663 17.2315 23.0455 17.6375 23.0455 11.9936C23.0455 6.34992 19.9215 6.55007 19.9215 6.55007H18.0571V9.16893C18.0571 9.16893 18.1576 12.2929 14.9829 12.2929H9.68895C9.68895 12.2929 6.71463 12.2449 6.71463 15.1676V20.0001C6.71463 20.0001 6.26299 22.9245 12.1083 22.9245H12.1084ZM15.0516 21.2348C14.9255 21.2349 14.8006 21.2101 14.684 21.1619C14.5674 21.1137 14.4615 21.043 14.3724 20.9538C14.2832 20.8646 14.2124 20.7587 14.1642 20.6421C14.116 20.5256 14.0913 20.4007 14.0914 20.2745C14.0912 20.1484 14.116 20.0235 14.1642 19.9069C14.2124 19.7903 14.2831 19.6844 14.3723 19.5952C14.4615 19.506 14.5674 19.4353 14.684 19.3871C14.8005 19.3389 14.9255 19.3141 15.0516 19.3142C15.1777 19.3141 15.3026 19.3389 15.4192 19.3871C15.5358 19.4353 15.6417 19.506 15.7308 19.5952C15.82 19.6844 15.8908 19.7903 15.939 19.9068C15.9872 20.0234 16.0119 20.1483 16.0118 20.2744C16.0119 20.4006 15.9872 20.5255 15.939 20.642C15.8908 20.7586 15.82 20.8645 15.7308 20.9537C15.6417 21.0429 15.5358 21.1136 15.4192 21.1618C15.3026 21.21 15.1777 21.2348 15.0516 21.2347V21.2348Z" fill="url(#paint1_linear_383_2617)"/>
</g>
<defs>
<linearGradient id="paint0_linear_383_2617" x1="3.13006" y1="2.97765" x2="14.0489" y2="13.7876" gradientUnits="userSpaceOnUse">
<stop stop-color="#387EB8"/>
<stop offset="1" stop-color="#366994"/>
</linearGradient>
<linearGradient id="paint1_linear_383_2617" x1="9.83185" y1="9.91908" x2="21.5575" y2="21.0037" gradientUnits="userSpaceOnUse">
<stop stop-color="#FFE052"/>
<stop offset="1" stop-color="#FFC331"/>
</linearGradient>
<clipPath id="clip0_383_2617">
<rect width="22.0884" height="22" fill="white" transform="translate(1 1)"/>
</clipPath>
</defs>
</svg>
