<svg width="24" height="24" viewBox="0 0 24 24" fill="none" xmlns="http://www.w3.org/2000/svg">
<path d="M11.2625 14.1375C12.3688 14.1375 13.2657 13.1806 13.2657 12C13.2657 10.8195 12.3688 9.86255 11.2625 9.86255C10.1561 9.86255 9.25928 10.8195 9.25928 12C9.25928 13.1806 10.1561 14.1375 11.2625 14.1375Z" fill="#61DAFB"/>
<path d="M18.8711 8.47505C18.4845 8.32505 18.0803 8.17505 17.6586 8.0438C17.764 7.5938 17.8519 7.1438 17.9222 6.71255C18.2912 4.23755 17.8871 2.4938 16.7625 1.8188C16.4286 1.61255 16.0596 1.5188 15.6379 1.5188C14.4078 1.5188 12.8439 2.4938 11.2625 4.12505C9.68098 2.4938 8.11708 1.5188 6.88705 1.5188C6.46533 1.5188 6.09632 1.61255 5.76245 1.8188C4.63785 2.51255 4.2337 4.2563 4.60271 6.71255C4.67299 7.1438 4.76085 7.5938 4.86629 8.0438C4.44456 8.17505 4.04041 8.3063 3.65383 8.47505C1.45734 9.37505 0.262451 10.6125 0.262451 12C0.262451 13.3876 1.47491 14.6251 3.65383 15.5251C4.04041 15.6751 4.44456 15.8251 4.86629 15.9563C4.76085 16.4063 4.67299 16.8563 4.60271 17.2875C4.2337 19.7626 4.63785 21.5063 5.76245 22.1813C6.09632 22.3876 6.46533 22.4813 6.88705 22.4813C8.13466 22.4813 9.69855 21.5063 11.2625 19.8751C12.8439 21.5063 14.4078 22.4813 15.6379 22.4813C16.0596 22.4813 16.4286 22.3876 16.7625 22.1813C17.8871 21.4876 18.2912 19.7438 17.9222 17.2875C17.8519 16.8563 17.764 16.4063 17.6586 15.9563C18.0803 15.8251 18.4845 15.6938 18.8711 15.5251C21.0676 14.6251 22.2625 13.3876 22.2625 12C22.2625 10.6125 21.0676 9.37505 18.8711 8.47505ZM16.2704 2.7563C16.9909 3.2063 17.2369 4.5938 16.9382 6.56255C16.8855 6.9563 16.7976 7.3688 16.6922 7.80005C15.7784 7.57505 14.812 7.42505 13.7928 7.3313C13.1954 6.4313 12.5803 5.62505 11.9653 4.8938C13.2656 3.52505 14.5835 2.58755 15.6554 2.58755C15.8839 2.58755 16.0947 2.6438 16.2704 2.7563ZM14.3024 13.8751C13.9861 14.475 13.6171 15.0751 13.2305 15.675C12.5803 15.7313 11.9302 15.7501 11.2625 15.7501C10.5771 15.7501 9.92699 15.7313 9.2944 15.675C8.90782 15.0751 8.55638 14.475 8.24009 13.8751C7.90622 13.2563 7.58993 12.6188 7.30878 12C7.58993 11.3813 7.90622 10.7438 8.24009 10.125C8.55638 9.52505 8.92539 8.92505 9.31197 8.32505C9.96213 8.2688 10.6123 8.25005 11.28 8.25005C11.9653 8.25005 12.6155 8.2688 13.2481 8.32505C13.6347 8.92505 13.9861 9.52505 14.3024 10.125C14.6363 10.7438 14.9525 11.3813 15.2337 12C14.935 12.6188 14.6363 13.2375 14.3024 13.8751ZM15.7609 13.2563C16.0244 13.9125 16.2353 14.55 16.4286 15.1876C15.8311 15.3376 15.1986 15.4501 14.5308 15.5438C14.7417 15.1876 14.9701 14.8126 15.1634 14.4188C15.3743 14.0251 15.5676 13.6313 15.7609 13.2563ZM11.2625 18.3376C10.8407 17.8501 10.4366 17.3251 10.05 16.7813C10.4541 16.8001 10.8583 16.8188 11.2625 16.8188C11.6666 16.8188 12.0708 16.8001 12.4749 16.7813C12.0883 17.3251 11.6842 17.8501 11.2625 18.3376ZM7.99408 15.5251C7.32635 15.4313 6.69376 15.3188 6.09632 15.1688C6.28961 14.5501 6.50047 13.8938 6.76405 13.2375C6.95734 13.6125 7.15063 14.0063 7.36149 14.3813C7.57236 14.7938 7.78322 15.1501 7.99408 15.5251ZM6.76405 10.7438C6.50047 10.0875 6.28961 9.45005 6.09632 8.81255C6.69376 8.66255 7.32635 8.55005 7.99408 8.4563C7.78322 8.81255 7.55478 9.18755 7.36149 9.5813C7.15063 9.97505 6.95734 10.3688 6.76405 10.7438ZM11.2625 5.66255C11.6842 6.15005 12.0883 6.67505 12.4749 7.2188C12.0708 7.20005 11.6666 7.1813 11.2625 7.1813C10.8583 7.1813 10.4541 7.20005 10.05 7.2188C10.4366 6.67505 10.8407 6.15005 11.2625 5.66255ZM15.1634 9.60005L14.5308 8.47505C15.1986 8.5688 15.8311 8.6813 16.4286 8.8313C16.2353 9.45005 16.0244 10.1063 15.7609 10.7626C15.5676 10.3688 15.3743 9.97505 15.1634 9.60005ZM5.58673 6.56255C5.28801 4.5938 5.53402 3.2063 6.25446 2.7563C6.43018 2.6438 6.64105 2.58755 6.86948 2.58755C7.92379 2.58755 9.24168 3.5063 10.5596 4.8938C9.94456 5.6063 9.32954 6.4313 8.7321 7.3313C7.71293 7.42505 6.74648 7.5938 5.83274 7.80005C5.72731 7.3688 5.65702 6.9563 5.58673 6.56255ZM1.24648 12C1.24648 11.1188 2.24807 10.1813 4.00526 9.48755C4.3567 9.33755 4.74328 9.2063 5.12986 9.0938C5.41101 10.0313 5.76245 11.025 6.18418 12.0188C5.76245 13.0125 5.39344 13.9875 5.12986 14.925C2.70494 14.175 1.24648 13.05 1.24648 12ZM6.25446 21.2438C5.53402 20.7938 5.28801 19.4063 5.58673 17.4376C5.63945 17.0438 5.72731 16.6313 5.83274 16.2001C6.74648 16.4251 7.71293 16.5751 8.7321 16.6688C9.32954 17.5688 9.94456 18.3751 10.5596 19.1063C9.25926 20.4751 7.94137 21.4125 6.86948 21.4125C6.64105 21.4125 6.43018 21.3563 6.25446 21.2438ZM16.9382 17.4376C17.2369 19.4063 16.9909 20.7938 16.2704 21.2438C16.0947 21.3563 15.8839 21.4125 15.6554 21.4125C14.6011 21.4125 13.2832 20.4938 11.9653 19.1063C12.5803 18.3938 13.1954 17.5688 13.7928 16.6688C14.812 16.5751 15.7784 16.4063 16.6922 16.2001C16.7976 16.6313 16.8679 17.0438 16.9382 17.4376ZM18.5196 14.5126C18.1682 14.6625 17.7816 14.7938 17.395 14.9063C17.1139 13.9688 16.7625 12.975 16.3407 11.9813C16.7625 10.9875 17.1315 10.0126 17.395 9.07505C19.82 9.82505 21.2784 10.9501 21.2784 12C21.2784 12.8813 20.2593 13.8188 18.5196 14.5126Z" fill="#61DAFB"/>
</svg>
