<svg width="24" height="24" viewBox="0 0 24 24" fill="none" xmlns="http://www.w3.org/2000/svg">
<path d="M11.2626 14.1375C12.3689 14.1375 13.2658 13.1805 13.2658 12C13.2658 10.8195 12.3689 9.86249 11.2626 9.86249C10.1563 9.86249 9.2594 10.8195 9.2594 12C9.2594 13.1805 10.1563 14.1375 11.2626 14.1375Z" fill="#61DAFB"/>
<path d="M18.8711 8.47499C18.4845 8.32499 18.0803 8.17499 17.6586 8.04374C17.764 7.59374 17.8519 7.14374 17.9222 6.71249C18.2912 4.23749 17.8871 2.49374 16.7625 1.81874C16.4286 1.61249 16.0596 1.51874 15.6379 1.51874C14.4078 1.51874 12.8439 2.49374 11.2625 4.12499C9.68098 2.49374 8.11708 1.51874 6.88705 1.51874C6.46533 1.51874 6.09632 1.61249 5.76245 1.81874C4.63785 2.51249 4.2337 4.25624 4.60271 6.71249C4.67299 7.14374 4.76085 7.59374 4.86629 8.04374C4.44456 8.17499 4.04041 8.30624 3.65383 8.47499C1.45734 9.37499 0.262451 10.6125 0.262451 12C0.262451 13.3875 1.47491 14.625 3.65383 15.525C4.04041 15.675 4.44456 15.825 4.86629 15.9562C4.76085 16.4062 4.67299 16.8562 4.60271 17.2875C4.2337 19.7625 4.63785 21.5062 5.76245 22.1812C6.09632 22.3875 6.46533 22.4812 6.88705 22.4812C8.13466 22.4812 9.69855 21.5062 11.2625 19.875C12.8439 21.5062 14.4078 22.4812 15.6379 22.4812C16.0596 22.4812 16.4286 22.3875 16.7625 22.1812C17.8871 21.4875 18.2912 19.7437 17.9222 17.2875C17.8519 16.8562 17.764 16.4062 17.6586 15.9562C18.0803 15.825 18.4845 15.6937 18.8711 15.525C21.0676 14.625 22.2625 13.3875 22.2625 12C22.2625 10.6125 21.0676 9.37499 18.8711 8.47499ZM16.2704 2.75624C16.9909 3.20624 17.2369 4.59374 16.9382 6.56249C16.8855 6.95624 16.7976 7.36874 16.6922 7.79999C15.7784 7.57499 14.812 7.42499 13.7928 7.33124C13.1954 6.43124 12.5803 5.62499 11.9653 4.89374C13.2656 3.52499 14.5835 2.58749 15.6554 2.58749C15.8839 2.58749 16.0947 2.64374 16.2704 2.75624ZM14.3024 13.875C13.9861 14.475 13.6171 15.075 13.2305 15.675C12.5803 15.7312 11.9302 15.75 11.2625 15.75C10.5771 15.75 9.92699 15.7312 9.2944 15.675C8.90782 15.075 8.55638 14.475 8.24009 13.875C7.90622 13.2562 7.58993 12.6187 7.30878 12C7.58993 11.3812 7.90622 10.7437 8.24009 10.125C8.55638 9.52499 8.92539 8.92499 9.31197 8.32499C9.96213 8.26874 10.6123 8.24999 11.28 8.24999C11.9653 8.24999 12.6155 8.26874 13.2481 8.32499C13.6347 8.92499 13.9861 9.52499 14.3024 10.125C14.6363 10.7437 14.9525 11.3812 15.2337 12C14.935 12.6187 14.6363 13.2375 14.3024 13.875ZM15.7609 13.2562C16.0244 13.9125 16.2353 14.55 16.4286 15.1875C15.8311 15.3375 15.1986 15.45 14.5308 15.5437C14.7417 15.1875 14.9701 14.8125 15.1634 14.4187C15.3743 14.025 15.5676 13.6312 15.7609 13.2562ZM11.2625 18.3375C10.8407 17.85 10.4366 17.325 10.05 16.7812C10.4541 16.8 10.8583 16.8187 11.2625 16.8187C11.6666 16.8187 12.0708 16.8 12.4749 16.7812C12.0883 17.325 11.6842 17.85 11.2625 18.3375ZM7.99408 15.525C7.32635 15.4312 6.69376 15.3187 6.09632 15.1687C6.28961 14.55 6.50047 13.8937 6.76405 13.2375C6.95734 13.6125 7.15063 14.0062 7.36149 14.3812C7.57236 14.7937 7.78322 15.15 7.99408 15.525ZM6.76405 10.7437C6.50047 10.0875 6.28961 9.44999 6.09632 8.81249C6.69376 8.66249 7.32635 8.54999 7.99408 8.45624C7.78322 8.81249 7.55478 9.18749 7.36149 9.58124C7.15063 9.97499 6.95734 10.3687 6.76405 10.7437ZM11.2625 5.66249C11.6842 6.14999 12.0883 6.67499 12.4749 7.21874C12.0708 7.19999 11.6666 7.18124 11.2625 7.18124C10.8583 7.18124 10.4541 7.19999 10.05 7.21874C10.4366 6.67499 10.8407 6.14999 11.2625 5.66249ZM15.1634 9.59999L14.5308 8.47499C15.1986 8.56874 15.8311 8.68124 16.4286 8.83124C16.2353 9.44999 16.0244 10.1062 15.7609 10.7625C15.5676 10.3687 15.3743 9.97499 15.1634 9.59999ZM5.58673 6.56249C5.28801 4.59374 5.53402 3.20624 6.25446 2.75624C6.43018 2.64374 6.64105 2.58749 6.86948 2.58749C7.92379 2.58749 9.24168 3.50624 10.5596 4.89374C9.94456 5.60624 9.32954 6.43124 8.7321 7.33124C7.71293 7.42499 6.74648 7.59374 5.83274 7.79999C5.72731 7.36874 5.65702 6.95624 5.58673 6.56249ZM1.24648 12C1.24648 11.1187 2.24807 10.1812 4.00526 9.48749C4.3567 9.33749 4.74328 9.20624 5.12986 9.09374C5.41101 10.0312 5.76245 11.025 6.18418 12.0187C5.76245 13.0125 5.39344 13.9875 5.12986 14.925C2.70494 14.175 1.24648 13.05 1.24648 12ZM6.25446 21.2437C5.53402 20.7937 5.28801 19.4062 5.58673 17.4375C5.63945 17.0437 5.72731 16.6312 5.83274 16.2C6.74648 16.425 7.71293 16.575 8.7321 16.6687C9.32954 17.5687 9.94456 18.375 10.5596 19.1062C9.25926 20.475 7.94137 21.4125 6.86948 21.4125C6.64105 21.4125 6.43018 21.3562 6.25446 21.2437ZM16.9382 17.4375C17.2369 19.4062 16.9909 20.7937 16.2704 21.2437C16.0947 21.3562 15.8839 21.4125 15.6554 21.4125C14.6011 21.4125 13.2832 20.4937 11.9653 19.1062C12.5803 18.3937 13.1954 17.5687 13.7928 16.6687C14.812 16.575 15.7784 16.4062 16.6922 16.2C16.7976 16.6312 16.8679 17.0437 16.9382 17.4375ZM18.5196 14.5125C18.1682 14.6625 17.7816 14.7937 17.395 14.9062C17.1139 13.9687 16.7625 12.975 16.3407 11.9812C16.7625 10.9875 17.1315 10.0125 17.395 9.07499C19.82 9.82499 21.2784 10.95 21.2784 12C21.2784 12.8812 20.2593 13.8187 18.5196 14.5125Z" fill="#61DAFB"/>
</svg>
