<svg width="24" height="24" viewBox="0 0 24 24" fill="none" xmlns="http://www.w3.org/2000/svg">
<g clip-path="url(#clip0_383_2620)">
<path d="M1 12V23H23V1H1V12ZM14.3494 18.9905C14.4484 18.9346 14.8178 18.721 15.1671 18.5184L15.7996 18.1518L15.9325 18.3479C16.1177 18.6302 16.5219 19.018 16.7667 19.1473C17.4688 19.5176 18.4323 19.4653 18.9071 19.0391C19.084 18.8897 19.1949 18.6678 19.1949 18.4203C19.1949 18.4057 19.1949 18.3919 19.194 18.3773V18.3791C19.194 18.1243 19.1619 18.0124 19.029 17.8199C18.8585 17.5761 18.5092 17.3708 17.5174 16.9399C16.3826 16.4513 15.894 16.1479 15.4467 15.6657C15.1772 15.3596 14.9691 14.9911 14.8481 14.5859L14.8426 14.5658C14.7592 14.255 14.7381 13.4758 14.8041 13.1623C15.0378 12.0651 15.8656 11.3015 17.06 11.0742C17.4478 11.0008 18.3488 11.0283 18.7292 11.1228V11.1237C19.2884 11.263 19.7137 11.5114 20.1052 11.9166C20.3077 12.1329 20.6084 12.5271 20.6322 12.6224C20.6396 12.6499 19.6826 13.2916 19.1033 13.6518C19.0822 13.6656 18.9978 13.5748 18.9043 13.4355C18.6202 13.023 18.3241 12.8452 17.8703 12.814C17.203 12.7682 16.774 13.1174 16.7777 13.7004C16.7777 13.7105 16.7768 13.7224 16.7768 13.7343C16.7768 13.8728 16.8116 14.0029 16.873 14.1166L16.8712 14.112C17.0178 14.4154 17.291 14.5978 18.1453 14.9673C19.7211 15.6456 20.3948 16.092 20.8137 16.7273C21.2812 17.4358 21.3867 18.5679 21.0686 19.4094C20.7202 20.3243 19.854 20.9458 18.6348 21.1511C18.2581 21.218 17.3643 21.2079 16.9592 21.1346C16.0755 20.9769 15.2377 20.5406 14.7207 19.9677C14.5181 19.7449 14.123 19.161 14.1478 19.1198C14.1578 19.1051 14.2486 19.0492 14.3494 18.9905ZM5.81983 12.0596C5.81983 11.5701 5.82992 11.1613 5.84367 11.1521C5.85467 11.1374 7.59725 11.1301 9.70925 11.1338L13.5547 11.1448L13.5647 12.0422L13.5721 12.9433H10.7075V21.0796H8.68167V12.9433H5.81983V12.0596Z" fill="black"/>
</g>
<defs>
<clipPath id="clip0_383_2620">
<rect width="22" height="22" fill="white" transform="translate(1 1)"/>
</clipPath>
</defs>
</svg>
