<svg width="40" height="40" viewBox="0 0 40 40" fill="none" xmlns="http://www.w3.org/2000/svg">
<g id="Group 68">
<path id="Vector" d="M40 -6.10352e-05H0V39.9999H40V-6.10352e-05Z" fill="#F7DF1E"/>
<path id="Vector_2" d="M26.8695 31.2502C27.6752 32.5657 28.7235 33.5327 30.5775 33.5327C32.1349 33.5327 33.1298 32.7543 33.1298 31.6787C33.1298 30.3899 32.1076 29.9334 30.3933 29.1835L29.4536 28.7803C26.7413 27.6248 24.9394 26.1772 24.9394 23.1168C24.9394 20.2978 27.0873 18.1518 30.4441 18.1518C32.834 18.1518 34.5521 18.9835 35.7901 21.1613L32.8632 23.0407C32.2187 21.8851 31.5235 21.4299 30.4441 21.4299C29.3432 21.4299 28.6454 22.1283 28.6454 23.0407C28.6454 24.1683 29.3438 24.6248 30.9565 25.3232L31.8962 25.7257C35.0898 27.0953 36.893 28.4914 36.893 31.6305C36.893 35.0146 34.2346 36.8686 30.6644 36.8686C27.1736 36.8686 24.9184 35.2051 23.8149 33.0248L26.8695 31.2502ZM13.5914 31.5759C14.1819 32.6235 14.719 33.5092 16.0105 33.5092C17.2454 33.5092 18.0244 33.026 18.0244 31.1473V18.3664H21.7832V31.1981C21.7832 35.0902 19.5013 36.8616 16.1705 36.8616C13.1609 36.8616 11.4181 35.3041 10.5317 33.4283L13.5914 31.5759Z" fill="black"/>
</g>
</svg>
