<svg width="41" height="10" viewBox="0 0 41 10" fill="none" xmlns="http://www.w3.org/2000/svg">
<g id="Frame" clip-path="url(#clip0_3402_7385)">
<path id="Vector" d="M27.1733 0.904602H34.145V2.1914H31.3794V8.96105H29.9965V2.1914H27.1733V0.904602Z" fill="white"/>
<path id="Vector_2" d="M15.7075 0.904602V2.1914H10.1192V4.26145H14.6133V5.54824H10.1192V7.67426H15.7075V8.96105H8.73642V2.1914H8.73584V0.904602H15.7075Z" fill="white"/>
<path id="Vector_3" d="M19.1891 0.908035H17.3794L23.8613 8.96448H25.6762L22.4349 4.93903L25.671 0.914182L23.8613 0.916979L21.5288 3.81378L19.1891 0.908035Z" fill="white"/>
<path id="Vector_4" d="M21.0454 6.66268L20.1391 5.53589L17.3735 8.97051H19.1884L21.0454 6.66268Z" fill="white"/>
<path id="Vector_5" fill-rule="evenodd" clip-rule="evenodd" d="M8.78501 8.96108L2.29443 0.901276H0.565918V8.95772H1.94873V2.62334L7.04785 8.96108H8.78501Z" fill="white"/>
<path id="Vector_6" d="M34.4558 8.91178C34.3545 8.91178 34.2684 8.8767 34.1962 8.80654C34.1241 8.73637 34.0885 8.65143 34.0894 8.55079C34.0885 8.45292 34.1241 8.3689 34.1962 8.29874C34.2684 8.22857 34.3545 8.19348 34.4558 8.19348C34.5532 8.19348 34.6384 8.22857 34.7106 8.29874C34.7837 8.3689 34.8202 8.45292 34.8212 8.55079C34.8202 8.61726 34.8033 8.67819 34.7696 8.73266C34.735 8.78807 34.691 8.83147 34.6356 8.86286C34.5813 8.89517 34.5213 8.91178 34.4558 8.91178Z" fill="white"/>
<path id="Vector_7" d="M36.8157 5.5179H37.4284V7.87871C37.4275 8.09568 37.3806 8.28126 37.2889 8.43729C37.1961 8.59332 37.0677 8.71241 36.9028 8.79643C36.7389 8.87952 36.5468 8.92201 36.3285 8.92201C36.1288 8.92201 35.9499 8.88599 35.7907 8.81583C35.6314 8.74566 35.5049 8.64041 35.4121 8.50191C35.3184 8.36342 35.2725 8.19077 35.2725 7.98396H35.8863C35.8872 8.07445 35.9078 8.15291 35.9471 8.21847C35.9864 8.28402 36.0408 8.33387 36.1101 8.36896C36.1803 8.40404 36.261 8.42159 36.3518 8.42159C36.4503 8.42159 36.5346 8.40127 36.6029 8.35972C36.6713 8.3191 36.7238 8.25817 36.7604 8.17692C36.796 8.0966 36.8148 7.99688 36.8157 7.87871V5.5179Z" fill="white"/>
<path id="Vector_8" d="M39.9497 6.44109C39.9348 6.29798 39.8692 6.18627 39.7549 6.10687C39.6396 6.02654 39.4907 5.98684 39.3079 5.98684C39.1796 5.98684 39.0691 6.00624 38.9772 6.04409C38.8854 6.08286 38.8142 6.13456 38.7654 6.20012C38.7168 6.26567 38.6924 6.34046 38.6905 6.42448C38.6905 6.49465 38.7073 6.55558 38.7401 6.60636C38.7729 6.65806 38.8169 6.70146 38.8741 6.73654C38.9303 6.77255 38.9931 6.80209 39.0616 6.82609C39.1308 6.8501 39.2002 6.87042 39.2695 6.88704L39.589 6.96551C39.7174 6.99505 39.842 7.03476 39.961 7.08554C40.08 7.1354 40.1877 7.1991 40.2823 7.27573C40.377 7.35237 40.452 7.44469 40.5072 7.55272C40.5625 7.66073 40.5906 7.78722 40.5906 7.9331C40.5906 8.12975 40.54 8.30241 40.4379 8.45197C40.3358 8.60061 40.1887 8.71695 39.9956 8.80097C39.8035 8.88407 39.5712 8.92654 39.2976 8.92654C39.0334 8.92654 38.8029 8.88592 38.609 8.80467C38.4141 8.72435 38.2623 8.60616 38.1527 8.45105C38.043 8.29594 37.984 8.10667 37.9756 7.88416H38.5828C38.5912 8.00049 38.6287 8.09744 38.6924 8.17592C38.757 8.25347 38.8413 8.31072 38.9444 8.34949C39.0484 8.38734 39.1646 8.40674 39.293 8.40674C39.427 8.40674 39.545 8.38642 39.6471 8.34672C39.7483 8.30702 39.8279 8.25163 39.8851 8.17962C39.9432 8.10852 39.9723 8.0245 39.9732 7.92848C39.9723 7.84077 39.946 7.76783 39.8954 7.71058C39.8439 7.65335 39.7727 7.60534 39.6817 7.56656C39.59 7.52779 39.4831 7.4927 39.3613 7.46223L38.9735 7.36436C38.6933 7.29327 38.4712 7.18525 38.3091 7.0403C38.1461 6.89535 38.0655 6.70331 38.0655 6.46233C38.0655 6.26475 38.1198 6.09118 38.2296 5.94253C38.3381 5.79389 38.4872 5.67848 38.6755 5.5963C38.8648 5.51321 39.0784 5.47258 39.3163 5.47258C39.5581 5.47258 39.7698 5.51321 39.9526 5.5963C40.1352 5.67848 40.2787 5.79296 40.3826 5.93883C40.4866 6.08471 40.541 6.25182 40.5438 6.44109H39.9497Z" fill="white"/>
</g>
<defs>
<clipPath id="clip0_3402_7385">
<rect width="40.0253" height="8.12696" fill="white" transform="translate(0.565918 0.901276)"/>
</clipPath>
</defs>
</svg>
