<svg width="37" height="40" viewBox="0 0 37 40" fill="none" xmlns="http://www.w3.org/2000/svg">
<g id="Group 76">
<path id="Vector" d="M16.6955 0.426683C17.6873 -0.141026 18.9791 -0.14359 19.9701 0.426683C24.9555 3.24371 29.9425 6.05633 34.9271 8.87507C35.8647 9.40318 36.4918 10.4466 36.4822 11.5268V28.4752C36.4892 29.6002 35.8001 30.6685 34.811 31.1847C29.842 33.9862 24.8755 36.7911 19.9073 39.5926C18.8949 40.1714 17.5772 40.1268 16.5965 39.5006C15.1068 38.637 13.6145 37.7776 12.1246 36.9149C11.8202 36.7334 11.477 36.5889 11.262 36.2938C11.452 36.0376 11.7918 36.0057 12.0679 35.8939C12.6898 35.6961 13.2609 35.3787 13.8321 35.0707C13.9766 34.9719 14.153 35.0098 14.2914 35.0982C15.5653 35.8286 16.828 36.5803 18.1061 37.3037C18.3788 37.4611 18.6549 37.2521 18.888 37.1222C23.7641 34.3663 28.6463 31.6207 33.5216 28.864C33.7022 28.7771 33.8021 28.5853 33.7874 28.3874C33.7909 22.7965 33.7883 17.2046 33.7891 11.6137C33.8098 11.3892 33.6799 11.1828 33.4769 11.0909C28.5251 8.30223 23.5758 5.50928 18.6248 2.71988C18.5391 2.66091 18.4374 2.62927 18.3333 2.62912C18.2293 2.62897 18.1276 2.66031 18.0416 2.71903C13.0906 5.50928 8.14224 8.3048 3.19128 11.0933C2.98898 11.1854 2.85322 11.3884 2.87729 11.6137C2.87815 17.2046 2.87729 22.7965 2.87729 28.3883C2.86871 28.4848 2.88992 28.5817 2.93806 28.6658C2.9862 28.75 3.05896 28.8173 3.14655 28.8588C4.46773 29.608 5.79063 30.352 7.11267 31.0986C7.85746 31.4995 8.77192 31.7377 9.5925 31.4306C10.3166 31.1709 10.8242 30.4319 10.8104 29.663C10.8172 24.1048 10.807 18.5456 10.8155 12.9882C10.7974 12.7415 11.0315 12.5376 11.2714 12.5608C11.9062 12.5566 12.5419 12.5523 13.1767 12.5625C13.4417 12.5566 13.624 12.8222 13.5912 13.0708C13.5887 18.6643 13.5981 24.2579 13.587 29.8514C13.5887 31.3421 12.9762 32.9642 11.5974 33.6936C9.89865 34.5735 7.79905 34.3869 6.12086 33.5431C4.66804 32.818 3.2816 31.9622 1.85456 31.1854C0.862891 30.6721 0.177224 29.5995 0.184205 28.4753V11.5268C0.173805 10.4242 0.825851 9.36186 1.79259 8.84145C6.76079 6.03767 11.7281 3.23175 16.6955 0.426683Z" fill="#8CC84B"/>
<path id="Vector_2" d="M21.03 12.1669C23.1969 12.0274 25.5166 12.0842 27.4664 13.1517C28.9761 13.9697 29.813 15.6865 29.8397 17.3637C29.7975 17.5899 29.561 17.7147 29.3451 17.6992C28.7164 17.6984 28.0876 17.7078 27.4589 17.6949C27.1922 17.7052 27.0372 17.4593 27.0037 17.2235C26.8231 16.421 26.3854 15.6263 25.6301 15.2392C24.4706 14.6587 23.1262 14.6879 21.8618 14.7C20.9388 14.749 19.9463 14.8289 19.1643 15.3717C18.564 15.7828 18.3817 16.6128 18.5959 17.2812C18.7979 17.7612 19.352 17.916 19.8053 18.0588C22.4166 18.7417 25.1838 18.6738 27.7452 19.5726C28.8057 19.939 29.8431 20.6513 30.2061 21.7616C30.6809 23.2498 30.4728 25.0286 29.414 26.2232C28.5554 27.2064 27.3049 27.7415 26.0576 28.0321C24.3984 28.402 22.6764 28.4114 20.9914 28.2472C19.407 28.0666 17.7581 27.6503 16.5349 26.5707C15.489 25.6625 14.9781 24.2474 15.0288 22.8817C15.0409 22.651 15.2706 22.4902 15.4915 22.5091C16.1246 22.504 16.7577 22.5023 17.3908 22.51C17.6437 22.4919 17.8312 22.7104 17.8442 22.9488C17.961 23.7134 18.2483 24.5158 18.915 24.9692C20.2017 25.7993 21.8163 25.7424 23.2896 25.7657C24.5102 25.7115 25.8804 25.6951 26.8765 24.8884C27.402 24.4282 27.5577 23.6584 27.4157 22.9961C27.2618 22.4369 26.6769 22.1763 26.1746 22.006C23.5967 21.1905 20.7987 21.4864 18.2457 20.5642C17.2093 20.198 16.2071 19.5055 15.8089 18.4407C15.2533 16.9338 15.5079 15.0698 16.6777 13.9154C17.8182 12.7672 19.4646 12.325 21.03 12.1667V12.1669Z" fill="#8CC84B"/>
</g>
</svg>
