<svg width="24" height="24" viewBox="0 0 24 24" fill="none" xmlns="http://www.w3.org/2000/svg">
<g clip-path="url(#clip0_845_3204)">
<path d="M11.9496 1.00623C6.35621 1.00623 6.70545 3.43183 6.70545 3.43183L6.71166 5.94484H12.0493V6.69931H4.59164C4.59164 6.69931 1.01245 6.29339 1.01245 11.937C1.01245 17.5809 4.13645 17.3807 4.13645 17.3807H6.00084V14.7617C6.00084 14.7617 5.90033 11.6377 9.07498 11.6377H14.369C14.369 11.6377 17.3433 11.6858 17.3433 8.76317V3.93076C17.3433 3.93076 17.795 1.00623 11.9496 1.00623ZM9.00639 2.69617C9.13252 2.69606 9.25744 2.72082 9.37399 2.76903C9.49054 2.81725 9.59644 2.88798 9.68563 2.97716C9.77482 3.06635 9.84554 3.17225 9.89376 3.28881C9.94198 3.40536 9.96674 3.53027 9.96662 3.65641C9.96674 3.78254 9.94198 3.90745 9.89376 4.02401C9.84554 4.14056 9.77482 4.24646 9.68563 4.33565C9.59644 4.42484 9.49054 4.49556 9.37399 4.54378C9.25744 4.592 9.13252 4.61675 9.00639 4.61664C8.88026 4.61675 8.75534 4.592 8.63879 4.54378C8.52224 4.49556 8.41634 4.42484 8.32715 4.33565C8.23796 4.24646 8.16723 4.14056 8.11902 4.02401C8.0708 3.90745 8.04604 3.78254 8.04615 3.65641C8.04604 3.53027 8.0708 3.40536 8.11902 3.28881C8.16723 3.17225 8.23796 3.06635 8.32715 2.97716C8.41634 2.88798 8.52224 2.81725 8.63879 2.76903C8.75534 2.72082 8.88026 2.69606 9.00639 2.69617Z" fill="url(#paint0_linear_845_3204)"/>
<path d="M12.1084 22.9246C17.7018 22.9246 17.3525 20.499 17.3525 20.499L17.3463 17.9861H12.0086V17.2316H19.4663C19.4663 17.2316 23.0455 17.6375 23.0455 11.9937C23.0455 6.34998 19.9215 6.55013 19.9215 6.55013H18.0571V9.169C18.0571 9.169 18.1576 12.293 14.9829 12.293H9.68895C9.68895 12.293 6.71463 12.2449 6.71463 15.1677V20.0002C6.71463 20.0002 6.26299 22.9246 12.1083 22.9246H12.1084ZM15.0516 21.2348C14.9255 21.2349 14.8006 21.2102 14.684 21.162C14.5674 21.1138 14.4615 21.043 14.3724 20.9538C14.2832 20.8646 14.2124 20.7587 14.1642 20.6422C14.116 20.5256 14.0913 20.4007 14.0914 20.2746C14.0912 20.1485 14.116 20.0235 14.1642 19.907C14.2124 19.7904 14.2831 19.6845 14.3723 19.5953C14.4615 19.5061 14.5674 19.4354 14.684 19.3871C14.8005 19.3389 14.9255 19.3142 15.0516 19.3143C15.1777 19.3142 15.3026 19.3389 15.4192 19.3871C15.5358 19.4354 15.6417 19.5061 15.7308 19.5953C15.82 19.6845 15.8908 19.7904 15.939 19.9069C15.9872 20.0235 16.0119 20.1484 16.0118 20.2745C16.0119 20.4006 15.9872 20.5256 15.939 20.6421C15.8908 20.7587 15.82 20.8646 15.7308 20.9538C15.6417 21.0429 15.5358 21.1137 15.4192 21.1619C15.3026 21.2101 15.1777 21.2349 15.0516 21.2347V21.2348Z" fill="url(#paint1_linear_845_3204)"/>
</g>
<defs>
<linearGradient id="paint0_linear_845_3204" x1="3.12981" y1="2.97765" x2="14.0487" y2="13.7876" gradientUnits="userSpaceOnUse">
<stop stop-color="#387EB8"/>
<stop offset="1" stop-color="#366994"/>
</linearGradient>
<linearGradient id="paint1_linear_845_3204" x1="9.83185" y1="9.91914" x2="21.5575" y2="21.0037" gradientUnits="userSpaceOnUse">
<stop stop-color="#FFE052"/>
<stop offset="1" stop-color="#FFC331"/>
</linearGradient>
<clipPath id="clip0_845_3204">
<rect width="22.0884" height="22" fill="white" transform="translate(1 1)"/>
</clipPath>
</defs>
</svg>
