<svg width="40" height="40" viewBox="0 0 40 40" fill="none" xmlns="http://www.w3.org/2000/svg">
<g id="Group 44">
<path id="Vector" d="M0 -6.10352e-05H40V39.9999H0V-6.10352e-05Z" fill="#017ACB"/>
<path id="Vector_2" d="M19.2063 14.8125H21.125V18.125H15.9375V32.8625L15.8 32.9C15.6125 32.95 13.1438 32.95 12.6125 32.8937L12.1875 32.8562V18.125H7V14.8125L8.64375 14.7937C9.54375 14.7812 11.8563 14.7812 13.7813 14.7937C15.7063 14.8062 18.1438 14.8125 19.2063 14.8125ZM33.85 31.3C33.0875 32.1062 32.2688 32.5562 30.9063 32.925C30.3125 33.0875 30.2125 33.0937 28.875 33.0875C27.5375 33.0812 27.4313 33.0812 26.7813 32.9125C25.1 32.4812 23.7438 31.6375 22.8188 30.4437C22.5563 30.1062 22.125 29.4062 22.125 29.3187C22.125 29.2937 22.1875 29.2375 22.2688 29.2C22.35 29.1625 22.5188 29.0562 22.6563 28.975C22.7938 28.8937 23.0438 28.7437 23.2125 28.6562C23.3813 28.5687 23.8688 28.2812 24.2938 28.025C24.7188 27.7687 25.1063 27.5625 25.15 27.5625C25.1938 27.5625 25.275 27.65 25.3375 27.7562C25.7125 28.3875 26.5875 29.1937 27.2063 29.4687C27.5875 29.6312 28.4313 29.8125 28.8375 29.8125C29.2125 29.8125 29.9 29.65 30.2688 29.4812C30.6625 29.3 30.8625 29.1187 31.1 28.7562C31.2625 28.5 31.2813 28.4312 31.275 27.9437C31.275 27.4937 31.25 27.3687 31.125 27.1625C30.775 26.5875 30.3 26.2875 28.375 25.4375C26.3875 24.5562 25.4938 24.0312 24.7688 23.325C24.2313 22.8 24.125 22.6562 23.7875 22C23.35 21.1562 23.2938 20.8812 23.2875 19.625C23.2813 18.7437 23.3 18.4562 23.3938 18.1562C23.525 17.7062 23.95 16.8375 24.1438 16.6187C24.5438 16.15 24.6875 16.0062 24.9688 15.775C25.8188 15.075 27.1438 14.6125 28.4125 14.5687C28.5563 14.5687 29.0313 14.5937 29.475 14.625C30.75 14.7312 31.6188 15.0437 32.4563 15.7125C33.0875 16.2125 34.0438 17.3875 33.95 17.5437C33.8875 17.6375 31.3938 19.3 31.2313 19.35C31.1313 19.3812 31.0625 19.3437 30.925 19.1812C30.075 18.1625 29.7313 17.9437 28.9063 17.8937C28.3188 17.8562 28.0063 17.925 27.6125 18.1875C27.2 18.4625 27 18.8812 27 19.4625C27.0063 20.3125 27.3313 20.7125 28.5313 21.3062C29.3063 21.6875 29.9688 22 30.0188 22C30.0938 22 31.7 22.8 32.1188 23.05C34.0688 24.1937 34.8625 25.3687 35.0688 27.3937C35.2188 28.9187 34.7875 30.3125 33.85 31.3Z" fill="#141721"/>
</g>
</svg>
