<svg width="84" height="58" viewBox="0 0 84 58" fill="none" xmlns="http://www.w3.org/2000/svg">
<rect x="0.5" y="0.5" width="83" height="57" rx="3.5" fill="white" stroke="#F3F3F3"/>
<path d="M49.6907 42.0159H34.6995V15.2427H49.6907V42.0159Z" fill="#FF5F00"/>
<path d="M35.6597 28.6272C35.6597 23.1961 38.2186 18.3583 42.2035 15.2406C39.2895 12.9607 35.6118 11.6 31.615 11.6C22.1528 11.6 14.4827 19.2232 14.4827 28.6272C14.4827 38.0311 22.1528 45.6543 31.615 45.6543C35.6118 45.6543 39.2895 44.2936 42.2035 42.0138C38.2186 38.8961 35.6597 34.0582 35.6597 28.6272" fill="#EB001B"/>
<path d="M69.9092 28.6272C69.9092 38.0311 62.239 45.6543 52.7769 45.6543C48.78 45.6543 45.1024 44.2936 42.1873 42.0138C46.1732 38.8961 48.7321 34.0582 48.7321 28.6272C48.7321 23.1961 46.1732 18.3583 42.1873 15.2406C45.1024 12.9607 48.78 11.6 52.7769 11.6C62.239 11.6 69.9092 19.2232 69.9092 28.6272" fill="#F79E1B"/>
</svg>
