<svg width="620" height="560" viewBox="0 0 620 560" fill="none" xmlns="http://www.w3.org/2000/svg">
<g clip-path="url(#clip0_584_13053)">
<path d="M480.73 478.41C485.6 471.79 487.45 464.61 489.9 456.55" stroke="#F0F2DA" stroke-miterlimit="10"/>
<path d="M409.79 461.27C402.56 463.7 387.82 472.12 380.14 473.13C371.6 474.25 352.64 478.92 344.28 480.19C330.46 482.29 326.5 479.46 313.03 477.82C299.56 476.18 294.16 475.53 293.08 483.11C291.24 495.97 301.57 502.91 308.52 505.7C320.54 510.52 327.98 511.93 340.91 510.61C347.29 509.95 363.13 510.06 369.13 509.28C377.6 508.18 390.14 507.59 397.27 507.28C397.27 507.28 412.06 512.75 417.69 512.85C435.38 513.18 450.45 510.25 463.43 501.29C469.64 497 469.81 486.68 473.78 478.97C475.51 475.6 478.7 471.66 479.43 468.05" stroke="#F0F2DA" stroke-miterlimit="10"/>
<path d="M334.12 453.08C311.85 459.37 317.18 459.01 293.46 463.15C270.66 467.13 227.4 472.63 204.51 477.92C196.54 479.76 178.2 481.28 177.83 490.94C177.35 503.54 192.42 506.85 201.14 507.04C222.3 507.51 225.41 502.21 225.41 495" stroke="#F0F2DA" stroke-miterlimit="10"/>
<path d="M228.52 502.21C241.03 502.21 254.49 503.04 265.79 497.97" stroke="#F0F2DA" stroke-miterlimit="10"/>
<path d="M296.85 480.19C298.78 484.47 300.68 487.21 304.92 489.5C309.16 491.79 312.1 491.79 316.33 492.79C318.61 489.12 320.14 486.17 320.57 481.88" stroke="#F0F2DA" stroke-miterlimit="10"/>
<path d="M182.21 487.94C190.81 487.94 199.21 487.7 206.77 484.55" stroke="#F0F2DA" stroke-miterlimit="10"/>
<path d="M168.66 500.64C163.68 498.13 154.71 488.89 161.01 480.73C165.25 475.23 178.32 474.82 184.37 473.56C192.34 471.9 200.7 470.94 208.9 469.33C225.09 466.15 262.29 462.72 278.22 457.31C292.26 452.55 307.48 450.4 322.1 446.6C335.56 443.1 352.08 435.9 365.3 431.35C392.49 421.99 419.01 413.32 447.46 409.33C460.49 407.5 475.62 408.99 487.88 411.89C504.53 415.84 582.98 421.65 600.01 421.17" stroke="#F0F2DA" stroke-miterlimit="10"/>
<path d="M163.58 482.85C167.17 483.22 170.5 484.09 173.74 482.85" stroke="#F0F2DA" stroke-miterlimit="10"/>
<path d="M405.27 461.27C399.95 462.14 394.84 461.94 389.74 463.01C385.31 463.95 379.12 468.92 374.6 468.63" stroke="#F0F2DA" stroke-miterlimit="10"/>
<path d="M472.86 418.65C468.99 417.84 454.06 415.31 451.01 413.27" stroke="#F0F2DA" stroke-miterlimit="10"/>
<path d="M342.59 483.29C343.89 485.37 343.99 487.96 344.28 490.63" stroke="#F0F2DA" stroke-miterlimit="10"/>
<path d="M349.93 492.33C349.9 489.58 349.44 486.94 348.8 484.42" stroke="#F0F2DA" stroke-miterlimit="10"/>
<path d="M283.86 469.18C285.07 470.91 285.56 474.16 286.12 475.96" stroke="#F0F2DA" stroke-miterlimit="10"/>
<path d="M290.07 473.13C289.75 471.08 289.32 469.05 288.38 467.48" stroke="#F0F2DA" stroke-miterlimit="10"/>
<path d="M475.29 487.42C487.14 484.54 500.96 486.66 513.25 487.86C528.36 489.33 585.16 500.69 599.43 505.63" stroke="#F0F2DA" stroke-miterlimit="10"/>
<path d="M149.46 493.87C126.86 493.87 140.56 494.07 118.4 493.31C111.55 498.26 104.58 514.32 98.6401 520.01C137.46 520.01 140.3 520.01 179.96 520.01C222.84 520.01 242.29 519.26 284.81 519.26C283.85 514.88 282.03 508.39 279.92 504.95" stroke="#F0F2DA" stroke-miterlimit="10"/>
<path d="M271.44 487.25C271.12 490.36 270.87 493.45 269.96 496.33C276.17 497.73 283 497.42 289.51 497.42" stroke="#F0F2DA" stroke-miterlimit="10"/>
<path d="M411.2 435.29C400.54 434.86 390.16 436.44 380.71 440.37" stroke="#F0F2DA" stroke-miterlimit="10"/>
<path d="M361.22 438.68C380.21 431.97 379.86 431.9 398.49 426.82" stroke="#F0F2DA" stroke-miterlimit="10"/>
</g>
<defs>
<clipPath id="clip0_584_13053">
<rect width="620" height="560" fill="white"/>
</clipPath>
</defs>
</svg>
