<svg width="620" height="560" viewBox="0 0 620 560" fill="none" xmlns="http://www.w3.org/2000/svg">
<g clip-path="url(#clip0_584_13052)">
<path d="M500.73 478.41C505.6 471.79 507.45 464.61 509.9 456.55" stroke="#F0F2DA" stroke-miterlimit="10"/>
<path d="M429.79 461.27C422.56 463.7 407.82 472.12 400.14 473.13C391.6 474.25 372.64 478.92 364.28 480.19C350.46 482.29 346.5 479.46 333.03 477.82C319.56 476.18 314.16 475.53 313.08 483.11C311.24 495.97 321.57 502.91 328.52 505.7C340.54 510.52 347.98 511.93 360.91 510.61C367.29 509.95 383.13 510.06 389.13 509.28C397.6 508.18 410.14 507.59 417.27 507.28C417.27 507.28 432.06 512.75 437.69 512.85C455.38 513.18 470.45 510.25 483.43 501.29C489.64 497 489.81 486.68 493.78 478.97C495.51 475.6 498.7 471.66 499.43 468.05" stroke="#F0F2DA" stroke-miterlimit="10"/>
<path d="M354.12 453.08C331.85 459.37 337.18 459.01 313.46 463.15C290.66 467.13 247.4 472.63 224.51 477.92C216.54 479.76 198.2 481.28 197.83 490.94C197.35 503.54 212.42 506.85 221.14 507.04C242.3 507.51 245.41 502.21 245.41 495" stroke="#F0F2DA" stroke-miterlimit="10"/>
<path d="M248.52 502.21C261.03 502.21 274.49 503.04 285.79 497.97" stroke="#F0F2DA" stroke-miterlimit="10"/>
<path d="M316.85 480.19C318.78 484.47 320.68 487.21 324.92 489.5C329.16 491.79 332.1 491.79 336.33 492.79C338.61 489.12 340.14 486.17 340.57 481.88" stroke="#F0F2DA" stroke-miterlimit="10"/>
<path d="M202.21 487.94C210.81 487.94 219.21 487.7 226.77 484.55" stroke="#F0F2DA" stroke-miterlimit="10"/>
<path d="M188.66 500.64C183.68 498.13 174.71 488.89 181.01 480.73C185.25 475.23 198.32 474.82 204.37 473.56C212.34 471.9 220.7 470.94 228.9 469.33C245.09 466.15 282.29 462.72 298.22 457.31C312.26 452.55 326.59 451.25 341.2 447.45C354.66 443.95 369.49 435.91 382.71 431.36C409.9 422 440.86 409.92 469.31 405.93C482.34 404.1 495.62 408.99 507.87 411.9C524.52 415.85 582.97 421.66 600 421.18" stroke="#F0F2DA" stroke-miterlimit="10"/>
<path d="M183.58 482.85C187.17 483.22 190.5 484.09 193.74 482.85" stroke="#F0F2DA" stroke-miterlimit="10"/>
<path d="M425.27 461.27C419.95 462.14 414.84 461.94 409.74 463.01C405.31 463.95 399.85 466.08 395.34 465.79" stroke="#F0F2DA" stroke-miterlimit="10"/>
<path d="M494.51 417.81C490.64 417 474.06 415.32 471.01 413.27" stroke="#F0F2DA" stroke-miterlimit="10"/>
<path d="M362.59 483.29C363.89 485.37 363.99 487.96 364.28 490.63" stroke="#F0F2DA" stroke-miterlimit="10"/>
<path d="M369.93 492.33C369.9 489.58 369.44 486.94 368.8 484.42" stroke="#F0F2DA" stroke-miterlimit="10"/>
<path d="M303.86 469.18C305.07 470.91 305.56 474.16 306.12 475.96" stroke="#F0F2DA" stroke-miterlimit="10"/>
<path d="M310.07 473.13C309.75 471.08 309.32 469.05 308.38 467.48" stroke="#F0F2DA" stroke-miterlimit="10"/>
<path d="M495.29 487.42C507.14 484.54 520.96 486.66 533.25 487.86C548.36 489.33 585.16 496.69 599.43 501.63" stroke="#F0F2DA" stroke-miterlimit="10"/>
<path d="M169.46 493.87C146.86 493.87 160.56 494.07 138.4 493.31C131.55 498.26 124.58 514.32 118.64 520.01C157.46 520.01 160.3 520.01 199.96 520.01C242.84 520.01 262.29 519.26 304.81 519.26C303.85 514.88 302.03 508.39 299.92 504.95" stroke="#F0F2DA" stroke-miterlimit="10"/>
<path d="M291.44 487.25C291.12 490.36 290.87 493.45 289.96 496.33C296.17 497.73 303 497.42 309.51 497.42" stroke="#F0F2DA" stroke-miterlimit="10"/>
<path d="M426.75 433.9C416.09 433.47 410.16 436.44 400.71 440.38" stroke="#F0F2DA" stroke-miterlimit="10"/>
<path d="M381.22 438.68C400.21 431.97 399.86 431.9 418.49 426.82" stroke="#F0F2DA" stroke-miterlimit="10"/>
</g>
<defs>
<clipPath id="clip0_584_13052">
<rect width="620" height="560" fill="white"/>
</clipPath>
</defs>
</svg>
