<svg width="620" height="560" viewBox="0 0 620 560" fill="none" xmlns="http://www.w3.org/2000/svg">
<g clip-path="url(#clip0_584_13051)">
<path d="M510.73 478.41C515.6 471.79 517.45 464.61 519.9 456.55" stroke="#F0F2DA" stroke-miterlimit="10"/>
<path d="M439.79 461.27C432.56 463.7 417.82 472.12 410.14 473.13C401.6 474.25 382.64 478.92 374.28 480.19C360.46 482.29 356.5 479.46 343.03 477.82C329.56 476.18 324.16 475.53 323.08 483.11C321.24 495.97 331.57 502.91 338.52 505.7C350.54 510.52 357.98 511.93 370.91 510.61C377.29 509.95 393.13 510.06 399.13 509.28C407.6 508.18 420.14 507.59 427.27 507.28C427.27 507.28 442.06 512.75 447.69 512.85C465.38 513.18 480.45 510.25 493.43 501.29C499.64 497 499.81 486.68 503.78 478.97C505.51 475.6 508.7 471.66 509.43 468.05" stroke="#F0F2DA" stroke-miterlimit="10"/>
<path d="M364.12 453.08C341.85 459.37 347.18 459.01 323.46 463.15C300.66 467.13 257.4 472.63 234.51 477.92C226.54 479.76 208.2 481.28 207.83 490.94C207.35 503.54 222.42 506.85 231.14 507.04C252.3 507.51 255.41 502.21 255.41 495" stroke="#F0F2DA" stroke-miterlimit="10"/>
<path d="M258.52 502.21C271.03 502.21 284.49 503.04 295.79 497.97" stroke="#F0F2DA" stroke-miterlimit="10"/>
<path d="M326.85 480.19C328.78 484.47 330.68 487.21 334.92 489.5C339.16 491.79 342.1 491.79 346.33 492.79C348.61 489.12 350.14 486.17 350.57 481.88" stroke="#F0F2DA" stroke-miterlimit="10"/>
<path d="M212.21 487.94C220.81 487.94 229.21 487.7 236.77 484.55" stroke="#F0F2DA" stroke-miterlimit="10"/>
<path d="M198.66 500.64C193.68 498.13 184.71 488.89 191.01 480.73C195.25 475.23 208.32 474.82 214.37 473.56C222.34 471.9 230.7 470.94 238.9 469.33C255.09 466.15 292.29 462.72 308.22 457.31C322.26 452.55 339.35 447.56 353.96 443.76C367.42 440.26 382.73 435.67 395.95 431.12C423.14 421.76 451.35 413.09 479.81 409.1C492.84 407.27 505.62 408.99 517.87 411.9C534.52 415.85 582.97 421.66 600 421.18" stroke="#F0F2DA" stroke-miterlimit="10"/>
<path d="M193.58 482.85C197.17 483.22 200.5 484.09 203.74 482.85" stroke="#F0F2DA" stroke-miterlimit="10"/>
<path d="M435.27 461.27C429.95 462.14 424.84 461.94 419.74 463.01C415.31 463.95 409.85 466.08 405.34 465.79" stroke="#F0F2DA" stroke-miterlimit="10"/>
<path d="M493.44 414.96C489.57 414.15 484.07 415.31 481.02 413.27" stroke="#F0F2DA" stroke-miterlimit="10"/>
<path d="M372.59 483.29C373.89 485.37 373.99 487.96 374.28 490.63" stroke="#F0F2DA" stroke-miterlimit="10"/>
<path d="M379.93 492.33C379.9 489.58 379.44 486.94 378.8 484.42" stroke="#F0F2DA" stroke-miterlimit="10"/>
<path d="M313.86 469.18C315.07 470.91 315.56 474.16 316.12 475.96" stroke="#F0F2DA" stroke-miterlimit="10"/>
<path d="M320.07 473.13C319.75 471.08 319.32 469.05 318.38 467.48" stroke="#F0F2DA" stroke-miterlimit="10"/>
<path d="M505.29 487.42C517.14 484.54 530.96 486.66 543.25 487.86C558.36 489.33 585.16 492.69 599.43 497.63" stroke="#F0F2DA" stroke-miterlimit="10"/>
<path d="M179.46 493.87C156.86 493.87 170.56 494.07 148.4 493.31C141.55 498.26 134.58 514.32 128.64 520.01C167.46 520.01 170.3 520.01 209.96 520.01C252.84 520.01 272.29 519.26 314.81 519.26C313.85 514.88 312.03 508.39 309.92 504.95" stroke="#F0F2DA" stroke-miterlimit="10"/>
<path d="M301.44 487.25C301.12 490.36 300.87 493.45 299.96 496.33C306.17 497.73 313 497.42 319.51 497.42" stroke="#F0F2DA" stroke-miterlimit="10"/>
<path d="M441.2 435.29C430.54 434.86 419.8 440.74 410.35 444.67" stroke="#F0F2DA" stroke-miterlimit="10"/>
<path d="M395.95 440.44C411.2 432.82 409.86 431.9 428.5 426.82" stroke="#F0F2DA" stroke-miterlimit="10"/>
</g>
<defs>
<clipPath id="clip0_584_13051">
<rect width="620" height="560" fill="white"/>
</clipPath>
</defs>
</svg>
