<svg width="620" height="560" viewBox="0 0 620 560" fill="none" xmlns="http://www.w3.org/2000/svg">
<g clip-path="url(#clip0_584_13050)">
<path d="M520.73 478.41C525.6 471.79 527.45 464.61 529.9 456.55" stroke="#F0F2DA" stroke-miterlimit="10"/>
<path d="M449.79 461.27C442.56 463.7 427.82 472.12 420.14 473.13C411.6 474.25 392.64 478.92 384.28 480.19C370.46 482.29 366.5 479.46 353.03 477.82C339.56 476.18 334.16 475.53 333.08 483.11C331.24 495.97 341.57 502.91 348.52 505.7C360.54 510.52 367.98 511.93 380.91 510.61C387.29 509.95 403.13 510.06 409.13 509.28C417.6 508.18 430.14 507.59 437.27 507.28C437.27 507.28 452.06 512.75 457.69 512.85C475.38 513.18 490.45 510.25 503.43 501.29C509.64 497 509.81 486.68 513.78 478.97C515.51 475.6 518.7 471.66 519.43 468.05" stroke="#F0F2DA" stroke-miterlimit="10"/>
<path d="M374.12 453.08C351.85 459.37 357.18 459.01 333.46 463.15C310.66 467.13 267.4 472.63 244.51 477.92C236.54 479.76 218.2 481.28 217.83 490.94C217.35 503.54 232.42 506.85 241.14 507.04C262.3 507.51 265.41 502.21 265.41 495" stroke="#F0F2DA" stroke-miterlimit="10"/>
<path d="M268.52 502.21C281.03 502.21 294.49 503.04 305.79 497.97" stroke="#F0F2DA" stroke-miterlimit="10"/>
<path d="M336.85 480.19C338.78 484.47 340.68 487.21 344.92 489.5C349.01 491.71 352.1 491.79 356.33 492.79C358.61 489.12 360.14 486.17 360.57 481.88" stroke="#F0F2DA" stroke-miterlimit="10"/>
<path d="M222.21 487.94C230.81 487.94 239.21 487.7 246.77 484.55" stroke="#F0F2DA" stroke-miterlimit="10"/>
<path d="M208.66 500.64C203.68 498.13 194.71 488.89 201.01 480.73C205.25 475.23 218.32 474.82 224.37 473.56C232.34 471.9 240.7 470.94 248.9 469.33C265.09 466.15 302.29 462.72 318.22 457.31C332.26 452.55 349.35 447.56 363.96 443.76C377.42 440.26 393.94 433.06 407.16 428.51C434.35 419.15 460.86 409.91 489.31 405.92C502.34 404.09 515.62 408.98 527.87 411.89C544.52 415.84 582.97 421.65 600 421.17" stroke="#F0F2DA" stroke-miterlimit="10"/>
<path d="M203.58 482.85C207.17 483.22 210.5 484.09 213.74 482.85" stroke="#F0F2DA" stroke-miterlimit="10"/>
<path d="M445.27 461.27C439.95 462.14 434.84 461.94 429.74 463.01C425.31 463.95 419.85 466.08 415.34 465.79" stroke="#F0F2DA" stroke-miterlimit="10"/>
<path d="M503.44 414.96C499.57 414.15 494.07 415.31 491.02 413.27" stroke="#F0F2DA" stroke-miterlimit="10"/>
<path d="M382.59 483.29C383.89 485.37 383.99 487.96 384.28 490.63" stroke="#F0F2DA" stroke-miterlimit="10"/>
<path d="M389.93 492.33C389.9 489.58 389.44 486.94 388.8 484.42" stroke="#F0F2DA" stroke-miterlimit="10"/>
<path d="M323.86 469.18C325.07 470.91 325.56 474.16 326.12 475.96" stroke="#F0F2DA" stroke-miterlimit="10"/>
<path d="M330.07 473.13C329.75 471.08 329.32 469.05 328.38 467.48" stroke="#F0F2DA" stroke-miterlimit="10"/>
<path d="M515.29 487.42C527.14 484.54 540.96 485.66 553.25 486.86C568.36 488.33 585.16 488.69 599.43 493.63" stroke="#F0F2DA" stroke-miterlimit="10"/>
<path d="M189.46 493.87C166.86 493.87 180.56 494.07 158.4 493.31C151.55 498.26 144.58 514.32 138.64 520.01C177.46 520.01 180.3 520.01 219.96 520.01C262.84 520.01 282.29 519.26 324.81 519.26C323.85 514.88 322.03 508.39 319.92 504.95" stroke="#F0F2DA" stroke-miterlimit="10"/>
<path d="M311.44 487.25C311.12 490.36 310.87 493.45 309.96 496.33C316.17 497.73 323 497.42 329.51 497.42" stroke="#F0F2DA" stroke-miterlimit="10"/>
<path d="M451.2 435.29C440.54 434.86 430.16 436.44 420.71 440.37" stroke="#F0F2DA" stroke-miterlimit="10"/>
<path d="M401.22 438.68C420.21 431.97 419.86 431.9 438.49 426.82" stroke="#F0F2DA" stroke-miterlimit="10"/>
</g>
<defs>
<clipPath id="clip0_584_13050">
<rect width="620" height="560" fill="white"/>
</clipPath>
</defs>
</svg>
