<svg width="24" height="24" viewBox="0 0 24 24" fill="none" xmlns="http://www.w3.org/2000/svg">
<path d="M9.71923 12.5192C9.86366 12.7118 9.93378 12.95 9.91672 13.1901C9.89965 13.4302 9.79655 13.6561 9.62634 13.8263C9.45613 13.9966 9.23023 14.0997 8.99012 14.1167C8.75001 14.1338 8.51181 14.0637 8.31923 13.9192C7.84093 13.4703 7.4597 12.9282 7.1991 12.3262C6.9385 11.7242 6.80405 11.0752 6.80405 10.4192C6.80405 9.76327 6.9385 9.11426 7.1991 8.51229C7.4597 7.91031 7.84093 7.36813 8.31923 6.91923L11.8192 3.31923C12.7707 2.39674 14.044 1.88086 15.3692 1.88086C16.6945 1.88086 17.9677 2.39674 18.9192 3.31923C19.8417 4.27073 20.3576 5.54396 20.3576 6.86923C20.3576 8.19451 19.8417 9.46773 18.9192 10.4192L17.4192 11.9192C17.4406 11.101 17.3048 10.2863 17.0192 9.51923L17.5192 9.01923C18.0533 8.43051 18.3491 7.6641 18.3491 6.86923C18.3491 6.07437 18.0533 5.30796 17.5192 4.71923C16.9305 4.18519 16.1641 3.88936 15.3692 3.88936C14.5744 3.88936 13.808 4.18519 13.2192 4.71923L9.71923 8.31923C9.43484 8.59009 9.20842 8.91588 9.05371 9.27687C8.89901 9.63785 8.81923 10.0265 8.81923 10.4192C8.81923 10.812 8.89901 11.2006 9.05371 11.5616C9.20842 11.9226 9.43484 12.2484 9.71923 12.5192ZM22.1192 17.1192V19.1192H19.1192V22.1192H17.1192V19.1192H14.1192V17.1192H17.1192V14.1192H19.1192V17.1192H22.1192ZM15.3192 12.8192C15.4926 12.0121 15.4548 11.1739 15.2095 10.3856C14.9643 9.59731 14.5199 8.8856 13.9192 8.31923C13.7267 8.1748 13.4885 8.10469 13.2483 8.12175C13.0082 8.13881 12.7823 8.24192 12.6121 8.41213C12.4419 8.58234 12.3388 8.80824 12.3217 9.04834C12.3047 9.28845 12.3748 9.52666 12.5192 9.71923C12.8036 9.99009 13.03 10.3159 13.1848 10.6769C13.3395 11.0379 13.4192 11.4265 13.4192 11.8192C13.4192 12.212 13.3395 12.6006 13.1848 12.9616C13.03 13.3226 12.8036 13.6484 12.5192 13.9192L9.01923 17.5192C8.43051 18.0533 7.6641 18.3491 6.86923 18.3491C6.07437 18.3491 5.30796 18.0533 4.71923 17.5192C4.18519 16.9305 3.88936 16.1641 3.88936 15.3692C3.88936 14.5744 4.18519 13.808 4.71923 13.2192L5.21923 12.8192C4.94131 12.0156 4.80594 11.1695 4.81923 10.3192L3.31923 11.8192C2.39674 12.7707 1.88086 14.044 1.88086 15.3692C1.88086 16.6945 2.39674 17.9677 3.31923 18.9192C4.27073 19.8417 5.54396 20.3576 6.86923 20.3576C8.19451 20.3576 9.46773 19.8417 10.4192 18.9192L12.2192 17.1192C12.3721 16.2129 12.7311 15.3539 13.2686 14.6083C13.8061 13.8628 14.5077 13.2507 15.3192 12.8192Z" fill="#F0F2DA"/>
</svg>
