<svg width="24" height="24" viewBox="0 0 24 24" fill="none" xmlns="http://www.w3.org/2000/svg">
<path fill-rule="evenodd" clip-rule="evenodd" d="M12 21C16.9706 21 21 16.9706 21 12C21 7.02944 16.9706 3 12 3C7.02944 3 3 7.02944 3 12C3 16.9706 7.02944 21 12 21ZM13.6075 14.0724H15.5252L13.2274 8.84399H10.8302L8.53516 14.0724H10.4529L10.8132 13.1929H13.2472L13.6075 14.0724ZM11.3976 11.7631L12.033 10.2029L12.6657 11.7631H11.3976ZM12.0297 7.73472C12.7645 7.73472 13.3602 7.13904 13.3602 6.40423C13.3602 5.66941 12.7645 5.07373 12.0297 5.07373C11.2949 5.07373 10.6992 5.66941 10.6992 6.40423C10.6992 7.13904 11.2949 7.73472 12.0297 7.73472ZM13.3602 17.61C13.3602 18.3448 12.7645 18.9405 12.0297 18.9405C11.2949 18.9405 10.6992 18.3448 10.6992 17.61C10.6992 16.8752 11.2949 16.2795 12.0297 16.2795C12.7645 16.2795 13.3602 16.8752 13.3602 17.61ZM7.11663 10.3988C7.85144 10.3988 8.44713 9.8031 8.44713 9.06829C8.44713 8.33348 7.85144 7.73779 7.11663 7.73779C6.38182 7.73779 5.78613 8.33348 5.78613 9.06829C5.78613 9.8031 6.38182 10.3988 7.11663 10.3988ZM18.2772 9.06829C18.2772 9.8031 17.6815 10.3988 16.9467 10.3988C16.2119 10.3988 15.6162 9.8031 15.6162 9.06829C15.6162 8.33348 16.2119 7.73779 16.9467 7.73779C17.6815 7.73779 18.2772 8.33348 18.2772 9.06829ZM7.11663 16.3221C7.85144 16.3221 8.44713 15.7264 8.44713 14.9916C8.44713 14.2568 7.85144 13.6611 7.11663 13.6611C6.38182 13.6611 5.78613 14.2568 5.78613 14.9916C5.78613 15.7264 6.38182 16.3221 7.11663 16.3221ZM18.2772 14.9916C18.2772 15.7264 17.6815 16.3221 16.9467 16.3221C16.2119 16.3221 15.6162 15.7264 15.6162 14.9916C15.6162 14.2568 16.2119 13.6611 16.9467 13.6611C17.6815 13.6611 18.2772 14.2568 18.2772 14.9916Z" fill="#F0F2DA"/>
</svg>
