<?xml version="1.0" encoding="utf-8"?>
<svg viewBox="0 0 47 22" fill="none" xmlns="http://www.w3.org/2000/svg">
  <path fill-rule="evenodd" clip-rule="evenodd" d="M 46.2 11 L 42.387 14.002 L 42.927 18.779 L 38.073 18.248 L 35.022 22 L 32.042 18.333 L 29.061 22 L 26.08 18.333 L 23.1 22 L 20.12 18.333 L 17.139 22 L 14.158 18.333 L 11.178 22 L 8.127 18.248 L 3.274 18.779 L 3.813 14.002 L 0 11 L 3.813 7.998 L 3.274 3.222 L 8.127 3.752 L 11.178 0 L 14.158 3.667 L 17.139 0 L 20.12 3.667 L 23.1 0 L 26.08 3.667 L 29.061 0 L 32.042 3.667 L 35.022 0 L 38.073 3.752 L 42.927 3.222 L 42.387 7.998 L 46.2 11 Z" style="fill: rgb(171, 157, 242);" transform="matrix(1, 0, 0, 1, 7.105427357601002e-15, 0)"/>
  <text style="fill: rgb(20, 23, 33); font-family: Bahnschrift; font-size: 32.23px; font-weight: 700; white-space: pre;" transform="matrix(0.35843202471733093, 0, 0, 0.37232398986816406, 5.554279804229743, 12.02236270904541)" x="9.862" y="8.62">BETA</text>
</svg>