<svg width="24" height="25" viewBox="0 0 24 25" fill="none" xmlns="http://www.w3.org/2000/svg">
<path d="M12 19C9.78998 19 7.79998 18.1 6.34998 16.65L3.99998 19L3.99998 12L11 12L9.38998 13.61L7.77998 15.22C8.85998 16.31 10.34 17 12 17C13.5913 17 15.1174 16.3679 16.2426 15.2426C16.7226 14.7627 17.1128 14.2098 17.4026 13.61L19.5623 13.61C19.17 14.7464 18.523 15.7907 17.6568 16.6569C16.1565 18.1571 14.1217 19 12 19Z" fill="#F0F2DA"/>
<path d="M12.0123 4C14.2223 4 16.2123 4.9 17.6623 6.35L20.0123 4V11L13.0123 11L14.6223 9.39L16.2323 7.78C15.1523 6.69 13.6723 6 12.0123 6C10.421 6 8.89486 6.63214 7.76965 7.75736C7.28969 8.23732 6.89944 8.79022 6.6097 9.39L4.45001 9.39C4.84224 8.25364 5.48927 7.20931 6.35543 6.34315C7.85572 4.84285 9.89055 4 12.0123 4Z" fill="#F0F2DA"/>
</svg>
