<svg width="20" height="20" viewBox="0 0 20 20" fill="none" xmlns="http://www.w3.org/2000/svg">
<path d="M15.8333 14.7115H5C4.11594 14.7115 3.2681 14.3603 2.64298 13.7352C2.01786 13.1101 1.66667 12.2622 1.66667 11.3782C1.66667 10.4941 2.01786 9.64627 2.64298 9.02115C3.2681 8.39603 4.11594 8.04484 5 8.04484H5.59167C6.14167 6.11984 7.91667 4.7115 10 4.7115C11.2156 4.7115 12.3814 5.19439 13.2409 6.05393C14.1004 6.91347 14.5833 8.07926 14.5833 9.29484V9.7115H15.8333C16.4964 9.7115 17.1323 9.9749 17.6011 10.4437C18.0699 10.9126 18.3333 11.5485 18.3333 12.2115C18.3333 12.8745 18.0699 13.5104 17.6011 13.9793C17.1323 14.4481 16.4964 14.7115 15.8333 14.7115ZM16.125 8.06984C15.5583 5.20317 13.0333 3.04484 10 3.04484C7.59167 3.04484 5.5 4.4115 4.45833 6.40317C1.95 6.67817 0 8.79484 0 11.3782C0 12.7043 0.526784 13.976 1.46447 14.9137C2.40215 15.8514 3.67392 16.3782 5 16.3782H15.8333C16.3805 16.3782 16.9223 16.2704 17.4278 16.061C17.9334 15.8516 18.3927 15.5447 18.7796 15.1578C19.1665 14.7709 19.4734 14.3115 19.6828 13.806C19.8922 13.3005 20 12.7587 20 12.2115C20 10.0115 18.2917 8.22817 16.125 8.06984Z" fill="#F0F2DA"/>
<path d="M14.2877 10.6217L11.3414 13.568L10.1629 12.3895L11.9306 10.6217L10.1629 8.85398L11.3414 7.67547L14.2877 10.6217ZM4.8596 10.6217L7.80587 7.67547L8.98439 8.85398L7.21662 10.6217L8.98439 12.3895L7.80587 13.568L4.8596 10.6217Z" fill="#F0F2DA"/>
</svg>
