<svg width="24" height="24" viewBox="0 0 24 24" fill="none" xmlns="http://www.w3.org/2000/svg">
<g id="icons">
<path id="Vector" d="M14 12.6543V16.6543H10V12.6543H7L12 7.6543L17 12.6543H14ZM19.35 9.6843C18.67 6.2443 15.64 3.6543 12 3.6543C9.11 3.6543 6.6 5.2943 5.35 7.6843C2.34 8.0143 0 10.5543 0 13.6543C0 15.2456 0.632141 16.7717 1.75736 17.8969C2.88258 19.0222 4.4087 19.6543 6 19.6543H19C19.6566 19.6543 20.3068 19.525 20.9134 19.2737C21.52 19.0224 22.0712 18.6541 22.5355 18.1898C22.9998 17.7255 23.3681 17.1743 23.6194 16.5677C23.8707 15.9611 24 15.3109 24 14.6543C24 12.0143 21.95 9.8743 19.35 9.6843Z" fill="#F0F2DA"/>
</g>
</svg>
