<svg width="20" height="20" viewBox="0 0 20 20" fill="none" xmlns="http://www.w3.org/2000/svg">
<g clip-path="url(#clip0_1900_7548)">
<path d="M10.7913 4.04167H16.2797C16.5007 4.04167 16.7127 4.12946 16.8689 4.28574C17.0252 4.44202 17.113 4.65399 17.113 4.875V5.70833H2.11302V3.20833C2.11302 2.98732 2.20081 2.77536 2.35709 2.61908C2.51337 2.4628 2.72534 2.375 2.94635 2.375H9.12468L10.7913 4.04167ZM2.18552 7.375H17.0405C17.1558 7.37495 17.2699 7.39882 17.3755 7.44511C17.4811 7.4914 17.5759 7.5591 17.654 7.64392C17.7321 7.72875 17.7917 7.82885 17.8291 7.93791C17.8665 8.04697 17.8809 8.1626 17.8713 8.2775L17.1763 16.6108C17.159 16.8191 17.0641 17.0132 16.9103 17.1547C16.7566 17.2963 16.5553 17.3749 16.3463 17.375H2.87968C2.67072 17.3749 2.46943 17.2963 2.3157 17.1547C2.16197 17.0132 2.06703 16.8191 2.04968 16.6108L1.35468 8.2775C1.34511 8.1626 1.35949 8.04697 1.3969 7.93791C1.43432 7.82885 1.49396 7.72875 1.57204 7.64392C1.65013 7.5591 1.74498 7.4914 1.85057 7.44511C1.95617 7.39882 2.07022 7.37495 2.18552 7.375Z" fill="#F0F2DA"/>
</g>
<defs>
<clipPath id="clip0_1900_7548">
<rect width="20" height="20" fill="white"/>
</clipPath>
</defs>
</svg>
