<svg width="20" height="20" viewBox="0 0 20 20" fill="none" xmlns="http://www.w3.org/2000/svg">
<g id="right icon">
<path id="Vector" d="M10.0001 18.3334C5.39771 18.3334 1.66675 14.6024 1.66675 10.0001C1.66675 5.39771 5.39771 1.66675 10.0001 1.66675C14.6024 1.66675 18.3334 5.39771 18.3334 10.0001C18.3334 14.6024 14.6024 18.3334 10.0001 18.3334ZM10.0001 16.6667C13.682 16.6667 16.6667 13.682 16.6667 10.0001C16.6667 6.31818 13.682 3.33341 10.0001 3.33341C6.31818 3.33341 3.33341 6.31818 3.33341 10.0001C3.33341 13.682 6.31818 16.6667 10.0001 16.6667ZM9.16675 12.5001H10.8334V14.1667H9.16675V12.5001ZM10.8334 11.1293V11.6667H9.16675V10.4167C9.16675 9.9565 9.53983 9.58342 10.0001 9.58342C10.6904 9.58342 11.2501 9.02375 11.2501 8.33342C11.2501 7.64306 10.6904 7.08342 10.0001 7.08342C9.39367 7.08342 8.88808 7.51527 8.77408 8.08822L7.13951 7.7613C7.40539 6.42441 8.58508 5.41675 10.0001 5.41675C11.6109 5.41675 12.9167 6.72258 12.9167 8.33342C12.9167 9.65466 12.0382 10.7707 10.8334 11.1293Z" fill="#F0F2DA"/>
</g>
</svg>
