<svg width="24" height="25" viewBox="0 0 24 25" fill="none" xmlns="http://www.w3.org/2000/svg">
<path d="M16.5 10C15.12 10 14 8.88 14 7.5C14 6.12 15.12 5 16.5 5C17.88 5 19 6.12 19 7.5C19 8.88 17.88 10 16.5 10ZM13.43 9.15L1 21.59L2.41 23L14.85 10.57C14.25 10.24 13.76 9.75 13.43 9.15ZM12 6L12.63 4.63L14 4L12.63 3.37L12 2L11.38 3.37L10 4L11.38 4.63L12 6ZM20 6L20.63 4.63L22 4L20.63 3.37L20 2L19.38 3.37L18 4L19.38 4.63L20 6ZM20 10L19.38 11.37L18 12L19.38 12.63L20 14L20.63 12.63L22 12L20.63 11.37L20 10Z" fill="#F0F2DA"/>
</svg>
