<svg width="64" height="34" viewBox="0 0 64 34" fill="none" xmlns="http://www.w3.org/2000/svg">
<path d="M64 10.1622L45.61 8.11278L43.85 0L35.94 6.87556L29.78 0L24.94 8.11278L17.03 0L14.83 8.11278L3.41 1.955L7.8 13.0428L0 20.0222L10.44 23.6206L9.56 34L20.55 30.09L29.78 34L33.74 27.3133L42.97 34L46.93 27.3133H60.12L50.45 17L64.01 10.1622H64ZM23.01 23.0917H20.16L18.86 16.0178H18.7L17.45 23.0917H15.39L17.25 12.5422H20.1L21.4 19.6161H21.56L22.81 12.5422H24.87L23.01 23.0917ZM33.97 14.3839H29.17L28.74 16.83H33.32L33 18.6717H28.41L27.96 21.2406H32.74L32.42 23.0822H25.28L27.15 12.5328H34.29L33.97 14.3744V14.3839ZM42.31 23.0917H39.27L39.51 17.255H39.35L37.48 23.0917H34.44L35.62 12.5422H37.65L36.88 18.8606L36.61 21.0328H36.75L38.78 14.8372H40.94L40.84 21.0328H40.98L41.41 18.9456L42.9 12.5422H44.84L42.3 23.0917H42.31Z" fill="#78DCE8"/>
</svg>
