<svg width="24" height="24" viewBox="0 0 24 24" fill="none" xmlns="http://www.w3.org/2000/svg">
<path fill-rule="evenodd" clip-rule="evenodd" d="M11.6538 2.06993C11.8754 1.97669 12.1246 1.97669 12.3462 2.06993L14.2661 2.87801C14.2661 2.87801 14.2661 2.87801 14.2661 2.87801C15.589 3.43475 16.9911 3.77519 18.4199 3.88655L20.1692 4.02289C20.638 4.05943 21 4.45434 21 4.92929V12.9091C21 17.9299 16.9706 22 12 22C7.02944 22 3 17.9299 3 12.9091V4.92929C3 4.45434 3.36195 4.05943 3.83076 4.02289L5.58011 3.88655C7.0089 3.77519 8.41103 3.43475 9.73384 2.87801L11.6538 2.06993ZM12 3.89394L10.4261 4.55633C8.92697 5.1873 7.33788 5.57314 5.71859 5.69934L4.8 5.77094V12.9091C4.8 16.9257 8.02355 20.1818 12 20.1818C15.9765 20.1818 19.2 16.9257 19.2 12.9091V5.77094L18.2814 5.69934C16.6621 5.57314 15.073 5.1873 13.5738 4.55634L12 3.89394Z" fill="#F0F2DA"/>
<path fill-rule="evenodd" clip-rule="evenodd" d="M16.7364 9.27337C17.0879 9.63786 17.0879 10.2288 16.7364 10.5933L11.7864 15.7266C11.4349 16.0911 10.8651 16.0911 10.5136 15.7266L8.2636 13.3933C7.91213 13.0288 7.91213 12.4379 8.2636 12.0734C8.61508 11.7089 9.18492 11.7089 9.5364 12.0734L11.15 13.7467L15.4636 9.27337C15.8151 8.90888 16.3849 8.90888 16.7364 9.27337Z" fill="#F0F2DA"/>
</svg>
