<svg width="47" height="22" viewBox="0 0 47 22" fill="none" xmlns="http://www.w3.org/2000/svg">
<path fill-rule="evenodd" clip-rule="evenodd" d="M46.2 11L42.3869 14.0023L42.9265 18.7785L38.0731 18.2475L35.0224 22L32.0417 18.3333L29.061 22L26.0803 18.3333L23.0996 22L20.1197 18.3333L17.139 22L14.1583 18.3333L11.1776 22L8.12686 18.2475L3.27355 18.7785L3.81305 14.0023L0 11L3.81305 7.99773L3.27355 3.22153L8.12686 3.75247L11.1776 0L14.1583 3.66667L17.139 0L20.1197 3.66667L23.0996 0L26.0803 3.66667L29.061 0L32.0417 3.66667L35.0224 0L38.0731 3.75247L42.9265 3.22153L42.3869 7.99773L46.2 11ZM14.75 12.85C14.75 14.19 13.77 15.12 12.03 15.12C10.81 15.12 9.98 14.65 9.38 13.99L10.38 12.98C10.85 13.51 11.45 13.78 12.13 13.78C12.87 13.78 13.23 13.45 13.23 12.94C13.23 12.56 13.07 12.28 12.42 12.19L11.73 12.1C10.26 11.91 9.59 11.19 9.59 10.02C9.59 8.77 10.57 7.9 12.21 7.9C13.26 7.9 14.06 8.25 14.63 8.88L13.62 9.9C13.29 9.51 12.84 9.24 12.12 9.24C11.44 9.24 11.11 9.5 11.11 9.92C11.11 10.4 11.36 10.58 11.94 10.67L12.63 10.78C14.06 11.01 14.75 11.65 14.75 12.85ZM21.8802 11.51C21.8802 13.88 20.6602 15.12 18.8102 15.12C16.9602 15.12 15.7402 13.88 15.7402 11.51C15.7402 9.14 16.9602 7.9 18.8102 7.9C20.6602 7.9 21.8802 9.14 21.8802 11.51ZM17.3502 12.03C17.3502 13.14 17.9002 13.77 18.8102 13.77C19.7202 13.77 20.2702 13.14 20.2702 12.03V10.99C20.2702 9.88 19.7202 9.25 18.8102 9.25C17.9002 9.25 17.3502 9.88 17.3502 10.99V12.03ZM29.0189 11.51C29.0189 13.88 27.7989 15.12 25.9489 15.12C24.0989 15.12 22.8789 13.88 22.8789 11.51C22.8789 9.14 24.0989 7.9 25.9489 7.9C27.7989 7.9 29.0189 9.14 29.0189 11.51ZM24.4889 12.03C24.4889 13.14 25.0389 13.77 25.9489 13.77C26.8589 13.77 27.4089 13.14 27.4089 12.03V10.99C27.4089 9.88 26.8589 9.25 25.9489 9.25C25.0389 9.25 24.4889 9.88 24.4889 10.99V12.03ZM35.9876 15H34.3276L32.4176 11.7L31.7476 10.3H31.7176V15H30.2876V8.02H31.9476L33.8576 11.32L34.5276 12.72H34.5576V8.02H35.9876V15Z" fill="#78DCE8"/>
</svg>
