<svg xmlns="http://www.w3.org/2000/svg" width="64" height="34" viewBox="0 0 64 34" fill="none">
<path d="M64 10.1622L45.61 8.11278L43.85 0L35.94 6.87556L29.78 0L24.94 8.11278L17.03 0L14.83 8.11278L3.41 1.955L7.8 13.0428L0 20.0222L10.44 23.6206L9.56 34L20.55 30.09L29.78 34L33.74 27.3133L42.97 34L46.93 27.3133H60.12L50.45 17L64.01 10.1622H64ZM23.01 23.0917H20.16L18.86 16.0178H18.7L17.45 23.0917H42.31Z" fill="#78DCE8"/>

<path fill="rgba(255,255,255,1)" transform="translate(15,22) scale(0.00488)" d="M1010,-1253 l0,171 q-217,-84 -386,-84 q-267,0 -267,180 q0,73 50,117 q50,45 185,92 l126,44 l120,41 q279,98 279,332 q0,178 -142,284 q-143,107 -382,107 q-166,0 -429,-71 l0,-195 q262,118 435,118 q146,0 233,-58 q87,-57 87,-154 q0,-74 -52,-117 q-51,-43 -212,-102 l-132,-48 q-197,-73 -273,-150 q-77,-77 -77,-205 q0,-173 118,-268 q117,-95 330,-95 q173,0 389,61 Z"/>
<path fill="rgba(255,255,255,1)" transform="translate(21.02539,22) scale(0.00488)" d="M62,-642 q0,-307 150,-489 q151,-183 405,-183 q254,0 404,182 q151,183 151,490 q0,308 -150,490 q-151,183 -405,183 q-254,0 -404,-182 q-151,-183 -151,-491 ZM272,-642 q0,252 90,388 q89,137 255,137 q166,0 256,-136 q90,-137 90,-389 q0,-251 -90,-387 q-90,-137 -256,-137 q-166,0 -256,136 q-89,137 -89,388 Z"/>
<path fill="rgba(255,255,255,1)" transform="translate(27.050781,22) scale(0.00488)" d="M62,-642 q0,-307 150,-489 q151,-183 405,-183 q254,0 404,182 q151,183 151,490 q0,308 -150,490 q-151,183 -405,183 q-254,0 -404,-182 q-151,-183 -151,-491 ZM272,-642 q0,252 90,388 q89,137 255,137 q166,0 256,-136 q90,-137 90,-389 q0,-251 -90,-387 q-90,-137 -256,-137 q-166,0 -256,136 q-89,137 -89,388 Z"/>
<path fill="rgba(255,255,255,1)" transform="translate(33.07617,22) scale(0.00488)" d="M148,0 l0,-1287 l186,0 l589,933 l2,0 l0,-929 l161,0 l0,1283 l-182,0 l-593,-940 l-3,0 l0,940 l-160,0 Z"/>

</svg>