<svg width="80" height="47" viewBox="0 0 80 47" fill="none" xmlns="http://www.w3.org/2000/svg">
<g clip-path="url(#clip0_1366_6803)">
<path d="M38.9858 20.3603C38.2142 20.3603 37.6836 20.6487 37.3863 21.2254C37.089 21.8022 36.9422 22.599 36.9422 23.6197V25.8431C36.9422 26.8638 37.089 27.6606 37.3863 28.2374C37.6798 28.8141 38.2142 29.1025 38.9858 29.1025C39.7573 29.1025 40.2879 28.8141 40.5852 28.2374C40.8788 27.6606 41.0293 26.8562 41.0293 25.8242V23.6197C41.0293 22.599 40.8825 21.8022 40.5852 21.2254C40.2879 20.6487 39.7573 20.3603 38.9858 20.3603Z" fill="#FF6188"/>
<path d="M80 25.8925L70.5537 19.3435L75.8677 11.3071H64.6488L59.6321 2.37904L54.3181 8.92804L49.0041 0L43.0992 10.4154L34.5373 5.05783L30.405 13.0942L22.1405 4.46592L18.3017 12.2025L6.49198 9.81971L11.2151 16.9644L0 20.8346L9.73985 27.3836L6.19843 39.8821L15.6447 35.4162L23.0249 45.2359L31.5868 38.9867L40.1487 45.5357L42.5121 36.9036L53.731 45.5357L56.9789 40.4778L66.1316 46.1314V37.2033L76.1688 37.7991L72.33 30.3584L80.0038 25.8925H80ZM32.5916 31.0907H29.1593L28.2373 24.0788H28.0566L27.1346 31.0907H23.7023L22.927 18.3797H25.2566L25.6179 25.9911L25.7271 28.3967H25.8889L26.9728 21.1496H29.4115L30.4954 28.3967H30.6572L30.7663 26.067L31.1276 18.3797H33.3669L32.5916 31.0907ZM42.7153 29.5805C41.9137 30.734 40.6718 31.3108 38.9857 31.3108C37.2997 31.3108 36.0578 30.734 35.2561 29.5805C34.4545 28.4271 34.0556 26.8107 34.0556 24.7352C34.0556 22.6597 34.4545 21.0433 35.2561 19.8898C36.0578 18.7364 37.2997 18.1596 38.9857 18.1596C40.6718 18.1596 41.9137 18.7364 42.7153 19.8898C43.517 21.0433 43.9159 22.6597 43.9159 24.7352C43.9159 26.8107 43.517 28.4271 42.7153 29.5805ZM54.2692 31.0907H50.8369L49.9148 24.0788H49.7342L48.8121 31.0907H45.3799L44.6046 18.3797H46.9342L47.2955 25.9911L47.4046 28.3967H47.5664L48.6503 21.1496H51.089L52.1729 28.3967H52.3348L52.4439 26.067L52.8052 18.3797H55.0444L54.2692 31.0907ZM59.1993 18.3797H62.1273V22.0754L61.0961 26.6665H60.2305L59.1993 22.0754V18.3797V18.3797ZM62.4321 29.8917C62.4321 30.2787 62.3004 30.6126 62.0332 30.8934C61.7698 31.1742 61.3106 31.3108 60.6595 31.3108C60.0085 31.3108 59.5493 31.1704 59.2859 30.8934C59.0224 30.6126 58.8869 30.2787 58.8869 29.8917V29.3074C58.8869 28.9317 59.0224 28.6016 59.2934 28.3246C59.5644 28.0438 60.0197 27.9073 60.6558 27.9073C61.2918 27.9073 61.7472 28.0476 62.0181 28.3246C62.2891 28.6054 62.4246 28.9317 62.4246 29.3074V29.8917H62.4321Z" fill="#FF6188"/>
</g>
<defs>
<clipPath id="clip0_1366_6803">
<rect width="80" height="46.1314" fill="white"/>
</clipPath>
</defs>
</svg>
