<svg width="220" height="220" viewBox="0 0 220 220" fill="none" xmlns="http://www.w3.org/2000/svg">
<path d="M110 140C126.569 140 140 126.569 140 110C140 93.4315 126.569 80 110 80C93.4315 80 80 93.4315 80 110C80 126.569 93.4315 140 110 140Z" fill="#F0F2DA"/>
<path d="M110 140C126.569 140 140 126.569 140 110C140 93.4315 126.569 80 110 80C93.4315 80 80 93.4315 80 110C80 126.569 93.4315 140 110 140Z" fill="#F0F2DA"/>
<path d="M110 140C126.569 140 140 126.569 140 110C140 93.4315 126.569 80 110 80C93.4315 80 80 93.4315 80 110C80 126.569 93.4315 140 110 140Z" fill="#F0F2DA"/>
<path d="M110 82L88 109.5L110 137L132 109.5L110 82Z" fill="#F0F2DA"/>
</svg>
