<svg width="220" height="220" viewBox="0 0 220 220" fill="none" xmlns="http://www.w3.org/2000/svg">
<path d="M170 140C186.569 140 200 126.569 200 110C200 93.4315 186.569 80 170 80C153.431 80 140 93.4315 140 110C140 126.569 153.431 140 170 140Z" fill="#F0F2DA"/>
<path d="M110 140C126.569 140 140 126.569 140 110C140 93.4315 126.569 80 110 80C93.4315 80 80 93.4315 80 110C80 126.569 93.4315 140 110 140Z" fill="#F0F2DA"/>
<path d="M50 140C66.5685 140 80 126.569 80 110C80 93.4315 66.5685 80 50 80C33.4315 80 20 93.4315 20 110C20 126.569 33.4315 140 50 140Z" fill="#F0F2DA"/>
<path d="M110 133V88L128 110.5L110 133Z" fill="#F0F2DA"/>
<path d="M110 88V133L92 110.5L110 88Z" fill="#F0F2DA"/>
</svg>
