<svg width="220" height="220" viewBox="0 0 220 220" fill="none" xmlns="http://www.w3.org/2000/svg">
<path d="M110 120C115.523 120 120 115.523 120 110C120 104.477 115.523 100 110 100C104.477 100 100 104.477 100 110C100 115.523 104.477 120 110 120Z" fill="#F0F2DA"/>
<path d="M110 120C115.523 120 120 115.523 120 110C120 104.477 115.523 100 110 100C104.477 100 100 104.477 100 110C100 115.523 104.477 120 110 120Z" fill="#F0F2DA"/>
<path d="M110 120C115.523 120 120 115.523 120 110C120 104.477 115.523 100 110 100C104.477 100 100 104.477 100 110C100 115.523 104.477 120 110 120Z" fill="#F0F2DA"/>
<path d="M110 185V35L170 110L110 185Z" fill="#F0F2DA"/>
<path d="M110 35V185L50 110L110 35Z" fill="#F0F2DA"/>
</svg>
